G75*
%MOIN*%
%OFA0B0*%
%FSLAX25Y25*%
%IPPOS*%
%LPD*%
%AMOC8*
5,1,8,0,0,1.08239X$1,22.5*
%
%ADD10C,0.40500*%
%ADD11R,0.10500X0.20500*%
%ADD12C,0.06900*%
%ADD13C,0.07900*%
%ADD14R,0.07587X0.07587*%
%ADD15C,0.07587*%
%ADD16R,0.16500X0.06500*%
%ADD17C,0.08500*%
%ADD18C,0.05815*%
%ADD19C,0.04437*%
%ADD20OC8,0.03669*%
%ADD21OC8,0.03078*%
%ADD22OC8,0.06406*%
%ADD23OC8,0.05815*%
%ADD24OC8,0.03275*%
%ADD25C,0.03078*%
%ADD26OC8,0.04929*%
%ADD27OC8,0.17000*%
%ADD28OC8,0.04062*%
D10*
X0322869Y0058625D03*
D11*
X0292869Y0058625D03*
X0352869Y0058625D03*
D12*
X0109619Y0150500D03*
X0099619Y0150500D03*
X0089619Y0150500D03*
X0089619Y0160500D03*
X0099619Y0160500D03*
X0109619Y0160500D03*
D13*
X0114119Y0175500D03*
X0124119Y0175500D03*
X0104119Y0175500D03*
X0094119Y0175500D03*
X0084119Y0175500D03*
X0074119Y0175500D03*
X0361619Y0020500D03*
X0371619Y0020500D03*
X0381619Y0020500D03*
X0391619Y0020500D03*
D14*
X0216619Y0024000D03*
X0071619Y0024000D03*
X0266619Y0165500D03*
X0291619Y0165500D03*
D15*
X0305398Y0165500D03*
X0319178Y0165500D03*
X0332957Y0165500D03*
X0346737Y0165500D03*
X0360516Y0165500D03*
X0374296Y0165500D03*
X0388075Y0165500D03*
X0401855Y0165500D03*
X0415634Y0165500D03*
X0252839Y0165500D03*
X0239060Y0165500D03*
X0225280Y0165500D03*
X0211501Y0165500D03*
X0197721Y0165500D03*
X0183942Y0165500D03*
X0170162Y0165500D03*
X0156383Y0165500D03*
X0142603Y0165500D03*
X0022619Y0147780D03*
X0022619Y0120220D03*
X0085398Y0024000D03*
X0099178Y0024000D03*
X0112957Y0024000D03*
X0126737Y0024000D03*
X0140516Y0024000D03*
X0154296Y0024000D03*
X0168075Y0024000D03*
X0181855Y0024000D03*
X0195634Y0024000D03*
X0230398Y0024000D03*
X0244178Y0024000D03*
X0257957Y0024000D03*
X0271737Y0024000D03*
X0285516Y0024000D03*
X0299296Y0024000D03*
X0313075Y0024000D03*
X0326855Y0024000D03*
X0340634Y0024000D03*
D16*
X0494869Y0020500D03*
X0494869Y0040500D03*
D17*
X0476931Y0150813D03*
X0458931Y0150813D03*
D18*
X0033249Y0143843D03*
X0033249Y0124157D03*
D19*
X0165492Y0092212D03*
X0193331Y0064373D03*
D20*
X0219119Y0080000D03*
X0229306Y0093937D03*
X0180619Y0114500D03*
X0119869Y0137750D03*
X0081369Y0148438D03*
X0130119Y0160625D03*
X0081244Y0125500D03*
X0071619Y0105500D03*
X0107244Y0089875D03*
X0111994Y0090250D03*
X0117869Y0096625D03*
X0114756Y0099816D03*
X0104119Y0084250D03*
X0100119Y0080500D03*
X0101619Y0075500D03*
X0045404Y0080559D03*
X0230758Y0161530D03*
X0316619Y0155419D03*
X0388119Y0183000D03*
X0397119Y0153369D03*
X0315994Y0116750D03*
X0336306Y0105187D03*
X0328994Y0103625D03*
X0359619Y0088937D03*
X0386619Y0076084D03*
X0366619Y0075500D03*
X0356619Y0075500D03*
X0371619Y0055500D03*
X0346619Y0040500D03*
X0361619Y0035500D03*
X0377869Y0038500D03*
X0431619Y0060500D03*
X0446619Y0060500D03*
X0411174Y0065056D03*
X0409306Y0070813D03*
X0408869Y0079000D03*
X0409463Y0087500D03*
X0457495Y0085500D03*
X0397119Y0115500D03*
X0315369Y0054875D03*
D21*
X0272406Y0069999D03*
X0259619Y0067000D03*
X0255494Y0073750D03*
X0264752Y0074627D03*
X0259119Y0077000D03*
X0252247Y0076817D03*
X0260962Y0083313D03*
X0269619Y0080500D03*
X0264228Y0086625D03*
X0275975Y0095789D03*
X0279688Y0097419D03*
X0283761Y0095937D03*
X0294522Y0097687D03*
X0283830Y0101226D03*
X0283872Y0105500D03*
X0284994Y0110937D03*
X0281244Y0117625D03*
X0280147Y0121125D03*
X0273470Y0120914D03*
X0274619Y0125000D03*
X0266092Y0127000D03*
X0262119Y0126000D03*
X0266619Y0131000D03*
X0270119Y0136000D03*
X0268345Y0140552D03*
X0262767Y0146961D03*
X0282869Y0143000D03*
X0285369Y0146750D03*
X0290369Y0146125D03*
X0282089Y0138470D03*
X0296619Y0135500D03*
X0294119Y0131750D03*
X0290994Y0128625D03*
X0303494Y0134250D03*
X0309744Y0131125D03*
X0314119Y0128000D03*
X0317244Y0124816D03*
X0320994Y0121750D03*
X0317244Y0135500D03*
X0301619Y0139250D03*
X0343119Y0139500D03*
X0361619Y0120500D03*
X0306994Y0097750D03*
X0295619Y0086437D03*
X0304122Y0080497D03*
X0272267Y0099970D03*
X0268489Y0099851D03*
X0264545Y0099851D03*
X0262119Y0102285D03*
X0262119Y0107444D03*
X0262119Y0111222D03*
X0262119Y0115000D03*
X0228619Y0112000D03*
X0227119Y0115000D03*
X0220619Y0112500D03*
X0213119Y0110500D03*
X0197576Y0110293D03*
X0190908Y0116994D03*
X0182499Y0121222D03*
X0181619Y0133500D03*
X0175908Y0138500D03*
X0175908Y0142278D03*
X0181619Y0148000D03*
X0174408Y0153000D03*
X0196345Y0150774D03*
X0199119Y0148000D03*
X0209619Y0152000D03*
X0221536Y0156214D03*
X0215467Y0160848D03*
X0218223Y0137000D03*
X0221874Y0133245D03*
X0228119Y0125000D03*
X0228119Y0121500D03*
X0176202Y0103412D03*
X0186619Y0094000D03*
X0199442Y0083313D03*
X0219436Y0072222D03*
X0224119Y0076500D03*
X0237119Y0079524D03*
X0225436Y0066155D03*
X0252119Y0061500D03*
X0183677Y0049058D03*
X0177954Y0054836D03*
X0173361Y0059413D03*
X0166927Y0065808D03*
X0164119Y0069500D03*
X0149369Y0083457D03*
X0155619Y0094000D03*
X0139119Y0107500D03*
X0122619Y0121000D03*
X0110119Y0134350D03*
X0110119Y0137750D03*
X0112480Y0140161D03*
X0129119Y0137000D03*
X0136619Y0153000D03*
X0125119Y0154000D03*
X0079119Y0170250D03*
X0071115Y0149188D03*
X0062619Y0139500D03*
X0054619Y0131500D03*
X0071374Y0123000D03*
X0223619Y0096858D03*
X0244119Y0099851D03*
X0099505Y0057614D03*
X0099505Y0052614D03*
X0057119Y0034500D03*
X0062119Y0024000D03*
X0237619Y0021500D03*
D22*
X0259119Y0034750D03*
X0251869Y0038500D03*
X0315994Y0098937D03*
X0368369Y0104750D03*
X0356619Y0125500D03*
X0311619Y0144250D03*
X0202619Y0106000D03*
X0186619Y0107500D03*
X0135994Y0169875D03*
X0147869Y0178000D03*
X0463181Y0127997D03*
X0446619Y0025187D03*
D23*
X0460056Y0017375D03*
X0457495Y0037626D03*
D24*
X0370369Y0136250D03*
X0419619Y0142500D03*
X0425619Y0141000D03*
X0136654Y0134012D03*
X0110119Y0131000D03*
D25*
X0124119Y0130000D03*
X0042119Y0157500D03*
X0046119Y0173500D03*
X0289846Y0117281D03*
X0348119Y0159980D03*
X0144119Y0067000D03*
X0129619Y0064500D03*
X0266119Y0061000D03*
X0406619Y0041000D03*
D26*
X0378119Y0137000D03*
D27*
X0026306Y0020500D03*
X0026306Y0178312D03*
X0495681Y0178312D03*
D28*
X0440119Y0109000D03*
M02*
