G75*
%MOIN*%
%OFA0B0*%
%FSLAX25Y25*%
%IPPOS*%
%LPD*%
%AMOC8*
5,1,8,0,0,1.08239X$1,22.5*
%
%ADD10C,0.40000*%
%ADD11R,0.10000X0.20000*%
%ADD12C,0.06400*%
%ADD13C,0.07400*%
%ADD14R,0.07087X0.07087*%
%ADD15C,0.07087*%
%ADD16R,0.16000X0.06000*%
%ADD17C,0.05315*%
%ADD18C,0.02775*%
%ADD19OC8,0.03169*%
%ADD20OC8,0.02578*%
%ADD21C,0.01200*%
%ADD22C,0.01000*%
%ADD23C,0.05000*%
%ADD24C,0.01600*%
%ADD25C,0.02400*%
%ADD26OC8,0.05906*%
%ADD27C,0.04000*%
%ADD28C,0.03200*%
%ADD29OC8,0.05315*%
%ADD30OC8,0.02775*%
%ADD31C,0.02578*%
%ADD32OC8,0.04429*%
%ADD33OC8,0.16500*%
%ADD34C,0.00787*%
%ADD35OC8,0.03562*%
D10*
X0322869Y0058625D03*
D11*
X0292869Y0058625D03*
X0352869Y0058625D03*
D12*
X0109619Y0150500D03*
X0099619Y0150500D03*
X0089619Y0150500D03*
X0089619Y0160500D03*
X0099619Y0160500D03*
X0109619Y0160500D03*
D13*
X0114119Y0175500D03*
X0124119Y0175500D03*
X0104119Y0175500D03*
X0094119Y0175500D03*
X0084119Y0175500D03*
X0074119Y0175500D03*
X0361619Y0020500D03*
X0371619Y0020500D03*
X0381619Y0020500D03*
X0391619Y0020500D03*
D14*
X0216619Y0024000D03*
X0071619Y0024000D03*
X0266619Y0165500D03*
X0291619Y0165500D03*
D15*
X0305398Y0165500D03*
X0319178Y0165500D03*
X0332957Y0165500D03*
X0346737Y0165500D03*
X0360516Y0165500D03*
X0374296Y0165500D03*
X0388075Y0165500D03*
X0401855Y0165500D03*
X0415634Y0165500D03*
X0252839Y0165500D03*
X0239060Y0165500D03*
X0225280Y0165500D03*
X0211501Y0165500D03*
X0197721Y0165500D03*
X0183942Y0165500D03*
X0170162Y0165500D03*
X0156383Y0165500D03*
X0142603Y0165500D03*
X0022619Y0147780D03*
X0022619Y0120220D03*
X0085398Y0024000D03*
X0099178Y0024000D03*
X0112957Y0024000D03*
X0126737Y0024000D03*
X0140516Y0024000D03*
X0154296Y0024000D03*
X0168075Y0024000D03*
X0181855Y0024000D03*
X0195634Y0024000D03*
X0230398Y0024000D03*
X0244178Y0024000D03*
X0257957Y0024000D03*
X0271737Y0024000D03*
X0285516Y0024000D03*
X0299296Y0024000D03*
X0313075Y0024000D03*
X0326855Y0024000D03*
X0340634Y0024000D03*
D16*
X0494869Y0020500D03*
X0494869Y0040500D03*
D17*
X0033249Y0124157D03*
X0033249Y0143843D03*
D18*
X0414119Y0136862D03*
X0414119Y0132138D03*
D19*
X0397119Y0115500D03*
X0336306Y0105187D03*
X0328994Y0103625D03*
X0315994Y0116750D03*
X0359619Y0088937D03*
X0386619Y0076084D03*
X0366619Y0075500D03*
X0356619Y0075500D03*
X0371619Y0055500D03*
X0346619Y0040500D03*
X0361619Y0035500D03*
X0377869Y0038500D03*
X0431619Y0060500D03*
X0446619Y0060500D03*
X0411174Y0065056D03*
X0409306Y0070813D03*
X0408869Y0079000D03*
X0409463Y0087500D03*
X0457495Y0085500D03*
X0315369Y0054875D03*
X0219119Y0080000D03*
X0236556Y0093937D03*
X0180619Y0114500D03*
X0119869Y0137750D03*
X0081369Y0148438D03*
X0130119Y0160625D03*
X0081244Y0125500D03*
X0071619Y0105500D03*
X0107244Y0089875D03*
X0111994Y0090250D03*
X0117869Y0096625D03*
X0114756Y0099816D03*
X0104119Y0084250D03*
X0100119Y0080500D03*
X0101619Y0075500D03*
X0045404Y0080559D03*
X0230758Y0161530D03*
X0316619Y0155419D03*
X0388119Y0183000D03*
X0397119Y0153369D03*
D20*
X0343119Y0139500D03*
X0317244Y0135500D03*
X0309744Y0131125D03*
X0303494Y0134250D03*
X0296619Y0135500D03*
X0294119Y0131750D03*
X0290994Y0128625D03*
X0274619Y0125000D03*
X0273470Y0120914D03*
X0280147Y0121125D03*
X0281244Y0117625D03*
X0284994Y0110937D03*
X0283872Y0105500D03*
X0283830Y0101226D03*
X0279688Y0097419D03*
X0275975Y0095789D03*
X0283761Y0095937D03*
X0294522Y0097687D03*
X0306994Y0097750D03*
X0295619Y0086437D03*
X0304122Y0080497D03*
X0272406Y0069999D03*
X0259619Y0067000D03*
X0255494Y0073750D03*
X0264752Y0074627D03*
X0259119Y0077000D03*
X0252247Y0076817D03*
X0240619Y0079524D03*
X0224119Y0076500D03*
X0219436Y0072222D03*
X0225436Y0066155D03*
X0252119Y0062000D03*
X0269619Y0080500D03*
X0260962Y0083313D03*
X0264228Y0086625D03*
X0231619Y0097108D03*
X0244119Y0099851D03*
X0262119Y0102285D03*
X0264545Y0099851D03*
X0268489Y0099851D03*
X0272267Y0099970D03*
X0262119Y0107444D03*
X0262119Y0111222D03*
X0262119Y0115000D03*
X0262119Y0126000D03*
X0266092Y0127000D03*
X0266619Y0131000D03*
X0270119Y0136000D03*
X0268345Y0140552D03*
X0262767Y0146961D03*
X0282869Y0143000D03*
X0285369Y0146750D03*
X0290369Y0146125D03*
X0282089Y0138470D03*
X0301619Y0139250D03*
X0314119Y0128000D03*
X0317244Y0124816D03*
X0320994Y0121750D03*
X0361619Y0120500D03*
X0228619Y0112000D03*
X0227119Y0115000D03*
X0220619Y0112500D03*
X0213119Y0110500D03*
X0197576Y0110293D03*
X0190908Y0116994D03*
X0182499Y0121222D03*
X0181619Y0133500D03*
X0175908Y0138500D03*
X0175908Y0142278D03*
X0181619Y0148000D03*
X0174408Y0153000D03*
X0196345Y0150774D03*
X0199119Y0148000D03*
X0209619Y0152000D03*
X0221536Y0156214D03*
X0215467Y0160848D03*
X0218223Y0137000D03*
X0221874Y0133245D03*
X0228119Y0125000D03*
X0228119Y0121500D03*
X0176202Y0103412D03*
X0186619Y0094000D03*
X0199442Y0083313D03*
X0164119Y0069500D03*
X0166927Y0065808D03*
X0173361Y0059413D03*
X0177954Y0054836D03*
X0183677Y0049058D03*
X0237619Y0021500D03*
X0099505Y0052614D03*
X0099505Y0057614D03*
X0057119Y0034500D03*
X0062119Y0024000D03*
X0149369Y0083457D03*
X0155619Y0094000D03*
X0139119Y0107500D03*
X0122619Y0121000D03*
X0110119Y0134350D03*
X0110119Y0137750D03*
X0112480Y0140161D03*
X0129119Y0137000D03*
X0136619Y0153000D03*
X0125119Y0154000D03*
X0079119Y0170250D03*
X0071115Y0149188D03*
X0062619Y0139500D03*
X0054619Y0131500D03*
X0071374Y0123000D03*
D21*
X0081244Y0125500D02*
X0081244Y0055125D01*
X0060619Y0034500D01*
X0057119Y0034500D01*
X0129619Y0064500D02*
X0132119Y0067000D01*
X0144119Y0067000D01*
X0104119Y0078000D02*
X0217119Y0078000D01*
X0219119Y0080000D01*
X0252247Y0076817D02*
X0252247Y0062128D01*
X0252119Y0062000D01*
X0272406Y0069999D02*
X0276119Y0066286D01*
X0276119Y0039000D01*
X0279619Y0035500D01*
X0361619Y0035500D01*
X0322869Y0054875D02*
X0315369Y0054875D01*
X0322869Y0054875D02*
X0322869Y0058625D01*
X0292901Y0058625D02*
X0292869Y0058625D01*
X0297994Y0081250D02*
X0270369Y0081250D01*
X0269619Y0080500D01*
X0270244Y0081125D01*
X0269520Y0086125D02*
X0265145Y0090500D01*
X0170306Y0090500D01*
X0167156Y0087350D01*
X0137049Y0087350D01*
X0135824Y0086125D01*
X0115194Y0086125D01*
X0111994Y0089325D01*
X0111994Y0090250D01*
X0107244Y0089875D02*
X0107244Y0146370D01*
X0105019Y0148595D01*
X0105019Y0151605D01*
X0101524Y0155100D01*
X0097713Y0155100D01*
X0093113Y0150500D01*
X0089619Y0150500D01*
X0099619Y0150500D02*
X0104059Y0146059D01*
X0104059Y0088556D01*
X0104119Y0088497D01*
X0104119Y0084250D01*
X0104119Y0087012D01*
X0104119Y0084250D02*
X0104119Y0084125D01*
X0104694Y0083500D01*
X0149369Y0083457D01*
X0178042Y0083423D01*
X0181214Y0086595D01*
X0182629Y0086595D01*
X0264228Y0086625D01*
X0269520Y0086125D02*
X0291619Y0086125D01*
X0292244Y0086437D01*
X0295619Y0086437D01*
X0291669Y0086125D02*
X0291619Y0086125D01*
X0297994Y0081250D02*
X0302369Y0085625D01*
X0345244Y0085625D01*
X0347869Y0082500D01*
X0385324Y0082500D01*
X0386107Y0082535D01*
X0386145Y0082500D01*
X0405369Y0082500D01*
X0408869Y0079000D01*
X0359619Y0088937D02*
X0358758Y0089798D01*
X0328994Y0103625D02*
X0315994Y0116750D01*
X0320994Y0121750D02*
X0336306Y0121750D01*
X0336306Y0105187D01*
X0306994Y0097750D02*
X0305619Y0097750D01*
X0302869Y0100500D01*
X0295431Y0100500D01*
X0284994Y0110937D01*
X0281244Y0108128D02*
X0281244Y0117625D01*
X0280147Y0121125D02*
X0280147Y0125500D01*
X0272869Y0132779D01*
X0272869Y0148313D01*
X0264118Y0148313D01*
X0262767Y0146961D01*
X0262767Y0139648D01*
X0255119Y0132000D01*
X0235619Y0132000D01*
X0234619Y0131000D01*
X0234619Y0122342D01*
X0233777Y0121500D01*
X0228119Y0121500D01*
X0227119Y0115000D02*
X0227119Y0114020D01*
X0226130Y0113031D01*
X0226130Y0112043D01*
X0214853Y0100766D01*
X0184658Y0100766D01*
X0184424Y0101000D01*
X0176279Y0101000D01*
X0174462Y0101000D01*
X0172462Y0103000D01*
X0117756Y0103000D01*
X0114756Y0099816D01*
X0117869Y0096625D02*
X0122244Y0101000D01*
X0171319Y0101000D01*
X0173319Y0099000D01*
X0183892Y0099000D01*
X0183916Y0098976D01*
X0215594Y0098976D01*
X0228619Y0112000D01*
X0261341Y0112000D01*
X0262119Y0111222D01*
X0281244Y0108128D02*
X0283872Y0105500D01*
X0290994Y0128625D02*
X0290684Y0129875D01*
X0282089Y0138470D01*
X0282869Y0143000D02*
X0294119Y0131750D01*
X0295369Y0135500D02*
X0285369Y0145500D01*
X0285369Y0146750D01*
X0290369Y0146125D02*
X0297244Y0139250D01*
X0301619Y0139250D01*
X0304744Y0135500D02*
X0317244Y0135500D01*
X0304744Y0135500D02*
X0303494Y0134250D01*
X0296619Y0135500D02*
X0295369Y0135500D01*
X0314119Y0128000D02*
X0323016Y0128000D01*
X0360516Y0165500D01*
X0268345Y0140552D02*
X0266619Y0138826D01*
X0266619Y0131000D01*
X0221572Y0156250D02*
X0220647Y0155325D01*
X0218598Y0159564D02*
X0228680Y0159564D01*
X0229050Y0159934D01*
X0230412Y0161184D01*
X0230758Y0161530D01*
X0218598Y0159564D02*
X0218598Y0167548D01*
X0215646Y0170500D01*
X0154169Y0170500D01*
X0144973Y0160406D01*
X0129838Y0160406D01*
X0130119Y0160625D01*
X0119744Y0160625D01*
X0109619Y0150500D01*
X0123096Y0132720D02*
X0135362Y0132720D01*
X0136654Y0134012D01*
X0123096Y0132720D02*
X0121376Y0131000D01*
X0110119Y0131000D01*
X0122619Y0121000D02*
X0136119Y0107500D01*
X0139119Y0107500D01*
X0071619Y0105500D02*
X0070345Y0105500D01*
X0045404Y0080559D01*
X0101619Y0075500D02*
X0104119Y0078000D01*
X0054619Y0131500D02*
X0062619Y0139500D01*
X0114119Y0175500D02*
X0114144Y0175500D01*
D22*
X0144529Y0181214D02*
X0079832Y0181214D01*
X0074119Y0175500D01*
X0092119Y0155500D02*
X0097119Y0160500D01*
X0099619Y0160500D01*
X0092119Y0155500D02*
X0087119Y0155500D01*
X0084619Y0153000D01*
X0084619Y0093500D01*
X0096619Y0080500D01*
X0100119Y0080500D01*
X0179706Y0080500D01*
X0182519Y0083313D01*
X0199442Y0083313D01*
X0260962Y0083313D01*
X0262556Y0083313D01*
X0269119Y0076750D01*
X0273494Y0076750D01*
X0275994Y0079250D01*
X0298931Y0079250D01*
X0303306Y0083625D01*
X0344306Y0083625D01*
X0346744Y0080500D01*
X0399619Y0080500D01*
X0409306Y0070813D01*
X0412453Y0066334D02*
X0412453Y0080278D01*
X0408331Y0084400D01*
X0397594Y0084400D01*
X0396619Y0085375D01*
X0347869Y0085375D01*
X0345869Y0087875D01*
X0301619Y0087875D01*
X0297056Y0083313D01*
X0274744Y0083313D01*
X0274119Y0083938D01*
X0268806Y0083938D01*
X0266119Y0086625D01*
X0264228Y0086625D01*
X0258400Y0081513D02*
X0252119Y0081513D01*
X0246606Y0076500D01*
X0224119Y0076500D01*
X0220219Y0076100D02*
X0225119Y0081500D01*
X0238642Y0081500D01*
X0240619Y0079524D01*
X0237535Y0072222D02*
X0250841Y0058916D01*
X0253396Y0058916D01*
X0258396Y0063916D01*
X0260896Y0063916D01*
X0262703Y0065722D01*
X0262703Y0068278D01*
X0259119Y0071862D01*
X0259119Y0077000D01*
X0264503Y0074378D02*
X0264503Y0064977D01*
X0256642Y0057116D01*
X0250096Y0057116D01*
X0238267Y0068944D01*
X0164675Y0068944D01*
X0164119Y0069500D01*
X0166927Y0065808D02*
X0179811Y0065808D01*
X0202366Y0043253D01*
X0257880Y0043253D01*
X0270790Y0030343D01*
X0286523Y0030343D01*
X0297866Y0019000D01*
X0308119Y0019000D01*
X0313075Y0023957D01*
X0313075Y0024000D01*
X0299296Y0024000D02*
X0296411Y0024000D01*
X0288268Y0032143D01*
X0272522Y0032143D01*
X0238511Y0066155D01*
X0225436Y0066155D01*
X0219436Y0072222D02*
X0237535Y0072222D01*
X0220219Y0076100D02*
X0105719Y0076100D01*
X0104703Y0075084D01*
X0104703Y0074222D01*
X0062119Y0031638D01*
X0062119Y0024000D01*
X0099505Y0052614D02*
X0099705Y0052814D01*
X0175932Y0052814D01*
X0177954Y0054836D01*
X0173361Y0059413D02*
X0167888Y0054614D01*
X0103619Y0054614D01*
X0100619Y0057614D01*
X0099505Y0057614D01*
X0107244Y0089875D02*
X0107244Y0090275D01*
X0110219Y0093250D01*
X0144869Y0093250D01*
X0150681Y0099062D01*
X0170012Y0099062D01*
X0172012Y0097062D01*
X0187056Y0097062D01*
X0191619Y0092500D01*
X0231071Y0092500D01*
X0235371Y0096800D01*
X0264819Y0096800D01*
X0268619Y0093000D01*
X0285735Y0093000D01*
X0286360Y0092375D01*
X0360669Y0092375D01*
X0363481Y0088937D01*
X0408026Y0088937D01*
X0409463Y0087500D01*
X0420336Y0091125D02*
X0431619Y0079842D01*
X0431619Y0060500D01*
X0412453Y0066334D02*
X0411174Y0065056D01*
X0346619Y0040500D02*
X0343219Y0037100D01*
X0314554Y0037100D01*
X0293029Y0058625D01*
X0292901Y0058625D01*
X0259619Y0067000D02*
X0255494Y0071125D01*
X0255494Y0073750D01*
X0264503Y0074378D02*
X0264752Y0074627D01*
X0268373Y0074950D02*
X0263095Y0080228D01*
X0259684Y0080228D01*
X0258400Y0081513D01*
X0268373Y0074950D02*
X0274239Y0074950D01*
X0276739Y0077450D01*
X0301075Y0077450D01*
X0304122Y0080497D01*
X0294054Y0094304D02*
X0361565Y0094304D01*
X0364744Y0091125D01*
X0420336Y0091125D01*
X0447571Y0096550D02*
X0367652Y0096550D01*
X0358919Y0106374D01*
X0358919Y0122069D01*
X0360671Y0123821D01*
X0360671Y0127179D01*
X0358297Y0129553D01*
X0356213Y0129553D01*
X0357907Y0131247D01*
X0358379Y0132386D01*
X0358379Y0149897D01*
X0388676Y0149841D01*
X0388679Y0149840D01*
X0389290Y0149840D01*
X0389906Y0149839D01*
X0389909Y0149840D01*
X0389912Y0149840D01*
X0390478Y0150075D01*
X0391046Y0150309D01*
X0391048Y0150311D01*
X0391051Y0150312D01*
X0391485Y0150746D01*
X0391920Y0151179D01*
X0391921Y0151182D01*
X0401596Y0160857D01*
X0402779Y0160857D01*
X0404485Y0161564D01*
X0405394Y0162472D01*
X0425958Y0141908D01*
X0425995Y0141908D01*
X0442205Y0125697D01*
X0456497Y0125697D01*
X0442900Y0112100D01*
X0439502Y0112100D01*
X0438974Y0111881D01*
X0438925Y0111881D01*
X0438891Y0111847D01*
X0438363Y0111628D01*
X0437491Y0110756D01*
X0437272Y0110228D01*
X0437238Y0110193D01*
X0437238Y0110145D01*
X0437019Y0109617D01*
X0437019Y0108383D01*
X0437238Y0107855D01*
X0437238Y0107807D01*
X0437272Y0107772D01*
X0437491Y0107244D01*
X0438363Y0106372D01*
X0438891Y0106153D01*
X0438925Y0106119D01*
X0438974Y0106119D01*
X0439502Y0105900D01*
X0444801Y0105900D01*
X0445940Y0106372D01*
X0446812Y0107244D01*
X0463513Y0123944D01*
X0464860Y0123944D01*
X0467234Y0126319D01*
X0467234Y0129676D01*
X0464860Y0132050D01*
X0461503Y0132050D01*
X0459750Y0130297D01*
X0444111Y0130297D01*
X0427900Y0146508D01*
X0427864Y0146508D01*
X0409648Y0164723D01*
X0409648Y0168625D01*
X0406327Y0171946D01*
X0404979Y0173293D01*
X0398480Y0173293D01*
X0392987Y0167800D01*
X0392149Y0167800D01*
X0392012Y0168130D01*
X0390706Y0169436D01*
X0389675Y0169863D01*
X0389675Y0173557D01*
X0397119Y0181000D01*
X0480119Y0181000D01*
X0486331Y0174787D01*
X0486331Y0174440D01*
X0491808Y0168963D01*
X0492156Y0168963D01*
X0503119Y0158000D01*
X0503119Y0100000D01*
X0500619Y0096500D01*
X0447621Y0096500D01*
X0447571Y0096550D01*
X0445901Y0106356D02*
X0503119Y0106356D01*
X0503119Y0107354D02*
X0446922Y0107354D01*
X0447921Y0108353D02*
X0503119Y0108353D01*
X0503119Y0109351D02*
X0448919Y0109351D01*
X0449918Y0110350D02*
X0503119Y0110350D01*
X0503119Y0111348D02*
X0450916Y0111348D01*
X0451915Y0112347D02*
X0503119Y0112347D01*
X0503119Y0113345D02*
X0452913Y0113345D01*
X0453912Y0114344D02*
X0503119Y0114344D01*
X0503119Y0115342D02*
X0454910Y0115342D01*
X0455909Y0116341D02*
X0503119Y0116341D01*
X0503119Y0117339D02*
X0456907Y0117339D01*
X0457906Y0118338D02*
X0503119Y0118338D01*
X0503119Y0119336D02*
X0458904Y0119336D01*
X0459903Y0120335D02*
X0503119Y0120335D01*
X0503119Y0121333D02*
X0460901Y0121333D01*
X0461900Y0122332D02*
X0503119Y0122332D01*
X0503119Y0123330D02*
X0462898Y0123330D01*
X0465244Y0124329D02*
X0503119Y0124329D01*
X0503119Y0125327D02*
X0466243Y0125327D01*
X0467234Y0126326D02*
X0503119Y0126326D01*
X0503119Y0127324D02*
X0467234Y0127324D01*
X0467234Y0128323D02*
X0503119Y0128323D01*
X0503119Y0129321D02*
X0467234Y0129321D01*
X0466590Y0130320D02*
X0503119Y0130320D01*
X0503119Y0131318D02*
X0465592Y0131318D01*
X0460771Y0131318D02*
X0443090Y0131318D01*
X0444088Y0130320D02*
X0459772Y0130320D01*
X0456127Y0125327D02*
X0381719Y0125327D01*
X0381719Y0124329D02*
X0455129Y0124329D01*
X0454130Y0123330D02*
X0381719Y0123330D01*
X0381719Y0122332D02*
X0453132Y0122332D01*
X0452133Y0121333D02*
X0381719Y0121333D01*
X0381719Y0120335D02*
X0451135Y0120335D01*
X0450136Y0119336D02*
X0381719Y0119336D01*
X0381719Y0118338D02*
X0449138Y0118338D01*
X0448139Y0117339D02*
X0381719Y0117339D01*
X0381719Y0116341D02*
X0447141Y0116341D01*
X0446142Y0115342D02*
X0381719Y0115342D01*
X0381719Y0114344D02*
X0445144Y0114344D01*
X0444145Y0113345D02*
X0381719Y0113345D01*
X0381719Y0112347D02*
X0443147Y0112347D01*
X0438083Y0111348D02*
X0381719Y0111348D01*
X0381719Y0110350D02*
X0437322Y0110350D01*
X0437019Y0109351D02*
X0381332Y0109351D01*
X0381171Y0108961D02*
X0381719Y0110284D01*
X0381719Y0137716D01*
X0381171Y0139039D01*
X0380158Y0140052D01*
X0378835Y0140600D01*
X0377403Y0140600D01*
X0376079Y0140052D01*
X0375067Y0139039D01*
X0374519Y0137716D01*
X0374519Y0122100D01*
X0363397Y0122100D01*
X0362608Y0122889D01*
X0360629Y0122889D01*
X0359230Y0121490D01*
X0359230Y0119510D01*
X0360629Y0118111D01*
X0362608Y0118111D01*
X0363397Y0118900D01*
X0374519Y0118900D01*
X0374519Y0112491D01*
X0370439Y0108411D01*
X0370047Y0108803D01*
X0366690Y0108803D01*
X0364316Y0106429D01*
X0364316Y0103071D01*
X0366690Y0100697D01*
X0370047Y0100697D01*
X0370500Y0101150D01*
X0372585Y0101150D01*
X0373908Y0101698D01*
X0374921Y0102711D01*
X0380158Y0107948D01*
X0381171Y0108961D01*
X0380563Y0108353D02*
X0437031Y0108353D01*
X0437445Y0107354D02*
X0379564Y0107354D01*
X0380158Y0107948D02*
X0380158Y0107948D01*
X0378565Y0106356D02*
X0438402Y0106356D01*
X0441577Y0126326D02*
X0381719Y0126326D01*
X0381719Y0127324D02*
X0440578Y0127324D01*
X0439580Y0128323D02*
X0381719Y0128323D01*
X0381719Y0129321D02*
X0438581Y0129321D01*
X0437583Y0130320D02*
X0381719Y0130320D01*
X0381719Y0131318D02*
X0436584Y0131318D01*
X0435586Y0132317D02*
X0381719Y0132317D01*
X0381719Y0133315D02*
X0434587Y0133315D01*
X0433589Y0134314D02*
X0381719Y0134314D01*
X0381719Y0135312D02*
X0432590Y0135312D01*
X0431592Y0136311D02*
X0381719Y0136311D01*
X0381719Y0137309D02*
X0430593Y0137309D01*
X0429595Y0138308D02*
X0381474Y0138308D01*
X0380903Y0139306D02*
X0428596Y0139306D01*
X0427598Y0140305D02*
X0379547Y0140305D01*
X0376690Y0140305D02*
X0358379Y0140305D01*
X0358379Y0141303D02*
X0426599Y0141303D01*
X0425619Y0141000D02*
X0424119Y0142500D01*
X0419619Y0142500D01*
X0422569Y0145298D02*
X0358379Y0145298D01*
X0358379Y0146296D02*
X0421570Y0146296D01*
X0420571Y0147295D02*
X0358379Y0147295D01*
X0358379Y0148293D02*
X0419573Y0148293D01*
X0418574Y0149292D02*
X0358379Y0149292D01*
X0358379Y0144299D02*
X0423567Y0144299D01*
X0424566Y0143301D02*
X0358379Y0143301D01*
X0358379Y0142302D02*
X0425564Y0142302D01*
X0429111Y0145298D02*
X0503119Y0145298D01*
X0503119Y0146296D02*
X0480193Y0146296D01*
X0480047Y0146150D02*
X0481594Y0147697D01*
X0482431Y0149718D01*
X0482431Y0151907D01*
X0481594Y0153928D01*
X0480047Y0155475D01*
X0478025Y0156312D01*
X0475837Y0156312D01*
X0473816Y0155475D01*
X0472269Y0153928D01*
X0471431Y0151907D01*
X0471431Y0149718D01*
X0472269Y0147697D01*
X0473816Y0146150D01*
X0475837Y0145313D01*
X0478025Y0145313D01*
X0480047Y0146150D01*
X0481191Y0147295D02*
X0503119Y0147295D01*
X0503119Y0148293D02*
X0481841Y0148293D01*
X0482254Y0149292D02*
X0503119Y0149292D01*
X0503119Y0150290D02*
X0482431Y0150290D01*
X0482431Y0151289D02*
X0503119Y0151289D01*
X0503119Y0152287D02*
X0482274Y0152287D01*
X0481860Y0153286D02*
X0503119Y0153286D01*
X0503119Y0154284D02*
X0481238Y0154284D01*
X0480239Y0155283D02*
X0503119Y0155283D01*
X0503119Y0156281D02*
X0478101Y0156281D01*
X0475762Y0156281D02*
X0460101Y0156281D01*
X0460025Y0156312D02*
X0457837Y0156312D01*
X0455816Y0155475D01*
X0454269Y0153928D01*
X0453431Y0151907D01*
X0453431Y0149718D01*
X0454269Y0147697D01*
X0455816Y0146150D01*
X0457837Y0145313D01*
X0460025Y0145313D01*
X0462047Y0146150D01*
X0463594Y0147697D01*
X0464431Y0149718D01*
X0464431Y0151907D01*
X0463594Y0153928D01*
X0462047Y0155475D01*
X0460025Y0156312D01*
X0457762Y0156281D02*
X0418090Y0156281D01*
X0417092Y0157280D02*
X0503119Y0157280D01*
X0502841Y0158278D02*
X0416093Y0158278D01*
X0415095Y0159277D02*
X0501842Y0159277D01*
X0500844Y0160275D02*
X0414096Y0160275D01*
X0413098Y0161274D02*
X0499845Y0161274D01*
X0498846Y0162272D02*
X0412099Y0162272D01*
X0411101Y0163271D02*
X0497848Y0163271D01*
X0496849Y0164269D02*
X0410102Y0164269D01*
X0409648Y0165268D02*
X0495851Y0165268D01*
X0494852Y0166266D02*
X0409648Y0166266D01*
X0409648Y0167265D02*
X0493854Y0167265D01*
X0492855Y0168263D02*
X0409648Y0168263D01*
X0409011Y0169262D02*
X0491509Y0169262D01*
X0490511Y0170260D02*
X0408012Y0170260D01*
X0407014Y0171259D02*
X0489512Y0171259D01*
X0488513Y0172257D02*
X0406015Y0172257D01*
X0405017Y0173256D02*
X0487515Y0173256D01*
X0486516Y0174254D02*
X0390373Y0174254D01*
X0389675Y0173256D02*
X0398443Y0173256D01*
X0397444Y0172257D02*
X0389675Y0172257D01*
X0389675Y0171259D02*
X0396446Y0171259D01*
X0395447Y0170260D02*
X0389675Y0170260D01*
X0390880Y0169262D02*
X0394449Y0169262D01*
X0393450Y0168263D02*
X0391879Y0168263D01*
X0388075Y0165500D02*
X0388075Y0182957D01*
X0388119Y0183000D01*
X0394367Y0178248D02*
X0482870Y0178248D01*
X0483869Y0177250D02*
X0393369Y0177250D01*
X0392370Y0176251D02*
X0484867Y0176251D01*
X0485866Y0175253D02*
X0391372Y0175253D01*
X0395366Y0179247D02*
X0481872Y0179247D01*
X0480873Y0180245D02*
X0396364Y0180245D01*
X0374296Y0165500D02*
X0369296Y0170500D01*
X0356619Y0170500D01*
X0355305Y0169186D01*
X0355305Y0163452D01*
X0322978Y0131125D01*
X0309744Y0131125D01*
X0311755Y0132716D02*
X0310725Y0133745D01*
X0308512Y0133745D01*
X0292048Y0117281D01*
X0289846Y0117281D01*
X0276259Y0119759D02*
X0275270Y0118770D01*
X0275270Y0106002D01*
X0279688Y0101585D01*
X0279688Y0097419D01*
X0276856Y0098069D02*
X0275975Y0097188D01*
X0275975Y0095789D01*
X0276856Y0098069D02*
X0276856Y0101871D01*
X0273470Y0105257D01*
X0273470Y0120914D01*
X0271880Y0118653D02*
X0270850Y0119682D01*
X0270850Y0135269D01*
X0270119Y0136000D01*
X0270681Y0135438D01*
X0266619Y0131000D02*
X0268881Y0128737D01*
X0268881Y0119402D01*
X0270289Y0117994D01*
X0270289Y0101948D01*
X0272267Y0099970D01*
X0275056Y0101421D02*
X0275056Y0098518D01*
X0273338Y0096800D01*
X0264819Y0096800D01*
X0264545Y0099851D02*
X0244119Y0099851D01*
X0231619Y0097108D02*
X0231119Y0097608D01*
X0231119Y0105000D01*
X0235119Y0109000D01*
X0260397Y0109000D01*
X0260963Y0108433D01*
X0261130Y0108433D01*
X0262119Y0107444D01*
X0264739Y0106462D02*
X0262119Y0103842D01*
X0262119Y0102285D01*
X0268489Y0099851D02*
X0268489Y0117544D01*
X0267041Y0118993D01*
X0267041Y0126052D01*
X0266092Y0127000D01*
X0262119Y0126000D02*
X0262119Y0118602D01*
X0264739Y0115982D01*
X0264739Y0106462D01*
X0271880Y0104598D02*
X0271880Y0118653D01*
X0276259Y0119759D02*
X0276259Y0122069D01*
X0274619Y0123710D01*
X0274619Y0125000D01*
X0262119Y0115000D02*
X0227119Y0115000D01*
X0220619Y0112500D02*
X0215119Y0112500D01*
X0213119Y0110500D01*
X0212283Y0125000D02*
X0197576Y0110293D01*
X0193456Y0108690D02*
X0193706Y0106087D01*
X0190619Y0103000D01*
X0188672Y0103000D01*
X0188538Y0102866D01*
X0184699Y0102866D01*
X0157565Y0130000D01*
X0124119Y0130000D01*
X0133446Y0134350D02*
X0110119Y0134350D01*
X0110119Y0137750D02*
X0115105Y0137750D01*
X0122189Y0144834D01*
X0154971Y0144834D01*
X0161306Y0138500D01*
X0175908Y0138500D01*
X0175908Y0142278D02*
X0160073Y0142278D01*
X0155717Y0146634D01*
X0121443Y0146634D01*
X0114970Y0140161D01*
X0112480Y0140161D01*
X0129119Y0142500D02*
X0129119Y0137000D01*
X0133446Y0134350D02*
X0135615Y0136520D01*
X0154551Y0136520D01*
X0179433Y0111638D01*
X0181804Y0111638D01*
X0183481Y0113314D01*
X0183481Y0115686D01*
X0182499Y0116668D01*
X0182499Y0121222D01*
X0190908Y0116994D02*
X0193319Y0119406D01*
X0193319Y0143867D01*
X0196345Y0147393D01*
X0196345Y0150774D01*
X0194688Y0159211D02*
X0183477Y0148000D01*
X0181619Y0148000D01*
X0181619Y0133500D01*
X0212283Y0125000D02*
X0228119Y0125000D01*
X0221874Y0133245D02*
X0221874Y0133349D01*
X0218223Y0137000D01*
X0174408Y0153000D02*
X0136619Y0153000D01*
X0128382Y0157263D02*
X0145882Y0157263D01*
X0149467Y0160848D01*
X0215467Y0160848D01*
X0213002Y0159211D02*
X0215963Y0156250D01*
X0221572Y0156250D01*
X0145949Y0182634D02*
X0306101Y0182634D01*
X0314438Y0174297D01*
X0314438Y0163244D01*
X0316619Y0161563D01*
X0316619Y0155419D01*
X0320854Y0132716D02*
X0348119Y0159980D01*
X0391001Y0150290D02*
X0417576Y0150290D01*
X0416577Y0151289D02*
X0392028Y0151289D01*
X0393026Y0152287D02*
X0415579Y0152287D01*
X0414580Y0153286D02*
X0394025Y0153286D01*
X0395023Y0154284D02*
X0413582Y0154284D01*
X0412583Y0155283D02*
X0396022Y0155283D01*
X0397020Y0156281D02*
X0411585Y0156281D01*
X0410586Y0157280D02*
X0398019Y0157280D01*
X0399017Y0158278D02*
X0409588Y0158278D01*
X0408589Y0159277D02*
X0400016Y0159277D01*
X0401014Y0160275D02*
X0407591Y0160275D01*
X0406592Y0161274D02*
X0403785Y0161274D01*
X0405194Y0162272D02*
X0405594Y0162272D01*
X0419089Y0155283D02*
X0455623Y0155283D01*
X0454625Y0154284D02*
X0420087Y0154284D01*
X0421086Y0153286D02*
X0454002Y0153286D01*
X0453589Y0152287D02*
X0422084Y0152287D01*
X0423083Y0151289D02*
X0453431Y0151289D01*
X0453431Y0150290D02*
X0424081Y0150290D01*
X0425080Y0149292D02*
X0453608Y0149292D01*
X0454022Y0148293D02*
X0426078Y0148293D01*
X0427077Y0147295D02*
X0454671Y0147295D01*
X0455670Y0146296D02*
X0428112Y0146296D01*
X0430109Y0144299D02*
X0503119Y0144299D01*
X0503119Y0143301D02*
X0431108Y0143301D01*
X0432106Y0142302D02*
X0503119Y0142302D01*
X0503119Y0141303D02*
X0433105Y0141303D01*
X0434103Y0140305D02*
X0503119Y0140305D01*
X0503119Y0139306D02*
X0435102Y0139306D01*
X0436100Y0138308D02*
X0503119Y0138308D01*
X0503119Y0137309D02*
X0437099Y0137309D01*
X0438097Y0136311D02*
X0503119Y0136311D01*
X0503119Y0135312D02*
X0439096Y0135312D01*
X0440094Y0134314D02*
X0503119Y0134314D01*
X0503119Y0133315D02*
X0441093Y0133315D01*
X0442091Y0132317D02*
X0503119Y0132317D01*
X0473670Y0146296D02*
X0462193Y0146296D01*
X0463191Y0147295D02*
X0472671Y0147295D01*
X0472022Y0148293D02*
X0463841Y0148293D01*
X0464254Y0149292D02*
X0471608Y0149292D01*
X0471431Y0150290D02*
X0464431Y0150290D01*
X0464431Y0151289D02*
X0471431Y0151289D01*
X0471589Y0152287D02*
X0464274Y0152287D01*
X0463860Y0153286D02*
X0472002Y0153286D01*
X0472625Y0154284D02*
X0463238Y0154284D01*
X0462239Y0155283D02*
X0473623Y0155283D01*
X0375334Y0139306D02*
X0358379Y0139306D01*
X0358379Y0138308D02*
X0374764Y0138308D01*
X0374519Y0137309D02*
X0358379Y0137309D01*
X0358379Y0136311D02*
X0374519Y0136311D01*
X0374519Y0135312D02*
X0358379Y0135312D01*
X0358379Y0134314D02*
X0374519Y0134314D01*
X0374519Y0133315D02*
X0358379Y0133315D01*
X0358350Y0132317D02*
X0374519Y0132317D01*
X0374519Y0131318D02*
X0357936Y0131318D01*
X0356980Y0130320D02*
X0374519Y0130320D01*
X0374519Y0129321D02*
X0358529Y0129321D01*
X0359527Y0128323D02*
X0374519Y0128323D01*
X0374519Y0127324D02*
X0360526Y0127324D01*
X0360671Y0126326D02*
X0374519Y0126326D01*
X0374519Y0125327D02*
X0360671Y0125327D01*
X0360671Y0124329D02*
X0374519Y0124329D01*
X0374519Y0123330D02*
X0360180Y0123330D01*
X0360072Y0122332D02*
X0359182Y0122332D01*
X0359230Y0121333D02*
X0358919Y0121333D01*
X0358919Y0120335D02*
X0359230Y0120335D01*
X0359404Y0119336D02*
X0358919Y0119336D01*
X0358919Y0118338D02*
X0360402Y0118338D01*
X0358919Y0117339D02*
X0374519Y0117339D01*
X0374519Y0116341D02*
X0358919Y0116341D01*
X0358919Y0115342D02*
X0374519Y0115342D01*
X0374519Y0114344D02*
X0358919Y0114344D01*
X0358919Y0113345D02*
X0374519Y0113345D01*
X0374374Y0112347D02*
X0358919Y0112347D01*
X0358919Y0111348D02*
X0373376Y0111348D01*
X0372377Y0110350D02*
X0358919Y0110350D01*
X0358919Y0109351D02*
X0371379Y0109351D01*
X0366240Y0108353D02*
X0358919Y0108353D01*
X0358919Y0107354D02*
X0365241Y0107354D01*
X0364316Y0106356D02*
X0358935Y0106356D01*
X0359823Y0105357D02*
X0364316Y0105357D01*
X0364316Y0104359D02*
X0360711Y0104359D01*
X0361598Y0103360D02*
X0364316Y0103360D01*
X0365026Y0102362D02*
X0362486Y0102362D01*
X0363373Y0101363D02*
X0366024Y0101363D01*
X0364261Y0100365D02*
X0503119Y0100365D01*
X0503119Y0101363D02*
X0373099Y0101363D01*
X0374571Y0102362D02*
X0503119Y0102362D01*
X0503119Y0103360D02*
X0375570Y0103360D01*
X0374921Y0102711D02*
X0374921Y0102711D01*
X0376568Y0104359D02*
X0503119Y0104359D01*
X0503119Y0105357D02*
X0377567Y0105357D01*
X0365148Y0099366D02*
X0502666Y0099366D01*
X0501953Y0098368D02*
X0366036Y0098368D01*
X0366924Y0097369D02*
X0501239Y0097369D01*
X0378119Y0120480D02*
X0378098Y0120500D01*
X0361619Y0120500D01*
X0363165Y0122332D02*
X0374519Y0122332D01*
X0374519Y0118338D02*
X0362835Y0118338D01*
X0343119Y0130750D02*
X0337497Y0125128D01*
X0317244Y0125128D01*
X0317244Y0124816D01*
X0320854Y0132716D02*
X0311755Y0132716D01*
X0343119Y0130750D02*
X0343119Y0139500D01*
X0275056Y0101421D02*
X0271880Y0104598D01*
X0283830Y0101226D02*
X0287369Y0097687D01*
X0294522Y0097687D01*
X0292420Y0095937D02*
X0294054Y0094304D01*
X0292420Y0095937D02*
X0283761Y0095937D01*
X0285432Y0095937D01*
X0186619Y0094000D02*
X0170024Y0094000D01*
X0167343Y0096681D01*
X0163641Y0096681D01*
X0160960Y0094000D01*
X0155619Y0094000D01*
X0176279Y0101000D02*
X0176279Y0103336D01*
X0176202Y0103412D01*
X0071374Y0123000D02*
X0071374Y0148928D01*
X0071115Y0149188D01*
X0125119Y0154000D02*
X0128382Y0157263D01*
X0144529Y0181214D02*
X0145949Y0182634D01*
X0194688Y0159211D02*
X0213002Y0159211D01*
D23*
X0368369Y0104750D02*
X0371869Y0104750D01*
X0378119Y0111000D01*
X0378119Y0120480D01*
X0378119Y0137000D01*
X0415634Y0165500D02*
X0443769Y0165500D01*
X0444269Y0166000D01*
X0480030Y0166000D01*
X0490244Y0155912D01*
X0490369Y0100500D01*
X0434821Y0100500D01*
X0434021Y0099700D01*
X0388419Y0099700D01*
D24*
X0359619Y0088937D02*
X0358072Y0090484D01*
X0268461Y0090484D01*
X0265008Y0093937D01*
X0236556Y0093937D01*
X0180619Y0114500D02*
X0152619Y0142500D01*
X0129119Y0142500D01*
X0124619Y0142500D01*
X0119869Y0137750D01*
X0081369Y0148438D02*
X0081369Y0157250D01*
X0084619Y0160500D01*
X0089619Y0160500D01*
X0079119Y0170250D02*
X0077119Y0168250D01*
X0077119Y0129625D01*
X0081244Y0125500D01*
X0042119Y0157500D02*
X0042119Y0169500D01*
X0046119Y0173500D01*
X0079119Y0170250D02*
X0079156Y0170213D01*
X0108856Y0170213D01*
X0114144Y0175500D01*
X0221536Y0156214D02*
X0221572Y0156250D01*
X0230252Y0156250D01*
X0234356Y0160333D01*
X0285827Y0160333D01*
X0291619Y0165500D01*
X0382203Y0076084D02*
X0376997Y0070879D01*
X0372376Y0075500D01*
X0366619Y0075500D01*
X0361619Y0070500D02*
X0361619Y0035500D01*
X0367869Y0038500D02*
X0367869Y0026750D01*
X0361619Y0020500D01*
X0356619Y0015500D01*
X0291619Y0015500D01*
X0285516Y0021602D01*
X0277971Y0014057D01*
X0246847Y0014057D01*
X0239404Y0021500D01*
X0237619Y0021500D01*
X0285516Y0021602D02*
X0285516Y0024000D01*
X0346619Y0040500D02*
X0352869Y0046750D01*
X0352869Y0058625D01*
X0371619Y0055500D02*
X0371619Y0065500D01*
X0376997Y0070879D01*
X0382203Y0076084D02*
X0386619Y0076084D01*
X0361619Y0070500D02*
X0356619Y0075500D01*
X0367869Y0038500D02*
X0377869Y0038500D01*
X0183677Y0049058D02*
X0181855Y0047236D01*
X0181855Y0024000D01*
D25*
X0356619Y0105500D02*
X0366619Y0094250D01*
X0446619Y0094250D01*
X0446619Y0060500D01*
X0446619Y0025187D01*
X0457495Y0099624D02*
X0456619Y0100500D01*
X0397119Y0115500D02*
X0397119Y0153369D01*
X0407348Y0163770D02*
X0426911Y0144208D01*
X0426948Y0144208D01*
X0443158Y0127997D01*
X0463181Y0127997D01*
X0407348Y0163770D02*
X0407348Y0167672D01*
X0404027Y0170993D01*
X0399433Y0170993D01*
X0393940Y0165500D01*
X0388075Y0165500D01*
X0356619Y0125500D02*
X0356619Y0105500D01*
D26*
X0368369Y0104750D03*
X0315994Y0098937D03*
X0356619Y0125500D03*
X0311619Y0144250D03*
X0202619Y0106000D03*
X0186619Y0107500D03*
X0135994Y0169875D03*
X0147869Y0178000D03*
X0463181Y0127997D03*
X0251869Y0038500D03*
X0259119Y0034750D03*
X0446619Y0025187D03*
D27*
X0457495Y0019937D02*
X0460056Y0017375D01*
X0457495Y0019937D02*
X0457495Y0037626D01*
X0457495Y0085500D01*
X0457495Y0099624D01*
X0444184Y0109000D02*
X0440119Y0109000D01*
X0444184Y0109000D02*
X0463181Y0127997D01*
X0401855Y0165500D02*
X0389295Y0152940D01*
X0355279Y0153003D01*
X0355279Y0133003D01*
X0350366Y0128090D01*
X0350366Y0113090D01*
X0336838Y0098937D01*
X0315994Y0098937D01*
X0311779Y0098937D01*
X0306894Y0103823D01*
X0297620Y0103823D01*
X0285364Y0116080D01*
X0285364Y0124796D01*
X0276619Y0133541D01*
X0276619Y0151750D01*
X0239035Y0151750D01*
X0234035Y0146750D01*
X0207869Y0146750D01*
X0199119Y0137000D01*
X0199037Y0133082D01*
X0199037Y0117477D01*
X0193456Y0111896D01*
X0193456Y0108690D01*
X0196146Y0106000D01*
X0202619Y0106000D01*
X0186619Y0107500D02*
X0186619Y0146771D01*
X0195968Y0156120D01*
X0211722Y0156120D01*
X0215917Y0151925D01*
X0231681Y0151925D01*
X0236369Y0156613D01*
X0299396Y0156613D01*
X0311696Y0144250D01*
X0311619Y0144250D01*
X0147869Y0178000D02*
X0126619Y0178000D01*
X0124119Y0175500D01*
X0123494Y0166125D02*
X0114119Y0175500D01*
X0129744Y0166125D02*
X0133494Y0169875D01*
X0135994Y0169875D01*
X0129744Y0166125D02*
X0123494Y0166125D01*
X0251869Y0038500D02*
X0245573Y0032204D01*
X0245933Y0031843D01*
X0246805Y0031843D01*
X0250521Y0028127D01*
X0250521Y0022465D01*
X0255330Y0017657D01*
X0265394Y0017657D01*
X0271737Y0024000D01*
X0259119Y0025339D02*
X0257957Y0024000D01*
X0259119Y0025339D02*
X0259119Y0034750D01*
X0245573Y0032204D02*
X0245212Y0031843D01*
X0227771Y0031843D01*
X0219927Y0024000D01*
X0216619Y0024000D01*
X0204752Y0024000D01*
X0198512Y0017760D01*
X0193007Y0017760D01*
X0186767Y0024000D01*
X0181855Y0024000D01*
X0177193Y0024000D01*
X0170953Y0017760D01*
X0137639Y0017760D01*
X0131399Y0024000D01*
X0126737Y0024000D01*
X0122075Y0024000D01*
X0115835Y0017760D01*
X0110080Y0017760D01*
X0103840Y0024000D01*
X0099178Y0024000D01*
D28*
X0311696Y0144250D02*
X0325487Y0144250D01*
X0346737Y0165500D01*
X0291619Y0165500D02*
X0278994Y0178000D01*
X0147869Y0178000D01*
D29*
X0457495Y0037626D03*
X0460056Y0017375D03*
D30*
X0136654Y0134012D03*
X0110119Y0131000D03*
X0370369Y0136250D03*
X0419619Y0142500D03*
X0425619Y0141000D03*
D31*
X0348119Y0159980D03*
X0289846Y0117281D03*
X0144119Y0067000D03*
X0129619Y0064500D03*
X0124119Y0130000D03*
X0042119Y0157500D03*
X0046119Y0173500D03*
D32*
X0378119Y0137000D03*
D33*
X0026306Y0020500D03*
X0026306Y0178312D03*
X0495681Y0178312D03*
D34*
X0209619Y0152000D02*
X0203119Y0152000D01*
X0199119Y0148000D01*
D35*
X0440119Y0109000D03*
M02*
