G75*
%MOIN*%
%OFA0B0*%
%FSLAX25Y25*%
%IPPOS*%
%LPD*%
%AMOC8*
5,1,8,0,0,1.08239X$1,22.5*
%
%ADD10C,0.01000*%
%ADD11C,0.00000*%
D10*
X0021619Y0009875D02*
X0505320Y0009875D01*
X0505320Y0183103D01*
X0505318Y0183243D01*
X0505312Y0183383D01*
X0505302Y0183523D01*
X0505289Y0183663D01*
X0505271Y0183802D01*
X0505249Y0183941D01*
X0505224Y0184078D01*
X0505195Y0184216D01*
X0505162Y0184352D01*
X0505125Y0184487D01*
X0505084Y0184621D01*
X0505039Y0184754D01*
X0504991Y0184886D01*
X0504939Y0185016D01*
X0504884Y0185145D01*
X0504825Y0185272D01*
X0504762Y0185398D01*
X0504696Y0185522D01*
X0504627Y0185643D01*
X0504554Y0185763D01*
X0504477Y0185881D01*
X0504398Y0185996D01*
X0504315Y0186110D01*
X0504229Y0186220D01*
X0504140Y0186329D01*
X0504048Y0186435D01*
X0503953Y0186538D01*
X0503856Y0186639D01*
X0503755Y0186736D01*
X0503652Y0186831D01*
X0503546Y0186923D01*
X0503437Y0187012D01*
X0503327Y0187098D01*
X0503213Y0187181D01*
X0503098Y0187260D01*
X0502980Y0187337D01*
X0502860Y0187410D01*
X0502739Y0187479D01*
X0502615Y0187545D01*
X0502489Y0187608D01*
X0502362Y0187667D01*
X0502233Y0187722D01*
X0502103Y0187774D01*
X0501971Y0187822D01*
X0501838Y0187867D01*
X0501704Y0187908D01*
X0501569Y0187945D01*
X0501433Y0187978D01*
X0501295Y0188007D01*
X0501158Y0188032D01*
X0501019Y0188054D01*
X0500880Y0188072D01*
X0500740Y0188085D01*
X0500600Y0188095D01*
X0500460Y0188101D01*
X0500320Y0188103D01*
X0021619Y0188103D01*
X0021479Y0188101D01*
X0021339Y0188095D01*
X0021199Y0188085D01*
X0021059Y0188072D01*
X0020920Y0188054D01*
X0020781Y0188032D01*
X0020644Y0188007D01*
X0020506Y0187978D01*
X0020370Y0187945D01*
X0020235Y0187908D01*
X0020101Y0187867D01*
X0019968Y0187822D01*
X0019836Y0187774D01*
X0019706Y0187722D01*
X0019577Y0187667D01*
X0019450Y0187608D01*
X0019324Y0187545D01*
X0019200Y0187479D01*
X0019079Y0187410D01*
X0018959Y0187337D01*
X0018841Y0187260D01*
X0018726Y0187181D01*
X0018612Y0187098D01*
X0018502Y0187012D01*
X0018393Y0186923D01*
X0018287Y0186831D01*
X0018184Y0186736D01*
X0018083Y0186639D01*
X0017986Y0186538D01*
X0017891Y0186435D01*
X0017799Y0186329D01*
X0017710Y0186220D01*
X0017624Y0186110D01*
X0017541Y0185996D01*
X0017462Y0185881D01*
X0017385Y0185763D01*
X0017312Y0185643D01*
X0017243Y0185522D01*
X0017177Y0185398D01*
X0017114Y0185272D01*
X0017055Y0185145D01*
X0017000Y0185016D01*
X0016948Y0184886D01*
X0016900Y0184754D01*
X0016855Y0184621D01*
X0016814Y0184487D01*
X0016777Y0184352D01*
X0016744Y0184216D01*
X0016715Y0184078D01*
X0016690Y0183941D01*
X0016668Y0183802D01*
X0016650Y0183663D01*
X0016637Y0183523D01*
X0016627Y0183383D01*
X0016621Y0183243D01*
X0016619Y0183103D01*
X0016619Y0014875D01*
X0016621Y0014735D01*
X0016627Y0014595D01*
X0016637Y0014455D01*
X0016650Y0014315D01*
X0016668Y0014176D01*
X0016690Y0014037D01*
X0016715Y0013900D01*
X0016744Y0013762D01*
X0016777Y0013626D01*
X0016814Y0013491D01*
X0016855Y0013357D01*
X0016900Y0013224D01*
X0016948Y0013092D01*
X0017000Y0012962D01*
X0017055Y0012833D01*
X0017114Y0012706D01*
X0017177Y0012580D01*
X0017243Y0012456D01*
X0017312Y0012335D01*
X0017385Y0012215D01*
X0017462Y0012097D01*
X0017541Y0011982D01*
X0017624Y0011868D01*
X0017710Y0011758D01*
X0017799Y0011649D01*
X0017891Y0011543D01*
X0017986Y0011440D01*
X0018083Y0011339D01*
X0018184Y0011242D01*
X0018287Y0011147D01*
X0018393Y0011055D01*
X0018502Y0010966D01*
X0018612Y0010880D01*
X0018726Y0010797D01*
X0018841Y0010718D01*
X0018959Y0010641D01*
X0019079Y0010568D01*
X0019200Y0010499D01*
X0019324Y0010433D01*
X0019450Y0010370D01*
X0019577Y0010311D01*
X0019706Y0010256D01*
X0019836Y0010204D01*
X0019968Y0010156D01*
X0020101Y0010111D01*
X0020235Y0010070D01*
X0020370Y0010033D01*
X0020506Y0010000D01*
X0020644Y0009971D01*
X0020781Y0009946D01*
X0020920Y0009924D01*
X0021059Y0009906D01*
X0021199Y0009893D01*
X0021339Y0009883D01*
X0021479Y0009877D01*
X0021619Y0009875D01*
D11*
X0191362Y0064373D02*
X0191364Y0064461D01*
X0191370Y0064549D01*
X0191380Y0064637D01*
X0191394Y0064725D01*
X0191411Y0064811D01*
X0191433Y0064897D01*
X0191458Y0064981D01*
X0191488Y0065065D01*
X0191520Y0065147D01*
X0191557Y0065227D01*
X0191597Y0065306D01*
X0191641Y0065383D01*
X0191688Y0065458D01*
X0191738Y0065530D01*
X0191792Y0065601D01*
X0191848Y0065668D01*
X0191908Y0065734D01*
X0191970Y0065796D01*
X0192036Y0065856D01*
X0192103Y0065912D01*
X0192174Y0065966D01*
X0192246Y0066016D01*
X0192321Y0066063D01*
X0192398Y0066107D01*
X0192477Y0066147D01*
X0192557Y0066184D01*
X0192639Y0066216D01*
X0192723Y0066246D01*
X0192807Y0066271D01*
X0192893Y0066293D01*
X0192979Y0066310D01*
X0193067Y0066324D01*
X0193155Y0066334D01*
X0193243Y0066340D01*
X0193331Y0066342D01*
X0193419Y0066340D01*
X0193507Y0066334D01*
X0193595Y0066324D01*
X0193683Y0066310D01*
X0193769Y0066293D01*
X0193855Y0066271D01*
X0193939Y0066246D01*
X0194023Y0066216D01*
X0194105Y0066184D01*
X0194185Y0066147D01*
X0194264Y0066107D01*
X0194341Y0066063D01*
X0194416Y0066016D01*
X0194488Y0065966D01*
X0194559Y0065912D01*
X0194626Y0065856D01*
X0194692Y0065796D01*
X0194754Y0065734D01*
X0194814Y0065668D01*
X0194870Y0065601D01*
X0194924Y0065530D01*
X0194974Y0065458D01*
X0195021Y0065383D01*
X0195065Y0065306D01*
X0195105Y0065227D01*
X0195142Y0065147D01*
X0195174Y0065065D01*
X0195204Y0064981D01*
X0195229Y0064897D01*
X0195251Y0064811D01*
X0195268Y0064725D01*
X0195282Y0064637D01*
X0195292Y0064549D01*
X0195298Y0064461D01*
X0195300Y0064373D01*
X0195298Y0064285D01*
X0195292Y0064197D01*
X0195282Y0064109D01*
X0195268Y0064021D01*
X0195251Y0063935D01*
X0195229Y0063849D01*
X0195204Y0063765D01*
X0195174Y0063681D01*
X0195142Y0063599D01*
X0195105Y0063519D01*
X0195065Y0063440D01*
X0195021Y0063363D01*
X0194974Y0063288D01*
X0194924Y0063216D01*
X0194870Y0063145D01*
X0194814Y0063078D01*
X0194754Y0063012D01*
X0194692Y0062950D01*
X0194626Y0062890D01*
X0194559Y0062834D01*
X0194488Y0062780D01*
X0194416Y0062730D01*
X0194341Y0062683D01*
X0194264Y0062639D01*
X0194185Y0062599D01*
X0194105Y0062562D01*
X0194023Y0062530D01*
X0193939Y0062500D01*
X0193855Y0062475D01*
X0193769Y0062453D01*
X0193683Y0062436D01*
X0193595Y0062422D01*
X0193507Y0062412D01*
X0193419Y0062406D01*
X0193331Y0062404D01*
X0193243Y0062406D01*
X0193155Y0062412D01*
X0193067Y0062422D01*
X0192979Y0062436D01*
X0192893Y0062453D01*
X0192807Y0062475D01*
X0192723Y0062500D01*
X0192639Y0062530D01*
X0192557Y0062562D01*
X0192477Y0062599D01*
X0192398Y0062639D01*
X0192321Y0062683D01*
X0192246Y0062730D01*
X0192174Y0062780D01*
X0192103Y0062834D01*
X0192036Y0062890D01*
X0191970Y0062950D01*
X0191908Y0063012D01*
X0191848Y0063078D01*
X0191792Y0063145D01*
X0191738Y0063216D01*
X0191688Y0063288D01*
X0191641Y0063363D01*
X0191597Y0063440D01*
X0191557Y0063519D01*
X0191520Y0063599D01*
X0191488Y0063681D01*
X0191458Y0063765D01*
X0191433Y0063849D01*
X0191411Y0063935D01*
X0191394Y0064021D01*
X0191380Y0064109D01*
X0191370Y0064197D01*
X0191364Y0064285D01*
X0191362Y0064373D01*
X0163523Y0092212D02*
X0163525Y0092300D01*
X0163531Y0092388D01*
X0163541Y0092476D01*
X0163555Y0092564D01*
X0163572Y0092650D01*
X0163594Y0092736D01*
X0163619Y0092820D01*
X0163649Y0092904D01*
X0163681Y0092986D01*
X0163718Y0093066D01*
X0163758Y0093145D01*
X0163802Y0093222D01*
X0163849Y0093297D01*
X0163899Y0093369D01*
X0163953Y0093440D01*
X0164009Y0093507D01*
X0164069Y0093573D01*
X0164131Y0093635D01*
X0164197Y0093695D01*
X0164264Y0093751D01*
X0164335Y0093805D01*
X0164407Y0093855D01*
X0164482Y0093902D01*
X0164559Y0093946D01*
X0164638Y0093986D01*
X0164718Y0094023D01*
X0164800Y0094055D01*
X0164884Y0094085D01*
X0164968Y0094110D01*
X0165054Y0094132D01*
X0165140Y0094149D01*
X0165228Y0094163D01*
X0165316Y0094173D01*
X0165404Y0094179D01*
X0165492Y0094181D01*
X0165580Y0094179D01*
X0165668Y0094173D01*
X0165756Y0094163D01*
X0165844Y0094149D01*
X0165930Y0094132D01*
X0166016Y0094110D01*
X0166100Y0094085D01*
X0166184Y0094055D01*
X0166266Y0094023D01*
X0166346Y0093986D01*
X0166425Y0093946D01*
X0166502Y0093902D01*
X0166577Y0093855D01*
X0166649Y0093805D01*
X0166720Y0093751D01*
X0166787Y0093695D01*
X0166853Y0093635D01*
X0166915Y0093573D01*
X0166975Y0093507D01*
X0167031Y0093440D01*
X0167085Y0093369D01*
X0167135Y0093297D01*
X0167182Y0093222D01*
X0167226Y0093145D01*
X0167266Y0093066D01*
X0167303Y0092986D01*
X0167335Y0092904D01*
X0167365Y0092820D01*
X0167390Y0092736D01*
X0167412Y0092650D01*
X0167429Y0092564D01*
X0167443Y0092476D01*
X0167453Y0092388D01*
X0167459Y0092300D01*
X0167461Y0092212D01*
X0167459Y0092124D01*
X0167453Y0092036D01*
X0167443Y0091948D01*
X0167429Y0091860D01*
X0167412Y0091774D01*
X0167390Y0091688D01*
X0167365Y0091604D01*
X0167335Y0091520D01*
X0167303Y0091438D01*
X0167266Y0091358D01*
X0167226Y0091279D01*
X0167182Y0091202D01*
X0167135Y0091127D01*
X0167085Y0091055D01*
X0167031Y0090984D01*
X0166975Y0090917D01*
X0166915Y0090851D01*
X0166853Y0090789D01*
X0166787Y0090729D01*
X0166720Y0090673D01*
X0166649Y0090619D01*
X0166577Y0090569D01*
X0166502Y0090522D01*
X0166425Y0090478D01*
X0166346Y0090438D01*
X0166266Y0090401D01*
X0166184Y0090369D01*
X0166100Y0090339D01*
X0166016Y0090314D01*
X0165930Y0090292D01*
X0165844Y0090275D01*
X0165756Y0090261D01*
X0165668Y0090251D01*
X0165580Y0090245D01*
X0165492Y0090243D01*
X0165404Y0090245D01*
X0165316Y0090251D01*
X0165228Y0090261D01*
X0165140Y0090275D01*
X0165054Y0090292D01*
X0164968Y0090314D01*
X0164884Y0090339D01*
X0164800Y0090369D01*
X0164718Y0090401D01*
X0164638Y0090438D01*
X0164559Y0090478D01*
X0164482Y0090522D01*
X0164407Y0090569D01*
X0164335Y0090619D01*
X0164264Y0090673D01*
X0164197Y0090729D01*
X0164131Y0090789D01*
X0164069Y0090851D01*
X0164009Y0090917D01*
X0163953Y0090984D01*
X0163899Y0091055D01*
X0163849Y0091127D01*
X0163802Y0091202D01*
X0163758Y0091279D01*
X0163718Y0091358D01*
X0163681Y0091438D01*
X0163649Y0091520D01*
X0163619Y0091604D01*
X0163594Y0091688D01*
X0163572Y0091774D01*
X0163555Y0091860D01*
X0163541Y0091948D01*
X0163531Y0092036D01*
X0163525Y0092124D01*
X0163523Y0092212D01*
X0454931Y0150813D02*
X0454933Y0150939D01*
X0454939Y0151065D01*
X0454949Y0151191D01*
X0454963Y0151317D01*
X0454981Y0151442D01*
X0455003Y0151566D01*
X0455028Y0151690D01*
X0455058Y0151813D01*
X0455091Y0151934D01*
X0455129Y0152055D01*
X0455170Y0152174D01*
X0455215Y0152293D01*
X0455263Y0152409D01*
X0455315Y0152524D01*
X0455371Y0152637D01*
X0455431Y0152749D01*
X0455494Y0152858D01*
X0455560Y0152966D01*
X0455629Y0153071D01*
X0455702Y0153174D01*
X0455779Y0153275D01*
X0455858Y0153373D01*
X0455940Y0153469D01*
X0456026Y0153562D01*
X0456114Y0153653D01*
X0456205Y0153740D01*
X0456299Y0153825D01*
X0456395Y0153906D01*
X0456494Y0153985D01*
X0456595Y0154060D01*
X0456699Y0154132D01*
X0456805Y0154201D01*
X0456913Y0154267D01*
X0457023Y0154329D01*
X0457135Y0154387D01*
X0457248Y0154442D01*
X0457364Y0154493D01*
X0457481Y0154541D01*
X0457599Y0154585D01*
X0457719Y0154625D01*
X0457840Y0154661D01*
X0457962Y0154694D01*
X0458085Y0154723D01*
X0458209Y0154747D01*
X0458333Y0154768D01*
X0458458Y0154785D01*
X0458584Y0154798D01*
X0458710Y0154807D01*
X0458836Y0154812D01*
X0458963Y0154813D01*
X0459089Y0154810D01*
X0459215Y0154803D01*
X0459341Y0154792D01*
X0459466Y0154777D01*
X0459591Y0154758D01*
X0459715Y0154735D01*
X0459839Y0154709D01*
X0459961Y0154678D01*
X0460083Y0154644D01*
X0460203Y0154605D01*
X0460322Y0154563D01*
X0460440Y0154518D01*
X0460556Y0154468D01*
X0460671Y0154415D01*
X0460783Y0154358D01*
X0460894Y0154298D01*
X0461003Y0154234D01*
X0461110Y0154167D01*
X0461215Y0154097D01*
X0461318Y0154023D01*
X0461418Y0153946D01*
X0461516Y0153866D01*
X0461611Y0153783D01*
X0461703Y0153697D01*
X0461793Y0153608D01*
X0461880Y0153516D01*
X0461963Y0153422D01*
X0462044Y0153325D01*
X0462122Y0153225D01*
X0462197Y0153123D01*
X0462268Y0153019D01*
X0462336Y0152912D01*
X0462400Y0152804D01*
X0462461Y0152693D01*
X0462519Y0152581D01*
X0462573Y0152467D01*
X0462623Y0152351D01*
X0462670Y0152234D01*
X0462713Y0152115D01*
X0462752Y0151995D01*
X0462788Y0151874D01*
X0462819Y0151751D01*
X0462847Y0151628D01*
X0462871Y0151504D01*
X0462891Y0151379D01*
X0462907Y0151254D01*
X0462919Y0151128D01*
X0462927Y0151002D01*
X0462931Y0150876D01*
X0462931Y0150750D01*
X0462927Y0150624D01*
X0462919Y0150498D01*
X0462907Y0150372D01*
X0462891Y0150247D01*
X0462871Y0150122D01*
X0462847Y0149998D01*
X0462819Y0149875D01*
X0462788Y0149752D01*
X0462752Y0149631D01*
X0462713Y0149511D01*
X0462670Y0149392D01*
X0462623Y0149275D01*
X0462573Y0149159D01*
X0462519Y0149045D01*
X0462461Y0148933D01*
X0462400Y0148822D01*
X0462336Y0148714D01*
X0462268Y0148607D01*
X0462197Y0148503D01*
X0462122Y0148401D01*
X0462044Y0148301D01*
X0461963Y0148204D01*
X0461880Y0148110D01*
X0461793Y0148018D01*
X0461703Y0147929D01*
X0461611Y0147843D01*
X0461516Y0147760D01*
X0461418Y0147680D01*
X0461318Y0147603D01*
X0461215Y0147529D01*
X0461110Y0147459D01*
X0461003Y0147392D01*
X0460894Y0147328D01*
X0460783Y0147268D01*
X0460671Y0147211D01*
X0460556Y0147158D01*
X0460440Y0147108D01*
X0460322Y0147063D01*
X0460203Y0147021D01*
X0460083Y0146982D01*
X0459961Y0146948D01*
X0459839Y0146917D01*
X0459715Y0146891D01*
X0459591Y0146868D01*
X0459466Y0146849D01*
X0459341Y0146834D01*
X0459215Y0146823D01*
X0459089Y0146816D01*
X0458963Y0146813D01*
X0458836Y0146814D01*
X0458710Y0146819D01*
X0458584Y0146828D01*
X0458458Y0146841D01*
X0458333Y0146858D01*
X0458209Y0146879D01*
X0458085Y0146903D01*
X0457962Y0146932D01*
X0457840Y0146965D01*
X0457719Y0147001D01*
X0457599Y0147041D01*
X0457481Y0147085D01*
X0457364Y0147133D01*
X0457248Y0147184D01*
X0457135Y0147239D01*
X0457023Y0147297D01*
X0456913Y0147359D01*
X0456805Y0147425D01*
X0456699Y0147494D01*
X0456595Y0147566D01*
X0456494Y0147641D01*
X0456395Y0147720D01*
X0456299Y0147801D01*
X0456205Y0147886D01*
X0456114Y0147973D01*
X0456026Y0148064D01*
X0455940Y0148157D01*
X0455858Y0148253D01*
X0455779Y0148351D01*
X0455702Y0148452D01*
X0455629Y0148555D01*
X0455560Y0148660D01*
X0455494Y0148768D01*
X0455431Y0148877D01*
X0455371Y0148989D01*
X0455315Y0149102D01*
X0455263Y0149217D01*
X0455215Y0149333D01*
X0455170Y0149452D01*
X0455129Y0149571D01*
X0455091Y0149692D01*
X0455058Y0149813D01*
X0455028Y0149936D01*
X0455003Y0150060D01*
X0454981Y0150184D01*
X0454963Y0150309D01*
X0454949Y0150435D01*
X0454939Y0150561D01*
X0454933Y0150687D01*
X0454931Y0150813D01*
X0472931Y0150813D02*
X0472933Y0150939D01*
X0472939Y0151065D01*
X0472949Y0151191D01*
X0472963Y0151317D01*
X0472981Y0151442D01*
X0473003Y0151566D01*
X0473028Y0151690D01*
X0473058Y0151813D01*
X0473091Y0151934D01*
X0473129Y0152055D01*
X0473170Y0152174D01*
X0473215Y0152293D01*
X0473263Y0152409D01*
X0473315Y0152524D01*
X0473371Y0152637D01*
X0473431Y0152749D01*
X0473494Y0152858D01*
X0473560Y0152966D01*
X0473629Y0153071D01*
X0473702Y0153174D01*
X0473779Y0153275D01*
X0473858Y0153373D01*
X0473940Y0153469D01*
X0474026Y0153562D01*
X0474114Y0153653D01*
X0474205Y0153740D01*
X0474299Y0153825D01*
X0474395Y0153906D01*
X0474494Y0153985D01*
X0474595Y0154060D01*
X0474699Y0154132D01*
X0474805Y0154201D01*
X0474913Y0154267D01*
X0475023Y0154329D01*
X0475135Y0154387D01*
X0475248Y0154442D01*
X0475364Y0154493D01*
X0475481Y0154541D01*
X0475599Y0154585D01*
X0475719Y0154625D01*
X0475840Y0154661D01*
X0475962Y0154694D01*
X0476085Y0154723D01*
X0476209Y0154747D01*
X0476333Y0154768D01*
X0476458Y0154785D01*
X0476584Y0154798D01*
X0476710Y0154807D01*
X0476836Y0154812D01*
X0476963Y0154813D01*
X0477089Y0154810D01*
X0477215Y0154803D01*
X0477341Y0154792D01*
X0477466Y0154777D01*
X0477591Y0154758D01*
X0477715Y0154735D01*
X0477839Y0154709D01*
X0477961Y0154678D01*
X0478083Y0154644D01*
X0478203Y0154605D01*
X0478322Y0154563D01*
X0478440Y0154518D01*
X0478556Y0154468D01*
X0478671Y0154415D01*
X0478783Y0154358D01*
X0478894Y0154298D01*
X0479003Y0154234D01*
X0479110Y0154167D01*
X0479215Y0154097D01*
X0479318Y0154023D01*
X0479418Y0153946D01*
X0479516Y0153866D01*
X0479611Y0153783D01*
X0479703Y0153697D01*
X0479793Y0153608D01*
X0479880Y0153516D01*
X0479963Y0153422D01*
X0480044Y0153325D01*
X0480122Y0153225D01*
X0480197Y0153123D01*
X0480268Y0153019D01*
X0480336Y0152912D01*
X0480400Y0152804D01*
X0480461Y0152693D01*
X0480519Y0152581D01*
X0480573Y0152467D01*
X0480623Y0152351D01*
X0480670Y0152234D01*
X0480713Y0152115D01*
X0480752Y0151995D01*
X0480788Y0151874D01*
X0480819Y0151751D01*
X0480847Y0151628D01*
X0480871Y0151504D01*
X0480891Y0151379D01*
X0480907Y0151254D01*
X0480919Y0151128D01*
X0480927Y0151002D01*
X0480931Y0150876D01*
X0480931Y0150750D01*
X0480927Y0150624D01*
X0480919Y0150498D01*
X0480907Y0150372D01*
X0480891Y0150247D01*
X0480871Y0150122D01*
X0480847Y0149998D01*
X0480819Y0149875D01*
X0480788Y0149752D01*
X0480752Y0149631D01*
X0480713Y0149511D01*
X0480670Y0149392D01*
X0480623Y0149275D01*
X0480573Y0149159D01*
X0480519Y0149045D01*
X0480461Y0148933D01*
X0480400Y0148822D01*
X0480336Y0148714D01*
X0480268Y0148607D01*
X0480197Y0148503D01*
X0480122Y0148401D01*
X0480044Y0148301D01*
X0479963Y0148204D01*
X0479880Y0148110D01*
X0479793Y0148018D01*
X0479703Y0147929D01*
X0479611Y0147843D01*
X0479516Y0147760D01*
X0479418Y0147680D01*
X0479318Y0147603D01*
X0479215Y0147529D01*
X0479110Y0147459D01*
X0479003Y0147392D01*
X0478894Y0147328D01*
X0478783Y0147268D01*
X0478671Y0147211D01*
X0478556Y0147158D01*
X0478440Y0147108D01*
X0478322Y0147063D01*
X0478203Y0147021D01*
X0478083Y0146982D01*
X0477961Y0146948D01*
X0477839Y0146917D01*
X0477715Y0146891D01*
X0477591Y0146868D01*
X0477466Y0146849D01*
X0477341Y0146834D01*
X0477215Y0146823D01*
X0477089Y0146816D01*
X0476963Y0146813D01*
X0476836Y0146814D01*
X0476710Y0146819D01*
X0476584Y0146828D01*
X0476458Y0146841D01*
X0476333Y0146858D01*
X0476209Y0146879D01*
X0476085Y0146903D01*
X0475962Y0146932D01*
X0475840Y0146965D01*
X0475719Y0147001D01*
X0475599Y0147041D01*
X0475481Y0147085D01*
X0475364Y0147133D01*
X0475248Y0147184D01*
X0475135Y0147239D01*
X0475023Y0147297D01*
X0474913Y0147359D01*
X0474805Y0147425D01*
X0474699Y0147494D01*
X0474595Y0147566D01*
X0474494Y0147641D01*
X0474395Y0147720D01*
X0474299Y0147801D01*
X0474205Y0147886D01*
X0474114Y0147973D01*
X0474026Y0148064D01*
X0473940Y0148157D01*
X0473858Y0148253D01*
X0473779Y0148351D01*
X0473702Y0148452D01*
X0473629Y0148555D01*
X0473560Y0148660D01*
X0473494Y0148768D01*
X0473431Y0148877D01*
X0473371Y0148989D01*
X0473315Y0149102D01*
X0473263Y0149217D01*
X0473215Y0149333D01*
X0473170Y0149452D01*
X0473129Y0149571D01*
X0473091Y0149692D01*
X0473058Y0149813D01*
X0473028Y0149936D01*
X0473003Y0150060D01*
X0472981Y0150184D01*
X0472963Y0150309D01*
X0472949Y0150435D01*
X0472939Y0150561D01*
X0472933Y0150687D01*
X0472931Y0150813D01*
M02*
