G75*
%MOIN*%
%OFA0B0*%
%FSLAX25Y25*%
%IPPOS*%
%LPD*%
%AMOC8*
5,1,8,0,0,1.08239X$1,22.5*
%
%ADD10C,0.01000*%
%ADD11R,0.04331X0.03937*%
%ADD12R,0.05906X0.05118*%
%ADD13R,0.05118X0.05906*%
%ADD14R,0.06299X0.07087*%
%ADD15C,0.06400*%
%ADD16C,0.07400*%
%ADD17R,0.06299X0.06299*%
%ADD18C,0.06299*%
%ADD19R,0.18110X0.03937*%
%ADD20R,0.13386X0.06299*%
%ADD21R,0.03543X0.03150*%
%ADD22R,0.03150X0.03543*%
%ADD23R,0.04724X0.02362*%
%ADD24R,0.07480X0.05512*%
%ADD25R,0.05512X0.07087*%
%ADD26R,0.05906X0.02756*%
%ADD27R,0.00984X0.01969*%
%ADD28R,0.06299X0.03543*%
%ADD29R,0.00984X0.02756*%
%ADD30R,0.02756X0.00984*%
%ADD31R,0.20472X0.12598*%
%ADD32R,0.00886X0.01673*%
%ADD33R,0.11811X0.04724*%
%ADD34R,0.00787X0.03346*%
%ADD35R,0.03346X0.00787*%
%ADD36R,0.10433X0.10433*%
%ADD37R,0.16000X0.06000*%
%ADD38R,0.16000X0.05000*%
%ADD39R,0.11024X0.09449*%
%ADD40C,0.00000*%
%ADD41R,0.03937X0.04331*%
%ADD42R,0.03858X0.14567*%
%ADD43R,0.05906X0.07087*%
%ADD44R,0.07087X0.05906*%
%ADD45C,0.00591*%
%ADD46C,0.01969*%
%ADD47R,0.03199X0.04134*%
%ADD48R,0.02165X0.04724*%
%ADD49R,0.01600X0.03200*%
%ADD50R,0.00984X0.03937*%
%ADD51R,0.03937X0.00984*%
%ADD52R,0.07874X0.07874*%
%ADD53R,0.09252X0.01772*%
%ADD54C,0.05118*%
%ADD55R,0.06102X0.05906*%
%ADD56R,0.06693X0.09449*%
%ADD57R,0.05512X0.04331*%
%ADD58R,0.03937X0.10827*%
%ADD59R,0.03346X0.07480*%
%ADD60C,0.01102*%
%ADD61R,0.06535X0.08465*%
%ADD62C,0.03150*%
%ADD63R,0.00906X0.03150*%
%ADD64R,0.03150X0.01378*%
%ADD65R,0.01378X0.03150*%
%ADD66C,0.01200*%
%ADD67OC8,0.03543*%
%ADD68C,0.00800*%
%ADD69OC8,0.02559*%
%ADD70C,0.00787*%
%ADD71C,0.01600*%
%ADD72OC8,0.07087*%
%ADD73C,0.04000*%
%ADD74OC8,0.06378*%
%ADD75C,0.05000*%
%ADD76C,0.02400*%
%ADD77C,0.00600*%
%ADD78OC8,0.02835*%
%ADD79OC8,0.05315*%
%ADD80C,0.03200*%
%ADD81OC8,0.22500*%
%ADD82OC8,0.04252*%
%ADD83C,0.02559*%
D10*
X0016619Y0009875D02*
X0016619Y0188103D01*
X0505320Y0188103D01*
X0505320Y0009875D01*
X0016619Y0009875D01*
X0057119Y0022654D02*
X0060772Y0022654D01*
X0062119Y0024000D01*
X0067619Y0028120D02*
X0067619Y0030000D01*
X0086119Y0048500D01*
X0096619Y0048500D01*
X0098443Y0050324D01*
X0098523Y0050243D01*
X0100487Y0050243D01*
X0101875Y0051632D01*
X0101875Y0053595D01*
X0101795Y0053676D01*
X0103119Y0055000D01*
X0103119Y0055033D01*
X0103885Y0055799D01*
X0103885Y0068609D01*
X0108094Y0072818D01*
X0108094Y0073975D01*
X0108619Y0074500D01*
X0108619Y0079593D01*
X0116669Y0087643D01*
X0116669Y0089050D01*
X0119619Y0092000D01*
X0119619Y0094327D01*
X0120731Y0095439D01*
X0120731Y0097811D01*
X0119619Y0098923D01*
X0119619Y0104000D01*
X0119084Y0104534D01*
X0132210Y0104534D01*
X0133528Y0104534D01*
X0135403Y0106409D01*
X0136334Y0107341D01*
X0136334Y0108386D01*
X0136697Y0108386D01*
X0136697Y0111051D01*
X0136698Y0111051D01*
X0136698Y0108386D01*
X0136749Y0108386D01*
X0136749Y0106584D01*
X0135824Y0105659D01*
X0134088Y0103923D01*
X0123628Y0103923D01*
X0122696Y0102991D01*
X0122391Y0102686D01*
X0121460Y0101755D01*
X0121460Y0091434D01*
X0110528Y0080503D01*
X0110528Y0071905D01*
X0109502Y0071905D01*
X0108863Y0071267D01*
X0108863Y0070437D01*
X0107206Y0070437D01*
X0105860Y0069091D01*
X0104928Y0068159D01*
X0104928Y0053372D01*
X0083808Y0032251D01*
X0083808Y0027931D01*
X0082996Y0027595D01*
X0081804Y0026402D01*
X0081158Y0024843D01*
X0081158Y0023157D01*
X0081804Y0021598D01*
X0082996Y0020405D01*
X0084555Y0019760D01*
X0086242Y0019760D01*
X0087800Y0020405D01*
X0088993Y0021598D01*
X0089638Y0023157D01*
X0089638Y0024843D01*
X0088993Y0026402D01*
X0087800Y0027595D01*
X0086989Y0027931D01*
X0086989Y0030934D01*
X0107178Y0051122D01*
X0108109Y0052054D01*
X0108109Y0057941D01*
X0111367Y0054684D01*
X0111367Y0027931D01*
X0110555Y0027595D01*
X0109363Y0026402D01*
X0108717Y0024843D01*
X0108717Y0023157D01*
X0109363Y0021598D01*
X0110555Y0020405D01*
X0112114Y0019760D01*
X0113801Y0019760D01*
X0115359Y0020405D01*
X0116552Y0021598D01*
X0117197Y0023157D01*
X0117197Y0024843D01*
X0116552Y0026402D01*
X0115359Y0027595D01*
X0114548Y0027931D01*
X0114548Y0056001D01*
X0111455Y0059094D01*
X0114736Y0059094D01*
X0115096Y0059455D01*
X0117824Y0056726D01*
X0118756Y0055794D01*
X0123894Y0055794D01*
X0125004Y0054684D01*
X0125004Y0052992D01*
X0125548Y0052447D01*
X0124897Y0052447D01*
X0123965Y0051516D01*
X0123204Y0050754D01*
X0123204Y0045159D01*
X0126028Y0042335D01*
X0126028Y0036239D01*
X0126960Y0035307D01*
X0136612Y0025655D01*
X0136276Y0024843D01*
X0136276Y0023157D01*
X0136922Y0021598D01*
X0138115Y0020405D01*
X0139673Y0019760D01*
X0141360Y0019760D01*
X0142918Y0020405D01*
X0144111Y0021598D01*
X0144757Y0023157D01*
X0144757Y0024843D01*
X0144111Y0026402D01*
X0142918Y0027595D01*
X0141360Y0028240D01*
X0139673Y0028240D01*
X0138862Y0027904D01*
X0129209Y0037556D01*
X0129209Y0043653D01*
X0128278Y0044584D01*
X0127793Y0045069D01*
X0127864Y0045069D01*
X0128191Y0045157D01*
X0128469Y0045317D01*
X0128747Y0045157D01*
X0129074Y0045069D01*
X0130044Y0045069D01*
X0131013Y0045069D01*
X0131341Y0045157D01*
X0131619Y0045317D01*
X0131897Y0045157D01*
X0132224Y0045069D01*
X0133193Y0045069D01*
X0133193Y0047957D01*
X0133193Y0047957D01*
X0130044Y0047957D01*
X0130044Y0047957D01*
X0133194Y0047957D01*
X0136343Y0047957D01*
X0136343Y0047957D01*
X0145856Y0047957D01*
X0145856Y0032440D01*
X0154296Y0024000D01*
X0154796Y0024478D02*
X0163835Y0024478D01*
X0163835Y0024843D02*
X0163835Y0023157D01*
X0164481Y0021598D01*
X0165674Y0020405D01*
X0167232Y0019760D01*
X0168919Y0019760D01*
X0170477Y0020405D01*
X0171670Y0021598D01*
X0172316Y0023157D01*
X0172316Y0024843D01*
X0171670Y0026402D01*
X0170477Y0027595D01*
X0168919Y0028240D01*
X0168034Y0028240D01*
X0168034Y0049351D01*
X0191730Y0025655D01*
X0191394Y0024843D01*
X0191394Y0023157D01*
X0192040Y0021598D01*
X0193233Y0020405D01*
X0194791Y0019760D01*
X0196478Y0019760D01*
X0198036Y0020405D01*
X0199229Y0021598D01*
X0199875Y0023157D01*
X0199875Y0024843D01*
X0199229Y0026402D01*
X0198036Y0027595D01*
X0196478Y0028240D01*
X0194791Y0028240D01*
X0193980Y0027904D01*
X0193131Y0028753D01*
X0220042Y0028753D01*
X0226385Y0022409D01*
X0226468Y0022409D01*
X0226804Y0021598D01*
X0227996Y0020405D01*
X0229555Y0019760D01*
X0231242Y0019760D01*
X0232800Y0020405D01*
X0233993Y0021598D01*
X0234638Y0023157D01*
X0234638Y0024843D01*
X0233993Y0026402D01*
X0232800Y0027595D01*
X0231242Y0028240D01*
X0229555Y0028240D01*
X0227996Y0027595D01*
X0226847Y0026446D01*
X0222291Y0031002D01*
X0222291Y0031002D01*
X0221359Y0031934D01*
X0193996Y0031934D01*
X0175464Y0050466D01*
X0176936Y0050466D01*
X0178295Y0051824D01*
X0181307Y0048812D01*
X0181307Y0048076D01*
X0182695Y0046688D01*
X0183431Y0046688D01*
X0198119Y0032000D01*
X0228619Y0032000D01*
X0235119Y0025500D01*
X0237619Y0025500D01*
X0239938Y0023181D01*
X0239938Y0023157D01*
X0240583Y0021598D01*
X0241776Y0020405D01*
X0243334Y0019760D01*
X0243359Y0019760D01*
X0251063Y0012056D01*
X0069063Y0012056D01*
X0067619Y0013500D01*
X0067619Y0019880D01*
X0067679Y0019820D01*
X0067972Y0019651D01*
X0068300Y0019563D01*
X0071119Y0019563D01*
X0071119Y0023500D01*
X0072119Y0023500D01*
X0072119Y0024500D01*
X0076056Y0024500D01*
X0076056Y0027319D01*
X0075968Y0027647D01*
X0075799Y0027940D01*
X0075559Y0028180D01*
X0075265Y0028349D01*
X0074938Y0028437D01*
X0072119Y0028437D01*
X0072119Y0024500D01*
X0071119Y0024500D01*
X0071119Y0028437D01*
X0068300Y0028437D01*
X0067972Y0028349D01*
X0067679Y0028180D01*
X0067619Y0028120D01*
X0067619Y0028472D02*
X0083808Y0028472D01*
X0083808Y0029470D02*
X0067619Y0029470D01*
X0068087Y0030469D02*
X0083808Y0030469D01*
X0083808Y0031467D02*
X0069086Y0031467D01*
X0070084Y0032466D02*
X0084022Y0032466D01*
X0085021Y0033464D02*
X0071083Y0033464D01*
X0072082Y0034463D02*
X0086019Y0034463D01*
X0087018Y0035461D02*
X0073080Y0035461D01*
X0074079Y0036460D02*
X0088016Y0036460D01*
X0088336Y0037500D02*
X0104419Y0053583D01*
X0104419Y0068370D01*
X0110119Y0074070D01*
X0110119Y0080389D01*
X0120750Y0091021D01*
X0120750Y0102841D01*
X0122159Y0104250D01*
X0133243Y0104250D01*
X0136697Y0107704D01*
X0136697Y0111051D01*
X0136697Y0115421D01*
X0137988Y0120500D02*
X0130792Y0113304D01*
X0130792Y0111051D01*
X0132760Y0111051D02*
X0132760Y0109142D01*
X0131619Y0108000D01*
X0109590Y0108000D01*
X0109369Y0107779D01*
X0111986Y0104719D02*
X0113391Y0106125D01*
X0132869Y0106125D01*
X0134744Y0108000D01*
X0134744Y0111036D01*
X0134729Y0111051D01*
X0136697Y0110350D02*
X0136698Y0110350D01*
X0136697Y0109351D02*
X0136698Y0109351D01*
X0136749Y0108353D02*
X0136334Y0108353D01*
X0136334Y0107354D02*
X0136749Y0107354D01*
X0136521Y0106356D02*
X0135349Y0106356D01*
X0135522Y0105357D02*
X0134350Y0105357D01*
X0134524Y0104359D02*
X0119260Y0104359D01*
X0119619Y0103360D02*
X0123065Y0103360D01*
X0122067Y0102362D02*
X0119619Y0102362D01*
X0119619Y0101363D02*
X0121460Y0101363D01*
X0121460Y0100365D02*
X0119619Y0100365D01*
X0119619Y0099366D02*
X0121460Y0099366D01*
X0121460Y0098368D02*
X0120174Y0098368D01*
X0120731Y0097369D02*
X0121460Y0097369D01*
X0121460Y0096370D02*
X0120731Y0096370D01*
X0120663Y0095372D02*
X0121460Y0095372D01*
X0121460Y0094373D02*
X0119665Y0094373D01*
X0119619Y0093375D02*
X0121460Y0093375D01*
X0121460Y0092376D02*
X0119619Y0092376D01*
X0118997Y0091378D02*
X0121404Y0091378D01*
X0120405Y0090379D02*
X0117998Y0090379D01*
X0117000Y0089381D02*
X0119407Y0089381D01*
X0118408Y0088382D02*
X0116669Y0088382D01*
X0116409Y0087384D02*
X0117409Y0087384D01*
X0116411Y0086385D02*
X0115411Y0086385D01*
X0115412Y0085387D02*
X0114412Y0085387D01*
X0114414Y0084388D02*
X0113414Y0084388D01*
X0113415Y0083390D02*
X0112415Y0083390D01*
X0112417Y0082391D02*
X0111417Y0082391D01*
X0111418Y0081393D02*
X0110418Y0081393D01*
X0110528Y0080394D02*
X0109420Y0080394D01*
X0108619Y0079396D02*
X0110528Y0079396D01*
X0110528Y0078397D02*
X0108619Y0078397D01*
X0108619Y0077399D02*
X0110528Y0077399D01*
X0110528Y0076400D02*
X0108619Y0076400D01*
X0108619Y0075402D02*
X0110528Y0075402D01*
X0110528Y0074403D02*
X0108522Y0074403D01*
X0108094Y0073405D02*
X0110528Y0073405D01*
X0110528Y0072406D02*
X0107682Y0072406D01*
X0106683Y0071408D02*
X0109004Y0071408D01*
X0107179Y0070409D02*
X0105685Y0070409D01*
X0106180Y0069411D02*
X0104686Y0069411D01*
X0105182Y0068412D02*
X0103885Y0068412D01*
X0103885Y0067414D02*
X0104928Y0067414D01*
X0104928Y0066415D02*
X0103885Y0066415D01*
X0103885Y0065417D02*
X0104928Y0065417D01*
X0104928Y0064418D02*
X0103885Y0064418D01*
X0103885Y0063420D02*
X0104928Y0063420D01*
X0104928Y0062421D02*
X0103885Y0062421D01*
X0103885Y0061423D02*
X0104928Y0061423D01*
X0104928Y0060424D02*
X0103885Y0060424D01*
X0103885Y0059426D02*
X0104928Y0059426D01*
X0104928Y0058427D02*
X0103885Y0058427D01*
X0103885Y0057429D02*
X0104928Y0057429D01*
X0104928Y0056430D02*
X0103885Y0056430D01*
X0103517Y0055432D02*
X0104928Y0055432D01*
X0104928Y0054433D02*
X0102552Y0054433D01*
X0101875Y0053434D02*
X0104928Y0053434D01*
X0103992Y0052436D02*
X0101875Y0052436D01*
X0101681Y0051437D02*
X0102994Y0051437D01*
X0101995Y0050439D02*
X0100682Y0050439D01*
X0100997Y0049440D02*
X0097559Y0049440D01*
X0099000Y0047443D02*
X0085062Y0047443D01*
X0084064Y0046445D02*
X0098001Y0046445D01*
X0097003Y0045446D02*
X0083065Y0045446D01*
X0082067Y0044448D02*
X0096004Y0044448D01*
X0095006Y0043449D02*
X0081068Y0043449D01*
X0080070Y0042451D02*
X0094007Y0042451D01*
X0093009Y0041452D02*
X0079071Y0041452D01*
X0078073Y0040454D02*
X0092010Y0040454D01*
X0091012Y0039455D02*
X0077074Y0039455D01*
X0076076Y0038457D02*
X0090013Y0038457D01*
X0089015Y0037458D02*
X0075077Y0037458D01*
X0071746Y0037500D02*
X0071619Y0037373D01*
X0071619Y0024000D01*
X0072119Y0024478D02*
X0081158Y0024478D01*
X0081158Y0023479D02*
X0076056Y0023479D01*
X0076056Y0023500D02*
X0072119Y0023500D01*
X0072119Y0019563D01*
X0074938Y0019563D01*
X0075265Y0019651D01*
X0075559Y0019820D01*
X0075799Y0020060D01*
X0075968Y0020353D01*
X0076056Y0020681D01*
X0076056Y0023500D01*
X0076056Y0022481D02*
X0081438Y0022481D01*
X0081920Y0021482D02*
X0076056Y0021482D01*
X0076003Y0020484D02*
X0082918Y0020484D01*
X0087878Y0020484D02*
X0096698Y0020484D01*
X0096776Y0020405D02*
X0098334Y0019760D01*
X0100021Y0019760D01*
X0101580Y0020405D01*
X0102772Y0021598D01*
X0103418Y0023157D01*
X0103418Y0024843D01*
X0102772Y0026402D01*
X0101580Y0027595D01*
X0100021Y0028240D01*
X0098334Y0028240D01*
X0096776Y0027595D01*
X0095583Y0026402D01*
X0094938Y0024843D01*
X0094938Y0023157D01*
X0095583Y0021598D01*
X0096776Y0020405D01*
X0095699Y0021482D02*
X0088877Y0021482D01*
X0089358Y0022481D02*
X0095218Y0022481D01*
X0094938Y0023479D02*
X0089638Y0023479D01*
X0089638Y0024478D02*
X0094938Y0024478D01*
X0095200Y0025476D02*
X0089376Y0025476D01*
X0088920Y0026475D02*
X0095656Y0026475D01*
X0096655Y0027473D02*
X0087922Y0027473D01*
X0086989Y0028472D02*
X0111367Y0028472D01*
X0111367Y0029470D02*
X0086989Y0029470D01*
X0086989Y0030469D02*
X0111367Y0030469D01*
X0111367Y0031467D02*
X0087522Y0031467D01*
X0088521Y0032466D02*
X0111367Y0032466D01*
X0111367Y0033464D02*
X0089519Y0033464D01*
X0090518Y0034463D02*
X0111367Y0034463D01*
X0111367Y0035461D02*
X0091516Y0035461D01*
X0092515Y0036460D02*
X0111367Y0036460D01*
X0111367Y0037458D02*
X0093513Y0037458D01*
X0094512Y0038457D02*
X0111367Y0038457D01*
X0111367Y0039455D02*
X0095510Y0039455D01*
X0096509Y0040454D02*
X0111367Y0040454D01*
X0111367Y0041452D02*
X0097507Y0041452D01*
X0098506Y0042451D02*
X0111367Y0042451D01*
X0111367Y0043449D02*
X0099505Y0043449D01*
X0100503Y0044448D02*
X0111367Y0044448D01*
X0111367Y0045446D02*
X0101502Y0045446D01*
X0102500Y0046445D02*
X0111367Y0046445D01*
X0111367Y0047443D02*
X0103499Y0047443D01*
X0104497Y0048442D02*
X0111367Y0048442D01*
X0111367Y0049440D02*
X0105496Y0049440D01*
X0106494Y0050439D02*
X0111367Y0050439D01*
X0111367Y0051437D02*
X0107493Y0051437D01*
X0108109Y0052436D02*
X0111367Y0052436D01*
X0111367Y0053434D02*
X0108109Y0053434D01*
X0108109Y0054433D02*
X0111367Y0054433D01*
X0110619Y0055432D02*
X0108109Y0055432D01*
X0108109Y0056430D02*
X0109621Y0056430D01*
X0108622Y0057429D02*
X0108109Y0057429D01*
X0108653Y0059647D02*
X0112957Y0055343D01*
X0112957Y0024000D01*
X0108997Y0022481D02*
X0103138Y0022481D01*
X0103418Y0023479D02*
X0108717Y0023479D01*
X0108717Y0024478D02*
X0103418Y0024478D01*
X0103156Y0025476D02*
X0108979Y0025476D01*
X0109436Y0026475D02*
X0102700Y0026475D01*
X0101701Y0027473D02*
X0110434Y0027473D01*
X0114548Y0028472D02*
X0133795Y0028472D01*
X0132797Y0029470D02*
X0114548Y0029470D01*
X0114548Y0030469D02*
X0131798Y0030469D01*
X0130800Y0031467D02*
X0114548Y0031467D01*
X0114548Y0032466D02*
X0129801Y0032466D01*
X0128803Y0033464D02*
X0114548Y0033464D01*
X0114548Y0034463D02*
X0127804Y0034463D01*
X0126806Y0035461D02*
X0114548Y0035461D01*
X0114548Y0036460D02*
X0126028Y0036460D01*
X0126028Y0037458D02*
X0114548Y0037458D01*
X0114548Y0038457D02*
X0126028Y0038457D01*
X0126028Y0039455D02*
X0114548Y0039455D01*
X0114548Y0040454D02*
X0126028Y0040454D01*
X0126028Y0041452D02*
X0114548Y0041452D01*
X0114548Y0042451D02*
X0125912Y0042451D01*
X0124914Y0043449D02*
X0114548Y0043449D01*
X0114548Y0044448D02*
X0123915Y0044448D01*
X0123204Y0045446D02*
X0114548Y0045446D01*
X0114548Y0046445D02*
X0123204Y0046445D01*
X0123204Y0047443D02*
X0114548Y0047443D01*
X0114548Y0048442D02*
X0123204Y0048442D01*
X0123204Y0049440D02*
X0114548Y0049440D01*
X0114548Y0050439D02*
X0123204Y0050439D01*
X0123887Y0051437D02*
X0114548Y0051437D01*
X0114548Y0052436D02*
X0124886Y0052436D01*
X0125004Y0053434D02*
X0114548Y0053434D01*
X0114548Y0054433D02*
X0125004Y0054433D01*
X0124257Y0055432D02*
X0114548Y0055432D01*
X0114119Y0056430D02*
X0118121Y0056430D01*
X0117122Y0057429D02*
X0113121Y0057429D01*
X0112122Y0058427D02*
X0116123Y0058427D01*
X0115125Y0059426D02*
X0115067Y0059426D01*
X0114646Y0062154D02*
X0112119Y0062154D01*
X0114646Y0062154D02*
X0119415Y0057385D01*
X0124553Y0057385D01*
X0126894Y0055043D01*
X0128994Y0056093D02*
X0130044Y0055043D01*
X0128994Y0056093D02*
X0128994Y0057182D01*
X0128233Y0057943D01*
X0127144Y0057943D01*
X0122934Y0062154D01*
X0120619Y0062154D01*
X0129119Y0062154D02*
X0129119Y0060207D01*
X0132144Y0057182D01*
X0132144Y0056093D01*
X0133194Y0055043D01*
X0136343Y0055043D02*
X0137619Y0056319D01*
X0137619Y0062154D01*
X0140323Y0065422D02*
X0141084Y0064661D01*
X0141084Y0055546D01*
X0136395Y0050857D01*
X0125556Y0050857D01*
X0124794Y0050095D01*
X0124794Y0045818D01*
X0127619Y0042994D01*
X0127619Y0036898D01*
X0140516Y0024000D01*
X0136556Y0022481D02*
X0130697Y0022481D01*
X0130977Y0023157D02*
X0130331Y0021598D01*
X0129139Y0020405D01*
X0127580Y0019760D01*
X0125893Y0019760D01*
X0124335Y0020405D01*
X0123142Y0021598D01*
X0122497Y0023157D01*
X0122497Y0024843D01*
X0123142Y0026402D01*
X0124335Y0027595D01*
X0125893Y0028240D01*
X0127580Y0028240D01*
X0129139Y0027595D01*
X0130331Y0026402D01*
X0130977Y0024843D01*
X0130977Y0023157D01*
X0130977Y0023479D02*
X0136276Y0023479D01*
X0136276Y0024478D02*
X0130977Y0024478D01*
X0130715Y0025476D02*
X0136538Y0025476D01*
X0135792Y0026475D02*
X0130259Y0026475D01*
X0129260Y0027473D02*
X0134794Y0027473D01*
X0137296Y0029470D02*
X0164853Y0029470D01*
X0164853Y0028472D02*
X0138294Y0028472D01*
X0136297Y0030469D02*
X0164853Y0030469D01*
X0164853Y0031467D02*
X0135298Y0031467D01*
X0134300Y0032466D02*
X0164853Y0032466D01*
X0164853Y0033464D02*
X0133301Y0033464D01*
X0132303Y0034463D02*
X0164853Y0034463D01*
X0164853Y0035461D02*
X0131304Y0035461D01*
X0130306Y0036460D02*
X0164853Y0036460D01*
X0164853Y0037458D02*
X0129307Y0037458D01*
X0129209Y0038457D02*
X0164853Y0038457D01*
X0164853Y0039455D02*
X0129209Y0039455D01*
X0129209Y0040454D02*
X0164853Y0040454D01*
X0164853Y0041452D02*
X0129209Y0041452D01*
X0129209Y0042451D02*
X0164853Y0042451D01*
X0164853Y0043449D02*
X0129209Y0043449D01*
X0128414Y0044448D02*
X0164853Y0044448D01*
X0164853Y0045266D02*
X0164853Y0026774D01*
X0164481Y0026402D01*
X0163835Y0024843D01*
X0164097Y0025476D02*
X0158482Y0025476D01*
X0158408Y0025703D02*
X0158091Y0026325D01*
X0157680Y0026891D01*
X0157186Y0027384D01*
X0156621Y0027795D01*
X0155999Y0028112D01*
X0155335Y0028328D01*
X0154796Y0028413D01*
X0154796Y0024500D01*
X0158709Y0024500D01*
X0158624Y0025039D01*
X0158408Y0025703D01*
X0157982Y0026475D02*
X0164554Y0026475D01*
X0164853Y0027473D02*
X0157064Y0027473D01*
X0154796Y0027473D02*
X0153796Y0027473D01*
X0153796Y0028413D02*
X0153257Y0028328D01*
X0152593Y0028112D01*
X0151970Y0027795D01*
X0151405Y0027384D01*
X0150912Y0026891D01*
X0150501Y0026325D01*
X0150184Y0025703D01*
X0149968Y0025039D01*
X0149883Y0024500D01*
X0153796Y0024500D01*
X0153796Y0028413D01*
X0153796Y0026475D02*
X0154796Y0026475D01*
X0154796Y0025476D02*
X0153796Y0025476D01*
X0153796Y0024500D02*
X0154796Y0024500D01*
X0154796Y0023500D01*
X0158709Y0023500D01*
X0158624Y0022961D01*
X0158408Y0022297D01*
X0158091Y0021674D01*
X0157680Y0021109D01*
X0157186Y0020616D01*
X0156621Y0020205D01*
X0155999Y0019888D01*
X0155335Y0019672D01*
X0154796Y0019587D01*
X0154796Y0023500D01*
X0153796Y0023500D01*
X0153796Y0019587D01*
X0153257Y0019672D01*
X0152593Y0019888D01*
X0151970Y0020205D01*
X0151405Y0020616D01*
X0150912Y0021109D01*
X0150501Y0021674D01*
X0150184Y0022297D01*
X0149968Y0022961D01*
X0149883Y0023500D01*
X0153796Y0023500D01*
X0153796Y0024500D01*
X0153796Y0024478D02*
X0144757Y0024478D01*
X0144757Y0023479D02*
X0149886Y0023479D01*
X0150124Y0022481D02*
X0144477Y0022481D01*
X0143995Y0021482D02*
X0150641Y0021482D01*
X0151587Y0020484D02*
X0142996Y0020484D01*
X0138036Y0020484D02*
X0129217Y0020484D01*
X0130215Y0021482D02*
X0137038Y0021482D01*
X0144494Y0025476D02*
X0150110Y0025476D01*
X0150609Y0026475D02*
X0144038Y0026475D01*
X0143040Y0027473D02*
X0151528Y0027473D01*
X0153796Y0023479D02*
X0154796Y0023479D01*
X0154796Y0022481D02*
X0153796Y0022481D01*
X0153796Y0021482D02*
X0154796Y0021482D01*
X0154796Y0020484D02*
X0153796Y0020484D01*
X0157005Y0020484D02*
X0165595Y0020484D01*
X0164597Y0021482D02*
X0157951Y0021482D01*
X0158468Y0022481D02*
X0164115Y0022481D01*
X0163835Y0023479D02*
X0158706Y0023479D01*
X0166443Y0025632D02*
X0166443Y0050095D01*
X0165682Y0050857D01*
X0153556Y0050857D01*
X0142884Y0061528D01*
X0142884Y0065406D01*
X0141068Y0067222D01*
X0139243Y0067222D01*
X0137619Y0068846D01*
X0135091Y0068846D01*
X0130023Y0073915D01*
X0121641Y0073915D01*
X0119338Y0076219D01*
X0119338Y0079426D01*
X0128419Y0088507D01*
X0128419Y0089998D01*
X0128419Y0089998D01*
X0128419Y0096000D01*
X0129419Y0097000D01*
X0136619Y0097000D01*
X0138619Y0099000D01*
X0144619Y0099000D01*
X0150477Y0104858D01*
X0150477Y0111051D01*
X0148509Y0111051D02*
X0148509Y0106390D01*
X0143119Y0101000D01*
X0138223Y0101000D01*
X0136123Y0098900D01*
X0128019Y0098900D01*
X0126619Y0097500D01*
X0126619Y0089253D01*
X0116815Y0079449D01*
X0116815Y0076196D01*
X0120896Y0072115D01*
X0123323Y0072115D01*
X0126591Y0068846D01*
X0129119Y0068846D01*
X0132543Y0065422D01*
X0140323Y0065422D01*
X0146591Y0068846D02*
X0139723Y0075715D01*
X0122904Y0075715D01*
X0122119Y0076500D01*
X0122119Y0079661D01*
X0129164Y0086707D01*
X0129164Y0086707D01*
X0130219Y0087761D01*
X0130219Y0094600D01*
X0130819Y0095200D01*
X0137797Y0095200D01*
X0139597Y0097000D01*
X0145119Y0097000D01*
X0152446Y0104327D01*
X0152446Y0111051D01*
X0146571Y0111020D02*
X0146571Y0107953D01*
X0141619Y0103000D01*
X0137960Y0103000D01*
X0135460Y0100500D01*
X0126087Y0100500D01*
X0124850Y0099264D01*
X0124850Y0090030D01*
X0113919Y0079098D01*
X0113919Y0075546D01*
X0120619Y0068846D01*
X0118091Y0068846D01*
X0114667Y0065422D01*
X0109415Y0065422D01*
X0108653Y0064661D01*
X0108653Y0059647D01*
X0102294Y0056458D02*
X0102294Y0069268D01*
X0106503Y0073477D01*
X0106503Y0079727D01*
X0115078Y0088302D01*
X0115078Y0093834D01*
X0117869Y0096625D01*
X0117744Y0096750D01*
X0090119Y0096750D01*
X0084613Y0102256D01*
X0084613Y0116892D01*
X0087375Y0119654D01*
X0087869Y0119654D01*
X0081244Y0125500D02*
X0077244Y0125500D01*
X0076619Y0126125D01*
X0072244Y0126125D01*
X0072244Y0114437D01*
X0074905Y0111575D02*
X0068843Y0111575D01*
X0065928Y0114490D01*
X0074905Y0111575D02*
X0077767Y0114437D01*
X0080359Y0114437D01*
X0078119Y0110000D02*
X0075580Y0110000D01*
X0075564Y0109984D01*
X0061603Y0109984D01*
X0060869Y0109250D01*
X0060869Y0107069D01*
X0060810Y0107010D01*
X0078119Y0110000D02*
X0083022Y0105096D01*
X0083022Y0101347D01*
X0091632Y0092737D01*
X0108429Y0092737D01*
X0110917Y0090250D01*
X0111994Y0090250D01*
X0107244Y0089875D02*
X0107203Y0089834D01*
X0107203Y0082972D01*
X0104703Y0080472D01*
X0104703Y0074222D01*
X0100192Y0069712D01*
X0100192Y0064594D01*
X0099505Y0063907D01*
X0099505Y0057614D01*
X0102294Y0056458D02*
X0099505Y0053669D01*
X0099505Y0052614D01*
X0106519Y0052713D02*
X0106519Y0067500D01*
X0107865Y0068846D01*
X0112119Y0068846D01*
X0112119Y0079844D01*
X0123050Y0090775D01*
X0123050Y0101096D01*
X0124287Y0102332D01*
X0134746Y0102332D01*
X0137414Y0105000D01*
X0140619Y0105000D01*
X0144571Y0108953D01*
X0144571Y0111051D01*
X0142603Y0111051D02*
X0142603Y0109607D01*
X0141578Y0108583D01*
X0140201Y0108583D01*
X0139119Y0107500D01*
X0140634Y0111051D02*
X0140634Y0120219D01*
X0140915Y0120500D01*
X0141119Y0120335D02*
X0130701Y0120335D01*
X0130701Y0120000D02*
X0130701Y0121000D01*
X0141119Y0121000D01*
X0141119Y0120000D01*
X0130701Y0120000D01*
X0132760Y0120500D02*
X0132760Y0129949D01*
X0132760Y0129949D01*
X0132571Y0129949D01*
X0130792Y0129949D01*
X0130792Y0129949D01*
X0130792Y0129949D01*
X0129012Y0129949D01*
X0129012Y0131496D01*
X0129100Y0131824D01*
X0129270Y0132117D01*
X0129509Y0132357D01*
X0129803Y0132526D01*
X0130130Y0132614D01*
X0130755Y0132614D01*
X0129239Y0134130D01*
X0128137Y0134130D01*
X0126749Y0135518D01*
X0126749Y0137482D01*
X0127165Y0137898D01*
X0125199Y0137898D01*
X0124560Y0138536D01*
X0124560Y0143771D01*
X0125199Y0144409D01*
X0125422Y0144409D01*
X0125153Y0144481D01*
X0124863Y0144649D01*
X0122178Y0141963D01*
X0122178Y0138536D01*
X0122119Y0138477D01*
X0122119Y0137500D01*
X0121666Y0137500D01*
X0122731Y0136436D01*
X0122731Y0134064D01*
X0121559Y0132893D01*
X0121559Y0131396D01*
X0121375Y0131212D01*
X0121375Y0127926D01*
X0120736Y0127287D01*
X0117450Y0127287D01*
X0116876Y0126713D01*
X0120736Y0126713D01*
X0121375Y0126074D01*
X0121375Y0123108D01*
X0121637Y0123370D01*
X0123600Y0123370D01*
X0124989Y0121982D01*
X0124989Y0120018D01*
X0123600Y0118630D01*
X0121637Y0118630D01*
X0121375Y0118892D01*
X0121375Y0115926D01*
X0120736Y0115287D01*
X0115502Y0115287D01*
X0114863Y0115926D01*
X0114863Y0120353D01*
X0114319Y0119809D01*
X0113619Y0119109D01*
X0113619Y0110000D01*
X0114028Y0109591D01*
X0114666Y0109591D01*
X0114666Y0111169D01*
X0117634Y0111169D01*
X0117634Y0112138D01*
X0114666Y0112138D01*
X0114666Y0113792D01*
X0114754Y0114119D01*
X0114923Y0114413D01*
X0115163Y0114652D01*
X0115456Y0114822D01*
X0115784Y0114909D01*
X0117634Y0114909D01*
X0117634Y0112138D01*
X0118603Y0112138D01*
X0118603Y0114909D01*
X0120454Y0114909D01*
X0120781Y0114822D01*
X0121075Y0114652D01*
X0121314Y0114413D01*
X0121484Y0114119D01*
X0121571Y0113792D01*
X0121571Y0112138D01*
X0118603Y0112138D01*
X0118603Y0111169D01*
X0121571Y0111169D01*
X0121571Y0109591D01*
X0129012Y0109591D01*
X0129012Y0110059D01*
X0127880Y0110059D01*
X0127241Y0110698D01*
X0127241Y0113012D01*
X0126403Y0113012D01*
X0125764Y0113651D01*
X0125764Y0115538D01*
X0125805Y0115579D01*
X0125764Y0115619D01*
X0125764Y0117507D01*
X0125805Y0117547D01*
X0125764Y0117588D01*
X0125764Y0119475D01*
X0125805Y0119516D01*
X0125764Y0119556D01*
X0125764Y0121290D01*
X0125655Y0121479D01*
X0125568Y0121807D01*
X0125568Y0122468D01*
X0128233Y0122468D01*
X0128233Y0122469D01*
X0128233Y0122469D01*
X0128233Y0124437D01*
X0128233Y0124437D01*
X0128233Y0124437D01*
X0128233Y0126405D01*
X0128233Y0126405D01*
X0128233Y0126217D01*
X0128233Y0124437D01*
X0128233Y0124248D01*
X0128233Y0122469D01*
X0125568Y0122469D01*
X0125568Y0123130D01*
X0125654Y0123453D01*
X0125568Y0123775D01*
X0125568Y0124437D01*
X0128233Y0124437D01*
X0128233Y0124437D01*
X0125568Y0124437D01*
X0125568Y0125099D01*
X0125654Y0125421D01*
X0125568Y0125744D01*
X0125568Y0126405D01*
X0128233Y0126405D01*
X0128233Y0126406D01*
X0128233Y0126406D01*
X0128233Y0128185D01*
X0129070Y0128185D01*
X0129012Y0128401D01*
X0129012Y0129949D01*
X0130792Y0129949D01*
X0132760Y0129949D01*
X0134729Y0129949D02*
X0135741Y0129949D01*
X0135741Y0131377D01*
X0134119Y0133000D01*
X0132619Y0133000D01*
X0129119Y0136500D01*
X0131489Y0136379D02*
X0131489Y0137482D01*
X0130556Y0138415D01*
X0130678Y0138536D01*
X0130678Y0141963D01*
X0133209Y0144495D01*
X0133209Y0145165D01*
X0135413Y0145165D01*
X0135609Y0145362D01*
X0135746Y0145226D01*
X0136039Y0145056D01*
X0136367Y0144969D01*
X0137577Y0144969D01*
X0137577Y0148577D01*
X0137660Y0148577D01*
X0137660Y0144969D01*
X0138871Y0144969D01*
X0139198Y0145056D01*
X0139492Y0145226D01*
X0139628Y0145362D01*
X0139824Y0145165D01*
X0142893Y0145165D01*
X0143532Y0145804D01*
X0143532Y0151432D01*
X0142949Y0152015D01*
X0142949Y0153436D01*
X0142018Y0154368D01*
X0140027Y0156359D01*
X0139095Y0157291D01*
X0134660Y0157291D01*
X0130028Y0152659D01*
X0130028Y0151226D01*
X0129757Y0151299D01*
X0128103Y0151299D01*
X0128103Y0148331D01*
X0127134Y0148331D01*
X0127134Y0151299D01*
X0126709Y0151299D01*
X0126709Y0152239D01*
X0127489Y0153018D01*
X0127489Y0154982D01*
X0126619Y0155852D01*
X0126619Y0161734D01*
X0127168Y0161184D01*
X0127257Y0161096D01*
X0127257Y0159439D01*
X0128933Y0157763D01*
X0131304Y0157763D01*
X0132981Y0159439D01*
X0132981Y0161811D01*
X0131304Y0163487D01*
X0129647Y0163487D01*
X0129559Y0163575D01*
X0129559Y0168441D01*
X0129569Y0168451D01*
X0129569Y0167214D01*
X0132342Y0164441D01*
X0133333Y0163451D01*
X0134027Y0163451D01*
X0144800Y0152678D01*
X0146200Y0152678D01*
X0154510Y0152678D01*
X0156432Y0150756D01*
X0155949Y0150756D01*
X0155949Y0147984D01*
X0154981Y0147984D01*
X0154981Y0150756D01*
X0153130Y0150756D01*
X0152803Y0150668D01*
X0152509Y0150499D01*
X0152270Y0150259D01*
X0152100Y0149965D01*
X0152028Y0149697D01*
X0152028Y0149920D01*
X0151389Y0150559D01*
X0146155Y0150559D01*
X0145516Y0149920D01*
X0145516Y0146493D01*
X0144949Y0145927D01*
X0144949Y0139972D01*
X0143532Y0139972D01*
X0143532Y0141196D01*
X0142893Y0141835D01*
X0139824Y0141835D01*
X0139489Y0141499D01*
X0139153Y0141835D01*
X0136084Y0141835D01*
X0135749Y0141499D01*
X0135413Y0141835D01*
X0132344Y0141835D01*
X0131705Y0141196D01*
X0131705Y0136163D01*
X0131489Y0136379D01*
X0131557Y0136311D02*
X0131705Y0136311D01*
X0131705Y0137309D02*
X0131489Y0137309D01*
X0131705Y0138308D02*
X0130663Y0138308D01*
X0130678Y0139306D02*
X0131705Y0139306D01*
X0131705Y0140305D02*
X0130678Y0140305D01*
X0130678Y0141303D02*
X0131813Y0141303D01*
X0131017Y0142302D02*
X0144949Y0142302D01*
X0144949Y0141303D02*
X0143424Y0141303D01*
X0143742Y0141717D02*
X0143742Y0145435D01*
X0145307Y0147000D01*
X0145307Y0150007D01*
X0144682Y0150632D01*
X0144682Y0152000D01*
X0139182Y0157500D01*
X0128119Y0157500D01*
X0127619Y0156000D01*
X0127619Y0148395D01*
X0126150Y0146926D01*
X0126150Y0145936D01*
X0124460Y0144245D01*
X0124460Y0137199D01*
X0124788Y0138308D02*
X0122119Y0138308D01*
X0122178Y0139306D02*
X0124560Y0139306D01*
X0124560Y0140305D02*
X0122178Y0140305D01*
X0122178Y0141303D02*
X0124560Y0141303D01*
X0124560Y0142302D02*
X0122517Y0142302D01*
X0123515Y0143301D02*
X0124560Y0143301D01*
X0124514Y0144299D02*
X0125088Y0144299D01*
X0127134Y0144409D02*
X0127134Y0147362D01*
X0128103Y0147362D01*
X0128103Y0144409D01*
X0127134Y0144409D01*
X0127134Y0145298D02*
X0128103Y0145298D01*
X0128103Y0146296D02*
X0127134Y0146296D01*
X0127134Y0147295D02*
X0128103Y0147295D01*
X0127619Y0147846D02*
X0127619Y0148395D01*
X0127134Y0149292D02*
X0128103Y0149292D01*
X0128103Y0150290D02*
X0127134Y0150290D01*
X0127134Y0151289D02*
X0128103Y0151289D01*
X0126758Y0152287D02*
X0130028Y0152287D01*
X0130028Y0151289D02*
X0129796Y0151289D01*
X0131619Y0152000D02*
X0135319Y0155700D01*
X0138436Y0155700D01*
X0141359Y0152777D01*
X0141359Y0148618D01*
X0143532Y0148293D02*
X0145516Y0148293D01*
X0145516Y0147295D02*
X0143532Y0147295D01*
X0143532Y0146296D02*
X0145319Y0146296D01*
X0144949Y0145298D02*
X0143025Y0145298D01*
X0144949Y0144299D02*
X0133014Y0144299D01*
X0132015Y0143301D02*
X0144949Y0143301D01*
X0146540Y0145268D02*
X0146540Y0138836D01*
X0146086Y0138382D01*
X0141359Y0138382D01*
X0141535Y0137206D01*
X0141359Y0138382D02*
X0137619Y0138382D01*
X0135446Y0136815D02*
X0133879Y0138382D01*
X0135446Y0136815D02*
X0135446Y0135568D01*
X0136654Y0134360D01*
X0136654Y0134012D01*
X0130054Y0133315D02*
X0121982Y0133315D01*
X0121559Y0132317D02*
X0129469Y0132317D01*
X0129012Y0131318D02*
X0121481Y0131318D01*
X0121375Y0130320D02*
X0129012Y0130320D01*
X0129012Y0129321D02*
X0121375Y0129321D01*
X0121375Y0128323D02*
X0129033Y0128323D01*
X0128233Y0128185D02*
X0126685Y0128185D01*
X0126358Y0128097D01*
X0126064Y0127928D01*
X0125825Y0127688D01*
X0125655Y0127395D01*
X0125568Y0127067D01*
X0125568Y0126406D01*
X0128233Y0126406D01*
X0128233Y0128185D01*
X0128233Y0127324D02*
X0128233Y0127324D01*
X0128233Y0126326D02*
X0128233Y0126326D01*
X0128233Y0125327D02*
X0128233Y0125327D01*
X0128233Y0124329D02*
X0128233Y0124329D01*
X0128233Y0123330D02*
X0128233Y0123330D01*
X0125621Y0123330D02*
X0123640Y0123330D01*
X0124639Y0122332D02*
X0125568Y0122332D01*
X0125740Y0121333D02*
X0124989Y0121333D01*
X0124989Y0120335D02*
X0125764Y0120335D01*
X0125764Y0119336D02*
X0124307Y0119336D01*
X0125764Y0118338D02*
X0121375Y0118338D01*
X0121375Y0117339D02*
X0125764Y0117339D01*
X0125764Y0116341D02*
X0121375Y0116341D01*
X0120791Y0115342D02*
X0125764Y0115342D01*
X0125764Y0114344D02*
X0121354Y0114344D01*
X0121571Y0113345D02*
X0126070Y0113345D01*
X0127241Y0112347D02*
X0121571Y0112347D01*
X0121571Y0110350D02*
X0127589Y0110350D01*
X0127241Y0111348D02*
X0118603Y0111348D01*
X0117634Y0111348D02*
X0113619Y0111348D01*
X0113619Y0110350D02*
X0114666Y0110350D01*
X0114666Y0112347D02*
X0113619Y0112347D01*
X0113619Y0113345D02*
X0114666Y0113345D01*
X0114883Y0114344D02*
X0113619Y0114344D01*
X0113619Y0115342D02*
X0115447Y0115342D01*
X0114863Y0116341D02*
X0113619Y0116341D01*
X0113619Y0117339D02*
X0114863Y0117339D01*
X0114863Y0118338D02*
X0113619Y0118338D01*
X0113846Y0119336D02*
X0114863Y0119336D01*
X0114844Y0120335D02*
X0114863Y0120335D01*
X0121375Y0123330D02*
X0121597Y0123330D01*
X0121375Y0124329D02*
X0125568Y0124329D01*
X0125629Y0125327D02*
X0121375Y0125327D01*
X0121123Y0126326D02*
X0125568Y0126326D01*
X0125636Y0127324D02*
X0120773Y0127324D01*
X0135741Y0129949D02*
X0136697Y0129949D01*
X0138666Y0129949D02*
X0140634Y0129949D01*
X0142603Y0129949D02*
X0144571Y0129949D01*
X0146540Y0129949D02*
X0146540Y0138836D01*
X0148131Y0137841D02*
X0149634Y0137841D01*
X0149634Y0140612D01*
X0150603Y0140612D01*
X0150603Y0137841D01*
X0152454Y0137841D01*
X0152781Y0137928D01*
X0153075Y0138098D01*
X0153314Y0138337D01*
X0153484Y0138631D01*
X0153571Y0138958D01*
X0153571Y0140612D01*
X0150603Y0140612D01*
X0150603Y0141581D01*
X0149634Y0141581D01*
X0149634Y0144352D01*
X0148131Y0144352D01*
X0148131Y0144441D01*
X0151389Y0144441D01*
X0152028Y0145080D01*
X0152028Y0145303D01*
X0152100Y0145035D01*
X0152270Y0144741D01*
X0152509Y0144501D01*
X0152803Y0144332D01*
X0153130Y0144244D01*
X0154981Y0144244D01*
X0154981Y0147016D01*
X0155949Y0147016D01*
X0155949Y0144244D01*
X0156432Y0144244D01*
X0156344Y0144155D01*
X0155502Y0144155D01*
X0154863Y0143517D01*
X0154863Y0138676D01*
X0155502Y0138037D01*
X0160428Y0138037D01*
X0160428Y0137463D01*
X0155502Y0137463D01*
X0154863Y0136824D01*
X0154863Y0136094D01*
X0153375Y0136094D01*
X0153375Y0136824D01*
X0152736Y0137463D01*
X0148131Y0137463D01*
X0148131Y0137841D01*
X0149634Y0138308D02*
X0150603Y0138308D01*
X0150603Y0139306D02*
X0149634Y0139306D01*
X0149634Y0140305D02*
X0150603Y0140305D01*
X0150119Y0141096D02*
X0155465Y0146443D01*
X0155465Y0147500D01*
X0150965Y0152000D01*
X0144682Y0152000D01*
X0143532Y0151289D02*
X0155900Y0151289D01*
X0155949Y0150290D02*
X0154981Y0150290D01*
X0154981Y0149292D02*
X0155949Y0149292D01*
X0155949Y0148293D02*
X0154981Y0148293D01*
X0154981Y0146296D02*
X0155949Y0146296D01*
X0155949Y0145298D02*
X0154981Y0145298D01*
X0154981Y0144299D02*
X0155949Y0144299D01*
X0154863Y0143301D02*
X0153554Y0143301D01*
X0153571Y0143234D02*
X0153484Y0143562D01*
X0153314Y0143855D01*
X0153075Y0144095D01*
X0152781Y0144265D01*
X0152454Y0144352D01*
X0150603Y0144352D01*
X0150603Y0141581D01*
X0153571Y0141581D01*
X0153571Y0143234D01*
X0153571Y0142302D02*
X0154863Y0142302D01*
X0154863Y0141303D02*
X0150603Y0141303D01*
X0150603Y0142302D02*
X0149634Y0142302D01*
X0149634Y0143301D02*
X0150603Y0143301D01*
X0150603Y0144299D02*
X0149634Y0144299D01*
X0152028Y0145298D02*
X0152030Y0145298D01*
X0152653Y0144299D02*
X0152925Y0144299D01*
X0148772Y0147500D02*
X0146540Y0145268D01*
X0145516Y0149292D02*
X0143532Y0149292D01*
X0143532Y0150290D02*
X0145886Y0150290D01*
X0142949Y0152287D02*
X0154901Y0152287D01*
X0152301Y0150290D02*
X0151658Y0150290D01*
X0144192Y0153286D02*
X0142949Y0153286D01*
X0143194Y0154284D02*
X0142101Y0154284D01*
X0142195Y0155283D02*
X0141103Y0155283D01*
X0141197Y0156281D02*
X0140104Y0156281D01*
X0140198Y0157280D02*
X0139106Y0157280D01*
X0139200Y0158278D02*
X0131820Y0158278D01*
X0132818Y0159277D02*
X0138201Y0159277D01*
X0137203Y0160275D02*
X0132981Y0160275D01*
X0132981Y0161274D02*
X0136204Y0161274D01*
X0135206Y0162272D02*
X0132519Y0162272D01*
X0131521Y0163271D02*
X0134207Y0163271D01*
X0132514Y0164269D02*
X0129559Y0164269D01*
X0129559Y0165268D02*
X0131515Y0165268D01*
X0130517Y0166266D02*
X0129559Y0166266D01*
X0129559Y0167265D02*
X0129569Y0167265D01*
X0129559Y0168263D02*
X0129569Y0168263D01*
X0121883Y0163736D02*
X0128119Y0157500D01*
X0128418Y0158278D02*
X0126619Y0158278D01*
X0126619Y0157280D02*
X0134649Y0157280D01*
X0133651Y0156281D02*
X0126619Y0156281D01*
X0127188Y0155283D02*
X0132652Y0155283D01*
X0131654Y0154284D02*
X0127489Y0154284D01*
X0127489Y0153286D02*
X0130655Y0153286D01*
X0131619Y0152000D02*
X0131619Y0145154D01*
X0127619Y0141154D01*
X0124560Y0146594D02*
X0119119Y0141154D01*
X0121857Y0137309D02*
X0126749Y0137309D01*
X0126749Y0136311D02*
X0122731Y0136311D01*
X0122731Y0135312D02*
X0126955Y0135312D01*
X0127953Y0134314D02*
X0122731Y0134314D01*
X0112119Y0136500D02*
X0112119Y0137100D01*
X0081719Y0137100D01*
X0078119Y0133500D01*
X0074465Y0133500D01*
X0082008Y0141500D02*
X0084608Y0138900D01*
X0108408Y0138900D01*
X0109419Y0139911D01*
X0112230Y0139911D01*
X0124560Y0146594D02*
X0124560Y0150464D01*
X0125119Y0151023D01*
X0125119Y0154000D01*
X0119119Y0147846D02*
X0116465Y0150500D01*
X0109619Y0150500D01*
X0133879Y0150260D02*
X0133879Y0148618D01*
X0133879Y0150260D02*
X0136619Y0153000D01*
X0137577Y0148293D02*
X0137660Y0148293D01*
X0137660Y0147295D02*
X0137577Y0147295D01*
X0137577Y0146296D02*
X0137660Y0146296D01*
X0137660Y0145298D02*
X0137577Y0145298D01*
X0135674Y0145298D02*
X0135545Y0145298D01*
X0139564Y0145298D02*
X0139692Y0145298D01*
X0143532Y0140305D02*
X0144949Y0140305D01*
X0152889Y0137309D02*
X0155349Y0137309D01*
X0155231Y0138308D02*
X0153285Y0138308D01*
X0153571Y0139306D02*
X0154863Y0139306D01*
X0154863Y0140305D02*
X0153571Y0140305D01*
X0153375Y0136311D02*
X0154863Y0136311D01*
X0150119Y0134404D02*
X0148509Y0133793D01*
X0148509Y0129949D01*
X0148494Y0129949D01*
X0155005Y0126406D02*
X0155099Y0126500D01*
X0162019Y0126500D01*
X0162019Y0155600D01*
X0157119Y0160500D01*
X0147603Y0160500D01*
X0142603Y0165500D01*
X0156383Y0165500D02*
X0163819Y0158064D01*
X0163819Y0124437D01*
X0155005Y0124437D01*
X0155005Y0122469D02*
X0165619Y0122469D01*
X0165619Y0160957D01*
X0170162Y0165500D01*
X0168119Y0160500D02*
X0178942Y0160500D01*
X0183942Y0165500D01*
X0190921Y0158700D02*
X0197721Y0165500D01*
X0190921Y0158700D02*
X0170319Y0158700D01*
X0169619Y0158000D01*
X0169619Y0118531D01*
X0155005Y0118531D01*
X0155005Y0116563D02*
X0171619Y0116563D01*
X0171619Y0103907D01*
X0168694Y0100982D01*
X0174261Y0095414D02*
X0176202Y0097355D01*
X0176202Y0103412D01*
X0177666Y0105650D02*
X0186946Y0096370D01*
X0187600Y0096370D01*
X0190971Y0093000D01*
X0199119Y0093000D01*
X0212652Y0079466D01*
X0214995Y0079466D01*
X0217546Y0076916D01*
X0223534Y0076916D01*
X0224119Y0076500D01*
X0222225Y0073377D02*
X0220591Y0075011D01*
X0217201Y0075011D01*
X0214336Y0077876D01*
X0211243Y0077876D01*
X0198346Y0090773D01*
X0191892Y0090773D01*
X0185397Y0084278D01*
X0178877Y0082242D02*
X0178877Y0081304D01*
X0187990Y0072191D01*
X0189067Y0072191D01*
X0197485Y0080608D01*
X0197485Y0081355D01*
X0199442Y0083313D01*
X0200436Y0085683D02*
X0197801Y0085683D01*
X0190965Y0078846D01*
X0190965Y0078710D01*
X0178877Y0082242D02*
X0175619Y0085500D01*
X0179829Y0089710D01*
X0179829Y0089846D01*
X0185169Y0094000D02*
X0182804Y0096366D01*
X0181727Y0096366D01*
X0172809Y0087449D01*
X0172809Y0084764D01*
X0175096Y0082477D01*
X0175096Y0080477D01*
X0164119Y0069500D01*
X0160148Y0068846D02*
X0168034Y0060960D01*
X0168034Y0055646D01*
X0193337Y0030343D01*
X0220701Y0030343D01*
X0227044Y0024000D01*
X0230398Y0024000D01*
X0234358Y0022481D02*
X0240218Y0022481D01*
X0240699Y0021482D02*
X0233877Y0021482D01*
X0232878Y0020484D02*
X0241698Y0020484D01*
X0243634Y0019485D02*
X0067619Y0019485D01*
X0067619Y0018487D02*
X0244632Y0018487D01*
X0245631Y0017488D02*
X0067619Y0017488D01*
X0067619Y0016490D02*
X0246629Y0016490D01*
X0247628Y0015491D02*
X0067619Y0015491D01*
X0067619Y0014493D02*
X0248626Y0014493D01*
X0249625Y0013494D02*
X0067625Y0013494D01*
X0068623Y0012496D02*
X0250623Y0012496D01*
X0266794Y0022452D02*
X0271814Y0017432D01*
X0272849Y0017466D01*
X0312538Y0017466D01*
X0317316Y0022244D01*
X0317316Y0025756D01*
X0314832Y0028240D01*
X0303536Y0028240D01*
X0299296Y0024000D01*
X0308019Y0019057D02*
X0312962Y0024000D01*
X0313075Y0024000D01*
X0308019Y0019057D02*
X0283469Y0019057D01*
X0280573Y0021952D01*
X0280573Y0026546D01*
X0270369Y0036750D01*
X0270369Y0061750D01*
X0269203Y0062916D01*
X0259123Y0062916D01*
X0245187Y0076852D01*
X0245187Y0094839D01*
X0236795Y0103231D01*
X0231625Y0103231D01*
X0229394Y0101000D01*
X0219119Y0101000D01*
X0217119Y0103000D01*
X0217119Y0126783D01*
X0219178Y0128843D01*
X0232028Y0128843D01*
X0232028Y0126874D02*
X0231950Y0126796D01*
X0230285Y0126796D01*
X0228489Y0125000D01*
X0228119Y0125000D01*
X0225965Y0121500D02*
X0222119Y0125346D01*
X0225965Y0121500D02*
X0228119Y0121500D01*
X0230619Y0119000D01*
X0232028Y0119000D01*
X0232028Y0117031D02*
X0230087Y0117031D01*
X0228465Y0118654D01*
X0222119Y0118654D01*
X0232028Y0117031D02*
X0245061Y0117031D01*
X0245119Y0116974D01*
X0245119Y0105909D01*
X0241250Y0105841D02*
X0241250Y0102218D01*
X0242363Y0101105D01*
X0242866Y0101105D01*
X0244119Y0099851D01*
X0243387Y0094093D02*
X0236049Y0101431D01*
X0232075Y0101431D01*
X0230053Y0099409D01*
X0218460Y0099409D01*
X0215528Y0102341D01*
X0215528Y0127442D01*
X0218516Y0130429D01*
X0218516Y0130443D01*
X0224016Y0130443D01*
X0225664Y0132091D01*
X0235276Y0132091D01*
X0237167Y0132169D02*
X0237245Y0132091D01*
X0245119Y0132091D02*
X0245119Y0119000D01*
X0258209Y0119000D01*
X0258209Y0120969D02*
X0273416Y0120969D01*
X0273470Y0120914D01*
X0271549Y0122937D02*
X0272315Y0123703D01*
X0273322Y0123703D01*
X0274619Y0125000D01*
X0271549Y0122937D02*
X0258209Y0122937D01*
X0258209Y0124906D02*
X0261024Y0124906D01*
X0262119Y0126000D01*
X0263830Y0129262D02*
X0263830Y0131955D01*
X0263694Y0132091D01*
X0254961Y0132091D01*
X0253071Y0132169D02*
X0253071Y0133834D01*
X0254237Y0135000D01*
X0264129Y0135000D01*
X0264718Y0135589D01*
X0269708Y0135589D01*
X0270119Y0136000D01*
X0275885Y0136000D01*
X0276875Y0135010D01*
X0283984Y0135010D01*
X0305398Y0156424D01*
X0305398Y0165500D01*
X0317928Y0165500D02*
X0319178Y0165500D01*
X0317928Y0165500D02*
X0285081Y0132653D01*
X0268910Y0132653D01*
X0267774Y0133789D01*
X0265463Y0133789D01*
X0263830Y0132155D01*
X0263830Y0131955D01*
X0266619Y0131000D02*
X0267937Y0129681D01*
X0284938Y0129681D01*
X0313859Y0158603D01*
X0326060Y0158603D01*
X0332957Y0165500D01*
X0348119Y0160480D02*
X0353326Y0160480D01*
X0356940Y0156866D01*
X0401253Y0156866D01*
X0406060Y0152059D01*
X0420218Y0152059D01*
X0422690Y0149587D01*
X0422690Y0137757D01*
X0421728Y0136795D01*
X0420253Y0136795D01*
X0419926Y0136469D01*
X0419926Y0134500D02*
X0419926Y0132531D01*
X0424847Y0132531D01*
X0422619Y0131500D02*
X0422433Y0131500D01*
X0421728Y0132205D01*
X0418477Y0132205D01*
X0418477Y0133500D01*
X0441119Y0133500D01*
X0441119Y0110000D01*
X0443619Y0107500D01*
X0443619Y0104000D01*
X0443119Y0104000D01*
X0427119Y0120000D01*
X0427119Y0127000D01*
X0422619Y0127000D01*
X0422619Y0129812D01*
X0422690Y0129883D01*
X0422690Y0131243D01*
X0422619Y0131314D01*
X0422619Y0131500D01*
X0422619Y0131318D02*
X0441119Y0131318D01*
X0441119Y0130320D02*
X0422690Y0130320D01*
X0422619Y0129321D02*
X0441119Y0129321D01*
X0441119Y0128323D02*
X0422619Y0128323D01*
X0422619Y0127324D02*
X0441119Y0127324D01*
X0441119Y0126326D02*
X0427119Y0126326D01*
X0427119Y0125327D02*
X0441119Y0125327D01*
X0441119Y0124329D02*
X0427119Y0124329D01*
X0427119Y0123330D02*
X0441119Y0123330D01*
X0441119Y0122332D02*
X0427119Y0122332D01*
X0427119Y0121333D02*
X0441119Y0121333D01*
X0441119Y0120335D02*
X0427119Y0120335D01*
X0427782Y0119336D02*
X0441119Y0119336D01*
X0441119Y0118338D02*
X0428781Y0118338D01*
X0429780Y0117339D02*
X0441119Y0117339D01*
X0441119Y0116341D02*
X0430778Y0116341D01*
X0431777Y0115342D02*
X0441119Y0115342D01*
X0441119Y0114344D02*
X0432775Y0114344D01*
X0433774Y0113345D02*
X0441119Y0113345D01*
X0441119Y0112347D02*
X0434772Y0112347D01*
X0435771Y0111348D02*
X0441119Y0111348D01*
X0441119Y0110350D02*
X0436769Y0110350D01*
X0437768Y0109351D02*
X0441768Y0109351D01*
X0442766Y0108353D02*
X0438766Y0108353D01*
X0439765Y0107354D02*
X0443619Y0107354D01*
X0443619Y0106356D02*
X0440763Y0106356D01*
X0441762Y0105357D02*
X0443619Y0105357D01*
X0443619Y0104359D02*
X0442760Y0104359D01*
X0447134Y0106356D02*
X0502619Y0106356D01*
X0502619Y0107354D02*
X0446135Y0107354D01*
X0445137Y0108353D02*
X0502619Y0108353D01*
X0502619Y0109351D02*
X0444138Y0109351D01*
X0443335Y0110154D02*
X0443335Y0110332D01*
X0442709Y0110958D01*
X0442709Y0134159D01*
X0441778Y0135091D01*
X0422690Y0135091D01*
X0422690Y0135180D01*
X0422526Y0135344D01*
X0423318Y0136136D01*
X0423348Y0136166D01*
X0424280Y0137098D01*
X0424280Y0150246D01*
X0420877Y0153650D01*
X0406718Y0153650D01*
X0404493Y0155875D01*
X0409619Y0161000D01*
X0409619Y0179000D01*
X0483341Y0179000D01*
X0483341Y0173201D01*
X0490570Y0165972D01*
X0499647Y0165972D01*
X0502619Y0163000D01*
X0502619Y0124376D01*
X0489442Y0124376D01*
X0488803Y0123737D01*
X0488803Y0116534D01*
X0489442Y0115896D01*
X0502619Y0115896D01*
X0502619Y0097604D01*
X0489442Y0097604D01*
X0488803Y0096965D01*
X0488803Y0093500D01*
X0457119Y0093500D01*
X0450952Y0099722D01*
X0476729Y0099722D01*
X0476805Y0099754D01*
X0485621Y0099754D01*
X0486260Y0100393D01*
X0486260Y0105233D01*
X0485621Y0105872D01*
X0476805Y0105872D01*
X0476729Y0105904D01*
X0447586Y0105904D01*
X0443335Y0110154D01*
X0443318Y0110350D02*
X0502619Y0110350D01*
X0502619Y0111348D02*
X0442709Y0111348D01*
X0442709Y0112347D02*
X0502619Y0112347D01*
X0502619Y0113345D02*
X0442709Y0113345D01*
X0442709Y0114344D02*
X0502619Y0114344D01*
X0502619Y0115342D02*
X0442709Y0115342D01*
X0442709Y0116341D02*
X0488997Y0116341D01*
X0488803Y0117339D02*
X0442709Y0117339D01*
X0442709Y0118338D02*
X0488803Y0118338D01*
X0488803Y0119336D02*
X0442709Y0119336D01*
X0442709Y0120335D02*
X0488803Y0120335D01*
X0488803Y0121333D02*
X0442709Y0121333D01*
X0442709Y0122332D02*
X0488803Y0122332D01*
X0488803Y0123330D02*
X0483534Y0123330D01*
X0483534Y0123195D02*
X0483534Y0133548D01*
X0482895Y0134187D01*
X0470968Y0134187D01*
X0470329Y0133548D01*
X0470329Y0131462D01*
X0466270Y0131462D01*
X0465101Y0132631D01*
X0461262Y0132631D01*
X0459518Y0130887D01*
X0459518Y0133548D01*
X0458879Y0134187D01*
X0446952Y0134187D01*
X0446313Y0133548D01*
X0446313Y0123195D01*
X0446952Y0122557D01*
X0458879Y0122557D01*
X0459518Y0123195D01*
X0459518Y0125107D01*
X0461262Y0123363D01*
X0465101Y0123363D01*
X0467018Y0125281D01*
X0470329Y0125281D01*
X0470329Y0123195D01*
X0470968Y0122557D01*
X0482895Y0122557D01*
X0483534Y0123195D01*
X0483534Y0124329D02*
X0489395Y0124329D01*
X0483534Y0125327D02*
X0502619Y0125327D01*
X0502619Y0126326D02*
X0483534Y0126326D01*
X0483534Y0127324D02*
X0502619Y0127324D01*
X0502619Y0128323D02*
X0483534Y0128323D01*
X0483534Y0129321D02*
X0502619Y0129321D01*
X0502619Y0130320D02*
X0483534Y0130320D01*
X0483534Y0131318D02*
X0502619Y0131318D01*
X0502619Y0132317D02*
X0483534Y0132317D01*
X0483534Y0133315D02*
X0502619Y0133315D01*
X0502619Y0134314D02*
X0442554Y0134314D01*
X0441868Y0135000D02*
X0441778Y0135091D01*
X0422690Y0135091D01*
X0422690Y0135180D01*
X0422526Y0135344D01*
X0423318Y0136136D01*
X0423348Y0136166D01*
X0424280Y0137098D01*
X0424280Y0150208D01*
X0446119Y0150000D01*
X0446119Y0135000D01*
X0441868Y0135000D01*
X0441119Y0133315D02*
X0418477Y0133315D01*
X0418477Y0132317D02*
X0441119Y0132317D01*
X0442709Y0132317D02*
X0446313Y0132317D01*
X0446313Y0133315D02*
X0442709Y0133315D01*
X0442709Y0131318D02*
X0446313Y0131318D01*
X0446313Y0130320D02*
X0442709Y0130320D01*
X0442709Y0129321D02*
X0446313Y0129321D01*
X0446313Y0128323D02*
X0442709Y0128323D01*
X0442709Y0127324D02*
X0446313Y0127324D01*
X0446313Y0126326D02*
X0442709Y0126326D01*
X0442709Y0125327D02*
X0446313Y0125327D01*
X0446313Y0124329D02*
X0442709Y0124329D01*
X0442709Y0123330D02*
X0446313Y0123330D01*
X0459518Y0123330D02*
X0470329Y0123330D01*
X0470329Y0124329D02*
X0466066Y0124329D01*
X0460296Y0124329D02*
X0459518Y0124329D01*
X0459518Y0131318D02*
X0459949Y0131318D01*
X0459518Y0132317D02*
X0460948Y0132317D01*
X0459518Y0133315D02*
X0470329Y0133315D01*
X0470329Y0132317D02*
X0465415Y0132317D01*
X0446119Y0135312D02*
X0422557Y0135312D01*
X0502619Y0135312D01*
X0502619Y0136311D02*
X0423493Y0136311D01*
X0446119Y0136311D01*
X0446119Y0137309D02*
X0424280Y0137309D01*
X0502619Y0137309D01*
X0502619Y0138308D02*
X0424280Y0138308D01*
X0446119Y0138308D01*
X0446119Y0139306D02*
X0424280Y0139306D01*
X0502619Y0139306D01*
X0502619Y0140305D02*
X0424280Y0140305D01*
X0446119Y0140305D01*
X0446119Y0141303D02*
X0424280Y0141303D01*
X0502619Y0141303D01*
X0502619Y0142302D02*
X0424280Y0142302D01*
X0446119Y0142302D01*
X0446119Y0143301D02*
X0424280Y0143301D01*
X0502619Y0143301D01*
X0502619Y0144299D02*
X0424280Y0144299D01*
X0446119Y0144299D01*
X0446119Y0145298D02*
X0424280Y0145298D01*
X0457400Y0145298D01*
X0457801Y0145131D02*
X0460061Y0145131D01*
X0462149Y0145996D01*
X0463747Y0147594D01*
X0464612Y0149682D01*
X0464612Y0151943D01*
X0463747Y0154031D01*
X0462149Y0155629D01*
X0460061Y0156494D01*
X0457801Y0156494D01*
X0455713Y0155629D01*
X0454115Y0154031D01*
X0453250Y0151943D01*
X0453250Y0149682D01*
X0454115Y0147594D01*
X0455713Y0145996D01*
X0457801Y0145131D01*
X0455413Y0146296D02*
X0424280Y0146296D01*
X0446119Y0146296D01*
X0446119Y0147295D02*
X0424280Y0147295D01*
X0454415Y0147295D01*
X0453826Y0148293D02*
X0424280Y0148293D01*
X0446119Y0148293D01*
X0446119Y0149292D02*
X0424280Y0149292D01*
X0453412Y0149292D01*
X0453250Y0150290D02*
X0424236Y0150290D01*
X0423238Y0151289D02*
X0453250Y0151289D01*
X0453393Y0152287D02*
X0422239Y0152287D01*
X0421241Y0153286D02*
X0453806Y0153286D01*
X0454369Y0154284D02*
X0406084Y0154284D01*
X0405085Y0155283D02*
X0455367Y0155283D01*
X0457288Y0156281D02*
X0404900Y0156281D01*
X0405898Y0157280D02*
X0502619Y0157280D01*
X0502619Y0158278D02*
X0406897Y0158278D01*
X0407895Y0159277D02*
X0502619Y0159277D01*
X0502619Y0160275D02*
X0408894Y0160275D01*
X0409619Y0161274D02*
X0502619Y0161274D01*
X0502619Y0162272D02*
X0409619Y0162272D01*
X0409619Y0163271D02*
X0502348Y0163271D01*
X0501349Y0164269D02*
X0409619Y0164269D01*
X0409619Y0165268D02*
X0500351Y0165268D01*
X0490275Y0166266D02*
X0409619Y0166266D01*
X0409619Y0167265D02*
X0489277Y0167265D01*
X0488278Y0168263D02*
X0409619Y0168263D01*
X0409619Y0169262D02*
X0487280Y0169262D01*
X0486281Y0170260D02*
X0409619Y0170260D01*
X0409619Y0171259D02*
X0485283Y0171259D01*
X0484284Y0172257D02*
X0409619Y0172257D01*
X0409619Y0173256D02*
X0483341Y0173256D01*
X0483341Y0174254D02*
X0409619Y0174254D01*
X0409619Y0175253D02*
X0483341Y0175253D01*
X0483341Y0176251D02*
X0409619Y0176251D01*
X0409619Y0177250D02*
X0483341Y0177250D01*
X0483341Y0178248D02*
X0409619Y0178248D01*
X0460574Y0156281D02*
X0475288Y0156281D01*
X0475801Y0156494D02*
X0473713Y0155629D01*
X0472115Y0154031D01*
X0471250Y0151943D01*
X0471250Y0149682D01*
X0472115Y0147594D01*
X0473713Y0145996D01*
X0475801Y0145131D01*
X0478061Y0145131D01*
X0480149Y0145996D01*
X0481747Y0147594D01*
X0482612Y0149682D01*
X0482612Y0151943D01*
X0481747Y0154031D01*
X0480149Y0155629D01*
X0478061Y0156494D01*
X0475801Y0156494D01*
X0473367Y0155283D02*
X0462495Y0155283D01*
X0463494Y0154284D02*
X0472369Y0154284D01*
X0471806Y0153286D02*
X0464056Y0153286D01*
X0464470Y0152287D02*
X0471393Y0152287D01*
X0471250Y0151289D02*
X0464612Y0151289D01*
X0464612Y0150290D02*
X0471250Y0150290D01*
X0471412Y0149292D02*
X0464450Y0149292D01*
X0464037Y0148293D02*
X0471826Y0148293D01*
X0472415Y0147295D02*
X0463448Y0147295D01*
X0462449Y0146296D02*
X0473413Y0146296D01*
X0475400Y0145298D02*
X0460462Y0145298D01*
X0478462Y0145298D02*
X0502619Y0145298D01*
X0502619Y0146296D02*
X0480449Y0146296D01*
X0481448Y0147295D02*
X0502619Y0147295D01*
X0502619Y0148293D02*
X0482037Y0148293D01*
X0482450Y0149292D02*
X0502619Y0149292D01*
X0502619Y0150290D02*
X0482612Y0150290D01*
X0482612Y0151289D02*
X0502619Y0151289D01*
X0502619Y0152287D02*
X0482470Y0152287D01*
X0482056Y0153286D02*
X0502619Y0153286D01*
X0502619Y0154284D02*
X0481494Y0154284D01*
X0480495Y0155283D02*
X0502619Y0155283D01*
X0502619Y0156281D02*
X0478574Y0156281D01*
X0427119Y0137240D02*
X0425619Y0138740D01*
X0425619Y0141000D01*
X0421099Y0141303D02*
X0409802Y0141303D01*
X0421099Y0141303D01*
X0421099Y0140305D02*
X0410735Y0140305D01*
X0410114Y0140079D02*
X0409802Y0140079D01*
X0409802Y0143441D01*
X0411889Y0143441D01*
X0412528Y0144080D01*
X0412528Y0148920D01*
X0411889Y0149559D01*
X0406655Y0149559D01*
X0406016Y0148920D01*
X0406016Y0145067D01*
X0402119Y0149000D01*
X0402119Y0153500D01*
X0402244Y0153625D01*
X0404469Y0151400D01*
X0404469Y0151400D01*
X0405401Y0150469D01*
X0419559Y0150469D01*
X0421099Y0148928D01*
X0421099Y0140079D01*
X0418124Y0140079D01*
X0417162Y0139117D01*
X0417162Y0137757D01*
X0417466Y0137453D01*
X0417162Y0137149D01*
X0417162Y0135788D01*
X0417466Y0135484D01*
X0417162Y0135180D01*
X0417162Y0134793D01*
X0416678Y0134309D01*
X0409802Y0141247D01*
X0409802Y0143441D01*
X0411889Y0143441D01*
X0412528Y0144080D01*
X0412528Y0148920D01*
X0411889Y0149559D01*
X0406655Y0149559D01*
X0406016Y0148920D01*
X0406016Y0144080D01*
X0406655Y0143441D01*
X0406821Y0143441D01*
X0406821Y0141298D01*
X0406119Y0142000D01*
X0405178Y0142000D01*
X0405178Y0143771D01*
X0404539Y0144409D01*
X0399699Y0144409D01*
X0399060Y0143771D01*
X0399060Y0143044D01*
X0396875Y0143044D01*
X0396875Y0143574D01*
X0396236Y0144213D01*
X0393619Y0144213D01*
X0393619Y0150500D01*
X0419777Y0150251D01*
X0421099Y0148928D01*
X0421099Y0140079D01*
X0418124Y0140079D01*
X0417162Y0139117D01*
X0417162Y0137757D01*
X0417466Y0137453D01*
X0417162Y0137149D01*
X0417162Y0135788D01*
X0417466Y0135484D01*
X0417162Y0135180D01*
X0417162Y0135000D01*
X0411075Y0135000D01*
X0411075Y0135180D01*
X0410114Y0136142D01*
X0414118Y0132138D01*
X0414119Y0132138D01*
X0414119Y0129539D01*
X0413331Y0128752D01*
X0414906Y0128752D01*
X0416481Y0128752D01*
X0418119Y0128323D02*
X0420370Y0128323D01*
X0421028Y0127659D02*
X0421028Y0126341D01*
X0421369Y0126001D01*
X0421369Y0126000D01*
X0423619Y0123750D01*
X0423619Y0108250D01*
X0416619Y0108250D01*
X0416619Y0123500D01*
X0418119Y0125000D01*
X0418119Y0129458D01*
X0418477Y0129816D01*
X0418477Y0129909D01*
X0418798Y0129909D01*
X0421028Y0127659D01*
X0421028Y0127324D02*
X0418119Y0127324D01*
X0418119Y0126326D02*
X0421044Y0126326D01*
X0422041Y0125327D02*
X0418119Y0125327D01*
X0417448Y0124329D02*
X0423040Y0124329D01*
X0423619Y0123330D02*
X0416619Y0123330D01*
X0416619Y0122332D02*
X0423619Y0122332D01*
X0423619Y0121333D02*
X0416619Y0121333D01*
X0416619Y0120335D02*
X0423619Y0120335D01*
X0423619Y0119336D02*
X0416619Y0119336D01*
X0416619Y0118338D02*
X0423619Y0118338D01*
X0423619Y0117339D02*
X0416619Y0117339D01*
X0416619Y0116341D02*
X0423619Y0116341D01*
X0423619Y0115342D02*
X0416619Y0115342D01*
X0416619Y0114344D02*
X0423619Y0114344D01*
X0423619Y0113345D02*
X0416619Y0113345D01*
X0416619Y0112347D02*
X0423619Y0112347D01*
X0423619Y0111348D02*
X0416619Y0111348D01*
X0416619Y0110350D02*
X0423619Y0110350D01*
X0423619Y0109351D02*
X0416619Y0109351D01*
X0416619Y0108353D02*
X0423619Y0108353D01*
X0413869Y0108353D02*
X0406619Y0108353D01*
X0406619Y0108250D02*
X0406619Y0130115D01*
X0406864Y0130409D01*
X0409760Y0130409D01*
X0409760Y0129816D01*
X0410119Y0129458D01*
X0410119Y0127000D01*
X0410213Y0126905D01*
X0410213Y0126725D01*
X0410852Y0126087D01*
X0411032Y0126087D01*
X0413869Y0123250D01*
X0413869Y0108250D01*
X0406619Y0108250D01*
X0406619Y0109351D02*
X0413869Y0109351D01*
X0413869Y0110350D02*
X0406619Y0110350D01*
X0406619Y0111348D02*
X0413869Y0111348D01*
X0413869Y0112347D02*
X0406619Y0112347D01*
X0406619Y0113345D02*
X0413869Y0113345D01*
X0413869Y0114344D02*
X0406619Y0114344D01*
X0406619Y0115342D02*
X0413869Y0115342D01*
X0413869Y0116341D02*
X0406619Y0116341D01*
X0406619Y0117339D02*
X0413869Y0117339D01*
X0413869Y0118338D02*
X0406619Y0118338D01*
X0406619Y0119336D02*
X0413869Y0119336D01*
X0413869Y0120335D02*
X0406619Y0120335D01*
X0406619Y0121333D02*
X0413869Y0121333D01*
X0413869Y0122332D02*
X0406619Y0122332D01*
X0406619Y0123330D02*
X0413788Y0123330D01*
X0412790Y0124329D02*
X0406619Y0124329D01*
X0406619Y0125327D02*
X0411791Y0125327D01*
X0410613Y0126326D02*
X0406619Y0126326D01*
X0406619Y0127324D02*
X0410119Y0127324D01*
X0410119Y0128323D02*
X0406619Y0128323D01*
X0406619Y0129321D02*
X0410119Y0129321D01*
X0409760Y0130320D02*
X0406789Y0130320D01*
X0408312Y0130563D02*
X0408312Y0119142D01*
X0410953Y0115500D01*
X0419926Y0116858D02*
X0420284Y0115500D01*
X0419926Y0116858D02*
X0419926Y0130563D01*
X0419381Y0129321D02*
X0418119Y0129321D01*
X0413331Y0128752D02*
X0411757Y0128752D01*
X0405551Y0131318D02*
X0380619Y0131318D01*
X0380619Y0130320D02*
X0404719Y0130320D01*
X0403887Y0129321D02*
X0380619Y0129321D01*
X0380619Y0129000D02*
X0380619Y0150500D01*
X0390596Y0150500D01*
X0390363Y0150267D01*
X0390363Y0145426D01*
X0391002Y0144787D01*
X0392028Y0144787D01*
X0392028Y0144213D01*
X0391002Y0144213D01*
X0390363Y0143574D01*
X0390363Y0143044D01*
X0388625Y0143044D01*
X0388625Y0143574D01*
X0387986Y0144213D01*
X0382752Y0144213D01*
X0382113Y0143574D01*
X0385369Y0146830D01*
X0385369Y0147846D01*
X0380619Y0148293D02*
X0390363Y0148293D01*
X0390363Y0147295D02*
X0380619Y0147295D01*
X0380619Y0146296D02*
X0390363Y0146296D01*
X0390492Y0145298D02*
X0380619Y0145298D01*
X0380619Y0144299D02*
X0392028Y0144299D01*
X0393619Y0144299D02*
X0399588Y0144299D01*
X0399060Y0143301D02*
X0396875Y0143301D01*
X0393619Y0145298D02*
X0406016Y0145298D01*
X0405788Y0145298D01*
X0405548Y0144641D02*
X0402146Y0148043D01*
X0402819Y0148293D02*
X0406016Y0148293D01*
X0393619Y0148293D01*
X0393619Y0147846D02*
X0397296Y0148024D01*
X0393619Y0147295D02*
X0406016Y0147295D01*
X0403809Y0147295D01*
X0404798Y0146296D02*
X0406016Y0146296D01*
X0393619Y0146296D01*
X0390363Y0143301D02*
X0388625Y0143301D01*
X0382113Y0143301D02*
X0380619Y0143301D01*
X0380619Y0142302D02*
X0382113Y0142302D01*
X0382113Y0141303D02*
X0380619Y0141303D01*
X0380619Y0140305D02*
X0382113Y0140305D01*
X0382113Y0139306D02*
X0380619Y0139306D01*
X0380619Y0138308D02*
X0382538Y0138308D01*
X0382619Y0138227D02*
X0382113Y0138733D01*
X0382113Y0143574D01*
X0382113Y0138733D01*
X0382752Y0138094D01*
X0387986Y0138094D01*
X0388625Y0138733D01*
X0388625Y0139263D01*
X0390363Y0139263D01*
X0390363Y0138733D01*
X0391002Y0138094D01*
X0392619Y0138094D01*
X0392619Y0137000D01*
X0402119Y0137000D01*
X0402367Y0136752D01*
X0402367Y0136439D01*
X0403298Y0135508D01*
X0405845Y0132961D01*
X0406407Y0132961D01*
X0406510Y0132858D01*
X0409760Y0132858D01*
X0409760Y0132205D01*
X0406510Y0132205D01*
X0406305Y0132000D01*
X0406119Y0132000D01*
X0403619Y0129000D01*
X0380619Y0129000D01*
X0384619Y0131240D02*
X0384619Y0136500D01*
X0383119Y0136500D01*
X0382619Y0137000D01*
X0378119Y0137000D01*
X0380619Y0137309D02*
X0392619Y0137309D01*
X0390788Y0138308D02*
X0388199Y0138308D01*
X0382619Y0138227D02*
X0382619Y0137000D01*
X0380619Y0136311D02*
X0402495Y0136311D01*
X0403494Y0135312D02*
X0380619Y0135312D01*
X0380619Y0134314D02*
X0404492Y0134314D01*
X0405491Y0133315D02*
X0380619Y0133315D01*
X0380619Y0132317D02*
X0409760Y0132317D01*
X0408312Y0132531D02*
X0401772Y0132531D01*
X0401772Y0133500D01*
X0403957Y0137098D02*
X0406504Y0134551D01*
X0408260Y0134551D01*
X0408312Y0134500D01*
X0408638Y0136142D02*
X0410114Y0136142D01*
X0407163Y0136142D01*
X0407119Y0136186D01*
X0407119Y0136795D01*
X0410114Y0136795D01*
X0411075Y0137757D01*
X0411075Y0139117D01*
X0410114Y0140079D01*
X0409802Y0140305D02*
X0421099Y0140305D01*
X0421099Y0142302D02*
X0409802Y0142302D01*
X0421099Y0142302D01*
X0421099Y0143301D02*
X0409802Y0143301D01*
X0421099Y0143301D01*
X0421099Y0144299D02*
X0412528Y0144299D01*
X0421099Y0144299D01*
X0421099Y0145298D02*
X0412528Y0145298D01*
X0421099Y0145298D01*
X0421099Y0146296D02*
X0412528Y0146296D01*
X0421099Y0146296D01*
X0421099Y0147295D02*
X0412528Y0147295D01*
X0421099Y0147295D01*
X0421099Y0148293D02*
X0412528Y0148293D01*
X0421099Y0148293D01*
X0420736Y0149292D02*
X0412157Y0149292D01*
X0420736Y0149292D01*
X0419737Y0150290D02*
X0402119Y0150290D01*
X0402119Y0149292D02*
X0406388Y0149292D01*
X0393619Y0149292D01*
X0393619Y0150290D02*
X0415658Y0150290D01*
X0409272Y0146500D02*
X0408312Y0145539D01*
X0406016Y0144299D02*
X0404649Y0144299D01*
X0405548Y0144641D02*
X0405548Y0137757D01*
X0406510Y0136795D01*
X0407985Y0136795D01*
X0408312Y0136469D01*
X0408638Y0136142D01*
X0407119Y0136311D02*
X0417162Y0136311D01*
X0414693Y0136311D01*
X0414119Y0136862D02*
X0414119Y0137000D01*
X0419619Y0142500D01*
X0417351Y0139306D02*
X0411725Y0139306D01*
X0410886Y0139306D02*
X0417351Y0139306D01*
X0417162Y0138308D02*
X0412714Y0138308D01*
X0413704Y0137309D02*
X0417323Y0137309D01*
X0410628Y0137309D01*
X0411075Y0138308D02*
X0417162Y0138308D01*
X0417294Y0135312D02*
X0415683Y0135312D01*
X0416673Y0134314D02*
X0416683Y0134314D01*
X0417294Y0135312D02*
X0410943Y0135312D01*
X0403957Y0137098D02*
X0403957Y0139315D01*
X0402119Y0141154D01*
X0405178Y0142302D02*
X0406821Y0142302D01*
X0406815Y0141303D02*
X0406821Y0141303D01*
X0406821Y0143301D02*
X0405178Y0143301D01*
X0390363Y0149292D02*
X0380619Y0149292D01*
X0380619Y0150290D02*
X0390386Y0150290D01*
X0402119Y0151289D02*
X0404581Y0151289D01*
X0403582Y0152287D02*
X0402119Y0152287D01*
X0402119Y0153286D02*
X0402584Y0153286D01*
X0343119Y0139500D02*
X0340879Y0137260D01*
X0340879Y0135809D01*
X0361253Y0125000D02*
X0371209Y0125000D01*
X0371209Y0123346D01*
X0371848Y0122707D01*
X0377870Y0122707D01*
X0378508Y0123346D01*
X0378508Y0125000D01*
X0404619Y0125000D01*
X0404619Y0107000D01*
X0400619Y0102000D01*
X0372172Y0102000D01*
X0373003Y0102831D01*
X0373003Y0106669D01*
X0370288Y0109384D01*
X0369959Y0109384D01*
X0369959Y0109909D01*
X0369028Y0110841D01*
X0365969Y0113900D01*
X0363324Y0113900D01*
X0363135Y0114089D01*
X0359082Y0114089D01*
X0358444Y0113450D01*
X0358444Y0111168D01*
X0359082Y0110530D01*
X0363135Y0110530D01*
X0363324Y0110719D01*
X0364651Y0110719D01*
X0366217Y0109152D01*
X0364115Y0107049D01*
X0363774Y0107049D01*
X0363774Y0108332D01*
X0363135Y0108970D01*
X0359082Y0108970D01*
X0358793Y0108681D01*
X0358119Y0108681D01*
X0358119Y0119476D01*
X0359291Y0119476D01*
X0360637Y0118130D01*
X0362600Y0118130D01*
X0363989Y0119518D01*
X0363989Y0121482D01*
X0362600Y0122870D01*
X0360637Y0122870D01*
X0360224Y0122457D01*
X0360129Y0122457D01*
X0361253Y0123581D01*
X0361253Y0125000D01*
X0361253Y0124329D02*
X0371209Y0124329D01*
X0371225Y0123330D02*
X0361002Y0123330D01*
X0363139Y0122332D02*
X0404619Y0122332D01*
X0404619Y0123330D02*
X0378493Y0123330D01*
X0378508Y0124329D02*
X0404619Y0124329D01*
X0404619Y0121333D02*
X0363989Y0121333D01*
X0363989Y0120335D02*
X0404619Y0120335D01*
X0404619Y0119336D02*
X0363807Y0119336D01*
X0362808Y0118338D02*
X0404619Y0118338D01*
X0404619Y0117339D02*
X0358119Y0117339D01*
X0358416Y0118230D02*
X0358416Y0109750D01*
X0353629Y0109750D01*
X0358119Y0109351D02*
X0366018Y0109351D01*
X0365418Y0108353D02*
X0363753Y0108353D01*
X0363774Y0107354D02*
X0364420Y0107354D01*
X0365020Y0110350D02*
X0358119Y0110350D01*
X0358119Y0111348D02*
X0358444Y0111348D01*
X0358444Y0112347D02*
X0358119Y0112347D01*
X0358119Y0113345D02*
X0358444Y0113345D01*
X0358119Y0114344D02*
X0404619Y0114344D01*
X0404619Y0115342D02*
X0358119Y0115342D01*
X0358119Y0116341D02*
X0404619Y0116341D01*
X0404619Y0113345D02*
X0366523Y0113345D01*
X0367521Y0112347D02*
X0404619Y0112347D01*
X0404619Y0111348D02*
X0368520Y0111348D01*
X0369518Y0110350D02*
X0404619Y0110350D01*
X0404619Y0109351D02*
X0370321Y0109351D01*
X0371319Y0108353D02*
X0404619Y0108353D01*
X0404619Y0107354D02*
X0372318Y0107354D01*
X0373003Y0106356D02*
X0404103Y0106356D01*
X0403304Y0105357D02*
X0373003Y0105357D01*
X0373003Y0104359D02*
X0402506Y0104359D01*
X0401707Y0103360D02*
X0373003Y0103360D01*
X0372534Y0102362D02*
X0400908Y0102362D01*
X0384099Y0096484D02*
X0380871Y0093257D01*
X0380871Y0077442D01*
X0354716Y0051287D01*
X0346553Y0051287D01*
X0345791Y0052048D01*
X0345791Y0060981D01*
X0338119Y0069654D01*
X0332084Y0073839D02*
X0332084Y0076871D01*
X0337594Y0076871D01*
X0338119Y0076346D01*
X0332084Y0073839D02*
X0331323Y0073078D01*
X0326071Y0073078D01*
X0325153Y0072161D01*
X0325153Y0066989D01*
X0327642Y0064500D01*
X0330161Y0061981D01*
X0330999Y0061981D01*
X0349703Y0043278D01*
X0349703Y0024000D01*
X0340634Y0024000D01*
X0349703Y0024000D02*
X0349703Y0023845D01*
X0358048Y0015500D01*
X0373831Y0015500D01*
X0376619Y0018288D01*
X0376619Y0023000D01*
X0379119Y0025500D01*
X0384119Y0025500D01*
X0389119Y0020500D01*
X0381619Y0020500D02*
X0373494Y0012375D01*
X0352244Y0012375D01*
X0346119Y0018500D01*
X0334119Y0018500D01*
X0333119Y0019500D01*
X0333119Y0024000D01*
X0326855Y0024000D01*
X0333119Y0024000D02*
X0333119Y0051000D01*
X0332119Y0052000D01*
X0321619Y0052000D01*
X0321619Y0059500D01*
X0321619Y0075555D01*
X0328619Y0069654D02*
X0334653Y0063119D01*
X0334653Y0060640D01*
X0345807Y0049487D01*
X0355462Y0049487D01*
X0379475Y0073000D01*
X0389119Y0073000D01*
X0394099Y0077980D01*
X0402603Y0077980D01*
X0411573Y0080783D02*
X0417046Y0075810D01*
X0419279Y0076748D01*
X0411573Y0080783D02*
X0411573Y0085390D01*
X0409463Y0087500D01*
X0409306Y0070813D02*
X0411245Y0068874D01*
X0419279Y0068874D01*
X0415230Y0061000D02*
X0411174Y0065056D01*
X0415230Y0061000D02*
X0419279Y0061000D01*
X0327642Y0059500D02*
X0321619Y0059500D01*
X0305595Y0054500D02*
X0300448Y0054500D01*
X0299539Y0055409D01*
X0291880Y0055409D01*
X0280289Y0067000D01*
X0259619Y0067000D01*
X0225436Y0066155D02*
X0222225Y0069366D01*
X0222225Y0073377D01*
X0219436Y0072222D02*
X0217741Y0072222D01*
X0213678Y0076285D01*
X0178994Y0066740D02*
X0171032Y0058778D01*
X0171032Y0057758D01*
X0175954Y0052836D02*
X0184291Y0061172D01*
X0184562Y0061172D01*
X0173426Y0072308D02*
X0166927Y0065808D01*
X0166927Y0065808D01*
X0160823Y0065422D02*
X0155571Y0065422D01*
X0152146Y0068846D01*
X0149619Y0068846D01*
X0146591Y0068846D01*
X0163483Y0073500D02*
X0167859Y0077875D01*
X0114756Y0099816D02*
X0102001Y0099816D01*
X0094432Y0107385D01*
X0088262Y0107385D01*
X0087869Y0107779D01*
X0099837Y0109098D02*
X0104216Y0104719D01*
X0111986Y0104719D01*
X0099837Y0109098D02*
X0099837Y0113152D01*
X0102824Y0116139D01*
X0102824Y0123625D01*
X0087869Y0119654D02*
X0087375Y0119654D01*
X0084613Y0116892D01*
X0081244Y0125500D02*
X0077244Y0125500D01*
X0076619Y0126125D01*
X0084608Y0138900D02*
X0108408Y0138900D01*
X0109419Y0139911D01*
X0112230Y0139911D01*
X0124560Y0146594D02*
X0124560Y0150464D01*
X0125119Y0151023D01*
X0125119Y0154000D01*
X0119119Y0147846D02*
X0116465Y0150500D01*
X0109619Y0150500D01*
X0133879Y0150260D02*
X0133879Y0148618D01*
X0133879Y0150260D02*
X0136619Y0153000D01*
X0137577Y0148293D02*
X0137660Y0148293D01*
X0137660Y0147295D02*
X0137577Y0147295D01*
X0137577Y0146296D02*
X0137660Y0146296D01*
X0137660Y0145298D02*
X0137577Y0145298D01*
X0135674Y0145298D02*
X0135545Y0145298D01*
X0139564Y0145298D02*
X0139692Y0145298D01*
X0143532Y0140305D02*
X0144949Y0140305D01*
X0152889Y0137309D02*
X0155349Y0137309D01*
X0155231Y0138308D02*
X0153285Y0138308D01*
X0153571Y0139306D02*
X0154863Y0139306D01*
X0154863Y0140305D02*
X0153571Y0140305D01*
X0153375Y0136311D02*
X0154863Y0136311D01*
X0150119Y0134404D02*
X0148509Y0133793D01*
X0148509Y0129949D01*
X0148494Y0129949D01*
X0118603Y0114344D02*
X0117634Y0114344D01*
X0117634Y0113345D02*
X0118603Y0113345D01*
X0118603Y0112347D02*
X0117634Y0112347D01*
X0146540Y0111051D02*
X0146571Y0111020D01*
X0220619Y0106654D02*
X0220772Y0106500D01*
X0227465Y0106500D02*
X0228056Y0105909D01*
X0235276Y0105909D01*
X0241182Y0105909D02*
X0241250Y0105841D01*
X0232028Y0115063D02*
X0231965Y0115000D01*
X0227119Y0115000D01*
X0263830Y0129262D02*
X0266092Y0127000D01*
X0253071Y0132169D02*
X0252993Y0132091D01*
X0251102Y0132169D02*
X0251102Y0134411D01*
X0253491Y0136800D01*
X0263383Y0136800D01*
X0263972Y0137389D01*
X0265181Y0137389D01*
X0268345Y0140552D01*
X0265463Y0141444D02*
X0262619Y0138600D01*
X0252746Y0138600D01*
X0249134Y0134988D01*
X0249134Y0132169D01*
X0249056Y0132091D01*
X0251024Y0132091D02*
X0251102Y0132169D01*
X0265463Y0141444D02*
X0265463Y0148344D01*
X0257582Y0156225D01*
X0238207Y0156225D01*
X0232902Y0161530D01*
X0230758Y0161530D01*
X0266619Y0165500D02*
X0270994Y0165500D01*
X0290369Y0146125D01*
X0270994Y0165500D02*
X0266619Y0165500D01*
X0358119Y0119336D02*
X0359431Y0119336D01*
X0360429Y0118338D02*
X0358119Y0118338D01*
X0361109Y0112309D02*
X0365310Y0112309D01*
X0368369Y0109250D01*
X0368369Y0104759D01*
X0368369Y0104750D01*
X0336306Y0105187D02*
X0333462Y0102343D01*
X0332192Y0102343D01*
X0331431Y0101582D01*
X0331431Y0094159D01*
X0328994Y0103625D02*
X0307869Y0103625D01*
X0301931Y0097687D01*
X0294522Y0097687D01*
X0283830Y0101226D02*
X0282640Y0102416D01*
X0282594Y0102416D01*
X0279280Y0103184D02*
X0267878Y0103184D01*
X0290629Y0106954D02*
X0290629Y0090010D01*
X0290619Y0090000D01*
X0290619Y0082500D01*
X0292019Y0081100D01*
X0303519Y0081100D01*
X0304122Y0080497D01*
X0305369Y0104250D02*
X0301619Y0104250D01*
X0305369Y0104250D02*
X0306828Y0105710D01*
X0321401Y0105710D01*
X0323128Y0107437D01*
X0334144Y0107437D01*
X0336306Y0105187D01*
X0298469Y0109850D02*
X0296334Y0107715D01*
X0291390Y0107715D01*
X0290629Y0106954D01*
X0298469Y0109850D02*
X0298469Y0112724D01*
X0424847Y0132532D02*
X0424946Y0132520D01*
X0425044Y0132504D01*
X0425142Y0132485D01*
X0425238Y0132461D01*
X0425334Y0132434D01*
X0425429Y0132404D01*
X0425522Y0132369D01*
X0425614Y0132331D01*
X0425704Y0132289D01*
X0425793Y0132244D01*
X0425880Y0132195D01*
X0425965Y0132143D01*
X0426047Y0132088D01*
X0426128Y0132029D01*
X0426206Y0131968D01*
X0426281Y0131903D01*
X0426354Y0131836D01*
X0426425Y0131765D01*
X0426492Y0131692D01*
X0426557Y0131616D01*
X0426618Y0131538D01*
X0426677Y0131458D01*
X0426732Y0131375D01*
X0426784Y0131290D01*
X0426833Y0131203D01*
X0426878Y0131114D01*
X0426919Y0131024D01*
X0426957Y0130932D01*
X0426992Y0130839D01*
X0427022Y0130744D01*
X0427049Y0130648D01*
X0427072Y0130551D01*
X0427092Y0130454D01*
X0427107Y0130356D01*
X0427119Y0130257D01*
X0427127Y0130158D01*
X0427131Y0130058D01*
X0427130Y0129959D01*
X0427127Y0129859D01*
X0427119Y0129760D01*
X0486136Y0105357D02*
X0502619Y0105357D01*
X0502619Y0104359D02*
X0486260Y0104359D01*
X0486260Y0103360D02*
X0502619Y0103360D01*
X0502619Y0102362D02*
X0486260Y0102362D01*
X0486260Y0101363D02*
X0502619Y0101363D01*
X0502619Y0100365D02*
X0486232Y0100365D01*
X0489207Y0097369D02*
X0453285Y0097369D01*
X0454274Y0096370D02*
X0488803Y0096370D01*
X0488803Y0095372D02*
X0455264Y0095372D01*
X0456253Y0094373D02*
X0488803Y0094373D01*
X0502619Y0098368D02*
X0452295Y0098368D01*
X0451306Y0099366D02*
X0502619Y0099366D01*
X0314832Y0028240D02*
X0303536Y0028240D01*
X0299296Y0024000D01*
X0241698Y0020484D02*
X0232878Y0020484D01*
X0233877Y0021482D02*
X0240699Y0021482D01*
X0240218Y0022481D02*
X0234358Y0022481D01*
X0234638Y0023479D02*
X0239640Y0023479D01*
X0238641Y0024478D02*
X0234638Y0024478D01*
X0234376Y0025476D02*
X0237643Y0025476D01*
X0234144Y0026475D02*
X0233920Y0026475D01*
X0233146Y0027473D02*
X0232922Y0027473D01*
X0232147Y0028472D02*
X0224821Y0028472D01*
X0223823Y0029470D02*
X0231149Y0029470D01*
X0230150Y0030469D02*
X0222824Y0030469D01*
X0221826Y0031467D02*
X0229151Y0031467D01*
X0227875Y0027473D02*
X0225820Y0027473D01*
X0226818Y0026475D02*
X0226876Y0026475D01*
X0227044Y0024000D02*
X0220701Y0030343D01*
X0193337Y0030343D01*
X0193412Y0028472D02*
X0220323Y0028472D01*
X0220220Y0028240D02*
X0213017Y0028240D01*
X0212379Y0027601D01*
X0212379Y0020399D01*
X0213017Y0019760D01*
X0220220Y0019760D01*
X0220859Y0020399D01*
X0220859Y0027601D01*
X0220220Y0028240D01*
X0220859Y0027473D02*
X0221321Y0027473D01*
X0220859Y0026475D02*
X0222320Y0026475D01*
X0223318Y0025476D02*
X0220859Y0025476D01*
X0220859Y0024478D02*
X0224317Y0024478D01*
X0225315Y0023479D02*
X0220859Y0023479D01*
X0220859Y0022481D02*
X0226314Y0022481D01*
X0226920Y0021482D02*
X0220859Y0021482D01*
X0220859Y0020484D02*
X0227918Y0020484D01*
X0227044Y0024000D02*
X0230398Y0024000D01*
X0212379Y0024478D02*
X0199875Y0024478D01*
X0199875Y0023479D02*
X0212379Y0023479D01*
X0212379Y0022481D02*
X0199595Y0022481D01*
X0199113Y0021482D02*
X0212379Y0021482D01*
X0212379Y0020484D02*
X0198115Y0020484D01*
X0193154Y0020484D02*
X0184335Y0020484D01*
X0185334Y0021482D02*
X0192156Y0021482D01*
X0199613Y0025476D02*
X0212379Y0025476D01*
X0212379Y0026475D02*
X0199156Y0026475D01*
X0198158Y0027473D02*
X0212379Y0027473D01*
X0179332Y0027473D02*
X0170599Y0027473D01*
X0171597Y0026475D02*
X0178333Y0026475D01*
X0177877Y0025476D02*
X0172053Y0025476D01*
X0172316Y0024478D02*
X0177615Y0024478D01*
X0177615Y0023479D02*
X0172316Y0023479D01*
X0172036Y0022481D02*
X0177895Y0022481D01*
X0178376Y0021482D02*
X0171554Y0021482D01*
X0170556Y0020484D02*
X0179375Y0020484D01*
X0168075Y0024000D02*
X0166443Y0025632D01*
X0164853Y0045266D02*
X0163091Y0045266D01*
X0162768Y0045589D01*
X0162445Y0045266D01*
X0159942Y0045266D01*
X0159758Y0045450D01*
X0159634Y0045327D01*
X0159341Y0045157D01*
X0159013Y0045069D01*
X0158044Y0045069D01*
X0158044Y0047957D01*
X0154894Y0047957D01*
X0154894Y0047957D01*
X0158044Y0047957D01*
X0158044Y0047957D01*
X0156982Y0047957D01*
X0154894Y0047957D01*
X0154894Y0047957D01*
X0154894Y0045069D01*
X0155864Y0045069D01*
X0156191Y0045157D01*
X0156469Y0045317D01*
X0156747Y0045157D01*
X0157074Y0045069D01*
X0158044Y0045069D01*
X0158044Y0047957D01*
X0158044Y0047957D01*
X0158044Y0047443D02*
X0158044Y0047443D01*
X0158044Y0046445D02*
X0158044Y0046445D01*
X0158044Y0045446D02*
X0158044Y0045446D01*
X0159754Y0045446D02*
X0159762Y0045446D01*
X0162626Y0045446D02*
X0162911Y0045446D01*
X0154894Y0045446D02*
X0154894Y0045446D01*
X0154894Y0046445D02*
X0154894Y0046445D01*
X0154894Y0047443D02*
X0154894Y0047443D01*
X0177908Y0051437D02*
X0178681Y0051437D01*
X0071746Y0037500D02*
X0040119Y0037500D01*
X0060772Y0022654D02*
X0062119Y0024000D01*
X0060772Y0022654D02*
X0057119Y0022654D01*
X0045404Y0080559D02*
X0038904Y0080559D01*
X0060810Y0107010D02*
X0060869Y0107069D01*
X0084608Y0138900D02*
X0082008Y0141500D01*
X0074465Y0141500D01*
X0075619Y0141500D01*
X0126619Y0159277D02*
X0127419Y0159277D01*
X0127257Y0160275D02*
X0126619Y0160275D01*
X0126619Y0161274D02*
X0127079Y0161274D01*
X0127168Y0161184D02*
X0127168Y0161184D01*
D65*
X0127869Y0162875D02*
X0130119Y0160625D01*
X0127869Y0162875D02*
X0127869Y0171750D01*
X0129744Y0173625D01*
X0129744Y0177375D01*
X0123190Y0183928D01*
X0061994Y0183928D01*
X0060419Y0185503D01*
X0045619Y0185503D01*
X0041785Y0181669D01*
X0040607Y0181669D01*
X0040607Y0165331D01*
X0044938Y0161000D01*
X0053626Y0161000D01*
X0055310Y0162684D01*
X0055310Y0165845D01*
X0060619Y0171154D01*
X0065669Y0168964D02*
X0065669Y0173500D01*
X0061322Y0177846D01*
X0060619Y0177846D01*
X0065669Y0168964D02*
X0066957Y0167675D01*
X0068290Y0167675D01*
X0071965Y0164000D01*
X0078119Y0164000D01*
X0089619Y0150500D02*
X0094619Y0155500D01*
X0094619Y0175500D01*
X0094119Y0175500D01*
X0104119Y0175500D02*
X0104119Y0165000D01*
X0099619Y0160500D01*
X0131260Y0167914D02*
X0131260Y0171836D01*
X0134744Y0175320D01*
X0134744Y0175500D01*
X0136619Y0175500D01*
X0144119Y0183000D01*
X0388119Y0183000D01*
X0316619Y0155500D02*
X0316619Y0155419D01*
X0340464Y0140850D02*
X0343614Y0144000D01*
X0343619Y0144000D01*
X0346806Y0147187D01*
X0346806Y0147990D01*
X0340464Y0140850D02*
X0335524Y0140850D01*
X0335524Y0137150D01*
X0335524Y0140850D02*
X0320512Y0140850D01*
X0319557Y0139895D01*
X0319557Y0137814D01*
X0317244Y0135500D01*
X0323713Y0137150D02*
X0325863Y0135000D01*
X0327119Y0135000D01*
X0330119Y0132000D01*
X0330119Y0127500D01*
X0334272Y0123346D01*
X0335119Y0123346D01*
X0327119Y0123346D02*
X0327119Y0127445D01*
X0323713Y0130850D01*
X0343028Y0123346D02*
X0343119Y0123346D01*
X0303194Y0122075D02*
X0301619Y0120500D01*
X0303194Y0118925D01*
X0301619Y0118925D02*
X0301619Y0120500D01*
X0300044Y0118925D01*
X0301619Y0118925D01*
X0280147Y0121125D02*
X0277047Y0118025D01*
X0261058Y0118025D01*
X0260065Y0117031D01*
X0258209Y0117031D01*
X0280147Y0121125D02*
X0280119Y0124846D01*
X0280147Y0125500D02*
X0280147Y0121125D01*
X0280147Y0125500D02*
X0279522Y0126125D01*
X0278024Y0138470D02*
X0258369Y0158125D01*
X0238994Y0158125D01*
X0231619Y0165500D01*
X0225280Y0165500D01*
X0239060Y0165500D02*
X0243935Y0160625D01*
X0258994Y0160625D01*
X0276619Y0143000D01*
X0282869Y0143000D01*
X0285369Y0146750D02*
X0275994Y0146750D01*
X0257244Y0165500D01*
X0252839Y0165500D01*
X0237694Y0150925D02*
X0232578Y0156041D01*
X0222967Y0156041D01*
X0222793Y0156214D01*
X0221536Y0156214D01*
X0217619Y0152296D01*
X0217619Y0147846D01*
X0225182Y0144654D02*
X0225835Y0144500D01*
X0222489Y0141154D01*
X0217619Y0141154D01*
X0225835Y0140283D02*
X0228119Y0138500D01*
X0237619Y0138500D01*
X0241119Y0135000D01*
X0241119Y0132154D01*
X0241182Y0132091D01*
X0243119Y0132122D02*
X0243150Y0132091D01*
X0243119Y0132122D02*
X0243119Y0136000D01*
X0240402Y0138717D01*
X0240402Y0144500D01*
X0241307Y0145178D01*
X0242628Y0146500D01*
X0247272Y0146500D01*
X0242402Y0146000D02*
X0241307Y0145178D01*
X0245119Y0136489D02*
X0251130Y0142500D01*
X0260767Y0142500D01*
X0260767Y0145158D01*
X0260078Y0145847D01*
X0260078Y0146539D01*
X0256703Y0149914D01*
X0253965Y0149914D01*
X0253965Y0146500D01*
X0253965Y0149914D02*
X0252954Y0150925D01*
X0237694Y0150925D01*
X0225835Y0144500D02*
X0225835Y0140283D01*
X0245119Y0136489D02*
X0245119Y0132091D01*
X0245149Y0132091D01*
X0247087Y0132091D02*
X0247087Y0135629D01*
X0251959Y0140500D01*
X0261832Y0140500D01*
X0262767Y0141435D01*
X0262767Y0146961D01*
X0278024Y0138470D02*
X0282089Y0138470D01*
X0247156Y0132091D02*
X0247087Y0132091D01*
X0247119Y0132122D01*
X0232028Y0113094D02*
X0229713Y0113094D01*
X0228619Y0112000D01*
X0243150Y0105909D02*
X0243150Y0103005D01*
X0247087Y0103005D01*
X0247087Y0105909D01*
X0247087Y0103005D02*
X0247087Y0077639D01*
X0254727Y0069999D01*
X0272406Y0069999D01*
X0285966Y0069999D01*
X0297119Y0058846D01*
X0297118Y0058846D02*
X0297120Y0058895D01*
X0297125Y0058943D01*
X0297134Y0058992D01*
X0297147Y0059039D01*
X0297163Y0059085D01*
X0297183Y0059130D01*
X0297206Y0059173D01*
X0297232Y0059214D01*
X0297261Y0059254D01*
X0297293Y0059291D01*
X0297327Y0059325D01*
X0297364Y0059357D01*
X0297404Y0059386D01*
X0297445Y0059412D01*
X0297488Y0059435D01*
X0297533Y0059455D01*
X0297579Y0059471D01*
X0297626Y0059484D01*
X0297675Y0059493D01*
X0297723Y0059498D01*
X0297772Y0059500D01*
X0305595Y0059500D01*
X0315369Y0054875D02*
X0315369Y0049500D01*
X0312869Y0047000D01*
X0297119Y0047000D01*
X0297119Y0052154D01*
X0297119Y0047000D02*
X0297119Y0035602D01*
X0285516Y0024000D01*
X0264969Y0032350D02*
X0262562Y0029943D01*
X0255410Y0029943D01*
X0249466Y0024000D01*
X0244178Y0024000D01*
X0264969Y0032350D02*
X0264969Y0049150D01*
X0252119Y0062000D01*
X0315369Y0049500D02*
X0327642Y0049500D01*
X0389119Y0020500D02*
X0391619Y0020500D01*
X0419404Y0053000D02*
X0419279Y0053125D01*
X0419404Y0053000D02*
X0428181Y0053000D01*
X0431619Y0056437D01*
X0431619Y0060500D01*
X0419183Y0067936D02*
X0419279Y0068874D01*
X0424887Y0072985D02*
X0411856Y0072985D01*
X0410369Y0074472D01*
X0410369Y0077500D01*
X0408869Y0079000D01*
X0419279Y0076748D02*
X0419276Y0076125D01*
X0424887Y0072985D02*
X0426174Y0072948D01*
X0426077Y0072948D01*
X0430151Y0068874D01*
X0478334Y0068874D01*
X0359619Y0088937D02*
X0356892Y0091664D01*
X0356892Y0103321D01*
X0350634Y0085461D02*
X0348934Y0083760D01*
X0307244Y0098000D02*
X0295369Y0086437D01*
X0294522Y0097687D02*
X0294522Y0104250D01*
X0293897Y0104250D01*
X0300590Y0104250D02*
X0301619Y0104250D01*
X0400619Y0131240D02*
X0401772Y0133500D01*
X0402119Y0147846D02*
X0402146Y0148043D01*
X0402465Y0150369D01*
X0397119Y0150369D01*
X0397119Y0153369D01*
X0402465Y0150369D02*
X0419518Y0150369D01*
X0197213Y0114350D02*
X0197213Y0114179D01*
X0142103Y0120016D02*
X0141619Y0120500D01*
X0140915Y0120500D01*
X0137988Y0120500D01*
X0132760Y0120500D01*
X0128233Y0122469D02*
X0128233Y0124437D01*
X0125119Y0124437D01*
X0125119Y0115000D01*
X0121772Y0111654D01*
X0118119Y0111654D01*
X0109369Y0114471D02*
X0109369Y0120029D01*
X0112147Y0120029D01*
X0113619Y0121500D01*
X0113619Y0125846D01*
X0118119Y0130346D01*
X0119869Y0132096D01*
X0119869Y0135250D01*
X0124460Y0137199D02*
X0128233Y0133426D01*
X0128233Y0129949D01*
X0130792Y0129949D01*
X0132760Y0129949D01*
X0128233Y0129949D02*
X0128233Y0126406D01*
X0128233Y0124437D01*
X0122619Y0121000D02*
X0118414Y0121000D01*
X0118119Y0120705D01*
X0118119Y0123654D01*
X0118119Y0120705D02*
X0118119Y0118346D01*
X0105921Y0126721D02*
X0102824Y0123625D01*
X0104042Y0127375D02*
X0098494Y0127375D01*
X0094557Y0127375D01*
X0094557Y0127365D01*
X0087869Y0127365D01*
X0087869Y0126346D01*
X0087869Y0125500D01*
X0081244Y0125500D01*
X0087869Y0119654D02*
X0094557Y0119654D01*
X0094557Y0119885D01*
X0094432Y0114865D02*
X0094432Y0114471D01*
X0098494Y0114471D01*
X0098494Y0127375D01*
X0104042Y0127375D02*
X0106548Y0129881D01*
X0108999Y0129881D01*
X0112119Y0133000D01*
X0109369Y0126721D02*
X0105921Y0126721D01*
X0136619Y0115500D02*
X0141619Y0120500D01*
X0136619Y0115500D02*
X0136697Y0115421D01*
X0109369Y0107779D02*
X0106046Y0107779D01*
X0102699Y0111125D01*
X0094432Y0114471D02*
X0087869Y0114471D01*
X0072879Y0114437D02*
X0072244Y0114437D01*
X0069874Y0125500D02*
X0060810Y0116436D01*
X0060810Y0114490D01*
X0055218Y0104244D02*
X0048800Y0110663D01*
X0039562Y0101425D01*
X0029062Y0101425D01*
X0040479Y0093551D02*
X0072432Y0093551D01*
X0075801Y0090183D01*
X0106936Y0090183D01*
X0107244Y0089875D01*
X0104119Y0084250D02*
X0041479Y0084250D01*
X0040479Y0084890D01*
X0040479Y0076228D02*
X0068082Y0076228D01*
X0072301Y0080447D01*
X0094566Y0080447D01*
X0100119Y0080500D01*
X0099472Y0076447D02*
X0071771Y0076447D01*
X0067221Y0071898D01*
X0042054Y0071898D01*
X0099472Y0076447D02*
X0100420Y0075500D01*
X0101619Y0075500D01*
X0025518Y0049457D02*
X0025369Y0049457D01*
X0057119Y0034500D02*
X0057119Y0029346D01*
X0051131Y0034169D02*
X0051131Y0022654D01*
X0057119Y0022654D01*
X0051131Y0022654D02*
X0051131Y0017831D01*
X0071619Y0024000D02*
X0076619Y0019000D01*
X0149296Y0019000D01*
X0154296Y0024000D01*
X0063369Y0105000D02*
X0062619Y0104250D01*
X0061997Y0104250D01*
X0061992Y0104244D01*
X0055218Y0104244D01*
X0063369Y0105000D02*
X0063369Y0107010D01*
X0071619Y0106169D02*
X0071619Y0105500D01*
X0071619Y0106169D02*
X0076619Y0106169D01*
X0048800Y0110663D02*
X0048800Y0124654D01*
X0045465Y0124654D01*
X0041237Y0128882D01*
X0035119Y0128882D01*
X0035119Y0134000D02*
X0046465Y0134000D01*
X0049119Y0131346D01*
X0049272Y0131500D01*
X0054619Y0131500D01*
X0055406Y0136559D02*
X0060119Y0131346D01*
X0065619Y0131346D01*
X0067772Y0133500D01*
X0055406Y0136559D02*
X0035119Y0136559D01*
X0050619Y0143988D02*
X0050619Y0144760D01*
X0061619Y0140000D02*
X0063119Y0141500D01*
X0067772Y0141500D01*
X0065119Y0124654D02*
X0060119Y0124654D01*
X0049119Y0124654D01*
X0048800Y0124654D01*
X0127619Y0146971D02*
X0127619Y0147846D01*
X0134728Y0165141D02*
X0145500Y0154369D01*
X0155210Y0154369D01*
X0159531Y0150048D01*
X0159531Y0144952D01*
X0157119Y0142540D01*
X0158119Y0141096D01*
X0158119Y0134404D02*
X0150119Y0134404D01*
X0181619Y0144563D02*
X0181619Y0148000D01*
X0134728Y0165141D02*
X0134033Y0165141D01*
X0131260Y0167914D01*
D66*
X0130119Y0160625D03*
X0081369Y0148438D03*
X0119869Y0135250D03*
X0081244Y0125500D03*
X0071619Y0105500D03*
X0107244Y0089875D03*
X0111994Y0090250D03*
X0117869Y0096625D03*
X0114756Y0099816D03*
X0104119Y0084250D03*
X0100119Y0080500D03*
X0101619Y0075500D03*
X0045404Y0080559D03*
X0081244Y0125500D03*
X0119869Y0135250D03*
X0081369Y0148438D03*
X0078119Y0164000D03*
X0130119Y0160625D03*
X0230758Y0161530D03*
X0316619Y0155419D03*
X0388119Y0183000D03*
X0397119Y0153369D03*
X0315994Y0116750D03*
X0336306Y0105187D03*
X0328994Y0103625D03*
X0359619Y0088937D03*
X0356619Y0075500D03*
X0366619Y0075500D03*
X0386619Y0076084D03*
X0408869Y0079000D03*
X0409306Y0070813D03*
X0411174Y0065056D03*
X0431619Y0060500D03*
X0446619Y0060500D03*
X0457495Y0085500D03*
X0409463Y0087500D03*
X0397119Y0115500D03*
X0236556Y0093937D03*
X0219119Y0080000D03*
X0182119Y0113000D03*
X0315369Y0054875D03*
X0346619Y0040500D03*
X0361619Y0035500D03*
X0377869Y0038500D03*
X0371619Y0055500D03*
X0409306Y0070813D03*
X0411174Y0065056D03*
X0431619Y0060500D03*
X0446619Y0060500D03*
X0408869Y0079000D03*
X0409463Y0087500D03*
X0386619Y0076084D03*
X0366619Y0075500D03*
X0356619Y0075500D03*
X0359619Y0088937D03*
X0328994Y0103625D03*
X0336306Y0105187D03*
X0315994Y0116750D03*
X0397119Y0115500D03*
X0457495Y0085500D03*
X0397119Y0153369D03*
X0388119Y0183000D03*
X0316619Y0155419D03*
X0230758Y0161530D03*
X0078119Y0164000D03*
D67*
X0152446Y0111051D02*
X0152446Y0110626D01*
X0152571Y0110500D01*
X0281494Y0117625D02*
X0285944Y0122075D01*
X0293843Y0122075D01*
X0293843Y0123650D02*
X0288691Y0123650D01*
X0286215Y0126125D01*
X0285944Y0122075D02*
X0281494Y0117625D01*
X0285944Y0122075D02*
X0293843Y0122075D01*
X0293843Y0120500D02*
X0288556Y0120500D01*
X0293843Y0118925D02*
X0300044Y0118925D01*
X0300044Y0112724D01*
X0301619Y0112724D02*
X0301619Y0104250D01*
X0309394Y0117350D02*
X0315344Y0117350D01*
X0315994Y0116750D01*
X0320994Y0121750D02*
X0320994Y0122075D01*
X0300044Y0128276D02*
X0300044Y0137675D01*
X0301619Y0139250D01*
X0340879Y0133250D02*
X0343869Y0133250D01*
X0345794Y0131325D01*
X0348359Y0134356D02*
X0351157Y0131557D01*
X0351157Y0124592D01*
X0352085Y0123622D01*
X0354741Y0120966D01*
X0361153Y0120966D01*
X0361619Y0120500D01*
X0363889Y0119560D02*
X0363889Y0123260D01*
X0367379Y0126750D01*
X0363889Y0119560D02*
X0362559Y0118230D01*
X0358416Y0118230D01*
X0355228Y0118230D01*
X0353582Y0119875D01*
X0349115Y0119875D01*
X0362559Y0118230D02*
X0363889Y0119560D01*
X0322262Y0109563D02*
X0322256Y0109569D01*
X0322256Y0109569D01*
X0322262Y0109563D02*
X0322262Y0109562D01*
X0321446Y0111214D02*
X0319883Y0109651D01*
X0305370Y0109651D01*
X0304768Y0110252D01*
X0304768Y0112724D01*
X0303194Y0112724D02*
X0303194Y0109550D01*
X0304744Y0108000D01*
X0307244Y0111750D02*
X0319153Y0111750D01*
X0320403Y0113000D01*
X0317809Y0113625D02*
X0320622Y0116437D01*
X0315994Y0116750D02*
X0315344Y0117350D01*
X0309394Y0117350D01*
X0309394Y0115776D02*
X0310718Y0115776D01*
X0312869Y0113625D01*
X0317809Y0113625D01*
X0307244Y0111750D02*
X0306343Y0112651D01*
X0306343Y0112724D01*
X0309394Y0122075D02*
X0311919Y0122075D01*
X0312244Y0121750D01*
X0320994Y0121750D01*
X0320994Y0122075D01*
X0320994Y0121750D02*
X0320428Y0121809D01*
X0408312Y0138437D02*
X0408312Y0145539D01*
X0409272Y0146500D01*
D68*
X0343119Y0139500D03*
X0317244Y0135500D03*
X0309744Y0131125D03*
X0314119Y0128000D03*
X0317244Y0124816D03*
X0320994Y0121750D03*
X0294119Y0131750D03*
X0296619Y0135500D03*
X0301619Y0139250D03*
X0303494Y0134250D03*
X0290994Y0128625D03*
X0274619Y0125000D03*
X0266092Y0127000D03*
X0262119Y0126000D03*
X0266619Y0131000D03*
X0270119Y0136000D03*
X0268345Y0140552D03*
X0282089Y0138470D03*
X0282869Y0143000D03*
X0285369Y0146750D03*
X0290369Y0146125D03*
X0262767Y0146961D03*
X0221536Y0156214D03*
X0209619Y0152000D03*
X0199119Y0148000D03*
X0196345Y0150774D03*
X0209619Y0152000D03*
X0221536Y0156214D03*
X0214217Y0160598D03*
X0181619Y0148000D03*
X0175908Y0142278D03*
X0175908Y0138500D03*
X0181619Y0133500D03*
X0129119Y0136500D03*
X0112119Y0136500D03*
X0112230Y0139911D03*
X0125119Y0154000D03*
X0136619Y0153000D03*
X0174408Y0153000D03*
X0262767Y0146961D03*
X0268345Y0140552D03*
X0270119Y0136000D03*
X0266619Y0131000D03*
X0266092Y0127000D03*
X0262119Y0126000D03*
X0274619Y0125000D03*
X0273470Y0120914D03*
X0280147Y0121125D03*
X0281494Y0117625D03*
X0284994Y0110937D03*
X0283872Y0105500D03*
X0283830Y0101226D03*
X0279688Y0097419D03*
X0275975Y0095789D03*
X0283761Y0095937D03*
X0294522Y0097687D03*
X0307244Y0098000D03*
X0295369Y0086437D03*
X0304122Y0080497D03*
X0272406Y0069999D03*
X0259619Y0067000D03*
X0255494Y0073750D03*
X0264752Y0074627D03*
X0259119Y0077000D03*
X0252247Y0076817D03*
X0240619Y0079524D03*
X0224119Y0076500D03*
X0219436Y0072222D03*
X0225436Y0066155D03*
X0252119Y0062000D03*
X0269619Y0080500D03*
X0260962Y0083313D03*
X0264228Y0086625D03*
X0231619Y0097108D03*
X0244119Y0099851D03*
X0262119Y0102285D03*
X0264545Y0099851D03*
X0268489Y0099851D03*
X0272267Y0099970D03*
X0244119Y0099851D03*
X0231619Y0097108D03*
X0295369Y0086437D03*
X0304122Y0080497D03*
X0307244Y0098000D03*
X0361619Y0120500D03*
X0214217Y0160598D03*
X0174408Y0153000D03*
X0136619Y0153000D03*
X0125119Y0154000D03*
X0112230Y0139911D03*
X0112119Y0136500D03*
X0129119Y0136500D03*
X0122619Y0121000D03*
X0139119Y0107500D03*
X0155619Y0094000D03*
X0146119Y0083457D03*
X0164119Y0069500D03*
X0166927Y0065808D03*
X0171032Y0057758D03*
X0175954Y0052836D03*
X0183677Y0049058D03*
X0237619Y0021500D03*
X0099505Y0052614D03*
X0099505Y0057614D03*
X0057119Y0034500D03*
X0062119Y0024000D03*
X0146119Y0083457D03*
X0122619Y0121000D03*
X0069874Y0125500D03*
X0054619Y0131500D03*
X0061619Y0140000D03*
X0069865Y0148438D03*
D70*
X0197367Y0140626D02*
X0197859Y0141118D01*
X0199743Y0141118D01*
X0200320Y0141695D01*
X0200320Y0145463D01*
X0199119Y0146664D01*
X0199119Y0148000D01*
X0210965Y0147500D02*
X0214223Y0143243D01*
X0214223Y0138873D01*
X0215199Y0137898D01*
X0217325Y0137898D01*
X0218223Y0137000D01*
X0219160Y0134736D02*
X0220924Y0136500D01*
X0236896Y0136500D01*
X0239029Y0134367D01*
X0239029Y0132275D01*
X0239213Y0132091D01*
X0237167Y0132169D02*
X0237167Y0133834D01*
X0236232Y0134769D01*
X0225796Y0134769D01*
X0224272Y0133245D01*
X0221874Y0133245D01*
X0219160Y0134736D02*
X0214729Y0134736D01*
X0210965Y0139500D01*
X0284181Y0116125D02*
X0284181Y0113326D01*
X0282730Y0111875D01*
X0282730Y0108638D01*
X0282784Y0108584D01*
X0284994Y0110937D02*
X0286781Y0112724D01*
X0296894Y0112724D01*
X0293843Y0117350D02*
X0289915Y0117350D01*
X0289846Y0117281D01*
X0288556Y0120500D02*
X0284181Y0116125D01*
X0317244Y0129375D02*
X0320994Y0125625D01*
X0320994Y0121750D01*
X0320622Y0116437D02*
X0326903Y0116437D01*
X0326903Y0116438D02*
X0326931Y0116440D01*
X0326959Y0116445D01*
X0326986Y0116454D01*
X0327011Y0116467D01*
X0327034Y0116483D01*
X0327056Y0116501D01*
X0327074Y0116523D01*
X0327090Y0116546D01*
X0327103Y0116571D01*
X0327112Y0116598D01*
X0327117Y0116626D01*
X0327119Y0116654D01*
X0331465Y0113000D02*
X0335119Y0116654D01*
X0331465Y0113000D02*
X0320403Y0113000D01*
X0321446Y0111214D02*
X0337679Y0111214D01*
X0343119Y0116654D01*
X0345294Y0119875D02*
X0346575Y0119875D01*
X0343119Y0123346D02*
X0343028Y0123346D01*
X0335524Y0130850D01*
X0317244Y0129375D02*
X0317244Y0135500D01*
X0352119Y0145000D02*
X0354119Y0143000D01*
X0363619Y0143000D01*
X0363619Y0149500D01*
X0365119Y0151000D01*
X0370619Y0151000D01*
X0370119Y0150500D01*
X0370619Y0150000D01*
X0370619Y0144594D01*
X0370762Y0144451D01*
X0370762Y0141481D01*
X0370861Y0141382D01*
X0370861Y0140000D01*
X0371845Y0140000D01*
X0371845Y0141382D01*
X0372422Y0141959D01*
X0374221Y0141959D01*
X0374619Y0141561D01*
X0374619Y0150500D01*
X0373119Y0152000D01*
X0352619Y0152000D01*
X0352119Y0151500D01*
X0352119Y0145000D01*
X0352442Y0144677D02*
X0363619Y0144677D01*
X0363619Y0143891D02*
X0353228Y0143891D01*
X0354014Y0143105D02*
X0363619Y0143105D01*
X0365119Y0143105D02*
X0369241Y0143105D01*
X0369241Y0143878D02*
X0369241Y0139878D01*
X0368892Y0139878D01*
X0368892Y0141382D01*
X0368316Y0141959D01*
X0368160Y0141959D01*
X0368119Y0142000D01*
X0366119Y0142000D01*
X0365119Y0143000D01*
X0365119Y0149051D01*
X0365414Y0149346D01*
X0369119Y0149346D01*
X0369119Y0144000D01*
X0369241Y0143878D01*
X0369228Y0143891D02*
X0365119Y0143891D01*
X0365119Y0144677D02*
X0369119Y0144677D01*
X0369119Y0145463D02*
X0365119Y0145463D01*
X0365119Y0146249D02*
X0369119Y0146249D01*
X0369119Y0147035D02*
X0365119Y0147035D01*
X0365119Y0147821D02*
X0369119Y0147821D01*
X0369119Y0148607D02*
X0365119Y0148607D01*
X0363619Y0148607D02*
X0352119Y0148607D01*
X0352119Y0149392D02*
X0363619Y0149392D01*
X0364297Y0150178D02*
X0352119Y0150178D01*
X0352119Y0150964D02*
X0365083Y0150964D01*
X0370440Y0150178D02*
X0374619Y0150178D01*
X0374619Y0149392D02*
X0370619Y0149392D01*
X0370619Y0148607D02*
X0374619Y0148607D01*
X0374619Y0147821D02*
X0370619Y0147821D01*
X0370619Y0147035D02*
X0374619Y0147035D01*
X0374619Y0146249D02*
X0370619Y0146249D01*
X0370619Y0145463D02*
X0374619Y0145463D01*
X0374619Y0144677D02*
X0370619Y0144677D01*
X0371353Y0144380D02*
X0372973Y0146000D01*
X0372973Y0150724D01*
X0355645Y0150724D01*
X0354175Y0150195D01*
X0352369Y0151750D02*
X0373369Y0151750D01*
X0374154Y0150964D02*
X0370583Y0150964D01*
X0363619Y0147821D02*
X0352119Y0147821D01*
X0352119Y0147035D02*
X0363619Y0147035D01*
X0363619Y0146249D02*
X0352119Y0146249D01*
X0352119Y0145463D02*
X0363619Y0145463D01*
X0367264Y0146000D02*
X0369384Y0143880D01*
X0369384Y0139990D01*
X0369241Y0139962D02*
X0368892Y0139962D01*
X0368892Y0140747D02*
X0369241Y0140747D01*
X0369241Y0141533D02*
X0368741Y0141533D01*
X0369241Y0142319D02*
X0365799Y0142319D01*
X0364619Y0141500D02*
X0364619Y0139000D01*
X0365119Y0138500D01*
X0366038Y0138500D01*
X0366516Y0138022D01*
X0368316Y0138022D01*
X0368400Y0138106D01*
X0368485Y0138022D01*
X0370284Y0138022D01*
X0370369Y0138106D01*
X0370453Y0138022D01*
X0372253Y0138022D01*
X0372731Y0138500D01*
X0374119Y0138500D01*
X0374119Y0130687D01*
X0372871Y0130687D01*
X0372731Y0130827D01*
X0372731Y0131019D01*
X0372829Y0131118D01*
X0372829Y0133902D01*
X0372253Y0134478D01*
X0370453Y0134478D01*
X0370369Y0134394D01*
X0370284Y0134478D01*
X0368485Y0134478D01*
X0367908Y0133902D01*
X0367908Y0131118D01*
X0368485Y0130541D01*
X0369975Y0130541D01*
X0369975Y0129685D01*
X0370619Y0129041D01*
X0370619Y0122500D01*
X0368119Y0120000D01*
X0363883Y0120000D01*
X0363883Y0121438D01*
X0362556Y0122764D01*
X0360681Y0122764D01*
X0360268Y0122350D01*
X0359872Y0122350D01*
X0361146Y0123625D01*
X0361146Y0127375D01*
X0358494Y0130028D01*
X0357159Y0130028D01*
X0357159Y0141500D01*
X0364619Y0141500D01*
X0364619Y0140747D02*
X0357159Y0140747D01*
X0357159Y0139962D02*
X0364619Y0139962D01*
X0364619Y0139176D02*
X0357159Y0139176D01*
X0357159Y0138390D02*
X0366148Y0138390D01*
X0367416Y0136250D02*
X0370369Y0136250D01*
X0362879Y0136250D01*
X0360619Y0138510D01*
X0357159Y0137604D02*
X0374119Y0137604D01*
X0374119Y0138390D02*
X0372621Y0138390D01*
X0373321Y0139990D02*
X0373321Y0136250D01*
X0370369Y0136250D01*
X0370302Y0134460D02*
X0370435Y0134460D01*
X0372271Y0134460D02*
X0374119Y0134460D01*
X0374119Y0133674D02*
X0372829Y0133674D01*
X0372829Y0132888D02*
X0374119Y0132888D01*
X0374119Y0132102D02*
X0372829Y0132102D01*
X0373321Y0132510D02*
X0373321Y0136250D01*
X0374119Y0136032D02*
X0357159Y0136032D01*
X0357159Y0136818D02*
X0374119Y0136818D01*
X0374119Y0135246D02*
X0357159Y0135246D01*
X0357159Y0134460D02*
X0368466Y0134460D01*
X0367908Y0133674D02*
X0357159Y0133674D01*
X0357159Y0132888D02*
X0367908Y0132888D01*
X0367416Y0132510D02*
X0367416Y0136250D01*
X0367416Y0132510D02*
X0367379Y0132472D01*
X0367379Y0126750D01*
X0367379Y0125899D02*
X0363421Y0125899D01*
X0361146Y0125815D02*
X0370619Y0125815D01*
X0370619Y0125029D02*
X0361146Y0125029D01*
X0361146Y0124243D02*
X0370619Y0124243D01*
X0370619Y0123457D02*
X0360979Y0123457D01*
X0360589Y0122671D02*
X0360193Y0122671D01*
X0362649Y0122671D02*
X0370619Y0122671D01*
X0370004Y0121886D02*
X0363435Y0121886D01*
X0363883Y0121100D02*
X0369218Y0121100D01*
X0368432Y0120314D02*
X0363883Y0120314D01*
X0361146Y0126601D02*
X0370619Y0126601D01*
X0370619Y0127387D02*
X0361135Y0127387D01*
X0360349Y0128173D02*
X0370619Y0128173D01*
X0370619Y0128959D02*
X0359563Y0128959D01*
X0358777Y0129745D02*
X0369975Y0129745D01*
X0369975Y0130531D02*
X0357159Y0130531D01*
X0357159Y0131316D02*
X0367908Y0131316D01*
X0367908Y0132102D02*
X0357159Y0132102D01*
X0369384Y0132510D02*
X0371353Y0132510D01*
X0371353Y0130256D01*
X0374859Y0126750D01*
X0374119Y0131316D02*
X0372829Y0131316D01*
X0371353Y0139990D02*
X0371353Y0144380D01*
X0370762Y0143891D02*
X0374619Y0143891D01*
X0374619Y0143105D02*
X0370762Y0143105D01*
X0370762Y0142319D02*
X0374619Y0142319D01*
X0371996Y0141533D02*
X0370762Y0141533D01*
X0370861Y0140747D02*
X0371845Y0140747D01*
D71*
X0385369Y0141154D02*
X0393619Y0141154D01*
X0402119Y0141154D01*
X0335881Y0099762D02*
X0335881Y0097500D01*
X0361658Y0096484D02*
X0361658Y0091684D01*
X0363003Y0090339D01*
X0363003Y0087536D01*
X0361021Y0085553D01*
X0360994Y0085553D01*
X0360994Y0075500D01*
X0366619Y0075500D01*
X0360994Y0075500D02*
X0360994Y0066125D01*
X0361619Y0065500D01*
X0361619Y0061159D01*
X0355999Y0055539D01*
X0350634Y0055539D01*
X0361658Y0051713D02*
X0361658Y0044516D01*
X0369138Y0044516D02*
X0376619Y0044516D01*
X0384099Y0044516D02*
X0391579Y0044516D01*
X0391212Y0044148D01*
X0391212Y0055133D01*
X0391619Y0055539D01*
X0402603Y0055539D01*
X0391619Y0055539D02*
X0375694Y0055539D01*
X0375655Y0055500D01*
X0371619Y0055500D01*
X0365445Y0055500D01*
X0361658Y0051713D01*
X0346619Y0040500D02*
X0332619Y0054500D01*
X0327642Y0054500D01*
X0377869Y0038500D02*
X0391212Y0038500D01*
X0391212Y0044148D01*
X0391212Y0038500D02*
X0396619Y0038500D01*
X0396619Y0035500D01*
X0401619Y0030500D01*
X0419279Y0030500D01*
X0419279Y0029503D01*
X0420713Y0030500D01*
X0420713Y0030499D02*
X0420644Y0030510D01*
X0420576Y0030516D01*
X0420506Y0030519D01*
X0420437Y0030518D01*
X0420368Y0030513D01*
X0420299Y0030504D01*
X0420231Y0030491D01*
X0420164Y0030474D01*
X0420098Y0030454D01*
X0420033Y0030430D01*
X0419969Y0030402D01*
X0419907Y0030371D01*
X0419847Y0030336D01*
X0419789Y0030298D01*
X0419734Y0030257D01*
X0419680Y0030213D01*
X0419629Y0030166D01*
X0419581Y0030116D01*
X0419536Y0030064D01*
X0419494Y0030009D01*
X0419455Y0029951D01*
X0419419Y0029892D01*
X0419387Y0029831D01*
X0419358Y0029768D01*
X0419332Y0029703D01*
X0419311Y0029638D01*
X0419293Y0029571D01*
X0419279Y0029503D01*
X0419279Y0030500D02*
X0431619Y0030500D01*
X0438806Y0037626D01*
X0457495Y0037626D01*
X0446619Y0025187D02*
X0446619Y0017779D01*
X0447022Y0017375D01*
X0453715Y0017375D02*
X0460056Y0017375D01*
X0369138Y0035785D02*
X0368228Y0034875D01*
X0446619Y0060500D02*
X0446619Y0061000D01*
X0478334Y0061000D01*
X0457495Y0084622D02*
X0419279Y0084622D01*
X0402603Y0085461D02*
X0402426Y0085638D01*
X0391619Y0085638D01*
X0391619Y0095500D01*
X0391622Y0095503D01*
X0391622Y0096442D01*
X0391579Y0096484D01*
X0391619Y0085638D02*
X0391619Y0081084D01*
X0386619Y0076084D01*
X0360994Y0085553D02*
X0350727Y0085553D01*
X0350634Y0085461D01*
X0350634Y0077980D02*
X0354138Y0077980D01*
X0356619Y0075500D01*
X0457495Y0084622D02*
X0457495Y0085500D01*
X0262767Y0146961D02*
X0256103Y0153625D01*
X0237837Y0153625D01*
X0233221Y0158241D01*
X0223878Y0158241D01*
X0216644Y0165475D01*
X0216644Y0167630D01*
X0216619Y0167656D01*
X0216619Y0171603D01*
X0124119Y0175500D02*
X0124119Y0165971D01*
X0121883Y0163736D01*
X0119369Y0161221D01*
X0118647Y0160500D01*
X0109619Y0160500D01*
X0107717Y0155091D02*
X0118807Y0155091D01*
X0119369Y0154529D01*
X0107717Y0155091D02*
X0105028Y0152401D01*
X0105028Y0148409D01*
X0102119Y0145500D01*
X0104619Y0143000D01*
X0113119Y0143000D01*
X0115119Y0141000D01*
X0115119Y0138000D01*
X0117869Y0135250D01*
X0119869Y0135250D01*
X0102119Y0145500D02*
X0099619Y0143000D01*
X0086806Y0143000D01*
X0081369Y0148438D01*
X0069865Y0148438D01*
X0062903Y0148438D01*
X0059619Y0145154D01*
X0059225Y0144760D01*
X0050619Y0144760D01*
X0050619Y0143988D02*
X0045749Y0139118D01*
X0035119Y0139118D01*
X0048847Y0154012D02*
X0050619Y0152240D01*
X0059225Y0152240D01*
X0059619Y0151846D01*
X0059805Y0152033D01*
X0059805Y0152012D01*
X0080982Y0152012D01*
X0080982Y0162077D01*
X0081503Y0162598D01*
X0081503Y0165402D01*
X0081369Y0165536D01*
X0081369Y0169875D01*
X0067869Y0169875D01*
X0067869Y0181125D01*
X0067265Y0181728D01*
X0051690Y0181728D01*
X0051631Y0181669D01*
X0051631Y0165331D01*
X0048847Y0154012D02*
X0021619Y0154012D01*
X0021619Y0101425D01*
X0029062Y0101425D01*
X0029062Y0089560D01*
X0029401Y0089220D01*
X0025369Y0085720D01*
X0025369Y0049457D01*
X0025518Y0049457D02*
X0028162Y0049457D01*
X0040119Y0037500D01*
X0040119Y0033490D01*
X0040107Y0033478D01*
X0040107Y0017831D01*
X0040107Y0033478D02*
X0040107Y0034169D01*
X0183677Y0049058D02*
X0183677Y0049151D01*
X0190130Y0055604D01*
X0202100Y0067575D02*
X0206025Y0071500D01*
X0212395Y0071500D01*
X0223229Y0060666D01*
X0229453Y0060666D01*
X0244119Y0046000D01*
X0244119Y0032715D01*
X0239034Y0027630D01*
X0239034Y0022916D01*
X0237619Y0021500D01*
X0249825Y0033566D02*
X0253912Y0033566D01*
X0255096Y0034750D01*
X0259119Y0034750D01*
X0249825Y0033566D02*
X0246935Y0036456D01*
X0246935Y0046684D01*
X0230553Y0063066D01*
X0224223Y0063066D01*
X0212895Y0074395D01*
X0203873Y0074395D01*
X0202621Y0073143D01*
X0196533Y0073143D01*
X0220181Y0093937D02*
X0208619Y0105500D01*
X0208619Y0107868D01*
X0202308Y0114179D01*
X0197213Y0114179D01*
X0197049Y0114350D02*
X0193040Y0114350D01*
X0192014Y0113324D01*
X0182443Y0113324D01*
X0182119Y0113000D01*
X0220181Y0093937D02*
X0236556Y0093937D01*
X0096407Y0150500D02*
X0091607Y0145700D01*
X0087630Y0145700D01*
X0084819Y0148512D01*
X0084819Y0174300D01*
X0084119Y0175500D01*
X0067869Y0181125D02*
X0119744Y0181125D01*
X0124119Y0176750D01*
X0124119Y0175500D01*
X0099619Y0150500D02*
X0096407Y0150500D01*
X0038904Y0089220D02*
X0029401Y0089220D01*
D72*
X0186619Y0105500D03*
X0202619Y0106000D03*
X0311619Y0144250D03*
X0356619Y0125500D03*
X0368369Y0104750D03*
X0315994Y0098937D03*
X0463181Y0127997D03*
X0251869Y0038500D03*
X0259119Y0034750D03*
X0446619Y0025187D03*
X0135994Y0169875D03*
X0147869Y0178000D03*
D73*
X0150215Y0177528D01*
X0415369Y0177528D01*
X0415369Y0165766D01*
X0415634Y0165500D01*
X0442595Y0138540D01*
X0426418Y0138540D01*
X0427119Y0137240D01*
X0442595Y0138540D02*
X0444484Y0136651D01*
X0444484Y0112865D01*
X0447162Y0110687D01*
X0476114Y0110687D01*
X0476114Y0102813D02*
X0446306Y0102813D01*
X0440119Y0109000D01*
X0463181Y0127997D02*
X0463556Y0128372D01*
X0476931Y0128372D01*
X0367379Y0126750D02*
X0367379Y0125899D01*
X0367379Y0124711D01*
X0356619Y0125500D02*
X0354175Y0128056D01*
X0354175Y0148923D01*
X0347739Y0148923D01*
X0346806Y0147990D01*
X0346806Y0154990D01*
X0339744Y0162052D01*
X0339744Y0171603D01*
X0216619Y0171603D01*
X0137222Y0171603D01*
X0135994Y0169875D01*
X0311619Y0144250D02*
X0314119Y0146750D01*
X0321107Y0146750D01*
X0354175Y0148923D02*
X0354175Y0150195D01*
X0415369Y0177528D02*
X0453016Y0177528D01*
X0452915Y0173253D01*
X0324857Y0098937D02*
X0315994Y0098937D01*
X0324857Y0098937D02*
X0324857Y0097500D01*
X0259119Y0047500D02*
X0232815Y0073804D01*
X0232815Y0080507D01*
X0224232Y0089091D01*
X0219528Y0089091D01*
X0202619Y0106000D01*
X0195893Y0098091D02*
X0188483Y0105500D01*
X0186619Y0105500D01*
X0195893Y0098091D02*
X0201399Y0098091D01*
X0214989Y0084500D01*
X0222330Y0084500D01*
X0228225Y0078606D01*
X0228225Y0071606D01*
X0251869Y0047962D01*
X0251869Y0038500D01*
X0259119Y0034750D02*
X0259119Y0047500D01*
X0457495Y0037626D02*
X0478085Y0037626D01*
X0478115Y0037624D01*
X0478145Y0037619D01*
X0478173Y0037610D01*
X0478201Y0037597D01*
X0478226Y0037582D01*
X0478250Y0037563D01*
X0478271Y0037542D01*
X0478290Y0037518D01*
X0478305Y0037493D01*
X0478318Y0037465D01*
X0478327Y0037437D01*
X0478332Y0037407D01*
X0478334Y0037377D01*
X0494869Y0020500D02*
X0494867Y0020388D01*
X0494861Y0020277D01*
X0494851Y0020166D01*
X0494837Y0020055D01*
X0494819Y0019945D01*
X0494798Y0019836D01*
X0494772Y0019727D01*
X0494742Y0019620D01*
X0494709Y0019513D01*
X0494672Y0019408D01*
X0494631Y0019304D01*
X0494587Y0019202D01*
X0494538Y0019101D01*
X0494487Y0019002D01*
X0494432Y0018905D01*
X0494373Y0018810D01*
X0494311Y0018718D01*
X0494246Y0018627D01*
X0494177Y0018539D01*
X0494106Y0018454D01*
X0494031Y0018371D01*
X0493954Y0018290D01*
X0493873Y0018213D01*
X0493790Y0018138D01*
X0493705Y0018067D01*
X0493617Y0017998D01*
X0493526Y0017933D01*
X0493434Y0017871D01*
X0493339Y0017812D01*
X0493242Y0017757D01*
X0493143Y0017706D01*
X0493042Y0017657D01*
X0492940Y0017613D01*
X0492836Y0017572D01*
X0492731Y0017535D01*
X0492624Y0017502D01*
X0492517Y0017472D01*
X0492408Y0017446D01*
X0492299Y0017425D01*
X0492189Y0017407D01*
X0492078Y0017393D01*
X0491967Y0017383D01*
X0491856Y0017377D01*
X0491744Y0017375D01*
X0460056Y0017375D01*
D74*
X0460056Y0017375D03*
X0457495Y0037626D03*
D75*
X0478334Y0037377D02*
X0491746Y0037377D01*
X0491857Y0037379D01*
X0491969Y0037385D01*
X0492080Y0037395D01*
X0492190Y0037409D01*
X0492300Y0037427D01*
X0492410Y0037448D01*
X0492518Y0037474D01*
X0492626Y0037504D01*
X0492732Y0037537D01*
X0492837Y0037574D01*
X0492941Y0037615D01*
X0493043Y0037659D01*
X0493144Y0037707D01*
X0493243Y0037759D01*
X0493340Y0037814D01*
X0493434Y0037873D01*
X0493527Y0037935D01*
X0493618Y0038000D01*
X0493706Y0038068D01*
X0493791Y0038140D01*
X0493874Y0038214D01*
X0493954Y0038292D01*
X0494032Y0038372D01*
X0494106Y0038455D01*
X0494178Y0038540D01*
X0494246Y0038628D01*
X0494311Y0038719D01*
X0494373Y0038812D01*
X0494432Y0038906D01*
X0494487Y0039003D01*
X0494539Y0039102D01*
X0494587Y0039203D01*
X0494631Y0039305D01*
X0494672Y0039409D01*
X0494709Y0039514D01*
X0494742Y0039620D01*
X0494772Y0039728D01*
X0494798Y0039836D01*
X0494819Y0039946D01*
X0494837Y0040056D01*
X0494851Y0040166D01*
X0494861Y0040277D01*
X0494867Y0040389D01*
X0494869Y0040500D01*
X0494869Y0030500D02*
X0494867Y0030440D01*
X0494862Y0030380D01*
X0494853Y0030320D01*
X0494840Y0030261D01*
X0494824Y0030203D01*
X0494804Y0030146D01*
X0494781Y0030091D01*
X0494755Y0030037D01*
X0494725Y0029984D01*
X0494693Y0029934D01*
X0494657Y0029885D01*
X0494618Y0029839D01*
X0494577Y0029795D01*
X0494533Y0029754D01*
X0494487Y0029715D01*
X0494438Y0029679D01*
X0494388Y0029647D01*
X0494335Y0029617D01*
X0494281Y0029591D01*
X0494226Y0029568D01*
X0494169Y0029548D01*
X0494111Y0029532D01*
X0494052Y0029519D01*
X0493992Y0029510D01*
X0493932Y0029505D01*
X0493872Y0029503D01*
X0478334Y0029503D01*
X0476931Y0173253D02*
X0452915Y0173253D01*
D76*
X0392619Y0131240D02*
X0389375Y0132346D01*
X0388619Y0133102D01*
X0389375Y0132346D02*
X0384619Y0131240D01*
X0392619Y0131240D02*
X0400619Y0131240D01*
X0400619Y0123760D02*
X0397343Y0122154D01*
X0392619Y0123760D01*
X0384619Y0123760D01*
X0397119Y0118488D02*
X0400619Y0123760D01*
X0397119Y0118488D02*
X0397119Y0115500D01*
X0368369Y0104759D02*
X0363473Y0104759D01*
X0362035Y0103321D01*
X0356892Y0103321D01*
X0354495Y0103321D01*
X0351569Y0100394D01*
X0346542Y0100394D01*
X0345494Y0101443D01*
X0345494Y0106076D01*
X0349056Y0109639D01*
X0349056Y0111240D01*
X0340788Y0107500D02*
X0340788Y0102407D01*
X0335881Y0097500D01*
X0426859Y0130760D02*
X0429119Y0128500D01*
X0338538Y0144250D02*
X0336038Y0146750D01*
X0332131Y0146750D01*
X0369138Y0044516D02*
X0369138Y0035785D01*
X0368228Y0034875D02*
X0362244Y0034875D01*
X0361619Y0035500D01*
X0368228Y0034875D02*
X0379119Y0034875D01*
X0379119Y0030500D01*
X0371619Y0023000D01*
X0371619Y0020500D01*
X0390369Y0034875D02*
X0403494Y0021750D01*
X0443117Y0021750D01*
X0446619Y0025187D01*
X0390369Y0034875D02*
X0379119Y0034875D01*
D77*
X0182056Y0144563D02*
X0181619Y0144563D01*
D78*
X0136654Y0134012D03*
X0112119Y0133000D03*
X0370369Y0136250D03*
X0419619Y0142500D03*
X0425619Y0141000D03*
D79*
X0378119Y0137000D03*
D80*
X0379349Y0131240D02*
X0374859Y0126750D01*
X0379349Y0131240D02*
X0384619Y0131240D01*
D81*
X0495681Y0178312D03*
X0026306Y0178312D03*
X0026619Y0020500D03*
D82*
X0440119Y0109000D03*
D83*
X0348119Y0160480D03*
X0289846Y0117281D03*
M02*
