%
M48
M72
T01C0.01378
T02C0.01575
T03C0.01969
T04C0.02362
T05C0.02953
T06C0.03543
T07C0.03937
T08C0.04000
T09C0.04724
T10C0.08000
T11C0.12500
%
T01
X62119Y24000
X57119Y34500
X99505Y52614
X99505Y57614
X164119Y69500
X166927Y65808
X171032Y57758
X175954Y52836
X183677Y49058
X225436Y66155
X219436Y72222
X224119Y76500
X240619Y79524
X252247Y76817
X259119Y77000
X264752Y74627
X255494Y73750
X259619Y67000
X272406Y69999
X252119Y62000
X269619Y80500
X260962Y83313
X264228Y86625
X275975Y95789
X279688Y97419
X283761Y95937
X294522Y97687
X283830Y101226
X283872Y105500
X284994Y110937
X281494Y117625
X289846Y117281
X280147Y121125
X273470Y120914
X274619Y125000
X266092Y127000
X262119Y126000
X266619Y131000
X270119Y136000
X268345Y140552
X282089Y138470
X282869Y143000
X285369Y146750
X290369Y146125
X301619Y139250
X303494Y134250
X309744Y131125
X314119Y128000
X317244Y124816
X320994Y121750
X294119Y131750
X296619Y135500
X290994Y128625
X317244Y135500
X343119Y139500
X361619Y120500
X307244Y98000
X295369Y86437
X304122Y80497
X272267Y99970
X268489Y99851
X264545Y99851
X262119Y102285
X262119Y107444
X262119Y111222
X262119Y115000
X228619Y112000
X227119Y115000
X220619Y112500
X213119Y110500
X197576Y110293
X190908Y115994
X176202Y103412
X186619Y94000
X199442Y83313
X231619Y97108
X244119Y99851
X228119Y121500
X228119Y125000
X221874Y133245
X218223Y137000
X199119Y148000
X196345Y150774
X209619Y152000
X221536Y156214
X214217Y160598
X181619Y148000
X175908Y142278
X175908Y138500
X181619Y133500
X129119Y136500
X112119Y136500
X112230Y139911
X125119Y154000
X136619Y153000
X174408Y153000
X262767Y146961
X348119Y160480
X155619Y94000
X146119Y83457
X139119Y107500
X122619Y121000
X69874Y125500
X54619Y131500
X61619Y140000
X69865Y148438
X237619Y21500
T02
X112119Y133000
X136654Y134012
X370369Y136250
X414119Y136862
X414119Y132138
X425619Y141000
X419619Y142500
T03
X397119Y153369
X388119Y183000
X316619Y155419
X230758Y161530
X130119Y160625
X81369Y148438
X119869Y135250
X81244Y125500
X71619Y105500
X107244Y89875
X111994Y90250
X117869Y96625
X114756Y99816
X104119Y84250
X100119Y80500
X101619Y75500
X45404Y80559
X182119Y113000
X236556Y93937
X219119Y80000
X315369Y54875
X346619Y40500
X361619Y35500
X377869Y38500
X371619Y55500
X409306Y70813
X411174Y65056
X431619Y60500
X446619Y60500
X408869Y79000
X409463Y87500
X386619Y76084
X366619Y75500
X356619Y75500
X359619Y88937
X328994Y103625
X336306Y105187
X315994Y116750
X397119Y115500
X457495Y85500
X78119Y164000
T04
X440119Y109000
T05
X378119Y137000
T06
X109619Y150500
X99619Y150500
X89619Y150500
X89619Y160500
X99619Y160500
X109619Y160500
X33249Y143843
X33249Y124157
X457495Y37626
X460056Y17375
T07
X446619Y25187
X259119Y34750
X251869Y38500
X193331Y64373
X165492Y92212
X186619Y105500
X202619Y106000
X311619Y144250
X356619Y125500
X368369Y104750
X315994Y98937
X463181Y127997
X147869Y178000
X135994Y169875
T08
X124119Y175500
X114119Y175500
X104119Y175500
X94119Y175500
X84119Y175500
X74119Y175500
X361619Y20500
X371619Y20500
X381619Y20500
X391619Y20500
T09
X340634Y24000
X326855Y24000
X313075Y24000
X299296Y24000
X285516Y24000
X271737Y24000
X257957Y24000
X244178Y24000
X230398Y24000
X216619Y24000
X195634Y24000
X181855Y24000
X168075Y24000
X154296Y24000
X140516Y24000
X126737Y24000
X112957Y24000
X99178Y24000
X85398Y24000
X71619Y24000
X22619Y120220
X22619Y147780
X142603Y165500
X156383Y165500
X170162Y165500
X183942Y165500
X197721Y165500
X211501Y165500
X225280Y165500
X239060Y165500
X252839Y165500
X266619Y165500
X291619Y165500
X305398Y165500
X319178Y165500
X332957Y165500
X346737Y165500
X360516Y165500
X374296Y165500
X388075Y165500
X401855Y165500
X415634Y165500
T10
X458931Y150813
X476931Y150813
T11
X26306Y20500
X26306Y178312
X495681Y178312
M30
