G75*
%MOIN*%
%OFA0B0*%
%FSLAX25Y25*%
%IPPOS*%
%LPD*%
%AMOC8*
5,1,8,0,0,1.08239X$1,22.5*
%
%ADD10C,0.40000*%
%ADD11R,0.10000X0.20000*%
%ADD12C,0.06400*%
%ADD13C,0.07400*%
%ADD14R,0.06299X0.06299*%
%ADD15C,0.06299*%
%ADD16R,0.16000X0.06000*%
%ADD17C,0.05118*%
%ADD18C,0.03150*%
%ADD19OC8,0.03543*%
%ADD20OC8,0.02559*%
%ADD21C,0.01200*%
%ADD22C,0.01000*%
%ADD23C,0.05000*%
%ADD24C,0.01600*%
%ADD25C,0.02400*%
%ADD26OC8,0.07087*%
%ADD27C,0.04000*%
%ADD28C,0.03200*%
%ADD29OC8,0.06378*%
%ADD30OC8,0.02835*%
%ADD31OC8,0.05315*%
%ADD32OC8,0.22500*%
%ADD33C,0.00787*%
%ADD34OC8,0.04252*%
%ADD35C,0.02559*%
D10*
X0322869Y0058625D03*
D11*
X0292869Y0058625D03*
X0352869Y0058625D03*
D12*
X0109619Y0150500D03*
X0099619Y0150500D03*
X0089619Y0150500D03*
X0089619Y0160500D03*
X0099619Y0160500D03*
X0109619Y0160500D03*
D13*
X0114119Y0175500D03*
X0124119Y0175500D03*
X0104119Y0175500D03*
X0094119Y0175500D03*
X0084119Y0175500D03*
X0074119Y0175500D03*
X0361619Y0020500D03*
X0371619Y0020500D03*
X0381619Y0020500D03*
X0391619Y0020500D03*
D14*
X0216619Y0024000D03*
X0071619Y0024000D03*
X0266619Y0165500D03*
X0291619Y0165500D03*
D15*
X0305398Y0165500D03*
X0319178Y0165500D03*
X0332957Y0165500D03*
X0346737Y0165500D03*
X0360516Y0165500D03*
X0374296Y0165500D03*
X0388075Y0165500D03*
X0401855Y0165500D03*
X0415634Y0165500D03*
X0252839Y0165500D03*
X0239060Y0165500D03*
X0225280Y0165500D03*
X0211501Y0165500D03*
X0197721Y0165500D03*
X0183942Y0165500D03*
X0170162Y0165500D03*
X0156383Y0165500D03*
X0142603Y0165500D03*
X0022619Y0147780D03*
X0022619Y0120220D03*
X0085398Y0024000D03*
X0099178Y0024000D03*
X0112957Y0024000D03*
X0126737Y0024000D03*
X0140516Y0024000D03*
X0154296Y0024000D03*
X0168075Y0024000D03*
X0181855Y0024000D03*
X0195634Y0024000D03*
X0230398Y0024000D03*
X0244178Y0024000D03*
X0257957Y0024000D03*
X0271737Y0024000D03*
X0285516Y0024000D03*
X0299296Y0024000D03*
X0313075Y0024000D03*
X0326855Y0024000D03*
X0340634Y0024000D03*
D16*
X0494869Y0020500D03*
X0494869Y0040500D03*
D17*
X0033249Y0124157D03*
X0033249Y0143843D03*
D18*
X0414119Y0136862D03*
X0414119Y0132138D03*
D19*
X0397119Y0115500D03*
X0336306Y0105187D03*
X0328994Y0103625D03*
X0315994Y0116750D03*
X0359619Y0088937D03*
X0356619Y0075500D03*
X0366619Y0075500D03*
X0386619Y0076084D03*
X0408869Y0079000D03*
X0409306Y0070813D03*
X0411174Y0065056D03*
X0431619Y0060500D03*
X0446619Y0060500D03*
X0457495Y0085500D03*
X0409463Y0087500D03*
X0371619Y0055500D03*
X0346619Y0040500D03*
X0361619Y0035500D03*
X0377869Y0038500D03*
X0315369Y0054875D03*
X0219119Y0080000D03*
X0236556Y0093937D03*
X0182119Y0113000D03*
X0119869Y0135250D03*
X0081244Y0125500D03*
X0071619Y0105500D03*
X0107244Y0089875D03*
X0111994Y0090250D03*
X0117869Y0096625D03*
X0114756Y0099816D03*
X0104119Y0084250D03*
X0100119Y0080500D03*
X0101619Y0075500D03*
X0045404Y0080559D03*
X0081369Y0148438D03*
X0078119Y0164000D03*
X0130119Y0160625D03*
X0230758Y0161530D03*
X0316619Y0155419D03*
X0388119Y0183000D03*
X0397119Y0153369D03*
D20*
X0343119Y0139500D03*
X0317244Y0135500D03*
X0309744Y0131125D03*
X0314119Y0128000D03*
X0317244Y0124816D03*
X0320994Y0121750D03*
X0294119Y0131750D03*
X0296619Y0135500D03*
X0301619Y0139250D03*
X0303494Y0134250D03*
X0290994Y0128625D03*
X0274619Y0125000D03*
X0266092Y0127000D03*
X0262119Y0126000D03*
X0266619Y0131000D03*
X0270119Y0136000D03*
X0268345Y0140552D03*
X0282089Y0138470D03*
X0282869Y0143000D03*
X0285369Y0146750D03*
X0290369Y0146125D03*
X0262767Y0146961D03*
X0221536Y0156214D03*
X0209619Y0152000D03*
X0199119Y0148000D03*
X0196345Y0150774D03*
X0181619Y0148000D03*
X0175908Y0142278D03*
X0175908Y0138500D03*
X0181619Y0133500D03*
X0218223Y0137000D03*
X0221874Y0133245D03*
X0228119Y0125000D03*
X0228119Y0121500D03*
X0227119Y0115000D03*
X0228619Y0112000D03*
X0220619Y0112500D03*
X0213119Y0110500D03*
X0197576Y0110293D03*
X0190908Y0115994D03*
X0176202Y0103412D03*
X0186619Y0094000D03*
X0199442Y0083313D03*
X0224119Y0076500D03*
X0219436Y0072222D03*
X0225436Y0066155D03*
X0252119Y0062000D03*
X0259619Y0067000D03*
X0272406Y0069999D03*
X0264752Y0074627D03*
X0259119Y0077000D03*
X0252247Y0076817D03*
X0255494Y0073750D03*
X0240619Y0079524D03*
X0260962Y0083313D03*
X0269619Y0080500D03*
X0264228Y0086625D03*
X0275975Y0095789D03*
X0279688Y0097419D03*
X0283761Y0095937D03*
X0294522Y0097687D03*
X0283830Y0101226D03*
X0283872Y0105500D03*
X0284994Y0110937D03*
X0281494Y0117625D03*
X0280147Y0121125D03*
X0273470Y0120914D03*
X0262119Y0115000D03*
X0262119Y0111222D03*
X0262119Y0107444D03*
X0262119Y0102285D03*
X0264545Y0099851D03*
X0268489Y0099851D03*
X0272267Y0099970D03*
X0244119Y0099851D03*
X0231619Y0097108D03*
X0295369Y0086437D03*
X0304122Y0080497D03*
X0307244Y0098000D03*
X0361619Y0120500D03*
X0214217Y0160598D03*
X0174408Y0153000D03*
X0136619Y0153000D03*
X0125119Y0154000D03*
X0112230Y0139911D03*
X0112119Y0136500D03*
X0129119Y0136500D03*
X0122619Y0121000D03*
X0139119Y0107500D03*
X0155619Y0094000D03*
X0146119Y0083457D03*
X0164119Y0069500D03*
X0166927Y0065808D03*
X0171032Y0057758D03*
X0175954Y0052836D03*
X0183677Y0049058D03*
X0237619Y0021500D03*
X0099505Y0052614D03*
X0099505Y0057614D03*
X0057119Y0034500D03*
X0062119Y0024000D03*
X0069874Y0125500D03*
X0054619Y0131500D03*
X0061619Y0140000D03*
X0069865Y0148438D03*
D21*
X0069865Y0125509D01*
X0069874Y0125500D01*
X0081244Y0125500D02*
X0081244Y0055125D01*
X0060619Y0034500D01*
X0057119Y0034500D01*
X0101619Y0075500D02*
X0104119Y0078000D01*
X0217119Y0078000D01*
X0219119Y0080000D01*
X0252247Y0076817D02*
X0252247Y0062128D01*
X0252119Y0062000D01*
X0272406Y0069999D02*
X0276119Y0066286D01*
X0276119Y0039000D01*
X0279619Y0035500D01*
X0361619Y0035500D01*
X0322869Y0054875D02*
X0315369Y0054875D01*
X0322869Y0054875D02*
X0322869Y0058625D01*
X0297994Y0081250D02*
X0270369Y0081250D01*
X0269619Y0080500D01*
X0270244Y0081125D01*
X0269520Y0086125D02*
X0265145Y0090500D01*
X0170306Y0090500D01*
X0167156Y0087350D01*
X0137049Y0087350D01*
X0135824Y0086125D01*
X0115194Y0086125D01*
X0111994Y0089325D01*
X0111994Y0090250D01*
X0107244Y0089875D02*
X0107244Y0146370D01*
X0105019Y0148595D01*
X0105019Y0151605D01*
X0101524Y0155100D01*
X0097713Y0155100D01*
X0093113Y0150500D01*
X0089619Y0150500D01*
X0099619Y0150500D02*
X0104059Y0146059D01*
X0104059Y0088556D01*
X0104119Y0088497D01*
X0104119Y0084250D01*
X0104119Y0087012D01*
X0104119Y0084250D02*
X0104119Y0084125D01*
X0104694Y0083500D01*
X0146119Y0083457D01*
X0178042Y0083423D01*
X0181214Y0086595D01*
X0182629Y0086595D01*
X0264228Y0086625D01*
X0269520Y0086125D02*
X0291619Y0086125D01*
X0292244Y0086437D01*
X0295369Y0086437D01*
X0291669Y0086125D02*
X0291619Y0086125D01*
X0297994Y0081250D02*
X0302369Y0085625D01*
X0345244Y0085625D01*
X0347869Y0082500D01*
X0385324Y0082500D01*
X0386107Y0082535D01*
X0386145Y0082500D01*
X0405369Y0082500D01*
X0408869Y0079000D01*
X0359619Y0088937D02*
X0358758Y0089798D01*
X0328994Y0103625D02*
X0315994Y0116750D01*
X0320994Y0121750D02*
X0336306Y0121750D01*
X0336306Y0105187D01*
X0307244Y0098000D02*
X0305369Y0098000D01*
X0302869Y0100500D01*
X0295431Y0100500D01*
X0284994Y0110937D01*
X0281494Y0107878D02*
X0281494Y0117625D01*
X0280147Y0121125D02*
X0280147Y0125500D01*
X0272869Y0132779D01*
X0272869Y0148313D01*
X0264118Y0148313D01*
X0262767Y0146961D01*
X0262767Y0139648D01*
X0255119Y0132000D01*
X0235619Y0132000D01*
X0234619Y0131000D01*
X0234619Y0122342D01*
X0233777Y0121500D01*
X0228119Y0121500D01*
X0227119Y0115000D02*
X0227119Y0113993D01*
X0226149Y0113023D01*
X0226149Y0112062D01*
X0214853Y0100766D01*
X0184658Y0100766D01*
X0184424Y0101000D01*
X0176279Y0101000D01*
X0174462Y0101000D01*
X0172462Y0103000D01*
X0117756Y0103000D01*
X0114756Y0099816D01*
X0117869Y0096625D02*
X0122244Y0101000D01*
X0171319Y0101000D01*
X0173319Y0099000D01*
X0183892Y0099000D01*
X0183916Y0098976D01*
X0215594Y0098976D01*
X0228619Y0112000D01*
X0261341Y0112000D01*
X0262119Y0111222D01*
X0281494Y0107878D02*
X0283872Y0105500D01*
X0290994Y0128625D02*
X0290684Y0129875D01*
X0282089Y0138470D01*
X0282869Y0143000D02*
X0294119Y0131750D01*
X0295369Y0135500D02*
X0285369Y0145500D01*
X0285369Y0146750D01*
X0290369Y0146125D02*
X0297244Y0139250D01*
X0301619Y0139250D01*
X0304744Y0135500D02*
X0317244Y0135500D01*
X0304744Y0135500D02*
X0303494Y0134250D01*
X0296619Y0135500D02*
X0295369Y0135500D01*
X0314119Y0128000D02*
X0323016Y0128000D01*
X0360516Y0165500D01*
X0268345Y0140552D02*
X0266619Y0138826D01*
X0266619Y0131000D01*
X0221572Y0156250D02*
X0220647Y0155325D01*
X0217098Y0159564D02*
X0228680Y0159564D01*
X0229050Y0159934D01*
X0230412Y0161184D01*
X0230758Y0161530D01*
X0217098Y0159564D02*
X0217098Y0167548D01*
X0214146Y0170500D01*
X0154169Y0170500D01*
X0144973Y0160406D01*
X0129838Y0160406D01*
X0130119Y0160625D01*
X0119744Y0160625D01*
X0109619Y0150500D01*
X0061619Y0140000D02*
X0061619Y0138500D01*
X0054619Y0131500D01*
X0122619Y0121000D02*
X0136119Y0107500D01*
X0139119Y0107500D01*
X0071619Y0105500D02*
X0070345Y0105500D01*
X0045404Y0080559D01*
X0114119Y0175500D02*
X0114144Y0175500D01*
D22*
X0144529Y0181214D02*
X0079832Y0181214D01*
X0074119Y0175500D01*
X0092119Y0155500D02*
X0097119Y0160500D01*
X0099619Y0160500D01*
X0092119Y0155500D02*
X0087119Y0155500D01*
X0084619Y0153000D01*
X0084619Y0093500D01*
X0096619Y0080500D01*
X0100119Y0080500D01*
X0179706Y0080500D01*
X0182519Y0083313D01*
X0199442Y0083313D01*
X0260962Y0083313D01*
X0262556Y0083313D01*
X0269119Y0076750D01*
X0273494Y0076750D01*
X0275994Y0079250D01*
X0298931Y0079250D01*
X0303306Y0083625D01*
X0344306Y0083625D01*
X0346744Y0080500D01*
X0399619Y0080500D01*
X0409306Y0070813D01*
X0412453Y0066334D02*
X0412453Y0080278D01*
X0408331Y0084400D01*
X0397594Y0084400D01*
X0396619Y0085375D01*
X0347869Y0085375D01*
X0345869Y0087875D01*
X0301619Y0087875D01*
X0297056Y0083313D01*
X0274744Y0083313D01*
X0274119Y0083938D01*
X0268806Y0083938D01*
X0266119Y0086625D01*
X0264228Y0086625D01*
X0263095Y0080228D02*
X0268373Y0074950D01*
X0274239Y0074950D01*
X0276739Y0077450D01*
X0301075Y0077450D01*
X0304122Y0080497D01*
X0286360Y0092375D02*
X0285735Y0093000D01*
X0268619Y0093000D01*
X0264819Y0096800D01*
X0264619Y0096800D01*
X0235371Y0096800D01*
X0231071Y0092500D01*
X0191619Y0092500D01*
X0187056Y0097062D01*
X0172012Y0097062D01*
X0170012Y0099062D01*
X0150681Y0099062D01*
X0144869Y0093250D01*
X0110219Y0093250D01*
X0107244Y0090275D01*
X0107244Y0089875D01*
X0105719Y0076100D02*
X0220219Y0076100D01*
X0225119Y0081500D01*
X0238642Y0081500D01*
X0240619Y0079524D01*
X0246606Y0076500D02*
X0224119Y0076500D01*
X0219436Y0072222D02*
X0237535Y0072222D01*
X0250841Y0058916D01*
X0253396Y0058916D01*
X0258396Y0063916D01*
X0260896Y0063916D01*
X0262703Y0065722D01*
X0262703Y0068278D01*
X0259119Y0071862D01*
X0259119Y0077000D01*
X0264503Y0074378D02*
X0264752Y0074627D01*
X0264503Y0074378D02*
X0264503Y0064977D01*
X0256642Y0057116D01*
X0250096Y0057116D01*
X0238267Y0068944D01*
X0164675Y0068944D01*
X0164119Y0069500D01*
X0166927Y0065808D02*
X0180888Y0051847D01*
X0184832Y0051847D01*
X0186466Y0050213D01*
X0186466Y0050153D01*
X0193366Y0043253D01*
X0257880Y0043253D01*
X0270790Y0030343D01*
X0286523Y0030343D01*
X0297866Y0019000D01*
X0308119Y0019000D01*
X0313075Y0023957D01*
X0313075Y0024000D01*
X0299296Y0024000D02*
X0296411Y0024000D01*
X0288268Y0032143D01*
X0272522Y0032143D01*
X0238511Y0066155D01*
X0225436Y0066155D01*
X0246606Y0076500D02*
X0252119Y0081513D01*
X0258400Y0081513D01*
X0259684Y0080228D01*
X0263095Y0080228D01*
X0255494Y0073750D02*
X0255494Y0071125D01*
X0259619Y0067000D01*
X0286360Y0092375D02*
X0360669Y0092375D01*
X0363481Y0088937D01*
X0408026Y0088937D01*
X0409463Y0087500D01*
X0420336Y0091125D02*
X0431619Y0079842D01*
X0431619Y0060500D01*
X0412453Y0066334D02*
X0411174Y0065056D01*
X0420336Y0091125D02*
X0364744Y0091125D01*
X0361565Y0094304D01*
X0294554Y0094304D01*
X0292920Y0095937D01*
X0283761Y0095937D01*
X0285432Y0095937D01*
X0287369Y0097687D02*
X0283830Y0101226D01*
X0279688Y0101585D02*
X0279688Y0097419D01*
X0276856Y0098069D02*
X0275975Y0097188D01*
X0275975Y0095789D01*
X0276856Y0098069D02*
X0276856Y0101871D01*
X0273470Y0105257D01*
X0273470Y0120914D01*
X0271880Y0119153D02*
X0271880Y0104598D01*
X0275056Y0101421D01*
X0275056Y0098518D01*
X0273338Y0096800D01*
X0264819Y0096800D01*
X0264545Y0099851D02*
X0244119Y0099851D01*
X0231619Y0097108D02*
X0231119Y0097608D01*
X0231119Y0105000D01*
X0235119Y0109000D01*
X0260397Y0109000D01*
X0260963Y0108433D01*
X0261130Y0108433D01*
X0262119Y0107444D01*
X0264489Y0106462D02*
X0262119Y0104092D01*
X0262119Y0102285D01*
X0268489Y0099851D02*
X0268489Y0118044D01*
X0267291Y0119243D01*
X0267291Y0125802D01*
X0266092Y0127000D01*
X0268881Y0128737D02*
X0268881Y0119902D01*
X0270289Y0118494D01*
X0270289Y0101948D01*
X0272267Y0099970D01*
X0275270Y0106002D02*
X0279688Y0101585D01*
X0275270Y0106002D02*
X0275270Y0118770D01*
X0276259Y0119759D01*
X0276259Y0122069D01*
X0274619Y0123710D01*
X0274619Y0125000D01*
X0268881Y0128737D02*
X0266619Y0131000D01*
X0270681Y0135438D02*
X0270119Y0136000D01*
X0271100Y0135019D01*
X0271100Y0119932D01*
X0271880Y0119153D01*
X0264489Y0115982D02*
X0264489Y0106462D01*
X0262119Y0115000D02*
X0227119Y0115000D01*
X0220619Y0112500D02*
X0215119Y0112500D01*
X0213119Y0110500D01*
X0212283Y0125000D02*
X0197576Y0110293D01*
X0190908Y0115994D02*
X0193319Y0118406D01*
X0193319Y0143867D01*
X0196345Y0147393D01*
X0196345Y0150774D01*
X0194688Y0158961D02*
X0183727Y0148000D01*
X0181619Y0148000D01*
X0181619Y0133500D01*
X0175908Y0138500D02*
X0161306Y0138500D01*
X0154971Y0144834D01*
X0122189Y0144834D01*
X0116930Y0139575D01*
X0116930Y0137765D01*
X0115664Y0136500D01*
X0112119Y0136500D01*
X0112230Y0139911D02*
X0114720Y0139911D01*
X0121443Y0146634D01*
X0155717Y0146634D01*
X0160073Y0142278D01*
X0175908Y0142278D01*
X0174408Y0153000D02*
X0136619Y0153000D01*
X0143591Y0157263D02*
X0128382Y0157263D01*
X0125119Y0154000D01*
X0143591Y0157263D02*
X0144252Y0157294D01*
X0145705Y0158747D01*
X0145751Y0158749D01*
X0146196Y0159238D01*
X0146663Y0159705D01*
X0147476Y0160598D01*
X0214217Y0160598D01*
X0212502Y0158961D02*
X0215213Y0156250D01*
X0221572Y0156250D01*
X0212502Y0158961D02*
X0194688Y0158961D01*
X0145949Y0182634D02*
X0144529Y0181214D01*
X0145949Y0182634D02*
X0306101Y0182634D01*
X0314938Y0173797D01*
X0314938Y0163744D01*
X0316619Y0162063D01*
X0316619Y0155419D01*
X0320354Y0132716D02*
X0348119Y0160480D01*
X0355305Y0163452D02*
X0322978Y0131125D01*
X0309744Y0131125D01*
X0311505Y0132716D02*
X0310725Y0133495D01*
X0308762Y0133495D01*
X0292548Y0117281D01*
X0289846Y0117281D01*
X0264489Y0115982D02*
X0262119Y0118352D01*
X0262119Y0126000D01*
X0228119Y0125000D02*
X0212283Y0125000D01*
X0221874Y0133245D02*
X0221874Y0133349D01*
X0218223Y0137000D01*
X0136654Y0134012D02*
X0135030Y0132388D01*
X0118683Y0132388D01*
X0118071Y0133000D01*
X0112119Y0133000D01*
X0129119Y0136500D02*
X0129119Y0142500D01*
X0176202Y0103412D02*
X0176279Y0103336D01*
X0176279Y0101000D01*
X0170024Y0094000D02*
X0167343Y0096681D01*
X0163641Y0096681D01*
X0160960Y0094000D01*
X0155619Y0094000D01*
X0170024Y0094000D02*
X0186619Y0094000D01*
X0105719Y0076100D02*
X0104703Y0075084D01*
X0104703Y0074222D01*
X0062119Y0031638D01*
X0062119Y0024000D01*
X0099505Y0052614D02*
X0099705Y0052814D01*
X0168633Y0052814D01*
X0168655Y0052836D01*
X0175954Y0052836D01*
X0171032Y0057758D02*
X0167888Y0054614D01*
X0103619Y0054614D01*
X0100619Y0057614D01*
X0099505Y0057614D01*
X0287369Y0097687D02*
X0294522Y0097687D01*
X0358909Y0106371D02*
X0358909Y0121237D01*
X0361253Y0123581D01*
X0361253Y0127419D01*
X0358538Y0130134D01*
X0356781Y0130134D01*
X0357899Y0131252D01*
X0358369Y0132388D01*
X0358369Y0149907D01*
X0388678Y0149851D01*
X0388680Y0149850D01*
X0389295Y0149850D01*
X0389904Y0149849D01*
X0389907Y0149850D01*
X0389910Y0149850D01*
X0390478Y0150085D01*
X0391041Y0150317D01*
X0391043Y0150319D01*
X0391046Y0150320D01*
X0391480Y0150754D01*
X0391912Y0151185D01*
X0391913Y0151188D01*
X0401985Y0161260D01*
X0402698Y0161260D01*
X0404257Y0161905D01*
X0405115Y0162764D01*
X0405846Y0162033D01*
X0405846Y0162033D01*
X0424620Y0143259D01*
X0425962Y0141917D01*
X0425999Y0141917D01*
X0442209Y0125707D01*
X0456520Y0125707D01*
X0442904Y0112091D01*
X0441577Y0112091D01*
X0441451Y0112217D01*
X0438786Y0112217D01*
X0436902Y0110332D01*
X0436902Y0107668D01*
X0438786Y0105783D01*
X0441451Y0105783D01*
X0441577Y0105909D01*
X0444799Y0105909D01*
X0445935Y0106380D01*
X0446804Y0107249D01*
X0462918Y0123363D01*
X0465101Y0123363D01*
X0467815Y0126078D01*
X0467815Y0129917D01*
X0465101Y0132631D01*
X0461262Y0132631D01*
X0458919Y0130288D01*
X0444107Y0130288D01*
X0427896Y0146498D01*
X0427860Y0146498D01*
X0409086Y0165272D01*
X0409086Y0168495D01*
X0407744Y0169837D01*
X0406192Y0171389D01*
X0404850Y0172731D01*
X0398860Y0172731D01*
X0393920Y0167791D01*
X0391716Y0167791D01*
X0391670Y0167902D01*
X0390477Y0169095D01*
X0389666Y0169431D01*
X0389666Y0173547D01*
X0397119Y0181000D01*
X0480119Y0181000D01*
X0483341Y0177778D01*
X0483341Y0173201D01*
X0490570Y0165972D01*
X0495147Y0165972D01*
X0503119Y0158000D01*
X0503119Y0100000D01*
X0500619Y0096500D01*
X0447608Y0096500D01*
X0447568Y0096541D01*
X0367647Y0096541D01*
X0358909Y0106371D01*
X0358923Y0106356D02*
X0363735Y0106356D01*
X0363735Y0106669D02*
X0363735Y0102831D01*
X0366449Y0100116D01*
X0370288Y0100116D01*
X0371331Y0101159D01*
X0372583Y0101159D01*
X0373903Y0101706D01*
X0381163Y0108966D01*
X0381709Y0110286D01*
X0381709Y0135290D01*
X0381867Y0135448D01*
X0381867Y0138552D01*
X0379671Y0140748D01*
X0376566Y0140748D01*
X0374371Y0138552D01*
X0374371Y0135448D01*
X0374528Y0135290D01*
X0374528Y0122091D01*
X0363380Y0122091D01*
X0362600Y0122870D01*
X0360637Y0122870D01*
X0359249Y0121482D01*
X0359249Y0119518D01*
X0360637Y0118130D01*
X0362600Y0118130D01*
X0363380Y0118909D01*
X0374528Y0118909D01*
X0374528Y0112487D01*
X0370856Y0108816D01*
X0370288Y0109384D01*
X0366449Y0109384D01*
X0363735Y0106669D01*
X0364420Y0107354D02*
X0358909Y0107354D01*
X0358909Y0108353D02*
X0365418Y0108353D01*
X0366417Y0109351D02*
X0358909Y0109351D01*
X0358909Y0110350D02*
X0372391Y0110350D01*
X0373389Y0111348D02*
X0358909Y0111348D01*
X0358909Y0112347D02*
X0374388Y0112347D01*
X0374528Y0113345D02*
X0358909Y0113345D01*
X0358909Y0114344D02*
X0374528Y0114344D01*
X0374528Y0115342D02*
X0358909Y0115342D01*
X0358909Y0116341D02*
X0374528Y0116341D01*
X0374528Y0117339D02*
X0358909Y0117339D01*
X0358909Y0118338D02*
X0360429Y0118338D01*
X0359431Y0119336D02*
X0358909Y0119336D01*
X0358909Y0120335D02*
X0359249Y0120335D01*
X0359249Y0121333D02*
X0359005Y0121333D01*
X0360004Y0122332D02*
X0360099Y0122332D01*
X0361002Y0123330D02*
X0374528Y0123330D01*
X0374528Y0122332D02*
X0363139Y0122332D01*
X0361619Y0120500D02*
X0378098Y0120500D01*
X0378119Y0120480D01*
X0381709Y0120335D02*
X0451148Y0120335D01*
X0452147Y0121333D02*
X0381709Y0121333D01*
X0381709Y0122332D02*
X0453145Y0122332D01*
X0454144Y0123330D02*
X0381709Y0123330D01*
X0381709Y0124329D02*
X0455142Y0124329D01*
X0456141Y0125327D02*
X0381709Y0125327D01*
X0381709Y0126326D02*
X0441590Y0126326D01*
X0440592Y0127324D02*
X0381709Y0127324D01*
X0381709Y0128323D02*
X0439593Y0128323D01*
X0438595Y0129321D02*
X0381709Y0129321D01*
X0381709Y0130320D02*
X0437596Y0130320D01*
X0436598Y0131318D02*
X0381709Y0131318D01*
X0381709Y0132317D02*
X0435599Y0132317D01*
X0434601Y0133315D02*
X0381709Y0133315D01*
X0381709Y0134314D02*
X0433602Y0134314D01*
X0432604Y0135312D02*
X0381732Y0135312D01*
X0381867Y0136311D02*
X0431605Y0136311D01*
X0430607Y0137309D02*
X0381867Y0137309D01*
X0381867Y0138308D02*
X0429608Y0138308D01*
X0428610Y0139306D02*
X0381113Y0139306D01*
X0380114Y0140305D02*
X0427611Y0140305D01*
X0426613Y0141303D02*
X0358369Y0141303D01*
X0358369Y0140305D02*
X0376123Y0140305D01*
X0375125Y0139306D02*
X0358369Y0139306D01*
X0358369Y0138308D02*
X0374371Y0138308D01*
X0374371Y0137309D02*
X0358369Y0137309D01*
X0358369Y0136311D02*
X0374371Y0136311D01*
X0374506Y0135312D02*
X0358369Y0135312D01*
X0358369Y0134314D02*
X0374528Y0134314D01*
X0374528Y0133315D02*
X0358369Y0133315D01*
X0358340Y0132317D02*
X0374528Y0132317D01*
X0374528Y0131318D02*
X0357926Y0131318D01*
X0356967Y0130320D02*
X0374528Y0130320D01*
X0374528Y0129321D02*
X0359351Y0129321D01*
X0360349Y0128323D02*
X0374528Y0128323D01*
X0374528Y0127324D02*
X0361253Y0127324D01*
X0361253Y0126326D02*
X0374528Y0126326D01*
X0374528Y0125327D02*
X0361253Y0125327D01*
X0361253Y0124329D02*
X0374528Y0124329D01*
X0374528Y0118338D02*
X0362808Y0118338D01*
X0381709Y0118338D02*
X0449151Y0118338D01*
X0450150Y0119336D02*
X0381709Y0119336D01*
X0381709Y0117339D02*
X0448153Y0117339D01*
X0447154Y0116341D02*
X0381709Y0116341D01*
X0381709Y0115342D02*
X0446156Y0115342D01*
X0445157Y0114344D02*
X0381709Y0114344D01*
X0381709Y0113345D02*
X0444158Y0113345D01*
X0443160Y0112347D02*
X0381709Y0112347D01*
X0381709Y0111348D02*
X0437918Y0111348D01*
X0436920Y0110350D02*
X0381709Y0110350D01*
X0381322Y0109351D02*
X0436902Y0109351D01*
X0436902Y0108353D02*
X0380549Y0108353D01*
X0379551Y0107354D02*
X0437216Y0107354D01*
X0438214Y0106356D02*
X0378552Y0106356D01*
X0377554Y0105357D02*
X0503119Y0105357D01*
X0503119Y0104359D02*
X0376555Y0104359D01*
X0375557Y0103360D02*
X0503119Y0103360D01*
X0503119Y0102362D02*
X0374558Y0102362D01*
X0373074Y0101363D02*
X0503119Y0101363D01*
X0503119Y0100365D02*
X0370537Y0100365D01*
X0366201Y0100365D02*
X0364248Y0100365D01*
X0363361Y0101363D02*
X0365202Y0101363D01*
X0364204Y0102362D02*
X0362473Y0102362D01*
X0361586Y0103360D02*
X0363735Y0103360D01*
X0363735Y0104359D02*
X0360698Y0104359D01*
X0359810Y0105357D02*
X0363735Y0105357D01*
X0370321Y0109351D02*
X0371392Y0109351D01*
X0365136Y0099366D02*
X0502666Y0099366D01*
X0501953Y0098368D02*
X0366023Y0098368D01*
X0366911Y0097369D02*
X0501239Y0097369D01*
X0503119Y0106356D02*
X0445876Y0106356D01*
X0446909Y0107354D02*
X0503119Y0107354D01*
X0503119Y0108353D02*
X0447907Y0108353D01*
X0448906Y0109351D02*
X0503119Y0109351D01*
X0503119Y0110350D02*
X0449904Y0110350D01*
X0450903Y0111348D02*
X0503119Y0111348D01*
X0503119Y0112347D02*
X0451901Y0112347D01*
X0452900Y0113345D02*
X0503119Y0113345D01*
X0503119Y0114344D02*
X0453898Y0114344D01*
X0454897Y0115342D02*
X0503119Y0115342D01*
X0503119Y0116341D02*
X0455895Y0116341D01*
X0456894Y0117339D02*
X0503119Y0117339D01*
X0503119Y0118338D02*
X0457892Y0118338D01*
X0458891Y0119336D02*
X0503119Y0119336D01*
X0503119Y0120335D02*
X0459889Y0120335D01*
X0460888Y0121333D02*
X0503119Y0121333D01*
X0503119Y0122332D02*
X0461886Y0122332D01*
X0462885Y0123330D02*
X0503119Y0123330D01*
X0503119Y0124329D02*
X0466066Y0124329D01*
X0467065Y0125327D02*
X0503119Y0125327D01*
X0503119Y0126326D02*
X0467815Y0126326D01*
X0467815Y0127324D02*
X0503119Y0127324D01*
X0503119Y0128323D02*
X0467815Y0128323D01*
X0467815Y0129321D02*
X0503119Y0129321D01*
X0503119Y0130320D02*
X0467412Y0130320D01*
X0466413Y0131318D02*
X0503119Y0131318D01*
X0503119Y0132317D02*
X0465415Y0132317D01*
X0460948Y0132317D02*
X0442078Y0132317D01*
X0443076Y0131318D02*
X0459949Y0131318D01*
X0458951Y0130320D02*
X0444075Y0130320D01*
X0441079Y0133315D02*
X0503119Y0133315D01*
X0503119Y0134314D02*
X0440081Y0134314D01*
X0439082Y0135312D02*
X0503119Y0135312D01*
X0503119Y0136311D02*
X0438084Y0136311D01*
X0437085Y0137309D02*
X0503119Y0137309D01*
X0503119Y0138308D02*
X0436087Y0138308D01*
X0435088Y0139306D02*
X0503119Y0139306D01*
X0503119Y0140305D02*
X0434090Y0140305D01*
X0433091Y0141303D02*
X0503119Y0141303D01*
X0503119Y0142302D02*
X0432093Y0142302D01*
X0431094Y0143301D02*
X0503119Y0143301D01*
X0503119Y0144299D02*
X0430096Y0144299D01*
X0429097Y0145298D02*
X0457400Y0145298D01*
X0457801Y0145131D02*
X0460061Y0145131D01*
X0462149Y0145996D01*
X0463747Y0147594D01*
X0464612Y0149682D01*
X0464612Y0151943D01*
X0463747Y0154031D01*
X0462149Y0155629D01*
X0460061Y0156494D01*
X0457801Y0156494D01*
X0455713Y0155629D01*
X0454115Y0154031D01*
X0453250Y0151943D01*
X0453250Y0149682D01*
X0454115Y0147594D01*
X0455713Y0145996D01*
X0457801Y0145131D01*
X0455413Y0146296D02*
X0428099Y0146296D01*
X0427063Y0147295D02*
X0454415Y0147295D01*
X0453826Y0148293D02*
X0426065Y0148293D01*
X0425066Y0149292D02*
X0453412Y0149292D01*
X0453250Y0150290D02*
X0424068Y0150290D01*
X0423069Y0151289D02*
X0453250Y0151289D01*
X0453393Y0152287D02*
X0422071Y0152287D01*
X0421072Y0153286D02*
X0453806Y0153286D01*
X0454369Y0154284D02*
X0420074Y0154284D01*
X0419075Y0155283D02*
X0455367Y0155283D01*
X0457288Y0156281D02*
X0418077Y0156281D01*
X0417078Y0157280D02*
X0503119Y0157280D01*
X0503119Y0156281D02*
X0478574Y0156281D01*
X0478061Y0156494D02*
X0475801Y0156494D01*
X0473713Y0155629D01*
X0472115Y0154031D01*
X0471250Y0151943D01*
X0471250Y0149682D01*
X0472115Y0147594D01*
X0473713Y0145996D01*
X0475801Y0145131D01*
X0478061Y0145131D01*
X0480149Y0145996D01*
X0481747Y0147594D01*
X0482612Y0149682D01*
X0482612Y0151943D01*
X0481747Y0154031D01*
X0480149Y0155629D01*
X0478061Y0156494D01*
X0480495Y0155283D02*
X0503119Y0155283D01*
X0503119Y0154284D02*
X0481494Y0154284D01*
X0482056Y0153286D02*
X0503119Y0153286D01*
X0503119Y0152287D02*
X0482470Y0152287D01*
X0482612Y0151289D02*
X0503119Y0151289D01*
X0503119Y0150290D02*
X0482612Y0150290D01*
X0482450Y0149292D02*
X0503119Y0149292D01*
X0503119Y0148293D02*
X0482037Y0148293D01*
X0481448Y0147295D02*
X0503119Y0147295D01*
X0503119Y0146296D02*
X0480449Y0146296D01*
X0478462Y0145298D02*
X0503119Y0145298D01*
X0502841Y0158278D02*
X0416080Y0158278D01*
X0415081Y0159277D02*
X0501842Y0159277D01*
X0500844Y0160275D02*
X0414083Y0160275D01*
X0413084Y0161274D02*
X0499845Y0161274D01*
X0498846Y0162272D02*
X0412086Y0162272D01*
X0411087Y0163271D02*
X0497848Y0163271D01*
X0496849Y0164269D02*
X0410089Y0164269D01*
X0409090Y0165268D02*
X0495851Y0165268D01*
X0490275Y0166266D02*
X0409086Y0166266D01*
X0409086Y0167265D02*
X0489277Y0167265D01*
X0488278Y0168263D02*
X0409086Y0168263D01*
X0408319Y0169262D02*
X0487280Y0169262D01*
X0486281Y0170260D02*
X0407320Y0170260D01*
X0406322Y0171259D02*
X0485283Y0171259D01*
X0484284Y0172257D02*
X0405323Y0172257D01*
X0398387Y0172257D02*
X0389666Y0172257D01*
X0389666Y0171259D02*
X0397388Y0171259D01*
X0396390Y0170260D02*
X0389666Y0170260D01*
X0390074Y0169262D02*
X0395391Y0169262D01*
X0394392Y0168263D02*
X0391309Y0168263D01*
X0388075Y0165500D02*
X0388075Y0182957D01*
X0388119Y0183000D01*
X0394367Y0178248D02*
X0482870Y0178248D01*
X0483341Y0177250D02*
X0393369Y0177250D01*
X0392370Y0176251D02*
X0483341Y0176251D01*
X0483341Y0175253D02*
X0391372Y0175253D01*
X0390373Y0174254D02*
X0483341Y0174254D01*
X0483341Y0173256D02*
X0389666Y0173256D01*
X0395366Y0179247D02*
X0481872Y0179247D01*
X0480873Y0180245D02*
X0396364Y0180245D01*
X0374296Y0165500D02*
X0369296Y0170500D01*
X0356619Y0170500D01*
X0355305Y0169186D01*
X0355305Y0163452D01*
X0358369Y0149292D02*
X0418588Y0149292D01*
X0417589Y0150290D02*
X0390976Y0150290D01*
X0392014Y0151289D02*
X0416591Y0151289D01*
X0415592Y0152287D02*
X0393013Y0152287D01*
X0394011Y0153286D02*
X0414594Y0153286D01*
X0413595Y0154284D02*
X0395010Y0154284D01*
X0396008Y0155283D02*
X0412597Y0155283D01*
X0411598Y0156281D02*
X0397007Y0156281D01*
X0398005Y0157280D02*
X0410600Y0157280D01*
X0409601Y0158278D02*
X0399004Y0158278D01*
X0400002Y0159277D02*
X0408603Y0159277D01*
X0407604Y0160275D02*
X0401001Y0160275D01*
X0402732Y0161274D02*
X0406606Y0161274D01*
X0405607Y0162272D02*
X0404624Y0162272D01*
X0419586Y0148293D02*
X0358369Y0148293D01*
X0358369Y0147295D02*
X0420585Y0147295D01*
X0421583Y0146296D02*
X0358369Y0146296D01*
X0358369Y0145298D02*
X0422582Y0145298D01*
X0423580Y0144299D02*
X0358369Y0144299D01*
X0358369Y0143301D02*
X0424579Y0143301D01*
X0424620Y0143259D02*
X0424620Y0143259D01*
X0424119Y0142500D02*
X0419619Y0142500D01*
X0424119Y0142500D02*
X0425619Y0141000D01*
X0425577Y0142302D02*
X0358369Y0142302D01*
X0343119Y0139500D02*
X0343119Y0130750D01*
X0337497Y0125128D01*
X0317244Y0125128D01*
X0317244Y0124816D01*
X0320354Y0132716D02*
X0311505Y0132716D01*
X0460462Y0145298D02*
X0475400Y0145298D01*
X0473413Y0146296D02*
X0462449Y0146296D01*
X0463448Y0147295D02*
X0472415Y0147295D01*
X0471826Y0148293D02*
X0464037Y0148293D01*
X0464450Y0149292D02*
X0471412Y0149292D01*
X0471250Y0150290D02*
X0464612Y0150290D01*
X0464612Y0151289D02*
X0471250Y0151289D01*
X0471393Y0152287D02*
X0464470Y0152287D01*
X0464056Y0153286D02*
X0471806Y0153286D01*
X0472369Y0154284D02*
X0463494Y0154284D01*
X0462495Y0155283D02*
X0473367Y0155283D01*
X0475288Y0156281D02*
X0460574Y0156281D01*
D23*
X0444269Y0166000D02*
X0480030Y0166000D01*
X0490244Y0155912D01*
X0490369Y0100500D01*
X0434821Y0100500D01*
X0434021Y0099700D01*
X0388419Y0099700D01*
X0378119Y0111000D02*
X0371869Y0104750D01*
X0368369Y0104750D01*
X0378119Y0111000D02*
X0378119Y0120480D01*
X0378119Y0137000D01*
X0415634Y0165500D02*
X0443769Y0165500D01*
X0444269Y0166000D01*
D24*
X0291619Y0165500D02*
X0285827Y0160333D01*
X0234356Y0160333D01*
X0230252Y0156250D01*
X0221572Y0156250D01*
X0221536Y0156214D01*
X0182119Y0113000D02*
X0152619Y0142500D01*
X0129119Y0142500D01*
X0127119Y0142500D01*
X0119869Y0135250D01*
X0081244Y0125500D02*
X0078119Y0128625D01*
X0078119Y0164000D01*
X0082331Y0168213D01*
X0106856Y0168213D01*
X0114144Y0175500D01*
X0089619Y0160500D02*
X0084619Y0160500D01*
X0081369Y0157250D01*
X0081369Y0148438D01*
X0236556Y0093937D02*
X0265008Y0093937D01*
X0268461Y0090484D01*
X0358072Y0090484D01*
X0359619Y0088937D01*
X0356619Y0075500D02*
X0361619Y0070500D01*
X0361619Y0035500D01*
X0367869Y0038500D02*
X0367869Y0026750D01*
X0361619Y0020500D01*
X0356619Y0015500D01*
X0291619Y0015500D01*
X0285516Y0021602D01*
X0277971Y0014057D01*
X0247347Y0014057D01*
X0239904Y0021500D01*
X0237619Y0021500D01*
X0285516Y0021602D02*
X0285516Y0024000D01*
X0346619Y0040500D02*
X0352869Y0046750D01*
X0352869Y0058625D01*
X0371619Y0055500D02*
X0371619Y0065500D01*
X0376997Y0070879D01*
X0372376Y0075500D01*
X0366619Y0075500D01*
X0376997Y0070879D02*
X0382203Y0076084D01*
X0386619Y0076084D01*
X0377869Y0038500D02*
X0367869Y0038500D01*
X0183677Y0049058D02*
X0181855Y0047236D01*
X0181855Y0024000D01*
D25*
X0356619Y0105500D02*
X0366619Y0094250D01*
X0446619Y0094250D01*
X0446619Y0060500D01*
X0446619Y0025187D01*
X0457495Y0099624D02*
X0456619Y0100500D01*
X0397119Y0115500D02*
X0397119Y0153369D01*
X0406795Y0164324D02*
X0426911Y0144208D01*
X0426948Y0144208D01*
X0443158Y0127997D01*
X0463181Y0127997D01*
X0406795Y0164324D02*
X0406795Y0167546D01*
X0403901Y0170440D01*
X0399809Y0170440D01*
X0394869Y0165500D01*
X0388075Y0165500D01*
X0356619Y0125500D02*
X0356619Y0105500D01*
D26*
X0368369Y0104750D03*
X0315994Y0098937D03*
X0356619Y0125500D03*
X0311619Y0144250D03*
X0202619Y0106000D03*
X0186619Y0105500D03*
X0135994Y0169875D03*
X0147869Y0178000D03*
X0463181Y0127997D03*
X0251869Y0038500D03*
X0259119Y0034750D03*
X0446619Y0025187D03*
D27*
X0457495Y0019937D02*
X0460056Y0017375D01*
X0457495Y0019937D02*
X0457495Y0037626D01*
X0457495Y0085500D01*
X0457495Y0099624D01*
X0444184Y0109000D02*
X0440119Y0109000D01*
X0444184Y0109000D02*
X0463181Y0127997D01*
X0401855Y0165500D02*
X0389295Y0152940D01*
X0355279Y0153003D01*
X0355279Y0133003D01*
X0350366Y0128090D01*
X0350366Y0113090D01*
X0336838Y0098937D01*
X0315994Y0098937D01*
X0311779Y0098937D01*
X0306894Y0103823D01*
X0297620Y0103823D01*
X0285364Y0116080D01*
X0285364Y0124796D01*
X0276619Y0133541D01*
X0276619Y0151750D01*
X0239035Y0151750D01*
X0234035Y0146750D01*
X0207869Y0146750D01*
X0199119Y0137000D01*
X0199037Y0133082D01*
X0199037Y0117227D01*
X0193706Y0111896D01*
X0193706Y0108690D01*
X0196396Y0106000D01*
X0202619Y0106000D01*
X0186619Y0105500D02*
X0186619Y0146521D01*
X0195968Y0155870D01*
X0211222Y0155870D01*
X0215167Y0151925D01*
X0231681Y0151925D01*
X0236369Y0156613D01*
X0299396Y0156613D01*
X0311696Y0144250D01*
X0311619Y0144250D01*
X0147869Y0178000D02*
X0126619Y0178000D01*
X0124119Y0175500D01*
X0123494Y0166125D02*
X0114119Y0175500D01*
X0129744Y0166125D02*
X0133494Y0169875D01*
X0135994Y0169875D01*
X0129744Y0166125D02*
X0123494Y0166125D01*
X0251869Y0038500D02*
X0245573Y0032204D01*
X0245933Y0031843D01*
X0246805Y0031843D01*
X0250521Y0028127D01*
X0250521Y0022965D01*
X0255330Y0018157D01*
X0265894Y0018157D01*
X0271737Y0024000D01*
X0259119Y0025339D02*
X0257957Y0024000D01*
X0259119Y0025339D02*
X0259119Y0034750D01*
X0245573Y0032204D02*
X0245212Y0031843D01*
X0227771Y0031843D01*
X0219927Y0024000D01*
X0216619Y0024000D01*
X0203752Y0024000D01*
X0198012Y0018260D01*
X0193257Y0018260D01*
X0187517Y0024000D01*
X0181855Y0024000D01*
X0176193Y0024000D01*
X0170453Y0018260D01*
X0138139Y0018260D01*
X0132399Y0024000D01*
X0126737Y0024000D01*
X0121075Y0024000D01*
X0115335Y0018260D01*
X0110580Y0018260D01*
X0104840Y0024000D01*
X0099178Y0024000D01*
D28*
X0311696Y0144250D02*
X0325487Y0144250D01*
X0346737Y0165500D01*
X0291619Y0165500D02*
X0278994Y0178000D01*
X0147869Y0178000D01*
D29*
X0457495Y0037626D03*
X0460056Y0017375D03*
D30*
X0136654Y0134012D03*
X0112119Y0133000D03*
X0370369Y0136250D03*
X0419619Y0142500D03*
X0425619Y0141000D03*
D31*
X0378119Y0137000D03*
D32*
X0026619Y0020500D03*
X0026306Y0178312D03*
X0495681Y0178312D03*
D33*
X0209619Y0152000D02*
X0203119Y0152000D01*
X0199119Y0148000D01*
D34*
X0440119Y0109000D03*
D35*
X0348119Y0160480D03*
X0289846Y0117281D03*
M02*
