G75*
%MOIN*%
%OFA0B0*%
%FSLAX25Y25*%
%IPPOS*%
%LPD*%
%AMOC8*
5,1,8,0,0,1.08239X$1,22.5*
%
%ADD10C,0.00787*%
%ADD11R,0.04331X0.03937*%
%ADD12R,0.05906X0.05118*%
%ADD13R,0.05118X0.05906*%
%ADD14R,0.06299X0.07087*%
%ADD15C,0.06400*%
%ADD16C,0.07400*%
%ADD17R,0.07087X0.07087*%
%ADD18C,0.07087*%
%ADD19R,0.18110X0.03937*%
%ADD20R,0.13386X0.06299*%
%ADD21R,0.03543X0.03150*%
%ADD22R,0.03150X0.03543*%
%ADD23R,0.02756X0.02756*%
%ADD24R,0.04724X0.02362*%
%ADD25R,0.07480X0.05512*%
%ADD26R,0.05512X0.07087*%
%ADD27R,0.05906X0.02756*%
%ADD28R,0.00984X0.01969*%
%ADD29R,0.06299X0.03543*%
%ADD30R,0.00984X0.02756*%
%ADD31R,0.02756X0.00984*%
%ADD32R,0.20472X0.12598*%
%ADD33R,0.00886X0.01673*%
%ADD34R,0.11811X0.04724*%
%ADD35R,0.00787X0.03346*%
%ADD36R,0.03346X0.00787*%
%ADD37R,0.10433X0.10433*%
%ADD38R,0.16000X0.06000*%
%ADD39R,0.16000X0.05000*%
%ADD40R,0.11024X0.09449*%
%ADD41C,0.00000*%
%ADD42R,0.03937X0.04331*%
%ADD43R,0.03858X0.14567*%
%ADD44R,0.05906X0.07087*%
%ADD45R,0.07087X0.05906*%
%ADD46C,0.00591*%
%ADD47C,0.01969*%
%ADD48R,0.03199X0.04134*%
%ADD49R,0.02165X0.04724*%
%ADD50R,0.00984X0.03937*%
%ADD51R,0.03937X0.00984*%
%ADD52R,0.07874X0.07874*%
%ADD53R,0.09252X0.01772*%
%ADD54C,0.05315*%
%ADD55R,0.06102X0.05906*%
%ADD56R,0.06693X0.09449*%
%ADD57R,0.05512X0.04331*%
%ADD58R,0.03937X0.10827*%
%ADD59R,0.03346X0.07480*%
%ADD60C,0.01102*%
%ADD61R,0.06535X0.08465*%
%ADD62C,0.02775*%
%ADD63R,0.00906X0.03150*%
%ADD64R,0.03150X0.01378*%
%ADD65R,0.01378X0.03150*%
%ADD66R,0.05000X0.02500*%
%ADD67C,0.01000*%
%ADD68OC8,0.03169*%
%ADD69C,0.00800*%
%ADD70OC8,0.02578*%
%ADD71C,0.01200*%
%ADD72C,0.01600*%
%ADD73OC8,0.05906*%
%ADD74OC8,0.05315*%
%ADD75C,0.05000*%
%ADD76C,0.04000*%
%ADD77C,0.02400*%
%ADD78C,0.00600*%
%ADD79OC8,0.02775*%
%ADD80C,0.02578*%
%ADD81OC8,0.04429*%
%ADD82C,0.03200*%
%ADD83OC8,0.16500*%
%ADD84OC8,0.03562*%
D10*
X0021619Y0009875D02*
X0505320Y0009875D01*
X0505320Y0183103D01*
X0505318Y0183243D01*
X0505312Y0183383D01*
X0505302Y0183523D01*
X0505289Y0183663D01*
X0505271Y0183802D01*
X0505249Y0183941D01*
X0505224Y0184078D01*
X0505195Y0184216D01*
X0505162Y0184352D01*
X0505125Y0184487D01*
X0505084Y0184621D01*
X0505039Y0184754D01*
X0504991Y0184886D01*
X0504939Y0185016D01*
X0504884Y0185145D01*
X0504825Y0185272D01*
X0504762Y0185398D01*
X0504696Y0185522D01*
X0504627Y0185643D01*
X0504554Y0185763D01*
X0504477Y0185881D01*
X0504398Y0185996D01*
X0504315Y0186110D01*
X0504229Y0186220D01*
X0504140Y0186329D01*
X0504048Y0186435D01*
X0503953Y0186538D01*
X0503856Y0186639D01*
X0503755Y0186736D01*
X0503652Y0186831D01*
X0503546Y0186923D01*
X0503437Y0187012D01*
X0503327Y0187098D01*
X0503213Y0187181D01*
X0503098Y0187260D01*
X0502980Y0187337D01*
X0502860Y0187410D01*
X0502739Y0187479D01*
X0502615Y0187545D01*
X0502489Y0187608D01*
X0502362Y0187667D01*
X0502233Y0187722D01*
X0502103Y0187774D01*
X0501971Y0187822D01*
X0501838Y0187867D01*
X0501704Y0187908D01*
X0501569Y0187945D01*
X0501433Y0187978D01*
X0501295Y0188007D01*
X0501158Y0188032D01*
X0501019Y0188054D01*
X0500880Y0188072D01*
X0500740Y0188085D01*
X0500600Y0188095D01*
X0500460Y0188101D01*
X0500320Y0188103D01*
X0021619Y0188103D01*
X0021479Y0188101D01*
X0021339Y0188095D01*
X0021199Y0188085D01*
X0021059Y0188072D01*
X0020920Y0188054D01*
X0020781Y0188032D01*
X0020644Y0188007D01*
X0020506Y0187978D01*
X0020370Y0187945D01*
X0020235Y0187908D01*
X0020101Y0187867D01*
X0019968Y0187822D01*
X0019836Y0187774D01*
X0019706Y0187722D01*
X0019577Y0187667D01*
X0019450Y0187608D01*
X0019324Y0187545D01*
X0019200Y0187479D01*
X0019079Y0187410D01*
X0018959Y0187337D01*
X0018841Y0187260D01*
X0018726Y0187181D01*
X0018612Y0187098D01*
X0018502Y0187012D01*
X0018393Y0186923D01*
X0018287Y0186831D01*
X0018184Y0186736D01*
X0018083Y0186639D01*
X0017986Y0186538D01*
X0017891Y0186435D01*
X0017799Y0186329D01*
X0017710Y0186220D01*
X0017624Y0186110D01*
X0017541Y0185996D01*
X0017462Y0185881D01*
X0017385Y0185763D01*
X0017312Y0185643D01*
X0017243Y0185522D01*
X0017177Y0185398D01*
X0017114Y0185272D01*
X0017055Y0185145D01*
X0017000Y0185016D01*
X0016948Y0184886D01*
X0016900Y0184754D01*
X0016855Y0184621D01*
X0016814Y0184487D01*
X0016777Y0184352D01*
X0016744Y0184216D01*
X0016715Y0184078D01*
X0016690Y0183941D01*
X0016668Y0183802D01*
X0016650Y0183663D01*
X0016637Y0183523D01*
X0016627Y0183383D01*
X0016621Y0183243D01*
X0016619Y0183103D01*
X0016619Y0014875D01*
X0016621Y0014735D01*
X0016627Y0014595D01*
X0016637Y0014455D01*
X0016650Y0014315D01*
X0016668Y0014176D01*
X0016690Y0014037D01*
X0016715Y0013900D01*
X0016744Y0013762D01*
X0016777Y0013626D01*
X0016814Y0013491D01*
X0016855Y0013357D01*
X0016900Y0013224D01*
X0016948Y0013092D01*
X0017000Y0012962D01*
X0017055Y0012833D01*
X0017114Y0012706D01*
X0017177Y0012580D01*
X0017243Y0012456D01*
X0017312Y0012335D01*
X0017385Y0012215D01*
X0017462Y0012097D01*
X0017541Y0011982D01*
X0017624Y0011868D01*
X0017710Y0011758D01*
X0017799Y0011649D01*
X0017891Y0011543D01*
X0017986Y0011440D01*
X0018083Y0011339D01*
X0018184Y0011242D01*
X0018287Y0011147D01*
X0018393Y0011055D01*
X0018502Y0010966D01*
X0018612Y0010880D01*
X0018726Y0010797D01*
X0018841Y0010718D01*
X0018959Y0010641D01*
X0019079Y0010568D01*
X0019200Y0010499D01*
X0019324Y0010433D01*
X0019450Y0010370D01*
X0019577Y0010311D01*
X0019706Y0010256D01*
X0019836Y0010204D01*
X0019968Y0010156D01*
X0020101Y0010111D01*
X0020235Y0010070D01*
X0020370Y0010033D01*
X0020506Y0010000D01*
X0020644Y0009971D01*
X0020781Y0009946D01*
X0020920Y0009924D01*
X0021059Y0009906D01*
X0021199Y0009893D01*
X0021339Y0009883D01*
X0021479Y0009877D01*
X0021619Y0009875D01*
X0282711Y0108657D02*
X0282784Y0108584D01*
X0282711Y0108657D02*
X0282711Y0112356D01*
X0284181Y0113826D01*
X0284181Y0116125D01*
X0288556Y0120500D01*
X0289915Y0117350D02*
X0289846Y0117281D01*
X0289915Y0117350D02*
X0293843Y0117350D01*
X0296894Y0112724D02*
X0286781Y0112724D01*
X0284994Y0110937D01*
X0320403Y0113000D02*
X0331465Y0113000D01*
X0335119Y0116654D01*
X0327119Y0116654D02*
X0327117Y0116626D01*
X0327112Y0116598D01*
X0327103Y0116571D01*
X0327090Y0116546D01*
X0327074Y0116523D01*
X0327056Y0116501D01*
X0327034Y0116483D01*
X0327011Y0116467D01*
X0326986Y0116454D01*
X0326959Y0116445D01*
X0326931Y0116440D01*
X0326903Y0116438D01*
X0326903Y0116437D02*
X0320622Y0116437D01*
X0321446Y0111214D02*
X0337679Y0111214D01*
X0343119Y0116654D01*
X0346677Y0113809D02*
X0352129Y0113809D01*
X0353629Y0112309D01*
X0346677Y0113809D02*
X0342937Y0110069D01*
X0338605Y0110069D01*
X0338105Y0109569D01*
X0336859Y0109569D01*
X0345294Y0119875D02*
X0346575Y0119875D01*
X0343119Y0123346D02*
X0343028Y0123346D01*
X0335524Y0130850D01*
X0320994Y0125625D02*
X0317244Y0129375D01*
X0317244Y0135500D01*
X0320994Y0125625D02*
X0320994Y0121750D01*
X0357119Y0129446D02*
X0357119Y0141500D01*
X0364619Y0141500D01*
X0364619Y0139000D01*
X0365119Y0138500D01*
X0366024Y0138500D01*
X0366512Y0138012D01*
X0368320Y0138012D01*
X0368400Y0138093D01*
X0368481Y0138012D01*
X0370288Y0138012D01*
X0370369Y0138093D01*
X0370449Y0138012D01*
X0372257Y0138012D01*
X0372745Y0138500D01*
X0374119Y0138500D01*
X0374119Y0130696D01*
X0372733Y0130696D01*
X0372640Y0130789D01*
X0372640Y0130916D01*
X0372839Y0131114D01*
X0372839Y0133906D01*
X0372257Y0134488D01*
X0370449Y0134488D01*
X0370369Y0134407D01*
X0370288Y0134488D01*
X0368481Y0134488D01*
X0367899Y0133906D01*
X0367899Y0131114D01*
X0368481Y0130532D01*
X0370066Y0130532D01*
X0370066Y0129723D01*
X0370619Y0129170D01*
X0370619Y0122500D01*
X0368119Y0120000D01*
X0363901Y0120000D01*
X0363901Y0121446D01*
X0362564Y0122783D01*
X0360673Y0122783D01*
X0360150Y0122260D01*
X0358960Y0122260D01*
X0360565Y0123865D01*
X0360565Y0127135D01*
X0358253Y0129446D01*
X0357119Y0129446D01*
X0357119Y0129745D02*
X0370066Y0129745D01*
X0370066Y0130531D02*
X0357119Y0130531D01*
X0357119Y0131316D02*
X0367899Y0131316D01*
X0367899Y0132102D02*
X0357119Y0132102D01*
X0357119Y0132888D02*
X0367899Y0132888D01*
X0367416Y0132510D02*
X0367416Y0136250D01*
X0370369Y0136250D01*
X0362879Y0136250D01*
X0360619Y0138510D01*
X0357119Y0138390D02*
X0366135Y0138390D01*
X0364619Y0139176D02*
X0357119Y0139176D01*
X0357119Y0139962D02*
X0364619Y0139962D01*
X0364619Y0140747D02*
X0357119Y0140747D01*
X0354119Y0143000D02*
X0352119Y0145000D01*
X0352119Y0151500D01*
X0352619Y0152000D01*
X0373119Y0152000D01*
X0374619Y0150500D01*
X0374619Y0141575D01*
X0374225Y0141968D01*
X0372418Y0141968D01*
X0371836Y0141386D01*
X0371836Y0140000D01*
X0370870Y0140000D01*
X0370870Y0141386D01*
X0370772Y0141484D01*
X0370772Y0144455D01*
X0370619Y0144608D01*
X0370619Y0150000D01*
X0369619Y0151000D01*
X0364619Y0151000D01*
X0363619Y0150000D01*
X0363619Y0143000D01*
X0354119Y0143000D01*
X0354014Y0143105D02*
X0363619Y0143105D01*
X0363619Y0143891D02*
X0353228Y0143891D01*
X0352442Y0144677D02*
X0363619Y0144677D01*
X0363619Y0145463D02*
X0352119Y0145463D01*
X0352119Y0146249D02*
X0363619Y0146249D01*
X0363619Y0147035D02*
X0352119Y0147035D01*
X0352119Y0147821D02*
X0363619Y0147821D01*
X0363619Y0148607D02*
X0352119Y0148607D01*
X0352119Y0149392D02*
X0363619Y0149392D01*
X0363797Y0150178D02*
X0352119Y0150178D01*
X0352119Y0150964D02*
X0364583Y0150964D01*
X0365231Y0149613D02*
X0369006Y0149613D01*
X0369119Y0149500D01*
X0369119Y0144000D01*
X0369231Y0143887D01*
X0369231Y0139787D01*
X0368902Y0139787D01*
X0368902Y0141386D01*
X0368320Y0141968D01*
X0368151Y0141968D01*
X0368119Y0142000D01*
X0366119Y0142000D01*
X0365119Y0143000D01*
X0365119Y0149500D01*
X0365231Y0149613D01*
X0365119Y0149392D02*
X0369119Y0149392D01*
X0369119Y0148607D02*
X0365119Y0148607D01*
X0365119Y0147821D02*
X0369119Y0147821D01*
X0369119Y0147035D02*
X0365119Y0147035D01*
X0365119Y0146249D02*
X0369119Y0146249D01*
X0369119Y0145463D02*
X0365119Y0145463D01*
X0365119Y0144677D02*
X0369119Y0144677D01*
X0369228Y0143891D02*
X0365119Y0143891D01*
X0365119Y0143105D02*
X0369231Y0143105D01*
X0369231Y0142319D02*
X0365799Y0142319D01*
X0368754Y0141533D02*
X0369231Y0141533D01*
X0369231Y0140747D02*
X0368902Y0140747D01*
X0368902Y0139962D02*
X0369231Y0139962D01*
X0369384Y0139990D02*
X0369384Y0143880D01*
X0367264Y0146000D01*
X0370619Y0146249D02*
X0374619Y0146249D01*
X0374619Y0147035D02*
X0370619Y0147035D01*
X0370619Y0147821D02*
X0374619Y0147821D01*
X0374619Y0148607D02*
X0370619Y0148607D01*
X0370619Y0149392D02*
X0374619Y0149392D01*
X0374619Y0150178D02*
X0370440Y0150178D01*
X0369654Y0150964D02*
X0374154Y0150964D01*
X0373369Y0151750D02*
X0352369Y0151750D01*
X0354175Y0150195D02*
X0355645Y0151224D01*
X0372973Y0151224D01*
X0372973Y0146000D01*
X0371353Y0144380D01*
X0371353Y0139990D01*
X0370870Y0140747D02*
X0371836Y0140747D01*
X0371983Y0141533D02*
X0370772Y0141533D01*
X0370772Y0142319D02*
X0374619Y0142319D01*
X0374619Y0143105D02*
X0370772Y0143105D01*
X0370772Y0143891D02*
X0374619Y0143891D01*
X0374619Y0144677D02*
X0370619Y0144677D01*
X0370619Y0145463D02*
X0374619Y0145463D01*
X0373321Y0139990D02*
X0373321Y0136250D01*
X0370369Y0136250D01*
X0370316Y0134460D02*
X0370422Y0134460D01*
X0372284Y0134460D02*
X0374119Y0134460D01*
X0374119Y0133674D02*
X0372839Y0133674D01*
X0372839Y0132888D02*
X0374119Y0132888D01*
X0374119Y0132102D02*
X0372839Y0132102D01*
X0373321Y0132510D02*
X0373321Y0136250D01*
X0374119Y0136032D02*
X0357119Y0136032D01*
X0357119Y0136818D02*
X0374119Y0136818D01*
X0374119Y0137604D02*
X0357119Y0137604D01*
X0357119Y0135246D02*
X0374119Y0135246D01*
X0368453Y0134460D02*
X0357119Y0134460D01*
X0357119Y0133674D02*
X0367899Y0133674D01*
X0367416Y0132510D02*
X0367379Y0132472D01*
X0367379Y0126750D01*
X0367379Y0125899D02*
X0363421Y0125899D01*
X0360565Y0125815D02*
X0370619Y0125815D01*
X0370619Y0125029D02*
X0360565Y0125029D01*
X0360565Y0124243D02*
X0370619Y0124243D01*
X0370619Y0123457D02*
X0360157Y0123457D01*
X0360562Y0122671D02*
X0359371Y0122671D01*
X0362675Y0122671D02*
X0370619Y0122671D01*
X0370004Y0121886D02*
X0363461Y0121886D01*
X0363901Y0121100D02*
X0369218Y0121100D01*
X0368432Y0120314D02*
X0363901Y0120314D01*
X0360565Y0126601D02*
X0370619Y0126601D01*
X0370619Y0127387D02*
X0360313Y0127387D01*
X0359527Y0128173D02*
X0370619Y0128173D01*
X0370619Y0128959D02*
X0358741Y0128959D01*
X0369384Y0132510D02*
X0371353Y0132510D01*
X0371353Y0130256D01*
X0374859Y0126750D01*
X0374119Y0131316D02*
X0372839Y0131316D01*
X0372634Y0138390D02*
X0374119Y0138390D01*
X0239213Y0132091D02*
X0239029Y0132275D01*
X0239029Y0134367D01*
X0236896Y0136500D01*
X0221424Y0136500D01*
X0219160Y0134236D01*
X0216229Y0134236D01*
X0210965Y0139500D01*
X0214223Y0138873D02*
X0214223Y0143243D01*
X0210965Y0147500D01*
X0214223Y0138873D02*
X0215199Y0137898D01*
X0217325Y0137898D01*
X0218223Y0137000D01*
X0224272Y0133245D02*
X0225796Y0134769D01*
X0236232Y0134769D01*
X0237167Y0133834D01*
X0237167Y0132169D01*
X0224272Y0133245D02*
X0221874Y0133245D01*
D11*
X0207619Y0132846D03*
X0199119Y0132846D03*
X0199119Y0126154D03*
X0207619Y0126154D03*
X0184465Y0126000D03*
X0177772Y0126000D03*
X0158119Y0134404D03*
X0150119Y0134404D03*
X0150119Y0141096D03*
X0158119Y0141096D03*
X0155465Y0147500D03*
X0148772Y0147500D03*
X0118119Y0130346D03*
X0109369Y0126721D03*
X0118119Y0123654D03*
X0109369Y0120029D03*
X0118119Y0118346D03*
X0109369Y0114471D03*
X0118119Y0111654D03*
X0109369Y0107779D03*
X0087869Y0107779D03*
X0087869Y0114471D03*
X0087869Y0119654D03*
X0087869Y0126346D03*
X0050619Y0143654D03*
X0050619Y0150346D03*
X0247272Y0146500D03*
X0253965Y0146500D03*
X0327119Y0123346D03*
X0335119Y0123346D03*
X0343119Y0123346D03*
X0343119Y0116654D03*
X0335119Y0116654D03*
X0327119Y0116654D03*
X0385369Y0141154D03*
X0393619Y0141154D03*
X0409272Y0146500D03*
X0415965Y0146500D03*
X0393619Y0147846D03*
X0385369Y0147846D03*
X0338119Y0076346D03*
X0328619Y0076346D03*
X0328619Y0069654D03*
X0338119Y0069654D03*
X0447022Y0017375D03*
X0453715Y0017375D03*
X0166119Y0051154D03*
X0150965Y0052500D03*
X0144272Y0052500D03*
X0138965Y0060500D03*
X0132272Y0060500D03*
X0126965Y0060500D03*
X0120272Y0060500D03*
X0166119Y0057846D03*
X0138965Y0076500D03*
X0132272Y0076500D03*
X0126965Y0076500D03*
X0120272Y0076500D03*
X0057119Y0029346D03*
X0057119Y0022654D03*
D12*
X0384619Y0123760D03*
X0392619Y0123760D03*
X0400619Y0123760D03*
X0400619Y0131240D03*
X0392619Y0131240D03*
X0384619Y0131240D03*
X0360619Y0138510D03*
X0360619Y0145990D03*
X0427119Y0137240D03*
X0434619Y0137240D03*
X0434619Y0129760D03*
X0427119Y0129760D03*
X0042119Y0145260D03*
X0042119Y0152740D03*
D13*
X0367379Y0126750D03*
X0374859Y0126750D03*
D14*
X0332131Y0146750D03*
X0321107Y0146750D03*
X0324857Y0097500D03*
X0335881Y0097500D03*
D15*
X0109619Y0150500D03*
X0099619Y0150500D03*
X0089619Y0150500D03*
X0089619Y0160500D03*
X0099619Y0160500D03*
X0109619Y0160500D03*
D16*
X0114119Y0175500D03*
X0124119Y0175500D03*
X0104119Y0175500D03*
X0094119Y0175500D03*
X0084119Y0175500D03*
X0074119Y0175500D03*
X0361619Y0020500D03*
X0371619Y0020500D03*
X0381619Y0020500D03*
X0391619Y0020500D03*
D17*
X0216619Y0024000D03*
X0071619Y0024000D03*
X0266619Y0165500D03*
X0291619Y0165500D03*
D18*
X0305398Y0165500D03*
X0319178Y0165500D03*
X0332957Y0165500D03*
X0346737Y0165500D03*
X0360516Y0165500D03*
X0374296Y0165500D03*
X0388075Y0165500D03*
X0401855Y0165500D03*
X0415634Y0165500D03*
X0252839Y0165500D03*
X0239060Y0165500D03*
X0225280Y0165500D03*
X0211501Y0165500D03*
X0197721Y0165500D03*
X0183942Y0165500D03*
X0170162Y0165500D03*
X0156383Y0165500D03*
X0142603Y0165500D03*
X0022619Y0147780D03*
X0022619Y0120220D03*
X0085398Y0024000D03*
X0099178Y0024000D03*
X0112957Y0024000D03*
X0126737Y0024000D03*
X0140516Y0024000D03*
X0154296Y0024000D03*
X0168075Y0024000D03*
X0181855Y0024000D03*
X0195634Y0024000D03*
X0230398Y0024000D03*
X0244178Y0024000D03*
X0257957Y0024000D03*
X0271737Y0024000D03*
X0285516Y0024000D03*
X0299296Y0024000D03*
X0313075Y0024000D03*
X0326855Y0024000D03*
X0340634Y0024000D03*
D19*
X0476114Y0102813D03*
X0476114Y0110687D03*
D20*
X0496587Y0120136D03*
X0496587Y0093364D03*
D21*
X0349056Y0103760D03*
X0340788Y0107500D03*
X0349056Y0111240D03*
X0346806Y0140510D03*
X0338538Y0144250D03*
X0346806Y0147990D03*
X0075449Y0153500D03*
X0067182Y0157240D03*
X0057682Y0157760D03*
X0065949Y0161500D03*
X0057682Y0165240D03*
X0067182Y0149760D03*
D22*
X0072879Y0114437D03*
X0080359Y0114437D03*
X0076619Y0106169D03*
D23*
X0094727Y0108566D03*
X0102010Y0111125D03*
X0094727Y0113684D03*
X0094852Y0121066D03*
X0102135Y0123625D03*
X0094852Y0126184D03*
D24*
X0305595Y0064500D03*
X0305595Y0059500D03*
X0305595Y0054500D03*
X0305595Y0049500D03*
X0327642Y0049500D03*
X0327642Y0054500D03*
X0327642Y0059500D03*
X0327642Y0064500D03*
D25*
X0029062Y0101425D03*
X0025518Y0049457D03*
D26*
X0080636Y0071504D03*
X0080636Y0095126D03*
D27*
X0040479Y0093551D03*
X0040479Y0097882D03*
X0038904Y0089220D03*
X0040479Y0084890D03*
X0038904Y0080559D03*
X0040479Y0076228D03*
X0042054Y0071898D03*
X0040479Y0067567D03*
D28*
X0367416Y0132510D03*
X0369384Y0132510D03*
X0371353Y0132510D03*
X0373321Y0132510D03*
X0373321Y0139990D03*
X0371353Y0139990D03*
X0369384Y0139990D03*
X0367416Y0139990D03*
D29*
X0370369Y0136250D03*
D30*
X0152446Y0129949D03*
X0150477Y0129949D03*
X0148509Y0129949D03*
X0146540Y0129949D03*
X0144571Y0129949D03*
X0142603Y0129949D03*
X0140634Y0129949D03*
X0138666Y0129949D03*
X0136697Y0129949D03*
X0134729Y0129949D03*
X0132760Y0129949D03*
X0130792Y0129949D03*
X0130792Y0111051D03*
X0132760Y0111051D03*
X0134729Y0111051D03*
X0136697Y0111051D03*
X0138666Y0111051D03*
X0140634Y0111051D03*
X0142603Y0111051D03*
X0144571Y0111051D03*
X0146540Y0111051D03*
X0148509Y0111051D03*
X0150477Y0111051D03*
X0152446Y0111051D03*
D31*
X0155005Y0114594D03*
X0155005Y0116563D03*
X0155005Y0118531D03*
X0155005Y0120500D03*
X0155005Y0122469D03*
X0155005Y0124437D03*
X0155005Y0126406D03*
X0128233Y0126406D03*
X0128233Y0124437D03*
X0128233Y0122469D03*
X0128233Y0120500D03*
X0128233Y0118531D03*
X0128233Y0116563D03*
X0128233Y0114594D03*
D32*
X0141619Y0120500D03*
D33*
X0128774Y0111986D03*
D34*
X0419279Y0084622D03*
X0419279Y0076748D03*
X0419279Y0068874D03*
X0419279Y0061000D03*
X0419279Y0053125D03*
X0419279Y0045251D03*
X0419279Y0037377D03*
X0419279Y0029503D03*
X0478334Y0029503D03*
X0478334Y0037377D03*
X0478334Y0045251D03*
X0478334Y0053125D03*
X0478334Y0061000D03*
X0478334Y0068874D03*
X0478334Y0076748D03*
X0478334Y0084622D03*
D35*
X0306343Y0112724D03*
X0304768Y0112724D03*
X0303194Y0112724D03*
X0301619Y0112724D03*
X0300044Y0112724D03*
X0298469Y0112724D03*
X0296894Y0112724D03*
X0296894Y0128276D03*
X0298469Y0128276D03*
X0300044Y0128276D03*
X0301619Y0128276D03*
X0303194Y0128276D03*
X0304768Y0128276D03*
X0306343Y0128276D03*
D36*
X0309394Y0125224D03*
X0309394Y0123650D03*
X0309394Y0122075D03*
X0309394Y0120500D03*
X0309394Y0118925D03*
X0309394Y0117350D03*
X0309394Y0115776D03*
X0293843Y0115776D03*
X0293843Y0117350D03*
X0293843Y0118925D03*
X0293843Y0120500D03*
X0293843Y0122075D03*
X0293843Y0123650D03*
X0293843Y0125224D03*
D37*
X0301619Y0120500D03*
D38*
X0494869Y0040500D03*
X0494869Y0020500D03*
D39*
X0494869Y0030500D03*
D40*
X0476931Y0128372D03*
X0452915Y0128372D03*
X0452915Y0173253D03*
X0476931Y0173253D03*
D41*
X0472931Y0150813D02*
X0472933Y0150939D01*
X0472939Y0151065D01*
X0472949Y0151191D01*
X0472963Y0151317D01*
X0472981Y0151442D01*
X0473003Y0151566D01*
X0473028Y0151690D01*
X0473058Y0151813D01*
X0473091Y0151934D01*
X0473129Y0152055D01*
X0473170Y0152174D01*
X0473215Y0152293D01*
X0473263Y0152409D01*
X0473315Y0152524D01*
X0473371Y0152637D01*
X0473431Y0152749D01*
X0473494Y0152858D01*
X0473560Y0152966D01*
X0473629Y0153071D01*
X0473702Y0153174D01*
X0473779Y0153275D01*
X0473858Y0153373D01*
X0473940Y0153469D01*
X0474026Y0153562D01*
X0474114Y0153653D01*
X0474205Y0153740D01*
X0474299Y0153825D01*
X0474395Y0153906D01*
X0474494Y0153985D01*
X0474595Y0154060D01*
X0474699Y0154132D01*
X0474805Y0154201D01*
X0474913Y0154267D01*
X0475023Y0154329D01*
X0475135Y0154387D01*
X0475248Y0154442D01*
X0475364Y0154493D01*
X0475481Y0154541D01*
X0475599Y0154585D01*
X0475719Y0154625D01*
X0475840Y0154661D01*
X0475962Y0154694D01*
X0476085Y0154723D01*
X0476209Y0154747D01*
X0476333Y0154768D01*
X0476458Y0154785D01*
X0476584Y0154798D01*
X0476710Y0154807D01*
X0476836Y0154812D01*
X0476963Y0154813D01*
X0477089Y0154810D01*
X0477215Y0154803D01*
X0477341Y0154792D01*
X0477466Y0154777D01*
X0477591Y0154758D01*
X0477715Y0154735D01*
X0477839Y0154709D01*
X0477961Y0154678D01*
X0478083Y0154644D01*
X0478203Y0154605D01*
X0478322Y0154563D01*
X0478440Y0154518D01*
X0478556Y0154468D01*
X0478671Y0154415D01*
X0478783Y0154358D01*
X0478894Y0154298D01*
X0479003Y0154234D01*
X0479110Y0154167D01*
X0479215Y0154097D01*
X0479318Y0154023D01*
X0479418Y0153946D01*
X0479516Y0153866D01*
X0479611Y0153783D01*
X0479703Y0153697D01*
X0479793Y0153608D01*
X0479880Y0153516D01*
X0479963Y0153422D01*
X0480044Y0153325D01*
X0480122Y0153225D01*
X0480197Y0153123D01*
X0480268Y0153019D01*
X0480336Y0152912D01*
X0480400Y0152804D01*
X0480461Y0152693D01*
X0480519Y0152581D01*
X0480573Y0152467D01*
X0480623Y0152351D01*
X0480670Y0152234D01*
X0480713Y0152115D01*
X0480752Y0151995D01*
X0480788Y0151874D01*
X0480819Y0151751D01*
X0480847Y0151628D01*
X0480871Y0151504D01*
X0480891Y0151379D01*
X0480907Y0151254D01*
X0480919Y0151128D01*
X0480927Y0151002D01*
X0480931Y0150876D01*
X0480931Y0150750D01*
X0480927Y0150624D01*
X0480919Y0150498D01*
X0480907Y0150372D01*
X0480891Y0150247D01*
X0480871Y0150122D01*
X0480847Y0149998D01*
X0480819Y0149875D01*
X0480788Y0149752D01*
X0480752Y0149631D01*
X0480713Y0149511D01*
X0480670Y0149392D01*
X0480623Y0149275D01*
X0480573Y0149159D01*
X0480519Y0149045D01*
X0480461Y0148933D01*
X0480400Y0148822D01*
X0480336Y0148714D01*
X0480268Y0148607D01*
X0480197Y0148503D01*
X0480122Y0148401D01*
X0480044Y0148301D01*
X0479963Y0148204D01*
X0479880Y0148110D01*
X0479793Y0148018D01*
X0479703Y0147929D01*
X0479611Y0147843D01*
X0479516Y0147760D01*
X0479418Y0147680D01*
X0479318Y0147603D01*
X0479215Y0147529D01*
X0479110Y0147459D01*
X0479003Y0147392D01*
X0478894Y0147328D01*
X0478783Y0147268D01*
X0478671Y0147211D01*
X0478556Y0147158D01*
X0478440Y0147108D01*
X0478322Y0147063D01*
X0478203Y0147021D01*
X0478083Y0146982D01*
X0477961Y0146948D01*
X0477839Y0146917D01*
X0477715Y0146891D01*
X0477591Y0146868D01*
X0477466Y0146849D01*
X0477341Y0146834D01*
X0477215Y0146823D01*
X0477089Y0146816D01*
X0476963Y0146813D01*
X0476836Y0146814D01*
X0476710Y0146819D01*
X0476584Y0146828D01*
X0476458Y0146841D01*
X0476333Y0146858D01*
X0476209Y0146879D01*
X0476085Y0146903D01*
X0475962Y0146932D01*
X0475840Y0146965D01*
X0475719Y0147001D01*
X0475599Y0147041D01*
X0475481Y0147085D01*
X0475364Y0147133D01*
X0475248Y0147184D01*
X0475135Y0147239D01*
X0475023Y0147297D01*
X0474913Y0147359D01*
X0474805Y0147425D01*
X0474699Y0147494D01*
X0474595Y0147566D01*
X0474494Y0147641D01*
X0474395Y0147720D01*
X0474299Y0147801D01*
X0474205Y0147886D01*
X0474114Y0147973D01*
X0474026Y0148064D01*
X0473940Y0148157D01*
X0473858Y0148253D01*
X0473779Y0148351D01*
X0473702Y0148452D01*
X0473629Y0148555D01*
X0473560Y0148660D01*
X0473494Y0148768D01*
X0473431Y0148877D01*
X0473371Y0148989D01*
X0473315Y0149102D01*
X0473263Y0149217D01*
X0473215Y0149333D01*
X0473170Y0149452D01*
X0473129Y0149571D01*
X0473091Y0149692D01*
X0473058Y0149813D01*
X0473028Y0149936D01*
X0473003Y0150060D01*
X0472981Y0150184D01*
X0472963Y0150309D01*
X0472949Y0150435D01*
X0472939Y0150561D01*
X0472933Y0150687D01*
X0472931Y0150813D01*
X0454931Y0150813D02*
X0454933Y0150939D01*
X0454939Y0151065D01*
X0454949Y0151191D01*
X0454963Y0151317D01*
X0454981Y0151442D01*
X0455003Y0151566D01*
X0455028Y0151690D01*
X0455058Y0151813D01*
X0455091Y0151934D01*
X0455129Y0152055D01*
X0455170Y0152174D01*
X0455215Y0152293D01*
X0455263Y0152409D01*
X0455315Y0152524D01*
X0455371Y0152637D01*
X0455431Y0152749D01*
X0455494Y0152858D01*
X0455560Y0152966D01*
X0455629Y0153071D01*
X0455702Y0153174D01*
X0455779Y0153275D01*
X0455858Y0153373D01*
X0455940Y0153469D01*
X0456026Y0153562D01*
X0456114Y0153653D01*
X0456205Y0153740D01*
X0456299Y0153825D01*
X0456395Y0153906D01*
X0456494Y0153985D01*
X0456595Y0154060D01*
X0456699Y0154132D01*
X0456805Y0154201D01*
X0456913Y0154267D01*
X0457023Y0154329D01*
X0457135Y0154387D01*
X0457248Y0154442D01*
X0457364Y0154493D01*
X0457481Y0154541D01*
X0457599Y0154585D01*
X0457719Y0154625D01*
X0457840Y0154661D01*
X0457962Y0154694D01*
X0458085Y0154723D01*
X0458209Y0154747D01*
X0458333Y0154768D01*
X0458458Y0154785D01*
X0458584Y0154798D01*
X0458710Y0154807D01*
X0458836Y0154812D01*
X0458963Y0154813D01*
X0459089Y0154810D01*
X0459215Y0154803D01*
X0459341Y0154792D01*
X0459466Y0154777D01*
X0459591Y0154758D01*
X0459715Y0154735D01*
X0459839Y0154709D01*
X0459961Y0154678D01*
X0460083Y0154644D01*
X0460203Y0154605D01*
X0460322Y0154563D01*
X0460440Y0154518D01*
X0460556Y0154468D01*
X0460671Y0154415D01*
X0460783Y0154358D01*
X0460894Y0154298D01*
X0461003Y0154234D01*
X0461110Y0154167D01*
X0461215Y0154097D01*
X0461318Y0154023D01*
X0461418Y0153946D01*
X0461516Y0153866D01*
X0461611Y0153783D01*
X0461703Y0153697D01*
X0461793Y0153608D01*
X0461880Y0153516D01*
X0461963Y0153422D01*
X0462044Y0153325D01*
X0462122Y0153225D01*
X0462197Y0153123D01*
X0462268Y0153019D01*
X0462336Y0152912D01*
X0462400Y0152804D01*
X0462461Y0152693D01*
X0462519Y0152581D01*
X0462573Y0152467D01*
X0462623Y0152351D01*
X0462670Y0152234D01*
X0462713Y0152115D01*
X0462752Y0151995D01*
X0462788Y0151874D01*
X0462819Y0151751D01*
X0462847Y0151628D01*
X0462871Y0151504D01*
X0462891Y0151379D01*
X0462907Y0151254D01*
X0462919Y0151128D01*
X0462927Y0151002D01*
X0462931Y0150876D01*
X0462931Y0150750D01*
X0462927Y0150624D01*
X0462919Y0150498D01*
X0462907Y0150372D01*
X0462891Y0150247D01*
X0462871Y0150122D01*
X0462847Y0149998D01*
X0462819Y0149875D01*
X0462788Y0149752D01*
X0462752Y0149631D01*
X0462713Y0149511D01*
X0462670Y0149392D01*
X0462623Y0149275D01*
X0462573Y0149159D01*
X0462519Y0149045D01*
X0462461Y0148933D01*
X0462400Y0148822D01*
X0462336Y0148714D01*
X0462268Y0148607D01*
X0462197Y0148503D01*
X0462122Y0148401D01*
X0462044Y0148301D01*
X0461963Y0148204D01*
X0461880Y0148110D01*
X0461793Y0148018D01*
X0461703Y0147929D01*
X0461611Y0147843D01*
X0461516Y0147760D01*
X0461418Y0147680D01*
X0461318Y0147603D01*
X0461215Y0147529D01*
X0461110Y0147459D01*
X0461003Y0147392D01*
X0460894Y0147328D01*
X0460783Y0147268D01*
X0460671Y0147211D01*
X0460556Y0147158D01*
X0460440Y0147108D01*
X0460322Y0147063D01*
X0460203Y0147021D01*
X0460083Y0146982D01*
X0459961Y0146948D01*
X0459839Y0146917D01*
X0459715Y0146891D01*
X0459591Y0146868D01*
X0459466Y0146849D01*
X0459341Y0146834D01*
X0459215Y0146823D01*
X0459089Y0146816D01*
X0458963Y0146813D01*
X0458836Y0146814D01*
X0458710Y0146819D01*
X0458584Y0146828D01*
X0458458Y0146841D01*
X0458333Y0146858D01*
X0458209Y0146879D01*
X0458085Y0146903D01*
X0457962Y0146932D01*
X0457840Y0146965D01*
X0457719Y0147001D01*
X0457599Y0147041D01*
X0457481Y0147085D01*
X0457364Y0147133D01*
X0457248Y0147184D01*
X0457135Y0147239D01*
X0457023Y0147297D01*
X0456913Y0147359D01*
X0456805Y0147425D01*
X0456699Y0147494D01*
X0456595Y0147566D01*
X0456494Y0147641D01*
X0456395Y0147720D01*
X0456299Y0147801D01*
X0456205Y0147886D01*
X0456114Y0147973D01*
X0456026Y0148064D01*
X0455940Y0148157D01*
X0455858Y0148253D01*
X0455779Y0148351D01*
X0455702Y0148452D01*
X0455629Y0148555D01*
X0455560Y0148660D01*
X0455494Y0148768D01*
X0455431Y0148877D01*
X0455371Y0148989D01*
X0455315Y0149102D01*
X0455263Y0149217D01*
X0455215Y0149333D01*
X0455170Y0149452D01*
X0455129Y0149571D01*
X0455091Y0149692D01*
X0455058Y0149813D01*
X0455028Y0149936D01*
X0455003Y0150060D01*
X0454981Y0150184D01*
X0454963Y0150309D01*
X0454949Y0150435D01*
X0454939Y0150561D01*
X0454933Y0150687D01*
X0454931Y0150813D01*
X0191362Y0064373D02*
X0191364Y0064461D01*
X0191370Y0064549D01*
X0191380Y0064637D01*
X0191394Y0064725D01*
X0191411Y0064811D01*
X0191433Y0064897D01*
X0191458Y0064981D01*
X0191488Y0065065D01*
X0191520Y0065147D01*
X0191557Y0065227D01*
X0191597Y0065306D01*
X0191641Y0065383D01*
X0191688Y0065458D01*
X0191738Y0065530D01*
X0191792Y0065601D01*
X0191848Y0065668D01*
X0191908Y0065734D01*
X0191970Y0065796D01*
X0192036Y0065856D01*
X0192103Y0065912D01*
X0192174Y0065966D01*
X0192246Y0066016D01*
X0192321Y0066063D01*
X0192398Y0066107D01*
X0192477Y0066147D01*
X0192557Y0066184D01*
X0192639Y0066216D01*
X0192723Y0066246D01*
X0192807Y0066271D01*
X0192893Y0066293D01*
X0192979Y0066310D01*
X0193067Y0066324D01*
X0193155Y0066334D01*
X0193243Y0066340D01*
X0193331Y0066342D01*
X0193419Y0066340D01*
X0193507Y0066334D01*
X0193595Y0066324D01*
X0193683Y0066310D01*
X0193769Y0066293D01*
X0193855Y0066271D01*
X0193939Y0066246D01*
X0194023Y0066216D01*
X0194105Y0066184D01*
X0194185Y0066147D01*
X0194264Y0066107D01*
X0194341Y0066063D01*
X0194416Y0066016D01*
X0194488Y0065966D01*
X0194559Y0065912D01*
X0194626Y0065856D01*
X0194692Y0065796D01*
X0194754Y0065734D01*
X0194814Y0065668D01*
X0194870Y0065601D01*
X0194924Y0065530D01*
X0194974Y0065458D01*
X0195021Y0065383D01*
X0195065Y0065306D01*
X0195105Y0065227D01*
X0195142Y0065147D01*
X0195174Y0065065D01*
X0195204Y0064981D01*
X0195229Y0064897D01*
X0195251Y0064811D01*
X0195268Y0064725D01*
X0195282Y0064637D01*
X0195292Y0064549D01*
X0195298Y0064461D01*
X0195300Y0064373D01*
X0195298Y0064285D01*
X0195292Y0064197D01*
X0195282Y0064109D01*
X0195268Y0064021D01*
X0195251Y0063935D01*
X0195229Y0063849D01*
X0195204Y0063765D01*
X0195174Y0063681D01*
X0195142Y0063599D01*
X0195105Y0063519D01*
X0195065Y0063440D01*
X0195021Y0063363D01*
X0194974Y0063288D01*
X0194924Y0063216D01*
X0194870Y0063145D01*
X0194814Y0063078D01*
X0194754Y0063012D01*
X0194692Y0062950D01*
X0194626Y0062890D01*
X0194559Y0062834D01*
X0194488Y0062780D01*
X0194416Y0062730D01*
X0194341Y0062683D01*
X0194264Y0062639D01*
X0194185Y0062599D01*
X0194105Y0062562D01*
X0194023Y0062530D01*
X0193939Y0062500D01*
X0193855Y0062475D01*
X0193769Y0062453D01*
X0193683Y0062436D01*
X0193595Y0062422D01*
X0193507Y0062412D01*
X0193419Y0062406D01*
X0193331Y0062404D01*
X0193243Y0062406D01*
X0193155Y0062412D01*
X0193067Y0062422D01*
X0192979Y0062436D01*
X0192893Y0062453D01*
X0192807Y0062475D01*
X0192723Y0062500D01*
X0192639Y0062530D01*
X0192557Y0062562D01*
X0192477Y0062599D01*
X0192398Y0062639D01*
X0192321Y0062683D01*
X0192246Y0062730D01*
X0192174Y0062780D01*
X0192103Y0062834D01*
X0192036Y0062890D01*
X0191970Y0062950D01*
X0191908Y0063012D01*
X0191848Y0063078D01*
X0191792Y0063145D01*
X0191738Y0063216D01*
X0191688Y0063288D01*
X0191641Y0063363D01*
X0191597Y0063440D01*
X0191557Y0063519D01*
X0191520Y0063599D01*
X0191488Y0063681D01*
X0191458Y0063765D01*
X0191433Y0063849D01*
X0191411Y0063935D01*
X0191394Y0064021D01*
X0191380Y0064109D01*
X0191370Y0064197D01*
X0191364Y0064285D01*
X0191362Y0064373D01*
X0163523Y0092212D02*
X0163525Y0092300D01*
X0163531Y0092388D01*
X0163541Y0092476D01*
X0163555Y0092564D01*
X0163572Y0092650D01*
X0163594Y0092736D01*
X0163619Y0092820D01*
X0163649Y0092904D01*
X0163681Y0092986D01*
X0163718Y0093066D01*
X0163758Y0093145D01*
X0163802Y0093222D01*
X0163849Y0093297D01*
X0163899Y0093369D01*
X0163953Y0093440D01*
X0164009Y0093507D01*
X0164069Y0093573D01*
X0164131Y0093635D01*
X0164197Y0093695D01*
X0164264Y0093751D01*
X0164335Y0093805D01*
X0164407Y0093855D01*
X0164482Y0093902D01*
X0164559Y0093946D01*
X0164638Y0093986D01*
X0164718Y0094023D01*
X0164800Y0094055D01*
X0164884Y0094085D01*
X0164968Y0094110D01*
X0165054Y0094132D01*
X0165140Y0094149D01*
X0165228Y0094163D01*
X0165316Y0094173D01*
X0165404Y0094179D01*
X0165492Y0094181D01*
X0165580Y0094179D01*
X0165668Y0094173D01*
X0165756Y0094163D01*
X0165844Y0094149D01*
X0165930Y0094132D01*
X0166016Y0094110D01*
X0166100Y0094085D01*
X0166184Y0094055D01*
X0166266Y0094023D01*
X0166346Y0093986D01*
X0166425Y0093946D01*
X0166502Y0093902D01*
X0166577Y0093855D01*
X0166649Y0093805D01*
X0166720Y0093751D01*
X0166787Y0093695D01*
X0166853Y0093635D01*
X0166915Y0093573D01*
X0166975Y0093507D01*
X0167031Y0093440D01*
X0167085Y0093369D01*
X0167135Y0093297D01*
X0167182Y0093222D01*
X0167226Y0093145D01*
X0167266Y0093066D01*
X0167303Y0092986D01*
X0167335Y0092904D01*
X0167365Y0092820D01*
X0167390Y0092736D01*
X0167412Y0092650D01*
X0167429Y0092564D01*
X0167443Y0092476D01*
X0167453Y0092388D01*
X0167459Y0092300D01*
X0167461Y0092212D01*
X0167459Y0092124D01*
X0167453Y0092036D01*
X0167443Y0091948D01*
X0167429Y0091860D01*
X0167412Y0091774D01*
X0167390Y0091688D01*
X0167365Y0091604D01*
X0167335Y0091520D01*
X0167303Y0091438D01*
X0167266Y0091358D01*
X0167226Y0091279D01*
X0167182Y0091202D01*
X0167135Y0091127D01*
X0167085Y0091055D01*
X0167031Y0090984D01*
X0166975Y0090917D01*
X0166915Y0090851D01*
X0166853Y0090789D01*
X0166787Y0090729D01*
X0166720Y0090673D01*
X0166649Y0090619D01*
X0166577Y0090569D01*
X0166502Y0090522D01*
X0166425Y0090478D01*
X0166346Y0090438D01*
X0166266Y0090401D01*
X0166184Y0090369D01*
X0166100Y0090339D01*
X0166016Y0090314D01*
X0165930Y0090292D01*
X0165844Y0090275D01*
X0165756Y0090261D01*
X0165668Y0090251D01*
X0165580Y0090245D01*
X0165492Y0090243D01*
X0165404Y0090245D01*
X0165316Y0090251D01*
X0165228Y0090261D01*
X0165140Y0090275D01*
X0165054Y0090292D01*
X0164968Y0090314D01*
X0164884Y0090339D01*
X0164800Y0090369D01*
X0164718Y0090401D01*
X0164638Y0090438D01*
X0164559Y0090478D01*
X0164482Y0090522D01*
X0164407Y0090569D01*
X0164335Y0090619D01*
X0164264Y0090673D01*
X0164197Y0090729D01*
X0164131Y0090789D01*
X0164069Y0090851D01*
X0164009Y0090917D01*
X0163953Y0090984D01*
X0163899Y0091055D01*
X0163849Y0091127D01*
X0163802Y0091202D01*
X0163758Y0091279D01*
X0163718Y0091358D01*
X0163681Y0091438D01*
X0163649Y0091520D01*
X0163619Y0091604D01*
X0163594Y0091688D01*
X0163572Y0091774D01*
X0163555Y0091860D01*
X0163541Y0091948D01*
X0163531Y0092036D01*
X0163525Y0092124D01*
X0163523Y0092212D01*
D42*
X0138965Y0084500D03*
X0132272Y0084500D03*
X0126965Y0084500D03*
X0120272Y0084500D03*
X0120272Y0068500D03*
X0126965Y0068500D03*
X0132272Y0068500D03*
X0138965Y0068500D03*
X0144272Y0060500D03*
X0150965Y0060500D03*
X0158119Y0057846D03*
X0158119Y0051154D03*
X0297119Y0052154D03*
X0297119Y0058846D03*
X0308272Y0087000D03*
X0314965Y0087000D03*
X0300590Y0104250D03*
X0293897Y0104250D03*
X0286215Y0126125D03*
X0279522Y0126125D03*
X0227465Y0106500D03*
X0220772Y0106500D03*
X0222119Y0118654D03*
X0222119Y0125346D03*
X0210965Y0139500D03*
X0217619Y0141154D03*
X0210965Y0147500D03*
X0217619Y0147846D03*
X0204272Y0147500D03*
X0204272Y0139500D03*
X0127619Y0141154D03*
X0119369Y0142654D03*
X0119369Y0149346D03*
X0127619Y0147846D03*
X0119369Y0154529D03*
X0119369Y0161221D03*
X0077465Y0164750D03*
X0070772Y0164750D03*
X0063965Y0176000D03*
X0057272Y0176000D03*
X0059119Y0150346D03*
X0059119Y0143654D03*
X0067772Y0143000D03*
X0074465Y0143000D03*
X0074465Y0135000D03*
X0067772Y0135000D03*
X0060119Y0131346D03*
X0049119Y0131346D03*
X0049119Y0124654D03*
X0060119Y0124654D03*
X0402119Y0141154D03*
X0402119Y0147846D03*
D43*
X0410953Y0115500D03*
X0420284Y0115500D03*
D44*
X0391579Y0096484D03*
X0384099Y0096484D03*
X0376619Y0096484D03*
X0369138Y0096484D03*
X0361658Y0096484D03*
X0361658Y0044516D03*
X0369138Y0044516D03*
X0376619Y0044516D03*
X0384099Y0044516D03*
X0391579Y0044516D03*
D45*
X0402603Y0055539D03*
X0402603Y0063020D03*
X0402603Y0070500D03*
X0402603Y0077980D03*
X0402603Y0085461D03*
X0350634Y0085461D03*
X0350634Y0077980D03*
X0350634Y0070500D03*
X0350634Y0063020D03*
X0350634Y0055539D03*
D46*
X0254666Y0104826D02*
X0254666Y0106992D01*
X0255256Y0106992D01*
X0255256Y0104826D01*
X0254666Y0104826D01*
X0254666Y0105416D02*
X0255256Y0105416D01*
X0255256Y0106006D02*
X0254666Y0106006D01*
X0254666Y0106596D02*
X0255256Y0106596D01*
X0252698Y0106992D02*
X0252698Y0104826D01*
X0252698Y0106992D02*
X0253288Y0106992D01*
X0253288Y0104826D01*
X0252698Y0104826D01*
X0252698Y0105416D02*
X0253288Y0105416D01*
X0253288Y0106006D02*
X0252698Y0106006D01*
X0252698Y0106596D02*
X0253288Y0106596D01*
X0250729Y0106992D02*
X0250729Y0104826D01*
X0250729Y0106992D02*
X0251319Y0106992D01*
X0251319Y0104826D01*
X0250729Y0104826D01*
X0250729Y0105416D02*
X0251319Y0105416D01*
X0251319Y0106006D02*
X0250729Y0106006D01*
X0250729Y0106596D02*
X0251319Y0106596D01*
X0248761Y0106992D02*
X0248761Y0104826D01*
X0248761Y0106992D02*
X0249351Y0106992D01*
X0249351Y0104826D01*
X0248761Y0104826D01*
X0248761Y0105416D02*
X0249351Y0105416D01*
X0249351Y0106006D02*
X0248761Y0106006D01*
X0248761Y0106596D02*
X0249351Y0106596D01*
X0246792Y0106992D02*
X0246792Y0104826D01*
X0246792Y0106992D02*
X0247382Y0106992D01*
X0247382Y0104826D01*
X0246792Y0104826D01*
X0246792Y0105416D02*
X0247382Y0105416D01*
X0247382Y0106006D02*
X0246792Y0106006D01*
X0246792Y0106596D02*
X0247382Y0106596D01*
X0244824Y0106992D02*
X0244824Y0104826D01*
X0244824Y0106992D02*
X0245414Y0106992D01*
X0245414Y0104826D01*
X0244824Y0104826D01*
X0244824Y0105416D02*
X0245414Y0105416D01*
X0245414Y0106006D02*
X0244824Y0106006D01*
X0244824Y0106596D02*
X0245414Y0106596D01*
X0242855Y0106992D02*
X0242855Y0104826D01*
X0242855Y0106992D02*
X0243445Y0106992D01*
X0243445Y0104826D01*
X0242855Y0104826D01*
X0242855Y0105416D02*
X0243445Y0105416D01*
X0243445Y0106006D02*
X0242855Y0106006D01*
X0242855Y0106596D02*
X0243445Y0106596D01*
X0240887Y0106992D02*
X0240887Y0104826D01*
X0240887Y0106992D02*
X0241477Y0106992D01*
X0241477Y0104826D01*
X0240887Y0104826D01*
X0240887Y0105416D02*
X0241477Y0105416D01*
X0241477Y0106006D02*
X0240887Y0106006D01*
X0240887Y0106596D02*
X0241477Y0106596D01*
X0238918Y0106992D02*
X0238918Y0104826D01*
X0238918Y0106992D02*
X0239508Y0106992D01*
X0239508Y0104826D01*
X0238918Y0104826D01*
X0238918Y0105416D02*
X0239508Y0105416D01*
X0239508Y0106006D02*
X0238918Y0106006D01*
X0238918Y0106596D02*
X0239508Y0106596D01*
X0236950Y0106992D02*
X0236950Y0104826D01*
X0236950Y0106992D02*
X0237540Y0106992D01*
X0237540Y0104826D01*
X0236950Y0104826D01*
X0236950Y0105416D02*
X0237540Y0105416D01*
X0237540Y0106006D02*
X0236950Y0106006D01*
X0236950Y0106596D02*
X0237540Y0106596D01*
X0234981Y0106992D02*
X0234981Y0104826D01*
X0234981Y0106992D02*
X0235571Y0106992D01*
X0235571Y0104826D01*
X0234981Y0104826D01*
X0234981Y0105416D02*
X0235571Y0105416D01*
X0235571Y0106006D02*
X0234981Y0106006D01*
X0234981Y0106596D02*
X0235571Y0106596D01*
X0230945Y0108862D02*
X0230945Y0109452D01*
X0233111Y0109452D01*
X0233111Y0108862D01*
X0230945Y0108862D01*
X0230945Y0109452D02*
X0233111Y0109452D01*
X0230945Y0110831D02*
X0230945Y0111421D01*
X0233111Y0111421D01*
X0233111Y0110831D01*
X0230945Y0110831D01*
X0230945Y0111421D02*
X0233111Y0111421D01*
X0230945Y0112799D02*
X0230945Y0113389D01*
X0233111Y0113389D01*
X0233111Y0112799D01*
X0230945Y0112799D01*
X0230945Y0113389D02*
X0233111Y0113389D01*
X0230945Y0114768D02*
X0230945Y0115358D01*
X0233111Y0115358D01*
X0233111Y0114768D01*
X0230945Y0114768D01*
X0230945Y0115358D02*
X0233111Y0115358D01*
X0230945Y0116736D02*
X0230945Y0117326D01*
X0233111Y0117326D01*
X0233111Y0116736D01*
X0230945Y0116736D01*
X0230945Y0117326D02*
X0233111Y0117326D01*
X0230945Y0118705D02*
X0230945Y0119295D01*
X0233111Y0119295D01*
X0233111Y0118705D01*
X0230945Y0118705D01*
X0230945Y0119295D02*
X0233111Y0119295D01*
X0230945Y0120674D02*
X0230945Y0121264D01*
X0233111Y0121264D01*
X0233111Y0120674D01*
X0230945Y0120674D01*
X0230945Y0121264D02*
X0233111Y0121264D01*
X0230945Y0122642D02*
X0230945Y0123232D01*
X0233111Y0123232D01*
X0233111Y0122642D01*
X0230945Y0122642D01*
X0230945Y0123232D02*
X0233111Y0123232D01*
X0230945Y0124611D02*
X0230945Y0125201D01*
X0233111Y0125201D01*
X0233111Y0124611D01*
X0230945Y0124611D01*
X0230945Y0125201D02*
X0233111Y0125201D01*
X0230945Y0126579D02*
X0230945Y0127169D01*
X0233111Y0127169D01*
X0233111Y0126579D01*
X0230945Y0126579D01*
X0230945Y0127169D02*
X0233111Y0127169D01*
X0230945Y0128548D02*
X0230945Y0129138D01*
X0233111Y0129138D01*
X0233111Y0128548D01*
X0230945Y0128548D01*
X0230945Y0129138D02*
X0233111Y0129138D01*
X0234981Y0131008D02*
X0234981Y0133174D01*
X0235571Y0133174D01*
X0235571Y0131008D01*
X0234981Y0131008D01*
X0234981Y0131598D02*
X0235571Y0131598D01*
X0235571Y0132188D02*
X0234981Y0132188D01*
X0234981Y0132778D02*
X0235571Y0132778D01*
X0236950Y0133174D02*
X0236950Y0131008D01*
X0236950Y0133174D02*
X0237540Y0133174D01*
X0237540Y0131008D01*
X0236950Y0131008D01*
X0236950Y0131598D02*
X0237540Y0131598D01*
X0237540Y0132188D02*
X0236950Y0132188D01*
X0236950Y0132778D02*
X0237540Y0132778D01*
X0238918Y0133174D02*
X0238918Y0131008D01*
X0238918Y0133174D02*
X0239508Y0133174D01*
X0239508Y0131008D01*
X0238918Y0131008D01*
X0238918Y0131598D02*
X0239508Y0131598D01*
X0239508Y0132188D02*
X0238918Y0132188D01*
X0238918Y0132778D02*
X0239508Y0132778D01*
X0240887Y0133174D02*
X0240887Y0131008D01*
X0240887Y0133174D02*
X0241477Y0133174D01*
X0241477Y0131008D01*
X0240887Y0131008D01*
X0240887Y0131598D02*
X0241477Y0131598D01*
X0241477Y0132188D02*
X0240887Y0132188D01*
X0240887Y0132778D02*
X0241477Y0132778D01*
X0242855Y0133174D02*
X0242855Y0131008D01*
X0242855Y0133174D02*
X0243445Y0133174D01*
X0243445Y0131008D01*
X0242855Y0131008D01*
X0242855Y0131598D02*
X0243445Y0131598D01*
X0243445Y0132188D02*
X0242855Y0132188D01*
X0242855Y0132778D02*
X0243445Y0132778D01*
X0244824Y0133174D02*
X0244824Y0131008D01*
X0244824Y0133174D02*
X0245414Y0133174D01*
X0245414Y0131008D01*
X0244824Y0131008D01*
X0244824Y0131598D02*
X0245414Y0131598D01*
X0245414Y0132188D02*
X0244824Y0132188D01*
X0244824Y0132778D02*
X0245414Y0132778D01*
X0246792Y0133174D02*
X0246792Y0131008D01*
X0246792Y0133174D02*
X0247382Y0133174D01*
X0247382Y0131008D01*
X0246792Y0131008D01*
X0246792Y0131598D02*
X0247382Y0131598D01*
X0247382Y0132188D02*
X0246792Y0132188D01*
X0246792Y0132778D02*
X0247382Y0132778D01*
X0248761Y0133174D02*
X0248761Y0131008D01*
X0248761Y0133174D02*
X0249351Y0133174D01*
X0249351Y0131008D01*
X0248761Y0131008D01*
X0248761Y0131598D02*
X0249351Y0131598D01*
X0249351Y0132188D02*
X0248761Y0132188D01*
X0248761Y0132778D02*
X0249351Y0132778D01*
X0250729Y0133174D02*
X0250729Y0131008D01*
X0250729Y0133174D02*
X0251319Y0133174D01*
X0251319Y0131008D01*
X0250729Y0131008D01*
X0250729Y0131598D02*
X0251319Y0131598D01*
X0251319Y0132188D02*
X0250729Y0132188D01*
X0250729Y0132778D02*
X0251319Y0132778D01*
X0252698Y0133174D02*
X0252698Y0131008D01*
X0252698Y0133174D02*
X0253288Y0133174D01*
X0253288Y0131008D01*
X0252698Y0131008D01*
X0252698Y0131598D02*
X0253288Y0131598D01*
X0253288Y0132188D02*
X0252698Y0132188D01*
X0252698Y0132778D02*
X0253288Y0132778D01*
X0254666Y0133174D02*
X0254666Y0131008D01*
X0254666Y0133174D02*
X0255256Y0133174D01*
X0255256Y0131008D01*
X0254666Y0131008D01*
X0254666Y0131598D02*
X0255256Y0131598D01*
X0255256Y0132188D02*
X0254666Y0132188D01*
X0254666Y0132778D02*
X0255256Y0132778D01*
X0257126Y0129138D02*
X0257126Y0128548D01*
X0257126Y0129138D02*
X0259292Y0129138D01*
X0259292Y0128548D01*
X0257126Y0128548D01*
X0257126Y0129138D02*
X0259292Y0129138D01*
X0257126Y0127169D02*
X0257126Y0126579D01*
X0257126Y0127169D02*
X0259292Y0127169D01*
X0259292Y0126579D01*
X0257126Y0126579D01*
X0257126Y0127169D02*
X0259292Y0127169D01*
X0257126Y0125201D02*
X0257126Y0124611D01*
X0257126Y0125201D02*
X0259292Y0125201D01*
X0259292Y0124611D01*
X0257126Y0124611D01*
X0257126Y0125201D02*
X0259292Y0125201D01*
X0257126Y0123232D02*
X0257126Y0122642D01*
X0257126Y0123232D02*
X0259292Y0123232D01*
X0259292Y0122642D01*
X0257126Y0122642D01*
X0257126Y0123232D02*
X0259292Y0123232D01*
X0257126Y0121264D02*
X0257126Y0120674D01*
X0257126Y0121264D02*
X0259292Y0121264D01*
X0259292Y0120674D01*
X0257126Y0120674D01*
X0257126Y0121264D02*
X0259292Y0121264D01*
X0257126Y0119295D02*
X0257126Y0118705D01*
X0257126Y0119295D02*
X0259292Y0119295D01*
X0259292Y0118705D01*
X0257126Y0118705D01*
X0257126Y0119295D02*
X0259292Y0119295D01*
X0257126Y0117326D02*
X0257126Y0116736D01*
X0257126Y0117326D02*
X0259292Y0117326D01*
X0259292Y0116736D01*
X0257126Y0116736D01*
X0257126Y0117326D02*
X0259292Y0117326D01*
X0257126Y0115358D02*
X0257126Y0114768D01*
X0257126Y0115358D02*
X0259292Y0115358D01*
X0259292Y0114768D01*
X0257126Y0114768D01*
X0257126Y0115358D02*
X0259292Y0115358D01*
X0257126Y0113389D02*
X0257126Y0112799D01*
X0257126Y0113389D02*
X0259292Y0113389D01*
X0259292Y0112799D01*
X0257126Y0112799D01*
X0257126Y0113389D02*
X0259292Y0113389D01*
X0257126Y0111421D02*
X0257126Y0110831D01*
X0257126Y0111421D02*
X0259292Y0111421D01*
X0259292Y0110831D01*
X0257126Y0110831D01*
X0257126Y0111421D02*
X0259292Y0111421D01*
X0257126Y0109452D02*
X0257126Y0108862D01*
X0257126Y0109452D02*
X0259292Y0109452D01*
X0259292Y0108862D01*
X0257126Y0108862D01*
X0257126Y0109452D02*
X0259292Y0109452D01*
D47*
X0236261Y0110142D02*
X0236261Y0127858D01*
X0253977Y0127858D01*
X0253977Y0110142D01*
X0236261Y0110142D01*
X0236261Y0112110D02*
X0253977Y0112110D01*
X0253977Y0114078D02*
X0236261Y0114078D01*
X0236261Y0116046D02*
X0253977Y0116046D01*
X0253977Y0118014D02*
X0236261Y0118014D01*
X0236261Y0119982D02*
X0253977Y0119982D01*
X0253977Y0121950D02*
X0236261Y0121950D01*
X0236261Y0123918D02*
X0253977Y0123918D01*
X0253977Y0125886D02*
X0236261Y0125886D01*
X0236261Y0127854D02*
X0253977Y0127854D01*
D48*
X0051631Y0165331D03*
X0040607Y0165331D03*
X0040607Y0181669D03*
X0051631Y0181669D03*
X0051631Y0034169D03*
X0040607Y0034169D03*
X0040607Y0017831D03*
X0051631Y0017831D03*
D49*
X0133879Y0138382D03*
X0137619Y0138382D03*
X0141359Y0138382D03*
X0141359Y0148618D03*
X0137619Y0148618D03*
X0133879Y0148618D03*
D50*
X0185556Y0148500D03*
X0187524Y0148500D03*
X0189493Y0148500D03*
X0191461Y0148500D03*
X0193430Y0148500D03*
X0193430Y0132752D03*
X0191461Y0132752D03*
X0189493Y0132752D03*
X0187524Y0132752D03*
X0185556Y0132752D03*
D51*
X0181619Y0136689D03*
X0181619Y0138657D03*
X0181619Y0140626D03*
X0181619Y0142594D03*
X0181619Y0144563D03*
X0197367Y0144563D03*
X0197367Y0142594D03*
X0197367Y0140626D03*
X0197367Y0138657D03*
X0197367Y0136689D03*
D52*
X0189493Y0140626D03*
D53*
X0035119Y0139118D03*
X0035119Y0136559D03*
X0035119Y0134000D03*
X0035119Y0131441D03*
X0035119Y0128882D03*
D54*
X0033249Y0124157D03*
X0033249Y0143843D03*
D55*
X0022619Y0146008D03*
X0022619Y0137937D03*
X0022619Y0130063D03*
X0022619Y0121992D03*
D56*
X0225835Y0144500D03*
X0240402Y0144500D03*
D57*
X0209024Y0120650D03*
X0197213Y0120650D03*
X0197213Y0114350D03*
X0209024Y0114350D03*
X0323713Y0130850D03*
X0323713Y0137150D03*
X0335524Y0137150D03*
X0335524Y0130850D03*
D58*
G36*
X0193400Y0083929D02*
X0196184Y0081145D01*
X0188530Y0073491D01*
X0185746Y0076275D01*
X0193400Y0083929D01*
G37*
G36*
X0187832Y0089497D02*
X0190616Y0086713D01*
X0182962Y0079059D01*
X0180178Y0081843D01*
X0187832Y0089497D01*
G37*
G36*
X0177394Y0084627D02*
X0174610Y0087411D01*
X0182264Y0095065D01*
X0185048Y0092281D01*
X0177394Y0084627D01*
G37*
G36*
X0164726Y0088662D02*
X0167510Y0085878D01*
X0159856Y0078224D01*
X0157072Y0081008D01*
X0164726Y0088662D01*
G37*
G36*
X0159158Y0094230D02*
X0161942Y0091446D01*
X0154288Y0083792D01*
X0151504Y0086576D01*
X0159158Y0094230D01*
G37*
G36*
X0176696Y0100633D02*
X0179480Y0097849D01*
X0171826Y0090195D01*
X0169042Y0092979D01*
X0176696Y0100633D01*
G37*
G36*
X0171129Y0106201D02*
X0173913Y0103417D01*
X0166259Y0095763D01*
X0163475Y0098547D01*
X0171129Y0106201D01*
G37*
G36*
X0165424Y0072656D02*
X0162640Y0075440D01*
X0170294Y0083094D01*
X0173078Y0080310D01*
X0165424Y0072656D01*
G37*
G36*
X0175861Y0077527D02*
X0178645Y0074743D01*
X0170991Y0067089D01*
X0168207Y0069873D01*
X0175861Y0077527D01*
G37*
G36*
X0198968Y0078362D02*
X0201752Y0075578D01*
X0194098Y0067924D01*
X0191314Y0070708D01*
X0198968Y0078362D01*
G37*
G36*
X0204535Y0072794D02*
X0207319Y0070010D01*
X0199665Y0062356D01*
X0196881Y0065140D01*
X0204535Y0072794D01*
G37*
G36*
X0181429Y0071959D02*
X0184213Y0069175D01*
X0176559Y0061521D01*
X0173775Y0064305D01*
X0181429Y0071959D01*
G37*
G36*
X0186997Y0066391D02*
X0189781Y0063607D01*
X0182127Y0055953D01*
X0179343Y0058737D01*
X0186997Y0066391D01*
G37*
G36*
X0192565Y0060823D02*
X0195349Y0058039D01*
X0187695Y0050385D01*
X0184911Y0053169D01*
X0192565Y0060823D01*
G37*
D59*
X0367264Y0146000D03*
X0372973Y0146000D03*
D60*
X0407190Y0138437D02*
X0409434Y0138437D01*
X0409434Y0136469D02*
X0407190Y0136469D01*
X0407190Y0134500D02*
X0409434Y0134500D01*
X0409434Y0132531D02*
X0407190Y0132531D01*
X0407190Y0130563D02*
X0409434Y0130563D01*
X0418804Y0130563D02*
X0421048Y0130563D01*
X0421048Y0132531D02*
X0418804Y0132531D01*
X0418804Y0134500D02*
X0421048Y0134500D01*
X0421048Y0136469D02*
X0418804Y0136469D01*
X0418804Y0138437D02*
X0421048Y0138437D01*
D61*
X0414119Y0134500D03*
D62*
X0414119Y0132138D03*
X0414119Y0136862D03*
D63*
X0414906Y0140248D03*
X0413331Y0140248D03*
X0411757Y0140248D03*
X0416481Y0140248D03*
X0416481Y0128752D03*
X0414906Y0128752D03*
X0413331Y0128752D03*
X0411757Y0128752D03*
D64*
X0361109Y0112309D03*
X0353629Y0112309D03*
X0353629Y0109750D03*
X0353629Y0107191D03*
X0361109Y0107191D03*
X0348359Y0130691D03*
X0340879Y0130691D03*
X0340879Y0133250D03*
X0340879Y0135809D03*
X0348359Y0135809D03*
D65*
X0065928Y0114490D03*
X0060810Y0114490D03*
X0060810Y0107010D03*
X0063369Y0107010D03*
X0065928Y0107010D03*
D66*
X0129619Y0052100D03*
X0129619Y0048900D03*
D67*
X0129744Y0049025D02*
X0133619Y0049025D01*
X0133619Y0050347D01*
X0133516Y0050729D01*
X0133319Y0051071D01*
X0133219Y0051171D01*
X0133219Y0053806D01*
X0132574Y0054450D01*
X0131519Y0054450D01*
X0131519Y0057431D01*
X0134019Y0057431D01*
X0134019Y0028235D01*
X0134956Y0027298D01*
X0136300Y0025954D01*
X0135873Y0024924D01*
X0135873Y0023076D01*
X0136580Y0021370D01*
X0137886Y0020064D01*
X0139593Y0019357D01*
X0141440Y0019357D01*
X0143147Y0020064D01*
X0144453Y0021370D01*
X0145160Y0023076D01*
X0145160Y0024924D01*
X0144453Y0026630D01*
X0143147Y0027936D01*
X0141440Y0028643D01*
X0139593Y0028643D01*
X0138563Y0028217D01*
X0137219Y0029560D01*
X0137219Y0057431D01*
X0137365Y0057431D01*
X0137365Y0051218D01*
X0140992Y0047591D01*
X0142222Y0047591D01*
X0163859Y0025954D01*
X0163432Y0024924D01*
X0163432Y0023076D01*
X0164139Y0021370D01*
X0165445Y0020064D01*
X0167152Y0019357D01*
X0168999Y0019357D01*
X0170706Y0020064D01*
X0172012Y0021370D01*
X0172719Y0023076D01*
X0172719Y0024924D01*
X0172012Y0026630D01*
X0170706Y0027936D01*
X0168999Y0028643D01*
X0167152Y0028643D01*
X0166122Y0028217D01*
X0144907Y0049431D01*
X0146893Y0049431D01*
X0147538Y0050076D01*
X0147538Y0054924D01*
X0146893Y0055568D01*
X0145972Y0055568D01*
X0145972Y0057235D01*
X0146696Y0057235D01*
X0147341Y0057879D01*
X0147341Y0063121D01*
X0146696Y0063765D01*
X0145819Y0063765D01*
X0145819Y0065321D01*
X0146508Y0066010D01*
X0146508Y0067348D01*
X0149365Y0064491D01*
X0149365Y0063765D01*
X0148541Y0063765D01*
X0147897Y0063121D01*
X0147897Y0057879D01*
X0148541Y0057235D01*
X0149365Y0057235D01*
X0149365Y0055568D01*
X0148344Y0055568D01*
X0147700Y0054924D01*
X0147700Y0050076D01*
X0148344Y0049431D01*
X0153586Y0049431D01*
X0154231Y0050076D01*
X0154231Y0050900D01*
X0154438Y0050900D01*
X0155176Y0051638D01*
X0157634Y0051638D01*
X0157634Y0050669D01*
X0154650Y0050669D01*
X0154650Y0048791D01*
X0154752Y0048409D01*
X0154950Y0048067D01*
X0155229Y0047788D01*
X0155571Y0047590D01*
X0155953Y0047488D01*
X0157634Y0047488D01*
X0157634Y0050669D01*
X0158603Y0050669D01*
X0158603Y0047488D01*
X0160285Y0047488D01*
X0160666Y0047590D01*
X0161008Y0047788D01*
X0161288Y0048067D01*
X0161485Y0048409D01*
X0161587Y0048791D01*
X0161587Y0050669D01*
X0158603Y0050669D01*
X0158603Y0051638D01*
X0161587Y0051638D01*
X0161587Y0052819D01*
X0162453Y0052819D01*
X0162453Y0051638D01*
X0165634Y0051638D01*
X0165634Y0050669D01*
X0162453Y0050669D01*
X0162453Y0048988D01*
X0162556Y0048606D01*
X0162753Y0048264D01*
X0163032Y0047985D01*
X0163374Y0047787D01*
X0163756Y0047685D01*
X0165634Y0047685D01*
X0165634Y0050669D01*
X0166603Y0050669D01*
X0166603Y0047685D01*
X0168482Y0047685D01*
X0168863Y0047787D01*
X0169205Y0047985D01*
X0169296Y0048076D01*
X0191418Y0025954D01*
X0190991Y0024924D01*
X0190991Y0023076D01*
X0191698Y0021370D01*
X0193004Y0020064D01*
X0194711Y0019357D01*
X0196558Y0019357D01*
X0198265Y0020064D01*
X0199571Y0021370D01*
X0200278Y0023076D01*
X0200278Y0024924D01*
X0199571Y0026630D01*
X0198265Y0027936D01*
X0196558Y0028643D01*
X0194711Y0028643D01*
X0193681Y0028217D01*
X0170984Y0050913D01*
X0170984Y0053872D01*
X0196113Y0028743D01*
X0220038Y0028743D01*
X0220138Y0028643D01*
X0212620Y0028643D01*
X0211975Y0027999D01*
X0211975Y0020001D01*
X0212620Y0019357D01*
X0220618Y0019357D01*
X0221262Y0020001D01*
X0221262Y0027519D01*
X0225790Y0022991D01*
X0226462Y0021370D01*
X0227768Y0020064D01*
X0229475Y0019357D01*
X0231322Y0019357D01*
X0233028Y0020064D01*
X0234335Y0021370D01*
X0235042Y0023076D01*
X0235042Y0024924D01*
X0234335Y0026630D01*
X0233028Y0027936D01*
X0231322Y0028643D01*
X0229475Y0028643D01*
X0227768Y0027936D01*
X0226569Y0026737D01*
X0222301Y0031006D01*
X0221363Y0031943D01*
X0197438Y0031943D01*
X0182713Y0046669D01*
X0183794Y0046669D01*
X0198119Y0032500D01*
X0230869Y0032500D01*
X0237119Y0026000D01*
X0239534Y0023504D01*
X0239534Y0023076D01*
X0240241Y0021370D01*
X0241548Y0020064D01*
X0243254Y0019357D01*
X0243548Y0019357D01*
X0250891Y0011769D01*
X0066561Y0011769D01*
X0065119Y0013500D01*
X0065119Y0034500D01*
X0079119Y0048500D01*
X0096619Y0048500D01*
X0098429Y0050311D01*
X0098516Y0050225D01*
X0100495Y0050225D01*
X0101894Y0051624D01*
X0101894Y0053603D01*
X0101808Y0053689D01*
X0103119Y0055000D01*
X0103119Y0055020D01*
X0103894Y0055796D01*
X0103894Y0068605D01*
X0108103Y0072814D01*
X0108103Y0073984D01*
X0108619Y0074500D01*
X0108619Y0079580D01*
X0116678Y0087639D01*
X0116678Y0089059D01*
X0119619Y0092000D01*
X0119619Y0094579D01*
X0120553Y0095513D01*
X0120553Y0097737D01*
X0119619Y0098671D01*
X0119619Y0104000D01*
X0119094Y0104525D01*
X0133531Y0104525D01*
X0134469Y0105462D01*
X0134469Y0105462D01*
X0135406Y0106400D01*
X0136344Y0107337D01*
X0136344Y0108173D01*
X0136697Y0108173D01*
X0136697Y0111051D01*
X0136698Y0111051D01*
X0136698Y0108173D01*
X0136730Y0108173D01*
X0136730Y0106578D01*
X0135814Y0105663D01*
X0134084Y0103932D01*
X0123624Y0103932D01*
X0122687Y0102995D01*
X0122387Y0102696D01*
X0121450Y0101759D01*
X0121450Y0091438D01*
X0119610Y0089597D01*
X0118672Y0088660D01*
X0118672Y0087765D01*
X0117848Y0087765D01*
X0117204Y0087121D01*
X0117204Y0081879D01*
X0117848Y0081235D01*
X0118672Y0081235D01*
X0118672Y0079568D01*
X0117651Y0079568D01*
X0117007Y0078924D01*
X0117007Y0075497D01*
X0105347Y0063837D01*
X0104409Y0062900D01*
X0104409Y0053587D01*
X0083798Y0032976D01*
X0083798Y0028363D01*
X0082768Y0027936D01*
X0081462Y0026630D01*
X0080755Y0024924D01*
X0080755Y0023076D01*
X0081462Y0021370D01*
X0082768Y0020064D01*
X0084475Y0019357D01*
X0086322Y0019357D01*
X0088028Y0020064D01*
X0089335Y0021370D01*
X0090042Y0023076D01*
X0090042Y0024924D01*
X0089335Y0026630D01*
X0088028Y0027936D01*
X0086998Y0028363D01*
X0086998Y0031650D01*
X0107609Y0052261D01*
X0107609Y0061574D01*
X0119466Y0073431D01*
X0120631Y0073431D01*
X0118964Y0071765D01*
X0117848Y0071765D01*
X0117204Y0071121D01*
X0117204Y0065879D01*
X0117848Y0065235D01*
X0118672Y0065235D01*
X0118672Y0063568D01*
X0117651Y0063568D01*
X0117007Y0062924D01*
X0117007Y0059497D01*
X0111357Y0053848D01*
X0111357Y0028363D01*
X0110327Y0027936D01*
X0109021Y0026630D01*
X0108314Y0024924D01*
X0108314Y0023076D01*
X0109021Y0021370D01*
X0110327Y0020064D01*
X0112034Y0019357D01*
X0113881Y0019357D01*
X0115588Y0020064D01*
X0116894Y0021370D01*
X0117601Y0023076D01*
X0117601Y0024924D01*
X0116894Y0026630D01*
X0115588Y0027936D01*
X0114557Y0028363D01*
X0114557Y0052522D01*
X0119467Y0057431D01*
X0122893Y0057431D01*
X0123538Y0058076D01*
X0123538Y0062924D01*
X0122893Y0063568D01*
X0121872Y0063568D01*
X0121872Y0065235D01*
X0122696Y0065235D01*
X0123341Y0065879D01*
X0123341Y0071121D01*
X0123093Y0071369D01*
X0124200Y0072476D01*
X0125138Y0073413D01*
X0125138Y0073431D01*
X0127919Y0073431D01*
X0127919Y0071765D01*
X0124541Y0071765D01*
X0123897Y0071121D01*
X0123897Y0065879D01*
X0124541Y0065235D01*
X0127230Y0065235D01*
X0127230Y0063568D01*
X0124344Y0063568D01*
X0123700Y0062924D01*
X0123700Y0058076D01*
X0124344Y0057431D01*
X0127719Y0057431D01*
X0127719Y0054450D01*
X0126663Y0054450D01*
X0126019Y0053806D01*
X0126019Y0051171D01*
X0125918Y0051071D01*
X0125721Y0050729D01*
X0125619Y0050347D01*
X0125619Y0049025D01*
X0129494Y0049025D01*
X0129494Y0048775D01*
X0129744Y0048775D01*
X0129744Y0049025D01*
X0129744Y0048775D02*
X0133619Y0048775D01*
X0133619Y0047453D01*
X0133516Y0047071D01*
X0133319Y0046729D01*
X0133040Y0046450D01*
X0132698Y0046252D01*
X0132316Y0046150D01*
X0129744Y0046150D01*
X0129744Y0048775D01*
X0129494Y0048775D02*
X0129494Y0046150D01*
X0126921Y0046150D01*
X0126540Y0046252D01*
X0126198Y0046450D01*
X0125918Y0046729D01*
X0125721Y0047071D01*
X0125619Y0047453D01*
X0125619Y0048775D01*
X0129494Y0048775D01*
X0129494Y0048442D02*
X0129744Y0048442D01*
X0129744Y0047443D02*
X0129494Y0047443D01*
X0129494Y0046445D02*
X0129744Y0046445D01*
X0133031Y0046445D02*
X0134019Y0046445D01*
X0134019Y0047443D02*
X0133616Y0047443D01*
X0133619Y0048442D02*
X0134019Y0048442D01*
X0134019Y0049440D02*
X0133619Y0049440D01*
X0133594Y0050439D02*
X0134019Y0050439D01*
X0134019Y0051437D02*
X0133219Y0051437D01*
X0133219Y0052436D02*
X0134019Y0052436D01*
X0134019Y0053434D02*
X0133219Y0053434D01*
X0132591Y0054433D02*
X0134019Y0054433D01*
X0134019Y0055432D02*
X0131519Y0055432D01*
X0131519Y0056430D02*
X0134019Y0056430D01*
X0134019Y0057429D02*
X0131519Y0057429D01*
X0127719Y0057429D02*
X0119464Y0057429D01*
X0118465Y0056430D02*
X0127719Y0056430D01*
X0127719Y0055432D02*
X0117467Y0055432D01*
X0116468Y0054433D02*
X0126646Y0054433D01*
X0126019Y0053434D02*
X0115470Y0053434D01*
X0114557Y0052436D02*
X0126019Y0052436D01*
X0126019Y0051437D02*
X0114557Y0051437D01*
X0114557Y0050439D02*
X0125643Y0050439D01*
X0125619Y0049440D02*
X0114557Y0049440D01*
X0114557Y0048442D02*
X0125619Y0048442D01*
X0125621Y0047443D02*
X0114557Y0047443D01*
X0114557Y0046445D02*
X0126206Y0046445D01*
X0134019Y0045446D02*
X0114557Y0045446D01*
X0114557Y0044448D02*
X0134019Y0044448D01*
X0134019Y0043449D02*
X0114557Y0043449D01*
X0114557Y0042451D02*
X0134019Y0042451D01*
X0134019Y0041452D02*
X0114557Y0041452D01*
X0114557Y0040454D02*
X0134019Y0040454D01*
X0134019Y0039455D02*
X0114557Y0039455D01*
X0114557Y0038457D02*
X0134019Y0038457D01*
X0134019Y0037458D02*
X0114557Y0037458D01*
X0114557Y0036460D02*
X0134019Y0036460D01*
X0134019Y0035461D02*
X0114557Y0035461D01*
X0114557Y0034463D02*
X0134019Y0034463D01*
X0134019Y0033464D02*
X0114557Y0033464D01*
X0114557Y0032466D02*
X0134019Y0032466D01*
X0134019Y0031467D02*
X0114557Y0031467D01*
X0114557Y0030469D02*
X0134019Y0030469D01*
X0134019Y0029470D02*
X0114557Y0029470D01*
X0114557Y0028472D02*
X0125399Y0028472D01*
X0125813Y0028643D02*
X0124107Y0027936D01*
X0122800Y0026630D01*
X0122094Y0024924D01*
X0122094Y0023076D01*
X0122800Y0021370D01*
X0124107Y0020064D01*
X0125813Y0019357D01*
X0127660Y0019357D01*
X0129367Y0020064D01*
X0130673Y0021370D01*
X0131380Y0023076D01*
X0131380Y0024924D01*
X0130673Y0026630D01*
X0129367Y0027936D01*
X0127660Y0028643D01*
X0125813Y0028643D01*
X0128075Y0028472D02*
X0134019Y0028472D01*
X0134780Y0027473D02*
X0129830Y0027473D01*
X0130738Y0026475D02*
X0135779Y0026475D01*
X0136102Y0025476D02*
X0131151Y0025476D01*
X0131380Y0024478D02*
X0135873Y0024478D01*
X0135873Y0023479D02*
X0131380Y0023479D01*
X0131133Y0022481D02*
X0136120Y0022481D01*
X0136533Y0021482D02*
X0130720Y0021482D01*
X0129787Y0020484D02*
X0137466Y0020484D01*
X0139283Y0019485D02*
X0127970Y0019485D01*
X0125503Y0019485D02*
X0114191Y0019485D01*
X0116008Y0020484D02*
X0123687Y0020484D01*
X0122754Y0021482D02*
X0116940Y0021482D01*
X0117354Y0022481D02*
X0122340Y0022481D01*
X0122094Y0023479D02*
X0117601Y0023479D01*
X0117601Y0024478D02*
X0122094Y0024478D01*
X0122322Y0025476D02*
X0117372Y0025476D01*
X0116958Y0026475D02*
X0122736Y0026475D01*
X0123643Y0027473D02*
X0116051Y0027473D01*
X0111357Y0028472D02*
X0100516Y0028472D01*
X0100101Y0028643D02*
X0098254Y0028643D01*
X0096548Y0027936D01*
X0095241Y0026630D01*
X0094534Y0024924D01*
X0094534Y0023076D01*
X0095241Y0021370D01*
X0096548Y0020064D01*
X0098254Y0019357D01*
X0100101Y0019357D01*
X0101808Y0020064D01*
X0103114Y0021370D01*
X0103821Y0023076D01*
X0103821Y0024924D01*
X0103114Y0026630D01*
X0101808Y0027936D01*
X0100101Y0028643D01*
X0097840Y0028472D02*
X0086998Y0028472D01*
X0086998Y0029470D02*
X0111357Y0029470D01*
X0111357Y0030469D02*
X0086998Y0030469D01*
X0086998Y0031467D02*
X0111357Y0031467D01*
X0111357Y0032466D02*
X0087814Y0032466D01*
X0088812Y0033464D02*
X0111357Y0033464D01*
X0111357Y0034463D02*
X0089811Y0034463D01*
X0090809Y0035461D02*
X0111357Y0035461D01*
X0111357Y0036460D02*
X0091808Y0036460D01*
X0092806Y0037458D02*
X0111357Y0037458D01*
X0111357Y0038457D02*
X0093805Y0038457D01*
X0094803Y0039455D02*
X0111357Y0039455D01*
X0111357Y0040454D02*
X0095802Y0040454D01*
X0096800Y0041452D02*
X0111357Y0041452D01*
X0111357Y0042451D02*
X0097799Y0042451D01*
X0098797Y0043449D02*
X0111357Y0043449D01*
X0111357Y0044448D02*
X0099796Y0044448D01*
X0100794Y0045446D02*
X0111357Y0045446D01*
X0111357Y0046445D02*
X0101793Y0046445D01*
X0102791Y0047443D02*
X0111357Y0047443D01*
X0111357Y0048442D02*
X0103790Y0048442D01*
X0104788Y0049440D02*
X0111357Y0049440D01*
X0111357Y0050439D02*
X0105787Y0050439D01*
X0106785Y0051437D02*
X0111357Y0051437D01*
X0111357Y0052436D02*
X0107609Y0052436D01*
X0107609Y0053434D02*
X0111357Y0053434D01*
X0111943Y0054433D02*
X0107609Y0054433D01*
X0107609Y0055432D02*
X0112941Y0055432D01*
X0113940Y0056430D02*
X0107609Y0056430D01*
X0107609Y0057429D02*
X0114938Y0057429D01*
X0115937Y0058427D02*
X0107609Y0058427D01*
X0107609Y0059426D02*
X0116935Y0059426D01*
X0117007Y0060424D02*
X0107609Y0060424D01*
X0107609Y0061423D02*
X0117007Y0061423D01*
X0117007Y0062421D02*
X0108456Y0062421D01*
X0109455Y0063420D02*
X0117502Y0063420D01*
X0118672Y0064418D02*
X0110453Y0064418D01*
X0111452Y0065417D02*
X0117666Y0065417D01*
X0117204Y0066415D02*
X0112450Y0066415D01*
X0113449Y0067414D02*
X0117204Y0067414D01*
X0117204Y0068412D02*
X0114447Y0068412D01*
X0115446Y0069411D02*
X0117204Y0069411D01*
X0117204Y0070409D02*
X0116444Y0070409D01*
X0117443Y0071408D02*
X0117490Y0071408D01*
X0118441Y0072406D02*
X0119605Y0072406D01*
X0119440Y0073405D02*
X0120604Y0073405D01*
X0120272Y0070811D02*
X0123538Y0074076D01*
X0123538Y0088717D01*
X0124850Y0090030D01*
X0124850Y0099264D01*
X0126087Y0100500D01*
X0135460Y0100500D01*
X0137960Y0103000D01*
X0141619Y0103000D01*
X0146571Y0107953D01*
X0146571Y0111020D01*
X0146540Y0111051D01*
X0148509Y0111051D02*
X0148509Y0106390D01*
X0143119Y0101000D01*
X0141119Y0101000D01*
X0138965Y0098846D01*
X0138965Y0084500D01*
X0138965Y0076500D01*
X0135619Y0073154D01*
X0135619Y0028898D01*
X0140516Y0024000D01*
X0144913Y0022481D02*
X0149487Y0022481D01*
X0149377Y0022819D02*
X0149622Y0022064D01*
X0149982Y0021357D01*
X0150449Y0020715D01*
X0151010Y0020153D01*
X0151653Y0019687D01*
X0152360Y0019326D01*
X0153115Y0019081D01*
X0153796Y0018973D01*
X0153796Y0023500D01*
X0154796Y0023500D01*
X0154796Y0024500D01*
X0159323Y0024500D01*
X0159215Y0025181D01*
X0158970Y0025936D01*
X0158609Y0026643D01*
X0158143Y0027285D01*
X0157581Y0027847D01*
X0156939Y0028313D01*
X0156232Y0028674D01*
X0155477Y0028919D01*
X0154796Y0029027D01*
X0154796Y0024500D01*
X0153796Y0024500D01*
X0153796Y0029027D01*
X0153115Y0028919D01*
X0152360Y0028674D01*
X0151653Y0028313D01*
X0151010Y0027847D01*
X0150449Y0027285D01*
X0149982Y0026643D01*
X0149622Y0025936D01*
X0149377Y0025181D01*
X0149269Y0024500D01*
X0153796Y0024500D01*
X0153796Y0023500D01*
X0149269Y0023500D01*
X0149377Y0022819D01*
X0149272Y0023479D02*
X0145160Y0023479D01*
X0145160Y0024478D02*
X0153796Y0024478D01*
X0153796Y0025476D02*
X0154796Y0025476D01*
X0154796Y0024478D02*
X0163432Y0024478D01*
X0163432Y0023479D02*
X0159320Y0023479D01*
X0159323Y0023500D02*
X0154796Y0023500D01*
X0154796Y0018973D01*
X0155477Y0019081D01*
X0156232Y0019326D01*
X0156939Y0019687D01*
X0157581Y0020153D01*
X0158143Y0020715D01*
X0158609Y0021357D01*
X0158970Y0022064D01*
X0159215Y0022819D01*
X0159323Y0023500D01*
X0159105Y0022481D02*
X0163679Y0022481D01*
X0164092Y0021482D02*
X0158673Y0021482D01*
X0157912Y0020484D02*
X0165025Y0020484D01*
X0166152Y0019357D02*
X0161509Y0024000D01*
X0163661Y0025476D02*
X0159119Y0025476D01*
X0158695Y0026475D02*
X0163338Y0026475D01*
X0162339Y0027473D02*
X0157955Y0027473D01*
X0156628Y0028472D02*
X0161341Y0028472D01*
X0160342Y0029470D02*
X0137309Y0029470D01*
X0137219Y0030469D02*
X0159344Y0030469D01*
X0158345Y0031467D02*
X0137219Y0031467D01*
X0137219Y0032466D02*
X0157347Y0032466D01*
X0156348Y0033464D02*
X0137219Y0033464D01*
X0137219Y0034463D02*
X0155350Y0034463D01*
X0154351Y0035461D02*
X0137219Y0035461D01*
X0137219Y0036460D02*
X0153353Y0036460D01*
X0152354Y0037458D02*
X0137219Y0037458D01*
X0137219Y0038457D02*
X0151356Y0038457D01*
X0150357Y0039455D02*
X0137219Y0039455D01*
X0137219Y0040454D02*
X0149359Y0040454D01*
X0148360Y0041452D02*
X0137219Y0041452D01*
X0137219Y0042451D02*
X0147362Y0042451D01*
X0146363Y0043449D02*
X0137219Y0043449D01*
X0137219Y0044448D02*
X0145365Y0044448D01*
X0144366Y0045446D02*
X0137219Y0045446D01*
X0137219Y0046445D02*
X0143368Y0046445D01*
X0142369Y0047443D02*
X0137219Y0047443D01*
X0137219Y0048442D02*
X0140141Y0048442D01*
X0139143Y0049440D02*
X0137219Y0049440D01*
X0137219Y0050439D02*
X0138144Y0050439D01*
X0137365Y0051437D02*
X0137219Y0051437D01*
X0137219Y0052436D02*
X0137365Y0052436D01*
X0137365Y0053434D02*
X0137219Y0053434D01*
X0137219Y0054433D02*
X0137365Y0054433D01*
X0137365Y0055432D02*
X0137219Y0055432D01*
X0137219Y0056430D02*
X0137365Y0056430D01*
X0137365Y0057429D02*
X0137219Y0057429D01*
X0138965Y0060500D02*
X0138965Y0051881D01*
X0141655Y0049191D01*
X0142884Y0049191D01*
X0168075Y0024000D01*
X0172472Y0022481D02*
X0177458Y0022481D01*
X0177212Y0023076D02*
X0177919Y0021370D01*
X0179225Y0020064D01*
X0180931Y0019357D01*
X0182779Y0019357D01*
X0184485Y0020064D01*
X0185791Y0021370D01*
X0186498Y0023076D01*
X0186498Y0024924D01*
X0185791Y0026630D01*
X0184485Y0027936D01*
X0182779Y0028643D01*
X0180931Y0028643D01*
X0179225Y0027936D01*
X0177919Y0026630D01*
X0177212Y0024924D01*
X0177212Y0023076D01*
X0177212Y0023479D02*
X0172719Y0023479D01*
X0172719Y0024478D02*
X0177212Y0024478D01*
X0177441Y0025476D02*
X0172490Y0025476D01*
X0172719Y0025923D02*
X0169999Y0028643D01*
X0169413Y0028472D02*
X0180517Y0028472D01*
X0178762Y0027473D02*
X0171169Y0027473D01*
X0172076Y0026475D02*
X0177854Y0026475D01*
X0172719Y0025923D02*
X0172719Y0022077D01*
X0169999Y0019357D01*
X0166152Y0019357D01*
X0166842Y0019485D02*
X0156544Y0019485D01*
X0154796Y0019485D02*
X0153796Y0019485D01*
X0153796Y0020484D02*
X0154796Y0020484D01*
X0154796Y0021482D02*
X0153796Y0021482D01*
X0153796Y0022481D02*
X0154796Y0022481D01*
X0154796Y0023479D02*
X0153796Y0023479D01*
X0153796Y0026475D02*
X0154796Y0026475D01*
X0154796Y0027473D02*
X0153796Y0027473D01*
X0153796Y0028472D02*
X0154796Y0028472D01*
X0151963Y0028472D02*
X0141854Y0028472D01*
X0143610Y0027473D02*
X0150637Y0027473D01*
X0149897Y0026475D02*
X0144517Y0026475D01*
X0144931Y0025476D02*
X0149473Y0025476D01*
X0149919Y0021482D02*
X0144499Y0021482D01*
X0143567Y0020484D02*
X0150680Y0020484D01*
X0152048Y0019485D02*
X0141750Y0019485D01*
X0139179Y0028472D02*
X0138307Y0028472D01*
X0156880Y0037458D02*
X0179913Y0037458D01*
X0178915Y0038457D02*
X0155881Y0038457D01*
X0154883Y0039455D02*
X0177916Y0039455D01*
X0176918Y0040454D02*
X0153884Y0040454D01*
X0152886Y0041452D02*
X0175919Y0041452D01*
X0174921Y0042451D02*
X0151887Y0042451D01*
X0150889Y0043449D02*
X0173922Y0043449D01*
X0172924Y0044448D02*
X0149890Y0044448D01*
X0148892Y0045446D02*
X0171925Y0045446D01*
X0170927Y0046445D02*
X0147893Y0046445D01*
X0146895Y0047443D02*
X0169928Y0047443D01*
X0169384Y0050250D02*
X0195634Y0024000D01*
X0191238Y0022481D02*
X0186251Y0022481D01*
X0186498Y0023479D02*
X0190991Y0023479D01*
X0190991Y0024478D02*
X0186498Y0024478D01*
X0186269Y0025476D02*
X0191220Y0025476D01*
X0190897Y0026475D02*
X0185856Y0026475D01*
X0184948Y0027473D02*
X0189899Y0027473D01*
X0188900Y0028472D02*
X0183193Y0028472D01*
X0185905Y0031467D02*
X0162871Y0031467D01*
X0163869Y0030469D02*
X0186903Y0030469D01*
X0187902Y0029470D02*
X0164868Y0029470D01*
X0165866Y0028472D02*
X0166738Y0028472D01*
X0161872Y0032466D02*
X0184906Y0032466D01*
X0183907Y0033464D02*
X0160874Y0033464D01*
X0159875Y0034463D02*
X0182909Y0034463D01*
X0181910Y0035461D02*
X0158877Y0035461D01*
X0157878Y0036460D02*
X0180912Y0036460D01*
X0183440Y0038457D02*
X0186399Y0038457D01*
X0185401Y0039455D02*
X0182442Y0039455D01*
X0181443Y0040454D02*
X0184402Y0040454D01*
X0183404Y0041452D02*
X0180445Y0041452D01*
X0179446Y0042451D02*
X0182405Y0042451D01*
X0181407Y0043449D02*
X0178448Y0043449D01*
X0177449Y0044448D02*
X0180408Y0044448D01*
X0179410Y0045446D02*
X0176451Y0045446D01*
X0175452Y0046445D02*
X0178411Y0046445D01*
X0177413Y0047443D02*
X0174454Y0047443D01*
X0173455Y0048442D02*
X0176414Y0048442D01*
X0175416Y0049440D02*
X0172457Y0049440D01*
X0171458Y0050439D02*
X0174417Y0050439D01*
X0173419Y0051437D02*
X0170984Y0051437D01*
X0170984Y0052436D02*
X0172420Y0052436D01*
X0171421Y0053434D02*
X0170984Y0053434D01*
X0169384Y0053578D02*
X0168543Y0054419D01*
X0155695Y0054419D01*
X0153776Y0052500D01*
X0150965Y0052500D01*
X0150965Y0060500D01*
X0150965Y0065154D01*
X0144908Y0071211D01*
X0144908Y0085539D01*
X0146619Y0087249D01*
X0146619Y0098500D01*
X0152446Y0104327D01*
X0152446Y0111051D01*
X0150477Y0111051D02*
X0150477Y0104858D01*
X0143119Y0097500D01*
X0143119Y0072654D01*
X0138965Y0068500D01*
X0138965Y0060500D01*
X0145819Y0064418D02*
X0149365Y0064418D01*
X0148439Y0065417D02*
X0145914Y0065417D01*
X0146508Y0066415D02*
X0147441Y0066415D01*
X0147042Y0063420D02*
X0148195Y0063420D01*
X0147897Y0062421D02*
X0147341Y0062421D01*
X0147341Y0061423D02*
X0147897Y0061423D01*
X0147897Y0060424D02*
X0147341Y0060424D01*
X0147341Y0059426D02*
X0147897Y0059426D01*
X0147897Y0058427D02*
X0147341Y0058427D01*
X0146890Y0057429D02*
X0148347Y0057429D01*
X0149365Y0056430D02*
X0145972Y0056430D01*
X0147030Y0055432D02*
X0148207Y0055432D01*
X0147700Y0054433D02*
X0147538Y0054433D01*
X0147538Y0053434D02*
X0147700Y0053434D01*
X0147700Y0052436D02*
X0147538Y0052436D01*
X0147538Y0051437D02*
X0147700Y0051437D01*
X0147700Y0050439D02*
X0147538Y0050439D01*
X0146902Y0049440D02*
X0148335Y0049440D01*
X0145896Y0048442D02*
X0154744Y0048442D01*
X0154650Y0049440D02*
X0153595Y0049440D01*
X0154231Y0050439D02*
X0154650Y0050439D01*
X0154976Y0051437D02*
X0157634Y0051437D01*
X0158603Y0051437D02*
X0165634Y0051437D01*
X0165634Y0050439D02*
X0166603Y0050439D01*
X0166603Y0049440D02*
X0165634Y0049440D01*
X0165634Y0048442D02*
X0166603Y0048442D01*
X0169384Y0050250D02*
X0169384Y0053578D01*
X0162453Y0052436D02*
X0161587Y0052436D01*
X0161587Y0050439D02*
X0162453Y0050439D01*
X0162453Y0049440D02*
X0161587Y0049440D01*
X0161494Y0048442D02*
X0162650Y0048442D01*
X0158603Y0048442D02*
X0157634Y0048442D01*
X0157634Y0049440D02*
X0158603Y0049440D01*
X0158603Y0050439D02*
X0157634Y0050439D01*
X0177954Y0054836D02*
X0184291Y0061172D01*
X0184562Y0061172D01*
X0178994Y0066740D02*
X0173361Y0061106D01*
X0173361Y0059413D01*
X0169272Y0057846D02*
X0196775Y0030343D01*
X0220701Y0030343D01*
X0227044Y0024000D01*
X0230398Y0024000D01*
X0226002Y0022481D02*
X0221262Y0022481D01*
X0221262Y0023479D02*
X0225302Y0023479D01*
X0224303Y0024478D02*
X0221262Y0024478D01*
X0221262Y0025476D02*
X0223305Y0025476D01*
X0222306Y0026475D02*
X0221262Y0026475D01*
X0221262Y0027473D02*
X0221308Y0027473D01*
X0223836Y0029470D02*
X0233782Y0029470D01*
X0234742Y0028472D02*
X0231736Y0028472D01*
X0233492Y0027473D02*
X0235702Y0027473D01*
X0236662Y0026475D02*
X0234399Y0026475D01*
X0234813Y0025476D02*
X0237626Y0025476D01*
X0238592Y0024478D02*
X0235042Y0024478D01*
X0235042Y0023479D02*
X0239534Y0023479D01*
X0239781Y0022481D02*
X0234795Y0022481D01*
X0234381Y0021482D02*
X0240195Y0021482D01*
X0241128Y0020484D02*
X0233449Y0020484D01*
X0231632Y0019485D02*
X0242944Y0019485D01*
X0244390Y0018487D02*
X0065119Y0018487D01*
X0065119Y0019485D02*
X0066926Y0019485D01*
X0066875Y0019536D02*
X0067154Y0019256D01*
X0067496Y0019059D01*
X0067878Y0018957D01*
X0071119Y0018957D01*
X0071119Y0023500D01*
X0072119Y0023500D01*
X0072119Y0024500D01*
X0076662Y0024500D01*
X0076662Y0027741D01*
X0076560Y0028122D01*
X0076362Y0028464D01*
X0076083Y0028744D01*
X0075741Y0028941D01*
X0075360Y0029043D01*
X0072119Y0029043D01*
X0072119Y0024500D01*
X0071119Y0024500D01*
X0071119Y0029043D01*
X0067878Y0029043D01*
X0067496Y0028941D01*
X0067154Y0028744D01*
X0066875Y0028464D01*
X0066678Y0028122D01*
X0066575Y0027741D01*
X0066575Y0024500D01*
X0071119Y0024500D01*
X0071119Y0023500D01*
X0066575Y0023500D01*
X0066575Y0020259D01*
X0066678Y0019878D01*
X0066875Y0019536D01*
X0066575Y0020484D02*
X0065119Y0020484D01*
X0065119Y0021482D02*
X0066575Y0021482D01*
X0066575Y0022481D02*
X0065119Y0022481D01*
X0065119Y0023479D02*
X0066575Y0023479D01*
X0065119Y0024478D02*
X0071119Y0024478D01*
X0071619Y0024000D02*
X0071619Y0037373D01*
X0071746Y0037500D01*
X0088336Y0037500D01*
X0104419Y0053583D01*
X0104419Y0068370D01*
X0108619Y0072570D01*
X0108619Y0078889D01*
X0120750Y0091021D01*
X0120750Y0102841D01*
X0122159Y0104250D01*
X0133243Y0104250D01*
X0136697Y0107704D01*
X0136697Y0111051D01*
X0136697Y0115421D01*
X0137988Y0120500D02*
X0130792Y0113304D01*
X0130792Y0111051D01*
X0132760Y0111051D02*
X0132760Y0109142D01*
X0131619Y0108000D01*
X0109590Y0108000D01*
X0109369Y0107779D01*
X0111990Y0104710D02*
X0113405Y0106125D01*
X0132869Y0106125D01*
X0134744Y0108000D01*
X0134744Y0111036D01*
X0134729Y0111051D01*
X0136697Y0110350D02*
X0136698Y0110350D01*
X0136697Y0109351D02*
X0136698Y0109351D01*
X0136697Y0108353D02*
X0136698Y0108353D01*
X0136730Y0107354D02*
X0136344Y0107354D01*
X0136507Y0106356D02*
X0135362Y0106356D01*
X0135509Y0105357D02*
X0134364Y0105357D01*
X0134510Y0104359D02*
X0119260Y0104359D01*
X0119619Y0103360D02*
X0123052Y0103360D01*
X0122053Y0102362D02*
X0119619Y0102362D01*
X0119619Y0101363D02*
X0121450Y0101363D01*
X0121450Y0100365D02*
X0119619Y0100365D01*
X0119619Y0099366D02*
X0121450Y0099366D01*
X0121450Y0098368D02*
X0119922Y0098368D01*
X0120553Y0097369D02*
X0121450Y0097369D01*
X0121450Y0096370D02*
X0120553Y0096370D01*
X0120412Y0095372D02*
X0121450Y0095372D01*
X0121450Y0094373D02*
X0119619Y0094373D01*
X0119619Y0093375D02*
X0121450Y0093375D01*
X0121450Y0092376D02*
X0119619Y0092376D01*
X0118997Y0091378D02*
X0121390Y0091378D01*
X0120392Y0090379D02*
X0117998Y0090379D01*
X0117000Y0089381D02*
X0119393Y0089381D01*
X0118672Y0088382D02*
X0116678Y0088382D01*
X0116423Y0087384D02*
X0117467Y0087384D01*
X0117204Y0086385D02*
X0115424Y0086385D01*
X0114426Y0085387D02*
X0117204Y0085387D01*
X0117204Y0084388D02*
X0113427Y0084388D01*
X0112429Y0083390D02*
X0117204Y0083390D01*
X0117204Y0082391D02*
X0111430Y0082391D01*
X0110432Y0081393D02*
X0117690Y0081393D01*
X0118672Y0080394D02*
X0109433Y0080394D01*
X0108619Y0079396D02*
X0117479Y0079396D01*
X0117007Y0078397D02*
X0108619Y0078397D01*
X0108619Y0077399D02*
X0117007Y0077399D01*
X0117007Y0076400D02*
X0108619Y0076400D01*
X0108619Y0075402D02*
X0116911Y0075402D01*
X0115913Y0074403D02*
X0108522Y0074403D01*
X0108103Y0073405D02*
X0114914Y0073405D01*
X0113916Y0072406D02*
X0107695Y0072406D01*
X0106697Y0071408D02*
X0112917Y0071408D01*
X0111919Y0070409D02*
X0105698Y0070409D01*
X0104700Y0069411D02*
X0110920Y0069411D01*
X0109922Y0068412D02*
X0103894Y0068412D01*
X0103894Y0067414D02*
X0108923Y0067414D01*
X0107925Y0066415D02*
X0103894Y0066415D01*
X0103894Y0065417D02*
X0106926Y0065417D01*
X0105928Y0064418D02*
X0103894Y0064418D01*
X0103894Y0063420D02*
X0104929Y0063420D01*
X0104409Y0062421D02*
X0103894Y0062421D01*
X0103894Y0061423D02*
X0104409Y0061423D01*
X0104409Y0060424D02*
X0103894Y0060424D01*
X0103894Y0059426D02*
X0104409Y0059426D01*
X0104409Y0058427D02*
X0103894Y0058427D01*
X0103894Y0057429D02*
X0104409Y0057429D01*
X0104409Y0056430D02*
X0103894Y0056430D01*
X0103530Y0055432D02*
X0104409Y0055432D01*
X0104409Y0054433D02*
X0102552Y0054433D01*
X0101894Y0053434D02*
X0104257Y0053434D01*
X0103259Y0052436D02*
X0101894Y0052436D01*
X0101708Y0051437D02*
X0102260Y0051437D01*
X0101262Y0050439D02*
X0100709Y0050439D01*
X0100263Y0049440D02*
X0097559Y0049440D01*
X0099264Y0048442D02*
X0079061Y0048442D01*
X0078062Y0047443D02*
X0098266Y0047443D01*
X0097267Y0046445D02*
X0077064Y0046445D01*
X0076065Y0045446D02*
X0096269Y0045446D01*
X0095270Y0044448D02*
X0075067Y0044448D01*
X0074068Y0043449D02*
X0094272Y0043449D01*
X0093273Y0042451D02*
X0073070Y0042451D01*
X0072071Y0041452D02*
X0092275Y0041452D01*
X0091276Y0040454D02*
X0071073Y0040454D01*
X0070074Y0039455D02*
X0090278Y0039455D01*
X0089279Y0038457D02*
X0069076Y0038457D01*
X0068077Y0037458D02*
X0088281Y0037458D01*
X0087282Y0036460D02*
X0067079Y0036460D01*
X0066080Y0035461D02*
X0086284Y0035461D01*
X0085285Y0034463D02*
X0065119Y0034463D01*
X0065119Y0033464D02*
X0084287Y0033464D01*
X0083798Y0032466D02*
X0065119Y0032466D01*
X0065119Y0031467D02*
X0083798Y0031467D01*
X0083798Y0030469D02*
X0065119Y0030469D01*
X0065119Y0029470D02*
X0083798Y0029470D01*
X0083798Y0028472D02*
X0076355Y0028472D01*
X0076662Y0027473D02*
X0082305Y0027473D01*
X0081397Y0026475D02*
X0076662Y0026475D01*
X0076662Y0025476D02*
X0080984Y0025476D01*
X0080755Y0024478D02*
X0072119Y0024478D01*
X0072119Y0023500D02*
X0076662Y0023500D01*
X0076662Y0020259D01*
X0076560Y0019878D01*
X0076362Y0019536D01*
X0076083Y0019256D01*
X0075741Y0019059D01*
X0075360Y0018957D01*
X0072119Y0018957D01*
X0072119Y0023500D01*
X0072119Y0023479D02*
X0071119Y0023479D01*
X0071119Y0022481D02*
X0072119Y0022481D01*
X0072119Y0021482D02*
X0071119Y0021482D01*
X0071119Y0020484D02*
X0072119Y0020484D01*
X0072119Y0019485D02*
X0071119Y0019485D01*
X0076312Y0019485D02*
X0084165Y0019485D01*
X0082348Y0020484D02*
X0076662Y0020484D01*
X0076662Y0021482D02*
X0081415Y0021482D01*
X0081002Y0022481D02*
X0076662Y0022481D01*
X0076662Y0023479D02*
X0080755Y0023479D01*
X0085398Y0024000D02*
X0085398Y0032313D01*
X0106009Y0052924D01*
X0106009Y0062237D01*
X0120272Y0076500D01*
X0120272Y0084500D01*
X0120272Y0087997D01*
X0123050Y0090775D01*
X0123050Y0101096D01*
X0124287Y0102332D01*
X0134746Y0102332D01*
X0137414Y0105000D01*
X0140619Y0105000D01*
X0144571Y0108953D01*
X0144571Y0111051D01*
X0142603Y0111051D02*
X0142603Y0109594D01*
X0141582Y0108573D01*
X0140192Y0108573D01*
X0139119Y0107500D01*
X0140634Y0111051D02*
X0140634Y0120219D01*
X0140915Y0120500D01*
X0141119Y0120335D02*
X0130711Y0120335D01*
X0130711Y0120000D02*
X0130711Y0120955D01*
X0130756Y0121000D01*
X0141119Y0121000D01*
X0141119Y0120000D01*
X0130711Y0120000D01*
X0132760Y0120500D02*
X0132760Y0129949D01*
X0130792Y0129949D01*
X0130792Y0129949D01*
X0130792Y0129949D01*
X0128800Y0129949D01*
X0128800Y0131524D01*
X0128902Y0131906D01*
X0129100Y0132248D01*
X0129379Y0132527D01*
X0129721Y0132725D01*
X0130102Y0132827D01*
X0130792Y0132827D01*
X0130792Y0131613D01*
X0130792Y0131612D01*
X0130792Y0132827D01*
X0131029Y0132827D01*
X0129245Y0134611D01*
X0128129Y0134611D01*
X0126730Y0136010D01*
X0126730Y0137888D01*
X0125195Y0137888D01*
X0124550Y0138533D01*
X0124550Y0143775D01*
X0125064Y0144288D01*
X0124729Y0144481D01*
X0124450Y0144760D01*
X0124252Y0145102D01*
X0124150Y0145484D01*
X0124150Y0145939D01*
X0122437Y0144226D01*
X0122437Y0140033D01*
X0122119Y0139714D01*
X0122119Y0139296D01*
X0122553Y0138862D01*
X0122553Y0136638D01*
X0120981Y0135066D01*
X0118757Y0135066D01*
X0117973Y0135850D01*
X0117130Y0135850D01*
X0116549Y0136431D01*
X0116319Y0136200D01*
X0116319Y0133796D01*
X0115938Y0133415D01*
X0120740Y0133415D01*
X0121384Y0132771D01*
X0121384Y0131600D01*
X0122340Y0131600D01*
X0123129Y0132389D01*
X0125108Y0132389D01*
X0126508Y0130990D01*
X0126508Y0129010D01*
X0125108Y0127611D01*
X0123129Y0127611D01*
X0122340Y0128400D01*
X0121384Y0128400D01*
X0121384Y0127922D01*
X0120740Y0127278D01*
X0115498Y0127278D01*
X0115319Y0127457D01*
X0115319Y0126543D01*
X0115498Y0126722D01*
X0120740Y0126722D01*
X0121384Y0126078D01*
X0121384Y0123144D01*
X0121629Y0123389D01*
X0123608Y0123389D01*
X0125008Y0121990D01*
X0125008Y0120010D01*
X0123608Y0118611D01*
X0121629Y0118611D01*
X0121384Y0118856D01*
X0121384Y0115922D01*
X0120740Y0115278D01*
X0115498Y0115278D01*
X0114853Y0115922D01*
X0114853Y0120330D01*
X0114323Y0119800D01*
X0114323Y0119800D01*
X0113619Y0119096D01*
X0113619Y0110000D01*
X0114019Y0109600D01*
X0114453Y0109600D01*
X0114453Y0111169D01*
X0117634Y0111169D01*
X0117634Y0112138D01*
X0114453Y0112138D01*
X0114453Y0113820D01*
X0114556Y0114201D01*
X0114753Y0114543D01*
X0115032Y0114822D01*
X0115374Y0115020D01*
X0115756Y0115122D01*
X0117634Y0115122D01*
X0117634Y0112138D01*
X0118603Y0112138D01*
X0118603Y0115122D01*
X0120482Y0115122D01*
X0120863Y0115020D01*
X0121205Y0114822D01*
X0121484Y0114543D01*
X0121682Y0114201D01*
X0121784Y0113820D01*
X0121784Y0112138D01*
X0118603Y0112138D01*
X0118603Y0111169D01*
X0121784Y0111169D01*
X0121784Y0109600D01*
X0128800Y0109600D01*
X0128800Y0110050D01*
X0127876Y0110050D01*
X0127231Y0110694D01*
X0127231Y0113002D01*
X0126399Y0113002D01*
X0125755Y0113647D01*
X0125755Y0115542D01*
X0125791Y0115579D01*
X0125755Y0115615D01*
X0125755Y0117511D01*
X0125791Y0117547D01*
X0125755Y0117584D01*
X0125755Y0119479D01*
X0125791Y0119516D01*
X0125755Y0119552D01*
X0125755Y0120955D01*
X0125655Y0121055D01*
X0125457Y0121397D01*
X0125355Y0121779D01*
X0125355Y0122468D01*
X0126570Y0122468D01*
X0126569Y0122469D01*
X0125355Y0122469D01*
X0125355Y0123158D01*
X0125434Y0123453D01*
X0125355Y0123747D01*
X0125355Y0124437D01*
X0126569Y0124437D01*
X0126569Y0124437D01*
X0126569Y0124437D01*
X0125355Y0124437D01*
X0125355Y0125127D01*
X0125434Y0125421D01*
X0125355Y0125716D01*
X0125355Y0126405D01*
X0126569Y0126405D01*
X0126570Y0126406D01*
X0125355Y0126406D01*
X0125355Y0127095D01*
X0125457Y0127477D01*
X0125655Y0127819D01*
X0125934Y0128098D01*
X0126276Y0128295D01*
X0126657Y0128398D01*
X0128233Y0128398D01*
X0128233Y0126406D01*
X0128233Y0126406D01*
X0128233Y0128398D01*
X0128800Y0128398D01*
X0128800Y0129949D01*
X0130792Y0129949D01*
X0132760Y0129949D01*
X0132760Y0129949D01*
X0134729Y0129949D02*
X0135741Y0129949D01*
X0135741Y0131377D01*
X0134119Y0133000D01*
X0133119Y0133000D01*
X0129119Y0137000D01*
X0127428Y0135312D02*
X0121227Y0135312D01*
X0122226Y0136311D02*
X0126730Y0136311D01*
X0126730Y0137309D02*
X0122553Y0137309D01*
X0122553Y0138308D02*
X0124775Y0138308D01*
X0124550Y0139306D02*
X0122119Y0139306D01*
X0122437Y0140305D02*
X0124550Y0140305D01*
X0124550Y0141303D02*
X0122437Y0141303D01*
X0122437Y0142302D02*
X0124550Y0142302D01*
X0124550Y0143301D02*
X0122437Y0143301D01*
X0122510Y0144299D02*
X0125044Y0144299D01*
X0124200Y0145298D02*
X0123509Y0145298D01*
X0122678Y0146729D02*
X0119369Y0143420D01*
X0119369Y0142654D01*
X0127619Y0141154D02*
X0131619Y0145154D01*
X0131619Y0152000D01*
X0135319Y0155700D01*
X0138436Y0155700D01*
X0141359Y0152777D01*
X0141359Y0148618D01*
X0143542Y0148293D02*
X0145507Y0148293D01*
X0145507Y0147295D02*
X0143542Y0147295D01*
X0143542Y0146296D02*
X0145306Y0146296D01*
X0145507Y0146497D02*
X0144940Y0145930D01*
X0144940Y0139982D01*
X0143542Y0139982D01*
X0143542Y0141200D01*
X0142897Y0141844D01*
X0139821Y0141844D01*
X0139489Y0141512D01*
X0139157Y0141844D01*
X0136080Y0141844D01*
X0135749Y0141512D01*
X0135417Y0141844D01*
X0132340Y0141844D01*
X0131696Y0141200D01*
X0131696Y0136686D01*
X0131508Y0136874D01*
X0131508Y0137990D01*
X0130687Y0138810D01*
X0130687Y0141959D01*
X0133219Y0144491D01*
X0133219Y0145156D01*
X0135417Y0145156D01*
X0135466Y0145205D01*
X0135615Y0145056D01*
X0135957Y0144858D01*
X0136339Y0144756D01*
X0137577Y0144756D01*
X0137577Y0148577D01*
X0137660Y0148577D01*
X0137660Y0144756D01*
X0138899Y0144756D01*
X0139280Y0144858D01*
X0139622Y0145056D01*
X0139772Y0145205D01*
X0139821Y0145156D01*
X0142897Y0145156D01*
X0143542Y0145800D01*
X0143542Y0151436D01*
X0142959Y0152019D01*
X0142959Y0153440D01*
X0142022Y0154377D01*
X0140036Y0156363D01*
X0139099Y0157300D01*
X0134656Y0157300D01*
X0130019Y0152663D01*
X0130019Y0151449D01*
X0129785Y0151512D01*
X0128103Y0151512D01*
X0128103Y0148331D01*
X0127134Y0148331D01*
X0127134Y0147362D01*
X0124278Y0147362D01*
X0124278Y0148159D01*
X0124449Y0148331D01*
X0127134Y0148331D01*
X0127134Y0151512D01*
X0126719Y0151512D01*
X0126719Y0152221D01*
X0127508Y0153010D01*
X0127508Y0154990D01*
X0126619Y0155878D01*
X0126619Y0161721D01*
X0127434Y0160905D01*
X0127434Y0159513D01*
X0129007Y0157941D01*
X0131231Y0157941D01*
X0132803Y0159513D01*
X0132803Y0161737D01*
X0131231Y0163309D01*
X0129839Y0163309D01*
X0129569Y0163579D01*
X0129569Y0167201D01*
X0132333Y0164437D01*
X0133329Y0163441D01*
X0134023Y0163441D01*
X0144796Y0152669D01*
X0146204Y0152669D01*
X0154506Y0152669D01*
X0156206Y0150968D01*
X0155949Y0150968D01*
X0155949Y0147984D01*
X0154981Y0147984D01*
X0154981Y0150968D01*
X0153102Y0150968D01*
X0152721Y0150866D01*
X0152379Y0150669D01*
X0152100Y0150390D01*
X0151907Y0150055D01*
X0151393Y0150568D01*
X0146151Y0150568D01*
X0145507Y0149924D01*
X0145507Y0146497D01*
X0145307Y0147000D02*
X0141307Y0143000D01*
X0138119Y0143000D01*
X0137619Y0143500D01*
X0137619Y0148618D01*
X0137577Y0148293D02*
X0137660Y0148293D01*
X0137660Y0147295D02*
X0137577Y0147295D01*
X0137577Y0146296D02*
X0137660Y0146296D01*
X0137660Y0145298D02*
X0137577Y0145298D01*
X0133027Y0144299D02*
X0144940Y0144299D01*
X0144940Y0143301D02*
X0132028Y0143301D01*
X0131030Y0142302D02*
X0144940Y0142302D01*
X0144940Y0141303D02*
X0143438Y0141303D01*
X0143542Y0140305D02*
X0144940Y0140305D01*
X0146540Y0138836D02*
X0146086Y0138382D01*
X0141359Y0138382D01*
X0141535Y0137206D01*
X0141359Y0138382D02*
X0137619Y0138382D01*
X0133879Y0138382D02*
X0133879Y0135490D01*
X0135357Y0134012D01*
X0136654Y0134012D01*
X0130792Y0132317D02*
X0130792Y0132317D01*
X0130541Y0133315D02*
X0120839Y0133315D01*
X0121384Y0132317D02*
X0123057Y0132317D01*
X0125180Y0132317D02*
X0129169Y0132317D01*
X0128800Y0131318D02*
X0126179Y0131318D01*
X0126508Y0130320D02*
X0128800Y0130320D01*
X0128800Y0129321D02*
X0126508Y0129321D01*
X0126378Y0128323D02*
X0125820Y0128323D01*
X0125416Y0127324D02*
X0120786Y0127324D01*
X0121136Y0126326D02*
X0125355Y0126326D01*
X0125409Y0125327D02*
X0121384Y0125327D01*
X0121384Y0124329D02*
X0125355Y0124329D01*
X0125401Y0123330D02*
X0123667Y0123330D01*
X0124665Y0122332D02*
X0125355Y0122332D01*
X0125494Y0121333D02*
X0125008Y0121333D01*
X0125008Y0120335D02*
X0125755Y0120335D01*
X0125755Y0119336D02*
X0124333Y0119336D01*
X0125755Y0118338D02*
X0121384Y0118338D01*
X0121384Y0117339D02*
X0125755Y0117339D01*
X0125755Y0116341D02*
X0121384Y0116341D01*
X0120804Y0115342D02*
X0125755Y0115342D01*
X0125755Y0114344D02*
X0121599Y0114344D01*
X0121784Y0113345D02*
X0126056Y0113345D01*
X0127231Y0112347D02*
X0121784Y0112347D01*
X0121784Y0110350D02*
X0127576Y0110350D01*
X0127231Y0111348D02*
X0118603Y0111348D01*
X0117634Y0111348D02*
X0113619Y0111348D01*
X0113619Y0110350D02*
X0114453Y0110350D01*
X0114453Y0112347D02*
X0113619Y0112347D01*
X0113619Y0113345D02*
X0114453Y0113345D01*
X0114638Y0114344D02*
X0113619Y0114344D01*
X0113619Y0115342D02*
X0115433Y0115342D01*
X0114853Y0116341D02*
X0113619Y0116341D01*
X0113619Y0117339D02*
X0114853Y0117339D01*
X0114853Y0118338D02*
X0113619Y0118338D01*
X0113859Y0119336D02*
X0114853Y0119336D01*
X0117634Y0114344D02*
X0118603Y0114344D01*
X0118603Y0113345D02*
X0117634Y0113345D01*
X0117634Y0112347D02*
X0118603Y0112347D01*
X0104114Y0104710D02*
X0099533Y0109291D01*
X0099533Y0112959D01*
X0102135Y0115562D01*
X0102135Y0123625D01*
X0106272Y0123625D01*
X0109369Y0126721D01*
X0115319Y0127324D02*
X0115451Y0127324D01*
X0118465Y0130000D02*
X0118119Y0130346D01*
X0118465Y0130000D02*
X0124119Y0130000D01*
X0122417Y0128323D02*
X0121384Y0128323D01*
X0128233Y0128323D02*
X0128233Y0128323D01*
X0128233Y0127324D02*
X0128233Y0127324D01*
X0128233Y0126405D02*
X0128233Y0124461D01*
X0128233Y0124437D01*
X0128233Y0122469D01*
X0128233Y0122469D01*
X0128233Y0124437D01*
X0128233Y0124437D01*
X0128233Y0124437D01*
X0128233Y0126405D01*
X0128233Y0126405D01*
X0128233Y0126326D02*
X0128233Y0126326D01*
X0128233Y0125327D02*
X0128233Y0125327D01*
X0128233Y0124329D02*
X0128233Y0124329D01*
X0128233Y0123330D02*
X0128233Y0123330D01*
X0121571Y0123330D02*
X0121384Y0123330D01*
X0135741Y0129949D02*
X0136697Y0129949D01*
X0138666Y0129949D02*
X0140634Y0129949D01*
X0142603Y0129949D02*
X0144571Y0129949D01*
X0146540Y0129949D02*
X0146540Y0138836D01*
X0146540Y0145268D01*
X0148772Y0147500D01*
X0149634Y0144431D02*
X0150603Y0144431D01*
X0150603Y0141581D01*
X0149634Y0141581D01*
X0149634Y0144431D01*
X0149634Y0144299D02*
X0150603Y0144299D01*
X0150119Y0144191D02*
X0155465Y0144191D01*
X0155465Y0147000D01*
X0155403Y0147000D01*
X0155403Y0151785D01*
X0155188Y0152000D01*
X0144682Y0152000D01*
X0144682Y0150632D01*
X0145307Y0150007D01*
X0145307Y0147000D01*
X0144940Y0145298D02*
X0143039Y0145298D01*
X0149634Y0143301D02*
X0150603Y0143301D01*
X0150603Y0142302D02*
X0149634Y0142302D01*
X0150603Y0141581D02*
X0153784Y0141581D01*
X0153784Y0143262D01*
X0153682Y0143644D01*
X0153484Y0143986D01*
X0153439Y0144031D01*
X0154981Y0144031D01*
X0154981Y0147016D01*
X0155949Y0147016D01*
X0155949Y0144165D01*
X0155498Y0144165D01*
X0154853Y0143521D01*
X0154853Y0138672D01*
X0155498Y0138028D01*
X0160419Y0138028D01*
X0160419Y0137472D01*
X0155498Y0137472D01*
X0154853Y0136828D01*
X0154853Y0136104D01*
X0153384Y0136104D01*
X0153384Y0136828D01*
X0152740Y0137472D01*
X0148140Y0137472D01*
X0148140Y0137628D01*
X0149634Y0137628D01*
X0149634Y0140612D01*
X0150603Y0140612D01*
X0150603Y0137628D01*
X0152482Y0137628D01*
X0152863Y0137730D01*
X0153205Y0137928D01*
X0153484Y0138207D01*
X0153682Y0138549D01*
X0153784Y0138930D01*
X0153784Y0140612D01*
X0150603Y0140612D01*
X0150603Y0141581D01*
X0150603Y0141303D02*
X0154853Y0141303D01*
X0154853Y0140305D02*
X0153784Y0140305D01*
X0153784Y0139306D02*
X0154853Y0139306D01*
X0155218Y0138308D02*
X0153543Y0138308D01*
X0152902Y0137309D02*
X0155335Y0137309D01*
X0154853Y0136311D02*
X0153384Y0136311D01*
X0150603Y0138308D02*
X0149634Y0138308D01*
X0149634Y0139306D02*
X0150603Y0139306D01*
X0150603Y0140305D02*
X0149634Y0140305D01*
X0150119Y0141096D02*
X0150119Y0144191D01*
X0153774Y0143301D02*
X0154853Y0143301D01*
X0154853Y0142302D02*
X0153784Y0142302D01*
X0154981Y0144299D02*
X0155949Y0144299D01*
X0155949Y0145298D02*
X0154981Y0145298D01*
X0154981Y0146296D02*
X0155949Y0146296D01*
X0155465Y0147000D02*
X0155465Y0147500D01*
X0154981Y0148293D02*
X0155949Y0148293D01*
X0155949Y0149292D02*
X0154981Y0149292D01*
X0154981Y0150290D02*
X0155949Y0150290D01*
X0155886Y0151289D02*
X0143542Y0151289D01*
X0143542Y0150290D02*
X0145873Y0150290D01*
X0145507Y0149292D02*
X0143542Y0149292D01*
X0144682Y0152000D02*
X0139182Y0157500D01*
X0128119Y0157500D01*
X0127619Y0156000D01*
X0127619Y0147846D01*
X0124460Y0147846D01*
X0124460Y0137199D01*
X0130687Y0139306D02*
X0131696Y0139306D01*
X0131696Y0138308D02*
X0131189Y0138308D01*
X0131508Y0137309D02*
X0131696Y0137309D01*
X0131696Y0140305D02*
X0130687Y0140305D01*
X0130687Y0141303D02*
X0131800Y0141303D01*
X0122678Y0146729D02*
X0122678Y0148832D01*
X0125119Y0151273D01*
X0125119Y0154000D01*
X0126784Y0152287D02*
X0130019Y0152287D01*
X0130642Y0153286D02*
X0127508Y0153286D01*
X0127508Y0154284D02*
X0131640Y0154284D01*
X0132639Y0155283D02*
X0127215Y0155283D01*
X0126619Y0156281D02*
X0133637Y0156281D01*
X0134636Y0157280D02*
X0126619Y0157280D01*
X0126619Y0158278D02*
X0128669Y0158278D01*
X0128119Y0157500D02*
X0121883Y0163736D01*
X0126619Y0161274D02*
X0127066Y0161274D01*
X0127434Y0160275D02*
X0126619Y0160275D01*
X0126619Y0159277D02*
X0127671Y0159277D01*
X0131568Y0158278D02*
X0139186Y0158278D01*
X0139119Y0157280D02*
X0140185Y0157280D01*
X0140118Y0156281D02*
X0141183Y0156281D01*
X0141116Y0155283D02*
X0142182Y0155283D01*
X0142115Y0154284D02*
X0143180Y0154284D01*
X0142959Y0153286D02*
X0144179Y0153286D01*
X0142959Y0152287D02*
X0154888Y0152287D01*
X0152042Y0150290D02*
X0151672Y0150290D01*
X0157119Y0160500D02*
X0162019Y0155600D01*
X0162019Y0126500D01*
X0155099Y0126500D01*
X0155005Y0126406D01*
X0155005Y0124437D02*
X0163819Y0124437D01*
X0163819Y0158064D01*
X0156383Y0165500D01*
X0147603Y0160500D02*
X0142603Y0165500D01*
X0136191Y0161274D02*
X0132803Y0161274D01*
X0132803Y0160275D02*
X0137189Y0160275D01*
X0138188Y0159277D02*
X0132567Y0159277D01*
X0132268Y0162272D02*
X0135192Y0162272D01*
X0134194Y0163271D02*
X0131269Y0163271D01*
X0132501Y0164269D02*
X0129569Y0164269D01*
X0129569Y0165268D02*
X0131502Y0165268D01*
X0130504Y0166266D02*
X0129569Y0166266D01*
X0147603Y0160500D02*
X0157119Y0160500D01*
X0165619Y0160957D02*
X0165619Y0122469D01*
X0155005Y0122469D01*
X0155005Y0120500D02*
X0167619Y0120500D01*
X0167619Y0160000D01*
X0168119Y0160500D01*
X0178942Y0160500D01*
X0183942Y0165500D01*
X0190921Y0158700D02*
X0197721Y0165500D01*
X0202901Y0156900D02*
X0211501Y0165500D01*
X0215467Y0160848D02*
X0209619Y0155000D01*
X0209619Y0152000D01*
X0207619Y0150626D02*
X0203132Y0155113D01*
X0183231Y0155113D01*
X0178350Y0150231D01*
X0178350Y0143532D01*
X0179120Y0142763D01*
X0181450Y0142763D01*
X0181619Y0142594D01*
X0181450Y0140794D02*
X0178543Y0140794D01*
X0177059Y0142278D01*
X0175908Y0142278D01*
X0174408Y0144439D02*
X0173319Y0143350D01*
X0173319Y0124264D01*
X0177666Y0119917D01*
X0177666Y0105650D01*
X0186446Y0096870D01*
X0188100Y0096870D01*
X0191971Y0093000D01*
X0199119Y0093000D01*
X0212652Y0079466D01*
X0214995Y0079466D01*
X0217546Y0076916D01*
X0223534Y0076916D01*
X0224119Y0076500D01*
X0222225Y0073377D02*
X0220591Y0075011D01*
X0217201Y0075011D01*
X0214336Y0077876D01*
X0211243Y0077876D01*
X0198346Y0090773D01*
X0191892Y0090773D01*
X0185397Y0084278D01*
X0178877Y0082242D02*
X0178877Y0081304D01*
X0187990Y0072191D01*
X0189067Y0072191D01*
X0197485Y0080608D01*
X0197485Y0081355D01*
X0199442Y0083313D01*
X0200686Y0085933D02*
X0198051Y0085933D01*
X0190965Y0078846D01*
X0190965Y0078710D01*
X0178877Y0082242D02*
X0175619Y0085500D01*
X0179829Y0089710D01*
X0179829Y0089846D01*
X0185169Y0094000D02*
X0182804Y0096366D01*
X0181727Y0096366D01*
X0172809Y0087449D01*
X0172809Y0084764D01*
X0175096Y0082477D01*
X0175096Y0080477D01*
X0164119Y0069500D01*
X0163483Y0073500D02*
X0159325Y0073500D01*
X0149369Y0083457D01*
X0149994Y0086246D02*
X0148364Y0086246D01*
X0148364Y0097246D01*
X0155005Y0103886D01*
X0155005Y0114594D01*
X0155005Y0116563D02*
X0171619Y0116563D01*
X0171619Y0103907D01*
X0168694Y0100982D01*
X0176202Y0103412D02*
X0176202Y0097355D01*
X0174261Y0095414D01*
X0185169Y0094000D02*
X0186619Y0094000D01*
X0192720Y0095000D02*
X0186854Y0100866D01*
X0184699Y0100866D01*
X0181985Y0103581D01*
X0181985Y0109419D01*
X0184699Y0112134D01*
X0188538Y0112134D01*
X0190379Y0110293D01*
X0197576Y0110293D01*
X0197213Y0114350D02*
X0197049Y0114350D01*
X0190908Y0116994D02*
X0183124Y0116994D01*
X0177772Y0122346D01*
X0177772Y0126000D01*
X0177619Y0126000D01*
X0177772Y0126000D02*
X0177772Y0135920D01*
X0178541Y0136689D01*
X0181619Y0136689D01*
X0183717Y0136689D01*
X0185556Y0134850D01*
X0185556Y0132752D01*
X0187524Y0132752D02*
X0187524Y0128617D01*
X0187971Y0128170D01*
X0187971Y0123580D01*
X0187082Y0122691D01*
X0183968Y0122691D01*
X0182499Y0121222D01*
X0171619Y0116563D02*
X0171619Y0156000D01*
X0172519Y0156900D01*
X0202901Y0156900D01*
X0201619Y0153500D02*
X0195119Y0153500D01*
X0193430Y0151811D01*
X0193430Y0148500D01*
X0196345Y0150774D02*
X0196345Y0145585D01*
X0197367Y0144563D01*
X0199119Y0147000D02*
X0199119Y0148000D01*
X0199119Y0147000D02*
X0200619Y0145500D01*
X0200619Y0141500D01*
X0199745Y0140626D01*
X0197367Y0140626D01*
X0197367Y0138657D02*
X0202430Y0138657D01*
X0204272Y0139500D01*
X0189493Y0140626D02*
X0189109Y0141010D01*
X0189493Y0141394D01*
X0189493Y0132752D01*
X0191461Y0132752D02*
X0191461Y0129385D01*
X0195657Y0129385D01*
X0199119Y0132846D01*
X0207619Y0132846D02*
X0207619Y0150626D01*
X0204272Y0150846D02*
X0201619Y0153500D01*
X0204272Y0150846D02*
X0204272Y0147500D01*
X0189493Y0148500D02*
X0189493Y0141394D01*
X0189109Y0141010D02*
X0185556Y0144563D01*
X0181619Y0144563D01*
X0174408Y0144439D02*
X0174408Y0153000D01*
X0169619Y0158000D02*
X0169619Y0118531D01*
X0155005Y0118531D01*
X0181619Y0128846D02*
X0181619Y0133500D01*
X0181619Y0128846D02*
X0184465Y0126000D01*
X0197213Y0120650D02*
X0199119Y0122555D01*
X0199119Y0126154D01*
X0204968Y0123353D02*
X0207619Y0126004D01*
X0207619Y0126154D01*
X0204968Y0123353D02*
X0204968Y0117946D01*
X0205730Y0117184D01*
X0206190Y0117184D01*
X0209024Y0114350D01*
X0213119Y0117500D02*
X0213119Y0110500D01*
X0220619Y0112500D02*
X0220619Y0106654D01*
X0220772Y0106500D01*
X0217119Y0103000D02*
X0217119Y0126783D01*
X0219178Y0128843D01*
X0232028Y0128843D01*
X0232028Y0126874D02*
X0231950Y0126796D01*
X0230285Y0126796D01*
X0228489Y0125000D01*
X0228119Y0125000D01*
X0228119Y0121500D02*
X0225965Y0121500D01*
X0222119Y0125346D01*
X0224016Y0130443D02*
X0218516Y0130443D01*
X0218516Y0130429D01*
X0215528Y0127442D01*
X0215528Y0102341D01*
X0218460Y0099409D01*
X0231209Y0099409D01*
X0240119Y0090500D01*
X0240119Y0078000D01*
X0266659Y0051459D01*
X0266659Y0050334D01*
X0266659Y0049500D01*
X0266659Y0029168D01*
X0264528Y0027037D01*
X0264528Y0021341D01*
X0268460Y0017409D01*
X0313778Y0017409D01*
X0317719Y0021350D01*
X0317719Y0025923D01*
X0314999Y0028643D01*
X0311152Y0028643D01*
X0306509Y0024000D01*
X0299296Y0024000D01*
X0308119Y0019000D02*
X0269119Y0019000D01*
X0266119Y0022000D01*
X0266119Y0026378D01*
X0268159Y0028419D01*
X0268159Y0052081D01*
X0241619Y0078621D01*
X0241619Y0091121D01*
X0231740Y0101000D01*
X0219119Y0101000D01*
X0217119Y0103000D01*
X0227465Y0106500D02*
X0228056Y0105909D01*
X0235276Y0105909D01*
X0239213Y0105909D02*
X0239213Y0095648D01*
X0243119Y0091743D01*
X0243119Y0079243D01*
X0260250Y0062112D01*
X0265007Y0062112D01*
X0266119Y0061000D01*
X0259619Y0067000D02*
X0308194Y0067000D01*
X0309619Y0065575D01*
X0309619Y0055500D01*
X0308619Y0054500D01*
X0305595Y0054500D01*
X0321619Y0052000D02*
X0321619Y0059500D01*
X0321619Y0075555D01*
X0302154Y0075555D01*
X0300209Y0077500D01*
X0288119Y0077500D01*
X0286619Y0079000D01*
X0286619Y0102382D01*
X0283872Y0105128D01*
X0283872Y0105500D01*
X0283619Y0105500D01*
X0282334Y0106784D01*
X0269939Y0106784D01*
X0267834Y0106784D01*
X0265119Y0109500D01*
X0264007Y0109500D01*
X0263274Y0110233D01*
X0263108Y0110233D01*
X0262119Y0111222D01*
X0260239Y0109157D02*
X0258209Y0109157D01*
X0260239Y0109157D02*
X0260963Y0108433D01*
X0261130Y0108433D01*
X0262119Y0107444D01*
X0260275Y0105909D02*
X0254961Y0105909D01*
X0251024Y0105909D02*
X0251024Y0084902D01*
X0255331Y0080595D01*
X0255331Y0074412D01*
X0255494Y0073750D01*
X0264752Y0074627D02*
X0265741Y0075616D01*
X0271642Y0075616D01*
X0278764Y0082738D01*
X0278764Y0096495D01*
X0279688Y0097419D01*
X0281041Y0100071D02*
X0283761Y0097351D01*
X0283761Y0095937D01*
X0275975Y0095789D02*
X0275975Y0082494D01*
X0270896Y0077416D01*
X0259534Y0077416D01*
X0259119Y0077000D01*
X0252247Y0076817D02*
X0249056Y0080009D01*
X0249056Y0105909D01*
X0245119Y0105909D02*
X0245119Y0116974D01*
X0245061Y0117031D01*
X0232028Y0117031D01*
X0230087Y0117031D01*
X0228465Y0118654D01*
X0222119Y0118654D01*
X0228119Y0121500D02*
X0230619Y0119000D01*
X0232028Y0119000D01*
X0232028Y0115063D02*
X0231965Y0115000D01*
X0227119Y0115000D01*
X0213119Y0117500D02*
X0209969Y0120650D01*
X0209024Y0120650D01*
X0224016Y0130443D02*
X0225664Y0132091D01*
X0235276Y0132091D01*
X0237167Y0132169D02*
X0237245Y0132091D01*
X0245119Y0132091D02*
X0245119Y0119000D01*
X0258209Y0119000D01*
X0258209Y0120969D02*
X0273416Y0120969D01*
X0273470Y0120914D01*
X0271549Y0122937D02*
X0272315Y0123703D01*
X0273322Y0123703D01*
X0274619Y0125000D01*
X0271549Y0122937D02*
X0258209Y0122937D01*
X0258209Y0124906D02*
X0261024Y0124906D01*
X0262119Y0126000D01*
X0263830Y0129262D02*
X0266092Y0127000D01*
X0263830Y0129262D02*
X0263830Y0131955D01*
X0263694Y0132091D01*
X0254961Y0132091D01*
X0253071Y0132169D02*
X0253071Y0133834D01*
X0254237Y0135000D01*
X0264129Y0135000D01*
X0264718Y0135589D01*
X0269708Y0135589D01*
X0270119Y0136000D01*
X0275885Y0136000D01*
X0276875Y0135010D01*
X0283984Y0135010D01*
X0305398Y0156424D01*
X0305398Y0165500D01*
X0317928Y0165500D02*
X0319178Y0165500D01*
X0317928Y0165500D02*
X0285081Y0132653D01*
X0268910Y0132653D01*
X0267774Y0133789D01*
X0265463Y0133789D01*
X0263830Y0132155D01*
X0263830Y0131955D01*
X0266619Y0131000D02*
X0267937Y0129681D01*
X0284938Y0129681D01*
X0313859Y0158603D01*
X0326060Y0158603D01*
X0332957Y0165500D01*
X0348119Y0159980D02*
X0353826Y0159980D01*
X0356940Y0156866D01*
X0401253Y0156866D01*
X0406060Y0152059D01*
X0420218Y0152059D01*
X0422699Y0149578D01*
X0422699Y0137580D01*
X0421587Y0136469D01*
X0419926Y0136469D01*
X0417453Y0137453D02*
X0417274Y0137274D01*
X0411177Y0143431D01*
X0411893Y0143431D01*
X0412407Y0143945D01*
X0412600Y0143610D01*
X0412879Y0143331D01*
X0413221Y0143134D01*
X0413602Y0143031D01*
X0415481Y0143031D01*
X0415481Y0146016D01*
X0416449Y0146016D01*
X0416449Y0143031D01*
X0418328Y0143031D01*
X0418710Y0143134D01*
X0419052Y0143331D01*
X0419331Y0143610D01*
X0419528Y0143953D01*
X0419631Y0144334D01*
X0419631Y0146016D01*
X0416450Y0146016D01*
X0416450Y0146984D01*
X0419631Y0146984D01*
X0419631Y0148666D01*
X0419528Y0149047D01*
X0419331Y0149390D01*
X0419052Y0149669D01*
X0418710Y0149866D01*
X0418328Y0149968D01*
X0416449Y0149968D01*
X0416449Y0146984D01*
X0415481Y0146984D01*
X0415481Y0149968D01*
X0413602Y0149968D01*
X0413221Y0149866D01*
X0412879Y0149669D01*
X0412600Y0149390D01*
X0412407Y0149055D01*
X0411893Y0149568D01*
X0409865Y0149568D01*
X0409821Y0150459D01*
X0419555Y0150459D01*
X0421099Y0148915D01*
X0421099Y0140088D01*
X0418120Y0140088D01*
X0417153Y0139121D01*
X0417153Y0137753D01*
X0417453Y0137453D01*
X0417153Y0137152D01*
X0417153Y0135785D01*
X0417453Y0135484D01*
X0417153Y0135184D01*
X0417153Y0135000D01*
X0411085Y0135000D01*
X0411085Y0135184D01*
X0410118Y0136151D01*
X0407167Y0136151D01*
X0407119Y0136199D01*
X0407119Y0136786D01*
X0410118Y0136786D01*
X0411085Y0137753D01*
X0411085Y0139121D01*
X0410118Y0140088D01*
X0409812Y0140088D01*
X0409812Y0143431D01*
X0411893Y0143431D01*
X0412538Y0144076D01*
X0412538Y0148924D01*
X0411893Y0149568D01*
X0406651Y0149568D01*
X0406007Y0148924D01*
X0406007Y0144076D01*
X0406651Y0143431D01*
X0406812Y0143431D01*
X0406812Y0141307D01*
X0406119Y0142000D01*
X0405187Y0142000D01*
X0405187Y0143775D01*
X0404543Y0144419D01*
X0399695Y0144419D01*
X0399050Y0143775D01*
X0399050Y0143054D01*
X0396884Y0143054D01*
X0396884Y0143578D01*
X0396240Y0144222D01*
X0393619Y0144222D01*
X0393619Y0150500D01*
X0419763Y0150251D01*
X0421099Y0148915D01*
X0421099Y0140088D01*
X0418120Y0140088D01*
X0417153Y0139121D01*
X0417153Y0137753D01*
X0417453Y0137453D01*
X0417310Y0137309D02*
X0417239Y0137309D01*
X0417310Y0137309D02*
X0410641Y0137309D01*
X0411085Y0138308D02*
X0417153Y0138308D01*
X0416250Y0138308D01*
X0415261Y0139306D02*
X0417338Y0139306D01*
X0410899Y0139306D01*
X0411757Y0140248D02*
X0413331Y0140248D01*
X0414273Y0140305D02*
X0421099Y0140305D01*
X0409812Y0140305D01*
X0409812Y0141303D02*
X0421099Y0141303D01*
X0413284Y0141303D01*
X0412295Y0142302D02*
X0421099Y0142302D01*
X0409812Y0142302D01*
X0409812Y0143301D02*
X0421099Y0143301D01*
X0418998Y0143301D01*
X0419619Y0142500D02*
X0414119Y0137000D01*
X0413587Y0136469D01*
X0408312Y0136469D01*
X0406708Y0136469D01*
X0405538Y0137638D01*
X0405538Y0139121D01*
X0405548Y0139130D01*
X0405548Y0144641D01*
X0402146Y0148043D01*
X0406007Y0148293D02*
X0393619Y0148293D01*
X0393619Y0147846D02*
X0397296Y0148024D01*
X0393619Y0147295D02*
X0406007Y0147295D01*
X0406007Y0146296D02*
X0393619Y0146296D01*
X0393619Y0145298D02*
X0406007Y0145298D01*
X0406007Y0144299D02*
X0404663Y0144299D01*
X0405187Y0143301D02*
X0406812Y0143301D01*
X0406812Y0142302D02*
X0405187Y0142302D01*
X0403457Y0139815D02*
X0402119Y0141154D01*
X0403457Y0139815D02*
X0403457Y0137598D01*
X0406504Y0134551D01*
X0408260Y0134551D01*
X0408312Y0134500D01*
X0408312Y0132531D02*
X0401772Y0132531D01*
X0401772Y0133500D01*
X0403480Y0135312D02*
X0380619Y0135312D01*
X0380619Y0134314D02*
X0404479Y0134314D01*
X0405477Y0133315D02*
X0380619Y0133315D01*
X0380619Y0132317D02*
X0409751Y0132317D01*
X0409751Y0132214D02*
X0406506Y0132214D01*
X0406291Y0132000D01*
X0406119Y0132000D01*
X0403619Y0129000D01*
X0380619Y0129000D01*
X0380619Y0150500D01*
X0390583Y0150500D01*
X0390353Y0150271D01*
X0390353Y0145422D01*
X0390998Y0144778D01*
X0392019Y0144778D01*
X0392019Y0144222D01*
X0390998Y0144222D01*
X0390353Y0143578D01*
X0390353Y0143054D01*
X0388634Y0143054D01*
X0388634Y0143578D01*
X0387990Y0144222D01*
X0382748Y0144222D01*
X0382761Y0144222D01*
X0385369Y0146830D01*
X0385369Y0147846D01*
X0380619Y0148293D02*
X0390353Y0148293D01*
X0390353Y0147295D02*
X0380619Y0147295D01*
X0380619Y0146296D02*
X0390353Y0146296D01*
X0390478Y0145298D02*
X0380619Y0145298D01*
X0380619Y0144299D02*
X0392019Y0144299D01*
X0393619Y0144299D02*
X0399575Y0144299D01*
X0399050Y0143301D02*
X0396884Y0143301D01*
X0390353Y0143301D02*
X0388634Y0143301D01*
X0382748Y0144222D02*
X0382103Y0143578D01*
X0382103Y0138729D01*
X0382748Y0138085D01*
X0387990Y0138085D01*
X0388634Y0138729D01*
X0388634Y0139254D01*
X0390353Y0139254D01*
X0390353Y0138729D01*
X0390998Y0138085D01*
X0392619Y0138085D01*
X0392619Y0137000D01*
X0401857Y0137000D01*
X0401857Y0136935D01*
X0402795Y0135998D01*
X0405842Y0132951D01*
X0406403Y0132951D01*
X0406506Y0132849D01*
X0409751Y0132849D01*
X0409751Y0132214D01*
X0409751Y0130400D02*
X0409751Y0129812D01*
X0410119Y0129444D01*
X0410119Y0127000D01*
X0410204Y0126915D01*
X0410204Y0126722D01*
X0410848Y0126077D01*
X0411042Y0126077D01*
X0413869Y0123250D01*
X0413869Y0108250D01*
X0406619Y0108250D01*
X0406619Y0130101D01*
X0406868Y0130400D01*
X0409751Y0130400D01*
X0409751Y0130320D02*
X0406801Y0130320D01*
X0406619Y0129321D02*
X0410119Y0129321D01*
X0410119Y0128323D02*
X0406619Y0128323D01*
X0406619Y0127324D02*
X0410119Y0127324D01*
X0410599Y0126326D02*
X0406619Y0126326D01*
X0406619Y0125327D02*
X0411791Y0125327D01*
X0412790Y0124329D02*
X0406619Y0124329D01*
X0406619Y0123330D02*
X0413788Y0123330D01*
X0413869Y0122332D02*
X0406619Y0122332D01*
X0406619Y0121333D02*
X0413869Y0121333D01*
X0413869Y0120335D02*
X0406619Y0120335D01*
X0406619Y0119336D02*
X0413869Y0119336D01*
X0413869Y0118338D02*
X0406619Y0118338D01*
X0406619Y0117339D02*
X0413869Y0117339D01*
X0413869Y0116341D02*
X0406619Y0116341D01*
X0406619Y0115342D02*
X0413869Y0115342D01*
X0413869Y0114344D02*
X0406619Y0114344D01*
X0406619Y0113345D02*
X0413869Y0113345D01*
X0413869Y0112347D02*
X0406619Y0112347D01*
X0406619Y0111348D02*
X0413869Y0111348D01*
X0413869Y0110350D02*
X0406619Y0110350D01*
X0406619Y0109351D02*
X0413869Y0109351D01*
X0413869Y0108353D02*
X0406619Y0108353D01*
X0404619Y0108353D02*
X0370498Y0108353D01*
X0370047Y0108803D02*
X0369969Y0108803D01*
X0369969Y0109913D01*
X0369031Y0110850D01*
X0365972Y0113909D01*
X0363328Y0113909D01*
X0363139Y0114098D01*
X0359078Y0114098D01*
X0358434Y0113454D01*
X0358434Y0111164D01*
X0359078Y0110520D01*
X0363139Y0110520D01*
X0363328Y0110709D01*
X0364647Y0110709D01*
X0366622Y0108734D01*
X0364946Y0107059D01*
X0363784Y0107059D01*
X0363784Y0108336D01*
X0363139Y0108980D01*
X0359078Y0108980D01*
X0358434Y0108336D01*
X0358434Y0106871D01*
X0358119Y0106871D01*
X0358119Y0119466D01*
X0359274Y0119466D01*
X0360629Y0118111D01*
X0362608Y0118111D01*
X0364008Y0119510D01*
X0364008Y0121490D01*
X0362608Y0122889D01*
X0360629Y0122889D01*
X0360206Y0122466D01*
X0359316Y0122466D01*
X0360671Y0123821D01*
X0360671Y0125000D01*
X0371200Y0125000D01*
X0371200Y0123342D01*
X0371844Y0122697D01*
X0377874Y0122697D01*
X0378518Y0123342D01*
X0378518Y0125000D01*
X0404619Y0125000D01*
X0404619Y0107000D01*
X0400619Y0102000D01*
X0371350Y0102000D01*
X0372421Y0103071D01*
X0372421Y0106429D01*
X0370047Y0108803D01*
X0369969Y0109351D02*
X0404619Y0109351D01*
X0404619Y0110350D02*
X0369532Y0110350D01*
X0368533Y0111348D02*
X0404619Y0111348D01*
X0404619Y0112347D02*
X0367535Y0112347D01*
X0366536Y0113345D02*
X0404619Y0113345D01*
X0404619Y0114344D02*
X0358119Y0114344D01*
X0358119Y0115342D02*
X0404619Y0115342D01*
X0404619Y0116341D02*
X0358119Y0116341D01*
X0358119Y0117339D02*
X0404619Y0117339D01*
X0404619Y0118338D02*
X0362835Y0118338D01*
X0363833Y0119336D02*
X0404619Y0119336D01*
X0404619Y0120335D02*
X0364008Y0120335D01*
X0364008Y0121333D02*
X0404619Y0121333D01*
X0404619Y0122332D02*
X0363165Y0122332D01*
X0360180Y0123330D02*
X0371211Y0123330D01*
X0371200Y0124329D02*
X0360671Y0124329D01*
X0359404Y0119336D02*
X0358119Y0119336D01*
X0358119Y0118338D02*
X0360402Y0118338D01*
X0358416Y0117730D02*
X0358416Y0109750D01*
X0353629Y0109750D01*
X0358119Y0109351D02*
X0366005Y0109351D01*
X0366240Y0108353D02*
X0363767Y0108353D01*
X0363784Y0107354D02*
X0365241Y0107354D01*
X0368369Y0109250D02*
X0368369Y0104759D01*
X0368369Y0104750D01*
X0371496Y0107354D02*
X0404619Y0107354D01*
X0404103Y0106356D02*
X0372421Y0106356D01*
X0372421Y0105357D02*
X0403304Y0105357D01*
X0402506Y0104359D02*
X0372421Y0104359D01*
X0372421Y0103360D02*
X0401707Y0103360D01*
X0400908Y0102362D02*
X0371712Y0102362D01*
X0361109Y0107191D02*
X0359189Y0105271D01*
X0353834Y0105271D01*
X0352323Y0103760D01*
X0349056Y0103760D01*
X0358119Y0107354D02*
X0358434Y0107354D01*
X0358451Y0108353D02*
X0358119Y0108353D01*
X0358119Y0110350D02*
X0365006Y0110350D01*
X0365310Y0112309D02*
X0361109Y0112309D01*
X0358434Y0112347D02*
X0358119Y0112347D01*
X0358119Y0113345D02*
X0358434Y0113345D01*
X0358434Y0111348D02*
X0358119Y0111348D01*
X0365310Y0112309D02*
X0368369Y0109250D01*
X0336306Y0105187D02*
X0333462Y0102343D01*
X0332192Y0102343D01*
X0330597Y0100748D01*
X0330597Y0093505D01*
X0324092Y0087000D01*
X0314965Y0087000D01*
X0308272Y0087000D02*
X0304122Y0082850D01*
X0304122Y0080497D01*
X0303519Y0081100D01*
X0292019Y0081100D01*
X0290619Y0082500D01*
X0290619Y0090000D01*
X0290629Y0090010D01*
X0290629Y0106954D01*
X0291390Y0107715D01*
X0296334Y0107715D01*
X0298469Y0109850D01*
X0298469Y0112724D01*
X0288419Y0105315D02*
X0285734Y0107999D01*
X0283369Y0107999D01*
X0282784Y0108584D01*
X0269193Y0108584D01*
X0265589Y0112188D01*
X0265589Y0116125D01*
X0265124Y0116125D01*
X0265119Y0116120D01*
X0265124Y0116125D02*
X0263244Y0116125D01*
X0262119Y0115000D01*
X0245119Y0116974D02*
X0245119Y0119000D01*
X0269939Y0106784D02*
X0269939Y0106784D01*
X0261129Y0105055D02*
X0279955Y0105055D01*
X0282594Y0102416D01*
X0282640Y0102416D01*
X0283830Y0101226D01*
X0281041Y0101424D02*
X0281041Y0100071D01*
X0281041Y0101424D02*
X0279280Y0103184D01*
X0267878Y0103184D01*
X0264545Y0099851D01*
X0262119Y0102285D02*
X0262119Y0091127D01*
X0258592Y0087600D01*
X0258592Y0084321D01*
X0258573Y0084302D01*
X0258573Y0082323D01*
X0260396Y0080500D01*
X0269619Y0080500D01*
X0261144Y0083494D02*
X0260962Y0083313D01*
X0261144Y0083494D02*
X0261144Y0087903D01*
X0268489Y0095248D01*
X0268489Y0099851D01*
X0272267Y0099970D02*
X0272267Y0094664D01*
X0264228Y0086625D01*
X0288419Y0081263D02*
X0290381Y0079300D01*
X0300955Y0079300D01*
X0302900Y0077355D01*
X0319974Y0077355D01*
X0322234Y0079615D01*
X0331323Y0079615D01*
X0332084Y0078853D01*
X0332084Y0076871D01*
X0337594Y0076871D01*
X0338119Y0076346D01*
X0332084Y0076871D02*
X0332084Y0073839D01*
X0331323Y0073078D01*
X0326071Y0073078D01*
X0325153Y0072161D01*
X0325153Y0066989D01*
X0327642Y0064500D01*
X0330161Y0061981D01*
X0330999Y0061981D01*
X0349703Y0043278D01*
X0349703Y0024000D01*
X0340634Y0024000D01*
X0349703Y0024000D02*
X0349703Y0023845D01*
X0358048Y0015500D01*
X0373831Y0015500D01*
X0376619Y0018288D01*
X0376619Y0023000D01*
X0379119Y0025500D01*
X0384119Y0025500D01*
X0389119Y0020500D01*
X0381619Y0020500D02*
X0373494Y0012375D01*
X0352244Y0012375D01*
X0346119Y0018500D01*
X0334119Y0018500D01*
X0333119Y0019500D01*
X0333119Y0024000D01*
X0326855Y0024000D01*
X0333119Y0024000D02*
X0333119Y0051000D01*
X0332119Y0052000D01*
X0321619Y0052000D01*
X0321619Y0059500D02*
X0327642Y0059500D01*
X0334653Y0060640D02*
X0334653Y0063119D01*
X0328619Y0069654D01*
X0338119Y0069654D02*
X0345791Y0060981D01*
X0345791Y0052048D01*
X0346553Y0051287D01*
X0354716Y0051287D01*
X0380871Y0077442D01*
X0380871Y0093257D01*
X0384099Y0096484D01*
X0409463Y0087500D02*
X0411573Y0085390D01*
X0411573Y0080783D01*
X0417046Y0075810D01*
X0419279Y0076748D01*
X0411245Y0068874D02*
X0409306Y0070813D01*
X0411245Y0068874D02*
X0419279Y0068874D01*
X0415230Y0061000D02*
X0411174Y0065056D01*
X0415230Y0061000D02*
X0419279Y0061000D01*
X0394099Y0077980D02*
X0389119Y0073000D01*
X0379475Y0073000D01*
X0355462Y0049487D01*
X0345807Y0049487D01*
X0334653Y0060640D01*
X0328327Y0075555D02*
X0321619Y0075555D01*
X0328327Y0075555D02*
X0328619Y0076346D01*
X0288419Y0081263D02*
X0288419Y0105315D01*
X0301619Y0104250D02*
X0305369Y0104250D01*
X0306828Y0105710D01*
X0321401Y0105710D01*
X0323128Y0107437D01*
X0334144Y0107437D01*
X0336306Y0105187D01*
X0328994Y0103625D02*
X0307869Y0103625D01*
X0301931Y0097687D01*
X0294522Y0097687D01*
X0261129Y0105055D02*
X0260275Y0105909D01*
X0244119Y0099851D02*
X0242017Y0099851D01*
X0241182Y0100687D01*
X0241182Y0105909D01*
X0241250Y0105841D01*
X0223855Y0096622D02*
X0223619Y0096858D01*
X0223855Y0096622D02*
X0230418Y0096622D01*
X0237119Y0089921D01*
X0237119Y0079524D01*
X0222225Y0073377D02*
X0222225Y0069366D01*
X0225436Y0066155D01*
X0219436Y0072222D02*
X0217741Y0072222D01*
X0213678Y0076285D01*
X0210333Y0076285D01*
X0200686Y0085933D01*
X0200119Y0095000D02*
X0214062Y0081057D01*
X0215654Y0081057D01*
X0216711Y0080000D01*
X0219119Y0080000D01*
X0200119Y0095000D02*
X0192720Y0095000D01*
X0162291Y0083443D02*
X0155778Y0083443D01*
X0154826Y0082491D01*
X0153749Y0082491D01*
X0149994Y0086246D01*
X0148364Y0086246D02*
X0146499Y0084380D01*
X0146499Y0071870D01*
X0154274Y0064094D01*
X0154274Y0061691D01*
X0158119Y0057846D01*
X0166119Y0057846D01*
X0169272Y0057846D01*
X0166927Y0065808D02*
X0173426Y0072308D01*
X0167859Y0077875D02*
X0163483Y0073500D01*
X0166927Y0065808D02*
X0166927Y0065808D01*
X0127919Y0072406D02*
X0124131Y0072406D01*
X0124200Y0072476D02*
X0124200Y0072476D01*
X0124183Y0071408D02*
X0123132Y0071408D01*
X0123341Y0070409D02*
X0123897Y0070409D01*
X0123897Y0069411D02*
X0123341Y0069411D01*
X0123341Y0068412D02*
X0123897Y0068412D01*
X0123897Y0067414D02*
X0123341Y0067414D01*
X0123341Y0066415D02*
X0123897Y0066415D01*
X0124359Y0065417D02*
X0122878Y0065417D01*
X0121872Y0064418D02*
X0127230Y0064418D01*
X0124195Y0063420D02*
X0123042Y0063420D01*
X0123538Y0062421D02*
X0123700Y0062421D01*
X0123700Y0061423D02*
X0123538Y0061423D01*
X0123538Y0060424D02*
X0123700Y0060424D01*
X0123700Y0059426D02*
X0123538Y0059426D01*
X0123538Y0058427D02*
X0123700Y0058427D01*
X0120272Y0060500D02*
X0112957Y0053185D01*
X0112957Y0024000D01*
X0108561Y0022481D02*
X0103574Y0022481D01*
X0103821Y0023479D02*
X0108314Y0023479D01*
X0108314Y0024478D02*
X0103821Y0024478D01*
X0103592Y0025476D02*
X0108543Y0025476D01*
X0108956Y0026475D02*
X0103179Y0026475D01*
X0102271Y0027473D02*
X0109864Y0027473D01*
X0108974Y0021482D02*
X0103161Y0021482D01*
X0102228Y0020484D02*
X0109907Y0020484D01*
X0111724Y0019485D02*
X0100411Y0019485D01*
X0097944Y0019485D02*
X0086632Y0019485D01*
X0088449Y0020484D02*
X0096128Y0020484D01*
X0095195Y0021482D02*
X0089381Y0021482D01*
X0089795Y0022481D02*
X0094781Y0022481D01*
X0094534Y0023479D02*
X0090042Y0023479D01*
X0090042Y0024478D02*
X0094534Y0024478D01*
X0094763Y0025476D02*
X0089813Y0025476D01*
X0089399Y0026475D02*
X0095177Y0026475D01*
X0096084Y0027473D02*
X0088492Y0027473D01*
X0072119Y0027473D02*
X0071119Y0027473D01*
X0071119Y0026475D02*
X0072119Y0026475D01*
X0072119Y0025476D02*
X0071119Y0025476D01*
X0066575Y0025476D02*
X0065119Y0025476D01*
X0065119Y0026475D02*
X0066575Y0026475D01*
X0066575Y0027473D02*
X0065119Y0027473D01*
X0065119Y0028472D02*
X0066883Y0028472D01*
X0071119Y0028472D02*
X0072119Y0028472D01*
X0062119Y0024000D02*
X0060772Y0022654D01*
X0057119Y0022654D01*
X0051736Y0022654D01*
X0051631Y0022548D01*
X0051631Y0017831D01*
X0051631Y0022548D02*
X0051631Y0034169D01*
X0065119Y0017488D02*
X0245356Y0017488D01*
X0246322Y0016490D02*
X0065119Y0016490D01*
X0065119Y0015491D02*
X0247289Y0015491D01*
X0248255Y0014493D02*
X0065119Y0014493D01*
X0065124Y0013494D02*
X0249221Y0013494D01*
X0250188Y0012496D02*
X0065956Y0012496D01*
X0169309Y0019485D02*
X0180621Y0019485D01*
X0178805Y0020484D02*
X0171126Y0020484D01*
X0172058Y0021482D02*
X0177872Y0021482D01*
X0183089Y0019485D02*
X0194401Y0019485D01*
X0192584Y0020484D02*
X0184905Y0020484D01*
X0185838Y0021482D02*
X0191652Y0021482D01*
X0196868Y0019485D02*
X0212491Y0019485D01*
X0211975Y0020484D02*
X0198685Y0020484D01*
X0199617Y0021482D02*
X0211975Y0021482D01*
X0211975Y0022481D02*
X0200031Y0022481D01*
X0200278Y0023479D02*
X0211975Y0023479D01*
X0211975Y0024478D02*
X0200278Y0024478D01*
X0200049Y0025476D02*
X0211975Y0025476D01*
X0211975Y0026475D02*
X0199635Y0026475D01*
X0198728Y0027473D02*
X0211975Y0027473D01*
X0212448Y0028472D02*
X0196972Y0028472D01*
X0195386Y0029470D02*
X0192427Y0029470D01*
X0193425Y0028472D02*
X0194297Y0028472D01*
X0194387Y0030469D02*
X0191428Y0030469D01*
X0190430Y0031467D02*
X0193389Y0031467D01*
X0192390Y0032466D02*
X0189431Y0032466D01*
X0188433Y0033464D02*
X0191392Y0033464D01*
X0190393Y0034463D02*
X0187434Y0034463D01*
X0186436Y0035461D02*
X0189395Y0035461D01*
X0188396Y0036460D02*
X0185437Y0036460D01*
X0184439Y0037458D02*
X0187398Y0037458D01*
X0189926Y0039455D02*
X0191087Y0039455D01*
X0190925Y0038457D02*
X0192096Y0038457D01*
X0191923Y0037458D02*
X0193106Y0037458D01*
X0192922Y0036460D02*
X0194115Y0036460D01*
X0193920Y0035461D02*
X0195125Y0035461D01*
X0194919Y0034463D02*
X0196134Y0034463D01*
X0195917Y0033464D02*
X0197144Y0033464D01*
X0196916Y0032466D02*
X0230902Y0032466D01*
X0231862Y0031467D02*
X0221839Y0031467D01*
X0222301Y0031006D02*
X0222301Y0031006D01*
X0222838Y0030469D02*
X0232822Y0030469D01*
X0229060Y0028472D02*
X0224835Y0028472D01*
X0225833Y0027473D02*
X0227305Y0027473D01*
X0226415Y0021482D02*
X0221262Y0021482D01*
X0221262Y0020484D02*
X0227348Y0020484D01*
X0229165Y0019485D02*
X0220746Y0019485D01*
X0190077Y0040454D02*
X0188928Y0040454D01*
X0189068Y0041452D02*
X0187929Y0041452D01*
X0188058Y0042451D02*
X0186931Y0042451D01*
X0187049Y0043449D02*
X0185932Y0043449D01*
X0186040Y0044448D02*
X0184934Y0044448D01*
X0185030Y0045446D02*
X0183935Y0045446D01*
X0184021Y0046445D02*
X0182937Y0046445D01*
X0120272Y0060500D02*
X0120272Y0068500D01*
X0120272Y0070811D01*
X0125129Y0073405D02*
X0127919Y0073405D01*
X0115078Y0088302D02*
X0106503Y0079727D01*
X0106503Y0073477D01*
X0102294Y0069268D01*
X0102294Y0056458D01*
X0099505Y0053669D01*
X0099505Y0052614D01*
X0099505Y0057614D02*
X0099505Y0063907D01*
X0100192Y0064594D01*
X0100192Y0069712D01*
X0104703Y0074222D01*
X0104703Y0080472D01*
X0107203Y0082972D01*
X0107203Y0089834D01*
X0107244Y0089875D01*
X0108429Y0092737D02*
X0091632Y0092737D01*
X0082272Y0102097D01*
X0082272Y0105846D01*
X0078119Y0110000D01*
X0075580Y0110000D01*
X0075564Y0109984D01*
X0061603Y0109984D01*
X0060869Y0109250D01*
X0060869Y0107069D01*
X0060810Y0107010D01*
X0065928Y0114490D02*
X0068853Y0111565D01*
X0074909Y0111565D01*
X0077781Y0114437D01*
X0080359Y0114437D01*
X0083772Y0116064D02*
X0083772Y0103096D01*
X0090119Y0096750D01*
X0117744Y0096750D01*
X0117869Y0096625D01*
X0117744Y0096500D01*
X0117869Y0096625D02*
X0115078Y0093834D01*
X0115078Y0088302D01*
X0111994Y0090250D02*
X0110917Y0090250D01*
X0108429Y0092737D01*
X0114756Y0099816D02*
X0102001Y0099816D01*
X0094727Y0107090D01*
X0094727Y0108566D01*
X0089444Y0108566D01*
X0088262Y0107385D01*
X0087869Y0107779D01*
X0104114Y0104710D02*
X0111990Y0104710D01*
X0087361Y0119654D02*
X0083772Y0116064D01*
X0087361Y0119654D02*
X0087869Y0119654D01*
X0093440Y0119654D01*
X0094852Y0121066D01*
X0081244Y0125500D02*
X0077744Y0125500D01*
X0072879Y0120635D01*
X0072879Y0114437D01*
X0066619Y0123000D02*
X0060810Y0117191D01*
X0060810Y0114490D01*
X0066619Y0123000D02*
X0071374Y0123000D01*
X0072041Y0131735D02*
X0070841Y0132935D01*
X0070841Y0145621D01*
X0069462Y0147000D01*
X0062587Y0147000D01*
X0062587Y0144969D01*
X0061272Y0143654D01*
X0059119Y0143654D01*
X0059215Y0143750D01*
X0062587Y0147000D02*
X0062587Y0153500D01*
X0075449Y0153500D01*
X0067182Y0157240D02*
X0065949Y0158472D01*
X0065949Y0161500D01*
X0067522Y0161500D01*
X0070772Y0164750D01*
X0065949Y0161500D02*
X0065682Y0161268D01*
X0062587Y0160335D02*
X0062587Y0153500D01*
X0059119Y0156323D02*
X0057682Y0157760D01*
X0059119Y0156323D02*
X0059119Y0150346D01*
X0067182Y0149760D02*
X0067182Y0149120D01*
X0067182Y0149760D02*
X0070542Y0149760D01*
X0071115Y0149188D01*
X0074465Y0143000D02*
X0084133Y0143000D01*
X0086023Y0141109D01*
X0111531Y0141109D01*
X0112480Y0140161D01*
X0110119Y0137750D02*
X0080869Y0137750D01*
X0078119Y0135000D01*
X0074465Y0135000D01*
X0077112Y0131744D02*
X0079719Y0134350D01*
X0110119Y0134350D01*
X0116319Y0134314D02*
X0129542Y0134314D01*
X0118510Y0135312D02*
X0116319Y0135312D01*
X0116430Y0136311D02*
X0116669Y0136311D01*
X0148509Y0133793D02*
X0148509Y0129949D01*
X0148494Y0129949D01*
X0148509Y0133793D02*
X0150119Y0134404D01*
X0175908Y0138500D02*
X0181461Y0138500D01*
X0181619Y0138657D01*
X0181619Y0140626D02*
X0181450Y0140794D01*
X0136619Y0153000D02*
X0133879Y0150260D01*
X0133879Y0148618D01*
X0128103Y0149292D02*
X0127134Y0149292D01*
X0127134Y0150290D02*
X0128103Y0150290D01*
X0128103Y0151289D02*
X0127134Y0151289D01*
X0127134Y0148293D02*
X0124412Y0148293D01*
X0119369Y0149346D02*
X0118215Y0150500D01*
X0109619Y0150500D01*
X0067772Y0135000D02*
X0064119Y0131346D01*
X0060119Y0131346D01*
X0072041Y0131735D02*
X0076889Y0131735D01*
X0076899Y0131744D01*
X0077112Y0131744D01*
X0062587Y0160335D02*
X0057682Y0165240D01*
X0054330Y0167424D02*
X0057272Y0170366D01*
X0057272Y0176000D01*
X0054330Y0167424D02*
X0054330Y0162808D01*
X0053686Y0162164D01*
X0049576Y0162164D01*
X0049566Y0162173D01*
X0049079Y0162173D01*
X0045922Y0165331D01*
X0040607Y0165331D01*
X0165619Y0160957D02*
X0170162Y0165500D01*
X0170319Y0158700D02*
X0190921Y0158700D01*
X0170319Y0158700D02*
X0169619Y0158000D01*
X0230758Y0161530D02*
X0232902Y0161530D01*
X0238207Y0156225D01*
X0257582Y0156225D01*
X0265463Y0148344D01*
X0265463Y0141444D01*
X0262619Y0138600D01*
X0252746Y0138600D01*
X0249134Y0134988D01*
X0249134Y0132169D01*
X0249056Y0132091D01*
X0251024Y0132091D02*
X0251102Y0132169D01*
X0251102Y0134411D01*
X0253491Y0136800D01*
X0263383Y0136800D01*
X0263972Y0137389D01*
X0265181Y0137389D01*
X0268345Y0140552D01*
X0290369Y0146125D02*
X0270994Y0165500D01*
X0266619Y0165500D01*
X0340879Y0137260D02*
X0343119Y0139500D01*
X0340879Y0137260D02*
X0340879Y0135809D01*
X0345684Y0134664D02*
X0346944Y0133405D01*
X0346944Y0132106D01*
X0348359Y0130691D01*
X0345684Y0134664D02*
X0345684Y0136954D01*
X0346806Y0138075D01*
X0346806Y0140510D01*
X0378119Y0137000D02*
X0382619Y0137000D01*
X0382619Y0138214D01*
X0382103Y0138729D01*
X0382103Y0143578D01*
X0382748Y0144222D01*
X0382103Y0143301D02*
X0380619Y0143301D01*
X0380619Y0142302D02*
X0382103Y0142302D01*
X0382103Y0141303D02*
X0380619Y0141303D01*
X0380619Y0140305D02*
X0382103Y0140305D01*
X0382103Y0139306D02*
X0380619Y0139306D01*
X0380619Y0138308D02*
X0382525Y0138308D01*
X0382619Y0137000D02*
X0383119Y0136500D01*
X0384619Y0136500D01*
X0384619Y0131240D01*
X0380619Y0131318D02*
X0405551Y0131318D01*
X0404719Y0130320D02*
X0380619Y0130320D01*
X0380619Y0129321D02*
X0403887Y0129321D01*
X0408312Y0130563D02*
X0408312Y0119142D01*
X0410953Y0115500D01*
X0416619Y0115342D02*
X0423619Y0115342D01*
X0423619Y0114344D02*
X0416619Y0114344D01*
X0416619Y0113345D02*
X0423619Y0113345D01*
X0423619Y0112347D02*
X0416619Y0112347D01*
X0416619Y0111348D02*
X0423619Y0111348D01*
X0423619Y0110350D02*
X0416619Y0110350D01*
X0416619Y0109351D02*
X0423619Y0109351D01*
X0423619Y0108353D02*
X0416619Y0108353D01*
X0416619Y0108250D02*
X0416619Y0123500D01*
X0418119Y0125000D01*
X0418119Y0129444D01*
X0418486Y0129812D01*
X0418486Y0130000D01*
X0421119Y0130000D01*
X0421119Y0126379D01*
X0421369Y0126129D01*
X0421369Y0126000D01*
X0423619Y0123750D01*
X0423619Y0108250D01*
X0416619Y0108250D01*
X0420284Y0115500D02*
X0419926Y0116858D01*
X0419926Y0130563D01*
X0421119Y0129321D02*
X0418119Y0129321D01*
X0418119Y0128323D02*
X0421119Y0128323D01*
X0421119Y0127324D02*
X0418119Y0127324D01*
X0418119Y0126326D02*
X0421172Y0126326D01*
X0422041Y0125327D02*
X0418119Y0125327D01*
X0417448Y0124329D02*
X0423040Y0124329D01*
X0423619Y0123330D02*
X0416619Y0123330D01*
X0416619Y0122332D02*
X0423619Y0122332D01*
X0423619Y0121333D02*
X0416619Y0121333D01*
X0416619Y0120335D02*
X0423619Y0120335D01*
X0423619Y0119336D02*
X0416619Y0119336D01*
X0416619Y0118338D02*
X0423619Y0118338D01*
X0423619Y0117339D02*
X0416619Y0117339D01*
X0416619Y0116341D02*
X0423619Y0116341D01*
X0427782Y0119336D02*
X0441119Y0119336D01*
X0441119Y0118338D02*
X0428781Y0118338D01*
X0429780Y0117339D02*
X0441119Y0117339D01*
X0441119Y0116341D02*
X0430778Y0116341D01*
X0431777Y0115342D02*
X0441119Y0115342D01*
X0441119Y0114344D02*
X0432775Y0114344D01*
X0433774Y0113345D02*
X0441119Y0113345D01*
X0441119Y0112347D02*
X0434772Y0112347D01*
X0435771Y0111348D02*
X0441119Y0111348D01*
X0441119Y0110350D02*
X0436769Y0110350D01*
X0437768Y0109351D02*
X0441768Y0109351D01*
X0441119Y0110000D02*
X0443619Y0107500D01*
X0443619Y0104000D01*
X0443119Y0104000D01*
X0427119Y0120000D01*
X0427119Y0127000D01*
X0422619Y0127000D01*
X0422619Y0129799D01*
X0422699Y0129879D01*
X0422699Y0131247D01*
X0422619Y0131327D01*
X0422619Y0131500D01*
X0422446Y0131500D01*
X0421732Y0132214D01*
X0418486Y0132214D01*
X0418486Y0133500D01*
X0441119Y0133500D01*
X0441119Y0110000D01*
X0442719Y0111577D02*
X0442719Y0134163D01*
X0441781Y0135100D01*
X0439071Y0135100D01*
X0439071Y0136740D01*
X0435119Y0136740D01*
X0435119Y0137740D01*
X0439071Y0137740D01*
X0439071Y0139997D01*
X0438969Y0140378D01*
X0438772Y0140720D01*
X0438493Y0140999D01*
X0438150Y0141197D01*
X0437769Y0141299D01*
X0435119Y0141299D01*
X0435119Y0137740D01*
X0434119Y0137740D01*
X0434119Y0141299D01*
X0431468Y0141299D01*
X0431087Y0141197D01*
X0430869Y0141071D01*
X0430650Y0141197D01*
X0430269Y0141299D01*
X0427619Y0141299D01*
X0427619Y0137740D01*
X0434119Y0137740D01*
X0434119Y0136740D01*
X0430166Y0136740D01*
X0427619Y0136740D01*
X0427619Y0137740D01*
X0426619Y0137740D01*
X0426619Y0141299D01*
X0424299Y0141299D01*
X0424299Y0150241D01*
X0420881Y0153659D01*
X0419555Y0153659D01*
X0409661Y0153659D01*
X0409619Y0154500D01*
X0409619Y0172500D01*
X0402619Y0179500D01*
X0486331Y0179500D01*
X0486331Y0174440D01*
X0491808Y0168963D01*
X0496837Y0168963D01*
X0502619Y0163000D01*
X0502619Y0124385D01*
X0489438Y0124385D01*
X0488794Y0123741D01*
X0488794Y0116531D01*
X0489438Y0115886D01*
X0502619Y0115886D01*
X0502619Y0097614D01*
X0489438Y0097614D01*
X0488794Y0096969D01*
X0488794Y0093500D01*
X0460619Y0093500D01*
X0454467Y0099713D01*
X0476731Y0099713D01*
X0476807Y0099744D01*
X0485625Y0099744D01*
X0486269Y0100389D01*
X0486269Y0105237D01*
X0485625Y0105881D01*
X0476807Y0105881D01*
X0476731Y0105913D01*
X0448327Y0105913D01*
X0442719Y0111577D01*
X0442946Y0111348D02*
X0465559Y0111348D01*
X0465559Y0111171D02*
X0475630Y0111171D01*
X0475630Y0110203D01*
X0465559Y0110203D01*
X0465559Y0108521D01*
X0465661Y0108140D01*
X0465859Y0107797D01*
X0466138Y0107518D01*
X0466480Y0107321D01*
X0466862Y0107219D01*
X0475630Y0107219D01*
X0475630Y0110203D01*
X0476599Y0110203D01*
X0476599Y0111171D01*
X0486669Y0111171D01*
X0486669Y0112853D01*
X0486567Y0113234D01*
X0486370Y0113577D01*
X0486090Y0113856D01*
X0485748Y0114053D01*
X0485367Y0114155D01*
X0476599Y0114155D01*
X0476599Y0111171D01*
X0475630Y0111171D01*
X0475630Y0114155D01*
X0466862Y0114155D01*
X0466480Y0114053D01*
X0466138Y0113856D01*
X0465859Y0113577D01*
X0465661Y0113234D01*
X0465559Y0112853D01*
X0465559Y0111171D01*
X0465559Y0112347D02*
X0442719Y0112347D01*
X0442719Y0113345D02*
X0465725Y0113345D01*
X0475630Y0113345D02*
X0476599Y0113345D01*
X0476599Y0112347D02*
X0475630Y0112347D01*
X0475630Y0111348D02*
X0476599Y0111348D01*
X0476599Y0110350D02*
X0502619Y0110350D01*
X0502619Y0111348D02*
X0486669Y0111348D01*
X0486669Y0112347D02*
X0502619Y0112347D01*
X0502619Y0113345D02*
X0486503Y0113345D01*
X0486669Y0110203D02*
X0486669Y0108521D01*
X0486567Y0108140D01*
X0486370Y0107797D01*
X0486090Y0107518D01*
X0485748Y0107321D01*
X0485367Y0107219D01*
X0476599Y0107219D01*
X0476599Y0110203D01*
X0486669Y0110203D01*
X0486669Y0109351D02*
X0502619Y0109351D01*
X0502619Y0108353D02*
X0486624Y0108353D01*
X0485806Y0107354D02*
X0502619Y0107354D01*
X0502619Y0106356D02*
X0447889Y0106356D01*
X0446900Y0107354D02*
X0466422Y0107354D01*
X0465604Y0108353D02*
X0445912Y0108353D01*
X0444923Y0109351D02*
X0465559Y0109351D01*
X0475630Y0109351D02*
X0476599Y0109351D01*
X0476599Y0108353D02*
X0475630Y0108353D01*
X0475630Y0107354D02*
X0476599Y0107354D01*
X0486149Y0105357D02*
X0502619Y0105357D01*
X0502619Y0104359D02*
X0486269Y0104359D01*
X0486269Y0103360D02*
X0502619Y0103360D01*
X0502619Y0102362D02*
X0486269Y0102362D01*
X0486269Y0101363D02*
X0502619Y0101363D01*
X0502619Y0100365D02*
X0486245Y0100365D01*
X0489193Y0097369D02*
X0456788Y0097369D01*
X0457776Y0096370D02*
X0488794Y0096370D01*
X0488794Y0095372D02*
X0458765Y0095372D01*
X0459754Y0094373D02*
X0488794Y0094373D01*
X0502619Y0098368D02*
X0455799Y0098368D01*
X0454810Y0099366D02*
X0502619Y0099366D01*
X0475630Y0110350D02*
X0443934Y0110350D01*
X0442766Y0108353D02*
X0438766Y0108353D01*
X0439765Y0107354D02*
X0443619Y0107354D01*
X0443619Y0106356D02*
X0440763Y0106356D01*
X0441762Y0105357D02*
X0443619Y0105357D01*
X0443619Y0104359D02*
X0442760Y0104359D01*
X0442719Y0114344D02*
X0502619Y0114344D01*
X0502619Y0115342D02*
X0442719Y0115342D01*
X0442719Y0116341D02*
X0488984Y0116341D01*
X0488794Y0117339D02*
X0442719Y0117339D01*
X0442719Y0118338D02*
X0488794Y0118338D01*
X0488794Y0119336D02*
X0442719Y0119336D01*
X0442719Y0120335D02*
X0488794Y0120335D01*
X0488794Y0121333D02*
X0442719Y0121333D01*
X0442719Y0122332D02*
X0488794Y0122332D01*
X0488794Y0123330D02*
X0483543Y0123330D01*
X0483543Y0123191D02*
X0483543Y0133552D01*
X0482899Y0134196D01*
X0470964Y0134196D01*
X0470319Y0133552D01*
X0470319Y0131472D01*
X0465438Y0131472D01*
X0464860Y0132050D01*
X0461503Y0132050D01*
X0459527Y0130075D01*
X0459527Y0133552D01*
X0458883Y0134196D01*
X0446948Y0134196D01*
X0446304Y0133552D01*
X0446304Y0123191D01*
X0446948Y0122547D01*
X0458883Y0122547D01*
X0459527Y0123191D01*
X0459527Y0125920D01*
X0461503Y0123944D01*
X0464860Y0123944D01*
X0466187Y0125272D01*
X0470319Y0125272D01*
X0470319Y0123191D01*
X0470964Y0122547D01*
X0482899Y0122547D01*
X0483543Y0123191D01*
X0483543Y0124329D02*
X0489382Y0124329D01*
X0483543Y0125327D02*
X0502619Y0125327D01*
X0502619Y0126326D02*
X0483543Y0126326D01*
X0483543Y0127324D02*
X0502619Y0127324D01*
X0502619Y0128323D02*
X0483543Y0128323D01*
X0483543Y0129321D02*
X0502619Y0129321D01*
X0502619Y0130320D02*
X0483543Y0130320D01*
X0483543Y0131318D02*
X0502619Y0131318D01*
X0502619Y0132317D02*
X0483543Y0132317D01*
X0483543Y0133315D02*
X0502619Y0133315D01*
X0502619Y0134314D02*
X0442568Y0134314D01*
X0441881Y0135000D02*
X0441781Y0135100D01*
X0422699Y0135100D01*
X0422699Y0135184D01*
X0422632Y0135251D01*
X0424299Y0136918D01*
X0424299Y0150208D01*
X0446119Y0150000D01*
X0446119Y0135000D01*
X0441881Y0135000D01*
X0441119Y0133315D02*
X0418486Y0133315D01*
X0418486Y0132317D02*
X0441119Y0132317D01*
X0441119Y0131318D02*
X0422628Y0131318D01*
X0422699Y0130320D02*
X0441119Y0130320D01*
X0441119Y0129321D02*
X0422619Y0129321D01*
X0422619Y0128323D02*
X0441119Y0128323D01*
X0441119Y0127324D02*
X0422619Y0127324D01*
X0427119Y0129760D02*
X0427127Y0129859D01*
X0427130Y0129959D01*
X0427131Y0130058D01*
X0427127Y0130158D01*
X0427119Y0130257D01*
X0427107Y0130356D01*
X0427092Y0130454D01*
X0427072Y0130551D01*
X0427049Y0130648D01*
X0427022Y0130744D01*
X0426992Y0130839D01*
X0426957Y0130932D01*
X0426919Y0131024D01*
X0426878Y0131114D01*
X0426833Y0131203D01*
X0426784Y0131290D01*
X0426732Y0131375D01*
X0426677Y0131458D01*
X0426618Y0131538D01*
X0426557Y0131616D01*
X0426492Y0131692D01*
X0426425Y0131765D01*
X0426354Y0131836D01*
X0426281Y0131903D01*
X0426206Y0131968D01*
X0426128Y0132029D01*
X0426047Y0132088D01*
X0425965Y0132143D01*
X0425880Y0132195D01*
X0425793Y0132244D01*
X0425704Y0132289D01*
X0425614Y0132331D01*
X0425522Y0132369D01*
X0425429Y0132404D01*
X0425334Y0132434D01*
X0425238Y0132461D01*
X0425142Y0132485D01*
X0425044Y0132504D01*
X0424946Y0132520D01*
X0424847Y0132532D01*
X0424847Y0132531D02*
X0419926Y0132531D01*
X0419926Y0134500D01*
X0417281Y0135312D02*
X0410956Y0135312D01*
X0414119Y0136862D02*
X0414119Y0137000D01*
X0417153Y0136311D02*
X0407119Y0136311D01*
X0402795Y0135998D02*
X0402795Y0135998D01*
X0402482Y0136311D02*
X0380619Y0136311D01*
X0380619Y0137309D02*
X0392619Y0137309D01*
X0390775Y0138308D02*
X0388213Y0138308D01*
X0408312Y0145539D02*
X0409272Y0146500D01*
X0412538Y0146296D02*
X0421099Y0146296D01*
X0416450Y0146296D01*
X0416449Y0145298D02*
X0415481Y0145298D01*
X0415481Y0144299D02*
X0416449Y0144299D01*
X0416449Y0143301D02*
X0415481Y0143301D01*
X0412932Y0143301D02*
X0411306Y0143301D01*
X0412538Y0144299D02*
X0421099Y0144299D01*
X0419621Y0144299D01*
X0419631Y0145298D02*
X0421099Y0145298D01*
X0412538Y0145298D01*
X0412538Y0147295D02*
X0421099Y0147295D01*
X0419631Y0147295D01*
X0419631Y0148293D02*
X0421099Y0148293D01*
X0412538Y0148293D01*
X0412543Y0149292D02*
X0412170Y0149292D01*
X0420723Y0149292D01*
X0419387Y0149292D01*
X0419724Y0150290D02*
X0409829Y0150290D01*
X0406374Y0149292D02*
X0393619Y0149292D01*
X0393619Y0150290D02*
X0415658Y0150290D01*
X0415481Y0149292D02*
X0416449Y0149292D01*
X0416449Y0148293D02*
X0415481Y0148293D01*
X0415481Y0147295D02*
X0416449Y0147295D01*
X0424299Y0147295D02*
X0454671Y0147295D01*
X0454269Y0147697D02*
X0455816Y0146150D01*
X0457837Y0145313D01*
X0460025Y0145313D01*
X0462047Y0146150D01*
X0463594Y0147697D01*
X0464431Y0149718D01*
X0464431Y0151907D01*
X0463594Y0153928D01*
X0462047Y0155475D01*
X0460025Y0156312D01*
X0457837Y0156312D01*
X0455816Y0155475D01*
X0454269Y0153928D01*
X0453431Y0151907D01*
X0453431Y0149718D01*
X0454269Y0147697D01*
X0454022Y0148293D02*
X0424299Y0148293D01*
X0446119Y0148293D01*
X0446119Y0147295D02*
X0424299Y0147295D01*
X0424299Y0146296D02*
X0455670Y0146296D01*
X0453608Y0149292D02*
X0424299Y0149292D01*
X0446119Y0149292D01*
X0446119Y0146296D02*
X0424299Y0146296D01*
X0424299Y0145298D02*
X0502619Y0145298D01*
X0502619Y0146296D02*
X0480193Y0146296D01*
X0480047Y0146150D02*
X0481594Y0147697D01*
X0482431Y0149718D01*
X0482431Y0151907D01*
X0481594Y0153928D01*
X0480047Y0155475D01*
X0478025Y0156312D01*
X0475837Y0156312D01*
X0473816Y0155475D01*
X0472269Y0153928D01*
X0471431Y0151907D01*
X0471431Y0149718D01*
X0472269Y0147697D01*
X0473816Y0146150D01*
X0475837Y0145313D01*
X0478025Y0145313D01*
X0480047Y0146150D01*
X0481191Y0147295D02*
X0502619Y0147295D01*
X0502619Y0148293D02*
X0481841Y0148293D01*
X0482254Y0149292D02*
X0502619Y0149292D01*
X0502619Y0150290D02*
X0482431Y0150290D01*
X0482431Y0151289D02*
X0502619Y0151289D01*
X0502619Y0152287D02*
X0482274Y0152287D01*
X0481860Y0153286D02*
X0502619Y0153286D01*
X0502619Y0154284D02*
X0481238Y0154284D01*
X0480239Y0155283D02*
X0502619Y0155283D01*
X0502619Y0156281D02*
X0478101Y0156281D01*
X0475762Y0156281D02*
X0460101Y0156281D01*
X0457762Y0156281D02*
X0409619Y0156281D01*
X0409619Y0155283D02*
X0455623Y0155283D01*
X0454625Y0154284D02*
X0409630Y0154284D01*
X0409619Y0157280D02*
X0502619Y0157280D01*
X0502619Y0158278D02*
X0409619Y0158278D01*
X0409619Y0159277D02*
X0502619Y0159277D01*
X0502619Y0160275D02*
X0409619Y0160275D01*
X0409619Y0161274D02*
X0412871Y0161274D01*
X0412991Y0161187D02*
X0413699Y0160826D01*
X0414453Y0160581D01*
X0415134Y0160473D01*
X0415134Y0165000D01*
X0410607Y0165000D01*
X0410715Y0164319D01*
X0410961Y0163564D01*
X0411321Y0162857D01*
X0411788Y0162215D01*
X0412349Y0161653D01*
X0412991Y0161187D01*
X0411746Y0162272D02*
X0409619Y0162272D01*
X0409619Y0163271D02*
X0411110Y0163271D01*
X0410732Y0164269D02*
X0409619Y0164269D01*
X0409619Y0165268D02*
X0415134Y0165268D01*
X0415134Y0165000D02*
X0415134Y0166000D01*
X0410607Y0166000D01*
X0410715Y0166681D01*
X0410961Y0167436D01*
X0411321Y0168143D01*
X0411788Y0168785D01*
X0412349Y0169347D01*
X0412991Y0169813D01*
X0413699Y0170174D01*
X0414453Y0170419D01*
X0415134Y0170527D01*
X0415134Y0166000D01*
X0416134Y0166000D01*
X0416134Y0170527D01*
X0416815Y0170419D01*
X0417570Y0170174D01*
X0418278Y0169813D01*
X0418920Y0169347D01*
X0419481Y0168785D01*
X0419948Y0168143D01*
X0420308Y0167436D01*
X0420554Y0166681D01*
X0420661Y0166000D01*
X0416135Y0166000D01*
X0416135Y0165000D01*
X0420661Y0165000D01*
X0420554Y0164319D01*
X0420308Y0163564D01*
X0419948Y0162857D01*
X0419481Y0162215D01*
X0418920Y0161653D01*
X0418278Y0161187D01*
X0417570Y0160826D01*
X0416815Y0160581D01*
X0416134Y0160473D01*
X0416134Y0165000D01*
X0415134Y0165000D01*
X0415634Y0165500D02*
X0415619Y0165516D01*
X0415619Y0172500D01*
X0409619Y0172257D02*
X0445904Y0172257D01*
X0445904Y0172753D02*
X0445904Y0168332D01*
X0446006Y0167950D01*
X0446203Y0167608D01*
X0446483Y0167329D01*
X0446825Y0167131D01*
X0447206Y0167029D01*
X0452416Y0167029D01*
X0452416Y0172753D01*
X0453415Y0172753D01*
X0453415Y0167029D01*
X0458625Y0167029D01*
X0459006Y0167131D01*
X0459348Y0167329D01*
X0459628Y0167608D01*
X0459825Y0167950D01*
X0459927Y0168332D01*
X0459927Y0172753D01*
X0453416Y0172753D01*
X0453416Y0173753D01*
X0459927Y0173753D01*
X0459927Y0178175D01*
X0459825Y0178557D01*
X0459628Y0178899D01*
X0459348Y0179178D01*
X0459006Y0179376D01*
X0458625Y0179478D01*
X0453415Y0179478D01*
X0453415Y0173753D01*
X0452416Y0173753D01*
X0452415Y0173753D02*
X0452415Y0172753D01*
X0445904Y0172753D01*
X0445904Y0173753D02*
X0452415Y0173753D01*
X0452416Y0173753D02*
X0452416Y0179478D01*
X0447206Y0179478D01*
X0446825Y0179376D01*
X0446483Y0179178D01*
X0446203Y0178899D01*
X0446006Y0178557D01*
X0445904Y0178175D01*
X0445904Y0173753D01*
X0445904Y0174254D02*
X0407864Y0174254D01*
X0408863Y0173256D02*
X0452415Y0173256D01*
X0452416Y0174254D02*
X0453415Y0174254D01*
X0453416Y0173256D02*
X0476431Y0173256D01*
X0476431Y0173753D02*
X0476431Y0172753D01*
X0477431Y0172753D01*
X0477431Y0167029D01*
X0482641Y0167029D01*
X0483022Y0167131D01*
X0483364Y0167329D01*
X0483643Y0167608D01*
X0483841Y0167950D01*
X0483943Y0168332D01*
X0483943Y0172753D01*
X0477431Y0172753D01*
X0477431Y0173753D01*
X0483943Y0173753D01*
X0483943Y0178175D01*
X0483841Y0178557D01*
X0483643Y0178899D01*
X0483364Y0179178D01*
X0483022Y0179376D01*
X0482641Y0179478D01*
X0477431Y0179478D01*
X0477431Y0173753D01*
X0476431Y0173753D01*
X0469919Y0173753D01*
X0469919Y0178175D01*
X0470022Y0178557D01*
X0470219Y0178899D01*
X0470498Y0179178D01*
X0470840Y0179376D01*
X0471222Y0179478D01*
X0476431Y0179478D01*
X0476431Y0173753D01*
X0476431Y0174254D02*
X0477431Y0174254D01*
X0477431Y0173256D02*
X0487515Y0173256D01*
X0486516Y0174254D02*
X0483943Y0174254D01*
X0483943Y0175253D02*
X0486331Y0175253D01*
X0486331Y0176251D02*
X0483943Y0176251D01*
X0483943Y0177250D02*
X0486331Y0177250D01*
X0486331Y0178248D02*
X0483923Y0178248D01*
X0483245Y0179247D02*
X0486331Y0179247D01*
X0477431Y0179247D02*
X0476431Y0179247D01*
X0476431Y0178248D02*
X0477431Y0178248D01*
X0477431Y0177250D02*
X0476431Y0177250D01*
X0476431Y0176251D02*
X0477431Y0176251D01*
X0477431Y0175253D02*
X0476431Y0175253D01*
X0476431Y0172753D02*
X0469919Y0172753D01*
X0469919Y0168332D01*
X0470022Y0167950D01*
X0470219Y0167608D01*
X0470498Y0167329D01*
X0470840Y0167131D01*
X0471222Y0167029D01*
X0476431Y0167029D01*
X0476431Y0172753D01*
X0476431Y0172257D02*
X0477431Y0172257D01*
X0477431Y0171259D02*
X0476431Y0171259D01*
X0476431Y0170260D02*
X0477431Y0170260D01*
X0477431Y0169262D02*
X0476431Y0169262D01*
X0476431Y0168263D02*
X0477431Y0168263D01*
X0477431Y0167265D02*
X0476431Y0167265D01*
X0470609Y0167265D02*
X0459238Y0167265D01*
X0459909Y0168263D02*
X0469938Y0168263D01*
X0469919Y0169262D02*
X0459927Y0169262D01*
X0459927Y0170260D02*
X0469919Y0170260D01*
X0469919Y0171259D02*
X0459927Y0171259D01*
X0459927Y0172257D02*
X0469919Y0172257D01*
X0469919Y0174254D02*
X0459927Y0174254D01*
X0459927Y0175253D02*
X0469919Y0175253D01*
X0469919Y0176251D02*
X0459927Y0176251D01*
X0459927Y0177250D02*
X0469919Y0177250D01*
X0469939Y0178248D02*
X0459908Y0178248D01*
X0459229Y0179247D02*
X0470618Y0179247D01*
X0483943Y0172257D02*
X0488513Y0172257D01*
X0489512Y0171259D02*
X0483943Y0171259D01*
X0483943Y0170260D02*
X0490511Y0170260D01*
X0491509Y0169262D02*
X0483943Y0169262D01*
X0483925Y0168263D02*
X0497515Y0168263D01*
X0498483Y0167265D02*
X0483253Y0167265D01*
X0499451Y0166266D02*
X0420619Y0166266D01*
X0420364Y0167265D02*
X0446593Y0167265D01*
X0445922Y0168263D02*
X0419861Y0168263D01*
X0419005Y0169262D02*
X0445904Y0169262D01*
X0445904Y0170260D02*
X0417304Y0170260D01*
X0416134Y0170260D02*
X0415134Y0170260D01*
X0415134Y0169262D02*
X0416134Y0169262D01*
X0416134Y0168263D02*
X0415134Y0168263D01*
X0415134Y0167265D02*
X0416134Y0167265D01*
X0416134Y0166266D02*
X0415134Y0166266D01*
X0415634Y0165500D02*
X0442595Y0165500D01*
X0442595Y0138540D01*
X0439071Y0138308D02*
X0502619Y0138308D01*
X0502619Y0139306D02*
X0439071Y0139306D01*
X0438989Y0140305D02*
X0502619Y0140305D01*
X0502619Y0141303D02*
X0424299Y0141303D01*
X0446119Y0141303D01*
X0446119Y0140305D02*
X0424299Y0140305D01*
X0424299Y0139306D02*
X0446119Y0139306D01*
X0446119Y0138308D02*
X0424299Y0138308D01*
X0424299Y0137309D02*
X0446119Y0137309D01*
X0446119Y0136311D02*
X0423692Y0136311D01*
X0422694Y0135312D02*
X0446119Y0135312D01*
X0446304Y0133315D02*
X0442719Y0133315D01*
X0442719Y0132317D02*
X0446304Y0132317D01*
X0446304Y0131318D02*
X0442719Y0131318D01*
X0442719Y0130320D02*
X0446304Y0130320D01*
X0446304Y0129321D02*
X0442719Y0129321D01*
X0442719Y0128323D02*
X0446304Y0128323D01*
X0446304Y0127324D02*
X0442719Y0127324D01*
X0442719Y0126326D02*
X0446304Y0126326D01*
X0446304Y0125327D02*
X0442719Y0125327D01*
X0442719Y0124329D02*
X0446304Y0124329D01*
X0446304Y0123330D02*
X0442719Y0123330D01*
X0441119Y0123330D02*
X0427119Y0123330D01*
X0427119Y0122332D02*
X0441119Y0122332D01*
X0441119Y0121333D02*
X0427119Y0121333D01*
X0427119Y0120335D02*
X0441119Y0120335D01*
X0441119Y0124329D02*
X0427119Y0124329D01*
X0427119Y0125327D02*
X0441119Y0125327D01*
X0441119Y0126326D02*
X0427119Y0126326D01*
X0416481Y0128752D02*
X0414906Y0128752D01*
X0413331Y0128752D01*
X0414119Y0129539D01*
X0414119Y0132138D01*
X0414118Y0132138D01*
X0413331Y0128752D02*
X0411757Y0128752D01*
X0404619Y0124329D02*
X0378518Y0124329D01*
X0378507Y0123330D02*
X0404619Y0123330D01*
X0425619Y0138740D02*
X0427119Y0137240D01*
X0427619Y0137309D02*
X0434119Y0137309D01*
X0434119Y0138308D02*
X0435119Y0138308D01*
X0435119Y0139306D02*
X0434119Y0139306D01*
X0434119Y0140305D02*
X0435119Y0140305D01*
X0427619Y0140305D02*
X0426619Y0140305D01*
X0426619Y0139306D02*
X0427619Y0139306D01*
X0427619Y0138308D02*
X0426619Y0138308D01*
X0425619Y0138740D02*
X0425619Y0141000D01*
X0424299Y0142302D02*
X0502619Y0142302D01*
X0502619Y0143301D02*
X0424299Y0143301D01*
X0446119Y0143301D01*
X0446119Y0144299D02*
X0424299Y0144299D01*
X0502619Y0144299D01*
X0502619Y0137309D02*
X0435119Y0137309D01*
X0439071Y0136311D02*
X0502619Y0136311D01*
X0502619Y0135312D02*
X0439071Y0135312D01*
X0446119Y0142302D02*
X0424299Y0142302D01*
X0424299Y0145298D02*
X0446119Y0145298D01*
X0453431Y0150290D02*
X0424249Y0150290D01*
X0423251Y0151289D02*
X0453431Y0151289D01*
X0453589Y0152287D02*
X0422252Y0152287D01*
X0421254Y0153286D02*
X0454002Y0153286D01*
X0462239Y0155283D02*
X0473623Y0155283D01*
X0472625Y0154284D02*
X0463238Y0154284D01*
X0463860Y0153286D02*
X0472002Y0153286D01*
X0471589Y0152287D02*
X0464274Y0152287D01*
X0464431Y0151289D02*
X0471431Y0151289D01*
X0471431Y0150290D02*
X0464431Y0150290D01*
X0464254Y0149292D02*
X0471608Y0149292D01*
X0472022Y0148293D02*
X0463841Y0148293D01*
X0463191Y0147295D02*
X0472671Y0147295D01*
X0473670Y0146296D02*
X0462193Y0146296D01*
X0459527Y0133315D02*
X0470319Y0133315D01*
X0470319Y0132317D02*
X0459527Y0132317D01*
X0459527Y0131318D02*
X0460771Y0131318D01*
X0459772Y0130320D02*
X0459527Y0130320D01*
X0459527Y0125327D02*
X0460120Y0125327D01*
X0459527Y0124329D02*
X0461118Y0124329D01*
X0459527Y0123330D02*
X0470319Y0123330D01*
X0470319Y0124329D02*
X0465244Y0124329D01*
X0390353Y0149292D02*
X0380619Y0149292D01*
X0380619Y0150290D02*
X0390373Y0150290D01*
X0415134Y0161274D02*
X0416134Y0161274D01*
X0416134Y0162272D02*
X0415134Y0162272D01*
X0415134Y0163271D02*
X0416134Y0163271D01*
X0416134Y0164269D02*
X0415134Y0164269D01*
X0416135Y0165268D02*
X0500420Y0165268D01*
X0501388Y0164269D02*
X0420537Y0164269D01*
X0420159Y0163271D02*
X0502356Y0163271D01*
X0502619Y0162272D02*
X0419523Y0162272D01*
X0418398Y0161274D02*
X0502619Y0161274D01*
X0453415Y0167265D02*
X0452416Y0167265D01*
X0452416Y0168263D02*
X0453415Y0168263D01*
X0453415Y0169262D02*
X0452416Y0169262D01*
X0452416Y0170260D02*
X0453415Y0170260D01*
X0453415Y0171259D02*
X0452416Y0171259D01*
X0452416Y0172257D02*
X0453415Y0172257D01*
X0445904Y0171259D02*
X0409619Y0171259D01*
X0409619Y0170260D02*
X0413965Y0170260D01*
X0412264Y0169262D02*
X0409619Y0169262D01*
X0409619Y0168263D02*
X0411408Y0168263D01*
X0410905Y0167265D02*
X0409619Y0167265D01*
X0409619Y0166266D02*
X0410650Y0166266D01*
X0406866Y0175253D02*
X0445904Y0175253D01*
X0445904Y0176251D02*
X0405867Y0176251D01*
X0404869Y0177250D02*
X0445904Y0177250D01*
X0445923Y0178248D02*
X0403870Y0178248D01*
X0402872Y0179247D02*
X0446602Y0179247D01*
X0452416Y0179247D02*
X0453415Y0179247D01*
X0453415Y0178248D02*
X0452416Y0178248D01*
X0452416Y0177250D02*
X0453415Y0177250D01*
X0453415Y0176251D02*
X0452416Y0176251D01*
X0452416Y0175253D02*
X0453415Y0175253D01*
X0253071Y0132169D02*
X0252993Y0132091D01*
X0156723Y0092896D02*
X0155619Y0094000D01*
X0156723Y0092896D02*
X0156723Y0089011D01*
X0045404Y0080559D02*
X0038904Y0080559D01*
X0308119Y0019000D02*
X0313075Y0023957D01*
X0313075Y0024000D01*
X0406619Y0041000D02*
X0410870Y0045251D01*
X0419279Y0045251D01*
X0402603Y0077980D02*
X0394099Y0077980D01*
D68*
X0386619Y0076084D03*
X0366619Y0075500D03*
X0356619Y0075500D03*
X0359619Y0088937D03*
X0328994Y0103625D03*
X0336306Y0105187D03*
X0315994Y0116750D03*
X0397119Y0115500D03*
X0409463Y0087500D03*
X0408869Y0079000D03*
X0409306Y0070813D03*
X0411174Y0065056D03*
X0431619Y0060500D03*
X0446619Y0060500D03*
X0377869Y0038500D03*
X0361619Y0035500D03*
X0346619Y0040500D03*
X0315369Y0054875D03*
X0371619Y0055500D03*
X0457495Y0085500D03*
X0397119Y0153369D03*
X0316619Y0155419D03*
X0388119Y0183000D03*
X0230758Y0161530D03*
X0130119Y0160625D03*
X0081369Y0148438D03*
X0119869Y0137750D03*
X0081244Y0125500D03*
X0071619Y0105500D03*
X0107244Y0089875D03*
X0111994Y0090250D03*
X0117869Y0096625D03*
X0114756Y0099816D03*
X0104119Y0084250D03*
X0100119Y0080500D03*
X0101619Y0075500D03*
X0045404Y0080559D03*
X0180619Y0114500D03*
X0229306Y0093937D03*
X0219119Y0080000D03*
D69*
X0301619Y0104250D02*
X0301619Y0112724D01*
X0303194Y0112724D02*
X0303194Y0109550D01*
X0304744Y0108000D01*
X0320678Y0108000D01*
X0321601Y0108923D01*
X0322256Y0109569D01*
X0336859Y0109569D01*
X0322262Y0109563D02*
X0322256Y0109569D01*
X0322256Y0109569D01*
X0322262Y0109563D02*
X0322262Y0109562D01*
X0321446Y0111214D02*
X0319883Y0109651D01*
X0305370Y0109651D01*
X0304768Y0110252D01*
X0304768Y0112724D01*
X0306343Y0112724D02*
X0306343Y0112651D01*
X0307244Y0111750D01*
X0319153Y0111750D01*
X0320403Y0113000D01*
X0317809Y0113625D02*
X0320622Y0116437D01*
X0319119Y0118625D02*
X0322575Y0118625D01*
X0323825Y0119875D01*
X0345294Y0119875D01*
X0346575Y0119875D02*
X0349115Y0119875D01*
X0349115Y0126021D01*
X0345544Y0129592D01*
X0345544Y0131575D01*
X0343869Y0133250D01*
X0340879Y0133250D01*
X0348359Y0134856D02*
X0351157Y0132057D01*
X0351157Y0124592D01*
X0352085Y0123622D01*
X0354741Y0120966D01*
X0361153Y0120966D01*
X0361619Y0120500D01*
X0364389Y0119560D02*
X0362559Y0117730D01*
X0358416Y0117730D01*
X0355728Y0117730D01*
X0353582Y0119875D01*
X0349115Y0119875D01*
X0364389Y0119560D02*
X0364389Y0123760D01*
X0367379Y0126750D01*
X0348359Y0134856D02*
X0348359Y0135809D01*
X0345794Y0139498D02*
X0346806Y0140510D01*
X0314119Y0128000D02*
X0311343Y0125224D01*
X0309394Y0125224D01*
X0309394Y0123650D02*
X0312844Y0123650D01*
X0314119Y0124875D01*
X0315309Y0124875D01*
X0317244Y0124816D01*
X0320428Y0121809D02*
X0320994Y0121750D01*
X0312244Y0121750D01*
X0311919Y0122075D01*
X0309394Y0122075D01*
X0312544Y0118925D02*
X0313494Y0119875D01*
X0317869Y0119875D01*
X0319119Y0118625D01*
X0315994Y0116750D02*
X0315344Y0117350D01*
X0309394Y0117350D01*
X0309394Y0115776D02*
X0310718Y0115776D01*
X0312869Y0113625D01*
X0317809Y0113625D01*
X0312544Y0118925D02*
X0309394Y0118925D01*
X0303194Y0118925D01*
X0300044Y0118925D02*
X0300044Y0112724D01*
X0300044Y0118925D02*
X0293843Y0118925D01*
X0293843Y0120500D02*
X0288556Y0120500D01*
X0285694Y0122075D02*
X0281244Y0117625D01*
X0285694Y0122075D02*
X0293843Y0122075D01*
X0293843Y0123650D02*
X0288691Y0123650D01*
X0286215Y0126125D01*
X0290994Y0125224D02*
X0290994Y0128625D01*
X0290994Y0125224D02*
X0293843Y0125224D01*
X0296894Y0128276D02*
X0296894Y0128974D01*
X0294119Y0131750D01*
X0296619Y0135500D02*
X0298469Y0133650D01*
X0298469Y0128276D01*
X0300044Y0128276D02*
X0300044Y0137675D01*
X0301619Y0139250D01*
X0303494Y0134250D02*
X0301619Y0132375D01*
X0301619Y0128276D01*
X0303194Y0128276D02*
X0303194Y0122075D01*
X0304768Y0128276D02*
X0304768Y0131150D01*
X0306244Y0132625D01*
X0306244Y0146375D01*
X0315369Y0155500D01*
X0316619Y0155500D01*
X0309744Y0131125D02*
X0306894Y0128276D01*
X0306343Y0128276D01*
X0320994Y0122075D02*
X0320994Y0121750D01*
X0352734Y0112309D02*
X0353629Y0112309D01*
X0408312Y0138437D02*
X0408312Y0145539D01*
X0152571Y0110500D02*
X0152446Y0110626D01*
X0152446Y0111051D01*
D70*
X0139119Y0107500D03*
X0155619Y0094000D03*
X0149369Y0083457D03*
X0186619Y0094000D03*
X0176202Y0103412D03*
X0197576Y0110293D03*
X0190908Y0116994D03*
X0182499Y0121222D03*
X0213119Y0110500D03*
X0220619Y0112500D03*
X0227119Y0115000D03*
X0228619Y0112000D03*
X0228119Y0121500D03*
X0228119Y0125000D03*
X0221874Y0133245D03*
X0218223Y0137000D03*
X0199119Y0148000D03*
X0196345Y0150774D03*
X0209619Y0152000D03*
X0221536Y0156214D03*
X0215467Y0160848D03*
X0181619Y0148000D03*
X0174408Y0153000D03*
X0175908Y0142278D03*
X0175908Y0138500D03*
X0181619Y0133500D03*
X0136619Y0153000D03*
X0125119Y0154000D03*
X0112480Y0140161D03*
X0110119Y0137750D03*
X0110119Y0134350D03*
X0129119Y0137000D03*
X0122619Y0121000D03*
X0071374Y0123000D03*
X0054619Y0131500D03*
X0062619Y0139500D03*
X0071115Y0149188D03*
X0079119Y0170250D03*
X0262767Y0146961D03*
X0268345Y0140552D03*
X0270119Y0136000D03*
X0266619Y0131000D03*
X0266092Y0127000D03*
X0262119Y0126000D03*
X0274619Y0125000D03*
X0273470Y0120914D03*
X0280147Y0121125D03*
X0281244Y0117625D03*
X0284994Y0110937D03*
X0283872Y0105500D03*
X0283830Y0101226D03*
X0279688Y0097419D03*
X0275975Y0095789D03*
X0283761Y0095937D03*
X0294522Y0097687D03*
X0306994Y0097750D03*
X0295619Y0086437D03*
X0304122Y0080497D03*
X0272406Y0069999D03*
X0259619Y0067000D03*
X0255494Y0073750D03*
X0264752Y0074627D03*
X0259119Y0077000D03*
X0252247Y0076817D03*
X0260962Y0083313D03*
X0269619Y0080500D03*
X0264228Y0086625D03*
X0237119Y0079524D03*
X0224119Y0076500D03*
X0219436Y0072222D03*
X0225436Y0066155D03*
X0252119Y0061500D03*
X0199442Y0083313D03*
X0164119Y0069500D03*
X0166927Y0065808D03*
X0173361Y0059413D03*
X0177954Y0054836D03*
X0183677Y0049058D03*
X0237619Y0021500D03*
X0099505Y0052614D03*
X0099505Y0057614D03*
X0057119Y0034500D03*
X0062119Y0024000D03*
X0223619Y0096858D03*
X0244119Y0099851D03*
X0262119Y0102285D03*
X0264545Y0099851D03*
X0268489Y0099851D03*
X0272267Y0099970D03*
X0262119Y0107444D03*
X0262119Y0111222D03*
X0262119Y0115000D03*
X0290994Y0128625D03*
X0294119Y0131750D03*
X0296619Y0135500D03*
X0301619Y0139250D03*
X0303494Y0134250D03*
X0309744Y0131125D03*
X0314119Y0128000D03*
X0317244Y0124816D03*
X0320994Y0121750D03*
X0317244Y0135500D03*
X0343119Y0139500D03*
X0361619Y0120500D03*
X0290369Y0146125D03*
X0285369Y0146750D03*
X0282869Y0143000D03*
X0282089Y0138470D03*
D71*
X0278024Y0138470D01*
X0258369Y0158125D01*
X0238994Y0158125D01*
X0231619Y0165500D01*
X0225280Y0165500D01*
X0239060Y0165500D02*
X0243935Y0160625D01*
X0258994Y0160625D01*
X0276619Y0143000D01*
X0282869Y0143000D01*
X0285369Y0146750D02*
X0275994Y0146750D01*
X0257244Y0165500D01*
X0252839Y0165500D01*
X0237694Y0150925D02*
X0232578Y0156041D01*
X0222967Y0156041D01*
X0222793Y0156214D01*
X0221536Y0156214D01*
X0217619Y0152296D01*
X0217619Y0147846D01*
X0225182Y0144654D02*
X0225835Y0144500D01*
X0222489Y0141154D01*
X0217619Y0141154D01*
X0225835Y0140283D02*
X0228119Y0138500D01*
X0237619Y0138500D01*
X0241119Y0135000D01*
X0241119Y0132154D01*
X0241182Y0132091D01*
X0243119Y0132122D02*
X0243150Y0132091D01*
X0243119Y0132122D02*
X0243119Y0136000D01*
X0240402Y0138717D01*
X0240402Y0144500D01*
X0241307Y0145178D01*
X0242628Y0146500D01*
X0247272Y0146500D01*
X0242402Y0146000D02*
X0241307Y0145178D01*
X0245119Y0136489D02*
X0251130Y0142500D01*
X0260767Y0142500D01*
X0260767Y0145158D01*
X0260078Y0145847D01*
X0260078Y0146539D01*
X0256703Y0149914D01*
X0253965Y0149914D01*
X0253965Y0146500D01*
X0253965Y0149914D02*
X0252954Y0150925D01*
X0237694Y0150925D01*
X0225835Y0144500D02*
X0225835Y0140283D01*
X0245119Y0136489D02*
X0245119Y0132091D01*
X0245149Y0132091D01*
X0247087Y0132091D02*
X0247087Y0135629D01*
X0251959Y0140500D01*
X0261832Y0140500D01*
X0262767Y0141435D01*
X0262767Y0146961D01*
X0247156Y0132091D02*
X0247087Y0132091D01*
X0247119Y0132122D01*
X0279522Y0126125D02*
X0280147Y0125500D01*
X0280147Y0121125D01*
X0277047Y0118025D01*
X0261058Y0118025D01*
X0260065Y0117031D01*
X0258209Y0117031D01*
X0280147Y0121125D02*
X0280119Y0124846D01*
X0300044Y0118925D02*
X0301619Y0120500D01*
X0303194Y0122075D01*
X0301619Y0120500D02*
X0303194Y0118925D01*
X0301619Y0118925D02*
X0301619Y0120500D01*
X0301619Y0118925D02*
X0300044Y0118925D01*
X0323713Y0130850D02*
X0327119Y0127445D01*
X0327119Y0123346D01*
X0330119Y0127500D02*
X0334272Y0123346D01*
X0335119Y0123346D01*
X0330119Y0127500D02*
X0330119Y0132000D01*
X0327119Y0135000D01*
X0325863Y0135000D01*
X0323713Y0137150D01*
X0319557Y0137814D02*
X0319557Y0139895D01*
X0320512Y0140850D01*
X0335524Y0140850D01*
X0335524Y0137150D01*
X0335524Y0140850D02*
X0340464Y0140850D01*
X0343614Y0144000D01*
X0343619Y0144000D01*
X0346806Y0147187D01*
X0346806Y0147990D01*
X0319557Y0137814D02*
X0317244Y0135500D01*
X0343028Y0123346D02*
X0343119Y0123346D01*
X0301619Y0104250D02*
X0300590Y0104250D01*
X0294522Y0104250D02*
X0294522Y0097687D01*
X0295619Y0086437D02*
X0306994Y0097750D01*
X0294522Y0104250D02*
X0293897Y0104250D01*
X0247087Y0103005D02*
X0243150Y0103005D01*
X0243150Y0105909D01*
X0247087Y0105909D02*
X0247087Y0103005D01*
X0247087Y0077639D01*
X0254727Y0069999D01*
X0272406Y0069999D01*
X0252119Y0061500D02*
X0264969Y0048650D01*
X0264969Y0032350D01*
X0262562Y0029943D01*
X0255410Y0029943D01*
X0249466Y0024000D01*
X0244178Y0024000D01*
X0271737Y0024000D02*
X0293710Y0045973D01*
X0293710Y0055437D01*
X0297119Y0058846D01*
X0297118Y0058846D02*
X0297120Y0058895D01*
X0297125Y0058943D01*
X0297134Y0058992D01*
X0297147Y0059039D01*
X0297163Y0059085D01*
X0297183Y0059130D01*
X0297206Y0059173D01*
X0297232Y0059214D01*
X0297261Y0059254D01*
X0297293Y0059291D01*
X0297327Y0059325D01*
X0297364Y0059357D01*
X0297404Y0059386D01*
X0297445Y0059412D01*
X0297488Y0059435D01*
X0297533Y0059455D01*
X0297579Y0059471D01*
X0297626Y0059484D01*
X0297675Y0059493D01*
X0297723Y0059498D01*
X0297772Y0059500D01*
X0297772Y0058625D01*
X0297772Y0059500D02*
X0305595Y0059500D01*
X0315369Y0054875D02*
X0315369Y0049500D01*
X0312869Y0047000D01*
X0297119Y0047000D01*
X0297119Y0052154D01*
X0297119Y0047000D02*
X0297119Y0035602D01*
X0285516Y0024000D01*
X0315369Y0049500D02*
X0327642Y0049500D01*
X0410369Y0074472D02*
X0410369Y0077500D01*
X0408869Y0079000D01*
X0410369Y0074472D02*
X0411856Y0072985D01*
X0424887Y0072985D01*
X0426174Y0072948D01*
X0426077Y0072948D01*
X0430151Y0068874D01*
X0478334Y0068874D01*
X0431619Y0060500D02*
X0431619Y0056437D01*
X0428181Y0053000D01*
X0419404Y0053000D01*
X0419279Y0053125D01*
X0419183Y0067936D02*
X0419279Y0068874D01*
X0419276Y0076125D02*
X0419279Y0076748D01*
X0359619Y0088937D02*
X0356892Y0091664D01*
X0356892Y0103071D01*
X0350634Y0085461D02*
X0348934Y0083760D01*
X0232028Y0113094D02*
X0229713Y0113094D01*
X0228619Y0112000D01*
X0197213Y0114179D02*
X0197213Y0114350D01*
X0158119Y0134404D02*
X0150119Y0134404D01*
X0132760Y0129949D02*
X0130792Y0129949D01*
X0128233Y0129949D01*
X0128233Y0133426D01*
X0124460Y0137199D01*
X0115768Y0139899D02*
X0114619Y0138750D01*
X0114619Y0134500D01*
X0113619Y0133500D01*
X0113619Y0121500D01*
X0112147Y0120029D01*
X0109369Y0120029D01*
X0109369Y0114471D01*
X0105296Y0107779D02*
X0102010Y0111125D01*
X0098494Y0117451D02*
X0094727Y0113684D01*
X0088656Y0113684D01*
X0087869Y0114471D01*
X0094432Y0114471D02*
X0094727Y0113684D01*
X0098494Y0117451D02*
X0098494Y0126375D01*
X0095043Y0126375D01*
X0094852Y0126184D01*
X0088031Y0126184D01*
X0087869Y0126346D01*
X0087869Y0125500D01*
X0081244Y0125500D01*
X0087869Y0126346D02*
X0087869Y0127365D01*
X0098494Y0126375D02*
X0102542Y0126375D01*
X0107167Y0131000D01*
X0110119Y0131000D01*
X0128233Y0129949D02*
X0128233Y0126406D01*
X0128233Y0124437D01*
X0125119Y0124437D01*
X0125119Y0115000D01*
X0121772Y0111654D01*
X0118119Y0111654D01*
X0109369Y0107779D02*
X0105296Y0107779D01*
X0076619Y0106169D02*
X0071619Y0106169D01*
X0071619Y0105500D01*
X0063369Y0104750D02*
X0063369Y0107010D01*
X0063369Y0104750D02*
X0062854Y0104235D01*
X0059624Y0104235D01*
X0059614Y0104244D01*
X0055218Y0104244D01*
X0048800Y0110663D01*
X0039562Y0101425D01*
X0029062Y0101425D01*
X0040479Y0093551D02*
X0072432Y0093551D01*
X0075801Y0090183D01*
X0106936Y0090183D01*
X0107244Y0089875D01*
X0104119Y0084250D02*
X0041479Y0084250D01*
X0040479Y0084890D01*
X0040479Y0076228D02*
X0068082Y0076228D01*
X0072301Y0080447D01*
X0094566Y0080447D01*
X0100119Y0080500D01*
X0099472Y0076447D02*
X0071771Y0076447D01*
X0067221Y0071898D01*
X0042054Y0071898D01*
X0025518Y0049457D02*
X0025369Y0049457D01*
X0040607Y0034169D02*
X0040607Y0017831D01*
X0057119Y0029346D02*
X0057119Y0034500D01*
X0126965Y0060500D02*
X0129619Y0060500D01*
X0129619Y0064500D01*
X0129619Y0068500D01*
X0129619Y0076500D01*
X0129619Y0084500D01*
X0132272Y0084500D01*
X0129619Y0084500D02*
X0126965Y0084500D01*
X0126965Y0076500D02*
X0129619Y0076500D01*
X0132272Y0076500D01*
X0132272Y0068500D02*
X0129619Y0068500D01*
X0126965Y0068500D01*
X0144119Y0067000D02*
X0144119Y0060654D01*
X0144272Y0060500D01*
X0144272Y0052500D01*
X0158119Y0051154D02*
X0166119Y0051154D01*
X0166119Y0032500D01*
X0169975Y0028643D01*
X0169999Y0028643D01*
X0161509Y0024000D02*
X0154296Y0024000D01*
X0132272Y0060500D02*
X0129619Y0060500D01*
X0101619Y0075500D02*
X0100420Y0075500D01*
X0099472Y0076447D01*
X0048800Y0110663D02*
X0048800Y0124654D01*
X0045465Y0124654D01*
X0041237Y0128882D01*
X0035119Y0128882D01*
X0035119Y0134000D02*
X0046465Y0134000D01*
X0049119Y0131346D01*
X0049272Y0131500D01*
X0054619Y0131500D01*
X0055406Y0136559D02*
X0060119Y0131346D01*
X0055406Y0136559D02*
X0035119Y0136559D01*
X0035119Y0139118D02*
X0040737Y0139118D01*
X0042119Y0140500D01*
X0042119Y0145260D01*
X0062619Y0139500D02*
X0066119Y0143000D01*
X0067772Y0143000D01*
X0071115Y0149188D02*
X0080619Y0149188D01*
X0081369Y0148438D01*
X0081369Y0160846D01*
X0077465Y0164750D01*
X0079119Y0170250D02*
X0069369Y0170250D01*
X0063965Y0175654D01*
X0063965Y0176000D01*
X0045619Y0185503D02*
X0041785Y0181669D01*
X0040607Y0181669D01*
X0040607Y0165331D01*
X0089619Y0150500D02*
X0094619Y0155500D01*
X0094619Y0175500D01*
X0094119Y0175500D01*
X0104119Y0175500D02*
X0104119Y0165000D01*
X0099619Y0160500D01*
X0127869Y0162875D02*
X0130119Y0160625D01*
X0127869Y0162875D02*
X0127869Y0171750D01*
X0129744Y0173625D01*
X0129744Y0177375D01*
X0123190Y0183928D01*
X0061994Y0183928D01*
X0060419Y0185503D01*
X0045619Y0185503D01*
X0131260Y0171836D02*
X0131260Y0167914D01*
X0134033Y0165141D01*
X0134728Y0165141D01*
X0145500Y0154369D01*
X0155210Y0154369D01*
X0159531Y0150048D01*
X0159531Y0144952D01*
X0157119Y0142540D01*
X0158119Y0141096D01*
X0181619Y0144563D02*
X0181619Y0148000D01*
X0134744Y0175320D02*
X0131260Y0171836D01*
X0134744Y0175320D02*
X0134744Y0175500D01*
X0136619Y0175500D01*
X0144119Y0183000D01*
X0388119Y0183000D01*
X0316619Y0155500D02*
X0316619Y0155419D01*
X0397119Y0153369D02*
X0397119Y0150369D01*
X0402465Y0150369D01*
X0402146Y0148043D01*
X0402119Y0147846D01*
X0402465Y0150369D02*
X0419518Y0150369D01*
X0401772Y0133500D02*
X0400619Y0131240D01*
X0142103Y0120016D02*
X0141619Y0120500D01*
X0140915Y0120500D01*
X0137988Y0120500D01*
X0132760Y0120500D01*
X0128233Y0122469D02*
X0128233Y0124437D01*
X0122619Y0121000D02*
X0118414Y0121000D01*
X0118119Y0120705D01*
X0118119Y0123654D01*
X0118119Y0120705D02*
X0118119Y0118346D01*
X0136619Y0115500D02*
X0141619Y0120500D01*
X0136619Y0115500D02*
X0136697Y0115421D01*
X0072879Y0114437D02*
X0072244Y0114437D01*
X0060119Y0124654D02*
X0049119Y0124654D01*
X0048800Y0124654D01*
X0389119Y0020500D02*
X0391619Y0020500D01*
D72*
X0419279Y0029503D02*
X0419279Y0030500D01*
X0401619Y0030500D01*
X0396619Y0035500D01*
X0396619Y0038500D01*
X0391212Y0038500D01*
X0391212Y0044148D01*
X0391212Y0055133D01*
X0402564Y0055500D02*
X0402603Y0055539D01*
X0402564Y0055500D02*
X0371619Y0055500D01*
X0365445Y0055500D01*
X0361658Y0051713D01*
X0361658Y0044516D01*
X0369138Y0044516D02*
X0376619Y0044516D01*
X0384099Y0044516D02*
X0391579Y0044516D01*
X0391212Y0044148D01*
X0391212Y0038500D02*
X0377869Y0038500D01*
X0369138Y0035785D02*
X0368228Y0034875D01*
X0346619Y0040500D02*
X0332619Y0054500D01*
X0327642Y0054500D01*
X0350634Y0055539D02*
X0355999Y0055539D01*
X0361619Y0061159D01*
X0361619Y0065500D01*
X0360994Y0066125D01*
X0360994Y0075500D01*
X0366619Y0075500D01*
X0360994Y0075500D02*
X0360994Y0085553D01*
X0361021Y0085553D01*
X0363003Y0087536D01*
X0363003Y0090339D01*
X0361658Y0091684D01*
X0361658Y0096484D01*
X0335881Y0097500D02*
X0335881Y0099762D01*
X0350634Y0085461D02*
X0350727Y0085553D01*
X0360994Y0085553D01*
X0354138Y0077980D02*
X0350634Y0077980D01*
X0354138Y0077980D02*
X0356619Y0075500D01*
X0386619Y0076084D02*
X0391619Y0081084D01*
X0391619Y0085638D01*
X0402426Y0085638D01*
X0402603Y0085461D01*
X0391619Y0085638D02*
X0391619Y0095500D01*
X0391622Y0095503D01*
X0391622Y0096442D01*
X0391579Y0096484D01*
X0391579Y0109961D01*
X0397119Y0115500D01*
X0393619Y0141154D02*
X0385369Y0141154D01*
X0393619Y0141154D02*
X0402119Y0141154D01*
X0262767Y0146961D02*
X0256103Y0153625D01*
X0237837Y0153625D01*
X0233221Y0158241D01*
X0223878Y0158241D01*
X0218119Y0164000D01*
X0218119Y0171853D01*
X0124119Y0175500D02*
X0124119Y0165971D01*
X0121883Y0163736D01*
X0119369Y0161221D01*
X0118647Y0160500D01*
X0109619Y0160500D01*
X0107717Y0155341D02*
X0118807Y0155341D01*
X0119369Y0154529D01*
X0107717Y0155341D02*
X0104778Y0152401D01*
X0104778Y0143409D01*
X0104619Y0143000D01*
X0114619Y0143000D01*
X0115768Y0141851D01*
X0115768Y0139899D01*
X0117917Y0137750D01*
X0119869Y0137750D01*
X0104619Y0143000D02*
X0086806Y0143000D01*
X0081369Y0148438D01*
X0084819Y0148512D02*
X0084819Y0174300D01*
X0084119Y0175500D01*
X0051631Y0174000D02*
X0051631Y0165331D01*
X0051131Y0173500D02*
X0046119Y0173500D01*
X0051131Y0173500D02*
X0051631Y0174000D01*
X0051631Y0181669D01*
X0051690Y0181728D01*
X0119140Y0181728D01*
X0124119Y0176750D01*
X0124119Y0175500D01*
X0099619Y0150500D02*
X0096407Y0150500D01*
X0091607Y0145700D01*
X0087630Y0145700D01*
X0084819Y0148512D01*
X0059119Y0150346D02*
X0050619Y0150346D01*
X0048225Y0152740D01*
X0042119Y0152740D01*
X0042119Y0157500D01*
X0042119Y0152740D02*
X0026847Y0152740D01*
X0021619Y0147512D01*
X0021619Y0101425D01*
X0029062Y0101425D01*
X0029062Y0089560D01*
X0029401Y0089220D01*
X0025369Y0085720D01*
X0025369Y0049457D01*
X0025518Y0049457D02*
X0028162Y0049457D01*
X0040119Y0037500D01*
X0040119Y0033490D01*
X0040107Y0033478D01*
X0040607Y0034169D01*
X0071619Y0024000D02*
X0078227Y0024000D01*
X0083268Y0018960D01*
X0132119Y0018960D01*
X0132119Y0046400D01*
X0129619Y0048900D01*
X0129619Y0052100D02*
X0129619Y0060500D01*
X0183677Y0049151D02*
X0190130Y0055604D01*
X0183677Y0049151D02*
X0183677Y0049058D01*
X0212395Y0071500D02*
X0223229Y0060666D01*
X0229453Y0060666D01*
X0244119Y0046000D01*
X0244119Y0032715D01*
X0237271Y0025866D01*
X0237119Y0025500D02*
X0237119Y0022707D01*
X0237121Y0022628D01*
X0237126Y0022550D01*
X0237135Y0022471D01*
X0237148Y0022393D01*
X0237164Y0022316D01*
X0237184Y0022240D01*
X0237207Y0022165D01*
X0237234Y0022090D01*
X0237264Y0022018D01*
X0237298Y0021946D01*
X0237335Y0021876D01*
X0237375Y0021808D01*
X0237418Y0021742D01*
X0237464Y0021678D01*
X0237513Y0021616D01*
X0237565Y0021557D01*
X0237619Y0021500D01*
X0237119Y0025500D02*
X0237121Y0025545D01*
X0237127Y0025590D01*
X0237137Y0025634D01*
X0237150Y0025677D01*
X0237168Y0025719D01*
X0237188Y0025759D01*
X0237213Y0025797D01*
X0237240Y0025833D01*
X0237271Y0025866D01*
X0246935Y0036456D02*
X0249825Y0033566D01*
X0253912Y0033566D01*
X0255096Y0034750D01*
X0259119Y0034750D01*
X0246935Y0036456D02*
X0246935Y0046684D01*
X0230553Y0063066D01*
X0224223Y0063066D01*
X0212895Y0074395D01*
X0203873Y0074395D01*
X0202621Y0073143D01*
X0196533Y0073143D01*
X0202100Y0067575D02*
X0206025Y0071500D01*
X0212395Y0071500D01*
X0220181Y0093937D02*
X0208619Y0105500D01*
X0208619Y0107618D01*
X0202058Y0114179D01*
X0197213Y0114179D01*
X0180940Y0114179D01*
X0180619Y0114500D01*
X0220181Y0093937D02*
X0229306Y0093937D01*
X0059119Y0143654D02*
X0050619Y0143654D01*
X0043725Y0143654D01*
X0042119Y0145260D01*
X0038904Y0089220D02*
X0029401Y0089220D01*
X0143397Y0018960D02*
X0147937Y0024000D01*
X0154296Y0024000D01*
X0143397Y0018960D02*
X0132119Y0018960D01*
X0419279Y0029503D02*
X0420713Y0030500D01*
X0420713Y0030499D02*
X0420644Y0030510D01*
X0420576Y0030516D01*
X0420506Y0030519D01*
X0420437Y0030518D01*
X0420368Y0030513D01*
X0420299Y0030504D01*
X0420231Y0030491D01*
X0420164Y0030474D01*
X0420098Y0030454D01*
X0420033Y0030430D01*
X0419969Y0030402D01*
X0419907Y0030371D01*
X0419847Y0030336D01*
X0419789Y0030298D01*
X0419734Y0030257D01*
X0419680Y0030213D01*
X0419629Y0030166D01*
X0419581Y0030116D01*
X0419536Y0030064D01*
X0419494Y0030009D01*
X0419455Y0029951D01*
X0419419Y0029892D01*
X0419387Y0029831D01*
X0419358Y0029768D01*
X0419332Y0029703D01*
X0419311Y0029638D01*
X0419293Y0029571D01*
X0419279Y0029503D01*
X0419279Y0030500D02*
X0431619Y0030500D01*
X0438806Y0037626D01*
X0457495Y0037626D01*
X0446619Y0025187D02*
X0446619Y0017779D01*
X0447022Y0017375D01*
X0453715Y0017375D02*
X0460056Y0017375D01*
X0446619Y0060500D02*
X0446619Y0061000D01*
X0478334Y0061000D01*
X0457495Y0084622D02*
X0419279Y0084622D01*
X0457495Y0084622D02*
X0457495Y0085500D01*
D73*
X0368369Y0104750D03*
X0315994Y0098937D03*
X0356619Y0125500D03*
X0311619Y0144250D03*
X0202619Y0106000D03*
X0186619Y0107500D03*
X0135994Y0169875D03*
X0147869Y0178000D03*
X0463181Y0127997D03*
X0251869Y0038500D03*
X0259119Y0034750D03*
X0446619Y0025187D03*
D74*
X0460056Y0017375D03*
X0457495Y0037626D03*
D75*
X0478334Y0037377D02*
X0491746Y0037377D01*
X0491857Y0037379D01*
X0491969Y0037385D01*
X0492080Y0037395D01*
X0492190Y0037409D01*
X0492300Y0037427D01*
X0492410Y0037448D01*
X0492518Y0037474D01*
X0492626Y0037504D01*
X0492732Y0037537D01*
X0492837Y0037574D01*
X0492941Y0037615D01*
X0493043Y0037659D01*
X0493144Y0037707D01*
X0493243Y0037759D01*
X0493340Y0037814D01*
X0493434Y0037873D01*
X0493527Y0037935D01*
X0493618Y0038000D01*
X0493706Y0038068D01*
X0493791Y0038140D01*
X0493874Y0038214D01*
X0493954Y0038292D01*
X0494032Y0038372D01*
X0494106Y0038455D01*
X0494178Y0038540D01*
X0494246Y0038628D01*
X0494311Y0038719D01*
X0494373Y0038812D01*
X0494432Y0038906D01*
X0494487Y0039003D01*
X0494539Y0039102D01*
X0494587Y0039203D01*
X0494631Y0039305D01*
X0494672Y0039409D01*
X0494709Y0039514D01*
X0494742Y0039620D01*
X0494772Y0039728D01*
X0494798Y0039836D01*
X0494819Y0039946D01*
X0494837Y0040056D01*
X0494851Y0040166D01*
X0494861Y0040277D01*
X0494867Y0040389D01*
X0494869Y0040500D01*
X0494869Y0030500D02*
X0494867Y0030440D01*
X0494862Y0030380D01*
X0494853Y0030320D01*
X0494840Y0030261D01*
X0494824Y0030203D01*
X0494804Y0030146D01*
X0494781Y0030091D01*
X0494755Y0030037D01*
X0494725Y0029984D01*
X0494693Y0029934D01*
X0494657Y0029885D01*
X0494618Y0029839D01*
X0494577Y0029795D01*
X0494533Y0029754D01*
X0494487Y0029715D01*
X0494438Y0029679D01*
X0494388Y0029647D01*
X0494335Y0029617D01*
X0494281Y0029591D01*
X0494226Y0029568D01*
X0494169Y0029548D01*
X0494111Y0029532D01*
X0494052Y0029519D01*
X0493992Y0029510D01*
X0493932Y0029505D01*
X0493872Y0029503D01*
X0478334Y0029503D01*
X0476931Y0173253D02*
X0452915Y0173253D01*
D76*
X0415619Y0172500D02*
X0410119Y0178000D01*
X0147869Y0178000D01*
X0138472Y0171853D02*
X0218119Y0171853D01*
X0339744Y0171853D01*
X0339744Y0162052D01*
X0346806Y0154990D01*
X0346806Y0147990D01*
X0347739Y0148923D01*
X0354175Y0148923D01*
X0354175Y0128056D01*
X0356619Y0125500D01*
X0367379Y0125899D02*
X0367379Y0124711D01*
X0367379Y0125899D02*
X0367379Y0126750D01*
X0314119Y0146750D02*
X0311619Y0144250D01*
X0314119Y0146750D02*
X0321107Y0146750D01*
X0354175Y0148923D02*
X0354175Y0150195D01*
X0415369Y0165766D02*
X0415634Y0165500D01*
X0426418Y0138540D02*
X0442595Y0138540D01*
X0444484Y0136651D01*
X0444484Y0112865D01*
X0447162Y0110687D01*
X0476114Y0110687D01*
X0476114Y0102813D02*
X0446306Y0102813D01*
X0440119Y0109000D01*
X0463181Y0127997D02*
X0463556Y0128372D01*
X0476931Y0128372D01*
X0427119Y0137240D02*
X0426418Y0138540D01*
X0324857Y0098937D02*
X0315994Y0098937D01*
X0324857Y0098937D02*
X0324857Y0097500D01*
X0259119Y0047500D02*
X0232815Y0073804D01*
X0232815Y0080507D01*
X0224232Y0089091D01*
X0219528Y0089091D01*
X0202619Y0106000D01*
X0195893Y0098091D02*
X0188483Y0105500D01*
X0186619Y0107500D01*
X0195893Y0098091D02*
X0201399Y0098091D01*
X0214989Y0084500D01*
X0222330Y0084500D01*
X0228225Y0078606D01*
X0228225Y0071606D01*
X0251869Y0047962D01*
X0251869Y0038500D01*
X0259119Y0034750D02*
X0259119Y0047500D01*
X0457495Y0037626D02*
X0478085Y0037626D01*
X0478115Y0037624D01*
X0478145Y0037619D01*
X0478173Y0037610D01*
X0478201Y0037597D01*
X0478226Y0037582D01*
X0478250Y0037563D01*
X0478271Y0037542D01*
X0478290Y0037518D01*
X0478305Y0037493D01*
X0478318Y0037465D01*
X0478327Y0037437D01*
X0478332Y0037407D01*
X0478334Y0037377D01*
X0494869Y0020500D02*
X0494867Y0020388D01*
X0494861Y0020277D01*
X0494851Y0020166D01*
X0494837Y0020055D01*
X0494819Y0019945D01*
X0494798Y0019836D01*
X0494772Y0019727D01*
X0494742Y0019620D01*
X0494709Y0019513D01*
X0494672Y0019408D01*
X0494631Y0019304D01*
X0494587Y0019202D01*
X0494538Y0019101D01*
X0494487Y0019002D01*
X0494432Y0018905D01*
X0494373Y0018810D01*
X0494311Y0018718D01*
X0494246Y0018627D01*
X0494177Y0018539D01*
X0494106Y0018454D01*
X0494031Y0018371D01*
X0493954Y0018290D01*
X0493873Y0018213D01*
X0493790Y0018138D01*
X0493705Y0018067D01*
X0493617Y0017998D01*
X0493526Y0017933D01*
X0493434Y0017871D01*
X0493339Y0017812D01*
X0493242Y0017757D01*
X0493143Y0017706D01*
X0493042Y0017657D01*
X0492940Y0017613D01*
X0492836Y0017572D01*
X0492731Y0017535D01*
X0492624Y0017502D01*
X0492517Y0017472D01*
X0492408Y0017446D01*
X0492299Y0017425D01*
X0492189Y0017407D01*
X0492078Y0017393D01*
X0491967Y0017383D01*
X0491856Y0017377D01*
X0491744Y0017375D01*
X0460056Y0017375D01*
X0138472Y0171853D02*
X0135994Y0169875D01*
D77*
X0332131Y0146750D02*
X0336038Y0146750D01*
X0338538Y0144250D01*
X0384619Y0131240D02*
X0389375Y0132346D01*
X0388619Y0133102D01*
X0389375Y0132346D02*
X0392619Y0131240D01*
X0400619Y0131240D01*
X0400619Y0123760D02*
X0397119Y0118488D01*
X0397119Y0115500D01*
X0397343Y0122154D02*
X0400619Y0123760D01*
X0397343Y0122154D02*
X0392619Y0123760D01*
X0384619Y0123760D01*
X0349056Y0111240D02*
X0349056Y0109889D01*
X0345244Y0106076D01*
X0345244Y0101443D01*
X0346542Y0100144D01*
X0351819Y0100144D01*
X0354745Y0103071D01*
X0356892Y0103071D01*
X0362035Y0103071D01*
X0363723Y0104759D01*
X0368369Y0104759D01*
X0340788Y0102407D02*
X0335881Y0097500D01*
X0340788Y0102407D02*
X0340788Y0107500D01*
X0426859Y0130760D02*
X0429119Y0128500D01*
X0369138Y0044516D02*
X0369138Y0035785D01*
X0368228Y0034875D02*
X0362744Y0034875D01*
X0361619Y0035500D01*
X0368228Y0034875D02*
X0379119Y0034875D01*
X0379119Y0030500D01*
X0371619Y0023000D01*
X0371619Y0020500D01*
X0390369Y0034875D02*
X0403494Y0021750D01*
X0443117Y0021750D01*
X0446619Y0025187D01*
X0390369Y0034875D02*
X0379119Y0034875D01*
D78*
X0182056Y0144563D02*
X0181619Y0144563D01*
D79*
X0136654Y0134012D03*
X0110119Y0131000D03*
X0370369Y0136250D03*
X0419619Y0142500D03*
X0425619Y0141000D03*
D80*
X0348119Y0159980D03*
X0289846Y0117281D03*
X0144119Y0067000D03*
X0129619Y0064500D03*
X0266119Y0061000D03*
X0406619Y0041000D03*
X0124119Y0130000D03*
X0042119Y0157500D03*
X0046119Y0173500D03*
D81*
X0378119Y0137000D03*
D82*
X0379349Y0131240D02*
X0374859Y0126750D01*
X0379349Y0131240D02*
X0384619Y0131240D01*
D83*
X0495681Y0178312D03*
X0026306Y0178312D03*
X0026306Y0020500D03*
D84*
X0440119Y0109000D03*
M02*
