G75*
%MOIN*%
%OFA0B0*%
%FSLAX25Y25*%
%IPPOS*%
%LPD*%
%AMOC8*
5,1,8,0,0,1.08239X$1,22.5*
%
%ADD10C,0.01000*%
%ADD11R,0.04331X0.03937*%
%ADD12R,0.05906X0.05118*%
%ADD13R,0.05118X0.05906*%
%ADD14R,0.06299X0.07087*%
%ADD15C,0.06400*%
%ADD16C,0.07400*%
%ADD17R,0.07087X0.07087*%
%ADD18C,0.07087*%
%ADD19R,0.18110X0.03937*%
%ADD20R,0.13386X0.06299*%
%ADD21R,0.03543X0.03150*%
%ADD22R,0.03150X0.03543*%
%ADD23R,0.04724X0.02362*%
%ADD24R,0.07480X0.05512*%
%ADD25R,0.05512X0.07087*%
%ADD26R,0.05906X0.02756*%
%ADD27R,0.00984X0.01969*%
%ADD28R,0.06299X0.03543*%
%ADD29R,0.00984X0.02756*%
%ADD30R,0.02756X0.00984*%
%ADD31R,0.20472X0.12598*%
%ADD32R,0.00886X0.01673*%
%ADD33R,0.11811X0.04724*%
%ADD34R,0.00787X0.03346*%
%ADD35R,0.03346X0.00787*%
%ADD36R,0.10433X0.10433*%
%ADD37R,0.16000X0.06000*%
%ADD38R,0.16000X0.05000*%
%ADD39R,0.11024X0.09449*%
%ADD40C,0.00000*%
%ADD41R,0.03937X0.04331*%
%ADD42R,0.03858X0.14567*%
%ADD43R,0.05906X0.07087*%
%ADD44R,0.07087X0.05906*%
%ADD45C,0.00591*%
%ADD46C,0.01969*%
%ADD47R,0.03199X0.04134*%
%ADD48R,0.02165X0.04724*%
%ADD49R,0.00984X0.03937*%
%ADD50R,0.03937X0.00984*%
%ADD51R,0.07874X0.07874*%
%ADD52R,0.09252X0.01772*%
%ADD53C,0.05315*%
%ADD54R,0.06102X0.05906*%
%ADD55R,0.06693X0.09449*%
%ADD56R,0.05512X0.04331*%
%ADD57R,0.03937X0.10827*%
%ADD58R,0.03346X0.07480*%
%ADD59C,0.01102*%
%ADD60R,0.06535X0.08465*%
%ADD61C,0.02775*%
%ADD62R,0.00906X0.03150*%
%ADD63R,0.03150X0.01378*%
%ADD64R,0.01378X0.03150*%
%ADD65R,0.05000X0.02500*%
%ADD66C,0.01200*%
%ADD67OC8,0.03169*%
%ADD68C,0.00800*%
%ADD69OC8,0.02578*%
%ADD70C,0.00787*%
%ADD71C,0.01600*%
%ADD72OC8,0.05906*%
%ADD73OC8,0.05315*%
%ADD74C,0.05000*%
%ADD75C,0.04000*%
%ADD76C,0.02400*%
%ADD77C,0.00600*%
%ADD78OC8,0.02775*%
%ADD79C,0.02578*%
%ADD80OC8,0.04429*%
%ADD81C,0.03200*%
%ADD82OC8,0.18307*%
%ADD83OC8,0.03562*%
D10*
X0021619Y0009875D02*
X0505320Y0009875D01*
X0505320Y0183103D01*
X0505318Y0183243D01*
X0505312Y0183383D01*
X0505302Y0183523D01*
X0505289Y0183663D01*
X0505271Y0183802D01*
X0505249Y0183941D01*
X0505224Y0184078D01*
X0505195Y0184216D01*
X0505162Y0184352D01*
X0505125Y0184487D01*
X0505084Y0184621D01*
X0505039Y0184754D01*
X0504991Y0184886D01*
X0504939Y0185016D01*
X0504884Y0185145D01*
X0504825Y0185272D01*
X0504762Y0185398D01*
X0504696Y0185522D01*
X0504627Y0185643D01*
X0504554Y0185763D01*
X0504477Y0185881D01*
X0504398Y0185996D01*
X0504315Y0186110D01*
X0504229Y0186220D01*
X0504140Y0186329D01*
X0504048Y0186435D01*
X0503953Y0186538D01*
X0503856Y0186639D01*
X0503755Y0186736D01*
X0503652Y0186831D01*
X0503546Y0186923D01*
X0503437Y0187012D01*
X0503327Y0187098D01*
X0503213Y0187181D01*
X0503098Y0187260D01*
X0502980Y0187337D01*
X0502860Y0187410D01*
X0502739Y0187479D01*
X0502615Y0187545D01*
X0502489Y0187608D01*
X0502362Y0187667D01*
X0502233Y0187722D01*
X0502103Y0187774D01*
X0501971Y0187822D01*
X0501838Y0187867D01*
X0501704Y0187908D01*
X0501569Y0187945D01*
X0501433Y0187978D01*
X0501295Y0188007D01*
X0501158Y0188032D01*
X0501019Y0188054D01*
X0500880Y0188072D01*
X0500740Y0188085D01*
X0500600Y0188095D01*
X0500460Y0188101D01*
X0500320Y0188103D01*
X0021619Y0188103D01*
X0021479Y0188101D01*
X0021339Y0188095D01*
X0021199Y0188085D01*
X0021059Y0188072D01*
X0020920Y0188054D01*
X0020781Y0188032D01*
X0020644Y0188007D01*
X0020506Y0187978D01*
X0020370Y0187945D01*
X0020235Y0187908D01*
X0020101Y0187867D01*
X0019968Y0187822D01*
X0019836Y0187774D01*
X0019706Y0187722D01*
X0019577Y0187667D01*
X0019450Y0187608D01*
X0019324Y0187545D01*
X0019200Y0187479D01*
X0019079Y0187410D01*
X0018959Y0187337D01*
X0018841Y0187260D01*
X0018726Y0187181D01*
X0018612Y0187098D01*
X0018502Y0187012D01*
X0018393Y0186923D01*
X0018287Y0186831D01*
X0018184Y0186736D01*
X0018083Y0186639D01*
X0017986Y0186538D01*
X0017891Y0186435D01*
X0017799Y0186329D01*
X0017710Y0186220D01*
X0017624Y0186110D01*
X0017541Y0185996D01*
X0017462Y0185881D01*
X0017385Y0185763D01*
X0017312Y0185643D01*
X0017243Y0185522D01*
X0017177Y0185398D01*
X0017114Y0185272D01*
X0017055Y0185145D01*
X0017000Y0185016D01*
X0016948Y0184886D01*
X0016900Y0184754D01*
X0016855Y0184621D01*
X0016814Y0184487D01*
X0016777Y0184352D01*
X0016744Y0184216D01*
X0016715Y0184078D01*
X0016690Y0183941D01*
X0016668Y0183802D01*
X0016650Y0183663D01*
X0016637Y0183523D01*
X0016627Y0183383D01*
X0016621Y0183243D01*
X0016619Y0183103D01*
X0016619Y0014875D01*
X0016621Y0014735D01*
X0016627Y0014595D01*
X0016637Y0014455D01*
X0016650Y0014315D01*
X0016668Y0014176D01*
X0016690Y0014037D01*
X0016715Y0013900D01*
X0016744Y0013762D01*
X0016777Y0013626D01*
X0016814Y0013491D01*
X0016855Y0013357D01*
X0016900Y0013224D01*
X0016948Y0013092D01*
X0017000Y0012962D01*
X0017055Y0012833D01*
X0017114Y0012706D01*
X0017177Y0012580D01*
X0017243Y0012456D01*
X0017312Y0012335D01*
X0017385Y0012215D01*
X0017462Y0012097D01*
X0017541Y0011982D01*
X0017624Y0011868D01*
X0017710Y0011758D01*
X0017799Y0011649D01*
X0017891Y0011543D01*
X0017986Y0011440D01*
X0018083Y0011339D01*
X0018184Y0011242D01*
X0018287Y0011147D01*
X0018393Y0011055D01*
X0018502Y0010966D01*
X0018612Y0010880D01*
X0018726Y0010797D01*
X0018841Y0010718D01*
X0018959Y0010641D01*
X0019079Y0010568D01*
X0019200Y0010499D01*
X0019324Y0010433D01*
X0019450Y0010370D01*
X0019577Y0010311D01*
X0019706Y0010256D01*
X0019836Y0010204D01*
X0019968Y0010156D01*
X0020101Y0010111D01*
X0020235Y0010070D01*
X0020370Y0010033D01*
X0020506Y0010000D01*
X0020644Y0009971D01*
X0020781Y0009946D01*
X0020920Y0009924D01*
X0021059Y0009906D01*
X0021199Y0009893D01*
X0021339Y0009883D01*
X0021479Y0009877D01*
X0021619Y0009875D01*
X0051631Y0017831D02*
X0051631Y0022548D01*
X0051736Y0022654D01*
X0057119Y0022654D01*
X0060772Y0022654D01*
X0062119Y0024000D01*
X0065119Y0024478D02*
X0071119Y0024478D01*
X0071119Y0024500D02*
X0071119Y0023500D01*
X0072119Y0023500D01*
X0072119Y0024500D01*
X0076662Y0024500D01*
X0076662Y0027741D01*
X0076560Y0028122D01*
X0076362Y0028464D01*
X0076083Y0028744D01*
X0075741Y0028941D01*
X0075360Y0029043D01*
X0072119Y0029043D01*
X0072119Y0024500D01*
X0071119Y0024500D01*
X0071119Y0029043D01*
X0067878Y0029043D01*
X0067496Y0028941D01*
X0067154Y0028744D01*
X0066875Y0028464D01*
X0066678Y0028122D01*
X0066575Y0027741D01*
X0066575Y0024500D01*
X0071119Y0024500D01*
X0071619Y0024000D02*
X0071619Y0037373D01*
X0071746Y0037500D01*
X0088336Y0037500D01*
X0104419Y0053583D01*
X0104419Y0068370D01*
X0108619Y0072570D01*
X0108619Y0078889D01*
X0120750Y0091021D01*
X0120750Y0102841D01*
X0122159Y0104250D01*
X0133243Y0104250D01*
X0136697Y0107704D01*
X0136697Y0111051D01*
X0136697Y0115421D01*
X0137988Y0120500D02*
X0130792Y0113304D01*
X0130792Y0111051D01*
X0132760Y0111051D02*
X0132760Y0109142D01*
X0131619Y0108000D01*
X0109590Y0108000D01*
X0109369Y0107779D01*
X0111986Y0104719D02*
X0104216Y0104719D01*
X0099837Y0109098D01*
X0099837Y0113152D01*
X0102824Y0116139D01*
X0102824Y0123625D01*
X0113619Y0119237D02*
X0114281Y0119900D01*
X0114281Y0119900D01*
X0114853Y0120472D01*
X0114853Y0115922D01*
X0115498Y0115278D01*
X0120740Y0115278D01*
X0121384Y0115922D01*
X0121384Y0118573D01*
X0121546Y0118411D01*
X0123691Y0118411D01*
X0125208Y0119928D01*
X0125208Y0122072D01*
X0123691Y0123589D01*
X0121546Y0123589D01*
X0121384Y0123427D01*
X0121384Y0126078D01*
X0120740Y0126722D01*
X0115498Y0126722D01*
X0115219Y0126443D01*
X0115219Y0127557D01*
X0115498Y0127278D01*
X0120740Y0127278D01*
X0121384Y0127922D01*
X0121384Y0128500D01*
X0121957Y0128500D01*
X0122652Y0127805D01*
X0123604Y0127411D01*
X0124634Y0127411D01*
X0125585Y0127805D01*
X0126314Y0128533D01*
X0126708Y0129485D01*
X0126708Y0130515D01*
X0126314Y0131467D01*
X0125585Y0132195D01*
X0124634Y0132589D01*
X0123604Y0132589D01*
X0122652Y0132195D01*
X0121957Y0131500D01*
X0121384Y0131500D01*
X0121384Y0132771D01*
X0120740Y0133415D01*
X0115796Y0133415D01*
X0116219Y0133837D01*
X0116219Y0136100D01*
X0116745Y0136626D01*
X0117421Y0135950D01*
X0117590Y0135950D01*
X0118674Y0134866D01*
X0121063Y0134866D01*
X0122753Y0136555D01*
X0122753Y0138945D01*
X0122119Y0139579D01*
X0122119Y0139714D01*
X0122437Y0140033D01*
X0122437Y0144618D01*
X0123049Y0145229D01*
X0123928Y0146108D01*
X0123928Y0147710D01*
X0124548Y0148331D01*
X0127134Y0148331D01*
X0127134Y0147362D01*
X0124150Y0147362D01*
X0124150Y0145484D01*
X0124252Y0145102D01*
X0124450Y0144760D01*
X0124729Y0144481D01*
X0125064Y0144288D01*
X0124550Y0143775D01*
X0124550Y0138533D01*
X0125195Y0137888D01*
X0126530Y0137888D01*
X0126530Y0135928D01*
X0128046Y0134411D01*
X0129586Y0134411D01*
X0131171Y0132827D01*
X0130792Y0132827D01*
X0130792Y0131613D01*
X0130792Y0131612D01*
X0130792Y0132827D01*
X0130102Y0132827D01*
X0129721Y0132725D01*
X0129379Y0132527D01*
X0129100Y0132248D01*
X0128902Y0131906D01*
X0128800Y0131524D01*
X0128800Y0129949D01*
X0130792Y0129949D01*
X0132760Y0129949D01*
X0132760Y0129949D01*
X0130792Y0129949D01*
X0130792Y0129949D01*
X0130792Y0129949D01*
X0128800Y0129949D01*
X0128800Y0128398D01*
X0128233Y0128398D01*
X0128233Y0126406D01*
X0128233Y0126406D01*
X0128233Y0128398D01*
X0126657Y0128398D01*
X0126276Y0128295D01*
X0125934Y0128098D01*
X0125655Y0127819D01*
X0125457Y0127477D01*
X0125355Y0127095D01*
X0125355Y0126406D01*
X0126570Y0126406D01*
X0126569Y0126405D01*
X0125355Y0126405D01*
X0125355Y0125716D01*
X0125434Y0125421D01*
X0125355Y0125127D01*
X0125355Y0124437D01*
X0125355Y0123747D01*
X0125434Y0123453D01*
X0125355Y0123158D01*
X0125355Y0122469D01*
X0126569Y0122469D01*
X0126570Y0122468D01*
X0125355Y0122468D01*
X0125355Y0121779D01*
X0125457Y0121397D01*
X0125655Y0121055D01*
X0125755Y0120955D01*
X0125755Y0119552D01*
X0125791Y0119516D01*
X0125755Y0119479D01*
X0125755Y0117584D01*
X0125791Y0117547D01*
X0125755Y0117511D01*
X0125755Y0115615D01*
X0125791Y0115579D01*
X0125755Y0115542D01*
X0125755Y0113647D01*
X0126399Y0113002D01*
X0127331Y0113002D01*
X0127331Y0110735D01*
X0127917Y0110150D01*
X0128800Y0110150D01*
X0128800Y0109500D01*
X0121784Y0109500D01*
X0121784Y0111169D01*
X0118603Y0111169D01*
X0118603Y0112138D01*
X0117634Y0112138D01*
X0117634Y0111169D01*
X0114453Y0111169D01*
X0114453Y0109500D01*
X0114119Y0109500D01*
X0113619Y0110000D01*
X0113619Y0119237D01*
X0113718Y0119336D02*
X0114853Y0119336D01*
X0114853Y0118338D02*
X0113619Y0118338D01*
X0113619Y0117339D02*
X0114853Y0117339D01*
X0114853Y0116341D02*
X0113619Y0116341D01*
X0113619Y0115342D02*
X0115433Y0115342D01*
X0115374Y0115020D02*
X0115032Y0114822D01*
X0114753Y0114543D01*
X0114556Y0114201D01*
X0114453Y0113820D01*
X0114453Y0112138D01*
X0117634Y0112138D01*
X0117634Y0115122D01*
X0115756Y0115122D01*
X0115374Y0115020D01*
X0114638Y0114344D02*
X0113619Y0114344D01*
X0113619Y0113345D02*
X0114453Y0113345D01*
X0114453Y0112347D02*
X0113619Y0112347D01*
X0113619Y0111348D02*
X0117634Y0111348D01*
X0118603Y0111348D02*
X0127331Y0111348D01*
X0127331Y0112347D02*
X0121784Y0112347D01*
X0121784Y0112138D02*
X0121784Y0113820D01*
X0121682Y0114201D01*
X0121484Y0114543D01*
X0121205Y0114822D01*
X0120863Y0115020D01*
X0120482Y0115122D01*
X0118603Y0115122D01*
X0118603Y0112138D01*
X0121784Y0112138D01*
X0121784Y0113345D02*
X0126056Y0113345D01*
X0125755Y0114344D02*
X0121599Y0114344D01*
X0120804Y0115342D02*
X0125755Y0115342D01*
X0125755Y0116341D02*
X0121384Y0116341D01*
X0121384Y0117339D02*
X0125755Y0117339D01*
X0125755Y0118338D02*
X0121384Y0118338D01*
X0124616Y0119336D02*
X0125755Y0119336D01*
X0125755Y0120335D02*
X0125208Y0120335D01*
X0125208Y0121333D02*
X0125494Y0121333D01*
X0125355Y0122332D02*
X0124948Y0122332D01*
X0125401Y0123330D02*
X0123950Y0123330D01*
X0125355Y0124329D02*
X0121384Y0124329D01*
X0121384Y0125327D02*
X0125409Y0125327D01*
X0125355Y0124437D02*
X0126569Y0124437D01*
X0125355Y0124437D01*
X0126569Y0124437D02*
X0126569Y0124437D01*
X0126569Y0124437D01*
X0128233Y0124437D02*
X0128233Y0124461D01*
X0128233Y0126405D01*
X0128233Y0124437D01*
X0128233Y0122469D01*
X0128233Y0122469D01*
X0128233Y0124437D01*
X0128233Y0124437D01*
X0128233Y0124437D01*
X0128233Y0124329D02*
X0128233Y0124329D01*
X0128233Y0125327D02*
X0128233Y0125327D01*
X0128233Y0126326D02*
X0128233Y0126326D01*
X0128233Y0126405D02*
X0128233Y0126405D01*
X0128233Y0127324D02*
X0128233Y0127324D01*
X0128233Y0128323D02*
X0128233Y0128323D01*
X0128800Y0129321D02*
X0126640Y0129321D01*
X0126708Y0130320D02*
X0128800Y0130320D01*
X0128800Y0131318D02*
X0126375Y0131318D01*
X0125291Y0132317D02*
X0129169Y0132317D01*
X0130792Y0132317D02*
X0130792Y0132317D01*
X0130682Y0133315D02*
X0120839Y0133315D01*
X0121384Y0132317D02*
X0122947Y0132317D01*
X0124119Y0130000D02*
X0118465Y0130000D01*
X0118119Y0130346D01*
X0121384Y0128323D02*
X0122135Y0128323D01*
X0120786Y0127324D02*
X0125416Y0127324D01*
X0125355Y0126326D02*
X0121136Y0126326D01*
X0126103Y0128323D02*
X0126378Y0128323D01*
X0132760Y0129949D02*
X0132760Y0120500D01*
X0130711Y0120335D02*
X0141119Y0120335D01*
X0140915Y0120500D02*
X0140634Y0120219D01*
X0140634Y0111051D01*
X0142603Y0111051D02*
X0142603Y0109607D01*
X0141578Y0108583D01*
X0140201Y0108583D01*
X0139119Y0107500D01*
X0136530Y0107354D02*
X0136219Y0107354D01*
X0136244Y0107379D02*
X0136244Y0108173D01*
X0136530Y0108173D01*
X0136530Y0106428D01*
X0136625Y0106332D01*
X0135914Y0105621D01*
X0134125Y0103832D01*
X0123665Y0103832D01*
X0122787Y0102953D01*
X0122429Y0102596D01*
X0121550Y0101717D01*
X0121550Y0091397D01*
X0119651Y0089497D01*
X0118772Y0088619D01*
X0118772Y0087765D01*
X0117848Y0087765D01*
X0117204Y0087121D01*
X0117204Y0081879D01*
X0117848Y0081235D01*
X0118772Y0081235D01*
X0118772Y0079568D01*
X0117651Y0079568D01*
X0117007Y0078924D01*
X0117007Y0075356D01*
X0105388Y0063737D01*
X0104509Y0062858D01*
X0104509Y0053545D01*
X0083898Y0032934D01*
X0083898Y0028405D01*
X0082768Y0027936D01*
X0081462Y0026630D01*
X0080755Y0024924D01*
X0080755Y0023076D01*
X0081462Y0021370D01*
X0082768Y0020064D01*
X0084475Y0019357D01*
X0086322Y0019357D01*
X0088028Y0020064D01*
X0089335Y0021370D01*
X0090042Y0023076D01*
X0090042Y0024924D01*
X0089335Y0026630D01*
X0088028Y0027936D01*
X0086898Y0028405D01*
X0086898Y0031692D01*
X0107509Y0052303D01*
X0107509Y0061616D01*
X0119325Y0073431D01*
X0120759Y0073431D01*
X0119092Y0071765D01*
X0117848Y0071765D01*
X0117204Y0071121D01*
X0117204Y0065879D01*
X0117848Y0065235D01*
X0118772Y0065235D01*
X0118772Y0063568D01*
X0117651Y0063568D01*
X0117007Y0062924D01*
X0117007Y0059356D01*
X0111457Y0053806D01*
X0111457Y0028405D01*
X0110327Y0027936D01*
X0109021Y0026630D01*
X0108314Y0024924D01*
X0108314Y0023076D01*
X0109021Y0021370D01*
X0110327Y0020064D01*
X0112034Y0019357D01*
X0113881Y0019357D01*
X0115588Y0020064D01*
X0116894Y0021370D01*
X0117601Y0023076D01*
X0117601Y0024924D01*
X0116894Y0026630D01*
X0115588Y0027936D01*
X0114457Y0028405D01*
X0114457Y0052564D01*
X0119325Y0057431D01*
X0122893Y0057431D01*
X0123538Y0058076D01*
X0123538Y0062924D01*
X0122893Y0063568D01*
X0121772Y0063568D01*
X0121772Y0065235D01*
X0122696Y0065235D01*
X0123341Y0065879D01*
X0123341Y0071121D01*
X0123016Y0071446D01*
X0124150Y0072580D01*
X0125001Y0073431D01*
X0128019Y0073431D01*
X0128019Y0071765D01*
X0124541Y0071765D01*
X0123897Y0071121D01*
X0123897Y0065879D01*
X0124541Y0065235D01*
X0127121Y0065235D01*
X0127030Y0065015D01*
X0127030Y0063985D01*
X0127202Y0063568D01*
X0124344Y0063568D01*
X0123700Y0062924D01*
X0123700Y0058076D01*
X0124344Y0057431D01*
X0127819Y0057431D01*
X0127819Y0054450D01*
X0126663Y0054450D01*
X0126019Y0053806D01*
X0126019Y0051171D01*
X0125918Y0051071D01*
X0125721Y0050729D01*
X0125619Y0050347D01*
X0125619Y0049025D01*
X0129494Y0049025D01*
X0129494Y0048775D01*
X0129744Y0048775D01*
X0129744Y0049025D01*
X0133619Y0049025D01*
X0133619Y0050347D01*
X0133516Y0050729D01*
X0133319Y0051071D01*
X0133219Y0051171D01*
X0133219Y0053806D01*
X0132574Y0054450D01*
X0131419Y0054450D01*
X0131419Y0057431D01*
X0134119Y0057431D01*
X0134119Y0028276D01*
X0134997Y0027398D01*
X0136341Y0026054D01*
X0135873Y0024924D01*
X0135873Y0023076D01*
X0136580Y0021370D01*
X0137886Y0020064D01*
X0139593Y0019357D01*
X0141440Y0019357D01*
X0143147Y0020064D01*
X0144453Y0021370D01*
X0145160Y0023076D01*
X0145160Y0024924D01*
X0144453Y0026630D01*
X0143147Y0027936D01*
X0141440Y0028643D01*
X0139593Y0028643D01*
X0138463Y0028175D01*
X0137119Y0029519D01*
X0137119Y0057431D01*
X0137465Y0057431D01*
X0137465Y0051510D01*
X0141034Y0047941D01*
X0142013Y0047941D01*
X0163900Y0026054D01*
X0163432Y0024924D01*
X0163432Y0023076D01*
X0164139Y0021370D01*
X0165445Y0020064D01*
X0167152Y0019357D01*
X0168999Y0019357D01*
X0170706Y0020064D01*
X0172012Y0021370D01*
X0172719Y0023076D01*
X0172719Y0024924D01*
X0172012Y0026630D01*
X0170706Y0027936D01*
X0168999Y0028643D01*
X0167152Y0028643D01*
X0166022Y0028175D01*
X0144765Y0049431D01*
X0146893Y0049431D01*
X0147538Y0050076D01*
X0147538Y0054924D01*
X0146893Y0055568D01*
X0145872Y0055568D01*
X0145872Y0057235D01*
X0146696Y0057235D01*
X0147341Y0057879D01*
X0147341Y0063121D01*
X0146696Y0063765D01*
X0145719Y0063765D01*
X0145719Y0064939D01*
X0146314Y0065533D01*
X0146708Y0066485D01*
X0146708Y0067290D01*
X0149465Y0064532D01*
X0149465Y0063765D01*
X0148541Y0063765D01*
X0147897Y0063121D01*
X0147897Y0057879D01*
X0148541Y0057235D01*
X0149465Y0057235D01*
X0149465Y0055568D01*
X0148344Y0055568D01*
X0147700Y0054924D01*
X0147700Y0050076D01*
X0148344Y0049431D01*
X0153586Y0049431D01*
X0154231Y0050076D01*
X0154231Y0051000D01*
X0154410Y0051000D01*
X0155048Y0051638D01*
X0157634Y0051638D01*
X0157634Y0050669D01*
X0154650Y0050669D01*
X0154650Y0048791D01*
X0154752Y0048409D01*
X0154950Y0048067D01*
X0155229Y0047788D01*
X0155571Y0047590D01*
X0155953Y0047488D01*
X0157634Y0047488D01*
X0157634Y0050669D01*
X0158603Y0050669D01*
X0158603Y0047488D01*
X0160285Y0047488D01*
X0160666Y0047590D01*
X0161008Y0047788D01*
X0161288Y0048067D01*
X0161485Y0048409D01*
X0161587Y0048791D01*
X0161587Y0050669D01*
X0158603Y0050669D01*
X0158603Y0051638D01*
X0161587Y0051638D01*
X0161587Y0052909D01*
X0162453Y0052909D01*
X0162453Y0051638D01*
X0165634Y0051638D01*
X0165634Y0050669D01*
X0162453Y0050669D01*
X0162453Y0048988D01*
X0162556Y0048606D01*
X0162753Y0048264D01*
X0163032Y0047985D01*
X0163374Y0047787D01*
X0163756Y0047685D01*
X0165634Y0047685D01*
X0165634Y0050669D01*
X0166603Y0050669D01*
X0166603Y0047685D01*
X0168482Y0047685D01*
X0168863Y0047787D01*
X0169205Y0047985D01*
X0169367Y0048146D01*
X0191459Y0026054D01*
X0190991Y0024924D01*
X0190991Y0023076D01*
X0191698Y0021370D01*
X0193004Y0020064D01*
X0194711Y0019357D01*
X0196558Y0019357D01*
X0198265Y0020064D01*
X0199571Y0021370D01*
X0200278Y0023076D01*
X0200278Y0024924D01*
X0199571Y0026630D01*
X0198265Y0027936D01*
X0196558Y0028643D01*
X0194711Y0028643D01*
X0193581Y0028175D01*
X0170875Y0050881D01*
X0170875Y0054123D01*
X0196154Y0028843D01*
X0220079Y0028843D01*
X0220279Y0028643D01*
X0212620Y0028643D01*
X0211975Y0027999D01*
X0211975Y0020001D01*
X0212620Y0019357D01*
X0220618Y0019357D01*
X0221262Y0020001D01*
X0221262Y0027660D01*
X0225755Y0023168D01*
X0225755Y0023076D01*
X0226462Y0021370D01*
X0227768Y0020064D01*
X0229475Y0019357D01*
X0231322Y0019357D01*
X0233028Y0020064D01*
X0234335Y0021370D01*
X0235042Y0023076D01*
X0235042Y0024924D01*
X0234335Y0026630D01*
X0233028Y0027936D01*
X0231322Y0028643D01*
X0229475Y0028643D01*
X0227768Y0027936D01*
X0226498Y0026667D01*
X0222201Y0030965D01*
X0221322Y0031843D01*
X0197397Y0031843D01*
X0182771Y0046469D01*
X0183996Y0046469D01*
X0198119Y0032500D01*
X0230869Y0032500D01*
X0237119Y0026000D01*
X0239534Y0023584D01*
X0239534Y0023076D01*
X0240241Y0021370D01*
X0241548Y0020064D01*
X0243254Y0019357D01*
X0243762Y0019357D01*
X0250744Y0012375D01*
X0066244Y0012375D01*
X0065119Y0013500D01*
X0065119Y0034500D01*
X0079119Y0048500D01*
X0096619Y0048500D01*
X0098288Y0050169D01*
X0098433Y0050025D01*
X0100578Y0050025D01*
X0102094Y0051541D01*
X0102094Y0053686D01*
X0101949Y0053831D01*
X0103119Y0055000D01*
X0103119Y0055162D01*
X0103794Y0055837D01*
X0103794Y0068647D01*
X0108003Y0072856D01*
X0108003Y0073884D01*
X0108619Y0074500D01*
X0108619Y0079721D01*
X0116578Y0087681D01*
X0116578Y0088959D01*
X0119619Y0092000D01*
X0119619Y0094296D01*
X0120753Y0095430D01*
X0120753Y0097820D01*
X0119619Y0098954D01*
X0119619Y0104000D01*
X0118994Y0104625D01*
X0132247Y0104625D01*
X0133490Y0104625D01*
X0136244Y0107379D01*
X0136602Y0106356D02*
X0135221Y0106356D01*
X0135650Y0105357D02*
X0134222Y0105357D01*
X0134652Y0104359D02*
X0119260Y0104359D01*
X0119619Y0103360D02*
X0123193Y0103360D01*
X0122195Y0102362D02*
X0119619Y0102362D01*
X0119619Y0101363D02*
X0121550Y0101363D01*
X0121550Y0100365D02*
X0119619Y0100365D01*
X0119619Y0099366D02*
X0121550Y0099366D01*
X0121550Y0098368D02*
X0120205Y0098368D01*
X0120753Y0097369D02*
X0121550Y0097369D01*
X0121550Y0096370D02*
X0120753Y0096370D01*
X0120695Y0095372D02*
X0121550Y0095372D01*
X0121550Y0094373D02*
X0119696Y0094373D01*
X0119619Y0093375D02*
X0121550Y0093375D01*
X0121550Y0092376D02*
X0119619Y0092376D01*
X0118997Y0091378D02*
X0121532Y0091378D01*
X0120533Y0090379D02*
X0117998Y0090379D01*
X0117000Y0089381D02*
X0119535Y0089381D01*
X0118772Y0088382D02*
X0116578Y0088382D01*
X0116281Y0087384D02*
X0117467Y0087384D01*
X0117204Y0086385D02*
X0115283Y0086385D01*
X0114284Y0085387D02*
X0117204Y0085387D01*
X0117204Y0084388D02*
X0113286Y0084388D01*
X0112287Y0083390D02*
X0117204Y0083390D01*
X0117204Y0082391D02*
X0111289Y0082391D01*
X0110290Y0081393D02*
X0117690Y0081393D01*
X0118772Y0080394D02*
X0109292Y0080394D01*
X0108619Y0079396D02*
X0117479Y0079396D01*
X0117007Y0078397D02*
X0108619Y0078397D01*
X0108619Y0077399D02*
X0117007Y0077399D01*
X0117007Y0076400D02*
X0108619Y0076400D01*
X0108619Y0075402D02*
X0117007Y0075402D01*
X0116054Y0074403D02*
X0108522Y0074403D01*
X0108003Y0073405D02*
X0115056Y0073405D01*
X0114057Y0072406D02*
X0107554Y0072406D01*
X0106555Y0071408D02*
X0113059Y0071408D01*
X0112060Y0070409D02*
X0105557Y0070409D01*
X0104558Y0069411D02*
X0111062Y0069411D01*
X0110063Y0068412D02*
X0103794Y0068412D01*
X0103794Y0067414D02*
X0109065Y0067414D01*
X0108066Y0066415D02*
X0103794Y0066415D01*
X0103794Y0065417D02*
X0107068Y0065417D01*
X0106069Y0064418D02*
X0103794Y0064418D01*
X0103794Y0063420D02*
X0105071Y0063420D01*
X0104509Y0062421D02*
X0103794Y0062421D01*
X0103794Y0061423D02*
X0104509Y0061423D01*
X0104509Y0060424D02*
X0103794Y0060424D01*
X0103794Y0059426D02*
X0104509Y0059426D01*
X0104509Y0058427D02*
X0103794Y0058427D01*
X0103794Y0057429D02*
X0104509Y0057429D01*
X0104509Y0056430D02*
X0103794Y0056430D01*
X0103389Y0055432D02*
X0104509Y0055432D01*
X0104509Y0054433D02*
X0102552Y0054433D01*
X0102094Y0053434D02*
X0104398Y0053434D01*
X0103400Y0052436D02*
X0102094Y0052436D01*
X0101991Y0051437D02*
X0102401Y0051437D01*
X0101403Y0050439D02*
X0100992Y0050439D01*
X0100404Y0049440D02*
X0097559Y0049440D01*
X0099406Y0048442D02*
X0079061Y0048442D01*
X0078062Y0047443D02*
X0098407Y0047443D01*
X0097409Y0046445D02*
X0077064Y0046445D01*
X0076065Y0045446D02*
X0096410Y0045446D01*
X0095412Y0044448D02*
X0075067Y0044448D01*
X0074068Y0043449D02*
X0094413Y0043449D01*
X0093415Y0042451D02*
X0073070Y0042451D01*
X0072071Y0041452D02*
X0092416Y0041452D01*
X0091418Y0040454D02*
X0071073Y0040454D01*
X0070074Y0039455D02*
X0090419Y0039455D01*
X0089421Y0038457D02*
X0069076Y0038457D01*
X0068077Y0037458D02*
X0088422Y0037458D01*
X0087424Y0036460D02*
X0067079Y0036460D01*
X0066080Y0035461D02*
X0086425Y0035461D01*
X0085427Y0034463D02*
X0065119Y0034463D01*
X0065119Y0033464D02*
X0084428Y0033464D01*
X0083898Y0032466D02*
X0065119Y0032466D01*
X0065119Y0031467D02*
X0083898Y0031467D01*
X0083898Y0030469D02*
X0065119Y0030469D01*
X0065119Y0029470D02*
X0083898Y0029470D01*
X0083898Y0028472D02*
X0076355Y0028472D01*
X0076662Y0027473D02*
X0082305Y0027473D01*
X0081397Y0026475D02*
X0076662Y0026475D01*
X0076662Y0025476D02*
X0080984Y0025476D01*
X0080755Y0024478D02*
X0072119Y0024478D01*
X0072119Y0023500D02*
X0076662Y0023500D01*
X0076662Y0020259D01*
X0076560Y0019878D01*
X0076362Y0019536D01*
X0076083Y0019256D01*
X0075741Y0019059D01*
X0075360Y0018957D01*
X0072119Y0018957D01*
X0072119Y0023500D01*
X0072119Y0023479D02*
X0071119Y0023479D01*
X0071119Y0023500D02*
X0071119Y0018957D01*
X0067878Y0018957D01*
X0067496Y0019059D01*
X0067154Y0019256D01*
X0066875Y0019536D01*
X0066678Y0019878D01*
X0066575Y0020259D01*
X0066575Y0023500D01*
X0071119Y0023500D01*
X0071119Y0022481D02*
X0072119Y0022481D01*
X0072119Y0021482D02*
X0071119Y0021482D01*
X0071119Y0020484D02*
X0072119Y0020484D01*
X0072119Y0019485D02*
X0071119Y0019485D01*
X0066926Y0019485D02*
X0065119Y0019485D01*
X0065119Y0018487D02*
X0244632Y0018487D01*
X0245631Y0017488D02*
X0065119Y0017488D01*
X0065119Y0016490D02*
X0246629Y0016490D01*
X0247628Y0015491D02*
X0065119Y0015491D01*
X0065119Y0014493D02*
X0248626Y0014493D01*
X0249625Y0013494D02*
X0065125Y0013494D01*
X0066123Y0012496D02*
X0250623Y0012496D01*
X0264528Y0021341D02*
X0268460Y0017409D01*
X0312481Y0017409D01*
X0317316Y0022244D01*
X0317316Y0025756D01*
X0314832Y0028240D01*
X0303536Y0028240D01*
X0299296Y0024000D01*
X0308119Y0019000D02*
X0269119Y0019000D01*
X0266119Y0022000D01*
X0266119Y0026378D01*
X0268250Y0028509D01*
X0268250Y0053789D01*
X0245187Y0076852D01*
X0245187Y0094839D01*
X0236795Y0103231D01*
X0231625Y0103231D01*
X0229394Y0101000D01*
X0219119Y0101000D01*
X0217119Y0103000D01*
X0217119Y0126783D01*
X0219178Y0128843D01*
X0232028Y0128843D01*
X0232028Y0126874D02*
X0231950Y0126796D01*
X0230285Y0126796D01*
X0228489Y0125000D01*
X0228119Y0125000D01*
X0228119Y0121500D02*
X0225965Y0121500D01*
X0222119Y0125346D01*
X0224016Y0130443D02*
X0218516Y0130443D01*
X0218516Y0130429D01*
X0215528Y0127442D01*
X0215528Y0102341D01*
X0218460Y0099409D01*
X0230053Y0099409D01*
X0232075Y0101431D01*
X0236049Y0101431D01*
X0243387Y0094093D01*
X0243387Y0076106D01*
X0266659Y0052834D01*
X0266659Y0029168D01*
X0264528Y0027037D01*
X0264528Y0021341D01*
X0242944Y0019485D02*
X0231632Y0019485D01*
X0233449Y0020484D02*
X0241128Y0020484D01*
X0240195Y0021482D02*
X0234381Y0021482D01*
X0234795Y0022481D02*
X0239781Y0022481D01*
X0239534Y0023479D02*
X0235042Y0023479D01*
X0235042Y0024478D02*
X0238641Y0024478D01*
X0237643Y0025476D02*
X0234813Y0025476D01*
X0234399Y0026475D02*
X0236662Y0026475D01*
X0235702Y0027473D02*
X0233492Y0027473D01*
X0234742Y0028472D02*
X0231736Y0028472D01*
X0232822Y0030469D02*
X0222696Y0030469D01*
X0222201Y0030965D02*
X0222201Y0030965D01*
X0221698Y0031467D02*
X0231862Y0031467D01*
X0230902Y0032466D02*
X0196774Y0032466D01*
X0197144Y0033464D02*
X0195776Y0033464D01*
X0196134Y0034463D02*
X0194777Y0034463D01*
X0195125Y0035461D02*
X0193779Y0035461D01*
X0194115Y0036460D02*
X0192780Y0036460D01*
X0193106Y0037458D02*
X0191782Y0037458D01*
X0192096Y0038457D02*
X0190783Y0038457D01*
X0191087Y0039455D02*
X0189785Y0039455D01*
X0190077Y0040454D02*
X0188786Y0040454D01*
X0189068Y0041452D02*
X0187788Y0041452D01*
X0188059Y0042451D02*
X0186789Y0042451D01*
X0187049Y0043449D02*
X0185791Y0043449D01*
X0186040Y0044448D02*
X0184792Y0044448D01*
X0185030Y0045446D02*
X0183794Y0045446D01*
X0184021Y0046445D02*
X0182795Y0046445D01*
X0180550Y0044448D02*
X0177308Y0044448D01*
X0176309Y0045446D02*
X0179551Y0045446D01*
X0178552Y0046445D02*
X0175311Y0046445D01*
X0174312Y0047443D02*
X0177554Y0047443D01*
X0176555Y0048442D02*
X0173314Y0048442D01*
X0172315Y0049440D02*
X0175557Y0049440D01*
X0174558Y0050439D02*
X0171317Y0050439D01*
X0170875Y0051437D02*
X0173560Y0051437D01*
X0172561Y0052436D02*
X0170875Y0052436D01*
X0170875Y0053434D02*
X0171563Y0053434D01*
X0169375Y0053574D02*
X0168539Y0054409D01*
X0155699Y0054409D01*
X0153789Y0052500D01*
X0150965Y0052500D01*
X0150965Y0060500D01*
X0150965Y0065154D01*
X0145408Y0070711D01*
X0145408Y0085539D01*
X0146619Y0086749D01*
X0146619Y0098500D01*
X0152446Y0104327D01*
X0152446Y0111051D01*
X0150477Y0111051D02*
X0150477Y0104858D01*
X0143119Y0097500D01*
X0143119Y0072654D01*
X0138965Y0068500D01*
X0138965Y0060500D01*
X0138965Y0052131D01*
X0141655Y0049441D01*
X0142634Y0049441D01*
X0168075Y0024000D01*
X0163679Y0022481D02*
X0159105Y0022481D01*
X0159215Y0022819D02*
X0158970Y0022064D01*
X0158609Y0021357D01*
X0158143Y0020715D01*
X0157581Y0020153D01*
X0156939Y0019687D01*
X0156232Y0019326D01*
X0155477Y0019081D01*
X0154796Y0018973D01*
X0154796Y0023500D01*
X0154796Y0024500D01*
X0159323Y0024500D01*
X0159215Y0025181D01*
X0158970Y0025936D01*
X0158609Y0026643D01*
X0158143Y0027285D01*
X0157581Y0027847D01*
X0156939Y0028313D01*
X0156232Y0028674D01*
X0155477Y0028919D01*
X0154796Y0029027D01*
X0154796Y0024500D01*
X0153796Y0024500D01*
X0153796Y0029027D01*
X0153115Y0028919D01*
X0152360Y0028674D01*
X0151653Y0028313D01*
X0151010Y0027847D01*
X0150449Y0027285D01*
X0149982Y0026643D01*
X0149622Y0025936D01*
X0149377Y0025181D01*
X0149269Y0024500D01*
X0153796Y0024500D01*
X0153796Y0023500D01*
X0154796Y0023500D01*
X0159323Y0023500D01*
X0159215Y0022819D01*
X0159320Y0023479D02*
X0163432Y0023479D01*
X0163432Y0024478D02*
X0154796Y0024478D01*
X0154796Y0025476D02*
X0153796Y0025476D01*
X0153796Y0024478D02*
X0145160Y0024478D01*
X0145160Y0023479D02*
X0149272Y0023479D01*
X0149269Y0023500D02*
X0149377Y0022819D01*
X0149622Y0022064D01*
X0149982Y0021357D01*
X0150449Y0020715D01*
X0151010Y0020153D01*
X0151653Y0019687D01*
X0152360Y0019326D01*
X0153115Y0019081D01*
X0153796Y0018973D01*
X0153796Y0023500D01*
X0149269Y0023500D01*
X0149487Y0022481D02*
X0144913Y0022481D01*
X0144499Y0021482D02*
X0149919Y0021482D01*
X0150680Y0020484D02*
X0143567Y0020484D01*
X0141750Y0019485D02*
X0152048Y0019485D01*
X0153796Y0019485D02*
X0154796Y0019485D01*
X0154796Y0020484D02*
X0153796Y0020484D01*
X0153796Y0021482D02*
X0154796Y0021482D01*
X0154796Y0022481D02*
X0153796Y0022481D01*
X0153796Y0023479D02*
X0154796Y0023479D01*
X0154796Y0026475D02*
X0153796Y0026475D01*
X0153796Y0027473D02*
X0154796Y0027473D01*
X0154796Y0028472D02*
X0153796Y0028472D01*
X0151963Y0028472D02*
X0141854Y0028472D01*
X0143610Y0027473D02*
X0150637Y0027473D01*
X0149897Y0026475D02*
X0144517Y0026475D01*
X0144931Y0025476D02*
X0149473Y0025476D01*
X0156628Y0028472D02*
X0161482Y0028472D01*
X0160484Y0029470D02*
X0137167Y0029470D01*
X0137119Y0030469D02*
X0159485Y0030469D01*
X0158487Y0031467D02*
X0137119Y0031467D01*
X0137119Y0032466D02*
X0157488Y0032466D01*
X0156490Y0033464D02*
X0137119Y0033464D01*
X0137119Y0034463D02*
X0155491Y0034463D01*
X0154493Y0035461D02*
X0137119Y0035461D01*
X0137119Y0036460D02*
X0153494Y0036460D01*
X0152496Y0037458D02*
X0137119Y0037458D01*
X0137119Y0038457D02*
X0151497Y0038457D01*
X0150499Y0039455D02*
X0137119Y0039455D01*
X0137119Y0040454D02*
X0149500Y0040454D01*
X0148502Y0041452D02*
X0137119Y0041452D01*
X0137119Y0042451D02*
X0147503Y0042451D01*
X0146505Y0043449D02*
X0137119Y0043449D01*
X0137119Y0044448D02*
X0145506Y0044448D01*
X0144508Y0045446D02*
X0137119Y0045446D01*
X0137119Y0046445D02*
X0143509Y0046445D01*
X0142511Y0047443D02*
X0137119Y0047443D01*
X0137119Y0048442D02*
X0140533Y0048442D01*
X0139534Y0049440D02*
X0137119Y0049440D01*
X0137119Y0050439D02*
X0138536Y0050439D01*
X0137537Y0051437D02*
X0137119Y0051437D01*
X0137119Y0052436D02*
X0137465Y0052436D01*
X0137465Y0053434D02*
X0137119Y0053434D01*
X0137119Y0054433D02*
X0137465Y0054433D01*
X0137465Y0055432D02*
X0137119Y0055432D01*
X0137119Y0056430D02*
X0137465Y0056430D01*
X0137465Y0057429D02*
X0137119Y0057429D01*
X0134119Y0057429D02*
X0131419Y0057429D01*
X0131419Y0056430D02*
X0134119Y0056430D01*
X0134119Y0055432D02*
X0131419Y0055432D01*
X0132591Y0054433D02*
X0134119Y0054433D01*
X0134119Y0053434D02*
X0133219Y0053434D01*
X0133219Y0052436D02*
X0134119Y0052436D01*
X0134119Y0051437D02*
X0133219Y0051437D01*
X0133594Y0050439D02*
X0134119Y0050439D01*
X0134119Y0049440D02*
X0133619Y0049440D01*
X0133619Y0048775D02*
X0129744Y0048775D01*
X0129744Y0046150D01*
X0132316Y0046150D01*
X0132698Y0046252D01*
X0133040Y0046450D01*
X0133319Y0046729D01*
X0133516Y0047071D01*
X0133619Y0047453D01*
X0133619Y0048775D01*
X0133619Y0048442D02*
X0134119Y0048442D01*
X0134119Y0047443D02*
X0133616Y0047443D01*
X0134119Y0046445D02*
X0133031Y0046445D01*
X0134119Y0045446D02*
X0114457Y0045446D01*
X0114457Y0044448D02*
X0134119Y0044448D01*
X0134119Y0043449D02*
X0114457Y0043449D01*
X0114457Y0042451D02*
X0134119Y0042451D01*
X0134119Y0041452D02*
X0114457Y0041452D01*
X0114457Y0040454D02*
X0134119Y0040454D01*
X0134119Y0039455D02*
X0114457Y0039455D01*
X0114457Y0038457D02*
X0134119Y0038457D01*
X0134119Y0037458D02*
X0114457Y0037458D01*
X0114457Y0036460D02*
X0134119Y0036460D01*
X0134119Y0035461D02*
X0114457Y0035461D01*
X0114457Y0034463D02*
X0134119Y0034463D01*
X0134119Y0033464D02*
X0114457Y0033464D01*
X0114457Y0032466D02*
X0134119Y0032466D01*
X0134119Y0031467D02*
X0114457Y0031467D01*
X0114457Y0030469D02*
X0134119Y0030469D01*
X0134119Y0029470D02*
X0114457Y0029470D01*
X0114457Y0028472D02*
X0125399Y0028472D01*
X0125813Y0028643D02*
X0124107Y0027936D01*
X0122800Y0026630D01*
X0122094Y0024924D01*
X0122094Y0023076D01*
X0122800Y0021370D01*
X0124107Y0020064D01*
X0125813Y0019357D01*
X0127660Y0019357D01*
X0129367Y0020064D01*
X0130673Y0021370D01*
X0131380Y0023076D01*
X0131380Y0024924D01*
X0130673Y0026630D01*
X0129367Y0027936D01*
X0127660Y0028643D01*
X0125813Y0028643D01*
X0128075Y0028472D02*
X0134119Y0028472D01*
X0134922Y0027473D02*
X0129830Y0027473D01*
X0130738Y0026475D02*
X0135920Y0026475D01*
X0136102Y0025476D02*
X0131151Y0025476D01*
X0131380Y0024478D02*
X0135873Y0024478D01*
X0135873Y0023479D02*
X0131380Y0023479D01*
X0131133Y0022481D02*
X0136120Y0022481D01*
X0136533Y0021482D02*
X0130720Y0021482D01*
X0129787Y0020484D02*
X0137466Y0020484D01*
X0139283Y0019485D02*
X0127970Y0019485D01*
X0125503Y0019485D02*
X0114191Y0019485D01*
X0116008Y0020484D02*
X0123687Y0020484D01*
X0122754Y0021482D02*
X0116940Y0021482D01*
X0117354Y0022481D02*
X0122340Y0022481D01*
X0122094Y0023479D02*
X0117601Y0023479D01*
X0117601Y0024478D02*
X0122094Y0024478D01*
X0122322Y0025476D02*
X0117372Y0025476D01*
X0116958Y0026475D02*
X0122736Y0026475D01*
X0123643Y0027473D02*
X0116051Y0027473D01*
X0111457Y0028472D02*
X0100516Y0028472D01*
X0100101Y0028643D02*
X0098254Y0028643D01*
X0096548Y0027936D01*
X0095241Y0026630D01*
X0094534Y0024924D01*
X0094534Y0023076D01*
X0095241Y0021370D01*
X0096548Y0020064D01*
X0098254Y0019357D01*
X0100101Y0019357D01*
X0101808Y0020064D01*
X0103114Y0021370D01*
X0103821Y0023076D01*
X0103821Y0024924D01*
X0103114Y0026630D01*
X0101808Y0027936D01*
X0100101Y0028643D01*
X0097840Y0028472D02*
X0086898Y0028472D01*
X0086898Y0029470D02*
X0111457Y0029470D01*
X0111457Y0030469D02*
X0086898Y0030469D01*
X0086898Y0031467D02*
X0111457Y0031467D01*
X0111457Y0032466D02*
X0087672Y0032466D01*
X0088671Y0033464D02*
X0111457Y0033464D01*
X0111457Y0034463D02*
X0089669Y0034463D01*
X0090668Y0035461D02*
X0111457Y0035461D01*
X0111457Y0036460D02*
X0091666Y0036460D01*
X0092665Y0037458D02*
X0111457Y0037458D01*
X0111457Y0038457D02*
X0093663Y0038457D01*
X0094662Y0039455D02*
X0111457Y0039455D01*
X0111457Y0040454D02*
X0095660Y0040454D01*
X0096659Y0041452D02*
X0111457Y0041452D01*
X0111457Y0042451D02*
X0097657Y0042451D01*
X0098656Y0043449D02*
X0111457Y0043449D01*
X0111457Y0044448D02*
X0099654Y0044448D01*
X0100653Y0045446D02*
X0111457Y0045446D01*
X0111457Y0046445D02*
X0101652Y0046445D01*
X0102650Y0047443D02*
X0111457Y0047443D01*
X0111457Y0048442D02*
X0103649Y0048442D01*
X0104647Y0049440D02*
X0111457Y0049440D01*
X0111457Y0050439D02*
X0105646Y0050439D01*
X0106644Y0051437D02*
X0111457Y0051437D01*
X0111457Y0052436D02*
X0107509Y0052436D01*
X0107509Y0053434D02*
X0111457Y0053434D01*
X0112084Y0054433D02*
X0107509Y0054433D01*
X0107509Y0055432D02*
X0113082Y0055432D01*
X0114081Y0056430D02*
X0107509Y0056430D01*
X0107509Y0057429D02*
X0115080Y0057429D01*
X0116078Y0058427D02*
X0107509Y0058427D01*
X0107509Y0059426D02*
X0117007Y0059426D01*
X0117007Y0060424D02*
X0107509Y0060424D01*
X0107509Y0061423D02*
X0117007Y0061423D01*
X0117007Y0062421D02*
X0108315Y0062421D01*
X0109313Y0063420D02*
X0117502Y0063420D01*
X0118772Y0064418D02*
X0110312Y0064418D01*
X0111310Y0065417D02*
X0117666Y0065417D01*
X0117204Y0066415D02*
X0112309Y0066415D01*
X0113307Y0067414D02*
X0117204Y0067414D01*
X0117204Y0068412D02*
X0114306Y0068412D01*
X0115304Y0069411D02*
X0117204Y0069411D01*
X0117204Y0070409D02*
X0116303Y0070409D01*
X0117301Y0071408D02*
X0117490Y0071408D01*
X0118300Y0072406D02*
X0119733Y0072406D01*
X0119298Y0073405D02*
X0120732Y0073405D01*
X0120272Y0070824D02*
X0123528Y0074080D01*
X0123528Y0088708D01*
X0124850Y0090030D01*
X0124850Y0099264D01*
X0126087Y0100500D01*
X0135460Y0100500D01*
X0137960Y0103000D01*
X0141619Y0103000D01*
X0146571Y0107953D01*
X0146571Y0111020D01*
X0146540Y0111051D01*
X0148509Y0111051D02*
X0148509Y0106390D01*
X0143119Y0101000D01*
X0141119Y0101000D01*
X0138965Y0098846D01*
X0138965Y0084500D01*
X0138965Y0076500D01*
X0135619Y0073154D01*
X0135619Y0028898D01*
X0140516Y0024000D01*
X0139179Y0028472D02*
X0138166Y0028472D01*
X0157955Y0027473D02*
X0162481Y0027473D01*
X0163479Y0026475D02*
X0158695Y0026475D01*
X0159119Y0025476D02*
X0163661Y0025476D01*
X0171169Y0027473D02*
X0178762Y0027473D01*
X0179225Y0027936D02*
X0177919Y0026630D01*
X0177212Y0024924D01*
X0177212Y0023076D01*
X0177919Y0021370D01*
X0179225Y0020064D01*
X0180931Y0019357D01*
X0182779Y0019357D01*
X0184485Y0020064D01*
X0185791Y0021370D01*
X0186498Y0023076D01*
X0186498Y0024924D01*
X0185791Y0026630D01*
X0184485Y0027936D01*
X0182779Y0028643D01*
X0180931Y0028643D01*
X0179225Y0027936D01*
X0180517Y0028472D02*
X0169413Y0028472D01*
X0166738Y0028472D02*
X0165725Y0028472D01*
X0164727Y0029470D02*
X0188043Y0029470D01*
X0189041Y0028472D02*
X0183193Y0028472D01*
X0184948Y0027473D02*
X0190040Y0027473D01*
X0191038Y0026475D02*
X0185856Y0026475D01*
X0186269Y0025476D02*
X0191220Y0025476D01*
X0190991Y0024478D02*
X0186498Y0024478D01*
X0186498Y0023479D02*
X0190991Y0023479D01*
X0191238Y0022481D02*
X0186251Y0022481D01*
X0185838Y0021482D02*
X0191652Y0021482D01*
X0192584Y0020484D02*
X0184905Y0020484D01*
X0183089Y0019485D02*
X0194401Y0019485D01*
X0196868Y0019485D02*
X0212491Y0019485D01*
X0211975Y0020484D02*
X0198685Y0020484D01*
X0199617Y0021482D02*
X0211975Y0021482D01*
X0211975Y0022481D02*
X0200031Y0022481D01*
X0200278Y0023479D02*
X0211975Y0023479D01*
X0211975Y0024478D02*
X0200278Y0024478D01*
X0200049Y0025476D02*
X0211975Y0025476D01*
X0211975Y0026475D02*
X0199635Y0026475D01*
X0198728Y0027473D02*
X0211975Y0027473D01*
X0212448Y0028472D02*
X0196972Y0028472D01*
X0195527Y0029470D02*
X0192286Y0029470D01*
X0193284Y0028472D02*
X0194297Y0028472D01*
X0194529Y0030469D02*
X0191287Y0030469D01*
X0190289Y0031467D02*
X0193530Y0031467D01*
X0192532Y0032466D02*
X0189290Y0032466D01*
X0188292Y0033464D02*
X0191533Y0033464D01*
X0190535Y0034463D02*
X0187293Y0034463D01*
X0186295Y0035461D02*
X0189536Y0035461D01*
X0188538Y0036460D02*
X0185296Y0036460D01*
X0184297Y0037458D02*
X0187539Y0037458D01*
X0186541Y0038457D02*
X0183299Y0038457D01*
X0182300Y0039455D02*
X0185542Y0039455D01*
X0184544Y0040454D02*
X0181302Y0040454D01*
X0180303Y0041452D02*
X0183545Y0041452D01*
X0182547Y0042451D02*
X0179305Y0042451D01*
X0178306Y0043449D02*
X0181548Y0043449D01*
X0177059Y0040454D02*
X0153743Y0040454D01*
X0152744Y0041452D02*
X0176061Y0041452D01*
X0175062Y0042451D02*
X0151746Y0042451D01*
X0150747Y0043449D02*
X0174064Y0043449D01*
X0173065Y0044448D02*
X0149749Y0044448D01*
X0148750Y0045446D02*
X0172067Y0045446D01*
X0171068Y0046445D02*
X0147752Y0046445D01*
X0146753Y0047443D02*
X0170070Y0047443D01*
X0169375Y0050260D02*
X0195634Y0024000D01*
X0180621Y0019485D02*
X0169309Y0019485D01*
X0171126Y0020484D02*
X0178805Y0020484D01*
X0177872Y0021482D02*
X0172058Y0021482D01*
X0172472Y0022481D02*
X0177458Y0022481D01*
X0177212Y0023479D02*
X0172719Y0023479D01*
X0172719Y0024478D02*
X0177212Y0024478D01*
X0177441Y0025476D02*
X0172490Y0025476D01*
X0172076Y0026475D02*
X0177854Y0026475D01*
X0164092Y0021482D02*
X0158673Y0021482D01*
X0157912Y0020484D02*
X0165025Y0020484D01*
X0166842Y0019485D02*
X0156544Y0019485D01*
X0163728Y0030469D02*
X0187044Y0030469D01*
X0186046Y0031467D02*
X0162729Y0031467D01*
X0161731Y0032466D02*
X0185047Y0032466D01*
X0184049Y0033464D02*
X0160732Y0033464D01*
X0159734Y0034463D02*
X0183050Y0034463D01*
X0182052Y0035461D02*
X0158735Y0035461D01*
X0157737Y0036460D02*
X0181053Y0036460D01*
X0180055Y0037458D02*
X0156738Y0037458D01*
X0155740Y0038457D02*
X0179056Y0038457D01*
X0178058Y0039455D02*
X0154741Y0039455D01*
X0129744Y0046445D02*
X0129494Y0046445D01*
X0129494Y0046150D02*
X0129494Y0048775D01*
X0125619Y0048775D01*
X0125619Y0047453D01*
X0125721Y0047071D01*
X0125918Y0046729D01*
X0126198Y0046450D01*
X0126540Y0046252D01*
X0126921Y0046150D01*
X0129494Y0046150D01*
X0129494Y0047443D02*
X0129744Y0047443D01*
X0129744Y0048442D02*
X0129494Y0048442D01*
X0126206Y0046445D02*
X0114457Y0046445D01*
X0114457Y0047443D02*
X0125621Y0047443D01*
X0125619Y0048442D02*
X0114457Y0048442D01*
X0114457Y0049440D02*
X0125619Y0049440D01*
X0125643Y0050439D02*
X0114457Y0050439D01*
X0114457Y0051437D02*
X0126019Y0051437D01*
X0126019Y0052436D02*
X0114457Y0052436D01*
X0115328Y0053434D02*
X0126019Y0053434D01*
X0126646Y0054433D02*
X0116327Y0054433D01*
X0117325Y0055432D02*
X0127819Y0055432D01*
X0127819Y0056430D02*
X0118324Y0056430D01*
X0119322Y0057429D02*
X0127819Y0057429D01*
X0123700Y0058427D02*
X0123538Y0058427D01*
X0123538Y0059426D02*
X0123700Y0059426D01*
X0123700Y0060424D02*
X0123538Y0060424D01*
X0123538Y0061423D02*
X0123700Y0061423D01*
X0123700Y0062421D02*
X0123538Y0062421D01*
X0123042Y0063420D02*
X0124195Y0063420D01*
X0124359Y0065417D02*
X0122878Y0065417D01*
X0123341Y0066415D02*
X0123897Y0066415D01*
X0123897Y0067414D02*
X0123341Y0067414D01*
X0123341Y0068412D02*
X0123897Y0068412D01*
X0123897Y0069411D02*
X0123341Y0069411D01*
X0123341Y0070409D02*
X0123897Y0070409D01*
X0124183Y0071408D02*
X0123054Y0071408D01*
X0123976Y0072406D02*
X0128019Y0072406D01*
X0128019Y0073405D02*
X0124974Y0073405D01*
X0120272Y0070824D02*
X0120272Y0068500D01*
X0120272Y0060500D01*
X0112957Y0053185D01*
X0112957Y0024000D01*
X0108561Y0022481D02*
X0103574Y0022481D01*
X0103821Y0023479D02*
X0108314Y0023479D01*
X0108314Y0024478D02*
X0103821Y0024478D01*
X0103592Y0025476D02*
X0108543Y0025476D01*
X0108956Y0026475D02*
X0103179Y0026475D01*
X0102271Y0027473D02*
X0109864Y0027473D01*
X0108974Y0021482D02*
X0103161Y0021482D01*
X0102228Y0020484D02*
X0109907Y0020484D01*
X0111724Y0019485D02*
X0100411Y0019485D01*
X0097944Y0019485D02*
X0086632Y0019485D01*
X0088449Y0020484D02*
X0096128Y0020484D01*
X0095195Y0021482D02*
X0089381Y0021482D01*
X0089795Y0022481D02*
X0094781Y0022481D01*
X0094534Y0023479D02*
X0090042Y0023479D01*
X0090042Y0024478D02*
X0094534Y0024478D01*
X0094763Y0025476D02*
X0089813Y0025476D01*
X0089399Y0026475D02*
X0095177Y0026475D01*
X0096084Y0027473D02*
X0088492Y0027473D01*
X0085398Y0024000D02*
X0085398Y0032313D01*
X0106009Y0052924D01*
X0106009Y0062237D01*
X0120272Y0076500D01*
X0120272Y0084500D01*
X0120272Y0087997D01*
X0123050Y0090775D01*
X0123050Y0101096D01*
X0124287Y0102332D01*
X0134746Y0102332D01*
X0137414Y0105000D01*
X0140619Y0105000D01*
X0144571Y0108953D01*
X0144571Y0111051D01*
X0134744Y0111036D02*
X0134744Y0108000D01*
X0132869Y0106125D01*
X0113391Y0106125D01*
X0111986Y0104719D01*
X0114756Y0099816D02*
X0102001Y0099816D01*
X0094432Y0107385D01*
X0088262Y0107385D01*
X0087869Y0107779D01*
X0083022Y0105096D02*
X0083022Y0101347D01*
X0091632Y0092737D01*
X0108429Y0092737D01*
X0110917Y0090250D01*
X0111994Y0090250D01*
X0115078Y0088302D02*
X0106503Y0079727D01*
X0106503Y0073477D01*
X0102294Y0069268D01*
X0102294Y0056458D01*
X0099505Y0053669D01*
X0099505Y0052614D01*
X0099505Y0057614D02*
X0099505Y0063907D01*
X0100192Y0064594D01*
X0100192Y0069712D01*
X0104703Y0074222D01*
X0104703Y0080472D01*
X0107203Y0082972D01*
X0107203Y0089834D01*
X0107244Y0089875D01*
X0115078Y0088302D02*
X0115078Y0093834D01*
X0117869Y0096625D01*
X0117744Y0096750D01*
X0090119Y0096750D01*
X0084613Y0102256D01*
X0084613Y0116892D01*
X0087375Y0119654D01*
X0087869Y0119654D01*
X0081244Y0125500D02*
X0077244Y0125500D01*
X0072879Y0121135D01*
X0072879Y0114437D01*
X0074905Y0111575D02*
X0077767Y0114437D01*
X0080359Y0114437D01*
X0078119Y0110000D02*
X0075580Y0110000D01*
X0075564Y0109984D01*
X0061603Y0109984D01*
X0060869Y0109250D01*
X0060869Y0107069D01*
X0060810Y0107010D01*
X0065928Y0114490D02*
X0068843Y0111575D01*
X0074905Y0111575D01*
X0078119Y0110000D02*
X0083022Y0105096D01*
X0060810Y0114490D02*
X0060810Y0117191D01*
X0066619Y0123000D01*
X0071374Y0123000D01*
X0072045Y0131744D02*
X0077112Y0131744D01*
X0079719Y0134350D01*
X0110119Y0134350D01*
X0116219Y0134314D02*
X0129683Y0134314D01*
X0127145Y0135312D02*
X0121510Y0135312D01*
X0122509Y0136311D02*
X0126530Y0136311D01*
X0126530Y0137309D02*
X0122753Y0137309D01*
X0122753Y0138308D02*
X0124775Y0138308D01*
X0124550Y0139306D02*
X0122391Y0139306D01*
X0122437Y0140305D02*
X0124550Y0140305D01*
X0124550Y0141303D02*
X0122437Y0141303D01*
X0122437Y0142302D02*
X0124550Y0142302D01*
X0124550Y0143301D02*
X0122437Y0143301D01*
X0122437Y0144299D02*
X0125044Y0144299D01*
X0124200Y0145298D02*
X0123117Y0145298D01*
X0123049Y0145229D02*
X0123049Y0145229D01*
X0123928Y0146296D02*
X0124150Y0146296D01*
X0124150Y0147295D02*
X0123928Y0147295D01*
X0124460Y0147846D02*
X0124460Y0137199D01*
X0129119Y0137000D02*
X0133119Y0133000D01*
X0134119Y0133000D01*
X0135741Y0131377D01*
X0135741Y0129949D01*
X0136697Y0129949D01*
X0135741Y0129949D02*
X0134729Y0129949D01*
X0138666Y0129949D02*
X0140634Y0129949D01*
X0142603Y0129949D02*
X0144571Y0129949D01*
X0146540Y0129949D02*
X0146540Y0138836D01*
X0146086Y0138382D01*
X0141359Y0138382D01*
X0141535Y0137206D01*
X0141359Y0138382D02*
X0137619Y0138382D01*
X0135446Y0136815D02*
X0133879Y0138382D01*
X0131696Y0138308D02*
X0131472Y0138308D01*
X0131696Y0138084D02*
X0130687Y0139093D01*
X0130687Y0142101D01*
X0133119Y0144532D01*
X0133119Y0145156D01*
X0135417Y0145156D01*
X0135466Y0145205D01*
X0135615Y0145056D01*
X0135957Y0144858D01*
X0136339Y0144756D01*
X0137577Y0144756D01*
X0137577Y0148577D01*
X0137660Y0148577D01*
X0137660Y0144756D01*
X0138899Y0144756D01*
X0139280Y0144858D01*
X0139622Y0145056D01*
X0139772Y0145205D01*
X0139821Y0145156D01*
X0142897Y0145156D01*
X0143542Y0145800D01*
X0143542Y0151436D01*
X0142897Y0152080D01*
X0142859Y0152080D01*
X0142859Y0153399D01*
X0141980Y0154277D01*
X0139936Y0156321D01*
X0139057Y0157200D01*
X0134697Y0157200D01*
X0130119Y0152621D01*
X0130119Y0151422D01*
X0129785Y0151512D01*
X0128103Y0151512D01*
X0128103Y0148331D01*
X0127134Y0148331D01*
X0127134Y0151512D01*
X0126619Y0151512D01*
X0126619Y0151839D01*
X0127708Y0152928D01*
X0127708Y0155072D01*
X0126619Y0156161D01*
X0126619Y0161862D01*
X0127234Y0161247D01*
X0127234Y0159430D01*
X0128924Y0157741D01*
X0131313Y0157741D01*
X0133003Y0159430D01*
X0133003Y0161820D01*
X0131313Y0163509D01*
X0129497Y0163509D01*
X0129469Y0163538D01*
X0129469Y0168350D01*
X0129660Y0168541D01*
X0129660Y0167251D01*
X0132433Y0164478D01*
X0133370Y0163541D01*
X0134065Y0163541D01*
X0144837Y0152769D01*
X0146163Y0152769D01*
X0154548Y0152769D01*
X0156348Y0150968D01*
X0155949Y0150968D01*
X0155949Y0147984D01*
X0154981Y0147984D01*
X0154981Y0150968D01*
X0153102Y0150968D01*
X0152721Y0150866D01*
X0152379Y0150669D01*
X0152100Y0150390D01*
X0151907Y0150055D01*
X0151393Y0150568D01*
X0146151Y0150568D01*
X0145507Y0149924D01*
X0145507Y0146356D01*
X0145040Y0145889D01*
X0145040Y0139882D01*
X0143542Y0139882D01*
X0143542Y0141200D01*
X0142897Y0141844D01*
X0139821Y0141844D01*
X0139489Y0141512D01*
X0139157Y0141844D01*
X0136080Y0141844D01*
X0135749Y0141512D01*
X0135417Y0141844D01*
X0132340Y0141844D01*
X0131696Y0141200D01*
X0131696Y0138084D01*
X0131696Y0139306D02*
X0130687Y0139306D01*
X0130687Y0140305D02*
X0131696Y0140305D01*
X0131800Y0141303D02*
X0130687Y0141303D01*
X0130889Y0142302D02*
X0145040Y0142302D01*
X0145040Y0143301D02*
X0131887Y0143301D01*
X0132886Y0144299D02*
X0145040Y0144299D01*
X0145040Y0145298D02*
X0143039Y0145298D01*
X0143742Y0145435D02*
X0145307Y0147000D01*
X0145307Y0150007D01*
X0144682Y0150632D01*
X0144682Y0152000D01*
X0155188Y0152000D01*
X0155403Y0151785D01*
X0155403Y0147000D01*
X0155465Y0147000D01*
X0155465Y0144441D01*
X0150119Y0144441D01*
X0150119Y0141096D01*
X0150603Y0141303D02*
X0154853Y0141303D01*
X0154853Y0140305D02*
X0153784Y0140305D01*
X0153784Y0140612D02*
X0153784Y0138930D01*
X0153682Y0138549D01*
X0153484Y0138207D01*
X0153205Y0137928D01*
X0152863Y0137730D01*
X0152482Y0137628D01*
X0150603Y0137628D01*
X0150603Y0140612D01*
X0149634Y0140612D01*
X0149634Y0137628D01*
X0148040Y0137628D01*
X0148040Y0137472D01*
X0152740Y0137472D01*
X0153384Y0136828D01*
X0153384Y0136004D01*
X0154853Y0136004D01*
X0154853Y0136828D01*
X0155498Y0137472D01*
X0160519Y0137472D01*
X0160519Y0138028D01*
X0155498Y0138028D01*
X0154853Y0138672D01*
X0154853Y0143521D01*
X0155498Y0144165D01*
X0155949Y0144165D01*
X0155949Y0147016D01*
X0154981Y0147016D01*
X0154981Y0144031D01*
X0153439Y0144031D01*
X0153484Y0143986D01*
X0153682Y0143644D01*
X0153784Y0143262D01*
X0153784Y0141581D01*
X0150603Y0141581D01*
X0150603Y0140612D01*
X0153784Y0140612D01*
X0153784Y0139306D02*
X0154853Y0139306D01*
X0155218Y0138308D02*
X0153543Y0138308D01*
X0152902Y0137309D02*
X0155335Y0137309D01*
X0154853Y0136311D02*
X0153384Y0136311D01*
X0150603Y0138308D02*
X0149634Y0138308D01*
X0149634Y0139306D02*
X0150603Y0139306D01*
X0150603Y0140305D02*
X0149634Y0140305D01*
X0146540Y0138836D02*
X0146540Y0145268D01*
X0148772Y0147500D01*
X0145507Y0147295D02*
X0143542Y0147295D01*
X0143542Y0148293D02*
X0145507Y0148293D01*
X0145507Y0149292D02*
X0143542Y0149292D01*
X0143542Y0150290D02*
X0145873Y0150290D01*
X0144682Y0152000D02*
X0139182Y0157500D01*
X0128119Y0157500D01*
X0127619Y0156000D01*
X0127619Y0147846D01*
X0124460Y0147846D01*
X0124511Y0148293D02*
X0127134Y0148293D01*
X0127134Y0149292D02*
X0128103Y0149292D01*
X0128103Y0150290D02*
X0127134Y0150290D01*
X0127134Y0151289D02*
X0128103Y0151289D01*
X0127067Y0152287D02*
X0130119Y0152287D01*
X0130783Y0153286D02*
X0127708Y0153286D01*
X0127708Y0154284D02*
X0131782Y0154284D01*
X0132780Y0155283D02*
X0127497Y0155283D01*
X0126619Y0156281D02*
X0133779Y0156281D01*
X0135319Y0155700D02*
X0131619Y0152000D01*
X0131619Y0145154D01*
X0127619Y0141154D01*
X0122428Y0146729D02*
X0119369Y0143670D01*
X0119369Y0142654D01*
X0122428Y0146729D02*
X0122428Y0148332D01*
X0125119Y0151023D01*
X0125119Y0154000D01*
X0126619Y0157280D02*
X0140326Y0157280D01*
X0139976Y0156281D02*
X0141325Y0156281D01*
X0140975Y0155283D02*
X0142323Y0155283D01*
X0141973Y0154284D02*
X0143322Y0154284D01*
X0142859Y0153286D02*
X0144320Y0153286D01*
X0142859Y0152287D02*
X0155029Y0152287D01*
X0156028Y0151289D02*
X0143542Y0151289D01*
X0141359Y0152777D02*
X0141359Y0148618D01*
X0143542Y0146296D02*
X0145447Y0146296D01*
X0143742Y0145435D02*
X0143742Y0141717D01*
X0143438Y0141303D02*
X0145040Y0141303D01*
X0145040Y0140305D02*
X0143542Y0140305D01*
X0135446Y0136815D02*
X0135446Y0135568D01*
X0136654Y0134360D01*
X0136654Y0134012D01*
X0148509Y0133793D02*
X0148509Y0129949D01*
X0148494Y0129949D01*
X0148509Y0133793D02*
X0150119Y0134404D01*
X0155099Y0126500D02*
X0162019Y0126500D01*
X0162019Y0155600D01*
X0157119Y0160500D01*
X0147603Y0160500D01*
X0142603Y0165500D01*
X0136332Y0161274D02*
X0133003Y0161274D01*
X0133003Y0160275D02*
X0137331Y0160275D01*
X0138329Y0159277D02*
X0132849Y0159277D01*
X0131851Y0158278D02*
X0139328Y0158278D01*
X0138436Y0155700D02*
X0135319Y0155700D01*
X0138436Y0155700D02*
X0141359Y0152777D01*
X0136619Y0153000D02*
X0133879Y0150260D01*
X0133879Y0148618D01*
X0137577Y0148293D02*
X0137660Y0148293D01*
X0137660Y0147295D02*
X0137577Y0147295D01*
X0137577Y0146296D02*
X0137660Y0146296D01*
X0137660Y0145298D02*
X0137577Y0145298D01*
X0151672Y0150290D02*
X0152042Y0150290D01*
X0154981Y0150290D02*
X0155949Y0150290D01*
X0155949Y0149292D02*
X0154981Y0149292D01*
X0154981Y0148293D02*
X0155949Y0148293D01*
X0155465Y0147500D02*
X0155465Y0147000D01*
X0154981Y0146296D02*
X0155949Y0146296D01*
X0155949Y0145298D02*
X0154981Y0145298D01*
X0154981Y0144299D02*
X0155949Y0144299D01*
X0154853Y0143301D02*
X0153774Y0143301D01*
X0153784Y0142302D02*
X0154853Y0142302D01*
X0173319Y0143350D02*
X0173319Y0124764D01*
X0177666Y0120417D01*
X0177666Y0105650D01*
X0186946Y0096370D01*
X0187600Y0096370D01*
X0190971Y0093000D01*
X0199119Y0093000D01*
X0212652Y0079466D01*
X0214995Y0079466D01*
X0217546Y0076916D01*
X0223534Y0076916D01*
X0224119Y0076500D01*
X0222225Y0073377D02*
X0220591Y0075011D01*
X0217201Y0075011D01*
X0214336Y0077876D01*
X0211243Y0077876D01*
X0198346Y0090773D01*
X0191892Y0090773D01*
X0185397Y0084278D01*
X0178877Y0082242D02*
X0178877Y0081304D01*
X0187990Y0072191D01*
X0189067Y0072191D01*
X0197485Y0080608D01*
X0197485Y0081355D01*
X0199442Y0083313D01*
X0200436Y0085683D02*
X0197801Y0085683D01*
X0190965Y0078846D01*
X0190965Y0078710D01*
X0178877Y0082242D02*
X0175619Y0085500D01*
X0179829Y0089710D01*
X0179829Y0089846D01*
X0185169Y0094000D02*
X0182804Y0096366D01*
X0181727Y0096366D01*
X0172809Y0087449D01*
X0172809Y0084764D01*
X0175096Y0082477D01*
X0175096Y0080477D01*
X0164119Y0069500D01*
X0163483Y0073500D02*
X0159325Y0073500D01*
X0149369Y0083457D01*
X0146999Y0084880D02*
X0146999Y0071370D01*
X0154024Y0064344D01*
X0154024Y0061941D01*
X0158119Y0057846D01*
X0166119Y0057846D01*
X0169272Y0057846D01*
X0196775Y0030343D01*
X0220701Y0030343D01*
X0227044Y0024000D01*
X0230398Y0024000D01*
X0226002Y0022481D02*
X0221262Y0022481D01*
X0221262Y0023479D02*
X0225443Y0023479D01*
X0224445Y0024478D02*
X0221262Y0024478D01*
X0221262Y0025476D02*
X0223446Y0025476D01*
X0222448Y0026475D02*
X0221262Y0026475D01*
X0221262Y0027473D02*
X0221449Y0027473D01*
X0223695Y0029470D02*
X0233782Y0029470D01*
X0229060Y0028472D02*
X0224693Y0028472D01*
X0225692Y0027473D02*
X0227305Y0027473D01*
X0226415Y0021482D02*
X0221262Y0021482D01*
X0221262Y0020484D02*
X0227348Y0020484D01*
X0229165Y0019485D02*
X0220746Y0019485D01*
X0166603Y0048442D02*
X0165634Y0048442D01*
X0165634Y0049440D02*
X0166603Y0049440D01*
X0166603Y0050439D02*
X0165634Y0050439D01*
X0165634Y0051437D02*
X0158603Y0051437D01*
X0157634Y0051437D02*
X0154848Y0051437D01*
X0154650Y0050439D02*
X0154231Y0050439D01*
X0154650Y0049440D02*
X0153595Y0049440D01*
X0154744Y0048442D02*
X0145755Y0048442D01*
X0146902Y0049440D02*
X0148335Y0049440D01*
X0147700Y0050439D02*
X0147538Y0050439D01*
X0147538Y0051437D02*
X0147700Y0051437D01*
X0147700Y0052436D02*
X0147538Y0052436D01*
X0147538Y0053434D02*
X0147700Y0053434D01*
X0147700Y0054433D02*
X0147538Y0054433D01*
X0147030Y0055432D02*
X0148207Y0055432D01*
X0149465Y0056430D02*
X0145872Y0056430D01*
X0146890Y0057429D02*
X0148347Y0057429D01*
X0147897Y0058427D02*
X0147341Y0058427D01*
X0147341Y0059426D02*
X0147897Y0059426D01*
X0147897Y0060424D02*
X0147341Y0060424D01*
X0147341Y0061423D02*
X0147897Y0061423D01*
X0147897Y0062421D02*
X0147341Y0062421D01*
X0147042Y0063420D02*
X0148195Y0063420D01*
X0149465Y0064418D02*
X0145719Y0064418D01*
X0146197Y0065417D02*
X0148581Y0065417D01*
X0147582Y0066415D02*
X0146679Y0066415D01*
X0163483Y0073500D02*
X0167859Y0077875D01*
X0173426Y0072308D02*
X0166927Y0065808D01*
X0166927Y0065808D01*
X0173361Y0061106D02*
X0173361Y0059413D01*
X0173361Y0061106D02*
X0178994Y0066740D01*
X0184291Y0061172D02*
X0184562Y0061172D01*
X0184291Y0061172D02*
X0177954Y0054836D01*
X0169375Y0053574D02*
X0169375Y0050260D01*
X0162453Y0050439D02*
X0161587Y0050439D01*
X0161587Y0049440D02*
X0162453Y0049440D01*
X0162650Y0048442D02*
X0161494Y0048442D01*
X0158603Y0048442D02*
X0157634Y0048442D01*
X0157634Y0049440D02*
X0158603Y0049440D01*
X0158603Y0050439D02*
X0157634Y0050439D01*
X0161587Y0052436D02*
X0162453Y0052436D01*
X0127030Y0064418D02*
X0121772Y0064418D01*
X0149994Y0086246D02*
X0153749Y0082491D01*
X0154826Y0082491D01*
X0155778Y0083443D01*
X0162291Y0083443D01*
X0156723Y0089011D02*
X0156723Y0092896D01*
X0155619Y0094000D01*
X0148364Y0097246D02*
X0155005Y0103886D01*
X0155005Y0114594D01*
X0155005Y0116563D02*
X0171619Y0116563D01*
X0171619Y0103907D01*
X0168694Y0100982D01*
X0176202Y0103412D02*
X0176202Y0097355D01*
X0174261Y0095414D01*
X0185169Y0094000D02*
X0186619Y0094000D01*
X0191220Y0095000D02*
X0185354Y0100866D01*
X0184699Y0100866D01*
X0181985Y0103581D01*
X0181985Y0109419D01*
X0184699Y0112134D01*
X0188538Y0112134D01*
X0190379Y0110293D01*
X0197576Y0110293D01*
X0197213Y0114350D02*
X0197049Y0114350D01*
X0190908Y0116994D02*
X0183624Y0116994D01*
X0177772Y0122846D01*
X0177772Y0126000D01*
X0177619Y0126000D01*
X0177772Y0126000D02*
X0177772Y0135920D01*
X0178541Y0136689D01*
X0181619Y0136689D01*
X0183717Y0136689D01*
X0185556Y0134850D01*
X0185556Y0132752D01*
X0187524Y0132752D02*
X0187524Y0128617D01*
X0187721Y0128420D01*
X0187721Y0123580D01*
X0187082Y0122941D01*
X0184468Y0122941D01*
X0182749Y0121222D01*
X0171619Y0116563D02*
X0171619Y0156000D01*
X0172519Y0156900D01*
X0202901Y0156900D01*
X0211501Y0165500D01*
X0214217Y0160598D02*
X0209619Y0156000D01*
X0209619Y0152000D01*
X0207619Y0150626D02*
X0203132Y0155113D01*
X0183231Y0155113D01*
X0178350Y0150231D01*
X0178350Y0143532D01*
X0179120Y0142763D01*
X0181450Y0142763D01*
X0181619Y0142594D01*
X0181450Y0140794D02*
X0178543Y0140794D01*
X0177059Y0142278D01*
X0175908Y0142278D01*
X0174408Y0144439D02*
X0173319Y0143350D01*
X0174408Y0144439D02*
X0174408Y0153000D01*
X0169619Y0158000D02*
X0169619Y0118531D01*
X0155005Y0118531D01*
X0155005Y0120500D02*
X0167619Y0120500D01*
X0167619Y0160000D01*
X0168119Y0160500D01*
X0178942Y0160500D01*
X0183942Y0165500D01*
X0190921Y0158700D02*
X0197721Y0165500D01*
X0190921Y0158700D02*
X0170319Y0158700D01*
X0169619Y0158000D01*
X0165619Y0160957D02*
X0165619Y0122469D01*
X0155005Y0122469D01*
X0155005Y0124437D02*
X0163819Y0124437D01*
X0163819Y0158064D01*
X0156383Y0165500D01*
X0165619Y0160957D02*
X0170162Y0165500D01*
X0135334Y0162272D02*
X0132550Y0162272D01*
X0131552Y0163271D02*
X0134335Y0163271D01*
X0132642Y0164269D02*
X0129469Y0164269D01*
X0129469Y0165268D02*
X0131644Y0165268D01*
X0130645Y0166266D02*
X0129469Y0166266D01*
X0129469Y0167265D02*
X0129660Y0167265D01*
X0129660Y0168263D02*
X0129469Y0168263D01*
X0121883Y0163736D02*
X0128119Y0157500D01*
X0128387Y0158278D02*
X0126619Y0158278D01*
X0126619Y0159277D02*
X0127388Y0159277D01*
X0127234Y0160275D02*
X0126619Y0160275D01*
X0126619Y0161274D02*
X0127207Y0161274D01*
X0118215Y0150500D02*
X0109619Y0150500D01*
X0118215Y0150500D02*
X0119369Y0149346D01*
X0111031Y0141109D02*
X0086023Y0141109D01*
X0084133Y0143000D01*
X0074465Y0143000D01*
X0071406Y0145042D02*
X0071406Y0132383D01*
X0072045Y0131744D01*
X0074465Y0135000D02*
X0078119Y0135000D01*
X0080619Y0137500D01*
X0110119Y0137500D01*
X0112230Y0139911D02*
X0111031Y0141109D01*
X0116430Y0136311D02*
X0117060Y0136311D01*
X0116219Y0135312D02*
X0118227Y0135312D01*
X0115451Y0127324D02*
X0115219Y0127324D01*
X0128233Y0123330D02*
X0128233Y0123330D01*
X0130711Y0120955D02*
X0130711Y0120000D01*
X0141119Y0120000D01*
X0141119Y0121000D01*
X0130756Y0121000D01*
X0130711Y0120955D01*
X0118603Y0114344D02*
X0117634Y0114344D01*
X0117634Y0113345D02*
X0118603Y0113345D01*
X0118603Y0112347D02*
X0117634Y0112347D01*
X0114453Y0110350D02*
X0113619Y0110350D01*
X0121784Y0110350D02*
X0127717Y0110350D01*
X0134729Y0111051D02*
X0134744Y0111036D01*
X0114853Y0120335D02*
X0114716Y0120335D01*
X0155005Y0126406D02*
X0155099Y0126500D01*
X0181619Y0128846D02*
X0181619Y0133500D01*
X0189493Y0132752D02*
X0189493Y0141394D01*
X0189109Y0141010D01*
X0189493Y0140626D01*
X0189109Y0141010D02*
X0185556Y0144563D01*
X0181619Y0144563D01*
X0181450Y0140794D02*
X0181619Y0140626D01*
X0181619Y0138657D02*
X0181461Y0138500D01*
X0175908Y0138500D01*
X0189493Y0141394D02*
X0189493Y0148500D01*
X0193430Y0148500D02*
X0193430Y0151811D01*
X0195119Y0153500D01*
X0201619Y0153500D01*
X0204272Y0150846D01*
X0204272Y0147500D01*
X0197367Y0144563D02*
X0196345Y0145585D01*
X0196345Y0150774D01*
X0207619Y0150626D02*
X0207619Y0132846D01*
X0199119Y0132846D02*
X0195657Y0129385D01*
X0191461Y0129385D01*
X0191461Y0132752D01*
X0197367Y0138657D02*
X0202430Y0138657D01*
X0204272Y0139500D01*
X0224016Y0130443D02*
X0225664Y0132091D01*
X0235276Y0132091D01*
X0237167Y0132169D02*
X0237245Y0132091D01*
X0245119Y0132091D02*
X0245119Y0119000D01*
X0258209Y0119000D01*
X0258209Y0120969D02*
X0273416Y0120969D01*
X0273470Y0120914D01*
X0271549Y0122937D02*
X0272315Y0123703D01*
X0273322Y0123703D01*
X0274619Y0125000D01*
X0271549Y0122937D02*
X0258209Y0122937D01*
X0258209Y0124906D02*
X0261024Y0124906D01*
X0262119Y0126000D01*
X0263830Y0129262D02*
X0266092Y0127000D01*
X0263830Y0129262D02*
X0263830Y0131955D01*
X0263694Y0132091D01*
X0254961Y0132091D01*
X0253071Y0132169D02*
X0253071Y0133834D01*
X0254237Y0135000D01*
X0264129Y0135000D01*
X0264718Y0135589D01*
X0269708Y0135589D01*
X0270119Y0136000D01*
X0275885Y0136000D01*
X0276875Y0135010D01*
X0283984Y0135010D01*
X0305398Y0156424D01*
X0305398Y0165500D01*
X0317928Y0165500D02*
X0319178Y0165500D01*
X0317928Y0165500D02*
X0285081Y0132653D01*
X0268910Y0132653D01*
X0267774Y0133789D01*
X0265463Y0133789D01*
X0263830Y0132155D01*
X0263830Y0131955D01*
X0266619Y0131000D02*
X0267937Y0129681D01*
X0284938Y0129681D01*
X0313859Y0158603D01*
X0326060Y0158603D01*
X0332957Y0165500D01*
X0348119Y0160480D02*
X0353326Y0160480D01*
X0356940Y0156866D01*
X0401253Y0156866D01*
X0406060Y0152059D01*
X0420218Y0152059D01*
X0422690Y0149587D01*
X0422690Y0137757D01*
X0421728Y0136795D01*
X0420253Y0136795D01*
X0419926Y0136469D01*
X0419926Y0134500D02*
X0419926Y0132531D01*
X0424847Y0132531D01*
X0422619Y0131500D02*
X0422446Y0131500D01*
X0421732Y0132214D01*
X0418486Y0132214D01*
X0418486Y0133500D01*
X0441119Y0133500D01*
X0441119Y0110000D01*
X0443619Y0107500D01*
X0443619Y0104000D01*
X0443119Y0104000D01*
X0427119Y0120000D01*
X0427119Y0127000D01*
X0422619Y0127000D01*
X0422619Y0129799D01*
X0422699Y0129879D01*
X0422699Y0131247D01*
X0422619Y0131327D01*
X0422619Y0131500D01*
X0422628Y0131318D02*
X0441119Y0131318D01*
X0441119Y0130320D02*
X0422699Y0130320D01*
X0422619Y0129321D02*
X0441119Y0129321D01*
X0441119Y0128323D02*
X0422619Y0128323D01*
X0422619Y0127324D02*
X0441119Y0127324D01*
X0441119Y0126326D02*
X0427119Y0126326D01*
X0427119Y0125327D02*
X0441119Y0125327D01*
X0441119Y0124329D02*
X0427119Y0124329D01*
X0427119Y0123330D02*
X0441119Y0123330D01*
X0441119Y0122332D02*
X0427119Y0122332D01*
X0427119Y0121333D02*
X0441119Y0121333D01*
X0441119Y0120335D02*
X0427119Y0120335D01*
X0427782Y0119336D02*
X0441119Y0119336D01*
X0441119Y0118338D02*
X0428781Y0118338D01*
X0429780Y0117339D02*
X0441119Y0117339D01*
X0441119Y0116341D02*
X0430778Y0116341D01*
X0431777Y0115342D02*
X0441119Y0115342D01*
X0441119Y0114344D02*
X0432775Y0114344D01*
X0433774Y0113345D02*
X0441119Y0113345D01*
X0441119Y0112347D02*
X0434772Y0112347D01*
X0435771Y0111348D02*
X0441119Y0111348D01*
X0441119Y0110350D02*
X0436769Y0110350D01*
X0437768Y0109351D02*
X0441768Y0109351D01*
X0442766Y0108353D02*
X0438766Y0108353D01*
X0439765Y0107354D02*
X0443619Y0107354D01*
X0443619Y0106356D02*
X0440763Y0106356D01*
X0441762Y0105357D02*
X0443619Y0105357D01*
X0443619Y0104359D02*
X0442760Y0104359D01*
X0446900Y0107354D02*
X0466422Y0107354D01*
X0466480Y0107321D02*
X0466862Y0107219D01*
X0475630Y0107219D01*
X0475630Y0110203D01*
X0465559Y0110203D01*
X0465559Y0108521D01*
X0465661Y0108140D01*
X0465859Y0107797D01*
X0466138Y0107518D01*
X0466480Y0107321D01*
X0465604Y0108353D02*
X0445912Y0108353D01*
X0444923Y0109351D02*
X0465559Y0109351D01*
X0465559Y0111171D02*
X0475630Y0111171D01*
X0475630Y0110203D01*
X0476599Y0110203D01*
X0476599Y0111171D01*
X0486669Y0111171D01*
X0486669Y0112853D01*
X0486567Y0113234D01*
X0486370Y0113577D01*
X0486090Y0113856D01*
X0485748Y0114053D01*
X0485367Y0114155D01*
X0476599Y0114155D01*
X0476599Y0111171D01*
X0475630Y0111171D01*
X0475630Y0114155D01*
X0466862Y0114155D01*
X0466480Y0114053D01*
X0466138Y0113856D01*
X0465859Y0113577D01*
X0465661Y0113234D01*
X0465559Y0112853D01*
X0465559Y0111171D01*
X0465559Y0111348D02*
X0442946Y0111348D01*
X0442619Y0111678D02*
X0442619Y0134121D01*
X0441740Y0135000D01*
X0439071Y0135000D01*
X0439071Y0136740D01*
X0435119Y0136740D01*
X0435119Y0137740D01*
X0439071Y0137740D01*
X0439071Y0139997D01*
X0438969Y0140378D01*
X0438772Y0140720D01*
X0438493Y0140999D01*
X0438150Y0141197D01*
X0437769Y0141299D01*
X0435119Y0141299D01*
X0435119Y0137740D01*
X0434119Y0137740D01*
X0434119Y0141299D01*
X0431468Y0141299D01*
X0431087Y0141197D01*
X0430869Y0141071D01*
X0430650Y0141197D01*
X0430269Y0141299D01*
X0427619Y0141299D01*
X0427619Y0137740D01*
X0434119Y0137740D01*
X0434119Y0136740D01*
X0430166Y0136740D01*
X0427619Y0136740D01*
X0427619Y0137740D01*
X0426619Y0137740D01*
X0426619Y0141299D01*
X0424190Y0141299D01*
X0424190Y0150209D01*
X0420839Y0153559D01*
X0419596Y0153559D01*
X0409666Y0153559D01*
X0409619Y0154500D01*
X0409619Y0172500D01*
X0402619Y0179500D01*
X0485228Y0179500D01*
X0485228Y0173983D01*
X0491351Y0167859D01*
X0497907Y0167859D01*
X0502619Y0163000D01*
X0502619Y0124385D01*
X0489438Y0124385D01*
X0488794Y0123741D01*
X0488794Y0116531D01*
X0489438Y0115886D01*
X0502619Y0115886D01*
X0502619Y0097614D01*
X0489438Y0097614D01*
X0488794Y0096969D01*
X0488794Y0093500D01*
X0460619Y0093500D01*
X0454368Y0099813D01*
X0466535Y0099813D01*
X0466604Y0099744D01*
X0485625Y0099744D01*
X0486269Y0100389D01*
X0486269Y0105237D01*
X0485625Y0105881D01*
X0466604Y0105881D01*
X0466535Y0105813D01*
X0448426Y0105813D01*
X0442619Y0111678D01*
X0442619Y0112347D02*
X0465559Y0112347D01*
X0465725Y0113345D02*
X0442619Y0113345D01*
X0442619Y0114344D02*
X0502619Y0114344D01*
X0502619Y0115342D02*
X0442619Y0115342D01*
X0442619Y0116341D02*
X0488984Y0116341D01*
X0488794Y0117339D02*
X0442619Y0117339D01*
X0442619Y0118338D02*
X0488794Y0118338D01*
X0488794Y0119336D02*
X0442619Y0119336D01*
X0442619Y0120335D02*
X0488794Y0120335D01*
X0488794Y0121333D02*
X0442619Y0121333D01*
X0442619Y0122332D02*
X0488794Y0122332D01*
X0488794Y0123330D02*
X0483543Y0123330D01*
X0483543Y0123191D02*
X0483543Y0133552D01*
X0482899Y0134196D01*
X0470964Y0134196D01*
X0470319Y0133552D01*
X0470319Y0131372D01*
X0465821Y0131372D01*
X0464943Y0132250D01*
X0461420Y0132250D01*
X0459527Y0130358D01*
X0459527Y0133552D01*
X0458883Y0134196D01*
X0446948Y0134196D01*
X0446304Y0133552D01*
X0446304Y0123191D01*
X0446948Y0122547D01*
X0458883Y0122547D01*
X0459527Y0123191D01*
X0459527Y0125637D01*
X0461420Y0123744D01*
X0464943Y0123744D01*
X0466570Y0125372D01*
X0470319Y0125372D01*
X0470319Y0123191D01*
X0470964Y0122547D01*
X0482899Y0122547D01*
X0483543Y0123191D01*
X0483543Y0124329D02*
X0489382Y0124329D01*
X0483543Y0125327D02*
X0502619Y0125327D01*
X0502619Y0126326D02*
X0483543Y0126326D01*
X0483543Y0127324D02*
X0502619Y0127324D01*
X0502619Y0128323D02*
X0483543Y0128323D01*
X0483543Y0129321D02*
X0502619Y0129321D01*
X0502619Y0130320D02*
X0483543Y0130320D01*
X0483543Y0131318D02*
X0502619Y0131318D01*
X0502619Y0132317D02*
X0483543Y0132317D01*
X0483543Y0133315D02*
X0502619Y0133315D01*
X0502619Y0134314D02*
X0442426Y0134314D01*
X0442619Y0133315D02*
X0446304Y0133315D01*
X0446304Y0132317D02*
X0442619Y0132317D01*
X0442619Y0131318D02*
X0446304Y0131318D01*
X0446304Y0130320D02*
X0442619Y0130320D01*
X0442619Y0129321D02*
X0446304Y0129321D01*
X0446304Y0128323D02*
X0442619Y0128323D01*
X0442619Y0127324D02*
X0446304Y0127324D01*
X0446304Y0126326D02*
X0442619Y0126326D01*
X0442619Y0125327D02*
X0446304Y0125327D01*
X0446304Y0124329D02*
X0442619Y0124329D01*
X0442619Y0123330D02*
X0446304Y0123330D01*
X0459527Y0123330D02*
X0470319Y0123330D01*
X0470319Y0124329D02*
X0465527Y0124329D01*
X0466526Y0125327D02*
X0470319Y0125327D01*
X0460835Y0124329D02*
X0459527Y0124329D01*
X0459527Y0125327D02*
X0459837Y0125327D01*
X0459527Y0131318D02*
X0460488Y0131318D01*
X0459527Y0132317D02*
X0470319Y0132317D01*
X0470319Y0133315D02*
X0459527Y0133315D01*
X0446119Y0135000D02*
X0422699Y0135000D01*
X0422699Y0135184D01*
X0422468Y0135415D01*
X0423228Y0136174D01*
X0423311Y0136257D01*
X0424190Y0137136D01*
X0424190Y0150209D01*
X0424189Y0150209D01*
X0446119Y0150000D01*
X0446119Y0135000D01*
X0446119Y0135312D02*
X0422571Y0135312D01*
X0423365Y0136311D02*
X0446119Y0136311D01*
X0446119Y0137309D02*
X0424190Y0137309D01*
X0424190Y0138308D02*
X0446119Y0138308D01*
X0446119Y0139306D02*
X0424190Y0139306D01*
X0424190Y0140305D02*
X0446119Y0140305D01*
X0446119Y0141303D02*
X0424190Y0141303D01*
X0502619Y0141303D01*
X0502619Y0140305D02*
X0438989Y0140305D01*
X0439071Y0139306D02*
X0502619Y0139306D01*
X0502619Y0138308D02*
X0439071Y0138308D01*
X0439071Y0136311D02*
X0502619Y0136311D01*
X0502619Y0137309D02*
X0435119Y0137309D01*
X0435119Y0138308D02*
X0434119Y0138308D01*
X0434119Y0139306D02*
X0435119Y0139306D01*
X0435119Y0140305D02*
X0434119Y0140305D01*
X0434119Y0137309D02*
X0427619Y0137309D01*
X0427119Y0137240D02*
X0425619Y0138740D01*
X0425619Y0141000D01*
X0426619Y0140305D02*
X0427619Y0140305D01*
X0427619Y0139306D02*
X0426619Y0139306D01*
X0426619Y0138308D02*
X0427619Y0138308D01*
X0421190Y0140088D02*
X0418120Y0140088D01*
X0417153Y0139121D01*
X0417153Y0137753D01*
X0417453Y0137453D01*
X0417274Y0137274D01*
X0411177Y0143431D01*
X0411893Y0143431D01*
X0412407Y0143945D01*
X0412600Y0143610D01*
X0412879Y0143331D01*
X0413221Y0143134D01*
X0413602Y0143031D01*
X0415481Y0143031D01*
X0415481Y0146016D01*
X0416449Y0146016D01*
X0416449Y0143031D01*
X0418328Y0143031D01*
X0418710Y0143134D01*
X0419052Y0143331D01*
X0419331Y0143610D01*
X0419528Y0143953D01*
X0419631Y0144334D01*
X0419631Y0146016D01*
X0416450Y0146016D01*
X0416450Y0146984D01*
X0419631Y0146984D01*
X0419631Y0148666D01*
X0419528Y0149047D01*
X0419331Y0149390D01*
X0419052Y0149669D01*
X0418710Y0149866D01*
X0418328Y0149968D01*
X0416449Y0149968D01*
X0416449Y0146984D01*
X0415481Y0146984D01*
X0415481Y0149968D01*
X0413602Y0149968D01*
X0413221Y0149866D01*
X0412879Y0149669D01*
X0412600Y0149390D01*
X0412407Y0149055D01*
X0411893Y0149568D01*
X0409865Y0149568D01*
X0409816Y0150559D01*
X0419596Y0150559D01*
X0421190Y0148966D01*
X0421190Y0140088D01*
X0418120Y0140088D01*
X0417153Y0139121D01*
X0417153Y0137753D01*
X0417453Y0137453D01*
X0417153Y0137152D01*
X0417153Y0135785D01*
X0417453Y0135484D01*
X0417153Y0135184D01*
X0417153Y0135000D01*
X0411085Y0135000D01*
X0411085Y0135184D01*
X0410118Y0136151D01*
X0407119Y0136151D01*
X0407119Y0136786D01*
X0410118Y0136786D01*
X0411085Y0137753D01*
X0411085Y0139121D01*
X0410118Y0140088D01*
X0409712Y0140088D01*
X0409712Y0143431D01*
X0411893Y0143431D01*
X0412538Y0144076D01*
X0412538Y0148924D01*
X0411893Y0149568D01*
X0406651Y0149568D01*
X0406007Y0148924D01*
X0406007Y0144076D01*
X0406651Y0143431D01*
X0406912Y0143431D01*
X0406912Y0141207D01*
X0406119Y0142000D01*
X0405187Y0142000D01*
X0405187Y0143775D01*
X0404543Y0144419D01*
X0399695Y0144419D01*
X0399050Y0143775D01*
X0399050Y0142954D01*
X0396884Y0142954D01*
X0396884Y0143578D01*
X0396240Y0144222D01*
X0393619Y0144222D01*
X0393619Y0150500D01*
X0419906Y0150250D01*
X0421190Y0148966D01*
X0421190Y0140088D01*
X0421190Y0140305D02*
X0414273Y0140305D01*
X0415261Y0139306D02*
X0417338Y0139306D01*
X0410899Y0139306D01*
X0411085Y0138308D02*
X0417153Y0138308D01*
X0416250Y0138308D01*
X0417239Y0137309D02*
X0417310Y0137309D01*
X0410641Y0137309D01*
X0410114Y0136142D02*
X0414118Y0132138D01*
X0414119Y0132138D01*
X0414119Y0129539D01*
X0413331Y0128752D01*
X0414906Y0128752D01*
X0416481Y0128752D01*
X0418119Y0128323D02*
X0421119Y0128323D01*
X0421119Y0129321D02*
X0418119Y0129321D01*
X0418119Y0129444D02*
X0418486Y0129812D01*
X0418486Y0130000D01*
X0421119Y0130000D01*
X0421119Y0126379D01*
X0421369Y0126129D01*
X0421369Y0126000D01*
X0423619Y0123750D01*
X0423619Y0108250D01*
X0416619Y0108250D01*
X0416619Y0123500D01*
X0418119Y0125000D01*
X0418119Y0129444D01*
X0418119Y0127324D02*
X0421119Y0127324D01*
X0421172Y0126326D02*
X0418119Y0126326D01*
X0418119Y0125327D02*
X0422041Y0125327D01*
X0423040Y0124329D02*
X0417448Y0124329D01*
X0416619Y0123330D02*
X0423619Y0123330D01*
X0423619Y0122332D02*
X0416619Y0122332D01*
X0416619Y0121333D02*
X0423619Y0121333D01*
X0423619Y0120335D02*
X0416619Y0120335D01*
X0416619Y0119336D02*
X0423619Y0119336D01*
X0423619Y0118338D02*
X0416619Y0118338D01*
X0416619Y0117339D02*
X0423619Y0117339D01*
X0423619Y0116341D02*
X0416619Y0116341D01*
X0416619Y0115342D02*
X0423619Y0115342D01*
X0423619Y0114344D02*
X0416619Y0114344D01*
X0416619Y0113345D02*
X0423619Y0113345D01*
X0423619Y0112347D02*
X0416619Y0112347D01*
X0416619Y0111348D02*
X0423619Y0111348D01*
X0423619Y0110350D02*
X0416619Y0110350D01*
X0416619Y0109351D02*
X0423619Y0109351D01*
X0423619Y0108353D02*
X0416619Y0108353D01*
X0413869Y0108353D02*
X0406619Y0108353D01*
X0406619Y0108250D02*
X0406619Y0130257D01*
X0406821Y0130500D01*
X0409751Y0130500D01*
X0409751Y0129812D01*
X0410119Y0129444D01*
X0410119Y0127000D01*
X0410204Y0126915D01*
X0410204Y0126722D01*
X0410848Y0126077D01*
X0411042Y0126077D01*
X0413869Y0123250D01*
X0413869Y0108250D01*
X0406619Y0108250D01*
X0406619Y0109351D02*
X0413869Y0109351D01*
X0413869Y0110350D02*
X0406619Y0110350D01*
X0406619Y0111348D02*
X0413869Y0111348D01*
X0413869Y0112347D02*
X0406619Y0112347D01*
X0406619Y0113345D02*
X0413869Y0113345D01*
X0413869Y0114344D02*
X0406619Y0114344D01*
X0406619Y0115342D02*
X0413869Y0115342D01*
X0413869Y0116341D02*
X0406619Y0116341D01*
X0406619Y0117339D02*
X0413869Y0117339D01*
X0413869Y0118338D02*
X0406619Y0118338D01*
X0406619Y0119336D02*
X0413869Y0119336D01*
X0413869Y0120335D02*
X0406619Y0120335D01*
X0406619Y0121333D02*
X0413869Y0121333D01*
X0413869Y0122332D02*
X0406619Y0122332D01*
X0406619Y0123330D02*
X0413788Y0123330D01*
X0412790Y0124329D02*
X0406619Y0124329D01*
X0406619Y0125327D02*
X0411791Y0125327D01*
X0410599Y0126326D02*
X0406619Y0126326D01*
X0406619Y0127324D02*
X0410119Y0127324D01*
X0410119Y0128323D02*
X0406619Y0128323D01*
X0406619Y0129321D02*
X0410119Y0129321D01*
X0409751Y0130320D02*
X0406671Y0130320D01*
X0405551Y0131318D02*
X0380619Y0131318D01*
X0380619Y0130320D02*
X0404719Y0130320D01*
X0403887Y0129321D02*
X0380619Y0129321D01*
X0380619Y0129000D02*
X0380619Y0150500D01*
X0390583Y0150500D01*
X0390353Y0150271D01*
X0390353Y0145422D01*
X0390998Y0144778D01*
X0392119Y0144778D01*
X0392119Y0144222D01*
X0390998Y0144222D01*
X0390353Y0143578D01*
X0390353Y0142954D01*
X0388634Y0142954D01*
X0388634Y0143578D01*
X0387990Y0144222D01*
X0382748Y0144222D01*
X0382103Y0143578D01*
X0382103Y0138729D01*
X0382748Y0138085D01*
X0387990Y0138085D01*
X0388634Y0138729D01*
X0388634Y0139354D01*
X0390353Y0139354D01*
X0390353Y0138729D01*
X0390998Y0138085D01*
X0392619Y0138085D01*
X0392619Y0137000D01*
X0402119Y0137000D01*
X0402457Y0136661D01*
X0402457Y0136477D01*
X0403336Y0135598D01*
X0405883Y0133051D01*
X0406068Y0133051D01*
X0406119Y0133000D01*
X0406354Y0133000D01*
X0406506Y0132849D01*
X0409751Y0132849D01*
X0409751Y0132214D01*
X0406506Y0132214D01*
X0406291Y0132000D01*
X0406119Y0132000D01*
X0403619Y0129000D01*
X0380619Y0129000D01*
X0380619Y0132317D02*
X0409751Y0132317D01*
X0408312Y0132531D02*
X0401772Y0132531D01*
X0401772Y0133500D01*
X0403622Y0135312D02*
X0380619Y0135312D01*
X0380619Y0134314D02*
X0404620Y0134314D01*
X0405619Y0133315D02*
X0380619Y0133315D01*
X0380619Y0136311D02*
X0402623Y0136311D01*
X0403957Y0137098D02*
X0403957Y0139315D01*
X0402119Y0141154D01*
X0405187Y0142302D02*
X0406912Y0142302D01*
X0406912Y0143301D02*
X0405187Y0143301D01*
X0404663Y0144299D02*
X0406007Y0144299D01*
X0405548Y0144641D02*
X0405548Y0137757D01*
X0406510Y0136795D01*
X0407985Y0136795D01*
X0408312Y0136469D01*
X0408638Y0136142D01*
X0410114Y0136142D01*
X0410956Y0135312D02*
X0417281Y0135312D01*
X0417153Y0136311D02*
X0407119Y0136311D01*
X0406504Y0134551D02*
X0403957Y0137098D01*
X0409712Y0140305D02*
X0421190Y0140305D01*
X0421190Y0141303D02*
X0413284Y0141303D01*
X0412295Y0142302D02*
X0421190Y0142302D01*
X0409712Y0142302D01*
X0409712Y0143301D02*
X0421190Y0143301D01*
X0418998Y0143301D01*
X0419619Y0142500D02*
X0414119Y0137000D01*
X0414119Y0136862D01*
X0418486Y0133315D02*
X0441119Y0133315D01*
X0441119Y0132317D02*
X0418486Y0132317D01*
X0419926Y0130563D02*
X0419926Y0116858D01*
X0420284Y0115500D01*
X0410953Y0115500D02*
X0408312Y0119142D01*
X0408312Y0130563D01*
X0411757Y0128752D02*
X0413331Y0128752D01*
X0404619Y0125000D02*
X0378518Y0125000D01*
X0378518Y0123342D01*
X0377874Y0122697D01*
X0371844Y0122697D01*
X0371200Y0123342D01*
X0371200Y0125000D01*
X0360871Y0125000D01*
X0360871Y0123738D01*
X0359499Y0122366D01*
X0359824Y0122366D01*
X0360546Y0123089D01*
X0362691Y0123089D01*
X0364208Y0121572D01*
X0364208Y0119428D01*
X0362691Y0117911D01*
X0360546Y0117911D01*
X0359030Y0119428D01*
X0359030Y0119566D01*
X0358119Y0119566D01*
X0358119Y0108591D01*
X0358689Y0108591D01*
X0359078Y0108980D01*
X0363139Y0108980D01*
X0363784Y0108336D01*
X0363784Y0106959D01*
X0364563Y0106959D01*
X0366551Y0108946D01*
X0364688Y0110809D01*
X0363428Y0110809D01*
X0363139Y0110520D01*
X0359078Y0110520D01*
X0358434Y0111164D01*
X0358434Y0113454D01*
X0359078Y0114098D01*
X0363139Y0114098D01*
X0363428Y0113809D01*
X0365931Y0113809D01*
X0368990Y0110750D01*
X0369869Y0109871D01*
X0369869Y0109003D01*
X0370130Y0109003D01*
X0372621Y0106512D01*
X0372621Y0102988D01*
X0371633Y0102000D01*
X0400619Y0102000D01*
X0404619Y0107000D01*
X0404619Y0125000D01*
X0404619Y0124329D02*
X0378518Y0124329D01*
X0378507Y0123330D02*
X0404619Y0123330D01*
X0404619Y0122332D02*
X0363448Y0122332D01*
X0364208Y0121333D02*
X0404619Y0121333D01*
X0404619Y0120335D02*
X0364208Y0120335D01*
X0364116Y0119336D02*
X0404619Y0119336D01*
X0404619Y0118338D02*
X0363118Y0118338D01*
X0360120Y0118338D02*
X0358119Y0118338D01*
X0358416Y0118230D02*
X0358416Y0109750D01*
X0353629Y0109750D01*
X0358119Y0109351D02*
X0366146Y0109351D01*
X0365957Y0108353D02*
X0363767Y0108353D01*
X0363784Y0107354D02*
X0364959Y0107354D01*
X0368369Y0109250D02*
X0368369Y0104759D01*
X0368369Y0104750D01*
X0372621Y0104359D02*
X0402506Y0104359D01*
X0403304Y0105357D02*
X0372621Y0105357D01*
X0372621Y0106356D02*
X0404103Y0106356D01*
X0404619Y0107354D02*
X0371779Y0107354D01*
X0370780Y0108353D02*
X0404619Y0108353D01*
X0404619Y0109351D02*
X0369869Y0109351D01*
X0369390Y0110350D02*
X0404619Y0110350D01*
X0404619Y0111348D02*
X0368392Y0111348D01*
X0367393Y0112347D02*
X0404619Y0112347D01*
X0404619Y0113345D02*
X0366395Y0113345D01*
X0365310Y0112309D02*
X0368369Y0109250D01*
X0365148Y0110350D02*
X0358119Y0110350D01*
X0358119Y0111348D02*
X0358434Y0111348D01*
X0358434Y0112347D02*
X0358119Y0112347D01*
X0358119Y0113345D02*
X0358434Y0113345D01*
X0358119Y0114344D02*
X0404619Y0114344D01*
X0404619Y0115342D02*
X0358119Y0115342D01*
X0358119Y0116341D02*
X0404619Y0116341D01*
X0404619Y0117339D02*
X0358119Y0117339D01*
X0358119Y0119336D02*
X0359121Y0119336D01*
X0360463Y0123330D02*
X0371211Y0123330D01*
X0371200Y0124329D02*
X0360871Y0124329D01*
X0384619Y0131240D02*
X0384619Y0136500D01*
X0383119Y0136500D01*
X0382619Y0137000D01*
X0378119Y0137000D01*
X0380619Y0137309D02*
X0392619Y0137309D01*
X0390775Y0138308D02*
X0388213Y0138308D01*
X0388634Y0139306D02*
X0390353Y0139306D01*
X0390353Y0143301D02*
X0388634Y0143301D01*
X0390478Y0145298D02*
X0380619Y0145298D01*
X0380619Y0146296D02*
X0390353Y0146296D01*
X0390353Y0147295D02*
X0380619Y0147295D01*
X0380619Y0148293D02*
X0390353Y0148293D01*
X0390353Y0149292D02*
X0380619Y0149292D01*
X0380619Y0150290D02*
X0390373Y0150290D01*
X0393619Y0150290D02*
X0415658Y0150290D01*
X0415481Y0149292D02*
X0416449Y0149292D01*
X0416449Y0148293D02*
X0415481Y0148293D01*
X0415481Y0147295D02*
X0416449Y0147295D01*
X0416450Y0146296D02*
X0421190Y0146296D01*
X0412538Y0146296D01*
X0412538Y0145298D02*
X0421190Y0145298D01*
X0419631Y0145298D01*
X0419621Y0144299D02*
X0421190Y0144299D01*
X0412538Y0144299D01*
X0412932Y0143301D02*
X0411306Y0143301D01*
X0409712Y0141303D02*
X0421190Y0141303D01*
X0424190Y0142302D02*
X0502619Y0142302D01*
X0502619Y0143301D02*
X0424190Y0143301D01*
X0446119Y0143301D01*
X0446119Y0144299D02*
X0424190Y0144299D01*
X0502619Y0144299D01*
X0502619Y0145298D02*
X0479296Y0145298D01*
X0480330Y0145726D02*
X0482018Y0147414D01*
X0482931Y0149619D01*
X0482931Y0152006D01*
X0482018Y0154211D01*
X0480330Y0155899D01*
X0478125Y0156812D01*
X0475738Y0156812D01*
X0473533Y0155899D01*
X0471845Y0154211D01*
X0470931Y0152006D01*
X0470931Y0149619D01*
X0471845Y0147414D01*
X0473533Y0145726D01*
X0475738Y0144813D01*
X0478125Y0144813D01*
X0480330Y0145726D01*
X0480900Y0146296D02*
X0502619Y0146296D01*
X0502619Y0147295D02*
X0481899Y0147295D01*
X0482382Y0148293D02*
X0502619Y0148293D01*
X0502619Y0149292D02*
X0482796Y0149292D01*
X0482931Y0150290D02*
X0502619Y0150290D01*
X0502619Y0151289D02*
X0482931Y0151289D01*
X0482815Y0152287D02*
X0502619Y0152287D01*
X0502619Y0153286D02*
X0482401Y0153286D01*
X0481945Y0154284D02*
X0502619Y0154284D01*
X0502619Y0155283D02*
X0480946Y0155283D01*
X0479407Y0156281D02*
X0502619Y0156281D01*
X0502619Y0157280D02*
X0409619Y0157280D01*
X0409619Y0158278D02*
X0502619Y0158278D01*
X0502619Y0159277D02*
X0409619Y0159277D01*
X0409619Y0160275D02*
X0502619Y0160275D01*
X0502619Y0161274D02*
X0418398Y0161274D01*
X0418278Y0161187D02*
X0418920Y0161653D01*
X0419481Y0162215D01*
X0419948Y0162857D01*
X0420308Y0163564D01*
X0420554Y0164319D01*
X0420661Y0165000D01*
X0416135Y0165000D01*
X0416135Y0166000D01*
X0420661Y0166000D01*
X0420554Y0166681D01*
X0420308Y0167436D01*
X0419948Y0168143D01*
X0419481Y0168785D01*
X0418920Y0169347D01*
X0418278Y0169813D01*
X0417570Y0170174D01*
X0416815Y0170419D01*
X0416134Y0170527D01*
X0416134Y0166000D01*
X0415134Y0166000D01*
X0415134Y0165000D01*
X0410607Y0165000D01*
X0410715Y0164319D01*
X0410961Y0163564D01*
X0411321Y0162857D01*
X0411788Y0162215D01*
X0412349Y0161653D01*
X0412991Y0161187D01*
X0413699Y0160826D01*
X0414453Y0160581D01*
X0415134Y0160473D01*
X0415134Y0165000D01*
X0416134Y0165000D01*
X0416134Y0160473D01*
X0416815Y0160581D01*
X0417570Y0160826D01*
X0418278Y0161187D01*
X0419523Y0162272D02*
X0502619Y0162272D01*
X0502356Y0163271D02*
X0420159Y0163271D01*
X0420537Y0164269D02*
X0501388Y0164269D01*
X0500420Y0165268D02*
X0416135Y0165268D01*
X0415634Y0165500D02*
X0415619Y0165516D01*
X0415619Y0172500D01*
X0415134Y0170527D02*
X0414453Y0170419D01*
X0413699Y0170174D01*
X0412991Y0169813D01*
X0412349Y0169347D01*
X0411788Y0168785D01*
X0411321Y0168143D01*
X0410961Y0167436D01*
X0410715Y0166681D01*
X0410607Y0166000D01*
X0415134Y0166000D01*
X0415134Y0170527D01*
X0415134Y0170260D02*
X0416134Y0170260D01*
X0416134Y0169262D02*
X0415134Y0169262D01*
X0415134Y0168263D02*
X0416134Y0168263D01*
X0416134Y0167265D02*
X0415134Y0167265D01*
X0415134Y0166266D02*
X0416134Y0166266D01*
X0415634Y0165500D02*
X0442595Y0165500D01*
X0442595Y0138540D01*
X0439071Y0135312D02*
X0502619Y0135312D01*
X0474567Y0145298D02*
X0461296Y0145298D01*
X0462330Y0145726D02*
X0464018Y0147414D01*
X0464931Y0149619D01*
X0464931Y0152006D01*
X0464018Y0154211D01*
X0462330Y0155899D01*
X0460125Y0156812D01*
X0457738Y0156812D01*
X0455533Y0155899D01*
X0453845Y0154211D01*
X0452931Y0152006D01*
X0452931Y0149619D01*
X0453845Y0147414D01*
X0455533Y0145726D01*
X0457738Y0144813D01*
X0460125Y0144813D01*
X0462330Y0145726D01*
X0462900Y0146296D02*
X0472962Y0146296D01*
X0471964Y0147295D02*
X0463899Y0147295D01*
X0464382Y0148293D02*
X0471480Y0148293D01*
X0471067Y0149292D02*
X0464796Y0149292D01*
X0464931Y0150290D02*
X0470931Y0150290D01*
X0470931Y0151289D02*
X0464931Y0151289D01*
X0464815Y0152287D02*
X0471048Y0152287D01*
X0471461Y0153286D02*
X0464401Y0153286D01*
X0463945Y0154284D02*
X0471918Y0154284D01*
X0472916Y0155283D02*
X0462946Y0155283D01*
X0461407Y0156281D02*
X0474455Y0156281D01*
X0456455Y0156281D02*
X0409619Y0156281D01*
X0409619Y0155283D02*
X0454916Y0155283D01*
X0453918Y0154284D02*
X0409630Y0154284D01*
X0409829Y0150290D02*
X0419865Y0150290D01*
X0419387Y0149292D02*
X0420864Y0149292D01*
X0412170Y0149292D01*
X0412543Y0149292D01*
X0412538Y0148293D02*
X0421190Y0148293D01*
X0419631Y0148293D01*
X0419631Y0147295D02*
X0421190Y0147295D01*
X0412538Y0147295D01*
X0409272Y0146500D02*
X0408312Y0145539D01*
X0406007Y0145298D02*
X0393619Y0145298D01*
X0393619Y0146296D02*
X0406007Y0146296D01*
X0406007Y0147295D02*
X0393619Y0147295D01*
X0393619Y0147846D02*
X0397296Y0148024D01*
X0393619Y0148293D02*
X0406007Y0148293D01*
X0406374Y0149292D02*
X0393619Y0149292D01*
X0385369Y0147846D02*
X0385369Y0146830D01*
X0382113Y0143574D01*
X0382113Y0138733D01*
X0382619Y0138227D01*
X0382619Y0137000D01*
X0382525Y0138308D02*
X0380619Y0138308D01*
X0380619Y0139306D02*
X0382103Y0139306D01*
X0382103Y0140305D02*
X0380619Y0140305D01*
X0380619Y0141303D02*
X0382103Y0141303D01*
X0382103Y0142302D02*
X0380619Y0142302D01*
X0380619Y0143301D02*
X0382103Y0143301D01*
X0380619Y0144299D02*
X0392119Y0144299D01*
X0393619Y0144299D02*
X0399575Y0144299D01*
X0399050Y0143301D02*
X0396884Y0143301D01*
X0402146Y0148043D02*
X0405548Y0144641D01*
X0415481Y0144299D02*
X0416449Y0144299D01*
X0416449Y0143301D02*
X0415481Y0143301D01*
X0415481Y0145298D02*
X0416449Y0145298D01*
X0424190Y0145298D02*
X0456567Y0145298D01*
X0454962Y0146296D02*
X0424190Y0146296D01*
X0446119Y0146296D01*
X0446119Y0145298D02*
X0424190Y0145298D01*
X0424190Y0147295D02*
X0453964Y0147295D01*
X0453480Y0148293D02*
X0424190Y0148293D01*
X0446119Y0148293D01*
X0446119Y0147295D02*
X0424190Y0147295D01*
X0424190Y0149292D02*
X0453067Y0149292D01*
X0452931Y0150290D02*
X0424108Y0150290D01*
X0424190Y0149292D02*
X0446119Y0149292D01*
X0452931Y0151289D02*
X0423110Y0151289D01*
X0422111Y0152287D02*
X0453048Y0152287D01*
X0453461Y0153286D02*
X0421113Y0153286D01*
X0416134Y0161274D02*
X0415134Y0161274D01*
X0415134Y0162272D02*
X0416134Y0162272D01*
X0416134Y0163271D02*
X0415134Y0163271D01*
X0415134Y0164269D02*
X0416134Y0164269D01*
X0415134Y0165268D02*
X0409619Y0165268D01*
X0409619Y0166266D02*
X0410650Y0166266D01*
X0410905Y0167265D02*
X0409619Y0167265D01*
X0409619Y0168263D02*
X0411408Y0168263D01*
X0412264Y0169262D02*
X0409619Y0169262D01*
X0409619Y0170260D02*
X0413965Y0170260D01*
X0417304Y0170260D02*
X0445904Y0170260D01*
X0445904Y0169262D02*
X0419005Y0169262D01*
X0419861Y0168263D02*
X0445922Y0168263D01*
X0445904Y0168332D02*
X0446006Y0167950D01*
X0446203Y0167608D01*
X0446483Y0167329D01*
X0446825Y0167131D01*
X0447206Y0167029D01*
X0452416Y0167029D01*
X0452416Y0172753D01*
X0453415Y0172753D01*
X0453415Y0167029D01*
X0458625Y0167029D01*
X0459006Y0167131D01*
X0459348Y0167329D01*
X0459628Y0167608D01*
X0459825Y0167950D01*
X0459927Y0168332D01*
X0459927Y0172753D01*
X0453416Y0172753D01*
X0453416Y0173753D01*
X0459927Y0173753D01*
X0459927Y0178175D01*
X0459825Y0178557D01*
X0459628Y0178899D01*
X0459348Y0179178D01*
X0459006Y0179376D01*
X0458625Y0179478D01*
X0453415Y0179478D01*
X0453415Y0173753D01*
X0452416Y0173753D01*
X0452415Y0173753D02*
X0452415Y0172753D01*
X0445904Y0172753D01*
X0445904Y0168332D01*
X0446593Y0167265D02*
X0420364Y0167265D01*
X0420619Y0166266D02*
X0499451Y0166266D01*
X0498483Y0167265D02*
X0483253Y0167265D01*
X0483364Y0167329D02*
X0483643Y0167608D01*
X0483841Y0167950D01*
X0483943Y0168332D01*
X0483943Y0172753D01*
X0477431Y0172753D01*
X0477431Y0167029D01*
X0482641Y0167029D01*
X0483022Y0167131D01*
X0483364Y0167329D01*
X0483925Y0168263D02*
X0490947Y0168263D01*
X0489948Y0169262D02*
X0483943Y0169262D01*
X0483943Y0170260D02*
X0488950Y0170260D01*
X0487951Y0171259D02*
X0483943Y0171259D01*
X0483943Y0172257D02*
X0486953Y0172257D01*
X0485954Y0173256D02*
X0477431Y0173256D01*
X0477431Y0173753D02*
X0483943Y0173753D01*
X0483943Y0178175D01*
X0483841Y0178557D01*
X0483643Y0178899D01*
X0483364Y0179178D01*
X0483022Y0179376D01*
X0482641Y0179478D01*
X0477431Y0179478D01*
X0477431Y0173753D01*
X0477431Y0172753D01*
X0476431Y0172753D01*
X0476431Y0167029D01*
X0471222Y0167029D01*
X0470840Y0167131D01*
X0470498Y0167329D01*
X0470219Y0167608D01*
X0470022Y0167950D01*
X0469919Y0168332D01*
X0469919Y0172753D01*
X0476431Y0172753D01*
X0476431Y0173753D01*
X0469919Y0173753D01*
X0469919Y0178175D01*
X0470022Y0178557D01*
X0470219Y0178899D01*
X0470498Y0179178D01*
X0470840Y0179376D01*
X0471222Y0179478D01*
X0476431Y0179478D01*
X0476431Y0173753D01*
X0477431Y0173753D01*
X0477431Y0174254D02*
X0476431Y0174254D01*
X0476431Y0173256D02*
X0453416Y0173256D01*
X0453415Y0174254D02*
X0452416Y0174254D01*
X0452416Y0173753D02*
X0452416Y0179478D01*
X0447206Y0179478D01*
X0446825Y0179376D01*
X0446483Y0179178D01*
X0446203Y0178899D01*
X0446006Y0178557D01*
X0445904Y0178175D01*
X0445904Y0173753D01*
X0452415Y0173753D01*
X0452415Y0173256D02*
X0408863Y0173256D01*
X0409619Y0172257D02*
X0445904Y0172257D01*
X0445904Y0171259D02*
X0409619Y0171259D01*
X0407864Y0174254D02*
X0445904Y0174254D01*
X0445904Y0175253D02*
X0406866Y0175253D01*
X0405867Y0176251D02*
X0445904Y0176251D01*
X0445904Y0177250D02*
X0404869Y0177250D01*
X0403870Y0178248D02*
X0445923Y0178248D01*
X0446602Y0179247D02*
X0402872Y0179247D01*
X0409619Y0164269D02*
X0410732Y0164269D01*
X0411110Y0163271D02*
X0409619Y0163271D01*
X0409619Y0162272D02*
X0411746Y0162272D01*
X0412871Y0161274D02*
X0409619Y0161274D01*
X0452416Y0167265D02*
X0453415Y0167265D01*
X0453415Y0168263D02*
X0452416Y0168263D01*
X0452416Y0169262D02*
X0453415Y0169262D01*
X0453415Y0170260D02*
X0452416Y0170260D01*
X0452416Y0171259D02*
X0453415Y0171259D01*
X0453415Y0172257D02*
X0452416Y0172257D01*
X0452416Y0175253D02*
X0453415Y0175253D01*
X0453415Y0176251D02*
X0452416Y0176251D01*
X0452416Y0177250D02*
X0453415Y0177250D01*
X0453415Y0178248D02*
X0452416Y0178248D01*
X0452416Y0179247D02*
X0453415Y0179247D01*
X0459229Y0179247D02*
X0470618Y0179247D01*
X0469939Y0178248D02*
X0459908Y0178248D01*
X0459927Y0177250D02*
X0469919Y0177250D01*
X0469919Y0176251D02*
X0459927Y0176251D01*
X0459927Y0175253D02*
X0469919Y0175253D01*
X0469919Y0174254D02*
X0459927Y0174254D01*
X0459927Y0172257D02*
X0469919Y0172257D01*
X0469919Y0171259D02*
X0459927Y0171259D01*
X0459927Y0170260D02*
X0469919Y0170260D01*
X0469919Y0169262D02*
X0459927Y0169262D01*
X0459909Y0168263D02*
X0469938Y0168263D01*
X0470609Y0167265D02*
X0459238Y0167265D01*
X0476431Y0167265D02*
X0477431Y0167265D01*
X0477431Y0168263D02*
X0476431Y0168263D01*
X0476431Y0169262D02*
X0477431Y0169262D01*
X0477431Y0170260D02*
X0476431Y0170260D01*
X0476431Y0171259D02*
X0477431Y0171259D01*
X0477431Y0172257D02*
X0476431Y0172257D01*
X0483943Y0174254D02*
X0485228Y0174254D01*
X0485228Y0175253D02*
X0483943Y0175253D01*
X0483943Y0176251D02*
X0485228Y0176251D01*
X0485228Y0177250D02*
X0483943Y0177250D01*
X0483923Y0178248D02*
X0485228Y0178248D01*
X0485228Y0179247D02*
X0483245Y0179247D01*
X0477431Y0179247D02*
X0476431Y0179247D01*
X0476431Y0178248D02*
X0477431Y0178248D01*
X0477431Y0177250D02*
X0476431Y0177250D01*
X0476431Y0176251D02*
X0477431Y0176251D01*
X0477431Y0175253D02*
X0476431Y0175253D01*
X0446119Y0142302D02*
X0424190Y0142302D01*
X0406912Y0141303D02*
X0406815Y0141303D01*
X0406504Y0134551D02*
X0408260Y0134551D01*
X0408312Y0134500D01*
X0424847Y0132532D02*
X0424946Y0132520D01*
X0425044Y0132504D01*
X0425142Y0132485D01*
X0425238Y0132461D01*
X0425334Y0132434D01*
X0425429Y0132404D01*
X0425522Y0132369D01*
X0425614Y0132331D01*
X0425704Y0132289D01*
X0425793Y0132244D01*
X0425880Y0132195D01*
X0425965Y0132143D01*
X0426047Y0132088D01*
X0426128Y0132029D01*
X0426206Y0131968D01*
X0426281Y0131903D01*
X0426354Y0131836D01*
X0426425Y0131765D01*
X0426492Y0131692D01*
X0426557Y0131616D01*
X0426618Y0131538D01*
X0426677Y0131458D01*
X0426732Y0131375D01*
X0426784Y0131290D01*
X0426833Y0131203D01*
X0426878Y0131114D01*
X0426919Y0131024D01*
X0426957Y0130932D01*
X0426992Y0130839D01*
X0427022Y0130744D01*
X0427049Y0130648D01*
X0427072Y0130551D01*
X0427092Y0130454D01*
X0427107Y0130356D01*
X0427119Y0130257D01*
X0427127Y0130158D01*
X0427131Y0130058D01*
X0427130Y0129959D01*
X0427127Y0129859D01*
X0427119Y0129760D01*
X0475630Y0113345D02*
X0476599Y0113345D01*
X0476599Y0112347D02*
X0475630Y0112347D01*
X0475630Y0111348D02*
X0476599Y0111348D01*
X0476599Y0110350D02*
X0502619Y0110350D01*
X0502619Y0111348D02*
X0486669Y0111348D01*
X0486669Y0112347D02*
X0502619Y0112347D01*
X0502619Y0113345D02*
X0486503Y0113345D01*
X0486669Y0110203D02*
X0486669Y0108521D01*
X0486567Y0108140D01*
X0486370Y0107797D01*
X0486090Y0107518D01*
X0485748Y0107321D01*
X0485367Y0107219D01*
X0476599Y0107219D01*
X0476599Y0110203D01*
X0486669Y0110203D01*
X0486669Y0109351D02*
X0502619Y0109351D01*
X0502619Y0108353D02*
X0486624Y0108353D01*
X0485806Y0107354D02*
X0502619Y0107354D01*
X0502619Y0106356D02*
X0447889Y0106356D01*
X0443934Y0110350D02*
X0475630Y0110350D01*
X0475630Y0109351D02*
X0476599Y0109351D01*
X0476599Y0108353D02*
X0475630Y0108353D01*
X0475630Y0107354D02*
X0476599Y0107354D01*
X0486149Y0105357D02*
X0502619Y0105357D01*
X0502619Y0104359D02*
X0486269Y0104359D01*
X0486269Y0103360D02*
X0502619Y0103360D01*
X0502619Y0102362D02*
X0486269Y0102362D01*
X0486269Y0101363D02*
X0502619Y0101363D01*
X0502619Y0100365D02*
X0486245Y0100365D01*
X0489193Y0097369D02*
X0456788Y0097369D01*
X0457776Y0096370D02*
X0488794Y0096370D01*
X0488794Y0095372D02*
X0458765Y0095372D01*
X0459754Y0094373D02*
X0488794Y0094373D01*
X0502619Y0098368D02*
X0455799Y0098368D01*
X0454810Y0099366D02*
X0502619Y0099366D01*
X0419279Y0076748D02*
X0417046Y0075810D01*
X0411573Y0080783D01*
X0411573Y0085390D01*
X0409463Y0087500D01*
X0384099Y0096484D02*
X0380871Y0093257D01*
X0380871Y0077442D01*
X0354716Y0051287D01*
X0346553Y0051287D01*
X0345791Y0052048D01*
X0345791Y0060981D01*
X0338119Y0069654D01*
X0332084Y0073839D02*
X0332084Y0076871D01*
X0337594Y0076871D01*
X0338119Y0076346D01*
X0332084Y0076871D02*
X0332084Y0078853D01*
X0331323Y0079615D01*
X0322234Y0079615D01*
X0319974Y0077355D01*
X0302900Y0077355D01*
X0300955Y0079300D01*
X0290381Y0079300D01*
X0288419Y0081263D01*
X0288419Y0105315D01*
X0285734Y0107999D01*
X0283369Y0107999D01*
X0282784Y0108584D01*
X0269193Y0108584D01*
X0265589Y0112188D01*
X0265589Y0116125D01*
X0265124Y0116125D01*
X0265119Y0116120D01*
X0265124Y0116125D02*
X0263244Y0116125D01*
X0262119Y0115000D01*
X0262119Y0111222D02*
X0263108Y0110233D01*
X0263274Y0110233D01*
X0264007Y0109500D01*
X0265119Y0109500D01*
X0267834Y0106784D01*
X0269939Y0106784D01*
X0269939Y0106784D01*
X0282334Y0106784D01*
X0283619Y0105500D01*
X0283872Y0105500D01*
X0283872Y0105128D01*
X0286619Y0102382D01*
X0286619Y0079000D01*
X0288119Y0077500D01*
X0300209Y0077500D01*
X0302154Y0075555D01*
X0321619Y0075555D01*
X0328327Y0075555D01*
X0328619Y0076346D01*
X0321619Y0075555D02*
X0321619Y0059500D01*
X0321619Y0052000D01*
X0332119Y0052000D01*
X0333119Y0051000D01*
X0333119Y0024000D01*
X0326855Y0024000D01*
X0333119Y0024000D02*
X0333119Y0019500D01*
X0334119Y0018500D01*
X0346119Y0018500D01*
X0352244Y0012375D01*
X0373494Y0012375D01*
X0381619Y0020500D01*
X0376619Y0018288D02*
X0373831Y0015500D01*
X0358048Y0015500D01*
X0349703Y0023845D01*
X0349703Y0024000D01*
X0340634Y0024000D01*
X0349703Y0024000D02*
X0349703Y0043278D01*
X0330999Y0061981D01*
X0330161Y0061981D01*
X0327642Y0064500D01*
X0325153Y0066989D01*
X0325153Y0072161D01*
X0326071Y0073078D01*
X0331323Y0073078D01*
X0332084Y0073839D01*
X0328619Y0069654D02*
X0334653Y0063119D01*
X0334653Y0060640D01*
X0345807Y0049487D01*
X0355462Y0049487D01*
X0379475Y0073000D01*
X0389119Y0073000D01*
X0394099Y0077980D01*
X0402603Y0077980D01*
X0409306Y0070813D02*
X0411245Y0068874D01*
X0419279Y0068874D01*
X0415230Y0061000D02*
X0411174Y0065056D01*
X0415230Y0061000D02*
X0419279Y0061000D01*
X0327642Y0059500D02*
X0321619Y0059500D01*
X0309619Y0055500D02*
X0308619Y0054500D01*
X0305595Y0054500D01*
X0309619Y0055500D02*
X0309619Y0065500D01*
X0309048Y0066071D01*
X0309048Y0066133D01*
X0308181Y0067000D01*
X0259619Y0067000D01*
X0255494Y0073750D02*
X0255331Y0074412D01*
X0255331Y0080595D01*
X0251024Y0084902D01*
X0251024Y0105909D01*
X0249056Y0105909D02*
X0249056Y0080009D01*
X0252247Y0076817D01*
X0259119Y0077000D02*
X0259534Y0077416D01*
X0270896Y0077416D01*
X0275975Y0082494D01*
X0275975Y0095789D01*
X0278764Y0096495D02*
X0278764Y0082738D01*
X0271642Y0075616D01*
X0265741Y0075616D01*
X0264752Y0074627D01*
X0269619Y0080500D02*
X0269176Y0080942D01*
X0259980Y0080942D01*
X0258592Y0082331D01*
X0258592Y0087600D01*
X0262119Y0091127D01*
X0262119Y0102285D01*
X0264545Y0099851D02*
X0267878Y0103184D01*
X0279280Y0103184D01*
X0281041Y0101424D01*
X0281041Y0100071D01*
X0283761Y0097351D01*
X0283761Y0095937D01*
X0279688Y0097419D02*
X0278764Y0096495D01*
X0272267Y0094664D02*
X0272267Y0099970D01*
X0268489Y0099851D02*
X0268489Y0095248D01*
X0261144Y0087903D01*
X0261144Y0083494D01*
X0260962Y0083313D01*
X0264228Y0086625D02*
X0272267Y0094664D01*
X0290619Y0090000D02*
X0290619Y0082500D01*
X0292019Y0081100D01*
X0303519Y0081100D01*
X0304122Y0080497D01*
X0304122Y0082850D01*
X0308272Y0087000D01*
X0314965Y0087000D02*
X0324092Y0087000D01*
X0330597Y0093505D01*
X0330597Y0100748D01*
X0332192Y0102343D01*
X0333462Y0102343D01*
X0336306Y0105187D01*
X0334144Y0107437D01*
X0323128Y0107437D01*
X0321401Y0105710D01*
X0306828Y0105710D01*
X0305369Y0104250D01*
X0301619Y0104250D01*
X0307869Y0103625D02*
X0301931Y0097687D01*
X0294522Y0097687D01*
X0283830Y0101226D02*
X0282640Y0102416D01*
X0282594Y0102416D01*
X0280026Y0104984D01*
X0263603Y0104984D01*
X0263274Y0104655D01*
X0260963Y0104655D01*
X0259709Y0105909D01*
X0254961Y0105909D01*
X0261130Y0108433D02*
X0262119Y0107444D01*
X0261130Y0108433D02*
X0260963Y0108433D01*
X0260239Y0109157D01*
X0258209Y0109157D01*
X0245119Y0105909D02*
X0245119Y0116974D01*
X0245061Y0117031D01*
X0232028Y0117031D01*
X0230087Y0117031D01*
X0228465Y0118654D01*
X0222119Y0118654D01*
X0228119Y0121500D02*
X0230619Y0119000D01*
X0232028Y0119000D01*
X0232028Y0115063D02*
X0231965Y0115000D01*
X0227119Y0115000D01*
X0220619Y0112500D02*
X0220619Y0106654D01*
X0220772Y0106500D01*
X0227465Y0106500D02*
X0228056Y0105909D01*
X0235276Y0105909D01*
X0241182Y0105909D02*
X0241250Y0105841D01*
X0241250Y0102218D01*
X0242363Y0101105D01*
X0242866Y0101105D01*
X0244119Y0099851D01*
X0241119Y0093816D02*
X0237827Y0097108D01*
X0231619Y0097108D01*
X0241119Y0093816D02*
X0241119Y0080024D01*
X0240619Y0079524D01*
X0222225Y0073377D02*
X0222225Y0069366D01*
X0225436Y0066155D01*
X0219436Y0072222D02*
X0217741Y0072222D01*
X0213678Y0076285D01*
X0209833Y0076285D01*
X0200436Y0085683D01*
X0200119Y0095000D02*
X0214062Y0081057D01*
X0215654Y0081057D01*
X0216711Y0080000D01*
X0219119Y0080000D01*
X0200119Y0095000D02*
X0191220Y0095000D01*
X0213119Y0110500D02*
X0213119Y0117500D01*
X0209969Y0120650D01*
X0209024Y0120650D01*
X0205730Y0117184D02*
X0204968Y0117946D01*
X0204968Y0123353D01*
X0207619Y0126004D01*
X0207619Y0126154D01*
X0199119Y0126154D02*
X0199119Y0122555D01*
X0197213Y0120650D01*
X0205730Y0117184D02*
X0206190Y0117184D01*
X0209024Y0114350D01*
X0184465Y0126000D02*
X0181619Y0128846D01*
X0245119Y0119000D02*
X0245119Y0116974D01*
X0249056Y0132091D02*
X0249134Y0132169D01*
X0249134Y0134988D01*
X0252746Y0138600D01*
X0262619Y0138600D01*
X0265463Y0141444D01*
X0265463Y0148344D01*
X0257582Y0156225D01*
X0238207Y0156225D01*
X0232902Y0161530D01*
X0230758Y0161530D01*
X0266619Y0165500D02*
X0270994Y0165500D01*
X0290369Y0146125D01*
X0268345Y0140552D02*
X0265181Y0137389D01*
X0263972Y0137389D01*
X0263383Y0136800D01*
X0253491Y0136800D01*
X0251102Y0134411D01*
X0251102Y0132169D01*
X0251024Y0132091D01*
X0252993Y0132091D02*
X0253071Y0132169D01*
X0298469Y0112724D02*
X0298469Y0109850D01*
X0296334Y0107715D01*
X0291390Y0107715D01*
X0290629Y0106954D01*
X0290629Y0090010D01*
X0290619Y0090000D01*
X0307869Y0103625D02*
X0328994Y0103625D01*
X0361109Y0112309D02*
X0365310Y0112309D01*
X0372621Y0103360D02*
X0401707Y0103360D01*
X0400908Y0102362D02*
X0371995Y0102362D01*
X0340879Y0135809D02*
X0340879Y0137260D01*
X0343119Y0139500D01*
X0148364Y0097246D02*
X0148364Y0086246D01*
X0146999Y0084880D01*
X0148364Y0086246D02*
X0149994Y0086246D01*
X0117869Y0096625D02*
X0117744Y0096500D01*
X0045404Y0080559D02*
X0038904Y0080559D01*
X0051631Y0034169D02*
X0051631Y0022548D01*
X0065119Y0022481D02*
X0066575Y0022481D01*
X0066575Y0023479D02*
X0065119Y0023479D01*
X0065119Y0021482D02*
X0066575Y0021482D01*
X0066575Y0020484D02*
X0065119Y0020484D01*
X0076312Y0019485D02*
X0084165Y0019485D01*
X0082348Y0020484D02*
X0076662Y0020484D01*
X0076662Y0021482D02*
X0081415Y0021482D01*
X0081002Y0022481D02*
X0076662Y0022481D01*
X0076662Y0023479D02*
X0080755Y0023479D01*
X0072119Y0025476D02*
X0071119Y0025476D01*
X0071119Y0026475D02*
X0072119Y0026475D01*
X0072119Y0027473D02*
X0071119Y0027473D01*
X0071119Y0028472D02*
X0072119Y0028472D01*
X0066883Y0028472D02*
X0065119Y0028472D01*
X0065119Y0027473D02*
X0066575Y0027473D01*
X0066575Y0026475D02*
X0065119Y0026475D01*
X0065119Y0025476D02*
X0066575Y0025476D01*
X0308119Y0019000D02*
X0313075Y0023957D01*
X0313075Y0024000D01*
X0376619Y0023000D02*
X0376619Y0018288D01*
X0384119Y0025500D02*
X0389119Y0020500D01*
X0379119Y0025500D02*
X0376619Y0023000D01*
X0379119Y0025500D02*
X0384119Y0025500D01*
X0067772Y0135000D02*
X0064119Y0131346D01*
X0060119Y0131346D01*
X0059119Y0143654D02*
X0061272Y0143654D01*
X0062587Y0144969D01*
X0062587Y0147000D01*
X0069448Y0147000D01*
X0071406Y0145042D01*
X0071115Y0149188D02*
X0070542Y0149760D01*
X0067182Y0149760D01*
X0067182Y0149120D01*
X0062587Y0147000D02*
X0062587Y0153500D01*
X0075449Y0153500D01*
X0067182Y0157240D02*
X0065449Y0158972D01*
X0065449Y0161500D01*
X0067522Y0161500D01*
X0070772Y0164750D01*
X0065682Y0161268D02*
X0065449Y0161500D01*
X0062587Y0159835D02*
X0062587Y0153500D01*
X0059119Y0155823D02*
X0059119Y0150346D01*
X0059119Y0155823D02*
X0057182Y0157760D01*
X0062587Y0159835D02*
X0057182Y0165240D01*
X0054321Y0162812D02*
X0053682Y0162173D01*
X0049579Y0162173D01*
X0046422Y0165331D01*
X0040607Y0165331D01*
X0054321Y0162812D02*
X0054321Y0173048D01*
X0057272Y0176000D01*
X0059215Y0143750D02*
X0059119Y0143654D01*
D11*
X0050619Y0143654D03*
X0050619Y0150346D03*
X0118119Y0130346D03*
X0109369Y0126721D03*
X0118119Y0123654D03*
X0109369Y0120029D03*
X0118119Y0118346D03*
X0109369Y0114471D03*
X0118119Y0111654D03*
X0109369Y0107779D03*
X0087869Y0107779D03*
X0087869Y0114471D03*
X0087869Y0119654D03*
X0087869Y0126346D03*
X0150119Y0134404D03*
X0158119Y0134404D03*
X0158119Y0141096D03*
X0150119Y0141096D03*
X0148772Y0147500D03*
X0155465Y0147500D03*
X0199119Y0132846D03*
X0207619Y0132846D03*
X0207619Y0126154D03*
X0199119Y0126154D03*
X0184465Y0126000D03*
X0177772Y0126000D03*
X0247272Y0146500D03*
X0253965Y0146500D03*
X0327119Y0123346D03*
X0335119Y0123346D03*
X0343119Y0123346D03*
X0343119Y0116654D03*
X0335119Y0116654D03*
X0327119Y0116654D03*
X0385369Y0141154D03*
X0393619Y0141154D03*
X0393619Y0147846D03*
X0385369Y0147846D03*
X0409272Y0146500D03*
X0415965Y0146500D03*
X0338119Y0076346D03*
X0328619Y0076346D03*
X0328619Y0069654D03*
X0338119Y0069654D03*
X0447022Y0017375D03*
X0453715Y0017375D03*
X0166119Y0051154D03*
X0150965Y0052500D03*
X0144272Y0052500D03*
X0138965Y0060500D03*
X0132272Y0060500D03*
X0126965Y0060500D03*
X0120272Y0060500D03*
X0166119Y0057846D03*
X0138965Y0076500D03*
X0132272Y0076500D03*
X0126965Y0076500D03*
X0120272Y0076500D03*
X0057119Y0029346D03*
X0057119Y0022654D03*
D12*
X0384619Y0123760D03*
X0392619Y0123760D03*
X0400619Y0123760D03*
X0400619Y0131240D03*
X0392619Y0131240D03*
X0384619Y0131240D03*
X0360619Y0138510D03*
X0360619Y0145990D03*
X0427119Y0137240D03*
X0434619Y0137240D03*
X0434619Y0129760D03*
X0427119Y0129760D03*
X0042119Y0145260D03*
X0042119Y0152740D03*
D13*
X0367379Y0126750D03*
X0374859Y0126750D03*
D14*
X0332131Y0146750D03*
X0321107Y0146750D03*
X0324857Y0097500D03*
X0335881Y0097500D03*
D15*
X0109619Y0150500D03*
X0099619Y0150500D03*
X0089619Y0150500D03*
X0089619Y0160500D03*
X0099619Y0160500D03*
X0109619Y0160500D03*
D16*
X0114119Y0175500D03*
X0124119Y0175500D03*
X0104119Y0175500D03*
X0094119Y0175500D03*
X0084119Y0175500D03*
X0074119Y0175500D03*
X0361619Y0020500D03*
X0371619Y0020500D03*
X0381619Y0020500D03*
X0391619Y0020500D03*
D17*
X0216619Y0024000D03*
X0071619Y0024000D03*
X0266619Y0165500D03*
X0291619Y0165500D03*
D18*
X0305398Y0165500D03*
X0319178Y0165500D03*
X0332957Y0165500D03*
X0346737Y0165500D03*
X0360516Y0165500D03*
X0374296Y0165500D03*
X0388075Y0165500D03*
X0401855Y0165500D03*
X0415634Y0165500D03*
X0252839Y0165500D03*
X0239060Y0165500D03*
X0225280Y0165500D03*
X0211501Y0165500D03*
X0197721Y0165500D03*
X0183942Y0165500D03*
X0170162Y0165500D03*
X0156383Y0165500D03*
X0142603Y0165500D03*
X0022619Y0147780D03*
X0022619Y0120220D03*
X0085398Y0024000D03*
X0099178Y0024000D03*
X0112957Y0024000D03*
X0126737Y0024000D03*
X0140516Y0024000D03*
X0154296Y0024000D03*
X0168075Y0024000D03*
X0181855Y0024000D03*
X0195634Y0024000D03*
X0230398Y0024000D03*
X0244178Y0024000D03*
X0257957Y0024000D03*
X0271737Y0024000D03*
X0285516Y0024000D03*
X0299296Y0024000D03*
X0313075Y0024000D03*
X0326855Y0024000D03*
X0340634Y0024000D03*
D19*
X0476114Y0102813D03*
X0476114Y0110687D03*
D20*
X0496587Y0120136D03*
X0496587Y0093364D03*
D21*
X0349056Y0103760D03*
X0340788Y0107500D03*
X0349056Y0111240D03*
X0346806Y0140510D03*
X0338538Y0144250D03*
X0346806Y0147990D03*
X0102824Y0123625D03*
X0094557Y0119885D03*
X0094432Y0114865D03*
X0102699Y0111125D03*
X0094432Y0107385D03*
X0094557Y0127365D03*
X0067182Y0149760D03*
X0075449Y0153500D03*
X0067182Y0157240D03*
X0057182Y0157760D03*
X0065449Y0161500D03*
X0057182Y0165240D03*
D22*
X0072879Y0114437D03*
X0080359Y0114437D03*
X0076619Y0106169D03*
D23*
X0305595Y0064500D03*
X0305595Y0059500D03*
X0305595Y0054500D03*
X0305595Y0049500D03*
X0327642Y0049500D03*
X0327642Y0054500D03*
X0327642Y0059500D03*
X0327642Y0064500D03*
D24*
X0029062Y0101425D03*
X0025518Y0049457D03*
D25*
X0080636Y0071504D03*
X0080636Y0095126D03*
D26*
X0040479Y0093551D03*
X0040479Y0097882D03*
X0038904Y0089220D03*
X0040479Y0084890D03*
X0038904Y0080559D03*
X0040479Y0076228D03*
X0042054Y0071898D03*
X0040479Y0067567D03*
D27*
X0367416Y0132510D03*
X0369384Y0132510D03*
X0371353Y0132510D03*
X0373321Y0132510D03*
X0373321Y0139990D03*
X0371353Y0139990D03*
X0369384Y0139990D03*
X0367416Y0139990D03*
D28*
X0370369Y0136250D03*
D29*
X0152446Y0129949D03*
X0150477Y0129949D03*
X0148509Y0129949D03*
X0146540Y0129949D03*
X0144571Y0129949D03*
X0142603Y0129949D03*
X0140634Y0129949D03*
X0138666Y0129949D03*
X0136697Y0129949D03*
X0134729Y0129949D03*
X0132760Y0129949D03*
X0130792Y0129949D03*
X0130792Y0111051D03*
X0132760Y0111051D03*
X0134729Y0111051D03*
X0136697Y0111051D03*
X0138666Y0111051D03*
X0140634Y0111051D03*
X0142603Y0111051D03*
X0144571Y0111051D03*
X0146540Y0111051D03*
X0148509Y0111051D03*
X0150477Y0111051D03*
X0152446Y0111051D03*
D30*
X0155005Y0114594D03*
X0155005Y0116563D03*
X0155005Y0118531D03*
X0155005Y0120500D03*
X0155005Y0122469D03*
X0155005Y0124437D03*
X0155005Y0126406D03*
X0128233Y0126406D03*
X0128233Y0124437D03*
X0128233Y0122469D03*
X0128233Y0120500D03*
X0128233Y0118531D03*
X0128233Y0116563D03*
X0128233Y0114594D03*
D31*
X0141619Y0120500D03*
D32*
X0128774Y0111986D03*
D33*
X0419279Y0084622D03*
X0419279Y0076748D03*
X0419279Y0068874D03*
X0419279Y0061000D03*
X0419279Y0053125D03*
X0419279Y0045251D03*
X0419279Y0037377D03*
X0419279Y0029503D03*
X0478334Y0029503D03*
X0478334Y0037377D03*
X0478334Y0045251D03*
X0478334Y0053125D03*
X0478334Y0061000D03*
X0478334Y0068874D03*
X0478334Y0076748D03*
X0478334Y0084622D03*
D34*
X0306343Y0112724D03*
X0304768Y0112724D03*
X0303194Y0112724D03*
X0301619Y0112724D03*
X0300044Y0112724D03*
X0298469Y0112724D03*
X0296894Y0112724D03*
X0296894Y0128276D03*
X0298469Y0128276D03*
X0300044Y0128276D03*
X0301619Y0128276D03*
X0303194Y0128276D03*
X0304768Y0128276D03*
X0306343Y0128276D03*
D35*
X0309394Y0125224D03*
X0309394Y0123650D03*
X0309394Y0122075D03*
X0309394Y0120500D03*
X0309394Y0118925D03*
X0309394Y0117350D03*
X0309394Y0115776D03*
X0293843Y0115776D03*
X0293843Y0117350D03*
X0293843Y0118925D03*
X0293843Y0120500D03*
X0293843Y0122075D03*
X0293843Y0123650D03*
X0293843Y0125224D03*
D36*
X0301619Y0120500D03*
D37*
X0494869Y0040500D03*
X0494869Y0020500D03*
D38*
X0494869Y0030500D03*
D39*
X0476931Y0128372D03*
X0452915Y0128372D03*
X0452915Y0173253D03*
X0476931Y0173253D03*
D40*
X0472931Y0150813D02*
X0472933Y0150939D01*
X0472939Y0151065D01*
X0472949Y0151191D01*
X0472963Y0151317D01*
X0472981Y0151442D01*
X0473003Y0151566D01*
X0473028Y0151690D01*
X0473058Y0151813D01*
X0473091Y0151934D01*
X0473129Y0152055D01*
X0473170Y0152174D01*
X0473215Y0152293D01*
X0473263Y0152409D01*
X0473315Y0152524D01*
X0473371Y0152637D01*
X0473431Y0152749D01*
X0473494Y0152858D01*
X0473560Y0152966D01*
X0473629Y0153071D01*
X0473702Y0153174D01*
X0473779Y0153275D01*
X0473858Y0153373D01*
X0473940Y0153469D01*
X0474026Y0153562D01*
X0474114Y0153653D01*
X0474205Y0153740D01*
X0474299Y0153825D01*
X0474395Y0153906D01*
X0474494Y0153985D01*
X0474595Y0154060D01*
X0474699Y0154132D01*
X0474805Y0154201D01*
X0474913Y0154267D01*
X0475023Y0154329D01*
X0475135Y0154387D01*
X0475248Y0154442D01*
X0475364Y0154493D01*
X0475481Y0154541D01*
X0475599Y0154585D01*
X0475719Y0154625D01*
X0475840Y0154661D01*
X0475962Y0154694D01*
X0476085Y0154723D01*
X0476209Y0154747D01*
X0476333Y0154768D01*
X0476458Y0154785D01*
X0476584Y0154798D01*
X0476710Y0154807D01*
X0476836Y0154812D01*
X0476963Y0154813D01*
X0477089Y0154810D01*
X0477215Y0154803D01*
X0477341Y0154792D01*
X0477466Y0154777D01*
X0477591Y0154758D01*
X0477715Y0154735D01*
X0477839Y0154709D01*
X0477961Y0154678D01*
X0478083Y0154644D01*
X0478203Y0154605D01*
X0478322Y0154563D01*
X0478440Y0154518D01*
X0478556Y0154468D01*
X0478671Y0154415D01*
X0478783Y0154358D01*
X0478894Y0154298D01*
X0479003Y0154234D01*
X0479110Y0154167D01*
X0479215Y0154097D01*
X0479318Y0154023D01*
X0479418Y0153946D01*
X0479516Y0153866D01*
X0479611Y0153783D01*
X0479703Y0153697D01*
X0479793Y0153608D01*
X0479880Y0153516D01*
X0479963Y0153422D01*
X0480044Y0153325D01*
X0480122Y0153225D01*
X0480197Y0153123D01*
X0480268Y0153019D01*
X0480336Y0152912D01*
X0480400Y0152804D01*
X0480461Y0152693D01*
X0480519Y0152581D01*
X0480573Y0152467D01*
X0480623Y0152351D01*
X0480670Y0152234D01*
X0480713Y0152115D01*
X0480752Y0151995D01*
X0480788Y0151874D01*
X0480819Y0151751D01*
X0480847Y0151628D01*
X0480871Y0151504D01*
X0480891Y0151379D01*
X0480907Y0151254D01*
X0480919Y0151128D01*
X0480927Y0151002D01*
X0480931Y0150876D01*
X0480931Y0150750D01*
X0480927Y0150624D01*
X0480919Y0150498D01*
X0480907Y0150372D01*
X0480891Y0150247D01*
X0480871Y0150122D01*
X0480847Y0149998D01*
X0480819Y0149875D01*
X0480788Y0149752D01*
X0480752Y0149631D01*
X0480713Y0149511D01*
X0480670Y0149392D01*
X0480623Y0149275D01*
X0480573Y0149159D01*
X0480519Y0149045D01*
X0480461Y0148933D01*
X0480400Y0148822D01*
X0480336Y0148714D01*
X0480268Y0148607D01*
X0480197Y0148503D01*
X0480122Y0148401D01*
X0480044Y0148301D01*
X0479963Y0148204D01*
X0479880Y0148110D01*
X0479793Y0148018D01*
X0479703Y0147929D01*
X0479611Y0147843D01*
X0479516Y0147760D01*
X0479418Y0147680D01*
X0479318Y0147603D01*
X0479215Y0147529D01*
X0479110Y0147459D01*
X0479003Y0147392D01*
X0478894Y0147328D01*
X0478783Y0147268D01*
X0478671Y0147211D01*
X0478556Y0147158D01*
X0478440Y0147108D01*
X0478322Y0147063D01*
X0478203Y0147021D01*
X0478083Y0146982D01*
X0477961Y0146948D01*
X0477839Y0146917D01*
X0477715Y0146891D01*
X0477591Y0146868D01*
X0477466Y0146849D01*
X0477341Y0146834D01*
X0477215Y0146823D01*
X0477089Y0146816D01*
X0476963Y0146813D01*
X0476836Y0146814D01*
X0476710Y0146819D01*
X0476584Y0146828D01*
X0476458Y0146841D01*
X0476333Y0146858D01*
X0476209Y0146879D01*
X0476085Y0146903D01*
X0475962Y0146932D01*
X0475840Y0146965D01*
X0475719Y0147001D01*
X0475599Y0147041D01*
X0475481Y0147085D01*
X0475364Y0147133D01*
X0475248Y0147184D01*
X0475135Y0147239D01*
X0475023Y0147297D01*
X0474913Y0147359D01*
X0474805Y0147425D01*
X0474699Y0147494D01*
X0474595Y0147566D01*
X0474494Y0147641D01*
X0474395Y0147720D01*
X0474299Y0147801D01*
X0474205Y0147886D01*
X0474114Y0147973D01*
X0474026Y0148064D01*
X0473940Y0148157D01*
X0473858Y0148253D01*
X0473779Y0148351D01*
X0473702Y0148452D01*
X0473629Y0148555D01*
X0473560Y0148660D01*
X0473494Y0148768D01*
X0473431Y0148877D01*
X0473371Y0148989D01*
X0473315Y0149102D01*
X0473263Y0149217D01*
X0473215Y0149333D01*
X0473170Y0149452D01*
X0473129Y0149571D01*
X0473091Y0149692D01*
X0473058Y0149813D01*
X0473028Y0149936D01*
X0473003Y0150060D01*
X0472981Y0150184D01*
X0472963Y0150309D01*
X0472949Y0150435D01*
X0472939Y0150561D01*
X0472933Y0150687D01*
X0472931Y0150813D01*
X0454931Y0150813D02*
X0454933Y0150939D01*
X0454939Y0151065D01*
X0454949Y0151191D01*
X0454963Y0151317D01*
X0454981Y0151442D01*
X0455003Y0151566D01*
X0455028Y0151690D01*
X0455058Y0151813D01*
X0455091Y0151934D01*
X0455129Y0152055D01*
X0455170Y0152174D01*
X0455215Y0152293D01*
X0455263Y0152409D01*
X0455315Y0152524D01*
X0455371Y0152637D01*
X0455431Y0152749D01*
X0455494Y0152858D01*
X0455560Y0152966D01*
X0455629Y0153071D01*
X0455702Y0153174D01*
X0455779Y0153275D01*
X0455858Y0153373D01*
X0455940Y0153469D01*
X0456026Y0153562D01*
X0456114Y0153653D01*
X0456205Y0153740D01*
X0456299Y0153825D01*
X0456395Y0153906D01*
X0456494Y0153985D01*
X0456595Y0154060D01*
X0456699Y0154132D01*
X0456805Y0154201D01*
X0456913Y0154267D01*
X0457023Y0154329D01*
X0457135Y0154387D01*
X0457248Y0154442D01*
X0457364Y0154493D01*
X0457481Y0154541D01*
X0457599Y0154585D01*
X0457719Y0154625D01*
X0457840Y0154661D01*
X0457962Y0154694D01*
X0458085Y0154723D01*
X0458209Y0154747D01*
X0458333Y0154768D01*
X0458458Y0154785D01*
X0458584Y0154798D01*
X0458710Y0154807D01*
X0458836Y0154812D01*
X0458963Y0154813D01*
X0459089Y0154810D01*
X0459215Y0154803D01*
X0459341Y0154792D01*
X0459466Y0154777D01*
X0459591Y0154758D01*
X0459715Y0154735D01*
X0459839Y0154709D01*
X0459961Y0154678D01*
X0460083Y0154644D01*
X0460203Y0154605D01*
X0460322Y0154563D01*
X0460440Y0154518D01*
X0460556Y0154468D01*
X0460671Y0154415D01*
X0460783Y0154358D01*
X0460894Y0154298D01*
X0461003Y0154234D01*
X0461110Y0154167D01*
X0461215Y0154097D01*
X0461318Y0154023D01*
X0461418Y0153946D01*
X0461516Y0153866D01*
X0461611Y0153783D01*
X0461703Y0153697D01*
X0461793Y0153608D01*
X0461880Y0153516D01*
X0461963Y0153422D01*
X0462044Y0153325D01*
X0462122Y0153225D01*
X0462197Y0153123D01*
X0462268Y0153019D01*
X0462336Y0152912D01*
X0462400Y0152804D01*
X0462461Y0152693D01*
X0462519Y0152581D01*
X0462573Y0152467D01*
X0462623Y0152351D01*
X0462670Y0152234D01*
X0462713Y0152115D01*
X0462752Y0151995D01*
X0462788Y0151874D01*
X0462819Y0151751D01*
X0462847Y0151628D01*
X0462871Y0151504D01*
X0462891Y0151379D01*
X0462907Y0151254D01*
X0462919Y0151128D01*
X0462927Y0151002D01*
X0462931Y0150876D01*
X0462931Y0150750D01*
X0462927Y0150624D01*
X0462919Y0150498D01*
X0462907Y0150372D01*
X0462891Y0150247D01*
X0462871Y0150122D01*
X0462847Y0149998D01*
X0462819Y0149875D01*
X0462788Y0149752D01*
X0462752Y0149631D01*
X0462713Y0149511D01*
X0462670Y0149392D01*
X0462623Y0149275D01*
X0462573Y0149159D01*
X0462519Y0149045D01*
X0462461Y0148933D01*
X0462400Y0148822D01*
X0462336Y0148714D01*
X0462268Y0148607D01*
X0462197Y0148503D01*
X0462122Y0148401D01*
X0462044Y0148301D01*
X0461963Y0148204D01*
X0461880Y0148110D01*
X0461793Y0148018D01*
X0461703Y0147929D01*
X0461611Y0147843D01*
X0461516Y0147760D01*
X0461418Y0147680D01*
X0461318Y0147603D01*
X0461215Y0147529D01*
X0461110Y0147459D01*
X0461003Y0147392D01*
X0460894Y0147328D01*
X0460783Y0147268D01*
X0460671Y0147211D01*
X0460556Y0147158D01*
X0460440Y0147108D01*
X0460322Y0147063D01*
X0460203Y0147021D01*
X0460083Y0146982D01*
X0459961Y0146948D01*
X0459839Y0146917D01*
X0459715Y0146891D01*
X0459591Y0146868D01*
X0459466Y0146849D01*
X0459341Y0146834D01*
X0459215Y0146823D01*
X0459089Y0146816D01*
X0458963Y0146813D01*
X0458836Y0146814D01*
X0458710Y0146819D01*
X0458584Y0146828D01*
X0458458Y0146841D01*
X0458333Y0146858D01*
X0458209Y0146879D01*
X0458085Y0146903D01*
X0457962Y0146932D01*
X0457840Y0146965D01*
X0457719Y0147001D01*
X0457599Y0147041D01*
X0457481Y0147085D01*
X0457364Y0147133D01*
X0457248Y0147184D01*
X0457135Y0147239D01*
X0457023Y0147297D01*
X0456913Y0147359D01*
X0456805Y0147425D01*
X0456699Y0147494D01*
X0456595Y0147566D01*
X0456494Y0147641D01*
X0456395Y0147720D01*
X0456299Y0147801D01*
X0456205Y0147886D01*
X0456114Y0147973D01*
X0456026Y0148064D01*
X0455940Y0148157D01*
X0455858Y0148253D01*
X0455779Y0148351D01*
X0455702Y0148452D01*
X0455629Y0148555D01*
X0455560Y0148660D01*
X0455494Y0148768D01*
X0455431Y0148877D01*
X0455371Y0148989D01*
X0455315Y0149102D01*
X0455263Y0149217D01*
X0455215Y0149333D01*
X0455170Y0149452D01*
X0455129Y0149571D01*
X0455091Y0149692D01*
X0455058Y0149813D01*
X0455028Y0149936D01*
X0455003Y0150060D01*
X0454981Y0150184D01*
X0454963Y0150309D01*
X0454949Y0150435D01*
X0454939Y0150561D01*
X0454933Y0150687D01*
X0454931Y0150813D01*
X0191362Y0064373D02*
X0191364Y0064461D01*
X0191370Y0064549D01*
X0191380Y0064637D01*
X0191394Y0064725D01*
X0191411Y0064811D01*
X0191433Y0064897D01*
X0191458Y0064981D01*
X0191488Y0065065D01*
X0191520Y0065147D01*
X0191557Y0065227D01*
X0191597Y0065306D01*
X0191641Y0065383D01*
X0191688Y0065458D01*
X0191738Y0065530D01*
X0191792Y0065601D01*
X0191848Y0065668D01*
X0191908Y0065734D01*
X0191970Y0065796D01*
X0192036Y0065856D01*
X0192103Y0065912D01*
X0192174Y0065966D01*
X0192246Y0066016D01*
X0192321Y0066063D01*
X0192398Y0066107D01*
X0192477Y0066147D01*
X0192557Y0066184D01*
X0192639Y0066216D01*
X0192723Y0066246D01*
X0192807Y0066271D01*
X0192893Y0066293D01*
X0192979Y0066310D01*
X0193067Y0066324D01*
X0193155Y0066334D01*
X0193243Y0066340D01*
X0193331Y0066342D01*
X0193419Y0066340D01*
X0193507Y0066334D01*
X0193595Y0066324D01*
X0193683Y0066310D01*
X0193769Y0066293D01*
X0193855Y0066271D01*
X0193939Y0066246D01*
X0194023Y0066216D01*
X0194105Y0066184D01*
X0194185Y0066147D01*
X0194264Y0066107D01*
X0194341Y0066063D01*
X0194416Y0066016D01*
X0194488Y0065966D01*
X0194559Y0065912D01*
X0194626Y0065856D01*
X0194692Y0065796D01*
X0194754Y0065734D01*
X0194814Y0065668D01*
X0194870Y0065601D01*
X0194924Y0065530D01*
X0194974Y0065458D01*
X0195021Y0065383D01*
X0195065Y0065306D01*
X0195105Y0065227D01*
X0195142Y0065147D01*
X0195174Y0065065D01*
X0195204Y0064981D01*
X0195229Y0064897D01*
X0195251Y0064811D01*
X0195268Y0064725D01*
X0195282Y0064637D01*
X0195292Y0064549D01*
X0195298Y0064461D01*
X0195300Y0064373D01*
X0195298Y0064285D01*
X0195292Y0064197D01*
X0195282Y0064109D01*
X0195268Y0064021D01*
X0195251Y0063935D01*
X0195229Y0063849D01*
X0195204Y0063765D01*
X0195174Y0063681D01*
X0195142Y0063599D01*
X0195105Y0063519D01*
X0195065Y0063440D01*
X0195021Y0063363D01*
X0194974Y0063288D01*
X0194924Y0063216D01*
X0194870Y0063145D01*
X0194814Y0063078D01*
X0194754Y0063012D01*
X0194692Y0062950D01*
X0194626Y0062890D01*
X0194559Y0062834D01*
X0194488Y0062780D01*
X0194416Y0062730D01*
X0194341Y0062683D01*
X0194264Y0062639D01*
X0194185Y0062599D01*
X0194105Y0062562D01*
X0194023Y0062530D01*
X0193939Y0062500D01*
X0193855Y0062475D01*
X0193769Y0062453D01*
X0193683Y0062436D01*
X0193595Y0062422D01*
X0193507Y0062412D01*
X0193419Y0062406D01*
X0193331Y0062404D01*
X0193243Y0062406D01*
X0193155Y0062412D01*
X0193067Y0062422D01*
X0192979Y0062436D01*
X0192893Y0062453D01*
X0192807Y0062475D01*
X0192723Y0062500D01*
X0192639Y0062530D01*
X0192557Y0062562D01*
X0192477Y0062599D01*
X0192398Y0062639D01*
X0192321Y0062683D01*
X0192246Y0062730D01*
X0192174Y0062780D01*
X0192103Y0062834D01*
X0192036Y0062890D01*
X0191970Y0062950D01*
X0191908Y0063012D01*
X0191848Y0063078D01*
X0191792Y0063145D01*
X0191738Y0063216D01*
X0191688Y0063288D01*
X0191641Y0063363D01*
X0191597Y0063440D01*
X0191557Y0063519D01*
X0191520Y0063599D01*
X0191488Y0063681D01*
X0191458Y0063765D01*
X0191433Y0063849D01*
X0191411Y0063935D01*
X0191394Y0064021D01*
X0191380Y0064109D01*
X0191370Y0064197D01*
X0191364Y0064285D01*
X0191362Y0064373D01*
X0163523Y0092212D02*
X0163525Y0092300D01*
X0163531Y0092388D01*
X0163541Y0092476D01*
X0163555Y0092564D01*
X0163572Y0092650D01*
X0163594Y0092736D01*
X0163619Y0092820D01*
X0163649Y0092904D01*
X0163681Y0092986D01*
X0163718Y0093066D01*
X0163758Y0093145D01*
X0163802Y0093222D01*
X0163849Y0093297D01*
X0163899Y0093369D01*
X0163953Y0093440D01*
X0164009Y0093507D01*
X0164069Y0093573D01*
X0164131Y0093635D01*
X0164197Y0093695D01*
X0164264Y0093751D01*
X0164335Y0093805D01*
X0164407Y0093855D01*
X0164482Y0093902D01*
X0164559Y0093946D01*
X0164638Y0093986D01*
X0164718Y0094023D01*
X0164800Y0094055D01*
X0164884Y0094085D01*
X0164968Y0094110D01*
X0165054Y0094132D01*
X0165140Y0094149D01*
X0165228Y0094163D01*
X0165316Y0094173D01*
X0165404Y0094179D01*
X0165492Y0094181D01*
X0165580Y0094179D01*
X0165668Y0094173D01*
X0165756Y0094163D01*
X0165844Y0094149D01*
X0165930Y0094132D01*
X0166016Y0094110D01*
X0166100Y0094085D01*
X0166184Y0094055D01*
X0166266Y0094023D01*
X0166346Y0093986D01*
X0166425Y0093946D01*
X0166502Y0093902D01*
X0166577Y0093855D01*
X0166649Y0093805D01*
X0166720Y0093751D01*
X0166787Y0093695D01*
X0166853Y0093635D01*
X0166915Y0093573D01*
X0166975Y0093507D01*
X0167031Y0093440D01*
X0167085Y0093369D01*
X0167135Y0093297D01*
X0167182Y0093222D01*
X0167226Y0093145D01*
X0167266Y0093066D01*
X0167303Y0092986D01*
X0167335Y0092904D01*
X0167365Y0092820D01*
X0167390Y0092736D01*
X0167412Y0092650D01*
X0167429Y0092564D01*
X0167443Y0092476D01*
X0167453Y0092388D01*
X0167459Y0092300D01*
X0167461Y0092212D01*
X0167459Y0092124D01*
X0167453Y0092036D01*
X0167443Y0091948D01*
X0167429Y0091860D01*
X0167412Y0091774D01*
X0167390Y0091688D01*
X0167365Y0091604D01*
X0167335Y0091520D01*
X0167303Y0091438D01*
X0167266Y0091358D01*
X0167226Y0091279D01*
X0167182Y0091202D01*
X0167135Y0091127D01*
X0167085Y0091055D01*
X0167031Y0090984D01*
X0166975Y0090917D01*
X0166915Y0090851D01*
X0166853Y0090789D01*
X0166787Y0090729D01*
X0166720Y0090673D01*
X0166649Y0090619D01*
X0166577Y0090569D01*
X0166502Y0090522D01*
X0166425Y0090478D01*
X0166346Y0090438D01*
X0166266Y0090401D01*
X0166184Y0090369D01*
X0166100Y0090339D01*
X0166016Y0090314D01*
X0165930Y0090292D01*
X0165844Y0090275D01*
X0165756Y0090261D01*
X0165668Y0090251D01*
X0165580Y0090245D01*
X0165492Y0090243D01*
X0165404Y0090245D01*
X0165316Y0090251D01*
X0165228Y0090261D01*
X0165140Y0090275D01*
X0165054Y0090292D01*
X0164968Y0090314D01*
X0164884Y0090339D01*
X0164800Y0090369D01*
X0164718Y0090401D01*
X0164638Y0090438D01*
X0164559Y0090478D01*
X0164482Y0090522D01*
X0164407Y0090569D01*
X0164335Y0090619D01*
X0164264Y0090673D01*
X0164197Y0090729D01*
X0164131Y0090789D01*
X0164069Y0090851D01*
X0164009Y0090917D01*
X0163953Y0090984D01*
X0163899Y0091055D01*
X0163849Y0091127D01*
X0163802Y0091202D01*
X0163758Y0091279D01*
X0163718Y0091358D01*
X0163681Y0091438D01*
X0163649Y0091520D01*
X0163619Y0091604D01*
X0163594Y0091688D01*
X0163572Y0091774D01*
X0163555Y0091860D01*
X0163541Y0091948D01*
X0163531Y0092036D01*
X0163525Y0092124D01*
X0163523Y0092212D01*
D41*
X0138965Y0084500D03*
X0132272Y0084500D03*
X0126965Y0084500D03*
X0120272Y0084500D03*
X0120272Y0068500D03*
X0126965Y0068500D03*
X0132272Y0068500D03*
X0138965Y0068500D03*
X0144272Y0060500D03*
X0150965Y0060500D03*
X0158119Y0057846D03*
X0158119Y0051154D03*
X0297119Y0052154D03*
X0297119Y0058846D03*
X0308272Y0087000D03*
X0314965Y0087000D03*
X0300590Y0104250D03*
X0293897Y0104250D03*
X0286215Y0126125D03*
X0279522Y0126125D03*
X0227465Y0106500D03*
X0220772Y0106500D03*
X0222119Y0118654D03*
X0222119Y0125346D03*
X0210965Y0139500D03*
X0217619Y0141154D03*
X0217619Y0147846D03*
X0210965Y0147500D03*
X0204272Y0147500D03*
X0204272Y0139500D03*
X0127619Y0141154D03*
X0119369Y0142654D03*
X0127619Y0147846D03*
X0119369Y0149346D03*
X0119369Y0154529D03*
X0119369Y0161221D03*
X0077465Y0164750D03*
X0070772Y0164750D03*
X0063965Y0176000D03*
X0057272Y0176000D03*
X0059119Y0150346D03*
X0059119Y0143654D03*
X0067772Y0143000D03*
X0074465Y0143000D03*
X0074465Y0135000D03*
X0067772Y0135000D03*
X0060119Y0131346D03*
X0049119Y0131346D03*
X0049119Y0124654D03*
X0060119Y0124654D03*
X0402119Y0141154D03*
X0402119Y0147846D03*
D42*
X0410953Y0115500D03*
X0420284Y0115500D03*
D43*
X0391579Y0096484D03*
X0384099Y0096484D03*
X0376619Y0096484D03*
X0369138Y0096484D03*
X0361658Y0096484D03*
X0361658Y0044516D03*
X0369138Y0044516D03*
X0376619Y0044516D03*
X0384099Y0044516D03*
X0391579Y0044516D03*
D44*
X0402603Y0055539D03*
X0402603Y0063020D03*
X0402603Y0070500D03*
X0402603Y0077980D03*
X0402603Y0085461D03*
X0350634Y0085461D03*
X0350634Y0077980D03*
X0350634Y0070500D03*
X0350634Y0063020D03*
X0350634Y0055539D03*
D45*
X0254666Y0104826D02*
X0254666Y0106992D01*
X0255256Y0106992D01*
X0255256Y0104826D01*
X0254666Y0104826D01*
X0254666Y0105416D02*
X0255256Y0105416D01*
X0255256Y0106006D02*
X0254666Y0106006D01*
X0254666Y0106596D02*
X0255256Y0106596D01*
X0252698Y0106992D02*
X0252698Y0104826D01*
X0252698Y0106992D02*
X0253288Y0106992D01*
X0253288Y0104826D01*
X0252698Y0104826D01*
X0252698Y0105416D02*
X0253288Y0105416D01*
X0253288Y0106006D02*
X0252698Y0106006D01*
X0252698Y0106596D02*
X0253288Y0106596D01*
X0250729Y0106992D02*
X0250729Y0104826D01*
X0250729Y0106992D02*
X0251319Y0106992D01*
X0251319Y0104826D01*
X0250729Y0104826D01*
X0250729Y0105416D02*
X0251319Y0105416D01*
X0251319Y0106006D02*
X0250729Y0106006D01*
X0250729Y0106596D02*
X0251319Y0106596D01*
X0248761Y0106992D02*
X0248761Y0104826D01*
X0248761Y0106992D02*
X0249351Y0106992D01*
X0249351Y0104826D01*
X0248761Y0104826D01*
X0248761Y0105416D02*
X0249351Y0105416D01*
X0249351Y0106006D02*
X0248761Y0106006D01*
X0248761Y0106596D02*
X0249351Y0106596D01*
X0246792Y0106992D02*
X0246792Y0104826D01*
X0246792Y0106992D02*
X0247382Y0106992D01*
X0247382Y0104826D01*
X0246792Y0104826D01*
X0246792Y0105416D02*
X0247382Y0105416D01*
X0247382Y0106006D02*
X0246792Y0106006D01*
X0246792Y0106596D02*
X0247382Y0106596D01*
X0244824Y0106992D02*
X0244824Y0104826D01*
X0244824Y0106992D02*
X0245414Y0106992D01*
X0245414Y0104826D01*
X0244824Y0104826D01*
X0244824Y0105416D02*
X0245414Y0105416D01*
X0245414Y0106006D02*
X0244824Y0106006D01*
X0244824Y0106596D02*
X0245414Y0106596D01*
X0242855Y0106992D02*
X0242855Y0104826D01*
X0242855Y0106992D02*
X0243445Y0106992D01*
X0243445Y0104826D01*
X0242855Y0104826D01*
X0242855Y0105416D02*
X0243445Y0105416D01*
X0243445Y0106006D02*
X0242855Y0106006D01*
X0242855Y0106596D02*
X0243445Y0106596D01*
X0240887Y0106992D02*
X0240887Y0104826D01*
X0240887Y0106992D02*
X0241477Y0106992D01*
X0241477Y0104826D01*
X0240887Y0104826D01*
X0240887Y0105416D02*
X0241477Y0105416D01*
X0241477Y0106006D02*
X0240887Y0106006D01*
X0240887Y0106596D02*
X0241477Y0106596D01*
X0238918Y0106992D02*
X0238918Y0104826D01*
X0238918Y0106992D02*
X0239508Y0106992D01*
X0239508Y0104826D01*
X0238918Y0104826D01*
X0238918Y0105416D02*
X0239508Y0105416D01*
X0239508Y0106006D02*
X0238918Y0106006D01*
X0238918Y0106596D02*
X0239508Y0106596D01*
X0236950Y0106992D02*
X0236950Y0104826D01*
X0236950Y0106992D02*
X0237540Y0106992D01*
X0237540Y0104826D01*
X0236950Y0104826D01*
X0236950Y0105416D02*
X0237540Y0105416D01*
X0237540Y0106006D02*
X0236950Y0106006D01*
X0236950Y0106596D02*
X0237540Y0106596D01*
X0234981Y0106992D02*
X0234981Y0104826D01*
X0234981Y0106992D02*
X0235571Y0106992D01*
X0235571Y0104826D01*
X0234981Y0104826D01*
X0234981Y0105416D02*
X0235571Y0105416D01*
X0235571Y0106006D02*
X0234981Y0106006D01*
X0234981Y0106596D02*
X0235571Y0106596D01*
X0230945Y0108862D02*
X0230945Y0109452D01*
X0233111Y0109452D01*
X0233111Y0108862D01*
X0230945Y0108862D01*
X0230945Y0109452D02*
X0233111Y0109452D01*
X0230945Y0110831D02*
X0230945Y0111421D01*
X0233111Y0111421D01*
X0233111Y0110831D01*
X0230945Y0110831D01*
X0230945Y0111421D02*
X0233111Y0111421D01*
X0230945Y0112799D02*
X0230945Y0113389D01*
X0233111Y0113389D01*
X0233111Y0112799D01*
X0230945Y0112799D01*
X0230945Y0113389D02*
X0233111Y0113389D01*
X0230945Y0114768D02*
X0230945Y0115358D01*
X0233111Y0115358D01*
X0233111Y0114768D01*
X0230945Y0114768D01*
X0230945Y0115358D02*
X0233111Y0115358D01*
X0230945Y0116736D02*
X0230945Y0117326D01*
X0233111Y0117326D01*
X0233111Y0116736D01*
X0230945Y0116736D01*
X0230945Y0117326D02*
X0233111Y0117326D01*
X0230945Y0118705D02*
X0230945Y0119295D01*
X0233111Y0119295D01*
X0233111Y0118705D01*
X0230945Y0118705D01*
X0230945Y0119295D02*
X0233111Y0119295D01*
X0230945Y0120674D02*
X0230945Y0121264D01*
X0233111Y0121264D01*
X0233111Y0120674D01*
X0230945Y0120674D01*
X0230945Y0121264D02*
X0233111Y0121264D01*
X0230945Y0122642D02*
X0230945Y0123232D01*
X0233111Y0123232D01*
X0233111Y0122642D01*
X0230945Y0122642D01*
X0230945Y0123232D02*
X0233111Y0123232D01*
X0230945Y0124611D02*
X0230945Y0125201D01*
X0233111Y0125201D01*
X0233111Y0124611D01*
X0230945Y0124611D01*
X0230945Y0125201D02*
X0233111Y0125201D01*
X0230945Y0126579D02*
X0230945Y0127169D01*
X0233111Y0127169D01*
X0233111Y0126579D01*
X0230945Y0126579D01*
X0230945Y0127169D02*
X0233111Y0127169D01*
X0230945Y0128548D02*
X0230945Y0129138D01*
X0233111Y0129138D01*
X0233111Y0128548D01*
X0230945Y0128548D01*
X0230945Y0129138D02*
X0233111Y0129138D01*
X0234981Y0131008D02*
X0234981Y0133174D01*
X0235571Y0133174D01*
X0235571Y0131008D01*
X0234981Y0131008D01*
X0234981Y0131598D02*
X0235571Y0131598D01*
X0235571Y0132188D02*
X0234981Y0132188D01*
X0234981Y0132778D02*
X0235571Y0132778D01*
X0236950Y0133174D02*
X0236950Y0131008D01*
X0236950Y0133174D02*
X0237540Y0133174D01*
X0237540Y0131008D01*
X0236950Y0131008D01*
X0236950Y0131598D02*
X0237540Y0131598D01*
X0237540Y0132188D02*
X0236950Y0132188D01*
X0236950Y0132778D02*
X0237540Y0132778D01*
X0238918Y0133174D02*
X0238918Y0131008D01*
X0238918Y0133174D02*
X0239508Y0133174D01*
X0239508Y0131008D01*
X0238918Y0131008D01*
X0238918Y0131598D02*
X0239508Y0131598D01*
X0239508Y0132188D02*
X0238918Y0132188D01*
X0238918Y0132778D02*
X0239508Y0132778D01*
X0240887Y0133174D02*
X0240887Y0131008D01*
X0240887Y0133174D02*
X0241477Y0133174D01*
X0241477Y0131008D01*
X0240887Y0131008D01*
X0240887Y0131598D02*
X0241477Y0131598D01*
X0241477Y0132188D02*
X0240887Y0132188D01*
X0240887Y0132778D02*
X0241477Y0132778D01*
X0242855Y0133174D02*
X0242855Y0131008D01*
X0242855Y0133174D02*
X0243445Y0133174D01*
X0243445Y0131008D01*
X0242855Y0131008D01*
X0242855Y0131598D02*
X0243445Y0131598D01*
X0243445Y0132188D02*
X0242855Y0132188D01*
X0242855Y0132778D02*
X0243445Y0132778D01*
X0244824Y0133174D02*
X0244824Y0131008D01*
X0244824Y0133174D02*
X0245414Y0133174D01*
X0245414Y0131008D01*
X0244824Y0131008D01*
X0244824Y0131598D02*
X0245414Y0131598D01*
X0245414Y0132188D02*
X0244824Y0132188D01*
X0244824Y0132778D02*
X0245414Y0132778D01*
X0246792Y0133174D02*
X0246792Y0131008D01*
X0246792Y0133174D02*
X0247382Y0133174D01*
X0247382Y0131008D01*
X0246792Y0131008D01*
X0246792Y0131598D02*
X0247382Y0131598D01*
X0247382Y0132188D02*
X0246792Y0132188D01*
X0246792Y0132778D02*
X0247382Y0132778D01*
X0248761Y0133174D02*
X0248761Y0131008D01*
X0248761Y0133174D02*
X0249351Y0133174D01*
X0249351Y0131008D01*
X0248761Y0131008D01*
X0248761Y0131598D02*
X0249351Y0131598D01*
X0249351Y0132188D02*
X0248761Y0132188D01*
X0248761Y0132778D02*
X0249351Y0132778D01*
X0250729Y0133174D02*
X0250729Y0131008D01*
X0250729Y0133174D02*
X0251319Y0133174D01*
X0251319Y0131008D01*
X0250729Y0131008D01*
X0250729Y0131598D02*
X0251319Y0131598D01*
X0251319Y0132188D02*
X0250729Y0132188D01*
X0250729Y0132778D02*
X0251319Y0132778D01*
X0252698Y0133174D02*
X0252698Y0131008D01*
X0252698Y0133174D02*
X0253288Y0133174D01*
X0253288Y0131008D01*
X0252698Y0131008D01*
X0252698Y0131598D02*
X0253288Y0131598D01*
X0253288Y0132188D02*
X0252698Y0132188D01*
X0252698Y0132778D02*
X0253288Y0132778D01*
X0254666Y0133174D02*
X0254666Y0131008D01*
X0254666Y0133174D02*
X0255256Y0133174D01*
X0255256Y0131008D01*
X0254666Y0131008D01*
X0254666Y0131598D02*
X0255256Y0131598D01*
X0255256Y0132188D02*
X0254666Y0132188D01*
X0254666Y0132778D02*
X0255256Y0132778D01*
X0257126Y0129138D02*
X0257126Y0128548D01*
X0257126Y0129138D02*
X0259292Y0129138D01*
X0259292Y0128548D01*
X0257126Y0128548D01*
X0257126Y0129138D02*
X0259292Y0129138D01*
X0257126Y0127169D02*
X0257126Y0126579D01*
X0257126Y0127169D02*
X0259292Y0127169D01*
X0259292Y0126579D01*
X0257126Y0126579D01*
X0257126Y0127169D02*
X0259292Y0127169D01*
X0257126Y0125201D02*
X0257126Y0124611D01*
X0257126Y0125201D02*
X0259292Y0125201D01*
X0259292Y0124611D01*
X0257126Y0124611D01*
X0257126Y0125201D02*
X0259292Y0125201D01*
X0257126Y0123232D02*
X0257126Y0122642D01*
X0257126Y0123232D02*
X0259292Y0123232D01*
X0259292Y0122642D01*
X0257126Y0122642D01*
X0257126Y0123232D02*
X0259292Y0123232D01*
X0257126Y0121264D02*
X0257126Y0120674D01*
X0257126Y0121264D02*
X0259292Y0121264D01*
X0259292Y0120674D01*
X0257126Y0120674D01*
X0257126Y0121264D02*
X0259292Y0121264D01*
X0257126Y0119295D02*
X0257126Y0118705D01*
X0257126Y0119295D02*
X0259292Y0119295D01*
X0259292Y0118705D01*
X0257126Y0118705D01*
X0257126Y0119295D02*
X0259292Y0119295D01*
X0257126Y0117326D02*
X0257126Y0116736D01*
X0257126Y0117326D02*
X0259292Y0117326D01*
X0259292Y0116736D01*
X0257126Y0116736D01*
X0257126Y0117326D02*
X0259292Y0117326D01*
X0257126Y0115358D02*
X0257126Y0114768D01*
X0257126Y0115358D02*
X0259292Y0115358D01*
X0259292Y0114768D01*
X0257126Y0114768D01*
X0257126Y0115358D02*
X0259292Y0115358D01*
X0257126Y0113389D02*
X0257126Y0112799D01*
X0257126Y0113389D02*
X0259292Y0113389D01*
X0259292Y0112799D01*
X0257126Y0112799D01*
X0257126Y0113389D02*
X0259292Y0113389D01*
X0257126Y0111421D02*
X0257126Y0110831D01*
X0257126Y0111421D02*
X0259292Y0111421D01*
X0259292Y0110831D01*
X0257126Y0110831D01*
X0257126Y0111421D02*
X0259292Y0111421D01*
X0257126Y0109452D02*
X0257126Y0108862D01*
X0257126Y0109452D02*
X0259292Y0109452D01*
X0259292Y0108862D01*
X0257126Y0108862D01*
X0257126Y0109452D02*
X0259292Y0109452D01*
D46*
X0236261Y0110142D02*
X0236261Y0127858D01*
X0253977Y0127858D01*
X0253977Y0110142D01*
X0236261Y0110142D01*
X0236261Y0112110D02*
X0253977Y0112110D01*
X0253977Y0114078D02*
X0236261Y0114078D01*
X0236261Y0116046D02*
X0253977Y0116046D01*
X0253977Y0118014D02*
X0236261Y0118014D01*
X0236261Y0119982D02*
X0253977Y0119982D01*
X0253977Y0121950D02*
X0236261Y0121950D01*
X0236261Y0123918D02*
X0253977Y0123918D01*
X0253977Y0125886D02*
X0236261Y0125886D01*
X0236261Y0127854D02*
X0253977Y0127854D01*
D47*
X0051631Y0165331D03*
X0040607Y0165331D03*
X0040607Y0181669D03*
X0051631Y0181669D03*
X0051631Y0034169D03*
X0040607Y0034169D03*
X0040607Y0017831D03*
X0051631Y0017831D03*
D48*
X0133879Y0138382D03*
X0137619Y0138382D03*
X0141359Y0138382D03*
X0141359Y0148618D03*
X0137619Y0148618D03*
X0133879Y0148618D03*
D49*
X0185556Y0148500D03*
X0187524Y0148500D03*
X0189493Y0148500D03*
X0191461Y0148500D03*
X0193430Y0148500D03*
X0193430Y0132752D03*
X0191461Y0132752D03*
X0189493Y0132752D03*
X0187524Y0132752D03*
X0185556Y0132752D03*
D50*
X0181619Y0136689D03*
X0181619Y0138657D03*
X0181619Y0140626D03*
X0181619Y0142594D03*
X0181619Y0144563D03*
X0197367Y0144563D03*
X0197367Y0142594D03*
X0197367Y0140626D03*
X0197367Y0138657D03*
X0197367Y0136689D03*
D51*
X0189493Y0140626D03*
D52*
X0035119Y0139118D03*
X0035119Y0136559D03*
X0035119Y0134000D03*
X0035119Y0131441D03*
X0035119Y0128882D03*
D53*
X0033249Y0124157D03*
X0033249Y0143843D03*
D54*
X0022619Y0146008D03*
X0022619Y0137937D03*
X0022619Y0130063D03*
X0022619Y0121992D03*
D55*
X0225835Y0144500D03*
X0240402Y0144500D03*
D56*
X0209024Y0120650D03*
X0197213Y0120650D03*
X0197213Y0114350D03*
X0209024Y0114350D03*
X0323713Y0130850D03*
X0323713Y0137150D03*
X0335524Y0137150D03*
X0335524Y0130850D03*
D57*
G36*
X0193400Y0083929D02*
X0196184Y0081145D01*
X0188530Y0073491D01*
X0185746Y0076275D01*
X0193400Y0083929D01*
G37*
G36*
X0187832Y0089497D02*
X0190616Y0086713D01*
X0182962Y0079059D01*
X0180178Y0081843D01*
X0187832Y0089497D01*
G37*
G36*
X0177394Y0084627D02*
X0174610Y0087411D01*
X0182264Y0095065D01*
X0185048Y0092281D01*
X0177394Y0084627D01*
G37*
G36*
X0164726Y0088662D02*
X0167510Y0085878D01*
X0159856Y0078224D01*
X0157072Y0081008D01*
X0164726Y0088662D01*
G37*
G36*
X0159158Y0094230D02*
X0161942Y0091446D01*
X0154288Y0083792D01*
X0151504Y0086576D01*
X0159158Y0094230D01*
G37*
G36*
X0176696Y0100633D02*
X0179480Y0097849D01*
X0171826Y0090195D01*
X0169042Y0092979D01*
X0176696Y0100633D01*
G37*
G36*
X0171129Y0106201D02*
X0173913Y0103417D01*
X0166259Y0095763D01*
X0163475Y0098547D01*
X0171129Y0106201D01*
G37*
G36*
X0165424Y0072656D02*
X0162640Y0075440D01*
X0170294Y0083094D01*
X0173078Y0080310D01*
X0165424Y0072656D01*
G37*
G36*
X0175861Y0077527D02*
X0178645Y0074743D01*
X0170991Y0067089D01*
X0168207Y0069873D01*
X0175861Y0077527D01*
G37*
G36*
X0198968Y0078362D02*
X0201752Y0075578D01*
X0194098Y0067924D01*
X0191314Y0070708D01*
X0198968Y0078362D01*
G37*
G36*
X0204535Y0072794D02*
X0207319Y0070010D01*
X0199665Y0062356D01*
X0196881Y0065140D01*
X0204535Y0072794D01*
G37*
G36*
X0181429Y0071959D02*
X0184213Y0069175D01*
X0176559Y0061521D01*
X0173775Y0064305D01*
X0181429Y0071959D01*
G37*
G36*
X0186997Y0066391D02*
X0189781Y0063607D01*
X0182127Y0055953D01*
X0179343Y0058737D01*
X0186997Y0066391D01*
G37*
G36*
X0192565Y0060823D02*
X0195349Y0058039D01*
X0187695Y0050385D01*
X0184911Y0053169D01*
X0192565Y0060823D01*
G37*
D58*
X0367264Y0146000D03*
X0372973Y0146000D03*
D59*
X0407190Y0138437D02*
X0409434Y0138437D01*
X0409434Y0136469D02*
X0407190Y0136469D01*
X0407190Y0134500D02*
X0409434Y0134500D01*
X0409434Y0132531D02*
X0407190Y0132531D01*
X0407190Y0130563D02*
X0409434Y0130563D01*
X0418804Y0130563D02*
X0421048Y0130563D01*
X0421048Y0132531D02*
X0418804Y0132531D01*
X0418804Y0134500D02*
X0421048Y0134500D01*
X0421048Y0136469D02*
X0418804Y0136469D01*
X0418804Y0138437D02*
X0421048Y0138437D01*
D60*
X0414119Y0134500D03*
D61*
X0414119Y0132138D03*
X0414119Y0136862D03*
D62*
X0414906Y0140248D03*
X0413331Y0140248D03*
X0411757Y0140248D03*
X0416481Y0140248D03*
X0416481Y0128752D03*
X0414906Y0128752D03*
X0413331Y0128752D03*
X0411757Y0128752D03*
D63*
X0361109Y0112309D03*
X0353629Y0112309D03*
X0353629Y0109750D03*
X0353629Y0107191D03*
X0361109Y0107191D03*
X0348359Y0130691D03*
X0340879Y0130691D03*
X0340879Y0133250D03*
X0340879Y0135809D03*
X0348359Y0135809D03*
D64*
X0065928Y0114490D03*
X0060810Y0114490D03*
X0060810Y0107010D03*
X0063369Y0107010D03*
X0065928Y0107010D03*
D65*
X0129619Y0052100D03*
X0129619Y0048900D03*
D66*
X0144272Y0052500D02*
X0144272Y0060500D01*
X0144119Y0060654D01*
X0144119Y0067000D01*
X0132272Y0068500D02*
X0129619Y0068500D01*
X0129619Y0064500D01*
X0129619Y0060500D01*
X0132272Y0060500D01*
X0129619Y0060500D02*
X0126965Y0060500D01*
X0126965Y0068500D02*
X0129619Y0068500D01*
X0129619Y0076500D01*
X0129619Y0084500D01*
X0132272Y0084500D01*
X0129619Y0084500D02*
X0126965Y0084500D01*
X0126965Y0076500D02*
X0129619Y0076500D01*
X0132272Y0076500D01*
X0104119Y0084250D02*
X0041479Y0084250D01*
X0040479Y0084890D01*
X0040479Y0076228D02*
X0068082Y0076228D01*
X0072301Y0080447D01*
X0094566Y0080447D01*
X0100119Y0080500D01*
X0099472Y0076447D02*
X0071771Y0076447D01*
X0067221Y0071898D01*
X0042054Y0071898D01*
X0072432Y0093551D02*
X0075801Y0090183D01*
X0106936Y0090183D01*
X0107244Y0089875D01*
X0072432Y0093551D02*
X0040479Y0093551D01*
X0039562Y0101425D02*
X0029062Y0101425D01*
X0039562Y0101425D02*
X0048800Y0110663D01*
X0055218Y0104244D01*
X0061992Y0104244D01*
X0061997Y0104250D01*
X0062619Y0104250D01*
X0063369Y0105000D01*
X0063369Y0107010D01*
X0071619Y0106169D02*
X0071619Y0105500D01*
X0071619Y0106169D02*
X0076619Y0106169D01*
X0072879Y0114437D02*
X0072244Y0114437D01*
X0087869Y0114471D02*
X0094432Y0114471D01*
X0098494Y0114471D01*
X0098494Y0127375D01*
X0104042Y0127375D01*
X0107667Y0131000D01*
X0110119Y0131000D01*
X0113619Y0133500D02*
X0114619Y0134500D01*
X0114619Y0138500D01*
X0116018Y0139899D01*
X0124460Y0137199D02*
X0128233Y0133426D01*
X0128233Y0129949D01*
X0130792Y0129949D01*
X0132760Y0129949D01*
X0128233Y0129949D02*
X0128233Y0126406D01*
X0128233Y0124437D01*
X0125119Y0124437D01*
X0125119Y0115000D01*
X0121772Y0111654D01*
X0118119Y0111654D01*
X0109369Y0114471D02*
X0109369Y0120029D01*
X0112147Y0120029D01*
X0113619Y0121500D01*
X0113619Y0133500D01*
X0098494Y0127375D02*
X0094557Y0127375D01*
X0094557Y0127365D01*
X0087869Y0127365D01*
X0087869Y0126346D01*
X0087869Y0125500D01*
X0081244Y0125500D01*
X0087869Y0119654D02*
X0094557Y0119654D01*
X0094557Y0119885D01*
X0102824Y0123625D02*
X0105921Y0126721D01*
X0109369Y0126721D01*
X0118119Y0123654D02*
X0118119Y0120705D01*
X0118414Y0121000D01*
X0122619Y0121000D01*
X0118119Y0120705D02*
X0118119Y0118346D01*
X0128233Y0122469D02*
X0128233Y0124437D01*
X0132760Y0120500D02*
X0137988Y0120500D01*
X0140915Y0120500D01*
X0141619Y0120500D01*
X0142103Y0120016D01*
X0141619Y0120500D02*
X0136619Y0115500D01*
X0136697Y0115421D01*
X0109369Y0107779D02*
X0106046Y0107779D01*
X0102699Y0111125D01*
X0094432Y0114471D02*
X0094432Y0114865D01*
X0060119Y0124654D02*
X0049119Y0124654D01*
X0048800Y0124654D01*
X0048800Y0110663D01*
X0048800Y0124654D02*
X0045465Y0124654D01*
X0041237Y0128882D01*
X0035119Y0128882D01*
X0035119Y0134000D02*
X0046465Y0134000D01*
X0049119Y0131346D01*
X0049272Y0131500D01*
X0054619Y0131500D01*
X0055406Y0136559D02*
X0060119Y0131346D01*
X0055406Y0136559D02*
X0035119Y0136559D01*
X0035119Y0139118D02*
X0040737Y0139118D01*
X0042119Y0140500D01*
X0042119Y0145260D01*
X0062619Y0139500D02*
X0066119Y0143000D01*
X0067772Y0143000D01*
X0071115Y0149188D02*
X0080619Y0149188D01*
X0081369Y0148438D01*
X0081369Y0160846D01*
X0077465Y0164750D01*
X0079119Y0170250D02*
X0069369Y0170250D01*
X0063965Y0175654D01*
X0063965Y0176000D01*
X0045619Y0185503D02*
X0041785Y0181669D01*
X0040607Y0181669D01*
X0040607Y0165331D01*
X0089619Y0150500D02*
X0094619Y0155500D01*
X0094619Y0175500D01*
X0094119Y0175500D01*
X0104119Y0175500D02*
X0104119Y0165000D01*
X0099619Y0160500D01*
X0127869Y0162875D02*
X0130119Y0160625D01*
X0127869Y0162875D02*
X0127869Y0171750D01*
X0129744Y0173625D01*
X0129744Y0177375D01*
X0123190Y0183928D01*
X0061994Y0183928D01*
X0060419Y0185503D01*
X0045619Y0185503D01*
X0131260Y0171836D02*
X0131260Y0167914D01*
X0134033Y0165141D01*
X0134728Y0165141D01*
X0145500Y0154369D01*
X0155210Y0154369D01*
X0159531Y0150048D01*
X0159531Y0144952D01*
X0157119Y0142540D01*
X0158119Y0141096D01*
X0158119Y0134404D02*
X0150119Y0134404D01*
X0181619Y0144563D02*
X0181619Y0148000D01*
X0217619Y0147846D02*
X0217619Y0152296D01*
X0221536Y0156214D01*
X0222793Y0156214D01*
X0222967Y0156041D01*
X0232578Y0156041D01*
X0237694Y0150925D01*
X0252954Y0150925D01*
X0253965Y0149914D01*
X0253965Y0146500D01*
X0247272Y0146500D02*
X0242628Y0146500D01*
X0241307Y0145178D01*
X0240402Y0144500D01*
X0240402Y0138717D01*
X0243119Y0136000D01*
X0243119Y0132122D01*
X0243150Y0132091D01*
X0241182Y0132091D02*
X0241119Y0132154D01*
X0241119Y0135000D01*
X0237619Y0138500D01*
X0228119Y0138500D01*
X0225835Y0140283D01*
X0225835Y0144500D01*
X0222489Y0141154D01*
X0217619Y0141154D01*
X0225182Y0144654D02*
X0225835Y0144500D01*
X0241307Y0145178D02*
X0242402Y0146000D01*
X0251130Y0142500D02*
X0245119Y0136489D01*
X0245119Y0132091D01*
X0245149Y0132091D01*
X0247087Y0132091D02*
X0247087Y0135629D01*
X0251959Y0140500D01*
X0261832Y0140500D01*
X0262767Y0141435D01*
X0262767Y0146961D01*
X0260767Y0145158D02*
X0260767Y0142500D01*
X0251130Y0142500D01*
X0256703Y0149914D02*
X0260078Y0146539D01*
X0260078Y0145847D01*
X0260767Y0145158D01*
X0256703Y0149914D02*
X0253965Y0149914D01*
X0258369Y0158125D02*
X0238994Y0158125D01*
X0231619Y0165500D01*
X0225280Y0165500D01*
X0239060Y0165500D02*
X0243935Y0160625D01*
X0258994Y0160625D01*
X0276619Y0143000D01*
X0282869Y0143000D01*
X0285369Y0146750D02*
X0275994Y0146750D01*
X0257244Y0165500D01*
X0252839Y0165500D01*
X0258369Y0158125D02*
X0278024Y0138470D01*
X0282089Y0138470D01*
X0317244Y0135500D02*
X0319557Y0137814D01*
X0319557Y0139895D01*
X0320512Y0140850D01*
X0335524Y0140850D01*
X0335524Y0137150D01*
X0335524Y0140850D02*
X0340464Y0140850D01*
X0343614Y0144000D01*
X0343619Y0144000D01*
X0346806Y0147187D01*
X0346806Y0147990D01*
X0325863Y0135000D02*
X0323713Y0137150D01*
X0325863Y0135000D02*
X0327119Y0135000D01*
X0330119Y0132000D01*
X0330119Y0127500D01*
X0334272Y0123346D01*
X0335119Y0123346D01*
X0327119Y0123346D02*
X0327119Y0127445D01*
X0323713Y0130850D01*
X0343028Y0123346D02*
X0343119Y0123346D01*
X0303194Y0122075D02*
X0301619Y0120500D01*
X0303194Y0118925D01*
X0301619Y0118925D02*
X0301619Y0120500D01*
X0300044Y0118925D01*
X0301619Y0118925D01*
X0280147Y0121125D02*
X0280147Y0125500D01*
X0279522Y0126125D01*
X0280119Y0124846D02*
X0280147Y0121125D01*
X0277047Y0118025D01*
X0261058Y0118025D01*
X0260065Y0117031D01*
X0258209Y0117031D01*
X0232028Y0113094D02*
X0229713Y0113094D01*
X0228619Y0112000D01*
X0243150Y0105909D02*
X0243150Y0103005D01*
X0247087Y0103005D01*
X0247087Y0105909D01*
X0247087Y0103005D02*
X0247087Y0077639D01*
X0254727Y0069999D01*
X0272406Y0069999D01*
X0252119Y0062000D02*
X0264969Y0049150D01*
X0264969Y0032350D01*
X0262562Y0029943D01*
X0255410Y0029943D01*
X0249466Y0024000D01*
X0244178Y0024000D01*
X0271737Y0024000D02*
X0293960Y0046223D01*
X0293960Y0054812D01*
X0297772Y0058625D01*
X0297772Y0059500D01*
X0305595Y0059500D01*
X0297772Y0059500D02*
X0297723Y0059498D01*
X0297675Y0059493D01*
X0297626Y0059484D01*
X0297579Y0059471D01*
X0297533Y0059455D01*
X0297488Y0059435D01*
X0297445Y0059412D01*
X0297404Y0059386D01*
X0297364Y0059357D01*
X0297327Y0059325D01*
X0297293Y0059291D01*
X0297261Y0059254D01*
X0297232Y0059214D01*
X0297206Y0059173D01*
X0297183Y0059130D01*
X0297163Y0059085D01*
X0297147Y0059039D01*
X0297134Y0058992D01*
X0297125Y0058943D01*
X0297120Y0058895D01*
X0297118Y0058846D01*
X0297119Y0052154D02*
X0297119Y0047000D01*
X0312869Y0047000D01*
X0315369Y0049500D01*
X0315369Y0054875D01*
X0315369Y0049500D02*
X0327642Y0049500D01*
X0297119Y0047000D02*
X0297119Y0035602D01*
X0285516Y0024000D01*
X0389119Y0020500D02*
X0391619Y0020500D01*
X0419404Y0053000D02*
X0419279Y0053125D01*
X0419404Y0053000D02*
X0428181Y0053000D01*
X0431619Y0056437D01*
X0431619Y0060500D01*
X0419183Y0067936D02*
X0419279Y0068874D01*
X0424887Y0072985D02*
X0411856Y0072985D01*
X0410369Y0074472D01*
X0410369Y0077500D01*
X0408869Y0079000D01*
X0419279Y0076748D02*
X0419276Y0076125D01*
X0424887Y0072985D02*
X0426174Y0072948D01*
X0426077Y0072948D01*
X0430151Y0068874D01*
X0478334Y0068874D01*
X0359619Y0088937D02*
X0356892Y0091664D01*
X0356892Y0103321D01*
X0350634Y0085461D02*
X0348934Y0083760D01*
X0307244Y0098000D02*
X0295369Y0086437D01*
X0294522Y0097687D02*
X0294522Y0104250D01*
X0293897Y0104250D01*
X0300590Y0104250D02*
X0301619Y0104250D01*
X0247156Y0132091D02*
X0247087Y0132091D01*
X0247119Y0132122D01*
X0197213Y0114350D02*
X0197213Y0114179D01*
X0100420Y0075500D02*
X0099472Y0076447D01*
X0100420Y0075500D02*
X0101619Y0075500D01*
X0158119Y0051154D02*
X0166119Y0051154D01*
X0166119Y0032095D01*
X0172416Y0025798D01*
X0172416Y0022202D01*
X0169873Y0019660D01*
X0166278Y0019660D01*
X0161938Y0024000D01*
X0154296Y0024000D01*
X0057119Y0029346D02*
X0057119Y0034500D01*
X0040607Y0034169D02*
X0040607Y0017831D01*
X0025518Y0049457D02*
X0025369Y0049457D01*
X0316619Y0155419D02*
X0316619Y0155500D01*
X0388119Y0183000D02*
X0144119Y0183000D01*
X0136619Y0175500D01*
X0134744Y0175500D01*
X0134744Y0175320D01*
X0131260Y0171836D01*
X0397119Y0153369D02*
X0397119Y0150369D01*
X0402465Y0150369D01*
X0402146Y0148043D01*
X0402119Y0147846D01*
X0402465Y0150369D02*
X0419518Y0150369D01*
X0401772Y0133500D02*
X0400619Y0131240D01*
D67*
X0397119Y0115500D03*
X0336306Y0105187D03*
X0328994Y0103625D03*
X0315994Y0116750D03*
X0359619Y0088937D03*
X0386619Y0076084D03*
X0366619Y0075500D03*
X0356619Y0075500D03*
X0371619Y0055500D03*
X0346619Y0040500D03*
X0361619Y0035500D03*
X0377869Y0038500D03*
X0431619Y0060500D03*
X0446619Y0060500D03*
X0411174Y0065056D03*
X0409306Y0070813D03*
X0408869Y0079000D03*
X0409463Y0087500D03*
X0457495Y0085500D03*
X0315369Y0054875D03*
X0219119Y0080000D03*
X0236556Y0093937D03*
X0180619Y0114500D03*
X0119869Y0137750D03*
X0081369Y0148438D03*
X0130119Y0160625D03*
X0081244Y0125500D03*
X0071619Y0105500D03*
X0107244Y0089875D03*
X0111994Y0090250D03*
X0117869Y0096625D03*
X0114756Y0099816D03*
X0104119Y0084250D03*
X0100119Y0080500D03*
X0101619Y0075500D03*
X0045404Y0080559D03*
X0230758Y0161530D03*
X0316619Y0155419D03*
X0388119Y0183000D03*
X0397119Y0153369D03*
D68*
X0408312Y0145539D02*
X0409272Y0146500D01*
X0408312Y0145539D02*
X0408312Y0138437D01*
X0367379Y0126750D02*
X0363889Y0123260D01*
X0363889Y0119560D01*
X0362559Y0118230D01*
X0358416Y0118230D01*
X0355228Y0118230D01*
X0353582Y0119875D01*
X0349115Y0119875D01*
X0349115Y0126271D01*
X0345794Y0129592D01*
X0345794Y0131325D01*
X0343869Y0133250D01*
X0340879Y0133250D01*
X0345794Y0134710D02*
X0345794Y0139498D01*
X0346806Y0140510D01*
X0348359Y0135809D02*
X0348359Y0134356D01*
X0351157Y0131557D01*
X0351157Y0124592D01*
X0352085Y0123622D01*
X0354741Y0120966D01*
X0361153Y0120966D01*
X0361619Y0120500D01*
X0349115Y0119875D02*
X0346575Y0119875D01*
X0345294Y0119875D02*
X0323825Y0119875D01*
X0322575Y0118625D01*
X0319119Y0118625D01*
X0317869Y0119875D01*
X0313494Y0119875D01*
X0312544Y0118925D01*
X0309394Y0118925D01*
X0303194Y0118925D01*
X0300044Y0118925D02*
X0300044Y0112724D01*
X0301619Y0112724D02*
X0301619Y0104250D01*
X0304744Y0108000D02*
X0320678Y0108000D01*
X0321601Y0108923D01*
X0322256Y0109569D01*
X0338109Y0109569D01*
X0338606Y0110065D01*
X0343134Y0110065D01*
X0346874Y0113806D01*
X0351238Y0113806D01*
X0352734Y0112309D01*
X0353629Y0112309D01*
X0357293Y0107191D02*
X0355614Y0105511D01*
X0350807Y0105511D01*
X0349056Y0103760D01*
X0357293Y0107191D02*
X0361109Y0107191D01*
X0322262Y0109563D02*
X0322256Y0109569D01*
X0322256Y0109569D01*
X0322262Y0109563D02*
X0322262Y0109562D01*
X0321446Y0111214D02*
X0319883Y0109651D01*
X0305370Y0109651D01*
X0304768Y0110252D01*
X0304768Y0112724D01*
X0303194Y0112724D02*
X0303194Y0109550D01*
X0304744Y0108000D01*
X0307244Y0111750D02*
X0319153Y0111750D01*
X0320403Y0113000D01*
X0317809Y0113625D02*
X0320622Y0116437D01*
X0315994Y0116750D02*
X0315344Y0117350D01*
X0309394Y0117350D01*
X0309394Y0115776D02*
X0310718Y0115776D01*
X0312869Y0113625D01*
X0317809Y0113625D01*
X0307244Y0111750D02*
X0306343Y0112651D01*
X0306343Y0112724D01*
X0300044Y0118925D02*
X0293843Y0118925D01*
X0293843Y0120500D02*
X0288556Y0120500D01*
X0285944Y0122075D02*
X0281494Y0117625D01*
X0285944Y0122075D02*
X0293843Y0122075D01*
X0293843Y0123650D02*
X0288691Y0123650D01*
X0286215Y0126125D01*
X0290994Y0125224D02*
X0290994Y0128625D01*
X0290994Y0125224D02*
X0293843Y0125224D01*
X0296894Y0128276D02*
X0296894Y0128974D01*
X0294119Y0131750D01*
X0296619Y0135500D02*
X0298469Y0133650D01*
X0298469Y0128276D01*
X0300044Y0128276D02*
X0300044Y0137675D01*
X0301619Y0139250D01*
X0303494Y0134250D02*
X0301619Y0132375D01*
X0301619Y0128276D01*
X0303194Y0128276D02*
X0303194Y0122075D01*
X0309394Y0122075D02*
X0311919Y0122075D01*
X0312244Y0121750D01*
X0320994Y0121750D01*
X0320994Y0122075D01*
X0320994Y0121750D02*
X0320428Y0121809D01*
X0317244Y0124816D02*
X0315309Y0124875D01*
X0314119Y0124875D01*
X0312844Y0123650D01*
X0309394Y0123650D01*
X0309394Y0125224D02*
X0311343Y0125224D01*
X0314119Y0128000D01*
X0309744Y0131125D02*
X0306894Y0128276D01*
X0306343Y0128276D01*
X0304768Y0128276D02*
X0304768Y0131150D01*
X0306244Y0132625D01*
X0306244Y0146375D01*
X0315369Y0155500D01*
X0316619Y0155500D01*
X0345794Y0134710D02*
X0348359Y0132144D01*
X0348359Y0130691D01*
X0152571Y0110500D02*
X0152446Y0110626D01*
X0152446Y0111051D01*
D69*
X0139119Y0107500D03*
X0155619Y0094000D03*
X0149369Y0083457D03*
X0186619Y0094000D03*
X0176202Y0103412D03*
X0197576Y0110293D03*
X0190908Y0116994D03*
X0182749Y0121222D03*
X0213119Y0110500D03*
X0220619Y0112500D03*
X0227119Y0115000D03*
X0228619Y0112000D03*
X0228119Y0121500D03*
X0228119Y0125000D03*
X0221874Y0133245D03*
X0218223Y0137000D03*
X0199119Y0148000D03*
X0196345Y0150774D03*
X0209619Y0152000D03*
X0221536Y0156214D03*
X0214217Y0160598D03*
X0181619Y0148000D03*
X0174408Y0153000D03*
X0175908Y0142278D03*
X0175908Y0138500D03*
X0181619Y0133500D03*
X0136619Y0153000D03*
X0125119Y0154000D03*
X0112230Y0139911D03*
X0110119Y0137500D03*
X0110119Y0134350D03*
X0129119Y0137000D03*
X0122619Y0121000D03*
X0071374Y0123000D03*
X0054619Y0131500D03*
X0062619Y0139500D03*
X0071115Y0149188D03*
X0079119Y0170250D03*
X0262767Y0146961D03*
X0268345Y0140552D03*
X0270119Y0136000D03*
X0266619Y0131000D03*
X0266092Y0127000D03*
X0262119Y0126000D03*
X0274619Y0125000D03*
X0273470Y0120914D03*
X0280147Y0121125D03*
X0281494Y0117625D03*
X0284994Y0110937D03*
X0283872Y0105500D03*
X0283830Y0101226D03*
X0279688Y0097419D03*
X0275975Y0095789D03*
X0283761Y0095937D03*
X0294522Y0097687D03*
X0307244Y0098000D03*
X0295369Y0086437D03*
X0304122Y0080497D03*
X0272406Y0069999D03*
X0259619Y0067000D03*
X0255494Y0073750D03*
X0264752Y0074627D03*
X0259119Y0077000D03*
X0252247Y0076817D03*
X0240619Y0079524D03*
X0224119Y0076500D03*
X0219436Y0072222D03*
X0225436Y0066155D03*
X0252119Y0062000D03*
X0269619Y0080500D03*
X0260962Y0083313D03*
X0264228Y0086625D03*
X0231619Y0097108D03*
X0244119Y0099851D03*
X0262119Y0102285D03*
X0264545Y0099851D03*
X0268489Y0099851D03*
X0272267Y0099970D03*
X0262119Y0107444D03*
X0262119Y0111222D03*
X0262119Y0115000D03*
X0290994Y0128625D03*
X0294119Y0131750D03*
X0296619Y0135500D03*
X0301619Y0139250D03*
X0303494Y0134250D03*
X0309744Y0131125D03*
X0314119Y0128000D03*
X0317244Y0124816D03*
X0320994Y0121750D03*
X0317244Y0135500D03*
X0343119Y0139500D03*
X0361619Y0120500D03*
X0290369Y0146125D03*
X0285369Y0146750D03*
X0282869Y0143000D03*
X0282089Y0138470D03*
X0199442Y0083313D03*
X0164119Y0069500D03*
X0166927Y0065808D03*
X0173361Y0059413D03*
X0177954Y0054836D03*
X0183677Y0049058D03*
X0237619Y0021500D03*
X0099505Y0052614D03*
X0099505Y0057614D03*
X0057119Y0034500D03*
X0062119Y0024000D03*
D70*
X0282730Y0108638D02*
X0282784Y0108584D01*
X0282730Y0108638D02*
X0282730Y0111875D01*
X0284181Y0113326D01*
X0284181Y0116125D01*
X0288556Y0120500D01*
X0289915Y0117350D02*
X0289846Y0117281D01*
X0289915Y0117350D02*
X0293843Y0117350D01*
X0296894Y0112724D02*
X0286781Y0112724D01*
X0284994Y0110937D01*
X0320403Y0113000D02*
X0331465Y0113000D01*
X0335119Y0116654D01*
X0327119Y0116654D02*
X0327117Y0116626D01*
X0327112Y0116598D01*
X0327103Y0116571D01*
X0327090Y0116546D01*
X0327074Y0116523D01*
X0327056Y0116501D01*
X0327034Y0116483D01*
X0327011Y0116467D01*
X0326986Y0116454D01*
X0326959Y0116445D01*
X0326931Y0116440D01*
X0326903Y0116438D01*
X0326903Y0116437D02*
X0320622Y0116437D01*
X0321446Y0111214D02*
X0337679Y0111214D01*
X0343119Y0116654D01*
X0345294Y0119875D02*
X0346575Y0119875D01*
X0343119Y0123346D02*
X0343028Y0123346D01*
X0335524Y0130850D01*
X0320994Y0125625D02*
X0317244Y0129375D01*
X0317244Y0135500D01*
X0320994Y0125625D02*
X0320994Y0121750D01*
X0357119Y0129646D02*
X0357119Y0141500D01*
X0364619Y0141500D01*
X0364619Y0139000D01*
X0365119Y0138500D01*
X0366024Y0138500D01*
X0366512Y0138012D01*
X0368320Y0138012D01*
X0368400Y0138093D01*
X0368481Y0138012D01*
X0370288Y0138012D01*
X0370369Y0138093D01*
X0370449Y0138012D01*
X0372257Y0138012D01*
X0372745Y0138500D01*
X0374119Y0138500D01*
X0374119Y0130696D01*
X0372733Y0130696D01*
X0372640Y0130789D01*
X0372640Y0130916D01*
X0372839Y0131114D01*
X0372839Y0133906D01*
X0372257Y0134488D01*
X0370449Y0134488D01*
X0370369Y0134407D01*
X0370288Y0134488D01*
X0368481Y0134488D01*
X0367899Y0133906D01*
X0367899Y0131114D01*
X0368481Y0130532D01*
X0370066Y0130532D01*
X0370066Y0129723D01*
X0370619Y0129170D01*
X0370619Y0122500D01*
X0368119Y0120000D01*
X0364101Y0120000D01*
X0364101Y0121528D01*
X0362647Y0122983D01*
X0360590Y0122983D01*
X0359868Y0122260D01*
X0359243Y0122260D01*
X0360765Y0123782D01*
X0360765Y0127218D01*
X0358336Y0129646D01*
X0357119Y0129646D01*
X0357119Y0129745D02*
X0370066Y0129745D01*
X0370066Y0130531D02*
X0357119Y0130531D01*
X0357119Y0131316D02*
X0367899Y0131316D01*
X0367899Y0132102D02*
X0357119Y0132102D01*
X0357119Y0132888D02*
X0367899Y0132888D01*
X0367416Y0132510D02*
X0367416Y0136250D01*
X0370369Y0136250D01*
X0362879Y0136250D01*
X0360619Y0138510D01*
X0357119Y0138390D02*
X0366135Y0138390D01*
X0364619Y0139176D02*
X0357119Y0139176D01*
X0357119Y0139962D02*
X0364619Y0139962D01*
X0364619Y0140747D02*
X0357119Y0140747D01*
X0354119Y0143000D02*
X0352119Y0145000D01*
X0352119Y0151500D01*
X0352619Y0152000D01*
X0373119Y0152000D01*
X0374619Y0150500D01*
X0374619Y0141575D01*
X0374225Y0141968D01*
X0372418Y0141968D01*
X0371836Y0141386D01*
X0371836Y0140000D01*
X0370870Y0140000D01*
X0370870Y0141386D01*
X0370672Y0141584D01*
X0370672Y0144413D01*
X0370619Y0144466D01*
X0370619Y0150000D01*
X0370119Y0150500D01*
X0370619Y0151000D01*
X0365119Y0151000D01*
X0363619Y0149500D01*
X0363619Y0143000D01*
X0354119Y0143000D01*
X0354014Y0143105D02*
X0363619Y0143105D01*
X0363619Y0143891D02*
X0353228Y0143891D01*
X0352442Y0144677D02*
X0363619Y0144677D01*
X0363619Y0145463D02*
X0352119Y0145463D01*
X0352119Y0146249D02*
X0363619Y0146249D01*
X0363619Y0147035D02*
X0352119Y0147035D01*
X0352119Y0147821D02*
X0363619Y0147821D01*
X0363619Y0148607D02*
X0352119Y0148607D01*
X0352119Y0149392D02*
X0363619Y0149392D01*
X0364297Y0150178D02*
X0352119Y0150178D01*
X0352119Y0150964D02*
X0365083Y0150964D01*
X0365376Y0149437D02*
X0369119Y0149437D01*
X0369119Y0144000D01*
X0369331Y0143787D01*
X0369331Y0139787D01*
X0368902Y0139787D01*
X0368902Y0141386D01*
X0368320Y0141968D01*
X0368151Y0141968D01*
X0368119Y0142000D01*
X0366119Y0142000D01*
X0365119Y0143000D01*
X0365119Y0149179D01*
X0365376Y0149437D01*
X0365332Y0149392D02*
X0369119Y0149392D01*
X0369119Y0148607D02*
X0365119Y0148607D01*
X0365119Y0147821D02*
X0369119Y0147821D01*
X0369119Y0147035D02*
X0365119Y0147035D01*
X0365119Y0146249D02*
X0369119Y0146249D01*
X0369119Y0145463D02*
X0365119Y0145463D01*
X0365119Y0144677D02*
X0369119Y0144677D01*
X0369228Y0143891D02*
X0365119Y0143891D01*
X0365119Y0143105D02*
X0369331Y0143105D01*
X0369384Y0143880D02*
X0367264Y0146000D01*
X0370619Y0146249D02*
X0374619Y0146249D01*
X0374619Y0147035D02*
X0370619Y0147035D01*
X0370619Y0147821D02*
X0374619Y0147821D01*
X0374619Y0148607D02*
X0370619Y0148607D01*
X0370619Y0149392D02*
X0374619Y0149392D01*
X0374619Y0150178D02*
X0370440Y0150178D01*
X0370583Y0150964D02*
X0374154Y0150964D01*
X0373369Y0151750D02*
X0352369Y0151750D01*
X0354175Y0150195D02*
X0355645Y0150724D01*
X0372973Y0150724D01*
X0372973Y0146000D01*
X0371353Y0144380D01*
X0371353Y0139990D01*
X0370870Y0140747D02*
X0371836Y0140747D01*
X0371983Y0141533D02*
X0370723Y0141533D01*
X0370672Y0142319D02*
X0374619Y0142319D01*
X0374619Y0143105D02*
X0370672Y0143105D01*
X0370672Y0143891D02*
X0374619Y0143891D01*
X0374619Y0144677D02*
X0370619Y0144677D01*
X0370619Y0145463D02*
X0374619Y0145463D01*
X0369384Y0143880D02*
X0369384Y0139990D01*
X0369331Y0139962D02*
X0368902Y0139962D01*
X0368902Y0140747D02*
X0369331Y0140747D01*
X0369331Y0141533D02*
X0368754Y0141533D01*
X0369331Y0142319D02*
X0365799Y0142319D01*
X0373321Y0139990D02*
X0373321Y0136250D01*
X0370369Y0136250D01*
X0370316Y0134460D02*
X0370422Y0134460D01*
X0372284Y0134460D02*
X0374119Y0134460D01*
X0374119Y0133674D02*
X0372839Y0133674D01*
X0372839Y0132888D02*
X0374119Y0132888D01*
X0374119Y0132102D02*
X0372839Y0132102D01*
X0373321Y0132510D02*
X0373321Y0136250D01*
X0374119Y0136032D02*
X0357119Y0136032D01*
X0357119Y0136818D02*
X0374119Y0136818D01*
X0374119Y0137604D02*
X0357119Y0137604D01*
X0357119Y0135246D02*
X0374119Y0135246D01*
X0374119Y0138390D02*
X0372634Y0138390D01*
X0368453Y0134460D02*
X0357119Y0134460D01*
X0357119Y0133674D02*
X0367899Y0133674D01*
X0367416Y0132510D02*
X0367379Y0132472D01*
X0367379Y0126750D01*
X0367379Y0125899D02*
X0363421Y0125899D01*
X0360765Y0125815D02*
X0370619Y0125815D01*
X0370619Y0125029D02*
X0360765Y0125029D01*
X0360765Y0124243D02*
X0370619Y0124243D01*
X0370619Y0123457D02*
X0360440Y0123457D01*
X0360279Y0122671D02*
X0359654Y0122671D01*
X0362958Y0122671D02*
X0370619Y0122671D01*
X0370004Y0121886D02*
X0363744Y0121886D01*
X0364101Y0121100D02*
X0369218Y0121100D01*
X0368432Y0120314D02*
X0364101Y0120314D01*
X0360765Y0126601D02*
X0370619Y0126601D01*
X0370619Y0127387D02*
X0360596Y0127387D01*
X0359810Y0128173D02*
X0370619Y0128173D01*
X0370619Y0128959D02*
X0359024Y0128959D01*
X0369384Y0132510D02*
X0371353Y0132510D01*
X0371353Y0130256D01*
X0374859Y0126750D01*
X0374119Y0131316D02*
X0372839Y0131316D01*
X0239213Y0132091D02*
X0239029Y0132275D01*
X0239029Y0134367D01*
X0236896Y0136500D01*
X0220924Y0136500D01*
X0219160Y0134736D01*
X0214729Y0134736D01*
X0210965Y0139500D01*
X0214223Y0138873D02*
X0214223Y0143243D01*
X0210965Y0147500D01*
X0200320Y0145463D02*
X0199119Y0146664D01*
X0199119Y0148000D01*
X0200320Y0145463D02*
X0200320Y0141695D01*
X0199743Y0141118D01*
X0197859Y0141118D01*
X0197367Y0140626D01*
X0214223Y0138873D02*
X0215199Y0137898D01*
X0217325Y0137898D01*
X0218223Y0137000D01*
X0224272Y0133245D02*
X0225796Y0134769D01*
X0236232Y0134769D01*
X0237167Y0133834D01*
X0237167Y0132169D01*
X0224272Y0133245D02*
X0221874Y0133245D01*
D71*
X0256103Y0153625D02*
X0262767Y0146961D01*
X0256103Y0153625D02*
X0237837Y0153625D01*
X0233221Y0158241D01*
X0223878Y0158241D01*
X0216644Y0165475D01*
X0216644Y0167630D01*
X0216619Y0167656D01*
X0216619Y0171603D01*
X0124119Y0175500D02*
X0124119Y0165971D01*
X0121883Y0163736D01*
X0119369Y0161221D01*
X0118647Y0160500D01*
X0109619Y0160500D01*
X0107717Y0155091D02*
X0118807Y0155091D01*
X0119369Y0154529D01*
X0107717Y0155091D02*
X0105028Y0152401D01*
X0105028Y0143409D01*
X0104619Y0143000D01*
X0086806Y0143000D01*
X0081369Y0148438D01*
X0084819Y0148512D02*
X0084819Y0174300D01*
X0084119Y0175500D01*
X0051631Y0174000D02*
X0051631Y0165331D01*
X0051131Y0173500D02*
X0046119Y0173500D01*
X0051131Y0173500D02*
X0051631Y0174000D01*
X0051631Y0181669D01*
X0051690Y0181728D01*
X0119140Y0181728D01*
X0124119Y0176750D01*
X0124119Y0175500D01*
X0099619Y0150500D02*
X0096407Y0150500D01*
X0091607Y0145700D01*
X0087630Y0145700D01*
X0084819Y0148512D01*
X0104619Y0143000D02*
X0112917Y0143000D01*
X0116018Y0139899D01*
X0118167Y0137750D01*
X0119869Y0137750D01*
X0059119Y0143654D02*
X0050619Y0143654D01*
X0043725Y0143654D01*
X0042119Y0145260D01*
X0048225Y0152740D02*
X0050619Y0150346D01*
X0059119Y0150346D01*
X0048225Y0152740D02*
X0042119Y0152740D01*
X0042119Y0157500D01*
X0042119Y0152740D02*
X0026847Y0152740D01*
X0021619Y0147512D01*
X0021619Y0101425D01*
X0029062Y0101425D01*
X0029062Y0089560D01*
X0029401Y0089220D01*
X0025369Y0085720D01*
X0025369Y0049457D01*
X0025518Y0049457D02*
X0028162Y0049457D01*
X0040119Y0037500D01*
X0040119Y0033490D01*
X0040107Y0033478D01*
X0040607Y0034169D01*
X0071619Y0024000D02*
X0078977Y0024000D01*
X0083518Y0019460D01*
X0142397Y0019460D01*
X0146937Y0024000D01*
X0154296Y0024000D01*
X0183677Y0049058D02*
X0183677Y0049151D01*
X0190130Y0055604D01*
X0202100Y0067575D02*
X0206025Y0071500D01*
X0212395Y0071500D01*
X0223229Y0060666D01*
X0229453Y0060666D01*
X0244119Y0046000D01*
X0244119Y0032715D01*
X0237271Y0025866D01*
X0237119Y0025500D02*
X0237119Y0022707D01*
X0237121Y0022628D01*
X0237126Y0022550D01*
X0237135Y0022471D01*
X0237148Y0022393D01*
X0237164Y0022316D01*
X0237184Y0022240D01*
X0237207Y0022165D01*
X0237234Y0022090D01*
X0237264Y0022018D01*
X0237298Y0021946D01*
X0237335Y0021876D01*
X0237375Y0021808D01*
X0237418Y0021742D01*
X0237464Y0021678D01*
X0237513Y0021616D01*
X0237565Y0021557D01*
X0237619Y0021500D01*
X0237119Y0025500D02*
X0237121Y0025545D01*
X0237127Y0025590D01*
X0237137Y0025634D01*
X0237150Y0025677D01*
X0237168Y0025719D01*
X0237188Y0025759D01*
X0237213Y0025797D01*
X0237240Y0025833D01*
X0237271Y0025866D01*
X0246935Y0036456D02*
X0249825Y0033566D01*
X0253912Y0033566D01*
X0255096Y0034750D01*
X0259119Y0034750D01*
X0246935Y0036456D02*
X0246935Y0046684D01*
X0230553Y0063066D01*
X0224223Y0063066D01*
X0212895Y0074395D01*
X0203873Y0074395D01*
X0202621Y0073143D01*
X0196533Y0073143D01*
X0220181Y0093937D02*
X0208619Y0105500D01*
X0208619Y0107868D01*
X0202308Y0114179D01*
X0197213Y0114179D01*
X0180940Y0114179D01*
X0180619Y0114500D01*
X0220181Y0093937D02*
X0236556Y0093937D01*
X0335881Y0097500D02*
X0335881Y0099762D01*
X0361658Y0096484D02*
X0361658Y0091684D01*
X0363003Y0090339D01*
X0363003Y0087536D01*
X0361021Y0085553D01*
X0360994Y0085553D01*
X0360994Y0075500D01*
X0366619Y0075500D01*
X0360994Y0075500D02*
X0360994Y0066125D01*
X0361619Y0065500D01*
X0361619Y0061159D01*
X0355999Y0055539D01*
X0350634Y0055539D01*
X0361658Y0051713D02*
X0361658Y0044516D01*
X0369138Y0044516D02*
X0376619Y0044516D01*
X0384099Y0044516D02*
X0391579Y0044516D01*
X0391212Y0044148D01*
X0391212Y0055133D01*
X0402564Y0055500D02*
X0402603Y0055539D01*
X0402564Y0055500D02*
X0371619Y0055500D01*
X0365445Y0055500D01*
X0361658Y0051713D01*
X0346619Y0040500D02*
X0332619Y0054500D01*
X0327642Y0054500D01*
X0377869Y0038500D02*
X0391212Y0038500D01*
X0391212Y0044148D01*
X0391212Y0038500D02*
X0396619Y0038500D01*
X0396619Y0035500D01*
X0401619Y0030500D01*
X0419279Y0030500D01*
X0419279Y0029503D01*
X0420713Y0030500D01*
X0420713Y0030499D02*
X0420644Y0030510D01*
X0420576Y0030516D01*
X0420506Y0030519D01*
X0420437Y0030518D01*
X0420368Y0030513D01*
X0420299Y0030504D01*
X0420231Y0030491D01*
X0420164Y0030474D01*
X0420098Y0030454D01*
X0420033Y0030430D01*
X0419969Y0030402D01*
X0419907Y0030371D01*
X0419847Y0030336D01*
X0419789Y0030298D01*
X0419734Y0030257D01*
X0419680Y0030213D01*
X0419629Y0030166D01*
X0419581Y0030116D01*
X0419536Y0030064D01*
X0419494Y0030009D01*
X0419455Y0029951D01*
X0419419Y0029892D01*
X0419387Y0029831D01*
X0419358Y0029768D01*
X0419332Y0029703D01*
X0419311Y0029638D01*
X0419293Y0029571D01*
X0419279Y0029503D01*
X0419279Y0030500D02*
X0431619Y0030500D01*
X0438806Y0037626D01*
X0457495Y0037626D01*
X0446619Y0025187D02*
X0446619Y0017779D01*
X0447022Y0017375D01*
X0453715Y0017375D02*
X0460056Y0017375D01*
X0369138Y0035785D02*
X0368228Y0034875D01*
X0446619Y0060500D02*
X0446619Y0061000D01*
X0478334Y0061000D01*
X0457495Y0084622D02*
X0419279Y0084622D01*
X0402603Y0085461D02*
X0402426Y0085638D01*
X0391619Y0085638D01*
X0391619Y0095500D01*
X0391622Y0095503D01*
X0391622Y0096442D01*
X0391579Y0096484D01*
X0391619Y0085638D02*
X0391619Y0081084D01*
X0386619Y0076084D01*
X0360994Y0085553D02*
X0350727Y0085553D01*
X0350634Y0085461D01*
X0350634Y0077980D02*
X0354138Y0077980D01*
X0356619Y0075500D01*
X0457495Y0084622D02*
X0457495Y0085500D01*
X0402119Y0141154D02*
X0393619Y0141154D01*
X0385369Y0141154D01*
X0129619Y0060500D02*
X0129619Y0052100D01*
X0038904Y0089220D02*
X0029401Y0089220D01*
D72*
X0186619Y0107500D03*
X0202619Y0106000D03*
X0315994Y0098937D03*
X0368369Y0104750D03*
X0356619Y0125500D03*
X0311619Y0144250D03*
X0463181Y0127997D03*
X0251869Y0038500D03*
X0259119Y0034750D03*
X0446619Y0025187D03*
X0135994Y0169875D03*
X0147869Y0178000D03*
D73*
X0457495Y0037626D03*
X0460056Y0017375D03*
D74*
X0478334Y0029503D02*
X0493872Y0029503D01*
X0493932Y0029505D01*
X0493992Y0029510D01*
X0494052Y0029519D01*
X0494111Y0029532D01*
X0494169Y0029548D01*
X0494226Y0029568D01*
X0494281Y0029591D01*
X0494335Y0029617D01*
X0494388Y0029647D01*
X0494438Y0029679D01*
X0494487Y0029715D01*
X0494533Y0029754D01*
X0494577Y0029795D01*
X0494618Y0029839D01*
X0494657Y0029885D01*
X0494693Y0029934D01*
X0494725Y0029984D01*
X0494755Y0030037D01*
X0494781Y0030091D01*
X0494804Y0030146D01*
X0494824Y0030203D01*
X0494840Y0030261D01*
X0494853Y0030320D01*
X0494862Y0030380D01*
X0494867Y0030440D01*
X0494869Y0030500D01*
X0491746Y0037377D02*
X0478334Y0037377D01*
X0491746Y0037377D02*
X0491857Y0037379D01*
X0491969Y0037385D01*
X0492080Y0037395D01*
X0492190Y0037409D01*
X0492300Y0037427D01*
X0492410Y0037448D01*
X0492518Y0037474D01*
X0492626Y0037504D01*
X0492732Y0037537D01*
X0492837Y0037574D01*
X0492941Y0037615D01*
X0493043Y0037659D01*
X0493144Y0037707D01*
X0493243Y0037759D01*
X0493340Y0037814D01*
X0493434Y0037873D01*
X0493527Y0037935D01*
X0493618Y0038000D01*
X0493706Y0038068D01*
X0493791Y0038140D01*
X0493874Y0038214D01*
X0493954Y0038292D01*
X0494032Y0038372D01*
X0494106Y0038455D01*
X0494178Y0038540D01*
X0494246Y0038628D01*
X0494311Y0038719D01*
X0494373Y0038812D01*
X0494432Y0038906D01*
X0494487Y0039003D01*
X0494539Y0039102D01*
X0494587Y0039203D01*
X0494631Y0039305D01*
X0494672Y0039409D01*
X0494709Y0039514D01*
X0494742Y0039620D01*
X0494772Y0039728D01*
X0494798Y0039836D01*
X0494819Y0039946D01*
X0494837Y0040056D01*
X0494851Y0040166D01*
X0494861Y0040277D01*
X0494867Y0040389D01*
X0494869Y0040500D01*
X0476931Y0173253D02*
X0452915Y0173253D01*
D75*
X0415619Y0172500D02*
X0410119Y0178000D01*
X0147869Y0178000D01*
X0137222Y0171603D02*
X0135994Y0169875D01*
X0137222Y0171603D02*
X0216619Y0171603D01*
X0339744Y0171603D01*
X0339744Y0162052D01*
X0346806Y0154990D01*
X0346806Y0147990D01*
X0347739Y0148923D01*
X0354175Y0148923D01*
X0354175Y0128056D01*
X0356619Y0125500D01*
X0367379Y0125899D02*
X0367379Y0124711D01*
X0367379Y0125899D02*
X0367379Y0126750D01*
X0314119Y0146750D02*
X0311619Y0144250D01*
X0314119Y0146750D02*
X0321107Y0146750D01*
X0354175Y0148923D02*
X0354175Y0150195D01*
X0415369Y0165766D02*
X0415634Y0165500D01*
X0426418Y0138540D02*
X0442595Y0138540D01*
X0444484Y0136651D01*
X0444484Y0112865D01*
X0447162Y0110687D01*
X0476114Y0110687D01*
X0476114Y0102813D02*
X0446306Y0102813D01*
X0440119Y0109000D01*
X0463181Y0127997D02*
X0463556Y0128372D01*
X0476931Y0128372D01*
X0427119Y0137240D02*
X0426418Y0138540D01*
X0324857Y0098937D02*
X0315994Y0098937D01*
X0324857Y0098937D02*
X0324857Y0097500D01*
X0259119Y0047500D02*
X0232815Y0073804D01*
X0232815Y0080507D01*
X0224232Y0089091D01*
X0219528Y0089091D01*
X0202619Y0106000D01*
X0195893Y0098091D02*
X0188483Y0105500D01*
X0186619Y0107500D01*
X0195893Y0098091D02*
X0201399Y0098091D01*
X0214989Y0084500D01*
X0222330Y0084500D01*
X0228225Y0078606D01*
X0228225Y0071606D01*
X0251869Y0047962D01*
X0251869Y0038500D01*
X0259119Y0034750D02*
X0259119Y0047500D01*
X0457495Y0037626D02*
X0478085Y0037626D01*
X0478115Y0037624D01*
X0478145Y0037619D01*
X0478173Y0037610D01*
X0478201Y0037597D01*
X0478226Y0037582D01*
X0478250Y0037563D01*
X0478271Y0037542D01*
X0478290Y0037518D01*
X0478305Y0037493D01*
X0478318Y0037465D01*
X0478327Y0037437D01*
X0478332Y0037407D01*
X0478334Y0037377D01*
X0494869Y0020500D02*
X0494867Y0020388D01*
X0494861Y0020277D01*
X0494851Y0020166D01*
X0494837Y0020055D01*
X0494819Y0019945D01*
X0494798Y0019836D01*
X0494772Y0019727D01*
X0494742Y0019620D01*
X0494709Y0019513D01*
X0494672Y0019408D01*
X0494631Y0019304D01*
X0494587Y0019202D01*
X0494538Y0019101D01*
X0494487Y0019002D01*
X0494432Y0018905D01*
X0494373Y0018810D01*
X0494311Y0018718D01*
X0494246Y0018627D01*
X0494177Y0018539D01*
X0494106Y0018454D01*
X0494031Y0018371D01*
X0493954Y0018290D01*
X0493873Y0018213D01*
X0493790Y0018138D01*
X0493705Y0018067D01*
X0493617Y0017998D01*
X0493526Y0017933D01*
X0493434Y0017871D01*
X0493339Y0017812D01*
X0493242Y0017757D01*
X0493143Y0017706D01*
X0493042Y0017657D01*
X0492940Y0017613D01*
X0492836Y0017572D01*
X0492731Y0017535D01*
X0492624Y0017502D01*
X0492517Y0017472D01*
X0492408Y0017446D01*
X0492299Y0017425D01*
X0492189Y0017407D01*
X0492078Y0017393D01*
X0491967Y0017383D01*
X0491856Y0017377D01*
X0491744Y0017375D01*
X0460056Y0017375D01*
D76*
X0446619Y0025187D02*
X0443117Y0021750D01*
X0403494Y0021750D01*
X0390369Y0034875D01*
X0379119Y0034875D01*
X0379119Y0030500D01*
X0371619Y0023000D01*
X0371619Y0020500D01*
X0368228Y0034875D02*
X0362244Y0034875D01*
X0361619Y0035500D01*
X0368228Y0034875D02*
X0379119Y0034875D01*
X0369138Y0035785D02*
X0369138Y0044516D01*
X0335881Y0097500D02*
X0340788Y0102407D01*
X0340788Y0107500D01*
X0345494Y0106076D02*
X0349056Y0109639D01*
X0349056Y0111240D01*
X0345494Y0106076D02*
X0345494Y0101443D01*
X0346542Y0100394D01*
X0351569Y0100394D01*
X0354495Y0103321D01*
X0356892Y0103321D01*
X0362035Y0103321D01*
X0363473Y0104759D01*
X0368369Y0104759D01*
X0397119Y0115500D02*
X0397119Y0118488D01*
X0400619Y0123760D01*
X0397343Y0122154D01*
X0392619Y0123760D01*
X0384619Y0123760D01*
X0384619Y0131240D02*
X0389375Y0132346D01*
X0388619Y0133102D01*
X0389375Y0132346D02*
X0392619Y0131240D01*
X0400619Y0131240D01*
X0426859Y0130760D02*
X0429119Y0128500D01*
X0338538Y0144250D02*
X0336038Y0146750D01*
X0332131Y0146750D01*
D77*
X0182056Y0144563D02*
X0181619Y0144563D01*
D78*
X0136654Y0134012D03*
X0110119Y0131000D03*
X0370369Y0136250D03*
X0419619Y0142500D03*
X0425619Y0141000D03*
D79*
X0348119Y0160480D03*
X0289846Y0117281D03*
X0144119Y0067000D03*
X0129619Y0064500D03*
X0124119Y0130000D03*
X0042119Y0157500D03*
X0046119Y0173500D03*
D80*
X0378119Y0137000D03*
D81*
X0379349Y0131240D02*
X0374859Y0126750D01*
X0379349Y0131240D02*
X0384619Y0131240D01*
D82*
X0495681Y0178312D03*
X0026306Y0178312D03*
X0026306Y0020500D03*
D83*
X0440119Y0109000D03*
M02*
