G75*
%MOIN*%
%OFA0B0*%
%FSLAX25Y25*%
%IPPOS*%
%LPD*%
%AMOC8*
5,1,8,0,0,1.08239X$1,22.5*
%
%ADD10C,0.00000*%
%ADD11R,0.04331X0.03937*%
%ADD12R,0.07087X0.06299*%
%ADD13R,0.06299X0.07087*%
%ADD14C,0.06400*%
%ADD15C,0.07400*%
%ADD16R,0.06299X0.06299*%
%ADD17C,0.06299*%
%ADD18R,0.18110X0.03937*%
%ADD19R,0.13386X0.06299*%
%ADD20R,0.03543X0.03150*%
%ADD21R,0.03150X0.03543*%
%ADD22R,0.03937X0.04331*%
%ADD23R,0.04724X0.02362*%
%ADD24R,0.07480X0.05512*%
%ADD25R,0.05512X0.07087*%
%ADD26R,0.05906X0.02756*%
%ADD27R,0.00984X0.01969*%
%ADD28R,0.06299X0.03543*%
%ADD29R,0.00984X0.02756*%
%ADD30R,0.02756X0.00984*%
%ADD31R,0.20472X0.12598*%
%ADD32R,0.00886X0.01673*%
%ADD33R,0.11811X0.04724*%
%ADD34R,0.00787X0.03346*%
%ADD35R,0.03346X0.00787*%
%ADD36R,0.10433X0.10433*%
%ADD37R,0.16000X0.06000*%
%ADD38R,0.16000X0.05000*%
%ADD39R,0.11024X0.09449*%
%ADD40R,0.03858X0.14567*%
%ADD41R,0.05906X0.05118*%
%ADD42R,0.05906X0.07087*%
%ADD43R,0.07087X0.05906*%
%ADD44C,0.00591*%
%ADD45C,0.01969*%
%ADD46R,0.02559X0.04134*%
%ADD47R,0.02165X0.04724*%
%ADD48R,0.01600X0.03200*%
%ADD49R,0.06299X0.05512*%
%ADD50R,0.00984X0.03937*%
%ADD51R,0.03937X0.00984*%
%ADD52R,0.07874X0.07874*%
%ADD53R,0.09252X0.01772*%
%ADD54C,0.05118*%
%ADD55R,0.06102X0.05906*%
%ADD56R,0.06693X0.09449*%
%ADD57R,0.05512X0.04331*%
%ADD58R,0.03937X0.10827*%
%ADD59R,0.05906X0.14173*%
%ADD60C,0.01102*%
%ADD61R,0.06535X0.08465*%
%ADD62C,0.03150*%
%ADD63R,0.00906X0.03150*%
%ADD64C,0.01000*%
%ADD65C,0.01200*%
%ADD66OC8,0.03543*%
%ADD67C,0.00800*%
%ADD68OC8,0.02559*%
%ADD69C,0.01600*%
%ADD70C,0.00787*%
%ADD71C,0.02400*%
%ADD72C,0.05000*%
%ADD73OC8,0.07087*%
%ADD74C,0.04000*%
%ADD75OC8,0.06378*%
%ADD76C,0.00600*%
%ADD77OC8,0.03898*%
%ADD78C,0.03200*%
%ADD79OC8,0.22500*%
D10*
X0016619Y0009875D02*
X0016619Y0188103D01*
X0505119Y0188103D01*
X0505320Y0188103D02*
X0505320Y0009875D01*
X0016619Y0009875D01*
X0191362Y0064373D02*
X0191364Y0064461D01*
X0191370Y0064549D01*
X0191380Y0064637D01*
X0191394Y0064725D01*
X0191411Y0064811D01*
X0191433Y0064897D01*
X0191458Y0064981D01*
X0191488Y0065065D01*
X0191520Y0065147D01*
X0191557Y0065227D01*
X0191597Y0065306D01*
X0191641Y0065383D01*
X0191688Y0065458D01*
X0191738Y0065530D01*
X0191792Y0065601D01*
X0191848Y0065668D01*
X0191908Y0065734D01*
X0191970Y0065796D01*
X0192036Y0065856D01*
X0192103Y0065912D01*
X0192174Y0065966D01*
X0192246Y0066016D01*
X0192321Y0066063D01*
X0192398Y0066107D01*
X0192477Y0066147D01*
X0192557Y0066184D01*
X0192639Y0066216D01*
X0192723Y0066246D01*
X0192807Y0066271D01*
X0192893Y0066293D01*
X0192979Y0066310D01*
X0193067Y0066324D01*
X0193155Y0066334D01*
X0193243Y0066340D01*
X0193331Y0066342D01*
X0193419Y0066340D01*
X0193507Y0066334D01*
X0193595Y0066324D01*
X0193683Y0066310D01*
X0193769Y0066293D01*
X0193855Y0066271D01*
X0193939Y0066246D01*
X0194023Y0066216D01*
X0194105Y0066184D01*
X0194185Y0066147D01*
X0194264Y0066107D01*
X0194341Y0066063D01*
X0194416Y0066016D01*
X0194488Y0065966D01*
X0194559Y0065912D01*
X0194626Y0065856D01*
X0194692Y0065796D01*
X0194754Y0065734D01*
X0194814Y0065668D01*
X0194870Y0065601D01*
X0194924Y0065530D01*
X0194974Y0065458D01*
X0195021Y0065383D01*
X0195065Y0065306D01*
X0195105Y0065227D01*
X0195142Y0065147D01*
X0195174Y0065065D01*
X0195204Y0064981D01*
X0195229Y0064897D01*
X0195251Y0064811D01*
X0195268Y0064725D01*
X0195282Y0064637D01*
X0195292Y0064549D01*
X0195298Y0064461D01*
X0195300Y0064373D01*
X0195298Y0064285D01*
X0195292Y0064197D01*
X0195282Y0064109D01*
X0195268Y0064021D01*
X0195251Y0063935D01*
X0195229Y0063849D01*
X0195204Y0063765D01*
X0195174Y0063681D01*
X0195142Y0063599D01*
X0195105Y0063519D01*
X0195065Y0063440D01*
X0195021Y0063363D01*
X0194974Y0063288D01*
X0194924Y0063216D01*
X0194870Y0063145D01*
X0194814Y0063078D01*
X0194754Y0063012D01*
X0194692Y0062950D01*
X0194626Y0062890D01*
X0194559Y0062834D01*
X0194488Y0062780D01*
X0194416Y0062730D01*
X0194341Y0062683D01*
X0194264Y0062639D01*
X0194185Y0062599D01*
X0194105Y0062562D01*
X0194023Y0062530D01*
X0193939Y0062500D01*
X0193855Y0062475D01*
X0193769Y0062453D01*
X0193683Y0062436D01*
X0193595Y0062422D01*
X0193507Y0062412D01*
X0193419Y0062406D01*
X0193331Y0062404D01*
X0193243Y0062406D01*
X0193155Y0062412D01*
X0193067Y0062422D01*
X0192979Y0062436D01*
X0192893Y0062453D01*
X0192807Y0062475D01*
X0192723Y0062500D01*
X0192639Y0062530D01*
X0192557Y0062562D01*
X0192477Y0062599D01*
X0192398Y0062639D01*
X0192321Y0062683D01*
X0192246Y0062730D01*
X0192174Y0062780D01*
X0192103Y0062834D01*
X0192036Y0062890D01*
X0191970Y0062950D01*
X0191908Y0063012D01*
X0191848Y0063078D01*
X0191792Y0063145D01*
X0191738Y0063216D01*
X0191688Y0063288D01*
X0191641Y0063363D01*
X0191597Y0063440D01*
X0191557Y0063519D01*
X0191520Y0063599D01*
X0191488Y0063681D01*
X0191458Y0063765D01*
X0191433Y0063849D01*
X0191411Y0063935D01*
X0191394Y0064021D01*
X0191380Y0064109D01*
X0191370Y0064197D01*
X0191364Y0064285D01*
X0191362Y0064373D01*
X0163523Y0092212D02*
X0163525Y0092300D01*
X0163531Y0092388D01*
X0163541Y0092476D01*
X0163555Y0092564D01*
X0163572Y0092650D01*
X0163594Y0092736D01*
X0163619Y0092820D01*
X0163649Y0092904D01*
X0163681Y0092986D01*
X0163718Y0093066D01*
X0163758Y0093145D01*
X0163802Y0093222D01*
X0163849Y0093297D01*
X0163899Y0093369D01*
X0163953Y0093440D01*
X0164009Y0093507D01*
X0164069Y0093573D01*
X0164131Y0093635D01*
X0164197Y0093695D01*
X0164264Y0093751D01*
X0164335Y0093805D01*
X0164407Y0093855D01*
X0164482Y0093902D01*
X0164559Y0093946D01*
X0164638Y0093986D01*
X0164718Y0094023D01*
X0164800Y0094055D01*
X0164884Y0094085D01*
X0164968Y0094110D01*
X0165054Y0094132D01*
X0165140Y0094149D01*
X0165228Y0094163D01*
X0165316Y0094173D01*
X0165404Y0094179D01*
X0165492Y0094181D01*
X0165580Y0094179D01*
X0165668Y0094173D01*
X0165756Y0094163D01*
X0165844Y0094149D01*
X0165930Y0094132D01*
X0166016Y0094110D01*
X0166100Y0094085D01*
X0166184Y0094055D01*
X0166266Y0094023D01*
X0166346Y0093986D01*
X0166425Y0093946D01*
X0166502Y0093902D01*
X0166577Y0093855D01*
X0166649Y0093805D01*
X0166720Y0093751D01*
X0166787Y0093695D01*
X0166853Y0093635D01*
X0166915Y0093573D01*
X0166975Y0093507D01*
X0167031Y0093440D01*
X0167085Y0093369D01*
X0167135Y0093297D01*
X0167182Y0093222D01*
X0167226Y0093145D01*
X0167266Y0093066D01*
X0167303Y0092986D01*
X0167335Y0092904D01*
X0167365Y0092820D01*
X0167390Y0092736D01*
X0167412Y0092650D01*
X0167429Y0092564D01*
X0167443Y0092476D01*
X0167453Y0092388D01*
X0167459Y0092300D01*
X0167461Y0092212D01*
X0167459Y0092124D01*
X0167453Y0092036D01*
X0167443Y0091948D01*
X0167429Y0091860D01*
X0167412Y0091774D01*
X0167390Y0091688D01*
X0167365Y0091604D01*
X0167335Y0091520D01*
X0167303Y0091438D01*
X0167266Y0091358D01*
X0167226Y0091279D01*
X0167182Y0091202D01*
X0167135Y0091127D01*
X0167085Y0091055D01*
X0167031Y0090984D01*
X0166975Y0090917D01*
X0166915Y0090851D01*
X0166853Y0090789D01*
X0166787Y0090729D01*
X0166720Y0090673D01*
X0166649Y0090619D01*
X0166577Y0090569D01*
X0166502Y0090522D01*
X0166425Y0090478D01*
X0166346Y0090438D01*
X0166266Y0090401D01*
X0166184Y0090369D01*
X0166100Y0090339D01*
X0166016Y0090314D01*
X0165930Y0090292D01*
X0165844Y0090275D01*
X0165756Y0090261D01*
X0165668Y0090251D01*
X0165580Y0090245D01*
X0165492Y0090243D01*
X0165404Y0090245D01*
X0165316Y0090251D01*
X0165228Y0090261D01*
X0165140Y0090275D01*
X0165054Y0090292D01*
X0164968Y0090314D01*
X0164884Y0090339D01*
X0164800Y0090369D01*
X0164718Y0090401D01*
X0164638Y0090438D01*
X0164559Y0090478D01*
X0164482Y0090522D01*
X0164407Y0090569D01*
X0164335Y0090619D01*
X0164264Y0090673D01*
X0164197Y0090729D01*
X0164131Y0090789D01*
X0164069Y0090851D01*
X0164009Y0090917D01*
X0163953Y0090984D01*
X0163899Y0091055D01*
X0163849Y0091127D01*
X0163802Y0091202D01*
X0163758Y0091279D01*
X0163718Y0091358D01*
X0163681Y0091438D01*
X0163649Y0091520D01*
X0163619Y0091604D01*
X0163594Y0091688D01*
X0163572Y0091774D01*
X0163555Y0091860D01*
X0163541Y0091948D01*
X0163531Y0092036D01*
X0163525Y0092124D01*
X0163523Y0092212D01*
X0454931Y0150813D02*
X0454933Y0150939D01*
X0454939Y0151065D01*
X0454949Y0151191D01*
X0454963Y0151317D01*
X0454981Y0151442D01*
X0455003Y0151566D01*
X0455028Y0151690D01*
X0455058Y0151813D01*
X0455091Y0151934D01*
X0455129Y0152055D01*
X0455170Y0152174D01*
X0455215Y0152293D01*
X0455263Y0152409D01*
X0455315Y0152524D01*
X0455371Y0152637D01*
X0455431Y0152749D01*
X0455494Y0152858D01*
X0455560Y0152966D01*
X0455629Y0153071D01*
X0455702Y0153174D01*
X0455779Y0153275D01*
X0455858Y0153373D01*
X0455940Y0153469D01*
X0456026Y0153562D01*
X0456114Y0153653D01*
X0456205Y0153740D01*
X0456299Y0153825D01*
X0456395Y0153906D01*
X0456494Y0153985D01*
X0456595Y0154060D01*
X0456699Y0154132D01*
X0456805Y0154201D01*
X0456913Y0154267D01*
X0457023Y0154329D01*
X0457135Y0154387D01*
X0457248Y0154442D01*
X0457364Y0154493D01*
X0457481Y0154541D01*
X0457599Y0154585D01*
X0457719Y0154625D01*
X0457840Y0154661D01*
X0457962Y0154694D01*
X0458085Y0154723D01*
X0458209Y0154747D01*
X0458333Y0154768D01*
X0458458Y0154785D01*
X0458584Y0154798D01*
X0458710Y0154807D01*
X0458836Y0154812D01*
X0458963Y0154813D01*
X0459089Y0154810D01*
X0459215Y0154803D01*
X0459341Y0154792D01*
X0459466Y0154777D01*
X0459591Y0154758D01*
X0459715Y0154735D01*
X0459839Y0154709D01*
X0459961Y0154678D01*
X0460083Y0154644D01*
X0460203Y0154605D01*
X0460322Y0154563D01*
X0460440Y0154518D01*
X0460556Y0154468D01*
X0460671Y0154415D01*
X0460783Y0154358D01*
X0460894Y0154298D01*
X0461003Y0154234D01*
X0461110Y0154167D01*
X0461215Y0154097D01*
X0461318Y0154023D01*
X0461418Y0153946D01*
X0461516Y0153866D01*
X0461611Y0153783D01*
X0461703Y0153697D01*
X0461793Y0153608D01*
X0461880Y0153516D01*
X0461963Y0153422D01*
X0462044Y0153325D01*
X0462122Y0153225D01*
X0462197Y0153123D01*
X0462268Y0153019D01*
X0462336Y0152912D01*
X0462400Y0152804D01*
X0462461Y0152693D01*
X0462519Y0152581D01*
X0462573Y0152467D01*
X0462623Y0152351D01*
X0462670Y0152234D01*
X0462713Y0152115D01*
X0462752Y0151995D01*
X0462788Y0151874D01*
X0462819Y0151751D01*
X0462847Y0151628D01*
X0462871Y0151504D01*
X0462891Y0151379D01*
X0462907Y0151254D01*
X0462919Y0151128D01*
X0462927Y0151002D01*
X0462931Y0150876D01*
X0462931Y0150750D01*
X0462927Y0150624D01*
X0462919Y0150498D01*
X0462907Y0150372D01*
X0462891Y0150247D01*
X0462871Y0150122D01*
X0462847Y0149998D01*
X0462819Y0149875D01*
X0462788Y0149752D01*
X0462752Y0149631D01*
X0462713Y0149511D01*
X0462670Y0149392D01*
X0462623Y0149275D01*
X0462573Y0149159D01*
X0462519Y0149045D01*
X0462461Y0148933D01*
X0462400Y0148822D01*
X0462336Y0148714D01*
X0462268Y0148607D01*
X0462197Y0148503D01*
X0462122Y0148401D01*
X0462044Y0148301D01*
X0461963Y0148204D01*
X0461880Y0148110D01*
X0461793Y0148018D01*
X0461703Y0147929D01*
X0461611Y0147843D01*
X0461516Y0147760D01*
X0461418Y0147680D01*
X0461318Y0147603D01*
X0461215Y0147529D01*
X0461110Y0147459D01*
X0461003Y0147392D01*
X0460894Y0147328D01*
X0460783Y0147268D01*
X0460671Y0147211D01*
X0460556Y0147158D01*
X0460440Y0147108D01*
X0460322Y0147063D01*
X0460203Y0147021D01*
X0460083Y0146982D01*
X0459961Y0146948D01*
X0459839Y0146917D01*
X0459715Y0146891D01*
X0459591Y0146868D01*
X0459466Y0146849D01*
X0459341Y0146834D01*
X0459215Y0146823D01*
X0459089Y0146816D01*
X0458963Y0146813D01*
X0458836Y0146814D01*
X0458710Y0146819D01*
X0458584Y0146828D01*
X0458458Y0146841D01*
X0458333Y0146858D01*
X0458209Y0146879D01*
X0458085Y0146903D01*
X0457962Y0146932D01*
X0457840Y0146965D01*
X0457719Y0147001D01*
X0457599Y0147041D01*
X0457481Y0147085D01*
X0457364Y0147133D01*
X0457248Y0147184D01*
X0457135Y0147239D01*
X0457023Y0147297D01*
X0456913Y0147359D01*
X0456805Y0147425D01*
X0456699Y0147494D01*
X0456595Y0147566D01*
X0456494Y0147641D01*
X0456395Y0147720D01*
X0456299Y0147801D01*
X0456205Y0147886D01*
X0456114Y0147973D01*
X0456026Y0148064D01*
X0455940Y0148157D01*
X0455858Y0148253D01*
X0455779Y0148351D01*
X0455702Y0148452D01*
X0455629Y0148555D01*
X0455560Y0148660D01*
X0455494Y0148768D01*
X0455431Y0148877D01*
X0455371Y0148989D01*
X0455315Y0149102D01*
X0455263Y0149217D01*
X0455215Y0149333D01*
X0455170Y0149452D01*
X0455129Y0149571D01*
X0455091Y0149692D01*
X0455058Y0149813D01*
X0455028Y0149936D01*
X0455003Y0150060D01*
X0454981Y0150184D01*
X0454963Y0150309D01*
X0454949Y0150435D01*
X0454939Y0150561D01*
X0454933Y0150687D01*
X0454931Y0150813D01*
X0472931Y0150813D02*
X0472933Y0150939D01*
X0472939Y0151065D01*
X0472949Y0151191D01*
X0472963Y0151317D01*
X0472981Y0151442D01*
X0473003Y0151566D01*
X0473028Y0151690D01*
X0473058Y0151813D01*
X0473091Y0151934D01*
X0473129Y0152055D01*
X0473170Y0152174D01*
X0473215Y0152293D01*
X0473263Y0152409D01*
X0473315Y0152524D01*
X0473371Y0152637D01*
X0473431Y0152749D01*
X0473494Y0152858D01*
X0473560Y0152966D01*
X0473629Y0153071D01*
X0473702Y0153174D01*
X0473779Y0153275D01*
X0473858Y0153373D01*
X0473940Y0153469D01*
X0474026Y0153562D01*
X0474114Y0153653D01*
X0474205Y0153740D01*
X0474299Y0153825D01*
X0474395Y0153906D01*
X0474494Y0153985D01*
X0474595Y0154060D01*
X0474699Y0154132D01*
X0474805Y0154201D01*
X0474913Y0154267D01*
X0475023Y0154329D01*
X0475135Y0154387D01*
X0475248Y0154442D01*
X0475364Y0154493D01*
X0475481Y0154541D01*
X0475599Y0154585D01*
X0475719Y0154625D01*
X0475840Y0154661D01*
X0475962Y0154694D01*
X0476085Y0154723D01*
X0476209Y0154747D01*
X0476333Y0154768D01*
X0476458Y0154785D01*
X0476584Y0154798D01*
X0476710Y0154807D01*
X0476836Y0154812D01*
X0476963Y0154813D01*
X0477089Y0154810D01*
X0477215Y0154803D01*
X0477341Y0154792D01*
X0477466Y0154777D01*
X0477591Y0154758D01*
X0477715Y0154735D01*
X0477839Y0154709D01*
X0477961Y0154678D01*
X0478083Y0154644D01*
X0478203Y0154605D01*
X0478322Y0154563D01*
X0478440Y0154518D01*
X0478556Y0154468D01*
X0478671Y0154415D01*
X0478783Y0154358D01*
X0478894Y0154298D01*
X0479003Y0154234D01*
X0479110Y0154167D01*
X0479215Y0154097D01*
X0479318Y0154023D01*
X0479418Y0153946D01*
X0479516Y0153866D01*
X0479611Y0153783D01*
X0479703Y0153697D01*
X0479793Y0153608D01*
X0479880Y0153516D01*
X0479963Y0153422D01*
X0480044Y0153325D01*
X0480122Y0153225D01*
X0480197Y0153123D01*
X0480268Y0153019D01*
X0480336Y0152912D01*
X0480400Y0152804D01*
X0480461Y0152693D01*
X0480519Y0152581D01*
X0480573Y0152467D01*
X0480623Y0152351D01*
X0480670Y0152234D01*
X0480713Y0152115D01*
X0480752Y0151995D01*
X0480788Y0151874D01*
X0480819Y0151751D01*
X0480847Y0151628D01*
X0480871Y0151504D01*
X0480891Y0151379D01*
X0480907Y0151254D01*
X0480919Y0151128D01*
X0480927Y0151002D01*
X0480931Y0150876D01*
X0480931Y0150750D01*
X0480927Y0150624D01*
X0480919Y0150498D01*
X0480907Y0150372D01*
X0480891Y0150247D01*
X0480871Y0150122D01*
X0480847Y0149998D01*
X0480819Y0149875D01*
X0480788Y0149752D01*
X0480752Y0149631D01*
X0480713Y0149511D01*
X0480670Y0149392D01*
X0480623Y0149275D01*
X0480573Y0149159D01*
X0480519Y0149045D01*
X0480461Y0148933D01*
X0480400Y0148822D01*
X0480336Y0148714D01*
X0480268Y0148607D01*
X0480197Y0148503D01*
X0480122Y0148401D01*
X0480044Y0148301D01*
X0479963Y0148204D01*
X0479880Y0148110D01*
X0479793Y0148018D01*
X0479703Y0147929D01*
X0479611Y0147843D01*
X0479516Y0147760D01*
X0479418Y0147680D01*
X0479318Y0147603D01*
X0479215Y0147529D01*
X0479110Y0147459D01*
X0479003Y0147392D01*
X0478894Y0147328D01*
X0478783Y0147268D01*
X0478671Y0147211D01*
X0478556Y0147158D01*
X0478440Y0147108D01*
X0478322Y0147063D01*
X0478203Y0147021D01*
X0478083Y0146982D01*
X0477961Y0146948D01*
X0477839Y0146917D01*
X0477715Y0146891D01*
X0477591Y0146868D01*
X0477466Y0146849D01*
X0477341Y0146834D01*
X0477215Y0146823D01*
X0477089Y0146816D01*
X0476963Y0146813D01*
X0476836Y0146814D01*
X0476710Y0146819D01*
X0476584Y0146828D01*
X0476458Y0146841D01*
X0476333Y0146858D01*
X0476209Y0146879D01*
X0476085Y0146903D01*
X0475962Y0146932D01*
X0475840Y0146965D01*
X0475719Y0147001D01*
X0475599Y0147041D01*
X0475481Y0147085D01*
X0475364Y0147133D01*
X0475248Y0147184D01*
X0475135Y0147239D01*
X0475023Y0147297D01*
X0474913Y0147359D01*
X0474805Y0147425D01*
X0474699Y0147494D01*
X0474595Y0147566D01*
X0474494Y0147641D01*
X0474395Y0147720D01*
X0474299Y0147801D01*
X0474205Y0147886D01*
X0474114Y0147973D01*
X0474026Y0148064D01*
X0473940Y0148157D01*
X0473858Y0148253D01*
X0473779Y0148351D01*
X0473702Y0148452D01*
X0473629Y0148555D01*
X0473560Y0148660D01*
X0473494Y0148768D01*
X0473431Y0148877D01*
X0473371Y0148989D01*
X0473315Y0149102D01*
X0473263Y0149217D01*
X0473215Y0149333D01*
X0473170Y0149452D01*
X0473129Y0149571D01*
X0473091Y0149692D01*
X0473058Y0149813D01*
X0473028Y0149936D01*
X0473003Y0150060D01*
X0472981Y0150184D01*
X0472963Y0150309D01*
X0472949Y0150435D01*
X0472939Y0150561D01*
X0472933Y0150687D01*
X0472931Y0150813D01*
D11*
X0430965Y0147500D03*
X0424272Y0147500D03*
X0418465Y0147500D03*
X0411772Y0147500D03*
X0404619Y0148846D03*
X0404619Y0142154D03*
X0354119Y0140904D03*
X0354119Y0147596D03*
X0343119Y0123346D03*
X0335119Y0123346D03*
X0327119Y0123346D03*
X0327119Y0116654D03*
X0335119Y0116654D03*
X0343119Y0116654D03*
X0373272Y0113250D03*
X0379965Y0113250D03*
X0327619Y0090346D03*
X0327619Y0083654D03*
X0328619Y0075846D03*
X0338119Y0075346D03*
X0328619Y0069154D03*
X0338119Y0068654D03*
X0447022Y0017375D03*
X0453715Y0017375D03*
X0158119Y0062154D03*
X0149619Y0062154D03*
X0137619Y0062154D03*
X0129119Y0062154D03*
X0120619Y0062154D03*
X0112119Y0062154D03*
X0112119Y0068846D03*
X0120619Y0068846D03*
X0129119Y0068846D03*
X0137619Y0068846D03*
X0149619Y0068846D03*
X0158119Y0068846D03*
X0101619Y0107779D03*
X0101619Y0114471D03*
X0087869Y0119654D03*
X0107869Y0120279D03*
X0117869Y0120279D03*
X0117869Y0126971D03*
X0107869Y0126971D03*
X0087869Y0126346D03*
X0150119Y0134404D03*
X0158119Y0134404D03*
X0158119Y0141096D03*
X0150119Y0141096D03*
X0148772Y0147500D03*
X0155465Y0147500D03*
X0199119Y0132846D03*
X0207619Y0132846D03*
X0207619Y0126154D03*
X0199119Y0126154D03*
X0184465Y0126000D03*
X0177772Y0126000D03*
X0247272Y0146000D03*
X0253965Y0146000D03*
X0060619Y0171154D03*
X0060619Y0177846D03*
X0057119Y0029346D03*
X0057119Y0022654D03*
D12*
X0366619Y0113738D03*
X0392119Y0122988D03*
X0400119Y0122988D03*
X0408119Y0122988D03*
X0408119Y0134012D03*
X0400119Y0134012D03*
X0392119Y0134012D03*
X0366619Y0124762D03*
D13*
X0332131Y0146750D03*
X0321107Y0146750D03*
X0324857Y0097500D03*
X0335881Y0097500D03*
D14*
X0109619Y0150500D03*
X0099619Y0150500D03*
X0089619Y0150500D03*
X0089619Y0160500D03*
X0099619Y0160500D03*
X0109619Y0160500D03*
D15*
X0114119Y0175500D03*
X0124119Y0175500D03*
X0104119Y0175500D03*
X0094119Y0175500D03*
X0084119Y0175500D03*
X0074119Y0175500D03*
X0361619Y0020500D03*
X0371619Y0020500D03*
X0381619Y0020500D03*
X0391619Y0020500D03*
D16*
X0216619Y0024000D03*
X0071619Y0024000D03*
X0266619Y0165500D03*
X0291619Y0165500D03*
D17*
X0305398Y0165500D03*
X0319178Y0165500D03*
X0332957Y0165500D03*
X0346737Y0165500D03*
X0360516Y0165500D03*
X0374296Y0165500D03*
X0388075Y0165500D03*
X0401855Y0165500D03*
X0415634Y0165500D03*
X0252839Y0165500D03*
X0239060Y0165500D03*
X0225280Y0165500D03*
X0211501Y0165500D03*
X0197721Y0165500D03*
X0183942Y0165500D03*
X0170162Y0165500D03*
X0156383Y0165500D03*
X0142603Y0165500D03*
X0022619Y0147780D03*
X0022619Y0120220D03*
X0085398Y0024000D03*
X0099178Y0024000D03*
X0112957Y0024000D03*
X0126737Y0024000D03*
X0140516Y0024000D03*
X0154296Y0024000D03*
X0168075Y0024000D03*
X0181855Y0024000D03*
X0195634Y0024000D03*
X0230398Y0024000D03*
X0244178Y0024000D03*
X0257957Y0024000D03*
X0271737Y0024000D03*
X0285516Y0024000D03*
X0299296Y0024000D03*
X0313075Y0024000D03*
X0326855Y0024000D03*
X0340634Y0024000D03*
D18*
X0476114Y0102813D03*
X0476114Y0110687D03*
D19*
X0496587Y0120136D03*
X0496587Y0093364D03*
D20*
X0356056Y0104760D03*
X0347788Y0108500D03*
X0356056Y0112240D03*
X0334182Y0091240D03*
X0342449Y0087500D03*
X0334182Y0083760D03*
X0346806Y0140510D03*
X0338538Y0144250D03*
X0346806Y0147990D03*
X0117199Y0111125D03*
X0108932Y0107385D03*
X0108932Y0114865D03*
X0094557Y0119885D03*
X0102824Y0123625D03*
X0094557Y0127365D03*
D21*
X0080359Y0114437D03*
X0072879Y0114437D03*
X0076619Y0106169D03*
D22*
X0075465Y0121000D03*
X0068772Y0121000D03*
X0060119Y0124654D03*
X0049119Y0124654D03*
X0049119Y0131346D03*
X0060119Y0131346D03*
X0067772Y0133500D03*
X0074465Y0133500D03*
X0074465Y0141500D03*
X0067772Y0141500D03*
X0059619Y0145154D03*
X0059619Y0151846D03*
X0119369Y0154529D03*
X0128619Y0155346D03*
X0119369Y0161221D03*
X0128619Y0148654D03*
X0203272Y0147500D03*
X0209965Y0147500D03*
X0217619Y0147846D03*
X0217619Y0141154D03*
X0209965Y0139500D03*
X0203272Y0139500D03*
X0222119Y0125346D03*
X0222119Y0118654D03*
X0279522Y0126125D03*
X0286215Y0126125D03*
X0293897Y0104250D03*
X0300590Y0104250D03*
X0349772Y0117250D03*
X0356465Y0117250D03*
X0390772Y0148250D03*
X0397465Y0148250D03*
D23*
X0327642Y0064500D03*
X0327642Y0059500D03*
X0327642Y0054500D03*
X0327642Y0049500D03*
X0305595Y0049500D03*
X0305595Y0054500D03*
X0305595Y0059500D03*
X0305595Y0064500D03*
D24*
X0029062Y0101425D03*
X0025518Y0049457D03*
D25*
X0080636Y0071504D03*
X0080636Y0095126D03*
D26*
X0040479Y0093551D03*
X0040479Y0097882D03*
X0038904Y0089220D03*
X0040479Y0084890D03*
X0038904Y0080559D03*
X0040479Y0076228D03*
X0042054Y0071898D03*
X0040479Y0067567D03*
D27*
X0373416Y0119010D03*
X0375384Y0119010D03*
X0377353Y0119010D03*
X0379321Y0119010D03*
X0379321Y0126490D03*
X0377353Y0126490D03*
X0375384Y0126490D03*
X0373416Y0126490D03*
D28*
X0376369Y0122750D03*
D29*
X0152446Y0129949D03*
X0150477Y0129949D03*
X0148509Y0129949D03*
X0146540Y0129949D03*
X0144571Y0129949D03*
X0142603Y0129949D03*
X0140634Y0129949D03*
X0138666Y0129949D03*
X0136697Y0129949D03*
X0134729Y0129949D03*
X0132760Y0129949D03*
X0130792Y0129949D03*
X0130792Y0111051D03*
X0132760Y0111051D03*
X0134729Y0111051D03*
X0136697Y0111051D03*
X0138666Y0111051D03*
X0140634Y0111051D03*
X0142603Y0111051D03*
X0144571Y0111051D03*
X0146540Y0111051D03*
X0148509Y0111051D03*
X0150477Y0111051D03*
X0152446Y0111051D03*
D30*
X0155005Y0114594D03*
X0155005Y0116563D03*
X0155005Y0118531D03*
X0155005Y0120500D03*
X0155005Y0122469D03*
X0155005Y0124437D03*
X0155005Y0126406D03*
X0128233Y0126406D03*
X0128233Y0124437D03*
X0128233Y0122469D03*
X0128233Y0120500D03*
X0128233Y0118531D03*
X0128233Y0116563D03*
X0128233Y0114594D03*
D31*
X0141619Y0120500D03*
D32*
X0128774Y0111986D03*
D33*
X0419279Y0084622D03*
X0419279Y0076748D03*
X0419279Y0068874D03*
X0419279Y0061000D03*
X0419279Y0053125D03*
X0419279Y0045251D03*
X0419279Y0037377D03*
X0419279Y0029503D03*
X0478334Y0029503D03*
X0478334Y0037377D03*
X0478334Y0045251D03*
X0478334Y0053125D03*
X0478334Y0061000D03*
X0478334Y0068874D03*
X0478334Y0076748D03*
X0478334Y0084622D03*
D34*
X0306343Y0112724D03*
X0304768Y0112724D03*
X0303194Y0112724D03*
X0301619Y0112724D03*
X0300044Y0112724D03*
X0298469Y0112724D03*
X0296894Y0112724D03*
X0296894Y0128276D03*
X0298469Y0128276D03*
X0300044Y0128276D03*
X0301619Y0128276D03*
X0303194Y0128276D03*
X0304768Y0128276D03*
X0306343Y0128276D03*
D35*
X0309394Y0125224D03*
X0309394Y0123650D03*
X0309394Y0122075D03*
X0309394Y0120500D03*
X0309394Y0118925D03*
X0309394Y0117350D03*
X0309394Y0115776D03*
X0293843Y0115776D03*
X0293843Y0117350D03*
X0293843Y0118925D03*
X0293843Y0120500D03*
X0293843Y0122075D03*
X0293843Y0123650D03*
X0293843Y0125224D03*
D36*
X0301619Y0120500D03*
D37*
X0494869Y0040500D03*
X0494869Y0020500D03*
D38*
X0494869Y0030500D03*
D39*
X0476931Y0128372D03*
X0452915Y0128372D03*
X0452915Y0173253D03*
X0476931Y0173253D03*
D40*
X0427784Y0117500D03*
X0418453Y0117500D03*
D41*
X0433619Y0131760D03*
X0433619Y0139240D03*
D42*
X0391579Y0096484D03*
X0384099Y0096484D03*
X0376619Y0096484D03*
X0369138Y0096484D03*
X0361658Y0096484D03*
X0361658Y0044516D03*
X0369138Y0044516D03*
X0376619Y0044516D03*
X0384099Y0044516D03*
X0391579Y0044516D03*
D43*
X0402603Y0055539D03*
X0402603Y0063020D03*
X0402603Y0070500D03*
X0402603Y0077980D03*
X0402603Y0085461D03*
X0350634Y0085461D03*
X0350634Y0077980D03*
X0350634Y0070500D03*
X0350634Y0063020D03*
X0350634Y0055539D03*
D44*
X0254666Y0104826D02*
X0254666Y0106992D01*
X0255256Y0106992D01*
X0255256Y0104826D01*
X0254666Y0104826D01*
X0254666Y0105416D02*
X0255256Y0105416D01*
X0255256Y0106006D02*
X0254666Y0106006D01*
X0254666Y0106596D02*
X0255256Y0106596D01*
X0252698Y0106992D02*
X0252698Y0104826D01*
X0252698Y0106992D02*
X0253288Y0106992D01*
X0253288Y0104826D01*
X0252698Y0104826D01*
X0252698Y0105416D02*
X0253288Y0105416D01*
X0253288Y0106006D02*
X0252698Y0106006D01*
X0252698Y0106596D02*
X0253288Y0106596D01*
X0250729Y0106992D02*
X0250729Y0104826D01*
X0250729Y0106992D02*
X0251319Y0106992D01*
X0251319Y0104826D01*
X0250729Y0104826D01*
X0250729Y0105416D02*
X0251319Y0105416D01*
X0251319Y0106006D02*
X0250729Y0106006D01*
X0250729Y0106596D02*
X0251319Y0106596D01*
X0248761Y0106992D02*
X0248761Y0104826D01*
X0248761Y0106992D02*
X0249351Y0106992D01*
X0249351Y0104826D01*
X0248761Y0104826D01*
X0248761Y0105416D02*
X0249351Y0105416D01*
X0249351Y0106006D02*
X0248761Y0106006D01*
X0248761Y0106596D02*
X0249351Y0106596D01*
X0246792Y0106992D02*
X0246792Y0104826D01*
X0246792Y0106992D02*
X0247382Y0106992D01*
X0247382Y0104826D01*
X0246792Y0104826D01*
X0246792Y0105416D02*
X0247382Y0105416D01*
X0247382Y0106006D02*
X0246792Y0106006D01*
X0246792Y0106596D02*
X0247382Y0106596D01*
X0244824Y0106992D02*
X0244824Y0104826D01*
X0244824Y0106992D02*
X0245414Y0106992D01*
X0245414Y0104826D01*
X0244824Y0104826D01*
X0244824Y0105416D02*
X0245414Y0105416D01*
X0245414Y0106006D02*
X0244824Y0106006D01*
X0244824Y0106596D02*
X0245414Y0106596D01*
X0242855Y0106992D02*
X0242855Y0104826D01*
X0242855Y0106992D02*
X0243445Y0106992D01*
X0243445Y0104826D01*
X0242855Y0104826D01*
X0242855Y0105416D02*
X0243445Y0105416D01*
X0243445Y0106006D02*
X0242855Y0106006D01*
X0242855Y0106596D02*
X0243445Y0106596D01*
X0240887Y0106992D02*
X0240887Y0104826D01*
X0240887Y0106992D02*
X0241477Y0106992D01*
X0241477Y0104826D01*
X0240887Y0104826D01*
X0240887Y0105416D02*
X0241477Y0105416D01*
X0241477Y0106006D02*
X0240887Y0106006D01*
X0240887Y0106596D02*
X0241477Y0106596D01*
X0238918Y0106992D02*
X0238918Y0104826D01*
X0238918Y0106992D02*
X0239508Y0106992D01*
X0239508Y0104826D01*
X0238918Y0104826D01*
X0238918Y0105416D02*
X0239508Y0105416D01*
X0239508Y0106006D02*
X0238918Y0106006D01*
X0238918Y0106596D02*
X0239508Y0106596D01*
X0236950Y0106992D02*
X0236950Y0104826D01*
X0236950Y0106992D02*
X0237540Y0106992D01*
X0237540Y0104826D01*
X0236950Y0104826D01*
X0236950Y0105416D02*
X0237540Y0105416D01*
X0237540Y0106006D02*
X0236950Y0106006D01*
X0236950Y0106596D02*
X0237540Y0106596D01*
X0234981Y0106992D02*
X0234981Y0104826D01*
X0234981Y0106992D02*
X0235571Y0106992D01*
X0235571Y0104826D01*
X0234981Y0104826D01*
X0234981Y0105416D02*
X0235571Y0105416D01*
X0235571Y0106006D02*
X0234981Y0106006D01*
X0234981Y0106596D02*
X0235571Y0106596D01*
X0230945Y0108862D02*
X0230945Y0109452D01*
X0233111Y0109452D01*
X0233111Y0108862D01*
X0230945Y0108862D01*
X0230945Y0109452D02*
X0233111Y0109452D01*
X0230945Y0110831D02*
X0230945Y0111421D01*
X0233111Y0111421D01*
X0233111Y0110831D01*
X0230945Y0110831D01*
X0230945Y0111421D02*
X0233111Y0111421D01*
X0230945Y0112799D02*
X0230945Y0113389D01*
X0233111Y0113389D01*
X0233111Y0112799D01*
X0230945Y0112799D01*
X0230945Y0113389D02*
X0233111Y0113389D01*
X0230945Y0114768D02*
X0230945Y0115358D01*
X0233111Y0115358D01*
X0233111Y0114768D01*
X0230945Y0114768D01*
X0230945Y0115358D02*
X0233111Y0115358D01*
X0230945Y0116736D02*
X0230945Y0117326D01*
X0233111Y0117326D01*
X0233111Y0116736D01*
X0230945Y0116736D01*
X0230945Y0117326D02*
X0233111Y0117326D01*
X0230945Y0118705D02*
X0230945Y0119295D01*
X0233111Y0119295D01*
X0233111Y0118705D01*
X0230945Y0118705D01*
X0230945Y0119295D02*
X0233111Y0119295D01*
X0230945Y0120674D02*
X0230945Y0121264D01*
X0233111Y0121264D01*
X0233111Y0120674D01*
X0230945Y0120674D01*
X0230945Y0121264D02*
X0233111Y0121264D01*
X0230945Y0122642D02*
X0230945Y0123232D01*
X0233111Y0123232D01*
X0233111Y0122642D01*
X0230945Y0122642D01*
X0230945Y0123232D02*
X0233111Y0123232D01*
X0230945Y0124611D02*
X0230945Y0125201D01*
X0233111Y0125201D01*
X0233111Y0124611D01*
X0230945Y0124611D01*
X0230945Y0125201D02*
X0233111Y0125201D01*
X0230945Y0126579D02*
X0230945Y0127169D01*
X0233111Y0127169D01*
X0233111Y0126579D01*
X0230945Y0126579D01*
X0230945Y0127169D02*
X0233111Y0127169D01*
X0230945Y0128548D02*
X0230945Y0129138D01*
X0233111Y0129138D01*
X0233111Y0128548D01*
X0230945Y0128548D01*
X0230945Y0129138D02*
X0233111Y0129138D01*
X0234981Y0131008D02*
X0234981Y0133174D01*
X0235571Y0133174D01*
X0235571Y0131008D01*
X0234981Y0131008D01*
X0234981Y0131598D02*
X0235571Y0131598D01*
X0235571Y0132188D02*
X0234981Y0132188D01*
X0234981Y0132778D02*
X0235571Y0132778D01*
X0236950Y0133174D02*
X0236950Y0131008D01*
X0236950Y0133174D02*
X0237540Y0133174D01*
X0237540Y0131008D01*
X0236950Y0131008D01*
X0236950Y0131598D02*
X0237540Y0131598D01*
X0237540Y0132188D02*
X0236950Y0132188D01*
X0236950Y0132778D02*
X0237540Y0132778D01*
X0238918Y0133174D02*
X0238918Y0131008D01*
X0238918Y0133174D02*
X0239508Y0133174D01*
X0239508Y0131008D01*
X0238918Y0131008D01*
X0238918Y0131598D02*
X0239508Y0131598D01*
X0239508Y0132188D02*
X0238918Y0132188D01*
X0238918Y0132778D02*
X0239508Y0132778D01*
X0240887Y0133174D02*
X0240887Y0131008D01*
X0240887Y0133174D02*
X0241477Y0133174D01*
X0241477Y0131008D01*
X0240887Y0131008D01*
X0240887Y0131598D02*
X0241477Y0131598D01*
X0241477Y0132188D02*
X0240887Y0132188D01*
X0240887Y0132778D02*
X0241477Y0132778D01*
X0242855Y0133174D02*
X0242855Y0131008D01*
X0242855Y0133174D02*
X0243445Y0133174D01*
X0243445Y0131008D01*
X0242855Y0131008D01*
X0242855Y0131598D02*
X0243445Y0131598D01*
X0243445Y0132188D02*
X0242855Y0132188D01*
X0242855Y0132778D02*
X0243445Y0132778D01*
X0244824Y0133174D02*
X0244824Y0131008D01*
X0244824Y0133174D02*
X0245414Y0133174D01*
X0245414Y0131008D01*
X0244824Y0131008D01*
X0244824Y0131598D02*
X0245414Y0131598D01*
X0245414Y0132188D02*
X0244824Y0132188D01*
X0244824Y0132778D02*
X0245414Y0132778D01*
X0246792Y0133174D02*
X0246792Y0131008D01*
X0246792Y0133174D02*
X0247382Y0133174D01*
X0247382Y0131008D01*
X0246792Y0131008D01*
X0246792Y0131598D02*
X0247382Y0131598D01*
X0247382Y0132188D02*
X0246792Y0132188D01*
X0246792Y0132778D02*
X0247382Y0132778D01*
X0248761Y0133174D02*
X0248761Y0131008D01*
X0248761Y0133174D02*
X0249351Y0133174D01*
X0249351Y0131008D01*
X0248761Y0131008D01*
X0248761Y0131598D02*
X0249351Y0131598D01*
X0249351Y0132188D02*
X0248761Y0132188D01*
X0248761Y0132778D02*
X0249351Y0132778D01*
X0250729Y0133174D02*
X0250729Y0131008D01*
X0250729Y0133174D02*
X0251319Y0133174D01*
X0251319Y0131008D01*
X0250729Y0131008D01*
X0250729Y0131598D02*
X0251319Y0131598D01*
X0251319Y0132188D02*
X0250729Y0132188D01*
X0250729Y0132778D02*
X0251319Y0132778D01*
X0252698Y0133174D02*
X0252698Y0131008D01*
X0252698Y0133174D02*
X0253288Y0133174D01*
X0253288Y0131008D01*
X0252698Y0131008D01*
X0252698Y0131598D02*
X0253288Y0131598D01*
X0253288Y0132188D02*
X0252698Y0132188D01*
X0252698Y0132778D02*
X0253288Y0132778D01*
X0254666Y0133174D02*
X0254666Y0131008D01*
X0254666Y0133174D02*
X0255256Y0133174D01*
X0255256Y0131008D01*
X0254666Y0131008D01*
X0254666Y0131598D02*
X0255256Y0131598D01*
X0255256Y0132188D02*
X0254666Y0132188D01*
X0254666Y0132778D02*
X0255256Y0132778D01*
X0257126Y0129138D02*
X0257126Y0128548D01*
X0257126Y0129138D02*
X0259292Y0129138D01*
X0259292Y0128548D01*
X0257126Y0128548D01*
X0257126Y0129138D02*
X0259292Y0129138D01*
X0257126Y0127169D02*
X0257126Y0126579D01*
X0257126Y0127169D02*
X0259292Y0127169D01*
X0259292Y0126579D01*
X0257126Y0126579D01*
X0257126Y0127169D02*
X0259292Y0127169D01*
X0257126Y0125201D02*
X0257126Y0124611D01*
X0257126Y0125201D02*
X0259292Y0125201D01*
X0259292Y0124611D01*
X0257126Y0124611D01*
X0257126Y0125201D02*
X0259292Y0125201D01*
X0257126Y0123232D02*
X0257126Y0122642D01*
X0257126Y0123232D02*
X0259292Y0123232D01*
X0259292Y0122642D01*
X0257126Y0122642D01*
X0257126Y0123232D02*
X0259292Y0123232D01*
X0257126Y0121264D02*
X0257126Y0120674D01*
X0257126Y0121264D02*
X0259292Y0121264D01*
X0259292Y0120674D01*
X0257126Y0120674D01*
X0257126Y0121264D02*
X0259292Y0121264D01*
X0257126Y0119295D02*
X0257126Y0118705D01*
X0257126Y0119295D02*
X0259292Y0119295D01*
X0259292Y0118705D01*
X0257126Y0118705D01*
X0257126Y0119295D02*
X0259292Y0119295D01*
X0257126Y0117326D02*
X0257126Y0116736D01*
X0257126Y0117326D02*
X0259292Y0117326D01*
X0259292Y0116736D01*
X0257126Y0116736D01*
X0257126Y0117326D02*
X0259292Y0117326D01*
X0257126Y0115358D02*
X0257126Y0114768D01*
X0257126Y0115358D02*
X0259292Y0115358D01*
X0259292Y0114768D01*
X0257126Y0114768D01*
X0257126Y0115358D02*
X0259292Y0115358D01*
X0257126Y0113389D02*
X0257126Y0112799D01*
X0257126Y0113389D02*
X0259292Y0113389D01*
X0259292Y0112799D01*
X0257126Y0112799D01*
X0257126Y0113389D02*
X0259292Y0113389D01*
X0257126Y0111421D02*
X0257126Y0110831D01*
X0257126Y0111421D02*
X0259292Y0111421D01*
X0259292Y0110831D01*
X0257126Y0110831D01*
X0257126Y0111421D02*
X0259292Y0111421D01*
X0257126Y0109452D02*
X0257126Y0108862D01*
X0257126Y0109452D02*
X0259292Y0109452D01*
X0259292Y0108862D01*
X0257126Y0108862D01*
X0257126Y0109452D02*
X0259292Y0109452D01*
D45*
X0236261Y0110142D02*
X0236261Y0127858D01*
X0253977Y0127858D01*
X0253977Y0110142D01*
X0236261Y0110142D01*
X0236261Y0112110D02*
X0253977Y0112110D01*
X0253977Y0114078D02*
X0236261Y0114078D01*
X0236261Y0116046D02*
X0253977Y0116046D01*
X0253977Y0118014D02*
X0236261Y0118014D01*
X0236261Y0119982D02*
X0253977Y0119982D01*
X0253977Y0121950D02*
X0236261Y0121950D01*
X0236261Y0123918D02*
X0253977Y0123918D01*
X0253977Y0125886D02*
X0236261Y0125886D01*
X0236261Y0127854D02*
X0253977Y0127854D01*
D46*
X0051631Y0165331D03*
X0040607Y0165331D03*
X0040607Y0181669D03*
X0051631Y0181669D03*
X0051131Y0034169D03*
X0040107Y0034169D03*
X0040107Y0017831D03*
X0051131Y0017831D03*
D47*
X0133879Y0134382D03*
X0137619Y0134382D03*
X0141359Y0134382D03*
X0141359Y0144618D03*
X0137619Y0144618D03*
X0133879Y0144618D03*
D48*
X0133194Y0055043D03*
X0136343Y0055043D03*
X0130044Y0055043D03*
X0126894Y0055043D03*
X0126894Y0047957D03*
X0130044Y0047957D03*
X0133194Y0047957D03*
X0136343Y0047957D03*
X0154894Y0047957D03*
X0158044Y0047957D03*
X0161194Y0047957D03*
X0164343Y0047957D03*
X0164343Y0055043D03*
X0161194Y0055043D03*
X0158044Y0055043D03*
X0154894Y0055043D03*
D49*
X0049619Y0142988D03*
X0049619Y0154012D03*
D50*
X0185556Y0148500D03*
X0187524Y0148500D03*
X0189493Y0148500D03*
X0191461Y0148500D03*
X0193430Y0148500D03*
X0193430Y0132752D03*
X0191461Y0132752D03*
X0189493Y0132752D03*
X0187524Y0132752D03*
X0185556Y0132752D03*
D51*
X0181619Y0136689D03*
X0181619Y0138657D03*
X0181619Y0140626D03*
X0181619Y0142594D03*
X0181619Y0144563D03*
X0197367Y0144563D03*
X0197367Y0142594D03*
X0197367Y0140626D03*
X0197367Y0138657D03*
X0197367Y0136689D03*
D52*
X0189493Y0140626D03*
D53*
X0035119Y0139118D03*
X0035119Y0136559D03*
X0035119Y0134000D03*
X0035119Y0131441D03*
X0035119Y0128882D03*
D54*
X0033249Y0124157D03*
X0033249Y0143843D03*
D55*
X0022619Y0146008D03*
X0022619Y0137937D03*
X0022619Y0130063D03*
X0022619Y0121992D03*
D56*
X0225835Y0144500D03*
X0240402Y0144500D03*
D57*
X0209024Y0120650D03*
X0197213Y0120650D03*
X0197213Y0114350D03*
X0209024Y0114350D03*
X0323713Y0130850D03*
X0323713Y0137150D03*
X0335524Y0137150D03*
X0335524Y0130850D03*
D58*
G36*
X0193400Y0083929D02*
X0196184Y0081145D01*
X0188530Y0073491D01*
X0185746Y0076275D01*
X0193400Y0083929D01*
G37*
G36*
X0187832Y0089497D02*
X0190616Y0086713D01*
X0182962Y0079059D01*
X0180178Y0081843D01*
X0187832Y0089497D01*
G37*
G36*
X0177394Y0084627D02*
X0174610Y0087411D01*
X0182264Y0095065D01*
X0185048Y0092281D01*
X0177394Y0084627D01*
G37*
G36*
X0164726Y0088662D02*
X0167510Y0085878D01*
X0159856Y0078224D01*
X0157072Y0081008D01*
X0164726Y0088662D01*
G37*
G36*
X0159158Y0094230D02*
X0161942Y0091446D01*
X0154288Y0083792D01*
X0151504Y0086576D01*
X0159158Y0094230D01*
G37*
G36*
X0171129Y0106201D02*
X0173913Y0103417D01*
X0166259Y0095763D01*
X0163475Y0098547D01*
X0171129Y0106201D01*
G37*
G36*
X0176696Y0100633D02*
X0179480Y0097849D01*
X0171826Y0090195D01*
X0169042Y0092979D01*
X0176696Y0100633D01*
G37*
G36*
X0165424Y0072656D02*
X0162640Y0075440D01*
X0170294Y0083094D01*
X0173078Y0080310D01*
X0165424Y0072656D01*
G37*
G36*
X0175861Y0077527D02*
X0178645Y0074743D01*
X0170991Y0067089D01*
X0168207Y0069873D01*
X0175861Y0077527D01*
G37*
G36*
X0198968Y0078362D02*
X0201752Y0075578D01*
X0194098Y0067924D01*
X0191314Y0070708D01*
X0198968Y0078362D01*
G37*
G36*
X0204535Y0072794D02*
X0207319Y0070010D01*
X0199665Y0062356D01*
X0196881Y0065140D01*
X0204535Y0072794D01*
G37*
G36*
X0181429Y0071959D02*
X0184213Y0069175D01*
X0176559Y0061521D01*
X0173775Y0064305D01*
X0181429Y0071959D01*
G37*
G36*
X0186997Y0066391D02*
X0189781Y0063607D01*
X0182127Y0055953D01*
X0179343Y0058737D01*
X0186997Y0066391D01*
G37*
G36*
X0192565Y0060823D02*
X0195349Y0058039D01*
X0187695Y0050385D01*
X0184911Y0053169D01*
X0192565Y0060823D01*
G37*
D59*
X0370091Y0141000D03*
X0379146Y0141000D03*
D60*
X0414690Y0139437D02*
X0416934Y0139437D01*
X0416934Y0137469D02*
X0414690Y0137469D01*
X0414690Y0135500D02*
X0416934Y0135500D01*
X0416934Y0133531D02*
X0414690Y0133531D01*
X0414690Y0131563D02*
X0416934Y0131563D01*
X0426304Y0131563D02*
X0428548Y0131563D01*
X0428548Y0133531D02*
X0426304Y0133531D01*
X0426304Y0135500D02*
X0428548Y0135500D01*
X0428548Y0137469D02*
X0426304Y0137469D01*
X0426304Y0139437D02*
X0428548Y0139437D01*
D61*
X0421619Y0135500D03*
D62*
X0421619Y0133138D03*
X0421619Y0137862D03*
D63*
X0422406Y0141248D03*
X0420831Y0141248D03*
X0419257Y0141248D03*
X0423981Y0141248D03*
X0423981Y0129752D03*
X0422406Y0129752D03*
X0420831Y0129752D03*
X0419257Y0129752D03*
D64*
X0420831Y0129752D01*
X0421619Y0130539D01*
X0421619Y0133138D01*
X0421618Y0133138D01*
X0417614Y0137142D01*
X0416138Y0137142D01*
X0415812Y0137469D01*
X0414944Y0137142D02*
X0414638Y0137447D01*
X0414638Y0137795D01*
X0417614Y0137795D01*
X0418575Y0138757D01*
X0418575Y0140117D01*
X0417656Y0141037D01*
X0417656Y0142395D01*
X0418044Y0142784D01*
X0424402Y0142784D01*
X0424778Y0143159D01*
X0425709Y0144091D01*
X0425709Y0144441D01*
X0426889Y0144441D01*
X0427528Y0145080D01*
X0427528Y0149920D01*
X0426889Y0150559D01*
X0421655Y0150559D01*
X0421016Y0149920D01*
X0421016Y0145965D01*
X0416726Y0145965D01*
X0415795Y0145033D01*
X0415406Y0144645D01*
X0414475Y0143713D01*
X0414475Y0142144D01*
X0413619Y0143000D01*
X0413363Y0143000D01*
X0413363Y0144441D01*
X0414389Y0144441D01*
X0415028Y0145080D01*
X0415028Y0149920D01*
X0414389Y0150559D01*
X0409155Y0150559D01*
X0408516Y0149920D01*
X0408516Y0145080D01*
X0409155Y0144441D01*
X0410182Y0144441D01*
X0410182Y0143744D01*
X0407875Y0143744D01*
X0407875Y0144574D01*
X0407236Y0145213D01*
X0402893Y0145213D01*
X0401119Y0146987D01*
X0401119Y0151500D01*
X0431119Y0151500D01*
X0443119Y0136000D01*
X0430190Y0136000D01*
X0430190Y0136180D01*
X0429228Y0137142D01*
X0425624Y0137142D01*
X0424662Y0136180D01*
X0424662Y0136000D01*
X0418575Y0136000D01*
X0418575Y0136180D01*
X0417614Y0137142D01*
X0414944Y0137142D01*
X0414776Y0137309D02*
X0442105Y0137309D01*
X0442878Y0136311D02*
X0430059Y0136311D01*
X0429228Y0137795D02*
X0425624Y0137795D01*
X0424662Y0138757D01*
X0424662Y0140117D01*
X0425624Y0141079D01*
X0429228Y0141079D01*
X0430190Y0140117D01*
X0430190Y0138757D01*
X0429228Y0137795D01*
X0429741Y0138308D02*
X0441332Y0138308D01*
X0440559Y0139306D02*
X0430190Y0139306D01*
X0430002Y0140305D02*
X0439786Y0140305D01*
X0439013Y0141303D02*
X0417656Y0141303D01*
X0417656Y0142302D02*
X0438240Y0142302D01*
X0437467Y0143301D02*
X0424919Y0143301D01*
X0425709Y0144299D02*
X0436694Y0144299D01*
X0435921Y0145298D02*
X0427528Y0145298D01*
X0427528Y0146296D02*
X0435148Y0146296D01*
X0434375Y0147295D02*
X0427528Y0147295D01*
X0427528Y0148293D02*
X0433602Y0148293D01*
X0432828Y0149292D02*
X0427528Y0149292D01*
X0427158Y0150290D02*
X0432055Y0150290D01*
X0431282Y0151289D02*
X0401119Y0151289D01*
X0401119Y0150290D02*
X0408886Y0150290D01*
X0408516Y0149292D02*
X0401119Y0149292D01*
X0401119Y0148293D02*
X0408516Y0148293D01*
X0408516Y0147295D02*
X0401119Y0147295D01*
X0401810Y0146296D02*
X0408516Y0146296D01*
X0408516Y0145298D02*
X0402808Y0145298D01*
X0404619Y0148846D02*
X0404796Y0149024D01*
X0411772Y0147500D02*
X0411772Y0142148D01*
X0411772Y0139056D01*
X0413048Y0137781D01*
X0413048Y0136788D01*
X0414285Y0135551D01*
X0415760Y0135551D01*
X0415812Y0135500D01*
X0415812Y0133531D02*
X0409272Y0133531D01*
X0409272Y0134500D01*
X0411308Y0136311D02*
X0388119Y0136311D01*
X0388119Y0137309D02*
X0410309Y0137309D01*
X0409619Y0138000D02*
X0400119Y0138000D01*
X0400119Y0141751D01*
X0399869Y0142000D01*
X0388119Y0142000D01*
X0388119Y0130000D01*
X0411119Y0130000D01*
X0412528Y0131691D01*
X0412528Y0132409D01*
X0413460Y0133341D01*
X0417260Y0133341D01*
X0417260Y0133858D01*
X0414010Y0133858D01*
X0413907Y0133961D01*
X0413626Y0133961D01*
X0411457Y0136130D01*
X0411457Y0136161D01*
X0409619Y0138000D01*
X0415812Y0139437D02*
X0416065Y0139691D01*
X0416065Y0143054D01*
X0417385Y0144374D01*
X0423743Y0144374D01*
X0424119Y0144750D01*
X0424119Y0146846D01*
X0421016Y0147295D02*
X0415028Y0147295D01*
X0415028Y0148293D02*
X0421016Y0148293D01*
X0421016Y0149292D02*
X0415028Y0149292D01*
X0414658Y0150290D02*
X0421386Y0150290D01*
X0421016Y0146296D02*
X0415028Y0146296D01*
X0415028Y0145298D02*
X0416059Y0145298D01*
X0415061Y0144299D02*
X0413363Y0144299D01*
X0413363Y0143301D02*
X0414475Y0143301D01*
X0414475Y0142302D02*
X0414317Y0142302D01*
X0411772Y0142148D02*
X0411767Y0142154D01*
X0404619Y0142154D01*
X0407875Y0144299D02*
X0410182Y0144299D01*
X0400119Y0141303D02*
X0388119Y0141303D01*
X0388119Y0140305D02*
X0400119Y0140305D01*
X0400119Y0139306D02*
X0388119Y0139306D01*
X0388119Y0138308D02*
X0400119Y0138308D01*
X0388119Y0135312D02*
X0412275Y0135312D01*
X0413273Y0134314D02*
X0388119Y0134314D01*
X0388119Y0133315D02*
X0413435Y0133315D01*
X0412528Y0132317D02*
X0388119Y0132317D01*
X0388119Y0131318D02*
X0412217Y0131318D01*
X0411385Y0130320D02*
X0388119Y0130320D01*
X0381858Y0133315D02*
X0375619Y0133315D01*
X0375619Y0132317D02*
X0380749Y0132317D01*
X0379639Y0131318D02*
X0376300Y0131318D01*
X0375619Y0132000D02*
X0377119Y0130500D01*
X0377119Y0130249D01*
X0377209Y0130159D01*
X0377209Y0125841D01*
X0377619Y0125841D01*
X0377619Y0129500D01*
X0382619Y0134000D01*
X0382619Y0148500D01*
X0375619Y0148500D01*
X0375619Y0132000D01*
X0374799Y0130320D02*
X0374299Y0130320D01*
X0373800Y0131318D02*
X0373300Y0131318D01*
X0373619Y0131500D02*
X0375619Y0129500D01*
X0375619Y0125841D01*
X0375119Y0125841D01*
X0375119Y0129500D01*
X0372619Y0132000D01*
X0367083Y0132000D01*
X0366619Y0134397D01*
X0366619Y0148500D01*
X0373619Y0148500D01*
X0373619Y0131500D01*
X0373619Y0132317D02*
X0367021Y0132317D01*
X0366828Y0133315D02*
X0373619Y0133315D01*
X0373619Y0134314D02*
X0366635Y0134314D01*
X0366619Y0135312D02*
X0373619Y0135312D01*
X0373619Y0136311D02*
X0366619Y0136311D01*
X0366619Y0137309D02*
X0373619Y0137309D01*
X0373619Y0138308D02*
X0366619Y0138308D01*
X0366619Y0139306D02*
X0373619Y0139306D01*
X0373619Y0140305D02*
X0366619Y0140305D01*
X0366619Y0141303D02*
X0373619Y0141303D01*
X0373619Y0142302D02*
X0366619Y0142302D01*
X0366619Y0143301D02*
X0373619Y0143301D01*
X0373619Y0144299D02*
X0366619Y0144299D01*
X0366619Y0145298D02*
X0373619Y0145298D01*
X0373619Y0146296D02*
X0366619Y0146296D01*
X0366619Y0147295D02*
X0373619Y0147295D01*
X0373619Y0148293D02*
X0366619Y0148293D01*
X0365028Y0148293D02*
X0357375Y0148293D01*
X0357375Y0147295D02*
X0365028Y0147295D01*
X0365028Y0146296D02*
X0357375Y0146296D01*
X0357375Y0145869D02*
X0357375Y0150017D01*
X0357369Y0150023D01*
X0357369Y0151000D01*
X0365869Y0151000D01*
X0365869Y0149999D01*
X0365028Y0149159D01*
X0365028Y0131341D01*
X0365869Y0130501D01*
X0365869Y0130000D01*
X0372369Y0130000D01*
X0373528Y0128841D01*
X0373528Y0128565D01*
X0372472Y0128565D01*
X0371833Y0127926D01*
X0371833Y0125054D01*
X0372028Y0124859D01*
X0372028Y0123612D01*
X0371825Y0123409D01*
X0371825Y0121000D01*
X0360654Y0121000D01*
X0359197Y0122457D01*
X0357369Y0122457D01*
X0357369Y0130015D01*
X0359175Y0131821D01*
X0359175Y0133138D01*
X0359175Y0144069D01*
X0358243Y0145001D01*
X0357375Y0145869D01*
X0357946Y0145298D02*
X0365028Y0145298D01*
X0365028Y0144299D02*
X0358945Y0144299D01*
X0359175Y0143301D02*
X0365028Y0143301D01*
X0365028Y0142302D02*
X0359175Y0142302D01*
X0359175Y0141303D02*
X0365028Y0141303D01*
X0365028Y0140305D02*
X0359175Y0140305D01*
X0359175Y0139306D02*
X0365028Y0139306D01*
X0365028Y0138308D02*
X0359175Y0138308D01*
X0359175Y0137309D02*
X0365028Y0137309D01*
X0365028Y0136311D02*
X0359175Y0136311D01*
X0359175Y0135312D02*
X0365028Y0135312D01*
X0365028Y0134314D02*
X0359175Y0134314D01*
X0359175Y0133315D02*
X0365028Y0133315D01*
X0365028Y0132317D02*
X0359175Y0132317D01*
X0358672Y0131318D02*
X0365051Y0131318D01*
X0365869Y0130320D02*
X0357674Y0130320D01*
X0357369Y0129321D02*
X0373048Y0129321D01*
X0372230Y0128323D02*
X0357369Y0128323D01*
X0357369Y0127324D02*
X0371833Y0127324D01*
X0371833Y0126326D02*
X0357369Y0126326D01*
X0357369Y0125327D02*
X0371833Y0125327D01*
X0372028Y0124329D02*
X0357369Y0124329D01*
X0357369Y0123330D02*
X0371825Y0123330D01*
X0371825Y0122332D02*
X0359322Y0122332D01*
X0360321Y0121333D02*
X0371825Y0121333D01*
X0373619Y0121333D02*
X0379619Y0121333D01*
X0379619Y0121250D02*
X0377119Y0121250D01*
X0377111Y0121085D01*
X0376409Y0121085D01*
X0376369Y0121044D01*
X0376328Y0121085D01*
X0374441Y0121085D01*
X0373802Y0120446D01*
X0373802Y0119677D01*
X0373794Y0119669D01*
X0373794Y0118351D01*
X0373802Y0118343D01*
X0373802Y0117574D01*
X0374441Y0116935D01*
X0375762Y0116935D01*
X0375762Y0115203D01*
X0376709Y0114257D01*
X0376709Y0112038D01*
X0376619Y0110000D01*
X0379119Y0107500D01*
X0369672Y0107500D01*
X0367788Y0109384D01*
X0363949Y0109384D01*
X0362065Y0107500D01*
X0361418Y0107500D01*
X0361418Y0109269D01*
X0360369Y0110318D01*
X0360369Y0119250D01*
X0373619Y0119250D01*
X0373619Y0124250D01*
X0379619Y0124250D01*
X0379619Y0121250D01*
X0379619Y0122332D02*
X0373619Y0122332D01*
X0373416Y0122750D02*
X0376369Y0122750D01*
X0379321Y0122750D01*
X0379321Y0126490D01*
X0377619Y0126326D02*
X0377209Y0126326D01*
X0377209Y0127324D02*
X0377619Y0127324D01*
X0377619Y0128323D02*
X0377209Y0128323D01*
X0377209Y0129321D02*
X0377619Y0129321D01*
X0377119Y0130320D02*
X0378530Y0130320D01*
X0375619Y0129321D02*
X0375119Y0129321D01*
X0375400Y0129719D02*
X0370619Y0134500D01*
X0370619Y0140528D01*
X0370091Y0141000D01*
X0375619Y0141303D02*
X0382619Y0141303D01*
X0382619Y0140305D02*
X0375619Y0140305D01*
X0375619Y0139306D02*
X0382619Y0139306D01*
X0382619Y0138308D02*
X0375619Y0138308D01*
X0375619Y0137309D02*
X0382619Y0137309D01*
X0382619Y0136311D02*
X0375619Y0136311D01*
X0375619Y0135312D02*
X0382619Y0135312D01*
X0382619Y0134314D02*
X0375619Y0134314D01*
X0377369Y0134250D02*
X0380119Y0137000D01*
X0380119Y0140972D01*
X0379146Y0141000D01*
X0381119Y0139000D02*
X0381119Y0150500D01*
X0362370Y0150500D01*
X0362316Y0150502D01*
X0362263Y0150508D01*
X0362210Y0150517D01*
X0362158Y0150530D01*
X0362108Y0150547D01*
X0362058Y0150568D01*
X0362010Y0150592D01*
X0361964Y0150619D01*
X0361920Y0150650D01*
X0361878Y0150683D01*
X0361839Y0150720D01*
X0361802Y0150759D01*
X0361769Y0150801D01*
X0361738Y0150845D01*
X0361711Y0150891D01*
X0361687Y0150939D01*
X0361666Y0150989D01*
X0361649Y0151039D01*
X0361636Y0151091D01*
X0361627Y0151144D01*
X0361621Y0151197D01*
X0361619Y0151251D01*
X0365161Y0149292D02*
X0357375Y0149292D01*
X0357369Y0150290D02*
X0365869Y0150290D01*
X0375619Y0148293D02*
X0382619Y0148293D01*
X0382619Y0147295D02*
X0375619Y0147295D01*
X0375619Y0146296D02*
X0382619Y0146296D01*
X0382619Y0145298D02*
X0375619Y0145298D01*
X0375619Y0144299D02*
X0382619Y0144299D01*
X0382619Y0143301D02*
X0375619Y0143301D01*
X0375619Y0142302D02*
X0382619Y0142302D01*
X0357584Y0143411D02*
X0357584Y0132480D01*
X0355238Y0130134D01*
X0354699Y0130134D01*
X0351985Y0127419D01*
X0351985Y0123581D01*
X0353706Y0121860D01*
X0354699Y0120866D01*
X0358539Y0120866D01*
X0360905Y0118500D01*
X0361857Y0118500D01*
X0360369Y0118338D02*
X0373802Y0118338D01*
X0373416Y0119010D02*
X0373416Y0122750D01*
X0373619Y0123330D02*
X0379619Y0123330D01*
X0379321Y0122750D02*
X0379321Y0119010D01*
X0377353Y0119010D02*
X0377353Y0115862D01*
X0379965Y0113250D01*
X0376709Y0113345D02*
X0360369Y0113345D01*
X0360369Y0112347D02*
X0376709Y0112347D01*
X0376679Y0111348D02*
X0360369Y0111348D01*
X0360369Y0110350D02*
X0376634Y0110350D01*
X0377268Y0109351D02*
X0367821Y0109351D01*
X0368819Y0108353D02*
X0378266Y0108353D01*
X0363917Y0109351D02*
X0361336Y0109351D01*
X0361418Y0108353D02*
X0362918Y0108353D01*
X0360369Y0114344D02*
X0376622Y0114344D01*
X0375762Y0115342D02*
X0360369Y0115342D01*
X0360369Y0116341D02*
X0375762Y0116341D01*
X0374036Y0117339D02*
X0360369Y0117339D01*
X0363943Y0117250D02*
X0366619Y0114575D01*
X0373619Y0119336D02*
X0373794Y0119336D01*
X0373802Y0120335D02*
X0373619Y0120335D01*
X0375384Y0119010D02*
X0377353Y0119010D01*
X0388119Y0119500D02*
X0388119Y0126000D01*
X0412119Y0126000D01*
X0412119Y0119500D01*
X0388119Y0119500D01*
X0388119Y0120335D02*
X0412119Y0120335D01*
X0412119Y0121333D02*
X0388119Y0121333D01*
X0388119Y0122332D02*
X0412119Y0122332D01*
X0412119Y0123330D02*
X0388119Y0123330D01*
X0388119Y0124329D02*
X0412119Y0124329D01*
X0412119Y0125327D02*
X0388119Y0125327D01*
X0375619Y0126326D02*
X0375119Y0126326D01*
X0375384Y0126490D02*
X0375400Y0129719D01*
X0375619Y0128323D02*
X0375119Y0128323D01*
X0375119Y0127324D02*
X0375619Y0127324D01*
X0414119Y0127324D02*
X0418114Y0127324D01*
X0418352Y0127087D02*
X0418532Y0127087D01*
X0421369Y0124250D01*
X0421369Y0109250D01*
X0414119Y0109250D01*
X0414119Y0131750D01*
X0417260Y0131750D01*
X0417260Y0130816D01*
X0417619Y0130458D01*
X0417619Y0128000D01*
X0417713Y0127905D01*
X0417713Y0127725D01*
X0418352Y0127087D01*
X0419293Y0126326D02*
X0414119Y0126326D01*
X0414119Y0125327D02*
X0420291Y0125327D01*
X0421290Y0124329D02*
X0414119Y0124329D01*
X0414119Y0123330D02*
X0421369Y0123330D01*
X0421369Y0122332D02*
X0414119Y0122332D01*
X0414119Y0121333D02*
X0421369Y0121333D01*
X0421369Y0120335D02*
X0414119Y0120335D01*
X0414119Y0119336D02*
X0421369Y0119336D01*
X0421369Y0118338D02*
X0414119Y0118338D01*
X0414119Y0117339D02*
X0421369Y0117339D01*
X0421369Y0116341D02*
X0414119Y0116341D01*
X0414119Y0115342D02*
X0421369Y0115342D01*
X0421369Y0114344D02*
X0414119Y0114344D01*
X0414119Y0113345D02*
X0421369Y0113345D01*
X0421369Y0112347D02*
X0414119Y0112347D01*
X0414119Y0111348D02*
X0421369Y0111348D01*
X0421369Y0110350D02*
X0414119Y0110350D01*
X0414119Y0109351D02*
X0421369Y0109351D01*
X0424119Y0109351D02*
X0431119Y0109351D01*
X0431119Y0109250D02*
X0424119Y0109250D01*
X0424119Y0124500D01*
X0425619Y0126000D01*
X0425619Y0130458D01*
X0425977Y0130816D01*
X0425977Y0131890D01*
X0428869Y0131890D01*
X0428869Y0127000D01*
X0431119Y0124750D01*
X0431119Y0109250D01*
X0431119Y0110350D02*
X0424119Y0110350D01*
X0424119Y0111348D02*
X0431119Y0111348D01*
X0431119Y0112347D02*
X0424119Y0112347D01*
X0424119Y0113345D02*
X0431119Y0113345D01*
X0431119Y0114344D02*
X0424119Y0114344D01*
X0424119Y0115342D02*
X0431119Y0115342D01*
X0431119Y0116341D02*
X0424119Y0116341D01*
X0424119Y0117339D02*
X0431119Y0117339D01*
X0431119Y0118338D02*
X0424119Y0118338D01*
X0424119Y0119336D02*
X0431119Y0119336D01*
X0431119Y0120335D02*
X0424119Y0120335D01*
X0424119Y0121333D02*
X0431119Y0121333D01*
X0431119Y0122332D02*
X0424119Y0122332D01*
X0424119Y0123330D02*
X0431119Y0123330D01*
X0431119Y0124329D02*
X0424119Y0124329D01*
X0424946Y0125327D02*
X0430541Y0125327D01*
X0429543Y0126326D02*
X0425619Y0126326D01*
X0425619Y0127324D02*
X0428869Y0127324D01*
X0428869Y0128323D02*
X0425619Y0128323D01*
X0425619Y0129321D02*
X0428869Y0129321D01*
X0428869Y0130320D02*
X0425619Y0130320D01*
X0425977Y0131318D02*
X0428869Y0131318D01*
X0427426Y0131563D02*
X0427426Y0117858D01*
X0427784Y0117500D01*
X0418453Y0117500D02*
X0415812Y0120142D01*
X0415812Y0131563D01*
X0417260Y0131318D02*
X0414119Y0131318D01*
X0414119Y0130320D02*
X0417619Y0130320D01*
X0417619Y0129321D02*
X0414119Y0129321D01*
X0414119Y0128323D02*
X0417619Y0128323D01*
X0420831Y0129752D02*
X0422406Y0129752D01*
X0423981Y0129752D01*
X0427426Y0133531D02*
X0427426Y0135500D01*
X0427426Y0133531D02*
X0432347Y0133531D01*
X0432347Y0133532D02*
X0432421Y0133518D01*
X0432495Y0133500D01*
X0432568Y0133478D01*
X0432639Y0133454D01*
X0432709Y0133425D01*
X0432778Y0133394D01*
X0432845Y0133358D01*
X0432910Y0133320D01*
X0432974Y0133279D01*
X0433035Y0133234D01*
X0433094Y0133187D01*
X0433150Y0133136D01*
X0433204Y0133083D01*
X0433256Y0133028D01*
X0433304Y0132970D01*
X0433350Y0132909D01*
X0433392Y0132847D01*
X0433432Y0132782D01*
X0433468Y0132716D01*
X0433501Y0132647D01*
X0433531Y0132578D01*
X0433557Y0132507D01*
X0433579Y0132435D01*
X0433598Y0132361D01*
X0433614Y0132287D01*
X0433626Y0132212D01*
X0433634Y0132137D01*
X0433638Y0132062D01*
X0433639Y0131986D01*
X0433636Y0131910D01*
X0433629Y0131835D01*
X0433619Y0131760D01*
X0424793Y0136311D02*
X0418445Y0136311D01*
X0418126Y0138308D02*
X0425111Y0138308D01*
X0424662Y0139306D02*
X0418575Y0139306D01*
X0418387Y0140305D02*
X0424850Y0140305D01*
X0422406Y0141248D02*
X0432111Y0141248D01*
X0433619Y0139240D01*
X0357584Y0143411D02*
X0354119Y0146876D01*
X0354119Y0147596D01*
X0332957Y0165500D02*
X0326060Y0158603D01*
X0313859Y0158603D01*
X0284938Y0129681D01*
X0267937Y0129681D01*
X0266619Y0131000D01*
X0268910Y0132653D02*
X0285081Y0132653D01*
X0317928Y0165500D01*
X0319178Y0165500D01*
X0305398Y0165500D02*
X0305398Y0156424D01*
X0283984Y0135010D01*
X0276875Y0135010D01*
X0275885Y0136000D01*
X0270119Y0136000D01*
X0269708Y0135589D01*
X0264718Y0135589D01*
X0264129Y0135000D01*
X0254237Y0135000D01*
X0253071Y0133834D01*
X0253071Y0132169D01*
X0252993Y0132091D01*
X0251102Y0132169D02*
X0251102Y0134411D01*
X0253491Y0136800D01*
X0263383Y0136800D01*
X0263972Y0137389D01*
X0265181Y0137389D01*
X0268345Y0140552D01*
X0265463Y0141444D02*
X0262619Y0138600D01*
X0252746Y0138600D01*
X0249134Y0134988D01*
X0249134Y0132169D01*
X0249056Y0132091D01*
X0251024Y0132091D02*
X0251102Y0132169D01*
X0254961Y0132091D02*
X0263694Y0132091D01*
X0263830Y0131955D01*
X0263830Y0129262D01*
X0266092Y0127000D01*
X0273322Y0123703D02*
X0274619Y0125000D01*
X0273322Y0123703D02*
X0272315Y0123703D01*
X0271549Y0122937D01*
X0258209Y0122937D01*
X0258209Y0120969D02*
X0273416Y0120969D01*
X0273470Y0120914D01*
X0265589Y0116125D02*
X0265589Y0112188D01*
X0269193Y0108584D01*
X0285150Y0108584D01*
X0288419Y0105315D01*
X0288419Y0081263D01*
X0290381Y0079300D01*
X0300955Y0079300D01*
X0302900Y0077355D01*
X0319974Y0077355D01*
X0321734Y0079115D01*
X0331323Y0079115D01*
X0332084Y0078353D01*
X0332084Y0075500D01*
X0332238Y0075346D01*
X0338119Y0075346D01*
X0332084Y0075500D02*
X0332084Y0073339D01*
X0331323Y0072578D01*
X0326071Y0072578D01*
X0325153Y0071661D01*
X0325153Y0066989D01*
X0327642Y0064500D01*
X0330161Y0061981D01*
X0330999Y0061981D01*
X0349703Y0043278D01*
X0349703Y0024000D01*
X0340634Y0024000D01*
X0349703Y0024000D02*
X0349703Y0023845D01*
X0358048Y0015500D01*
X0373831Y0015500D01*
X0376619Y0018288D01*
X0376619Y0023000D01*
X0379119Y0025500D01*
X0384119Y0025500D01*
X0389119Y0020500D01*
X0381619Y0020500D02*
X0373494Y0012375D01*
X0352244Y0012375D01*
X0346619Y0018000D01*
X0332855Y0018000D01*
X0326855Y0024000D01*
X0331855Y0029000D01*
X0331855Y0052000D01*
X0321619Y0052000D01*
X0321619Y0059500D01*
X0321619Y0075555D01*
X0302154Y0075555D01*
X0300209Y0077500D01*
X0288119Y0077500D01*
X0286619Y0079000D01*
X0286619Y0102382D01*
X0283872Y0105128D01*
X0283872Y0105500D01*
X0283619Y0105500D01*
X0282334Y0106784D01*
X0269939Y0106784D01*
X0267834Y0106784D01*
X0265119Y0109500D01*
X0264007Y0109500D01*
X0263274Y0110233D01*
X0263108Y0110233D01*
X0262119Y0111222D01*
X0260239Y0109157D02*
X0258209Y0109157D01*
X0260239Y0109157D02*
X0260963Y0108433D01*
X0261130Y0108433D01*
X0262119Y0107444D01*
X0259709Y0105909D02*
X0254961Y0105909D01*
X0252993Y0105909D02*
X0252993Y0086920D01*
X0259684Y0080228D01*
X0262239Y0080228D01*
X0262511Y0080500D01*
X0269619Y0080500D01*
X0261144Y0083494D02*
X0261144Y0087903D01*
X0268489Y0095248D01*
X0268489Y0099851D01*
X0267878Y0103184D02*
X0264545Y0099851D01*
X0267878Y0103184D02*
X0279280Y0103184D01*
X0281041Y0101424D01*
X0281041Y0100071D01*
X0283761Y0097351D01*
X0283761Y0095937D01*
X0279688Y0097419D02*
X0278764Y0096495D01*
X0278764Y0082738D01*
X0271642Y0075616D01*
X0265741Y0075616D01*
X0264752Y0074627D01*
X0259534Y0077416D02*
X0259119Y0077000D01*
X0259534Y0077416D02*
X0270896Y0077416D01*
X0275975Y0082494D01*
X0275975Y0095789D01*
X0272267Y0094664D02*
X0272267Y0099970D01*
X0280026Y0104984D02*
X0282594Y0102416D01*
X0282640Y0102416D01*
X0283830Y0101226D01*
X0280026Y0104984D02*
X0263603Y0104984D01*
X0263274Y0104655D01*
X0260963Y0104655D01*
X0259709Y0105909D01*
X0269939Y0106784D02*
X0269939Y0106784D01*
X0251024Y0105909D02*
X0251024Y0084902D01*
X0255331Y0080595D01*
X0255331Y0074412D01*
X0255494Y0073750D01*
X0252247Y0076817D02*
X0249056Y0080009D01*
X0249056Y0105909D01*
X0245119Y0105909D02*
X0245119Y0116974D01*
X0245061Y0117031D01*
X0232028Y0117031D01*
X0223741Y0117031D01*
X0222119Y0118654D01*
X0226465Y0121000D02*
X0222119Y0125346D01*
X0218461Y0127343D02*
X0218461Y0128125D01*
X0219178Y0128843D01*
X0232028Y0128843D01*
X0232028Y0126874D02*
X0231950Y0126796D01*
X0230285Y0126796D01*
X0228489Y0125000D01*
X0228119Y0125000D01*
X0228119Y0121000D02*
X0226465Y0121000D01*
X0228119Y0121000D02*
X0230119Y0119000D01*
X0232028Y0119000D01*
X0232028Y0115063D02*
X0231965Y0115000D01*
X0218119Y0115000D01*
X0220213Y0113094D02*
X0232028Y0113094D01*
X0220213Y0113094D02*
X0218119Y0111000D01*
X0215119Y0110056D02*
X0215119Y0124000D01*
X0218461Y0127343D01*
X0218516Y0130443D02*
X0213319Y0125246D01*
X0213319Y0109310D01*
X0219197Y0103431D01*
X0231575Y0103431D01*
X0233575Y0101431D01*
X0236049Y0101431D01*
X0243387Y0094093D01*
X0243387Y0076106D01*
X0258378Y0061116D01*
X0261003Y0061116D01*
X0266794Y0055325D01*
X0266794Y0022452D01*
X0271814Y0017432D01*
X0272849Y0017466D01*
X0312538Y0017466D01*
X0317316Y0022244D01*
X0317316Y0025756D01*
X0314832Y0028240D01*
X0303536Y0028240D01*
X0299296Y0024000D01*
X0308019Y0019057D02*
X0312962Y0024000D01*
X0313075Y0024000D01*
X0308019Y0019057D02*
X0283469Y0019057D01*
X0280573Y0021952D01*
X0280573Y0026546D01*
X0270369Y0036750D01*
X0270369Y0061750D01*
X0269203Y0062916D01*
X0259123Y0062916D01*
X0245187Y0076852D01*
X0245187Y0094839D01*
X0236795Y0103231D01*
X0234320Y0103231D01*
X0232320Y0105231D01*
X0219943Y0105231D01*
X0215119Y0110056D01*
X0209024Y0114350D02*
X0206190Y0117184D01*
X0205730Y0117184D01*
X0204968Y0117946D01*
X0204968Y0123353D01*
X0207619Y0126004D01*
X0207619Y0126154D01*
X0199119Y0126154D02*
X0199119Y0122555D01*
X0197213Y0120650D01*
X0194379Y0117184D02*
X0197213Y0114350D01*
X0195774Y0111094D02*
X0194006Y0111094D01*
X0192016Y0113084D01*
X0180841Y0113084D01*
X0179257Y0111500D01*
X0179257Y0106309D01*
X0184699Y0100866D01*
X0188450Y0100866D01*
X0192912Y0096404D01*
X0206760Y0096404D01*
X0213264Y0089900D01*
X0220264Y0089900D01*
X0221619Y0088545D01*
X0221619Y0080000D01*
X0220341Y0076916D02*
X0225534Y0076916D01*
X0226119Y0076500D01*
X0222225Y0073377D02*
X0220591Y0075011D01*
X0218746Y0075011D01*
X0215534Y0078222D01*
X0215534Y0083746D01*
X0213680Y0085600D01*
X0209623Y0085600D01*
X0202723Y0092500D01*
X0193619Y0092500D01*
X0185397Y0084278D01*
X0178877Y0082242D02*
X0178877Y0081304D01*
X0187990Y0072191D01*
X0189067Y0072191D01*
X0197485Y0080608D01*
X0197485Y0081355D01*
X0199442Y0083313D01*
X0202398Y0090279D02*
X0190965Y0078846D01*
X0190965Y0078710D01*
X0178877Y0082242D02*
X0175619Y0085500D01*
X0179829Y0089710D01*
X0179829Y0089846D01*
X0185169Y0094000D02*
X0182804Y0096366D01*
X0181727Y0096366D01*
X0172809Y0087449D01*
X0172809Y0084764D01*
X0175096Y0082477D01*
X0175096Y0080477D01*
X0164119Y0069500D01*
X0161568Y0067222D02*
X0168243Y0060547D01*
X0168243Y0055437D01*
X0193337Y0030343D01*
X0220701Y0030343D01*
X0227044Y0024000D01*
X0230398Y0024000D01*
X0195634Y0024000D02*
X0166443Y0053191D01*
X0166443Y0059801D01*
X0160823Y0065422D01*
X0155571Y0065422D01*
X0152146Y0068846D01*
X0149619Y0068846D01*
X0146591Y0068846D01*
X0139723Y0075715D01*
X0122904Y0075715D01*
X0122119Y0076500D01*
X0122119Y0079661D01*
X0129164Y0086707D01*
X0129164Y0086707D01*
X0130219Y0087761D01*
X0130219Y0094600D01*
X0130819Y0095200D01*
X0137797Y0095200D01*
X0141356Y0098759D01*
X0144202Y0098759D01*
X0152446Y0107003D01*
X0152446Y0110626D01*
X0150477Y0111051D02*
X0150477Y0107580D01*
X0143456Y0100559D01*
X0140178Y0100559D01*
X0136619Y0097000D01*
X0129419Y0097000D01*
X0128419Y0096000D01*
X0128419Y0089998D01*
X0128419Y0088507D01*
X0119338Y0079426D01*
X0119338Y0076219D01*
X0121641Y0073915D01*
X0130023Y0073915D01*
X0135091Y0068846D01*
X0137619Y0068846D01*
X0139243Y0067222D01*
X0141068Y0067222D01*
X0142884Y0065406D01*
X0142884Y0061528D01*
X0153556Y0050857D01*
X0165682Y0050857D01*
X0166443Y0050095D01*
X0166443Y0025632D01*
X0168075Y0024000D01*
X0154296Y0024000D02*
X0145856Y0032440D01*
X0145856Y0047957D01*
X0136343Y0047957D01*
X0133194Y0047957D01*
X0130044Y0047957D01*
X0126894Y0047957D01*
X0124794Y0050095D02*
X0124794Y0045818D01*
X0127619Y0042994D01*
X0127619Y0036898D01*
X0140516Y0024000D01*
X0112957Y0024000D02*
X0112957Y0055343D01*
X0108653Y0059647D01*
X0108653Y0064661D01*
X0109415Y0065422D01*
X0114667Y0065422D01*
X0118091Y0068846D01*
X0120619Y0068846D01*
X0113919Y0075546D01*
X0113919Y0079098D01*
X0124850Y0090030D01*
X0124850Y0099264D01*
X0126087Y0100500D01*
X0135460Y0100500D01*
X0139119Y0104159D01*
X0141965Y0104159D01*
X0146371Y0108566D01*
X0146371Y0110883D01*
X0146540Y0111051D01*
X0146571Y0111020D01*
X0148371Y0110913D02*
X0148371Y0108020D01*
X0142710Y0102359D01*
X0139581Y0102359D01*
X0136123Y0098900D01*
X0128019Y0098900D01*
X0126619Y0097500D01*
X0126619Y0089253D01*
X0116815Y0079449D01*
X0116815Y0076196D01*
X0120896Y0072115D01*
X0123323Y0072115D01*
X0126591Y0068846D01*
X0129119Y0068846D01*
X0132543Y0065422D01*
X0140323Y0065422D01*
X0141084Y0064661D01*
X0141084Y0055546D01*
X0136395Y0050857D01*
X0125556Y0050857D01*
X0124794Y0050095D01*
X0126894Y0055043D02*
X0124553Y0057385D01*
X0119415Y0057385D01*
X0114646Y0062154D01*
X0112119Y0062154D01*
X0120619Y0062154D02*
X0122934Y0062154D01*
X0127144Y0057943D01*
X0128233Y0057943D01*
X0128994Y0057182D01*
X0128994Y0056093D01*
X0130044Y0055043D01*
X0132144Y0056093D02*
X0133194Y0055043D01*
X0132144Y0056093D02*
X0132144Y0057182D01*
X0129119Y0060207D01*
X0129119Y0062154D01*
X0137619Y0062154D02*
X0137619Y0056319D01*
X0136343Y0055043D01*
X0145856Y0047957D02*
X0154894Y0047957D01*
X0158044Y0047957D01*
X0158044Y0055043D02*
X0158044Y0058728D01*
X0158119Y0062154D01*
X0154894Y0056878D02*
X0149619Y0062154D01*
X0154894Y0056878D02*
X0154894Y0055043D01*
X0171032Y0057758D02*
X0171032Y0058778D01*
X0178994Y0066740D01*
X0184291Y0061172D02*
X0184562Y0061172D01*
X0184291Y0061172D02*
X0175954Y0052836D01*
X0166927Y0065808D02*
X0173426Y0072308D01*
X0167859Y0077875D02*
X0163483Y0073500D01*
X0157119Y0073500D01*
X0147162Y0083457D01*
X0146119Y0083457D01*
X0143330Y0084612D02*
X0144963Y0086246D01*
X0149994Y0086246D01*
X0153749Y0082491D01*
X0154826Y0082491D01*
X0155778Y0083443D01*
X0162291Y0083443D01*
X0156723Y0089011D02*
X0156723Y0092896D01*
X0155619Y0094000D01*
X0144947Y0096959D02*
X0154246Y0106257D01*
X0154246Y0109500D01*
X0155005Y0110259D01*
X0155005Y0114594D01*
X0155005Y0116563D02*
X0171619Y0116563D01*
X0171619Y0103907D01*
X0168694Y0100982D01*
X0174261Y0095414D02*
X0176202Y0097355D01*
X0176202Y0103412D01*
X0177666Y0105650D02*
X0177666Y0120417D01*
X0173319Y0124764D01*
X0173319Y0143350D01*
X0174408Y0144439D01*
X0174408Y0152000D01*
X0178350Y0148676D02*
X0181119Y0151444D01*
X0181119Y0151500D01*
X0181481Y0151863D01*
X0204882Y0151863D01*
X0206541Y0150204D01*
X0206541Y0136796D01*
X0207619Y0135718D01*
X0207619Y0132846D01*
X0214223Y0137000D02*
X0214223Y0143243D01*
X0209965Y0147500D01*
X0203272Y0147500D02*
X0200710Y0150063D01*
X0196190Y0150063D01*
X0194627Y0148500D01*
X0193430Y0148500D01*
X0189493Y0148500D02*
X0189493Y0141394D01*
X0189493Y0132752D01*
X0191461Y0132752D02*
X0191461Y0129385D01*
X0195657Y0129385D01*
X0199119Y0132846D01*
X0187524Y0132752D02*
X0187524Y0128913D01*
X0187931Y0128507D01*
X0187931Y0127784D01*
X0190375Y0127784D01*
X0193157Y0125002D01*
X0193157Y0117946D01*
X0193919Y0117184D01*
X0194379Y0117184D01*
X0190908Y0115994D02*
X0183328Y0115994D01*
X0179541Y0119782D01*
X0179541Y0121578D01*
X0177619Y0123500D01*
X0177619Y0126000D01*
X0177772Y0126000D01*
X0177772Y0135920D01*
X0178541Y0136689D01*
X0181619Y0136689D01*
X0183717Y0136689D01*
X0185556Y0134850D01*
X0185556Y0132752D01*
X0181619Y0133500D02*
X0181619Y0128846D01*
X0184465Y0126000D01*
X0187931Y0127784D02*
X0187931Y0123493D01*
X0187169Y0122731D01*
X0184124Y0122731D01*
X0182330Y0120937D01*
X0171619Y0116563D02*
X0171619Y0156000D01*
X0172519Y0156900D01*
X0202901Y0156900D01*
X0211501Y0165500D01*
X0197721Y0165500D02*
X0190921Y0158700D01*
X0170319Y0158700D01*
X0169619Y0158000D01*
X0169619Y0118531D01*
X0155005Y0118531D01*
X0155005Y0120500D02*
X0167619Y0120500D01*
X0167619Y0160000D01*
X0168119Y0160500D01*
X0178942Y0160500D01*
X0183942Y0165500D01*
X0170162Y0165500D02*
X0165619Y0160957D01*
X0165619Y0122469D01*
X0155005Y0122469D01*
X0155005Y0124437D02*
X0163819Y0124437D01*
X0163819Y0158064D01*
X0156383Y0165500D01*
X0157119Y0160500D02*
X0147603Y0160500D01*
X0142603Y0165500D01*
X0157119Y0160500D02*
X0162019Y0155600D01*
X0162019Y0126500D01*
X0155099Y0126500D01*
X0155005Y0126406D01*
X0148509Y0129949D02*
X0148509Y0133793D01*
X0150119Y0134404D01*
X0146540Y0134261D02*
X0142480Y0134261D01*
X0141359Y0134382D01*
X0137619Y0134382D01*
X0136697Y0129949D02*
X0136023Y0129949D01*
X0134729Y0129949D01*
X0132760Y0129949D02*
X0132760Y0120500D01*
X0137988Y0120500D02*
X0130792Y0113304D01*
X0130792Y0111051D01*
X0132760Y0111051D02*
X0132760Y0109142D01*
X0131619Y0108000D01*
X0123494Y0108000D01*
X0120994Y0111125D01*
X0117199Y0111125D01*
X0112869Y0106125D02*
X0132869Y0106125D01*
X0134744Y0108000D01*
X0134744Y0111036D01*
X0134729Y0111051D01*
X0136697Y0111051D02*
X0136697Y0115421D01*
X0140634Y0111051D02*
X0141619Y0111051D01*
X0141619Y0109250D01*
X0140369Y0108000D01*
X0137869Y0108000D01*
X0134119Y0104250D01*
X0122159Y0104250D01*
X0120750Y0102841D01*
X0120750Y0091021D01*
X0110119Y0080389D01*
X0110119Y0074070D01*
X0104419Y0068370D01*
X0104419Y0053583D01*
X0088336Y0037500D01*
X0071746Y0037500D01*
X0071619Y0037373D01*
X0071619Y0024000D01*
X0062119Y0024000D02*
X0060772Y0022654D01*
X0057119Y0022654D01*
X0085398Y0024000D02*
X0085398Y0031593D01*
X0106519Y0052713D01*
X0106519Y0067500D01*
X0107865Y0068846D01*
X0112119Y0068846D01*
X0112119Y0079844D01*
X0123050Y0090775D01*
X0123050Y0101096D01*
X0124287Y0102332D01*
X0134746Y0102332D01*
X0138614Y0106200D01*
X0141460Y0106200D01*
X0144403Y0109143D01*
X0144403Y0110883D01*
X0144571Y0111051D01*
X0142603Y0111051D02*
X0142603Y0119516D01*
X0142603Y0111051D02*
X0141619Y0111051D01*
X0148371Y0110913D02*
X0148509Y0111051D01*
X0177666Y0105650D02*
X0184040Y0099276D01*
X0187495Y0099276D01*
X0192167Y0094604D01*
X0205619Y0094604D01*
X0212123Y0088100D01*
X0218119Y0088100D01*
X0218534Y0087684D01*
X0218534Y0078722D01*
X0220341Y0076916D01*
X0218596Y0072616D02*
X0213734Y0077477D01*
X0213734Y0083000D01*
X0212934Y0083800D01*
X0208877Y0083800D01*
X0202398Y0090279D01*
X0186619Y0094000D02*
X0185169Y0094000D01*
X0196576Y0110293D02*
X0195774Y0111094D01*
X0231119Y0100000D02*
X0231487Y0099631D01*
X0235303Y0099631D01*
X0241119Y0093816D01*
X0241119Y0080024D01*
X0240619Y0079524D01*
X0222225Y0073377D02*
X0222225Y0071366D01*
X0227436Y0066155D01*
X0219436Y0072222D02*
X0219542Y0072616D01*
X0218596Y0072616D01*
X0260962Y0083313D02*
X0261144Y0083494D01*
X0264228Y0086625D02*
X0272267Y0094664D01*
X0290619Y0090000D02*
X0290619Y0082500D01*
X0292019Y0081100D01*
X0303519Y0081100D01*
X0304122Y0080497D01*
X0321619Y0075555D02*
X0328327Y0075555D01*
X0328619Y0075846D01*
X0328619Y0069154D02*
X0334653Y0063119D01*
X0334653Y0060640D01*
X0345807Y0049487D01*
X0355462Y0049487D01*
X0379475Y0073000D01*
X0389119Y0073000D01*
X0394099Y0077980D01*
X0402603Y0077980D01*
X0411573Y0080783D02*
X0417046Y0075810D01*
X0419279Y0076748D01*
X0411573Y0080783D02*
X0411573Y0085390D01*
X0409463Y0087500D01*
X0384099Y0096484D02*
X0380871Y0093257D01*
X0380871Y0077442D01*
X0354716Y0051287D01*
X0346553Y0051287D01*
X0345791Y0052048D01*
X0345791Y0060981D01*
X0338119Y0068654D01*
X0327642Y0059500D02*
X0321619Y0059500D01*
X0311118Y0049500D02*
X0285618Y0024000D01*
X0285516Y0024000D01*
X0166927Y0065808D02*
X0166927Y0065808D01*
X0161568Y0067222D02*
X0159743Y0067222D01*
X0158119Y0068846D01*
X0155591Y0068846D01*
X0151938Y0072500D01*
X0145483Y0072500D01*
X0140468Y0077515D01*
X0140119Y0077515D01*
X0143330Y0080726D01*
X0143330Y0084612D01*
X0132019Y0087016D02*
X0125119Y0080116D01*
X0125119Y0078000D01*
X0125604Y0077515D01*
X0140119Y0077515D01*
X0132019Y0087016D02*
X0132019Y0092900D01*
X0132419Y0093300D01*
X0138460Y0093300D01*
X0142119Y0096959D01*
X0144947Y0096959D01*
X0128419Y0089998D02*
X0128419Y0089998D01*
X0117869Y0096625D02*
X0115078Y0093834D01*
X0115078Y0088302D01*
X0106503Y0079727D01*
X0106503Y0073477D01*
X0102294Y0069268D01*
X0102294Y0056458D01*
X0099505Y0053669D01*
X0099505Y0052614D01*
X0099505Y0057614D02*
X0099505Y0063907D01*
X0100192Y0064594D01*
X0100192Y0069712D01*
X0104703Y0074222D01*
X0104703Y0080472D01*
X0107203Y0082972D01*
X0107203Y0089834D01*
X0107244Y0089875D01*
X0106042Y0096625D02*
X0087869Y0114798D01*
X0087869Y0119654D01*
X0081244Y0125500D02*
X0077244Y0125500D01*
X0076619Y0126125D01*
X0072244Y0126125D01*
X0072244Y0114437D01*
X0107869Y0120279D02*
X0112869Y0120279D01*
X0112869Y0106125D01*
X0117869Y0096625D02*
X0106042Y0096625D01*
X0045404Y0080559D02*
X0038904Y0080559D01*
X0040119Y0037500D02*
X0071746Y0037500D01*
X0241250Y0102218D02*
X0242363Y0101105D01*
X0242866Y0101105D01*
X0244119Y0099851D01*
X0241250Y0102218D02*
X0241250Y0105841D01*
X0241182Y0105909D01*
X0262119Y0115000D02*
X0263244Y0116125D01*
X0265124Y0116125D01*
X0265119Y0116120D01*
X0265124Y0116125D02*
X0265589Y0116125D01*
X0290056Y0116125D01*
X0298469Y0112724D02*
X0298469Y0109850D01*
X0296334Y0107715D01*
X0291390Y0107715D01*
X0290629Y0106954D01*
X0290629Y0090010D01*
X0290619Y0090000D01*
X0294522Y0097687D02*
X0301931Y0097687D01*
X0307869Y0103625D01*
X0328994Y0103625D01*
X0331431Y0101582D02*
X0331431Y0094159D01*
X0327619Y0090346D01*
X0334182Y0091240D02*
X0327619Y0083654D01*
X0331431Y0101582D02*
X0332192Y0102343D01*
X0333462Y0102343D01*
X0336306Y0105187D01*
X0334144Y0107437D01*
X0323128Y0107437D01*
X0321401Y0105710D01*
X0306828Y0105710D01*
X0305369Y0104250D01*
X0301619Y0104250D01*
X0258209Y0119000D02*
X0245119Y0119000D01*
X0245119Y0132091D01*
X0237245Y0132091D02*
X0237167Y0132169D01*
X0235276Y0132091D02*
X0225664Y0132091D01*
X0224016Y0130443D01*
X0218516Y0130443D01*
X0203272Y0139500D02*
X0202430Y0138657D01*
X0197367Y0138657D01*
X0189493Y0140626D02*
X0189109Y0141010D01*
X0189493Y0141394D01*
X0189109Y0141010D02*
X0185556Y0144563D01*
X0181619Y0144563D01*
X0181450Y0142763D02*
X0179120Y0142763D01*
X0178350Y0143532D01*
X0178350Y0148676D01*
X0177059Y0142278D02*
X0178543Y0140794D01*
X0181450Y0140794D01*
X0181619Y0140626D01*
X0181619Y0142594D02*
X0181450Y0142763D01*
X0177059Y0142278D02*
X0175908Y0142278D01*
X0175908Y0138500D02*
X0181461Y0138500D01*
X0181619Y0138657D01*
X0197367Y0144563D02*
X0197367Y0147274D01*
X0197345Y0147274D01*
X0230758Y0161530D02*
X0232902Y0161530D01*
X0238207Y0156225D01*
X0257582Y0156225D01*
X0265463Y0148344D01*
X0265463Y0141444D01*
X0265463Y0133789D02*
X0267774Y0133789D01*
X0268910Y0132653D01*
X0265463Y0133789D02*
X0263830Y0132155D01*
X0263830Y0131955D01*
X0245119Y0119000D02*
X0245119Y0116974D01*
X0290369Y0146125D02*
X0270994Y0165500D01*
X0266619Y0165500D01*
X0155465Y0147500D02*
X0155465Y0146443D01*
X0150119Y0141096D01*
X0143742Y0141717D02*
X0143742Y0145435D01*
X0145307Y0147000D01*
X0145307Y0150007D01*
X0144682Y0150632D01*
X0144682Y0152000D01*
X0139682Y0157000D01*
X0130272Y0157000D01*
X0128619Y0155346D01*
X0128619Y0157000D01*
X0121883Y0163736D01*
X0135165Y0155200D02*
X0128619Y0148654D01*
X0133879Y0144618D02*
X0135236Y0145976D01*
X0135236Y0147519D01*
X0137119Y0149401D01*
X0137119Y0152000D01*
X0138936Y0155200D02*
X0141359Y0152777D01*
X0141359Y0144618D01*
X0138976Y0143261D02*
X0138976Y0141717D01*
X0139738Y0140956D01*
X0142980Y0140956D01*
X0143742Y0141717D01*
X0138976Y0143261D02*
X0137619Y0144618D01*
X0146540Y0145268D02*
X0148772Y0147500D01*
X0146540Y0145268D02*
X0146540Y0134261D01*
X0146540Y0129949D01*
X0148494Y0129949D02*
X0148509Y0129949D01*
X0144571Y0129949D02*
X0142603Y0129949D01*
X0140634Y0129949D02*
X0138666Y0129949D01*
X0112119Y0131500D02*
X0112119Y0131578D01*
X0109441Y0134256D01*
X0109441Y0134821D01*
X0107162Y0137100D01*
X0081719Y0137100D01*
X0078119Y0133500D01*
X0074465Y0133500D01*
X0082008Y0141500D02*
X0084608Y0138900D01*
X0108408Y0138900D01*
X0111897Y0135411D01*
X0112230Y0135411D01*
X0082008Y0141500D02*
X0074465Y0141500D01*
X0075619Y0141500D01*
X0135165Y0155200D02*
X0138936Y0155200D01*
X0144682Y0152000D02*
X0150965Y0152000D01*
X0155465Y0147500D01*
X0409306Y0070813D02*
X0411245Y0068874D01*
X0419279Y0068874D01*
X0415230Y0061000D02*
X0411174Y0065056D01*
X0415230Y0061000D02*
X0419279Y0061000D01*
D65*
X0428181Y0053000D02*
X0431619Y0056437D01*
X0431619Y0060500D01*
X0428181Y0053000D02*
X0419404Y0053000D01*
X0419279Y0053125D01*
X0419183Y0067936D02*
X0419279Y0068874D01*
X0424887Y0072985D02*
X0411856Y0072985D01*
X0410369Y0074472D01*
X0410369Y0077500D01*
X0408869Y0079000D01*
X0419279Y0076748D02*
X0419276Y0076125D01*
X0424887Y0072985D02*
X0426174Y0072948D01*
X0426077Y0072948D01*
X0430151Y0068874D01*
X0478334Y0068874D01*
X0365869Y0104750D02*
X0364224Y0103105D01*
X0359727Y0103105D01*
X0359727Y0108569D01*
X0356056Y0112240D01*
X0356465Y0112331D01*
X0356465Y0117250D01*
X0361119Y0118500D02*
X0361857Y0118500D01*
X0366619Y0113738D01*
X0366619Y0114575D01*
X0366619Y0118625D01*
X0373416Y0119010D02*
X0373400Y0119260D01*
X0373400Y0113622D01*
X0373272Y0113250D01*
X0368607Y0111750D01*
X0366619Y0113738D01*
X0379965Y0113250D02*
X0381619Y0111750D01*
X0359727Y0103105D02*
X0357305Y0100683D01*
X0357305Y0092361D01*
X0359619Y0090048D01*
X0359619Y0088937D01*
X0350634Y0085461D02*
X0348934Y0083760D01*
X0334182Y0083760D01*
X0299744Y0075279D02*
X0278843Y0075279D01*
X0273563Y0069999D01*
X0272406Y0069999D01*
X0254727Y0069999D01*
X0247087Y0077639D01*
X0247087Y0103005D01*
X0243150Y0103005D01*
X0243150Y0105909D01*
X0247087Y0105909D02*
X0247087Y0103005D01*
X0236556Y0093937D02*
X0233383Y0097111D01*
X0229922Y0097111D01*
X0228230Y0098803D01*
X0228230Y0099389D01*
X0226087Y0101531D01*
X0218410Y0101531D01*
X0209208Y0110734D01*
X0200658Y0110734D01*
X0197747Y0107823D01*
X0193053Y0107823D01*
X0190642Y0110234D01*
X0184658Y0110234D01*
X0184424Y0110000D01*
X0182119Y0110000D01*
X0182266Y0109853D01*
X0142603Y0119516D02*
X0141619Y0120500D01*
X0132760Y0120500D01*
X0128233Y0122469D02*
X0128233Y0124437D01*
X0128233Y0126406D01*
X0128233Y0129949D01*
X0128233Y0133426D01*
X0125250Y0136408D01*
X0125250Y0151978D01*
X0128619Y0155346D01*
X0130119Y0160125D02*
X0127869Y0162375D01*
X0127869Y0171750D01*
X0129744Y0173625D01*
X0129744Y0177375D01*
X0123190Y0183928D01*
X0061994Y0183928D01*
X0060419Y0185503D01*
X0045619Y0185503D01*
X0041785Y0181669D01*
X0040607Y0181669D01*
X0040607Y0165331D01*
X0044938Y0161000D01*
X0053626Y0161000D01*
X0055310Y0162684D01*
X0055310Y0165845D01*
X0060619Y0171154D01*
X0065669Y0168964D02*
X0065669Y0173500D01*
X0061322Y0177846D01*
X0060619Y0177846D01*
X0065669Y0168964D02*
X0066957Y0167675D01*
X0068290Y0167675D01*
X0071965Y0164000D01*
X0078119Y0164000D01*
X0089619Y0150500D02*
X0094619Y0155500D01*
X0094619Y0175500D01*
X0094119Y0175500D01*
X0104119Y0175500D02*
X0104119Y0165000D01*
X0099619Y0160500D01*
X0131260Y0167914D02*
X0131260Y0171836D01*
X0134744Y0175320D01*
X0134744Y0175500D01*
X0136619Y0175500D01*
X0144119Y0183000D01*
X0401619Y0183000D01*
X0404619Y0154369D02*
X0404619Y0151369D01*
X0418465Y0151369D01*
X0418465Y0147500D01*
X0424119Y0146846D02*
X0424272Y0147500D01*
X0427018Y0151369D02*
X0430386Y0147000D01*
X0430965Y0147500D01*
X0431764Y0147000D01*
X0432949Y0148185D01*
X0427018Y0151369D02*
X0418465Y0151369D01*
X0403562Y0142154D02*
X0397465Y0148250D01*
X0390772Y0148250D02*
X0390119Y0147250D01*
X0390119Y0139000D01*
X0403562Y0142154D02*
X0404619Y0142154D01*
X0408119Y0134012D02*
X0409272Y0134500D01*
X0368597Y0126740D02*
X0366619Y0124762D01*
X0366619Y0125500D01*
X0363619Y0141000D01*
X0361619Y0141000D01*
X0361619Y0151251D01*
X0346806Y0147990D02*
X0346806Y0147187D01*
X0343619Y0144000D01*
X0343614Y0144000D01*
X0340464Y0140850D01*
X0335524Y0140850D01*
X0335524Y0137150D01*
X0335524Y0140850D02*
X0320512Y0140850D01*
X0319557Y0139895D01*
X0319557Y0137814D01*
X0317244Y0135500D01*
X0323713Y0137150D02*
X0325863Y0135000D01*
X0327119Y0135000D01*
X0330119Y0132000D01*
X0330119Y0127500D01*
X0334272Y0123346D01*
X0335119Y0123346D01*
X0327119Y0123346D02*
X0327119Y0127445D01*
X0323713Y0130850D01*
X0335524Y0130850D02*
X0343028Y0123346D01*
X0343119Y0123346D01*
X0350195Y0135500D02*
X0350195Y0140904D01*
X0351619Y0140904D01*
X0316619Y0155419D02*
X0316619Y0155500D01*
X0285369Y0146750D02*
X0275994Y0146750D01*
X0257244Y0165500D01*
X0252839Y0165500D01*
X0258994Y0160625D02*
X0243935Y0160625D01*
X0239060Y0165500D01*
X0238994Y0158125D02*
X0231619Y0165500D01*
X0225280Y0165500D01*
X0238994Y0158125D02*
X0258369Y0158125D01*
X0278024Y0138470D01*
X0282089Y0138470D01*
X0282869Y0143000D02*
X0276619Y0143000D01*
X0258994Y0160625D01*
X0237694Y0150925D02*
X0232578Y0156041D01*
X0222967Y0156041D01*
X0222793Y0156214D01*
X0221536Y0156214D01*
X0217619Y0152296D01*
X0217619Y0147846D01*
X0225182Y0144654D02*
X0225835Y0144500D01*
X0222489Y0141154D01*
X0217619Y0141154D01*
X0225835Y0140283D02*
X0228119Y0138500D01*
X0237619Y0138500D01*
X0241119Y0135000D01*
X0241119Y0132154D01*
X0241182Y0132091D01*
X0243119Y0132122D02*
X0243150Y0132091D01*
X0243119Y0132122D02*
X0243119Y0136000D01*
X0240402Y0138717D01*
X0240402Y0144500D01*
X0242402Y0146000D01*
X0247272Y0146000D01*
X0253965Y0146000D02*
X0253965Y0149914D01*
X0256703Y0149914D01*
X0260078Y0146539D01*
X0260078Y0145847D01*
X0260767Y0145158D01*
X0260767Y0142500D01*
X0251130Y0142500D01*
X0245119Y0136489D01*
X0245119Y0132091D01*
X0245149Y0132091D01*
X0247087Y0132091D02*
X0247087Y0135629D01*
X0251959Y0140500D01*
X0261832Y0140500D01*
X0262767Y0141435D01*
X0262767Y0146961D01*
X0253965Y0149914D02*
X0252954Y0150925D01*
X0237694Y0150925D01*
X0225835Y0144500D02*
X0225835Y0140283D01*
X0247087Y0132091D02*
X0247156Y0132091D01*
X0247119Y0132122D02*
X0247087Y0132091D01*
X0279522Y0126125D02*
X0280147Y0125500D01*
X0280147Y0121125D01*
X0280119Y0124846D01*
X0280119Y0118500D01*
X0279644Y0118025D01*
X0261058Y0118025D01*
X0260065Y0117031D01*
X0258209Y0117031D01*
X0293897Y0104250D02*
X0294522Y0104250D01*
X0294522Y0097687D01*
X0295369Y0086437D02*
X0307244Y0098000D01*
X0301619Y0104250D02*
X0300590Y0104250D01*
X0300044Y0118925D02*
X0301619Y0120500D01*
X0303194Y0122075D01*
X0301619Y0120500D02*
X0301619Y0118925D01*
X0300044Y0118925D01*
X0301619Y0120500D02*
X0303194Y0118925D01*
X0299744Y0075279D02*
X0299744Y0059500D01*
X0305595Y0059500D01*
X0303176Y0056919D02*
X0299496Y0056919D01*
X0297119Y0059297D01*
X0297119Y0072500D01*
X0296340Y0073279D01*
X0279748Y0073279D01*
X0275295Y0068825D01*
X0275295Y0068802D01*
X0273493Y0067000D01*
X0259619Y0067000D01*
X0252119Y0062000D02*
X0264969Y0049150D01*
X0264969Y0032350D01*
X0262562Y0029943D01*
X0255410Y0029943D01*
X0249466Y0024000D01*
X0244178Y0024000D01*
X0311118Y0049500D02*
X0315369Y0049500D01*
X0315369Y0054875D01*
X0305595Y0054500D02*
X0303176Y0056919D01*
X0315369Y0049500D02*
X0327642Y0049500D01*
X0389119Y0020500D02*
X0391619Y0020500D01*
X0154296Y0024000D02*
X0149296Y0019000D01*
X0076619Y0019000D01*
X0071619Y0024000D01*
X0057119Y0022654D02*
X0051131Y0022654D01*
X0051131Y0017831D01*
X0051131Y0022654D02*
X0051131Y0034169D01*
X0057119Y0034500D02*
X0057119Y0029346D01*
X0025518Y0049457D02*
X0025369Y0049457D01*
X0042054Y0071898D02*
X0067221Y0071898D01*
X0071771Y0076447D01*
X0099472Y0076447D01*
X0100420Y0075500D01*
X0101619Y0075500D01*
X0100119Y0080500D02*
X0094566Y0080447D01*
X0072301Y0080447D01*
X0068082Y0076228D01*
X0040479Y0076228D01*
X0041479Y0084250D02*
X0104119Y0084250D01*
X0107244Y0089875D02*
X0106936Y0090183D01*
X0075801Y0090183D01*
X0072432Y0093551D01*
X0040479Y0093551D01*
X0039562Y0101425D02*
X0029062Y0101425D01*
X0039562Y0101425D02*
X0048800Y0110663D01*
X0048800Y0124654D01*
X0045465Y0124654D01*
X0041237Y0128882D01*
X0035119Y0128882D01*
X0035119Y0134000D02*
X0046465Y0134000D01*
X0049119Y0131346D01*
X0049272Y0131500D01*
X0054619Y0131500D01*
X0055406Y0136559D02*
X0060119Y0131346D01*
X0065619Y0131346D01*
X0067772Y0133500D01*
X0055406Y0136559D02*
X0035119Y0136559D01*
X0035119Y0139118D02*
X0045749Y0139118D01*
X0049619Y0142988D01*
X0057453Y0142988D01*
X0059619Y0145154D01*
X0081041Y0145154D01*
X0085395Y0140800D01*
X0111452Y0140800D01*
X0112230Y0139911D01*
X0119869Y0138250D02*
X0119869Y0128971D01*
X0117869Y0126971D01*
X0107869Y0126971D01*
X0098494Y0127375D02*
X0094557Y0127375D01*
X0094557Y0127365D01*
X0087869Y0127365D01*
X0087869Y0126346D01*
X0087869Y0125500D01*
X0081244Y0125500D01*
X0087869Y0119654D02*
X0094557Y0119654D01*
X0094557Y0119885D01*
X0102824Y0120279D02*
X0102824Y0123625D01*
X0102824Y0120279D02*
X0107869Y0120279D01*
X0116619Y0120279D02*
X0116619Y0111125D01*
X0117199Y0111125D01*
X0108932Y0114471D02*
X0108932Y0114865D01*
X0108932Y0114471D02*
X0101619Y0114471D01*
X0098494Y0114471D01*
X0098494Y0127375D01*
X0116619Y0120279D02*
X0117869Y0120279D01*
X0136619Y0115500D02*
X0141619Y0120500D01*
X0137988Y0120500D01*
X0136619Y0115500D02*
X0136697Y0115421D01*
X0108932Y0107779D02*
X0108932Y0107385D01*
X0108932Y0099816D01*
X0114756Y0099816D01*
X0108994Y0093625D02*
X0105994Y0093625D01*
X0085369Y0114250D01*
X0080546Y0114250D01*
X0080359Y0114437D01*
X0072879Y0114437D02*
X0072244Y0114437D01*
X0068772Y0121000D02*
X0065119Y0124654D01*
X0060119Y0124654D01*
X0049119Y0124654D01*
X0048800Y0124654D01*
X0061619Y0140000D02*
X0063119Y0141500D01*
X0067772Y0141500D01*
X0128619Y0138000D02*
X0132237Y0134382D01*
X0133879Y0134382D01*
X0135136Y0133124D01*
X0135136Y0131440D01*
X0136023Y0130553D01*
X0136023Y0129949D01*
X0132760Y0129949D02*
X0130792Y0129949D01*
X0128233Y0129949D01*
X0150119Y0134404D02*
X0158119Y0134404D01*
X0158119Y0141096D02*
X0157119Y0142540D01*
X0159531Y0144952D01*
X0159531Y0150048D01*
X0155210Y0154369D01*
X0145500Y0154369D01*
X0134728Y0165141D01*
X0134033Y0165141D01*
X0131260Y0167914D01*
X0181619Y0148000D02*
X0181619Y0144563D01*
X0108932Y0107779D02*
X0101619Y0107779D01*
X0076619Y0106169D02*
X0071619Y0106169D01*
X0071619Y0105500D01*
X0108994Y0093625D02*
X0111994Y0090250D01*
X0041479Y0084250D02*
X0040479Y0084890D01*
D66*
X0045404Y0080559D03*
X0100119Y0080500D03*
X0104119Y0084250D03*
X0107244Y0089875D03*
X0111994Y0090250D03*
X0117869Y0096625D03*
X0114756Y0099816D03*
X0071619Y0105500D03*
X0081244Y0125500D03*
X0119869Y0138250D03*
X0081369Y0148438D03*
X0078119Y0164000D03*
X0130119Y0160125D03*
X0230758Y0161530D03*
X0316619Y0155419D03*
X0404619Y0154369D03*
X0401619Y0183000D03*
X0404619Y0116500D03*
X0389119Y0111750D03*
X0336306Y0105187D03*
X0328994Y0103625D03*
X0315994Y0116750D03*
X0359619Y0088937D03*
X0356619Y0075500D03*
X0366619Y0075500D03*
X0386619Y0076084D03*
X0408869Y0079000D03*
X0409306Y0070813D03*
X0411174Y0065056D03*
X0431619Y0060500D03*
X0446619Y0060500D03*
X0457495Y0085500D03*
X0409463Y0087500D03*
X0371619Y0055500D03*
X0346619Y0040500D03*
X0361619Y0035500D03*
X0377869Y0038500D03*
X0315369Y0054875D03*
X0221619Y0080000D03*
X0236556Y0093937D03*
X0182119Y0110000D03*
X0101619Y0075500D03*
D67*
X0152446Y0110626D02*
X0152571Y0110500D01*
X0152446Y0110626D02*
X0152446Y0111051D01*
X0283494Y0121125D02*
X0284444Y0122075D01*
X0293843Y0122075D01*
X0293843Y0123650D02*
X0288691Y0123650D01*
X0286215Y0126125D01*
X0290994Y0125224D02*
X0290994Y0128625D01*
X0294119Y0131750D02*
X0296894Y0128974D01*
X0296894Y0128276D01*
X0298469Y0128276D02*
X0298469Y0133650D01*
X0296619Y0135500D01*
X0301619Y0132375D02*
X0303494Y0134250D01*
X0301619Y0132375D02*
X0301619Y0128276D01*
X0303194Y0128276D02*
X0303194Y0122075D01*
X0303194Y0118925D02*
X0309394Y0118925D01*
X0312544Y0118925D01*
X0313494Y0119875D01*
X0317869Y0119875D01*
X0319119Y0118625D01*
X0322575Y0118625D01*
X0323825Y0119875D01*
X0345294Y0119875D01*
X0347309Y0120609D02*
X0352351Y0120609D01*
X0320994Y0121750D02*
X0312244Y0121750D01*
X0311919Y0122075D01*
X0309394Y0122075D01*
X0309394Y0123650D02*
X0312844Y0123650D01*
X0314119Y0124875D01*
X0315309Y0124875D01*
X0317244Y0124816D01*
X0314119Y0128000D02*
X0311343Y0125224D01*
X0309394Y0125224D01*
X0306894Y0128276D02*
X0309744Y0131125D01*
X0306244Y0132625D02*
X0306244Y0146375D01*
X0315369Y0155500D01*
X0316619Y0155500D01*
X0301619Y0139250D02*
X0300044Y0137675D01*
X0300044Y0128276D01*
X0304768Y0128276D02*
X0304768Y0131150D01*
X0306244Y0132625D01*
X0306343Y0128276D02*
X0306894Y0128276D01*
X0293843Y0125224D02*
X0290994Y0125224D01*
X0290056Y0120500D02*
X0290056Y0116125D01*
X0293494Y0112724D02*
X0296894Y0112724D01*
X0300044Y0112724D02*
X0300044Y0118925D01*
X0293843Y0118925D01*
X0293843Y0120500D02*
X0290056Y0120500D01*
X0293494Y0112724D02*
X0293494Y0111437D01*
X0301619Y0112724D02*
X0301619Y0104250D01*
X0304744Y0108000D02*
X0320678Y0108000D01*
X0321601Y0108923D01*
X0322256Y0109569D01*
X0322262Y0109563D01*
X0322262Y0109562D01*
X0322256Y0109569D02*
X0322256Y0109569D01*
X0321446Y0111214D02*
X0319883Y0109651D01*
X0305370Y0109651D01*
X0304768Y0110252D01*
X0304768Y0112724D01*
X0303194Y0112724D02*
X0303194Y0109550D01*
X0304744Y0108000D01*
X0307244Y0111750D02*
X0319153Y0111750D01*
X0320403Y0113000D01*
X0317809Y0113625D02*
X0320622Y0116437D01*
X0315994Y0116750D02*
X0315344Y0117350D01*
X0309394Y0117350D01*
X0309394Y0115776D02*
X0310718Y0115776D01*
X0312869Y0113625D01*
X0317809Y0113625D01*
X0307244Y0111750D02*
X0306343Y0112651D01*
X0306343Y0112724D01*
X0320428Y0121809D02*
X0320994Y0121750D01*
X0320994Y0122075D01*
D68*
X0320994Y0121750D03*
X0317244Y0124816D03*
X0314119Y0128000D03*
X0309744Y0131125D03*
X0303494Y0134250D03*
X0301619Y0139250D03*
X0296619Y0135500D03*
X0294119Y0131750D03*
X0290994Y0128625D03*
X0274619Y0125000D03*
X0266092Y0127000D03*
X0266619Y0131000D03*
X0270119Y0136000D03*
X0268345Y0140552D03*
X0282089Y0138470D03*
X0282869Y0143000D03*
X0285369Y0146750D03*
X0290369Y0146125D03*
X0262767Y0146961D03*
X0221536Y0156214D03*
X0197345Y0147274D03*
X0181619Y0148000D03*
X0174408Y0152000D03*
X0175908Y0142278D03*
X0175908Y0138500D03*
X0181619Y0133500D03*
X0182330Y0120937D03*
X0190908Y0115994D03*
X0196576Y0110293D03*
X0176202Y0103412D03*
X0186619Y0094000D03*
X0199442Y0083313D03*
X0226119Y0076500D03*
X0219436Y0072222D03*
X0227436Y0066155D03*
X0252119Y0062000D03*
X0259619Y0067000D03*
X0272406Y0069999D03*
X0264752Y0074627D03*
X0259119Y0077000D03*
X0252247Y0076817D03*
X0255494Y0073750D03*
X0240619Y0079524D03*
X0260962Y0083313D03*
X0269619Y0080500D03*
X0264228Y0086625D03*
X0275975Y0095789D03*
X0279688Y0097419D03*
X0283761Y0095937D03*
X0294522Y0097687D03*
X0283830Y0101226D03*
X0283872Y0105500D03*
X0293494Y0111437D03*
X0283494Y0121125D03*
X0280147Y0121125D03*
X0273470Y0120914D03*
X0262119Y0115000D03*
X0262119Y0111222D03*
X0262119Y0107444D03*
X0264545Y0099851D03*
X0268489Y0099851D03*
X0272267Y0099970D03*
X0244119Y0099851D03*
X0231119Y0100000D03*
X0218119Y0111000D03*
X0218119Y0115000D03*
X0228119Y0121000D03*
X0228119Y0125000D03*
X0217874Y0133245D03*
X0214223Y0137000D03*
X0137119Y0152000D03*
X0112230Y0139911D03*
X0112230Y0135411D03*
X0112119Y0131500D03*
X0128619Y0138000D03*
X0061619Y0140000D03*
X0054619Y0131500D03*
X0155619Y0094000D03*
X0146119Y0083457D03*
X0164119Y0069500D03*
X0166927Y0065808D03*
X0171032Y0057758D03*
X0175954Y0052836D03*
X0183677Y0049058D03*
X0237619Y0021500D03*
X0099505Y0052614D03*
X0099505Y0057614D03*
X0057119Y0034500D03*
X0062119Y0024000D03*
X0295369Y0086437D03*
X0304122Y0080497D03*
X0307244Y0098000D03*
X0317244Y0135500D03*
X0350195Y0135500D03*
D69*
X0351619Y0140904D02*
X0346806Y0140904D01*
X0346806Y0140510D01*
X0351619Y0140904D02*
X0354119Y0140904D01*
X0379965Y0113250D02*
X0387619Y0113250D01*
X0389119Y0111750D01*
X0347947Y0108062D02*
X0344181Y0108062D01*
X0335881Y0099762D01*
X0335881Y0097500D01*
X0361658Y0096484D02*
X0361658Y0091684D01*
X0363003Y0090339D01*
X0363003Y0087536D01*
X0361021Y0085553D01*
X0360994Y0085553D01*
X0360994Y0075500D01*
X0366619Y0075500D01*
X0360994Y0075500D02*
X0360994Y0066125D01*
X0361619Y0065500D01*
X0361619Y0061159D01*
X0355999Y0055539D01*
X0350634Y0055539D01*
X0361658Y0051713D02*
X0361658Y0044516D01*
X0369138Y0044516D02*
X0376619Y0044516D01*
X0384099Y0044516D02*
X0391579Y0044516D01*
X0391212Y0044148D01*
X0391212Y0055133D01*
X0391619Y0055539D01*
X0402603Y0055539D01*
X0391619Y0055539D02*
X0375694Y0055539D01*
X0375655Y0055500D01*
X0371619Y0055500D01*
X0365445Y0055500D01*
X0361658Y0051713D01*
X0346619Y0040500D02*
X0332619Y0054500D01*
X0327642Y0054500D01*
X0377869Y0038500D02*
X0391212Y0038500D01*
X0391212Y0044148D01*
X0391212Y0038500D02*
X0396619Y0038500D01*
X0396619Y0035500D01*
X0401619Y0030500D01*
X0419279Y0030500D01*
X0419279Y0029503D01*
X0420713Y0030500D01*
X0420713Y0030499D02*
X0420644Y0030510D01*
X0420576Y0030516D01*
X0420506Y0030519D01*
X0420437Y0030518D01*
X0420368Y0030513D01*
X0420299Y0030504D01*
X0420231Y0030491D01*
X0420164Y0030474D01*
X0420098Y0030454D01*
X0420033Y0030430D01*
X0419969Y0030402D01*
X0419907Y0030371D01*
X0419847Y0030336D01*
X0419789Y0030298D01*
X0419734Y0030257D01*
X0419680Y0030213D01*
X0419629Y0030166D01*
X0419581Y0030116D01*
X0419536Y0030064D01*
X0419494Y0030009D01*
X0419455Y0029951D01*
X0419419Y0029892D01*
X0419387Y0029831D01*
X0419358Y0029768D01*
X0419332Y0029703D01*
X0419311Y0029638D01*
X0419293Y0029571D01*
X0419279Y0029503D01*
X0419279Y0030500D02*
X0431619Y0030500D01*
X0438806Y0037626D01*
X0457495Y0037626D01*
X0446619Y0025187D02*
X0446619Y0017779D01*
X0447022Y0017375D01*
X0453715Y0017375D02*
X0460056Y0017375D01*
X0369138Y0035785D02*
X0368228Y0034875D01*
X0446619Y0060500D02*
X0446619Y0061000D01*
X0478334Y0061000D01*
X0457495Y0084622D02*
X0419279Y0084622D01*
X0402603Y0085461D02*
X0402426Y0085638D01*
X0391619Y0085638D01*
X0391619Y0095500D01*
X0391622Y0095503D01*
X0391622Y0096442D01*
X0391579Y0096484D01*
X0391619Y0085638D02*
X0391619Y0081084D01*
X0386619Y0076084D01*
X0360994Y0085553D02*
X0350727Y0085553D01*
X0350634Y0085461D01*
X0350634Y0077980D02*
X0354138Y0077980D01*
X0356619Y0075500D01*
X0436619Y0105978D02*
X0436644Y0105953D01*
X0457495Y0085500D02*
X0457495Y0084622D01*
X0262767Y0146961D02*
X0256103Y0153625D01*
X0237837Y0153625D01*
X0233221Y0158241D01*
X0223878Y0158241D01*
X0216644Y0165475D01*
X0216644Y0167630D01*
X0216619Y0167656D01*
X0216619Y0171603D01*
X0124119Y0175500D02*
X0124119Y0165971D01*
X0121883Y0163736D01*
X0119369Y0161221D01*
X0118647Y0160500D01*
X0109619Y0160500D01*
X0119369Y0154529D02*
X0115119Y0150279D01*
X0115119Y0143000D01*
X0086806Y0143000D01*
X0081369Y0148438D01*
X0084819Y0148512D02*
X0084819Y0174300D01*
X0084119Y0175500D01*
X0081369Y0169875D02*
X0081369Y0165536D01*
X0081503Y0165402D01*
X0081503Y0162598D01*
X0080982Y0162077D01*
X0080982Y0154012D01*
X0059805Y0154012D01*
X0059805Y0152033D01*
X0059619Y0151846D01*
X0059805Y0154012D02*
X0049619Y0154012D01*
X0021619Y0154012D01*
X0021619Y0101425D01*
X0029062Y0101425D01*
X0029062Y0089560D01*
X0029401Y0089220D01*
X0025369Y0085720D01*
X0025369Y0049457D01*
X0025518Y0049457D02*
X0028162Y0049457D01*
X0040119Y0037500D01*
X0040119Y0033490D01*
X0040107Y0033478D01*
X0040107Y0017831D01*
X0040107Y0033478D02*
X0040107Y0034169D01*
X0183677Y0049058D02*
X0183677Y0049151D01*
X0190130Y0055604D01*
X0202100Y0067575D02*
X0206025Y0071500D01*
X0212395Y0071500D01*
X0223229Y0060666D01*
X0229453Y0060666D01*
X0244119Y0046000D01*
X0244119Y0032715D01*
X0239034Y0027630D01*
X0239034Y0022916D01*
X0237619Y0021500D01*
X0249825Y0033566D02*
X0253912Y0033566D01*
X0255096Y0034750D01*
X0259119Y0034750D01*
X0249825Y0033566D02*
X0246935Y0036456D01*
X0246935Y0046684D01*
X0230553Y0063066D01*
X0224223Y0063066D01*
X0212895Y0074395D01*
X0203873Y0074395D01*
X0202621Y0073143D01*
X0196533Y0073143D01*
X0080546Y0114250D02*
X0080546Y0119573D01*
X0079119Y0121000D01*
X0075465Y0121000D01*
X0115119Y0143000D02*
X0119869Y0138250D01*
X0099619Y0150500D02*
X0096407Y0150500D01*
X0091607Y0145700D01*
X0087630Y0145700D01*
X0084819Y0148512D01*
X0051631Y0165331D02*
X0051631Y0181669D01*
X0051690Y0181728D01*
X0067265Y0181728D01*
X0067869Y0181125D01*
X0067869Y0169875D01*
X0081369Y0169875D01*
X0067869Y0181125D02*
X0119744Y0181125D01*
X0124119Y0176750D01*
X0124119Y0175500D01*
X0038904Y0089220D02*
X0029401Y0089220D01*
D70*
X0209965Y0139500D02*
X0211540Y0137925D01*
X0211540Y0135889D01*
X0213111Y0134317D01*
X0215334Y0134317D01*
X0217517Y0136500D01*
X0236896Y0136500D01*
X0239029Y0134367D01*
X0239029Y0132275D01*
X0239213Y0132091D01*
X0237167Y0132169D02*
X0237167Y0133834D01*
X0236232Y0134769D01*
X0221296Y0134769D01*
X0219772Y0133245D01*
X0217874Y0133245D01*
X0317244Y0135500D02*
X0317244Y0129375D01*
X0320994Y0125625D01*
X0320994Y0121750D01*
X0320622Y0116437D02*
X0326903Y0116437D01*
X0326903Y0116438D02*
X0326931Y0116440D01*
X0326959Y0116445D01*
X0326986Y0116454D01*
X0327011Y0116467D01*
X0327034Y0116483D01*
X0327056Y0116501D01*
X0327074Y0116523D01*
X0327090Y0116546D01*
X0327103Y0116571D01*
X0327112Y0116598D01*
X0327117Y0116626D01*
X0327119Y0116654D01*
X0331465Y0113000D02*
X0335119Y0116654D01*
X0331465Y0113000D02*
X0320403Y0113000D01*
X0321446Y0111214D02*
X0337679Y0111214D01*
X0343119Y0116654D01*
X0345294Y0119875D02*
X0346575Y0119875D01*
X0347309Y0120609D01*
X0352351Y0120609D02*
X0353602Y0121860D01*
X0353706Y0121860D01*
X0349772Y0117250D02*
X0353090Y0113932D01*
X0353090Y0110171D01*
X0356056Y0107206D01*
X0356056Y0104760D01*
X0356556Y0104614D01*
X0355512Y0103570D01*
X0355512Y0094893D01*
X0350226Y0089607D01*
X0346597Y0089607D01*
X0344490Y0087500D01*
X0342449Y0087500D01*
X0338002Y0091240D02*
X0334182Y0091240D01*
X0338002Y0091240D02*
X0351253Y0104492D01*
X0351253Y0110569D01*
X0350554Y0111269D01*
X0344568Y0111269D01*
X0342862Y0109562D01*
X0342855Y0109569D01*
X0322256Y0109569D01*
X0356556Y0104614D02*
X0356556Y0104106D01*
D71*
X0382619Y0105500D02*
X0396619Y0105500D01*
X0401619Y0110500D01*
X0401619Y0113500D01*
X0404619Y0116500D01*
X0404619Y0119488D01*
X0408119Y0122988D01*
X0404843Y0123154D01*
X0400119Y0122988D01*
X0392119Y0122988D01*
X0392119Y0134012D02*
X0396875Y0133346D01*
X0396119Y0134102D01*
X0396875Y0133346D02*
X0400119Y0134012D01*
X0408119Y0134012D01*
X0433619Y0131760D02*
X0434359Y0131760D01*
X0436619Y0129500D01*
X0436619Y0105978D01*
X0436644Y0105953D02*
X0417119Y0105953D01*
X0436644Y0105953D02*
X0444401Y0105953D01*
X0447540Y0102813D01*
X0476114Y0102813D01*
X0438984Y0142150D02*
X0436180Y0139346D01*
X0369138Y0044516D02*
X0369138Y0035785D01*
X0368228Y0034875D02*
X0362244Y0034875D01*
X0361619Y0035500D01*
X0368228Y0034875D02*
X0379119Y0034875D01*
X0379119Y0030500D01*
X0371619Y0023000D01*
X0371619Y0020500D01*
X0390369Y0034875D02*
X0403494Y0021750D01*
X0443117Y0021750D01*
X0446619Y0025187D01*
X0390369Y0034875D02*
X0379119Y0034875D01*
D72*
X0478334Y0037377D02*
X0491746Y0037377D01*
X0491857Y0037379D01*
X0491969Y0037385D01*
X0492080Y0037395D01*
X0492190Y0037409D01*
X0492300Y0037427D01*
X0492410Y0037448D01*
X0492518Y0037474D01*
X0492626Y0037504D01*
X0492732Y0037537D01*
X0492837Y0037574D01*
X0492941Y0037615D01*
X0493043Y0037659D01*
X0493144Y0037707D01*
X0493243Y0037759D01*
X0493340Y0037814D01*
X0493434Y0037873D01*
X0493527Y0037935D01*
X0493618Y0038000D01*
X0493706Y0038068D01*
X0493791Y0038140D01*
X0493874Y0038214D01*
X0493954Y0038292D01*
X0494032Y0038372D01*
X0494106Y0038455D01*
X0494178Y0038540D01*
X0494246Y0038628D01*
X0494311Y0038719D01*
X0494373Y0038812D01*
X0494432Y0038906D01*
X0494487Y0039003D01*
X0494539Y0039102D01*
X0494587Y0039203D01*
X0494631Y0039305D01*
X0494672Y0039409D01*
X0494709Y0039514D01*
X0494742Y0039620D01*
X0494772Y0039728D01*
X0494798Y0039836D01*
X0494819Y0039946D01*
X0494837Y0040056D01*
X0494851Y0040166D01*
X0494861Y0040277D01*
X0494867Y0040389D01*
X0494869Y0040500D01*
X0494869Y0030500D02*
X0494867Y0030440D01*
X0494862Y0030380D01*
X0494853Y0030320D01*
X0494840Y0030261D01*
X0494824Y0030203D01*
X0494804Y0030146D01*
X0494781Y0030091D01*
X0494755Y0030037D01*
X0494725Y0029984D01*
X0494693Y0029934D01*
X0494657Y0029885D01*
X0494618Y0029839D01*
X0494577Y0029795D01*
X0494533Y0029754D01*
X0494487Y0029715D01*
X0494438Y0029679D01*
X0494388Y0029647D01*
X0494335Y0029617D01*
X0494281Y0029591D01*
X0494226Y0029568D01*
X0494169Y0029548D01*
X0494111Y0029532D01*
X0494052Y0029519D01*
X0493992Y0029510D01*
X0493932Y0029505D01*
X0493872Y0029503D01*
X0478334Y0029503D01*
X0382619Y0105500D02*
X0374857Y0105500D01*
X0368607Y0111750D01*
X0366619Y0125500D02*
X0356619Y0125500D01*
X0390119Y0139000D02*
X0390619Y0139000D01*
X0390619Y0138500D01*
X0391119Y0138000D01*
X0394965Y0138000D01*
X0390119Y0139000D02*
X0390119Y0141500D01*
X0452915Y0173253D02*
X0476931Y0173253D01*
D73*
X0390119Y0141500D03*
X0356619Y0125500D03*
X0382619Y0105500D03*
X0365869Y0104750D03*
X0315994Y0098937D03*
X0202619Y0106000D03*
X0186619Y0105500D03*
X0311619Y0144250D03*
X0463181Y0127997D03*
X0251869Y0038500D03*
X0259119Y0034750D03*
X0446619Y0025187D03*
X0135994Y0169875D03*
X0147869Y0178000D03*
D74*
X0150215Y0177528D01*
X0415369Y0177528D01*
X0415369Y0165766D01*
X0415634Y0165500D01*
X0432949Y0148185D01*
X0438984Y0142150D01*
X0441984Y0139151D01*
X0441984Y0115865D01*
X0447162Y0110687D01*
X0476114Y0110687D01*
X0361619Y0149500D02*
X0361619Y0151251D01*
X0357818Y0155052D01*
X0346806Y0155052D01*
X0339744Y0162052D01*
X0339744Y0171603D01*
X0216619Y0171603D01*
X0137222Y0171603D01*
X0135994Y0169875D01*
X0311619Y0144250D02*
X0314119Y0146750D01*
X0321107Y0146750D01*
X0332131Y0146750D02*
X0336038Y0146750D01*
X0338538Y0144250D01*
X0346806Y0147990D02*
X0346806Y0155052D01*
X0415369Y0177528D02*
X0453016Y0177528D01*
X0452915Y0173253D01*
X0324857Y0098937D02*
X0315994Y0098937D01*
X0324857Y0098937D02*
X0324857Y0097500D01*
X0259119Y0047500D02*
X0235619Y0071500D01*
X0235619Y0086500D01*
X0223619Y0098000D01*
X0216619Y0098000D01*
X0210115Y0104504D01*
X0204182Y0104504D01*
X0203185Y0106000D01*
X0202619Y0106000D01*
X0208127Y0099704D02*
X0194279Y0099704D01*
X0188483Y0105500D01*
X0186619Y0105500D01*
X0208127Y0099704D02*
X0214630Y0093200D01*
X0221630Y0093200D01*
X0230725Y0084106D01*
X0230725Y0069106D01*
X0251869Y0047962D01*
X0251869Y0038500D01*
X0259119Y0034750D02*
X0259119Y0047500D01*
X0457495Y0037626D02*
X0478085Y0037626D01*
X0478115Y0037624D01*
X0478145Y0037619D01*
X0478173Y0037610D01*
X0478201Y0037597D01*
X0478226Y0037582D01*
X0478250Y0037563D01*
X0478271Y0037542D01*
X0478290Y0037518D01*
X0478305Y0037493D01*
X0478318Y0037465D01*
X0478327Y0037437D01*
X0478332Y0037407D01*
X0478334Y0037377D01*
X0494869Y0020500D02*
X0494867Y0020388D01*
X0494861Y0020277D01*
X0494851Y0020166D01*
X0494837Y0020055D01*
X0494819Y0019945D01*
X0494798Y0019836D01*
X0494772Y0019727D01*
X0494742Y0019620D01*
X0494709Y0019513D01*
X0494672Y0019408D01*
X0494631Y0019304D01*
X0494587Y0019202D01*
X0494538Y0019101D01*
X0494487Y0019002D01*
X0494432Y0018905D01*
X0494373Y0018810D01*
X0494311Y0018718D01*
X0494246Y0018627D01*
X0494177Y0018539D01*
X0494106Y0018454D01*
X0494031Y0018371D01*
X0493954Y0018290D01*
X0493873Y0018213D01*
X0493790Y0018138D01*
X0493705Y0018067D01*
X0493617Y0017998D01*
X0493526Y0017933D01*
X0493434Y0017871D01*
X0493339Y0017812D01*
X0493242Y0017757D01*
X0493143Y0017706D01*
X0493042Y0017657D01*
X0492940Y0017613D01*
X0492836Y0017572D01*
X0492731Y0017535D01*
X0492624Y0017502D01*
X0492517Y0017472D01*
X0492408Y0017446D01*
X0492299Y0017425D01*
X0492189Y0017407D01*
X0492078Y0017393D01*
X0491967Y0017383D01*
X0491856Y0017377D01*
X0491744Y0017375D01*
X0460056Y0017375D01*
D75*
X0460056Y0017375D03*
X0457495Y0037626D03*
D76*
X0182056Y0144563D02*
X0181619Y0144563D01*
D77*
X0417119Y0105953D03*
D78*
X0463181Y0127997D02*
X0463556Y0128372D01*
X0476931Y0128372D01*
X0388075Y0165500D02*
X0382132Y0159557D01*
X0358055Y0159557D01*
X0352111Y0165500D01*
X0346737Y0165500D01*
D79*
X0495681Y0178312D03*
X0026306Y0178312D03*
X0026619Y0020500D03*
M02*
