G75*
%MOIN*%
%OFA0B0*%
%FSLAX25Y25*%
%IPPOS*%
%LPD*%
%AMOC8*
5,1,8,0,0,1.08239X$1,22.5*
%
%ADD10R,0.10591X0.20591*%
%ADD11C,0.40591*%
%ADD12C,0.06991*%
%ADD13C,0.07991*%
%ADD14R,0.06890X0.06890*%
%ADD15C,0.06890*%
%ADD16R,0.16591X0.06591*%
%ADD17C,0.08591*%
%ADD18C,0.05709*%
%ADD19C,0.04528*%
%ADD20OC8,0.04134*%
%ADD21OC8,0.03150*%
%ADD22OC8,0.07677*%
%ADD23OC8,0.06969*%
%ADD24OC8,0.04488*%
%ADD25OC8,0.23091*%
D10*
X0292869Y0058625D03*
X0352869Y0058625D03*
D11*
X0322869Y0058625D03*
D12*
X0109619Y0150500D03*
X0099619Y0150500D03*
X0089619Y0150500D03*
X0089619Y0160500D03*
X0099619Y0160500D03*
X0109619Y0160500D03*
D13*
X0114119Y0175500D03*
X0124119Y0175500D03*
X0104119Y0175500D03*
X0094119Y0175500D03*
X0084119Y0175500D03*
X0074119Y0175500D03*
X0361619Y0020500D03*
X0371619Y0020500D03*
X0381619Y0020500D03*
X0391619Y0020500D03*
D14*
X0216619Y0024000D03*
X0071619Y0024000D03*
X0266619Y0165500D03*
X0291619Y0165500D03*
D15*
X0305398Y0165500D03*
X0319178Y0165500D03*
X0332957Y0165500D03*
X0346737Y0165500D03*
X0360516Y0165500D03*
X0374296Y0165500D03*
X0388075Y0165500D03*
X0401855Y0165500D03*
X0415634Y0165500D03*
X0252839Y0165500D03*
X0239060Y0165500D03*
X0225280Y0165500D03*
X0211501Y0165500D03*
X0197721Y0165500D03*
X0183942Y0165500D03*
X0170162Y0165500D03*
X0156383Y0165500D03*
X0142603Y0165500D03*
X0022619Y0147780D03*
X0022619Y0120220D03*
X0085398Y0024000D03*
X0099178Y0024000D03*
X0112957Y0024000D03*
X0126737Y0024000D03*
X0140516Y0024000D03*
X0154296Y0024000D03*
X0168075Y0024000D03*
X0181855Y0024000D03*
X0195634Y0024000D03*
X0230398Y0024000D03*
X0244178Y0024000D03*
X0257957Y0024000D03*
X0271737Y0024000D03*
X0285516Y0024000D03*
X0299296Y0024000D03*
X0313075Y0024000D03*
X0326855Y0024000D03*
X0340634Y0024000D03*
D16*
X0494869Y0020500D03*
X0494869Y0040500D03*
D17*
X0476931Y0150813D03*
X0458931Y0150813D03*
D18*
X0033249Y0143843D03*
X0033249Y0124157D03*
D19*
X0165492Y0092212D03*
X0193331Y0064373D03*
D20*
X0221619Y0080000D03*
X0236556Y0093937D03*
X0182119Y0110000D03*
X0117869Y0096625D03*
X0114756Y0099816D03*
X0111994Y0090250D03*
X0107244Y0089875D03*
X0104119Y0084250D03*
X0100119Y0080500D03*
X0101619Y0075500D03*
X0045404Y0080559D03*
X0071619Y0105500D03*
X0081244Y0125500D03*
X0119869Y0138250D03*
X0081369Y0148438D03*
X0078119Y0164000D03*
X0130119Y0160125D03*
X0230758Y0161530D03*
X0316619Y0155419D03*
X0404619Y0154369D03*
X0401619Y0183000D03*
X0404619Y0116500D03*
X0389119Y0111750D03*
X0336306Y0105187D03*
X0328994Y0103625D03*
X0315994Y0116750D03*
X0359619Y0088937D03*
X0356619Y0075500D03*
X0366619Y0075500D03*
X0386619Y0076084D03*
X0408869Y0079000D03*
X0409306Y0070813D03*
X0411174Y0065056D03*
X0431619Y0060500D03*
X0446619Y0060500D03*
X0457495Y0085500D03*
X0409463Y0087500D03*
X0371619Y0055500D03*
X0346619Y0040500D03*
X0361619Y0035500D03*
X0377869Y0038500D03*
X0315369Y0054875D03*
D21*
X0272406Y0069999D03*
X0259619Y0067000D03*
X0255494Y0073750D03*
X0264752Y0074627D03*
X0259119Y0077000D03*
X0252247Y0076817D03*
X0240619Y0079524D03*
X0226119Y0076500D03*
X0219436Y0072222D03*
X0227436Y0066155D03*
X0252119Y0062000D03*
X0269619Y0080500D03*
X0260962Y0083313D03*
X0264228Y0086625D03*
X0275975Y0095789D03*
X0279688Y0097419D03*
X0283761Y0095937D03*
X0294522Y0097687D03*
X0283830Y0101226D03*
X0283872Y0105500D03*
X0293494Y0111437D03*
X0283494Y0121125D03*
X0280147Y0121125D03*
X0273470Y0120914D03*
X0274619Y0125000D03*
X0266092Y0127000D03*
X0266619Y0131000D03*
X0270119Y0136000D03*
X0268345Y0140552D03*
X0282089Y0138470D03*
X0282869Y0143000D03*
X0285369Y0146750D03*
X0290369Y0146125D03*
X0301619Y0139250D03*
X0303494Y0134250D03*
X0309744Y0131125D03*
X0314119Y0128000D03*
X0317244Y0124816D03*
X0320994Y0121750D03*
X0294119Y0131750D03*
X0296619Y0135500D03*
X0290994Y0128625D03*
X0317244Y0135500D03*
X0350195Y0135500D03*
X0262767Y0146961D03*
X0221536Y0156214D03*
X0197345Y0147274D03*
X0181619Y0148000D03*
X0174408Y0152000D03*
X0175908Y0142278D03*
X0175908Y0138500D03*
X0181619Y0133500D03*
X0182330Y0120937D03*
X0190908Y0115994D03*
X0196576Y0110293D03*
X0176202Y0103412D03*
X0186619Y0094000D03*
X0199442Y0083313D03*
X0164119Y0069500D03*
X0166927Y0065808D03*
X0171032Y0057758D03*
X0175954Y0052836D03*
X0183677Y0049058D03*
X0237619Y0021500D03*
X0099505Y0052614D03*
X0099505Y0057614D03*
X0057119Y0034500D03*
X0062119Y0024000D03*
X0146119Y0083457D03*
X0155619Y0094000D03*
X0218119Y0111000D03*
X0218119Y0115000D03*
X0228119Y0121000D03*
X0228119Y0125000D03*
X0217874Y0133245D03*
X0214223Y0137000D03*
X0262119Y0115000D03*
X0262119Y0111222D03*
X0262119Y0107444D03*
X0264545Y0099851D03*
X0268489Y0099851D03*
X0272267Y0099970D03*
X0244119Y0099851D03*
X0231119Y0100000D03*
X0295369Y0086437D03*
X0304122Y0080497D03*
X0307244Y0098000D03*
X0137119Y0152000D03*
X0112230Y0139911D03*
X0112230Y0135411D03*
X0112119Y0131500D03*
X0128619Y0138000D03*
X0061619Y0140000D03*
X0054619Y0131500D03*
D22*
X0135994Y0169875D03*
X0147869Y0178000D03*
X0311619Y0144250D03*
X0356619Y0125500D03*
X0390119Y0141500D03*
X0463181Y0127997D03*
X0382619Y0105500D03*
X0365869Y0104750D03*
X0315994Y0098937D03*
X0202619Y0106000D03*
X0186619Y0105500D03*
X0251869Y0038500D03*
X0259119Y0034750D03*
X0446619Y0025187D03*
D23*
X0460056Y0017375D03*
X0457495Y0037626D03*
D24*
X0417119Y0105953D03*
D25*
X0026619Y0020500D03*
X0026306Y0178312D03*
X0495681Y0178312D03*
M02*
