G75*
%MOIN*%
%OFA0B0*%
%FSLAX25Y25*%
%IPPOS*%
%LPD*%
%AMOC8*
5,1,8,0,0,1.08239X$1,22.5*
%
%ADD10R,0.10000X0.20000*%
%ADD11C,0.40000*%
%ADD12C,0.06400*%
%ADD13C,0.07400*%
%ADD14R,0.06299X0.06299*%
%ADD15C,0.06299*%
%ADD16R,0.16000X0.06000*%
%ADD17C,0.05118*%
%ADD18C,0.03150*%
%ADD19OC8,0.03543*%
%ADD20OC8,0.02559*%
%ADD21C,0.01200*%
%ADD22C,0.01000*%
%ADD23C,0.05000*%
%ADD24OC8,0.07087*%
%ADD25C,0.01600*%
%ADD26C,0.02400*%
%ADD27C,0.04000*%
%ADD28C,0.03200*%
%ADD29OC8,0.06378*%
%ADD30OC8,0.03898*%
%ADD31OC8,0.22500*%
D10*
X0292869Y0058625D03*
X0352869Y0058625D03*
D11*
X0322869Y0058625D03*
D12*
X0109619Y0150500D03*
X0099619Y0150500D03*
X0089619Y0150500D03*
X0089619Y0160500D03*
X0099619Y0160500D03*
X0109619Y0160500D03*
D13*
X0114119Y0175500D03*
X0124119Y0175500D03*
X0104119Y0175500D03*
X0094119Y0175500D03*
X0084119Y0175500D03*
X0074119Y0175500D03*
X0361619Y0020500D03*
X0371619Y0020500D03*
X0381619Y0020500D03*
X0391619Y0020500D03*
D14*
X0216619Y0024000D03*
X0071619Y0024000D03*
X0266619Y0165500D03*
X0291619Y0165500D03*
D15*
X0305398Y0165500D03*
X0319178Y0165500D03*
X0332957Y0165500D03*
X0346737Y0165500D03*
X0360516Y0165500D03*
X0374296Y0165500D03*
X0388075Y0165500D03*
X0401855Y0165500D03*
X0415634Y0165500D03*
X0252839Y0165500D03*
X0239060Y0165500D03*
X0225280Y0165500D03*
X0211501Y0165500D03*
X0197721Y0165500D03*
X0183942Y0165500D03*
X0170162Y0165500D03*
X0156383Y0165500D03*
X0142603Y0165500D03*
X0022619Y0147780D03*
X0022619Y0120220D03*
X0085398Y0024000D03*
X0099178Y0024000D03*
X0112957Y0024000D03*
X0126737Y0024000D03*
X0140516Y0024000D03*
X0154296Y0024000D03*
X0168075Y0024000D03*
X0181855Y0024000D03*
X0195634Y0024000D03*
X0230398Y0024000D03*
X0244178Y0024000D03*
X0257957Y0024000D03*
X0271737Y0024000D03*
X0285516Y0024000D03*
X0299296Y0024000D03*
X0313075Y0024000D03*
X0326855Y0024000D03*
X0340634Y0024000D03*
D16*
X0494869Y0020500D03*
X0494869Y0040500D03*
D17*
X0033249Y0124157D03*
X0033249Y0143843D03*
D18*
X0421619Y0137862D03*
X0421619Y0133138D03*
D19*
X0404619Y0116500D03*
X0389119Y0111750D03*
X0336306Y0105187D03*
X0328994Y0103625D03*
X0315994Y0116750D03*
X0359619Y0088937D03*
X0356619Y0075500D03*
X0366619Y0075500D03*
X0386619Y0076084D03*
X0408869Y0079000D03*
X0409306Y0070813D03*
X0411174Y0065056D03*
X0431619Y0060500D03*
X0446619Y0060500D03*
X0457495Y0085500D03*
X0409463Y0087500D03*
X0371619Y0055500D03*
X0346619Y0040500D03*
X0361619Y0035500D03*
X0377869Y0038500D03*
X0315369Y0054875D03*
X0221619Y0080000D03*
X0236556Y0093937D03*
X0182119Y0110000D03*
X0117869Y0096625D03*
X0114756Y0099816D03*
X0111994Y0090250D03*
X0107244Y0089875D03*
X0104119Y0084250D03*
X0100119Y0080500D03*
X0101619Y0075500D03*
X0045404Y0080559D03*
X0071619Y0105500D03*
X0081244Y0125500D03*
X0119869Y0138250D03*
X0081369Y0148438D03*
X0078119Y0164000D03*
X0130119Y0160125D03*
X0230758Y0161530D03*
X0316619Y0155419D03*
X0404619Y0154369D03*
X0401619Y0183000D03*
D20*
X0290369Y0146125D03*
X0285369Y0146750D03*
X0282869Y0143000D03*
X0282089Y0138470D03*
X0296619Y0135500D03*
X0294119Y0131750D03*
X0290994Y0128625D03*
X0303494Y0134250D03*
X0301619Y0139250D03*
X0317244Y0135500D03*
X0309744Y0131125D03*
X0314119Y0128000D03*
X0317244Y0124816D03*
X0320994Y0121750D03*
X0293494Y0111437D03*
X0283872Y0105500D03*
X0283830Y0101226D03*
X0279688Y0097419D03*
X0275975Y0095789D03*
X0283761Y0095937D03*
X0294522Y0097687D03*
X0307244Y0098000D03*
X0295369Y0086437D03*
X0304122Y0080497D03*
X0272406Y0069999D03*
X0259619Y0067000D03*
X0255494Y0073750D03*
X0264752Y0074627D03*
X0259119Y0077000D03*
X0252247Y0076817D03*
X0240619Y0079524D03*
X0226119Y0076500D03*
X0219436Y0072222D03*
X0227436Y0066155D03*
X0252119Y0062000D03*
X0269619Y0080500D03*
X0260962Y0083313D03*
X0264228Y0086625D03*
X0264545Y0099851D03*
X0268489Y0099851D03*
X0272267Y0099970D03*
X0262119Y0107444D03*
X0262119Y0111222D03*
X0262119Y0115000D03*
X0273470Y0120914D03*
X0280147Y0121125D03*
X0283494Y0121125D03*
X0274619Y0125000D03*
X0266092Y0127000D03*
X0266619Y0131000D03*
X0270119Y0136000D03*
X0268345Y0140552D03*
X0262767Y0146961D03*
X0221536Y0156214D03*
X0197345Y0147274D03*
X0181619Y0148000D03*
X0174408Y0152000D03*
X0175908Y0142278D03*
X0175908Y0138500D03*
X0181619Y0133500D03*
X0182330Y0120937D03*
X0190908Y0115994D03*
X0196576Y0110293D03*
X0176202Y0103412D03*
X0186619Y0094000D03*
X0199442Y0083313D03*
X0164119Y0069500D03*
X0166927Y0065808D03*
X0171032Y0057758D03*
X0175954Y0052836D03*
X0183677Y0049058D03*
X0237619Y0021500D03*
X0099505Y0052614D03*
X0099505Y0057614D03*
X0057119Y0034500D03*
X0062119Y0024000D03*
X0146119Y0083457D03*
X0155619Y0094000D03*
X0218119Y0111000D03*
X0218119Y0115000D03*
X0228119Y0121000D03*
X0228119Y0125000D03*
X0217874Y0133245D03*
X0214223Y0137000D03*
X0137119Y0152000D03*
X0112230Y0139911D03*
X0112230Y0135411D03*
X0112119Y0131500D03*
X0128619Y0138000D03*
X0061619Y0140000D03*
X0054619Y0131500D03*
X0231119Y0100000D03*
X0244119Y0099851D03*
X0350195Y0135500D03*
D21*
X0347869Y0135500D01*
X0323016Y0128000D02*
X0360516Y0165500D01*
X0401619Y0183000D02*
X0408494Y0176125D01*
X0408494Y0162375D01*
X0442871Y0127997D01*
X0463181Y0127997D01*
X0359619Y0088937D02*
X0358758Y0089798D01*
X0269362Y0089798D01*
X0265220Y0093940D01*
X0264463Y0093940D01*
X0236556Y0093937D01*
X0218119Y0111000D02*
X0206094Y0098976D01*
X0183916Y0098976D01*
X0183892Y0099000D01*
X0173319Y0099000D01*
X0171319Y0101000D01*
X0122244Y0101000D01*
X0117869Y0096625D01*
X0114756Y0099816D02*
X0117756Y0103000D01*
X0172462Y0103000D01*
X0174462Y0101000D01*
X0176279Y0101000D01*
X0184424Y0101000D01*
X0184658Y0100766D01*
X0204580Y0100766D01*
X0207353Y0103539D01*
X0207353Y0104234D01*
X0218119Y0115000D01*
X0228119Y0121000D02*
X0234277Y0121000D01*
X0234619Y0121342D01*
X0234619Y0131000D01*
X0235619Y0132000D01*
X0255119Y0132000D01*
X0262767Y0139648D01*
X0262767Y0146961D01*
X0264118Y0148313D01*
X0272869Y0148313D01*
X0272869Y0132779D01*
X0280147Y0125500D01*
X0280147Y0121125D01*
X0283494Y0121125D02*
X0288181Y0116437D01*
X0288181Y0105500D01*
X0283872Y0105500D01*
X0293494Y0103312D02*
X0293494Y0111437D01*
X0293494Y0103312D02*
X0296619Y0100500D01*
X0302869Y0100500D01*
X0305369Y0098000D01*
X0307244Y0098000D01*
X0315994Y0116750D02*
X0328994Y0103625D01*
X0336306Y0105187D02*
X0336306Y0121750D01*
X0320994Y0121750D01*
X0323016Y0128000D02*
X0314119Y0128000D01*
X0317244Y0135500D02*
X0304744Y0135500D01*
X0303494Y0134250D01*
X0301619Y0139250D02*
X0297244Y0139250D01*
X0290369Y0146125D01*
X0285369Y0145500D02*
X0285369Y0146750D01*
X0285369Y0145500D02*
X0295369Y0135500D01*
X0296619Y0135500D01*
X0294119Y0131750D02*
X0282869Y0143000D01*
X0282089Y0138470D02*
X0290684Y0129875D01*
X0290994Y0128625D01*
X0266619Y0131000D02*
X0266619Y0138826D01*
X0268345Y0140552D01*
X0221572Y0156250D02*
X0220647Y0155325D01*
X0194522Y0155325D01*
X0187197Y0148000D01*
X0181619Y0148000D01*
X0177952Y0145167D02*
X0178797Y0144322D01*
X0178797Y0124470D01*
X0182330Y0120937D01*
X0182119Y0115000D02*
X0154184Y0142934D01*
X0128619Y0142934D01*
X0128619Y0138000D01*
X0124553Y0142934D02*
X0119869Y0138250D01*
X0124553Y0142934D02*
X0128619Y0142934D01*
X0120656Y0148534D02*
X0156504Y0148534D01*
X0159871Y0145167D01*
X0177952Y0145167D01*
X0154169Y0170500D02*
X0144973Y0160406D01*
X0129838Y0160406D01*
X0130119Y0160125D01*
X0119244Y0160125D01*
X0109619Y0150500D01*
X0105019Y0151605D02*
X0105019Y0148595D01*
X0107244Y0146370D01*
X0107244Y0089875D01*
X0104119Y0088497D02*
X0104119Y0084250D01*
X0104119Y0087012D01*
X0104119Y0088497D02*
X0104059Y0088556D01*
X0104059Y0146059D01*
X0099619Y0150500D01*
X0101524Y0155100D02*
X0105019Y0151605D01*
X0101524Y0155100D02*
X0097713Y0155100D01*
X0093113Y0150500D01*
X0089619Y0150500D01*
X0112230Y0139911D02*
X0113230Y0140800D01*
X0113230Y0141108D01*
X0120656Y0148534D01*
X0061619Y0140000D02*
X0061619Y0138500D01*
X0054619Y0131500D01*
X0081244Y0125500D02*
X0081244Y0055125D01*
X0060619Y0034500D01*
X0057119Y0034500D01*
X0101619Y0075500D02*
X0104119Y0078000D01*
X0219619Y0078000D01*
X0221619Y0080000D01*
X0252247Y0076817D02*
X0252247Y0062128D01*
X0252119Y0062000D01*
X0272406Y0069999D02*
X0276119Y0066286D01*
X0276119Y0039000D01*
X0279619Y0035500D01*
X0361619Y0035500D01*
X0322869Y0054875D02*
X0315369Y0054875D01*
X0322869Y0054875D02*
X0322869Y0058625D01*
X0297994Y0081250D02*
X0270369Y0081250D01*
X0269619Y0080500D01*
X0270244Y0081125D01*
X0269520Y0086125D02*
X0265145Y0090500D01*
X0170306Y0090500D01*
X0167156Y0087350D01*
X0137049Y0087350D01*
X0135824Y0086125D01*
X0115194Y0086125D01*
X0111994Y0089325D01*
X0111994Y0090250D01*
X0104119Y0084250D02*
X0104119Y0084125D01*
X0104694Y0083500D01*
X0146119Y0083457D01*
X0178042Y0083423D01*
X0181214Y0086595D01*
X0182629Y0086595D01*
X0264228Y0086625D01*
X0269520Y0086125D02*
X0291619Y0086125D01*
X0292244Y0086437D01*
X0295369Y0086437D01*
X0291669Y0086125D02*
X0291619Y0086125D01*
X0297994Y0081250D02*
X0302369Y0085625D01*
X0345244Y0085625D01*
X0347869Y0082500D01*
X0385324Y0082500D01*
X0386107Y0082535D01*
X0386145Y0082500D01*
X0405369Y0082500D01*
X0408869Y0079000D01*
X0230412Y0161184D02*
X0229050Y0159934D01*
X0228680Y0159564D01*
X0217098Y0159564D01*
X0217098Y0167548D01*
X0214146Y0170500D01*
X0154169Y0170500D01*
X0114144Y0175500D02*
X0114119Y0175500D01*
X0230412Y0161184D02*
X0230758Y0161530D01*
X0182119Y0115000D02*
X0182119Y0110000D01*
X0071619Y0105500D02*
X0070345Y0105500D01*
X0045404Y0080559D01*
D22*
X0084619Y0093500D02*
X0084619Y0153000D01*
X0087119Y0155500D01*
X0092119Y0155500D01*
X0097119Y0160500D01*
X0099619Y0160500D01*
X0079832Y0181214D02*
X0074119Y0175500D01*
X0079832Y0181214D02*
X0144529Y0181214D01*
X0145949Y0182634D01*
X0306101Y0182634D01*
X0314938Y0173797D01*
X0314938Y0163744D01*
X0316619Y0162063D01*
X0316619Y0155419D01*
X0319978Y0131125D02*
X0352305Y0163452D01*
X0352305Y0166186D01*
X0356619Y0170500D01*
X0369296Y0170500D01*
X0374296Y0165500D01*
X0347869Y0135500D02*
X0337497Y0125128D01*
X0317244Y0125128D01*
X0317244Y0124816D01*
X0319978Y0131125D02*
X0309744Y0131125D01*
X0276259Y0122069D02*
X0276259Y0119759D01*
X0275270Y0118770D01*
X0275270Y0106002D01*
X0279688Y0101585D01*
X0279688Y0097419D01*
X0276856Y0098069D02*
X0275975Y0097188D01*
X0275975Y0095789D01*
X0276856Y0098069D02*
X0276856Y0101871D01*
X0273470Y0105257D01*
X0273470Y0120914D01*
X0276259Y0122069D02*
X0274619Y0123710D01*
X0274619Y0125000D01*
X0266092Y0127000D02*
X0266092Y0102249D01*
X0268489Y0099851D01*
X0272267Y0099970D02*
X0272267Y0101368D01*
X0268881Y0104754D01*
X0268881Y0128737D01*
X0266619Y0131000D01*
X0270681Y0135438D02*
X0270119Y0136000D01*
X0270681Y0135438D02*
X0270681Y0105500D01*
X0275056Y0101125D01*
X0275056Y0098815D01*
X0273304Y0097062D01*
X0264556Y0097062D01*
X0172012Y0097062D01*
X0170012Y0099062D01*
X0150681Y0099062D01*
X0144869Y0093250D01*
X0110219Y0093250D01*
X0107244Y0090275D01*
X0107244Y0089875D01*
X0096619Y0080500D02*
X0084619Y0093500D01*
X0096619Y0080500D02*
X0100119Y0080500D01*
X0179706Y0080500D01*
X0182519Y0083313D01*
X0199442Y0083313D01*
X0260962Y0083313D01*
X0262556Y0083313D01*
X0269119Y0076750D01*
X0273494Y0076750D01*
X0275994Y0079250D01*
X0298931Y0079250D01*
X0303306Y0083625D01*
X0344306Y0083625D01*
X0346744Y0080500D01*
X0399619Y0080500D01*
X0409306Y0070813D01*
X0412453Y0066334D02*
X0412453Y0080278D01*
X0408331Y0084400D01*
X0397594Y0084400D01*
X0396619Y0085375D01*
X0347869Y0085375D01*
X0345869Y0087875D01*
X0301619Y0087875D01*
X0297056Y0083313D01*
X0274744Y0083313D01*
X0274119Y0083938D01*
X0268806Y0083938D01*
X0266119Y0086625D01*
X0264228Y0086625D01*
X0263095Y0080228D02*
X0268373Y0074950D01*
X0274239Y0074950D01*
X0276739Y0077450D01*
X0301075Y0077450D01*
X0304122Y0080497D01*
X0286360Y0092375D02*
X0285735Y0093000D01*
X0268619Y0093000D01*
X0264556Y0097062D01*
X0264545Y0099851D02*
X0244119Y0099851D01*
X0235119Y0109000D02*
X0231119Y0105000D01*
X0231119Y0100000D01*
X0235119Y0109000D02*
X0260397Y0109000D01*
X0260963Y0108433D01*
X0261130Y0108433D01*
X0262119Y0107444D01*
X0262119Y0111222D02*
X0218341Y0111222D01*
X0218119Y0111000D01*
X0218119Y0115000D02*
X0262119Y0115000D01*
X0228119Y0125000D02*
X0220908Y0117789D01*
X0206963Y0117789D01*
X0203467Y0113793D01*
X0200076Y0113793D01*
X0196576Y0110293D01*
X0190908Y0115994D02*
X0193319Y0118406D01*
X0193319Y0136867D01*
X0197345Y0140893D01*
X0197345Y0147274D01*
X0181619Y0148000D02*
X0181619Y0133500D01*
X0175908Y0138500D02*
X0161306Y0138500D01*
X0154971Y0144834D01*
X0122189Y0144834D01*
X0116930Y0139575D01*
X0116930Y0137765D01*
X0115019Y0135854D01*
X0115019Y0134256D01*
X0113385Y0132622D01*
X0113241Y0132622D01*
X0112119Y0131500D01*
X0112230Y0135411D02*
X0112230Y0135611D01*
X0115119Y0138500D01*
X0115119Y0140002D01*
X0115130Y0140013D01*
X0115130Y0140321D01*
X0121443Y0146634D01*
X0155717Y0146634D01*
X0160073Y0142278D01*
X0175908Y0142278D01*
X0174408Y0152000D02*
X0137119Y0152000D01*
X0214223Y0137000D02*
X0214223Y0136896D01*
X0217874Y0133245D01*
X0176279Y0103336D02*
X0176279Y0101000D01*
X0176279Y0103336D02*
X0176202Y0103412D01*
X0167343Y0096681D02*
X0170024Y0094000D01*
X0186619Y0094000D01*
X0167343Y0096681D02*
X0163641Y0096681D01*
X0160960Y0094000D01*
X0155619Y0094000D01*
X0105719Y0076100D02*
X0222219Y0076100D01*
X0227119Y0081500D01*
X0238642Y0081500D01*
X0240619Y0079524D01*
X0246606Y0076500D02*
X0226119Y0076500D01*
X0219436Y0072222D02*
X0237535Y0072222D01*
X0250841Y0058916D01*
X0253396Y0058916D01*
X0258396Y0063916D01*
X0260896Y0063916D01*
X0262703Y0065722D01*
X0262703Y0068278D01*
X0259119Y0071862D01*
X0259119Y0077000D01*
X0264503Y0074378D02*
X0264752Y0074627D01*
X0264503Y0074378D02*
X0264503Y0064977D01*
X0256642Y0057116D01*
X0250096Y0057116D01*
X0238267Y0068944D01*
X0164675Y0068944D01*
X0164119Y0069500D01*
X0166927Y0065808D02*
X0180888Y0051847D01*
X0184832Y0051847D01*
X0186466Y0050213D01*
X0186466Y0050153D01*
X0193366Y0043253D01*
X0257880Y0043253D01*
X0270790Y0030343D01*
X0286523Y0030343D01*
X0297866Y0019000D01*
X0308119Y0019000D01*
X0313075Y0023957D01*
X0313075Y0024000D01*
X0299296Y0024000D02*
X0296411Y0024000D01*
X0288268Y0032143D01*
X0272522Y0032143D01*
X0238511Y0066155D01*
X0227436Y0066155D01*
X0255494Y0071125D02*
X0259619Y0067000D01*
X0255494Y0071125D02*
X0255494Y0073750D01*
X0252119Y0081513D02*
X0246606Y0076500D01*
X0252119Y0081513D02*
X0258400Y0081513D01*
X0259684Y0080228D01*
X0263095Y0080228D01*
X0286360Y0092375D02*
X0360669Y0092375D01*
X0363481Y0088937D01*
X0408026Y0088937D01*
X0409463Y0087500D01*
X0420336Y0091125D02*
X0431619Y0079842D01*
X0431619Y0060500D01*
X0412453Y0066334D02*
X0411174Y0065056D01*
X0420336Y0091125D02*
X0364744Y0091125D01*
X0361882Y0094611D01*
X0354169Y0094611D01*
X0350395Y0094526D01*
X0350173Y0094304D01*
X0294554Y0094304D01*
X0292920Y0095937D01*
X0283761Y0095937D01*
X0285432Y0095937D01*
X0287369Y0097687D02*
X0283830Y0101226D01*
X0287369Y0097687D02*
X0294522Y0097687D01*
X0171032Y0057758D02*
X0167888Y0054614D01*
X0103619Y0054614D01*
X0100619Y0057614D01*
X0099505Y0057614D01*
X0099705Y0052814D02*
X0168633Y0052814D01*
X0168655Y0052836D01*
X0175954Y0052836D01*
X0105719Y0076100D02*
X0104703Y0075084D01*
X0104703Y0074222D01*
X0062119Y0031638D01*
X0062119Y0024000D01*
X0099505Y0052614D02*
X0099705Y0052814D01*
D23*
X0365869Y0104750D02*
X0371869Y0104750D01*
X0373619Y0106500D01*
X0390619Y0123000D01*
X0390619Y0141000D01*
X0390119Y0141500D01*
X0415634Y0165500D02*
X0443769Y0165500D01*
X0444269Y0166000D01*
X0480030Y0166000D01*
X0490244Y0155912D01*
X0490369Y0100500D01*
X0434821Y0100500D01*
X0434021Y0099700D01*
X0388419Y0099700D01*
X0382619Y0105500D01*
D24*
X0382619Y0105500D03*
X0365869Y0104750D03*
X0315994Y0098937D03*
X0356619Y0125500D03*
X0390119Y0141500D03*
X0463181Y0127997D03*
X0311619Y0144250D03*
X0202619Y0106000D03*
X0186619Y0105500D03*
X0135994Y0169875D03*
X0147869Y0178000D03*
X0251869Y0038500D03*
X0259119Y0034750D03*
X0446619Y0025187D03*
D25*
X0377869Y0038500D02*
X0367869Y0038500D01*
X0367869Y0026750D01*
X0361619Y0020500D01*
X0356619Y0015500D01*
X0291619Y0015500D01*
X0285516Y0021602D01*
X0277971Y0014057D01*
X0247347Y0014057D01*
X0239904Y0021500D01*
X0237619Y0021500D01*
X0285516Y0021602D02*
X0285516Y0024000D01*
X0346619Y0040500D02*
X0352869Y0046750D01*
X0352869Y0058625D01*
X0371619Y0055500D02*
X0371619Y0065500D01*
X0376997Y0070879D01*
X0372376Y0075500D01*
X0366619Y0075500D01*
X0361619Y0070500D02*
X0356619Y0075500D01*
X0361619Y0070500D02*
X0361619Y0035500D01*
X0376997Y0070879D02*
X0382203Y0076084D01*
X0386619Y0076084D01*
X0183677Y0049058D02*
X0181855Y0047236D01*
X0181855Y0024000D01*
X0081244Y0125500D02*
X0078119Y0128625D01*
X0078119Y0164000D01*
X0082331Y0168213D01*
X0106856Y0168213D01*
X0114144Y0175500D01*
X0089619Y0160500D02*
X0084619Y0160500D01*
X0081369Y0157250D01*
X0081369Y0148438D01*
X0221536Y0156214D02*
X0221572Y0156250D01*
X0230252Y0156250D01*
X0234356Y0160333D01*
X0285827Y0160333D01*
X0291619Y0165500D01*
D26*
X0356619Y0125500D02*
X0356619Y0105500D01*
X0366619Y0094250D01*
X0446619Y0094250D01*
X0446619Y0060500D01*
X0446619Y0025187D01*
X0457495Y0099624D02*
X0456619Y0100500D01*
X0447059Y0111750D02*
X0422916Y0111750D01*
X0417119Y0105953D01*
X0417244Y0105500D02*
X0394119Y0105500D01*
X0389119Y0110500D01*
X0389119Y0111750D01*
X0404619Y0116500D02*
X0404619Y0154369D01*
X0447059Y0111750D02*
X0463181Y0127997D01*
D27*
X0401855Y0165500D02*
X0389045Y0152690D01*
X0355279Y0153003D01*
X0355279Y0133003D01*
X0350366Y0128090D01*
X0350366Y0113090D01*
X0336838Y0098937D01*
X0315994Y0098937D01*
X0313181Y0098937D01*
X0276619Y0135500D01*
X0276619Y0151750D01*
X0239035Y0151750D01*
X0234035Y0146750D01*
X0207869Y0146750D01*
X0199119Y0137000D01*
X0199037Y0133082D01*
X0199037Y0117918D01*
X0195282Y0114163D01*
X0194973Y0114163D01*
X0192706Y0111896D01*
X0192706Y0108690D01*
X0192871Y0108524D01*
X0192871Y0105500D01*
X0193971Y0104400D01*
X0202619Y0104400D01*
X0202619Y0106000D01*
X0186619Y0105500D02*
X0186619Y0142613D01*
X0195931Y0151925D01*
X0231681Y0151925D01*
X0236369Y0156613D01*
X0299396Y0156613D01*
X0311696Y0144250D01*
X0311619Y0144250D01*
X0457495Y0099624D02*
X0457495Y0085500D01*
X0457495Y0037626D01*
X0457495Y0019937D01*
X0460056Y0017375D01*
X0271737Y0024000D02*
X0265894Y0018157D01*
X0255330Y0018157D01*
X0250521Y0022965D01*
X0250521Y0028127D01*
X0246805Y0031843D01*
X0245933Y0031843D01*
X0245573Y0032204D01*
X0245212Y0031843D01*
X0227771Y0031843D01*
X0219927Y0024000D01*
X0216619Y0024000D01*
X0203752Y0024000D01*
X0198012Y0018260D01*
X0193257Y0018260D01*
X0187517Y0024000D01*
X0181855Y0024000D01*
X0176193Y0024000D01*
X0170453Y0018260D01*
X0138139Y0018260D01*
X0132399Y0024000D01*
X0126737Y0024000D01*
X0121075Y0024000D01*
X0115335Y0018260D01*
X0110580Y0018260D01*
X0104840Y0024000D01*
X0099178Y0024000D01*
X0245573Y0032204D02*
X0251869Y0038500D01*
X0259119Y0034750D02*
X0259119Y0025339D01*
X0257957Y0024000D01*
X0129744Y0166125D02*
X0123494Y0166125D01*
X0114119Y0175500D01*
X0124119Y0175500D02*
X0126619Y0178000D01*
X0147869Y0178000D01*
X0135994Y0169875D02*
X0133494Y0169875D01*
X0129744Y0166125D01*
D28*
X0147869Y0178000D02*
X0278994Y0178000D01*
X0291619Y0165500D01*
X0311696Y0144250D02*
X0325487Y0144250D01*
X0346737Y0165500D01*
D29*
X0457495Y0037626D03*
X0460056Y0017375D03*
D30*
X0417119Y0105953D03*
D31*
X0026619Y0020500D03*
X0026306Y0178312D03*
X0495681Y0178312D03*
M02*
