G75*
%MOIN*%
%OFA0B0*%
%FSLAX25Y25*%
%IPPOS*%
%LPD*%
%AMOC8*
5,1,8,0,0,1.08239X$1,22.5*
%
%ADD10R,0.04331X0.03937*%
%ADD11R,0.05906X0.05118*%
%ADD12R,0.05118X0.05906*%
%ADD13R,0.06299X0.07087*%
%ADD14R,0.18110X0.03937*%
%ADD15R,0.13386X0.06299*%
%ADD16R,0.03543X0.03150*%
%ADD17R,0.03150X0.03543*%
%ADD18R,0.03937X0.04331*%
%ADD19R,0.04724X0.02362*%
%ADD20R,0.07480X0.05512*%
%ADD21R,0.05512X0.07087*%
%ADD22R,0.05906X0.02756*%
%ADD23R,0.00984X0.01969*%
%ADD24R,0.05118X0.02756*%
%ADD25R,0.00984X0.02756*%
%ADD26R,0.02756X0.00984*%
%ADD27R,0.20472X0.12598*%
%ADD28R,0.11811X0.04724*%
%ADD29R,0.02608X0.02608*%
%ADD30R,0.00787X0.01772*%
%ADD31R,0.01772X0.00787*%
%ADD32R,0.11024X0.09449*%
%ADD33R,0.03858X0.14567*%
%ADD34R,0.05906X0.07087*%
%ADD35R,0.07087X0.05906*%
%ADD36C,0.00591*%
%ADD37C,0.01969*%
%ADD38R,0.02559X0.04134*%
%ADD39R,0.02165X0.04724*%
%ADD40R,0.01600X0.03200*%
%ADD41R,0.00984X0.03937*%
%ADD42R,0.03937X0.00984*%
%ADD43R,0.07874X0.07874*%
%ADD44R,0.09252X0.01772*%
%ADD45R,0.06102X0.05906*%
%ADD46R,0.06693X0.09449*%
%ADD47R,0.05512X0.04331*%
%ADD48R,0.03937X0.10827*%
%ADD49R,0.03346X0.07480*%
%ADD50R,0.02362X0.03150*%
%ADD51C,0.01102*%
%ADD52R,0.00906X0.03150*%
D10*
X0057119Y0022654D03*
X0057119Y0029346D03*
X0112119Y0062154D03*
X0120619Y0062154D03*
X0129119Y0062154D03*
X0137619Y0062154D03*
X0149619Y0062154D03*
X0158119Y0062154D03*
X0158119Y0068846D03*
X0149619Y0068846D03*
X0137619Y0068846D03*
X0129119Y0068846D03*
X0120619Y0068846D03*
X0112119Y0068846D03*
X0109369Y0107779D03*
X0118119Y0111654D03*
X0109369Y0114471D03*
X0109369Y0120029D03*
X0118119Y0118346D03*
X0118119Y0123654D03*
X0109369Y0126721D03*
X0118119Y0130346D03*
X0087869Y0126346D03*
X0087869Y0119654D03*
X0087869Y0114471D03*
X0087869Y0107779D03*
X0150119Y0134404D03*
X0158119Y0134404D03*
X0158119Y0141096D03*
X0150119Y0141096D03*
X0148772Y0147500D03*
X0155465Y0147500D03*
X0199119Y0132846D03*
X0207619Y0132846D03*
X0207619Y0126154D03*
X0199119Y0126154D03*
X0184465Y0126000D03*
X0177772Y0126000D03*
X0247272Y0146500D03*
X0253965Y0146500D03*
X0327119Y0123346D03*
X0335119Y0123346D03*
X0343119Y0123346D03*
X0343119Y0128904D03*
X0343119Y0135596D03*
X0385369Y0141154D03*
X0393619Y0141154D03*
X0409272Y0146500D03*
X0415965Y0146500D03*
X0393619Y0147846D03*
X0385369Y0147846D03*
X0343119Y0116654D03*
X0335119Y0116654D03*
X0327119Y0116654D03*
X0327619Y0090346D03*
X0327619Y0083654D03*
X0328619Y0076346D03*
X0338119Y0076346D03*
X0338119Y0069654D03*
X0328619Y0069654D03*
X0447022Y0017375D03*
X0453715Y0017375D03*
X0060619Y0171154D03*
X0060619Y0177846D03*
D11*
X0050619Y0152240D03*
X0050619Y0144760D03*
X0360619Y0145990D03*
X0360619Y0138510D03*
X0384619Y0131240D03*
X0392619Y0131240D03*
X0400619Y0131240D03*
X0400619Y0123760D03*
X0392619Y0123760D03*
X0384619Y0123760D03*
X0427119Y0129760D03*
X0434619Y0129760D03*
X0434619Y0137240D03*
X0427119Y0137240D03*
D12*
X0374859Y0126750D03*
X0367379Y0126750D03*
D13*
X0332131Y0146750D03*
X0321107Y0146750D03*
X0324857Y0097500D03*
X0335881Y0097500D03*
D14*
X0476114Y0102813D03*
X0476114Y0110687D03*
D15*
X0496587Y0120136D03*
X0496587Y0093364D03*
D16*
X0356056Y0104760D03*
X0347788Y0108500D03*
X0356056Y0112240D03*
X0334182Y0091240D03*
X0342449Y0087500D03*
X0334182Y0083760D03*
X0346806Y0140510D03*
X0338538Y0144250D03*
X0346806Y0147990D03*
X0102824Y0123625D03*
X0094557Y0119885D03*
X0094432Y0114865D03*
X0102699Y0111125D03*
X0094432Y0107385D03*
X0094557Y0127365D03*
D17*
X0080359Y0114437D03*
X0072879Y0114437D03*
X0076619Y0106169D03*
D18*
X0075465Y0121000D03*
X0068772Y0121000D03*
X0060119Y0124654D03*
X0049119Y0124654D03*
X0049119Y0131346D03*
X0060119Y0131346D03*
X0067772Y0133500D03*
X0074465Y0133500D03*
X0074465Y0141500D03*
X0067772Y0141500D03*
X0059619Y0145154D03*
X0059619Y0151846D03*
X0119119Y0147846D03*
X0127619Y0147846D03*
X0119369Y0154529D03*
X0119369Y0161221D03*
X0119119Y0141154D03*
X0127619Y0141154D03*
X0204272Y0139500D03*
X0210965Y0139500D03*
X0217619Y0141154D03*
X0217619Y0147846D03*
X0210965Y0147500D03*
X0204272Y0147500D03*
X0222119Y0125346D03*
X0222119Y0118654D03*
X0279522Y0126125D03*
X0286215Y0126125D03*
X0293897Y0104250D03*
X0300590Y0104250D03*
X0349772Y0117250D03*
X0356465Y0117250D03*
X0402119Y0141154D03*
X0402119Y0147846D03*
X0297119Y0055846D03*
X0297119Y0049154D03*
D19*
X0305595Y0049500D03*
X0305595Y0054500D03*
X0305595Y0059500D03*
X0305595Y0064500D03*
X0327642Y0064500D03*
X0327642Y0059500D03*
X0327642Y0054500D03*
X0327642Y0049500D03*
D20*
X0029062Y0101425D03*
X0025518Y0049457D03*
D21*
X0080636Y0071504D03*
X0080636Y0095126D03*
D22*
X0040479Y0093551D03*
X0040479Y0097882D03*
X0038904Y0089220D03*
X0040479Y0084890D03*
X0038904Y0080559D03*
X0040479Y0076228D03*
X0042054Y0071898D03*
X0040479Y0067567D03*
D23*
X0367416Y0132510D03*
X0369384Y0132510D03*
X0371353Y0132510D03*
X0373321Y0132510D03*
X0373321Y0139990D03*
X0371353Y0139990D03*
X0369384Y0139990D03*
X0367416Y0139990D03*
D24*
X0370369Y0136250D03*
D25*
X0152446Y0129949D03*
X0150477Y0129949D03*
X0148509Y0129949D03*
X0146540Y0129949D03*
X0144571Y0129949D03*
X0142603Y0129949D03*
X0140634Y0129949D03*
X0138666Y0129949D03*
X0136697Y0129949D03*
X0134729Y0129949D03*
X0132760Y0129949D03*
X0130792Y0129949D03*
X0130792Y0111051D03*
X0132760Y0111051D03*
X0134729Y0111051D03*
X0136697Y0111051D03*
X0138666Y0111051D03*
X0140634Y0111051D03*
X0142603Y0111051D03*
X0144571Y0111051D03*
X0146540Y0111051D03*
X0148509Y0111051D03*
X0150477Y0111051D03*
X0152446Y0111051D03*
D26*
X0155005Y0114594D03*
X0155005Y0116563D03*
X0155005Y0118531D03*
X0155005Y0120500D03*
X0155005Y0122469D03*
X0155005Y0124437D03*
X0155005Y0126406D03*
X0128233Y0126406D03*
X0128233Y0124437D03*
X0128233Y0122469D03*
X0128233Y0120500D03*
X0128233Y0118531D03*
X0128233Y0116563D03*
X0128233Y0114594D03*
D27*
X0141619Y0120500D03*
D28*
X0419279Y0084622D03*
X0419279Y0076748D03*
X0419279Y0068874D03*
X0419279Y0061000D03*
X0419279Y0053125D03*
X0419279Y0045251D03*
X0419279Y0037377D03*
X0419279Y0029503D03*
X0478334Y0029503D03*
X0478334Y0037377D03*
X0478334Y0045251D03*
X0478334Y0053125D03*
X0478334Y0061000D03*
X0478334Y0068874D03*
X0478334Y0076748D03*
X0478334Y0084622D03*
D29*
X0304227Y0117892D03*
X0299010Y0117892D03*
X0299010Y0123108D03*
X0304227Y0123108D03*
D30*
X0304768Y0127488D03*
X0303194Y0127488D03*
X0301619Y0127488D03*
X0300044Y0127488D03*
X0298469Y0127488D03*
X0296894Y0127488D03*
X0306343Y0127488D03*
X0306343Y0113512D03*
X0304768Y0113512D03*
X0303194Y0113512D03*
X0301619Y0113512D03*
X0300044Y0113512D03*
X0298469Y0113512D03*
X0296894Y0113512D03*
D31*
X0294631Y0115776D03*
X0294631Y0117350D03*
X0294631Y0118925D03*
X0294631Y0120500D03*
X0294631Y0122075D03*
X0294631Y0123650D03*
X0294631Y0125224D03*
X0308607Y0125224D03*
X0308607Y0123650D03*
X0308607Y0122075D03*
X0308607Y0120500D03*
X0308607Y0118925D03*
X0308607Y0117350D03*
X0308607Y0115776D03*
D32*
X0452915Y0128372D03*
X0476931Y0128372D03*
X0476931Y0173253D03*
X0452915Y0173253D03*
D33*
X0420284Y0115500D03*
X0410953Y0115500D03*
D34*
X0391579Y0096484D03*
X0384099Y0096484D03*
X0376619Y0096484D03*
X0369138Y0096484D03*
X0361658Y0096484D03*
X0361658Y0044516D03*
X0369138Y0044516D03*
X0376619Y0044516D03*
X0384099Y0044516D03*
X0391579Y0044516D03*
D35*
X0402603Y0055539D03*
X0402603Y0063020D03*
X0402603Y0070500D03*
X0402603Y0077980D03*
X0402603Y0085461D03*
X0350634Y0085461D03*
X0350634Y0077980D03*
X0350634Y0070500D03*
X0350634Y0063020D03*
X0350634Y0055539D03*
D36*
X0254666Y0104826D02*
X0254666Y0106992D01*
X0255256Y0106992D01*
X0255256Y0104826D01*
X0254666Y0104826D01*
X0254666Y0105416D02*
X0255256Y0105416D01*
X0255256Y0106006D02*
X0254666Y0106006D01*
X0254666Y0106596D02*
X0255256Y0106596D01*
X0252698Y0106992D02*
X0252698Y0104826D01*
X0252698Y0106992D02*
X0253288Y0106992D01*
X0253288Y0104826D01*
X0252698Y0104826D01*
X0252698Y0105416D02*
X0253288Y0105416D01*
X0253288Y0106006D02*
X0252698Y0106006D01*
X0252698Y0106596D02*
X0253288Y0106596D01*
X0250729Y0106992D02*
X0250729Y0104826D01*
X0250729Y0106992D02*
X0251319Y0106992D01*
X0251319Y0104826D01*
X0250729Y0104826D01*
X0250729Y0105416D02*
X0251319Y0105416D01*
X0251319Y0106006D02*
X0250729Y0106006D01*
X0250729Y0106596D02*
X0251319Y0106596D01*
X0248761Y0106992D02*
X0248761Y0104826D01*
X0248761Y0106992D02*
X0249351Y0106992D01*
X0249351Y0104826D01*
X0248761Y0104826D01*
X0248761Y0105416D02*
X0249351Y0105416D01*
X0249351Y0106006D02*
X0248761Y0106006D01*
X0248761Y0106596D02*
X0249351Y0106596D01*
X0246792Y0106992D02*
X0246792Y0104826D01*
X0246792Y0106992D02*
X0247382Y0106992D01*
X0247382Y0104826D01*
X0246792Y0104826D01*
X0246792Y0105416D02*
X0247382Y0105416D01*
X0247382Y0106006D02*
X0246792Y0106006D01*
X0246792Y0106596D02*
X0247382Y0106596D01*
X0244824Y0106992D02*
X0244824Y0104826D01*
X0244824Y0106992D02*
X0245414Y0106992D01*
X0245414Y0104826D01*
X0244824Y0104826D01*
X0244824Y0105416D02*
X0245414Y0105416D01*
X0245414Y0106006D02*
X0244824Y0106006D01*
X0244824Y0106596D02*
X0245414Y0106596D01*
X0242855Y0106992D02*
X0242855Y0104826D01*
X0242855Y0106992D02*
X0243445Y0106992D01*
X0243445Y0104826D01*
X0242855Y0104826D01*
X0242855Y0105416D02*
X0243445Y0105416D01*
X0243445Y0106006D02*
X0242855Y0106006D01*
X0242855Y0106596D02*
X0243445Y0106596D01*
X0240887Y0106992D02*
X0240887Y0104826D01*
X0240887Y0106992D02*
X0241477Y0106992D01*
X0241477Y0104826D01*
X0240887Y0104826D01*
X0240887Y0105416D02*
X0241477Y0105416D01*
X0241477Y0106006D02*
X0240887Y0106006D01*
X0240887Y0106596D02*
X0241477Y0106596D01*
X0238918Y0106992D02*
X0238918Y0104826D01*
X0238918Y0106992D02*
X0239508Y0106992D01*
X0239508Y0104826D01*
X0238918Y0104826D01*
X0238918Y0105416D02*
X0239508Y0105416D01*
X0239508Y0106006D02*
X0238918Y0106006D01*
X0238918Y0106596D02*
X0239508Y0106596D01*
X0236950Y0106992D02*
X0236950Y0104826D01*
X0236950Y0106992D02*
X0237540Y0106992D01*
X0237540Y0104826D01*
X0236950Y0104826D01*
X0236950Y0105416D02*
X0237540Y0105416D01*
X0237540Y0106006D02*
X0236950Y0106006D01*
X0236950Y0106596D02*
X0237540Y0106596D01*
X0234981Y0106992D02*
X0234981Y0104826D01*
X0234981Y0106992D02*
X0235571Y0106992D01*
X0235571Y0104826D01*
X0234981Y0104826D01*
X0234981Y0105416D02*
X0235571Y0105416D01*
X0235571Y0106006D02*
X0234981Y0106006D01*
X0234981Y0106596D02*
X0235571Y0106596D01*
X0230945Y0108862D02*
X0230945Y0109452D01*
X0233111Y0109452D01*
X0233111Y0108862D01*
X0230945Y0108862D01*
X0230945Y0109452D02*
X0233111Y0109452D01*
X0230945Y0110831D02*
X0230945Y0111421D01*
X0233111Y0111421D01*
X0233111Y0110831D01*
X0230945Y0110831D01*
X0230945Y0111421D02*
X0233111Y0111421D01*
X0230945Y0112799D02*
X0230945Y0113389D01*
X0233111Y0113389D01*
X0233111Y0112799D01*
X0230945Y0112799D01*
X0230945Y0113389D02*
X0233111Y0113389D01*
X0230945Y0114768D02*
X0230945Y0115358D01*
X0233111Y0115358D01*
X0233111Y0114768D01*
X0230945Y0114768D01*
X0230945Y0115358D02*
X0233111Y0115358D01*
X0230945Y0116736D02*
X0230945Y0117326D01*
X0233111Y0117326D01*
X0233111Y0116736D01*
X0230945Y0116736D01*
X0230945Y0117326D02*
X0233111Y0117326D01*
X0230945Y0118705D02*
X0230945Y0119295D01*
X0233111Y0119295D01*
X0233111Y0118705D01*
X0230945Y0118705D01*
X0230945Y0119295D02*
X0233111Y0119295D01*
X0230945Y0120674D02*
X0230945Y0121264D01*
X0233111Y0121264D01*
X0233111Y0120674D01*
X0230945Y0120674D01*
X0230945Y0121264D02*
X0233111Y0121264D01*
X0230945Y0122642D02*
X0230945Y0123232D01*
X0233111Y0123232D01*
X0233111Y0122642D01*
X0230945Y0122642D01*
X0230945Y0123232D02*
X0233111Y0123232D01*
X0230945Y0124611D02*
X0230945Y0125201D01*
X0233111Y0125201D01*
X0233111Y0124611D01*
X0230945Y0124611D01*
X0230945Y0125201D02*
X0233111Y0125201D01*
X0230945Y0126579D02*
X0230945Y0127169D01*
X0233111Y0127169D01*
X0233111Y0126579D01*
X0230945Y0126579D01*
X0230945Y0127169D02*
X0233111Y0127169D01*
X0230945Y0128548D02*
X0230945Y0129138D01*
X0233111Y0129138D01*
X0233111Y0128548D01*
X0230945Y0128548D01*
X0230945Y0129138D02*
X0233111Y0129138D01*
X0234981Y0131008D02*
X0234981Y0133174D01*
X0235571Y0133174D01*
X0235571Y0131008D01*
X0234981Y0131008D01*
X0234981Y0131598D02*
X0235571Y0131598D01*
X0235571Y0132188D02*
X0234981Y0132188D01*
X0234981Y0132778D02*
X0235571Y0132778D01*
X0236950Y0133174D02*
X0236950Y0131008D01*
X0236950Y0133174D02*
X0237540Y0133174D01*
X0237540Y0131008D01*
X0236950Y0131008D01*
X0236950Y0131598D02*
X0237540Y0131598D01*
X0237540Y0132188D02*
X0236950Y0132188D01*
X0236950Y0132778D02*
X0237540Y0132778D01*
X0238918Y0133174D02*
X0238918Y0131008D01*
X0238918Y0133174D02*
X0239508Y0133174D01*
X0239508Y0131008D01*
X0238918Y0131008D01*
X0238918Y0131598D02*
X0239508Y0131598D01*
X0239508Y0132188D02*
X0238918Y0132188D01*
X0238918Y0132778D02*
X0239508Y0132778D01*
X0240887Y0133174D02*
X0240887Y0131008D01*
X0240887Y0133174D02*
X0241477Y0133174D01*
X0241477Y0131008D01*
X0240887Y0131008D01*
X0240887Y0131598D02*
X0241477Y0131598D01*
X0241477Y0132188D02*
X0240887Y0132188D01*
X0240887Y0132778D02*
X0241477Y0132778D01*
X0242855Y0133174D02*
X0242855Y0131008D01*
X0242855Y0133174D02*
X0243445Y0133174D01*
X0243445Y0131008D01*
X0242855Y0131008D01*
X0242855Y0131598D02*
X0243445Y0131598D01*
X0243445Y0132188D02*
X0242855Y0132188D01*
X0242855Y0132778D02*
X0243445Y0132778D01*
X0244824Y0133174D02*
X0244824Y0131008D01*
X0244824Y0133174D02*
X0245414Y0133174D01*
X0245414Y0131008D01*
X0244824Y0131008D01*
X0244824Y0131598D02*
X0245414Y0131598D01*
X0245414Y0132188D02*
X0244824Y0132188D01*
X0244824Y0132778D02*
X0245414Y0132778D01*
X0246792Y0133174D02*
X0246792Y0131008D01*
X0246792Y0133174D02*
X0247382Y0133174D01*
X0247382Y0131008D01*
X0246792Y0131008D01*
X0246792Y0131598D02*
X0247382Y0131598D01*
X0247382Y0132188D02*
X0246792Y0132188D01*
X0246792Y0132778D02*
X0247382Y0132778D01*
X0248761Y0133174D02*
X0248761Y0131008D01*
X0248761Y0133174D02*
X0249351Y0133174D01*
X0249351Y0131008D01*
X0248761Y0131008D01*
X0248761Y0131598D02*
X0249351Y0131598D01*
X0249351Y0132188D02*
X0248761Y0132188D01*
X0248761Y0132778D02*
X0249351Y0132778D01*
X0250729Y0133174D02*
X0250729Y0131008D01*
X0250729Y0133174D02*
X0251319Y0133174D01*
X0251319Y0131008D01*
X0250729Y0131008D01*
X0250729Y0131598D02*
X0251319Y0131598D01*
X0251319Y0132188D02*
X0250729Y0132188D01*
X0250729Y0132778D02*
X0251319Y0132778D01*
X0252698Y0133174D02*
X0252698Y0131008D01*
X0252698Y0133174D02*
X0253288Y0133174D01*
X0253288Y0131008D01*
X0252698Y0131008D01*
X0252698Y0131598D02*
X0253288Y0131598D01*
X0253288Y0132188D02*
X0252698Y0132188D01*
X0252698Y0132778D02*
X0253288Y0132778D01*
X0254666Y0133174D02*
X0254666Y0131008D01*
X0254666Y0133174D02*
X0255256Y0133174D01*
X0255256Y0131008D01*
X0254666Y0131008D01*
X0254666Y0131598D02*
X0255256Y0131598D01*
X0255256Y0132188D02*
X0254666Y0132188D01*
X0254666Y0132778D02*
X0255256Y0132778D01*
X0257126Y0129138D02*
X0257126Y0128548D01*
X0257126Y0129138D02*
X0259292Y0129138D01*
X0259292Y0128548D01*
X0257126Y0128548D01*
X0257126Y0129138D02*
X0259292Y0129138D01*
X0257126Y0127169D02*
X0257126Y0126579D01*
X0257126Y0127169D02*
X0259292Y0127169D01*
X0259292Y0126579D01*
X0257126Y0126579D01*
X0257126Y0127169D02*
X0259292Y0127169D01*
X0257126Y0125201D02*
X0257126Y0124611D01*
X0257126Y0125201D02*
X0259292Y0125201D01*
X0259292Y0124611D01*
X0257126Y0124611D01*
X0257126Y0125201D02*
X0259292Y0125201D01*
X0257126Y0123232D02*
X0257126Y0122642D01*
X0257126Y0123232D02*
X0259292Y0123232D01*
X0259292Y0122642D01*
X0257126Y0122642D01*
X0257126Y0123232D02*
X0259292Y0123232D01*
X0257126Y0121264D02*
X0257126Y0120674D01*
X0257126Y0121264D02*
X0259292Y0121264D01*
X0259292Y0120674D01*
X0257126Y0120674D01*
X0257126Y0121264D02*
X0259292Y0121264D01*
X0257126Y0119295D02*
X0257126Y0118705D01*
X0257126Y0119295D02*
X0259292Y0119295D01*
X0259292Y0118705D01*
X0257126Y0118705D01*
X0257126Y0119295D02*
X0259292Y0119295D01*
X0257126Y0117326D02*
X0257126Y0116736D01*
X0257126Y0117326D02*
X0259292Y0117326D01*
X0259292Y0116736D01*
X0257126Y0116736D01*
X0257126Y0117326D02*
X0259292Y0117326D01*
X0257126Y0115358D02*
X0257126Y0114768D01*
X0257126Y0115358D02*
X0259292Y0115358D01*
X0259292Y0114768D01*
X0257126Y0114768D01*
X0257126Y0115358D02*
X0259292Y0115358D01*
X0257126Y0113389D02*
X0257126Y0112799D01*
X0257126Y0113389D02*
X0259292Y0113389D01*
X0259292Y0112799D01*
X0257126Y0112799D01*
X0257126Y0113389D02*
X0259292Y0113389D01*
X0257126Y0111421D02*
X0257126Y0110831D01*
X0257126Y0111421D02*
X0259292Y0111421D01*
X0259292Y0110831D01*
X0257126Y0110831D01*
X0257126Y0111421D02*
X0259292Y0111421D01*
X0257126Y0109452D02*
X0257126Y0108862D01*
X0257126Y0109452D02*
X0259292Y0109452D01*
X0259292Y0108862D01*
X0257126Y0108862D01*
X0257126Y0109452D02*
X0259292Y0109452D01*
D37*
X0236261Y0110142D02*
X0236261Y0127858D01*
X0253977Y0127858D01*
X0253977Y0110142D01*
X0236261Y0110142D01*
X0236261Y0112110D02*
X0253977Y0112110D01*
X0253977Y0114078D02*
X0236261Y0114078D01*
X0236261Y0116046D02*
X0253977Y0116046D01*
X0253977Y0118014D02*
X0236261Y0118014D01*
X0236261Y0119982D02*
X0253977Y0119982D01*
X0253977Y0121950D02*
X0236261Y0121950D01*
X0236261Y0123918D02*
X0253977Y0123918D01*
X0253977Y0125886D02*
X0236261Y0125886D01*
X0236261Y0127854D02*
X0253977Y0127854D01*
D38*
X0040107Y0017831D03*
X0051131Y0017831D03*
X0051131Y0034169D03*
X0040107Y0034169D03*
X0040607Y0165331D03*
X0051631Y0165331D03*
X0051631Y0181669D03*
X0040607Y0181669D03*
D39*
X0133879Y0148618D03*
X0137619Y0148618D03*
X0141359Y0148618D03*
X0141359Y0138382D03*
X0137619Y0138382D03*
X0133879Y0138382D03*
D40*
X0133194Y0055043D03*
X0136343Y0055043D03*
X0130044Y0055043D03*
X0126894Y0055043D03*
X0126894Y0047957D03*
X0130044Y0047957D03*
X0133194Y0047957D03*
X0136343Y0047957D03*
X0154894Y0047957D03*
X0158044Y0047957D03*
X0161194Y0047957D03*
X0164343Y0047957D03*
X0164343Y0055043D03*
X0161194Y0055043D03*
X0158044Y0055043D03*
X0154894Y0055043D03*
D41*
X0185556Y0132752D03*
X0187524Y0132752D03*
X0189493Y0132752D03*
X0191461Y0132752D03*
X0193430Y0132752D03*
X0193430Y0148500D03*
X0191461Y0148500D03*
X0189493Y0148500D03*
X0187524Y0148500D03*
X0185556Y0148500D03*
D42*
X0181619Y0144563D03*
X0181619Y0142594D03*
X0181619Y0140626D03*
X0181619Y0138657D03*
X0181619Y0136689D03*
X0197367Y0136689D03*
X0197367Y0138657D03*
X0197367Y0140626D03*
X0197367Y0142594D03*
X0197367Y0144563D03*
D43*
X0189493Y0140626D03*
D44*
X0035119Y0139118D03*
X0035119Y0136559D03*
X0035119Y0134000D03*
X0035119Y0131441D03*
X0035119Y0128882D03*
D45*
X0022619Y0130063D03*
X0022619Y0137937D03*
X0022619Y0146008D03*
X0022619Y0121992D03*
D46*
X0225835Y0144500D03*
X0240402Y0144500D03*
D47*
X0209024Y0120650D03*
X0197213Y0120650D03*
X0197213Y0114350D03*
X0209024Y0114350D03*
X0323713Y0130850D03*
X0323713Y0137150D03*
X0335524Y0137150D03*
X0335524Y0130850D03*
D48*
G36*
X0193400Y0083929D02*
X0196184Y0081145D01*
X0188530Y0073491D01*
X0185746Y0076275D01*
X0193400Y0083929D01*
G37*
G36*
X0187832Y0089497D02*
X0190616Y0086713D01*
X0182962Y0079059D01*
X0180178Y0081843D01*
X0187832Y0089497D01*
G37*
G36*
X0177394Y0084627D02*
X0174610Y0087411D01*
X0182264Y0095065D01*
X0185048Y0092281D01*
X0177394Y0084627D01*
G37*
G36*
X0164726Y0088662D02*
X0167510Y0085878D01*
X0159856Y0078224D01*
X0157072Y0081008D01*
X0164726Y0088662D01*
G37*
G36*
X0159158Y0094230D02*
X0161942Y0091446D01*
X0154288Y0083792D01*
X0151504Y0086576D01*
X0159158Y0094230D01*
G37*
G36*
X0171129Y0106201D02*
X0173913Y0103417D01*
X0166259Y0095763D01*
X0163475Y0098547D01*
X0171129Y0106201D01*
G37*
G36*
X0176696Y0100633D02*
X0179480Y0097849D01*
X0171826Y0090195D01*
X0169042Y0092979D01*
X0176696Y0100633D01*
G37*
G36*
X0165424Y0072656D02*
X0162640Y0075440D01*
X0170294Y0083094D01*
X0173078Y0080310D01*
X0165424Y0072656D01*
G37*
G36*
X0175861Y0077527D02*
X0178645Y0074743D01*
X0170991Y0067089D01*
X0168207Y0069873D01*
X0175861Y0077527D01*
G37*
G36*
X0198968Y0078362D02*
X0201752Y0075578D01*
X0194098Y0067924D01*
X0191314Y0070708D01*
X0198968Y0078362D01*
G37*
G36*
X0204535Y0072794D02*
X0207319Y0070010D01*
X0199665Y0062356D01*
X0196881Y0065140D01*
X0204535Y0072794D01*
G37*
G36*
X0181429Y0071959D02*
X0184213Y0069175D01*
X0176559Y0061521D01*
X0173775Y0064305D01*
X0181429Y0071959D01*
G37*
G36*
X0186997Y0066391D02*
X0189781Y0063607D01*
X0182127Y0055953D01*
X0179343Y0058737D01*
X0186997Y0066391D01*
G37*
G36*
X0192565Y0060823D02*
X0195349Y0058039D01*
X0187695Y0050385D01*
X0184911Y0053169D01*
X0192565Y0060823D01*
G37*
D49*
X0367264Y0146000D03*
X0372973Y0146000D03*
D50*
X0412544Y0136469D03*
X0415694Y0136469D03*
X0415694Y0132531D03*
X0412544Y0132531D03*
D51*
X0409434Y0132531D02*
X0407190Y0132531D01*
X0407190Y0130563D02*
X0409434Y0130563D01*
X0409434Y0134500D02*
X0407190Y0134500D01*
X0407190Y0136469D02*
X0409434Y0136469D01*
X0409434Y0138437D02*
X0407190Y0138437D01*
X0418804Y0138437D02*
X0421048Y0138437D01*
X0421048Y0136469D02*
X0418804Y0136469D01*
X0418804Y0134500D02*
X0421048Y0134500D01*
X0421048Y0132531D02*
X0418804Y0132531D01*
X0418804Y0130563D02*
X0421048Y0130563D01*
D52*
X0416481Y0128752D03*
X0414906Y0128752D03*
X0413331Y0128752D03*
X0411757Y0128752D03*
X0411757Y0140248D03*
X0413331Y0140248D03*
X0414906Y0140248D03*
X0416481Y0140248D03*
M02*
